<svg width="258" height="112" viewBox="0 0 258 112" fill="none" xmlns="http://www.w3.org/2000/svg">
<path d="M213.375 86.6781H210.378V101.963C210.378 104.268 210.412 105.76 210.48 106.439C210.557 107.094 210.741 107.701 211.031 108.259C211.33 108.792 211.74 109.059 212.261 109.059H212.837V110.406H203.754V109.059H204.33C204.877 109.059 205.287 108.804 205.56 108.295C205.834 107.785 206.009 107.179 206.086 106.475C206.162 105.747 206.201 104.243 206.201 101.963V69.5011C206.201 67.1963 206.167 65.7164 206.098 65.0613C206.03 64.382 205.846 63.7755 205.548 63.2417C205.257 62.6837 204.851 62.4047 204.33 62.4047H203.754V61.0582H212.837V62.4047H212.261C211.714 62.4047 211.304 62.6594 211.031 63.1689C210.758 63.6784 210.578 64.2971 210.493 65.0249C210.416 65.7285 210.378 67.2206 210.378 69.5011V83.4756H213.375C213.58 76.3428 214.567 70.6414 216.335 66.3714C218.111 62.0772 220.213 59.9301 222.638 59.9301C224.5 59.9301 226.127 61.1189 227.519 63.4965C228.912 65.8741 229.975 69.0038 230.71 72.8856C231.444 76.7431 231.811 80.9646 231.811 85.55C231.811 92.7313 230.979 98.8573 229.313 103.928C227.656 108.999 225.431 111.534 222.638 111.534C219.939 111.534 217.748 109.217 216.066 104.583C214.392 99.949 213.495 93.9808 213.375 86.6781ZM222.625 62.6958C221.173 62.6958 220.037 64.6125 219.218 68.4458C218.398 72.279 217.988 78.1018 217.988 85.9139C217.988 93.2165 218.376 98.8573 219.153 102.836C219.939 106.815 221.088 108.804 222.6 108.804C224.12 108.804 225.265 106.851 226.033 102.945C226.811 99.0392 227.199 93.4592 227.199 86.205C227.199 70.5322 225.675 62.6958 222.625 62.6958Z" fill="black"/>
<path d="M193.556 83.4759H195.849C198.326 83.4759 200.124 84.7132 201.243 87.1879C202.362 89.6625 202.921 92.9621 202.921 97.0865C202.921 99.9008 202.635 102.327 202.063 104.365C201.499 106.403 200.786 107.919 199.923 108.914C199.069 109.909 197.818 110.406 196.17 110.406H186.855V109.059C187.932 109.011 188.619 108.611 188.918 107.858C189.226 107.082 189.379 105.408 189.379 102.836V70.0473C189.379 66.5537 189.251 64.4187 188.995 63.6423C188.747 62.8659 188.081 62.4535 186.996 62.405V61.0585H195.939V62.405C195.119 62.4292 194.572 62.6476 194.299 63.06C194.034 63.4725 193.842 63.982 193.722 64.5885C193.611 65.195 193.556 66.6992 193.556 69.1011V83.4759ZM193.556 86.6784V101.563C193.556 103.916 193.671 105.578 193.902 106.548C194.132 107.495 194.56 107.968 195.183 107.968C196.182 107.968 196.934 107.009 197.438 105.093C197.95 103.176 198.207 100.786 198.207 97.9235C198.207 95.1577 197.976 92.8408 197.515 90.9726C197.054 89.0803 196.537 87.8915 195.965 87.4062C195.401 86.921 194.598 86.6784 193.556 86.6784Z" fill="black"/>
<path d="M185.991 61.0585V74.4143H185.53C185.257 71.3331 184.954 69.1253 184.62 67.791C184.287 66.4323 183.83 65.3527 183.25 64.5521C182.925 64.1154 182.357 63.897 181.546 63.897H180.252V101.963C180.252 104.486 180.299 106.063 180.393 106.694C180.495 107.325 180.687 107.883 180.969 108.368C181.26 108.829 181.652 109.059 182.148 109.059H182.724V110.406H173.628V109.059H174.205C174.709 109.059 175.114 108.805 175.422 108.295C175.644 107.956 175.819 107.373 175.947 106.548C176.041 105.966 176.088 104.438 176.088 101.963V63.897H174.832C173.662 63.897 172.812 64.6006 172.283 66.0078C171.54 67.9729 171.07 70.7751 170.874 74.4143H170.387V61.0585H185.991Z" fill="black"/>
<path d="M160.676 88.0613V101.745C160.676 104.413 160.732 106.1 160.843 106.803C160.963 107.482 161.168 108.028 161.458 108.441C161.757 108.853 162.299 109.059 163.085 109.059V110.406H154.258V109.059C155.061 109.059 155.603 108.853 155.885 108.441C156.175 108.004 156.376 107.446 156.487 106.767C156.607 106.087 156.666 104.413 156.666 101.745V69.7198C156.666 67.051 156.607 65.377 156.487 64.6977C156.376 63.9941 156.175 63.4361 155.885 63.0236C155.594 62.6112 155.052 62.405 154.258 62.405V61.0585H161.829C164.323 61.0585 166.113 62.3201 167.198 64.8432C168.282 67.3664 168.825 70.5204 168.825 74.3051C168.825 77.5076 168.474 80.2491 167.774 82.5297C167.074 84.8103 166.109 86.363 164.879 87.1879C164.05 87.7701 162.649 88.0613 160.676 88.0613ZM160.676 63.897V85.2227C160.958 85.2712 161.172 85.2955 161.317 85.2955C162.359 85.2955 163.162 84.4221 163.726 82.6753C164.289 80.9042 164.571 78.1748 164.571 74.4871C164.571 70.8236 164.289 68.1428 163.726 66.4445C163.162 64.7462 162.321 63.897 161.202 63.897H160.676Z" fill="black"/>
<path d="M143.768 63.897V83.9854H144.114C145.216 83.9854 146.014 83.0028 146.51 81.0376C147.005 79.0725 147.321 76.1733 147.458 72.34H147.945V98.1782H147.458C147.355 95.3639 147.138 93.0591 146.804 91.2638C146.48 89.4684 146.1 88.2675 145.664 87.661C145.229 87.0302 144.597 86.7148 143.768 86.7148V100.616C143.768 103.334 143.807 104.996 143.883 105.602C143.969 106.209 144.123 106.706 144.345 107.094C144.567 107.482 144.925 107.677 145.421 107.677H146.459C148.081 107.677 149.38 106.609 150.353 104.474C151.336 102.339 152.04 99.088 152.467 94.721H152.941L152.16 110.406H137.145V109.059H137.721C138.225 109.059 138.631 108.805 138.938 108.295C139.16 107.956 139.331 107.373 139.451 106.548C139.545 105.966 139.592 104.438 139.592 101.963V69.5014C139.592 67.2694 139.57 65.8986 139.527 65.3891C139.442 64.54 139.284 63.8849 139.053 63.4239C138.729 62.7446 138.285 62.405 137.721 62.405H137.145V61.0585H151.686V75.6516H151.199C150.951 72.0852 150.601 69.5257 150.148 67.9729C149.704 66.4202 149.072 65.2799 148.252 64.5521C147.774 64.1154 146.877 63.897 145.562 63.897H143.768Z" fill="black"/>
<path d="M124.869 93.5929L129.584 61.0585H136.656V62.405H136.092C135.58 62.405 135.17 62.6597 134.863 63.1692C134.649 63.5089 134.478 64.079 134.35 64.8796C134.256 65.4619 134.209 66.9782 134.209 69.4286V101.963C134.209 104.486 134.256 106.063 134.35 106.694C134.444 107.325 134.636 107.883 134.927 108.368C135.217 108.829 135.606 109.059 136.092 109.059H136.656V110.406H127.586V109.059H128.149C128.662 109.059 129.072 108.805 129.379 108.295C129.593 107.956 129.764 107.373 129.892 106.548C129.986 105.966 130.033 104.438 130.033 101.963V65.3891L123.371 110.406H123.063L116.299 65.7166V100.471C116.299 102.897 116.32 104.389 116.363 104.947C116.474 106.16 116.713 107.155 117.08 107.931C117.456 108.683 118.041 109.059 118.835 109.059V110.406H112.891V109.059H113.07C113.454 109.084 113.813 108.914 114.146 108.55C114.479 108.162 114.731 107.652 114.902 107.021C115.073 106.391 115.205 105.505 115.299 104.365C115.316 104.098 115.325 102.861 115.325 100.653V69.4286C115.325 66.9297 115.278 65.377 115.184 64.7704C115.09 64.1397 114.898 63.5938 114.607 63.1328C114.317 62.6476 113.928 62.405 113.442 62.405H112.891V61.0585H119.988L124.869 93.5929Z" fill="black"/>
<path d="M111.444 59.9301V77.0343H110.945C110.569 72.5702 109.869 69.1493 108.844 66.7717C107.819 64.3941 106.657 63.2053 105.359 63.2053C104.274 63.2053 103.279 64.0909 102.374 65.8619C101.469 67.633 100.807 69.95 100.388 72.8128C99.85 76.4763 99.5809 80.5521 99.5809 85.0405C99.5809 89.456 99.7774 93.4834 100.17 97.1226C100.563 100.738 101.178 103.479 102.015 105.347C102.852 107.191 103.937 108.113 105.269 108.113C106.363 108.113 107.362 107.434 108.267 106.075C109.181 104.716 110.142 102.375 111.15 99.0514V103.309C110.176 106.196 109.16 108.295 108.101 109.605C107.05 110.891 105.82 111.534 104.411 111.534C102.557 111.534 100.909 110.478 99.4656 108.368C98.0307 106.257 96.9204 103.224 96.1346 99.2697C95.3574 95.3151 94.9688 91.1058 94.9688 86.6417C94.9688 81.935 95.4001 77.471 96.2627 73.2495C97.1339 69.028 98.304 65.7528 99.7731 63.4237C101.251 61.0946 102.818 59.9301 104.475 59.9301C105.696 59.9301 106.986 60.6822 108.344 62.1864C109.13 63.0598 109.63 63.4965 109.843 63.4965C110.116 63.4965 110.351 63.2175 110.548 62.6594C110.753 62.0772 110.885 61.1674 110.945 59.9301H111.444Z" fill="black"/>
<path d="M76.795 84.2399V82.4203C77.6747 81.4983 78.3665 80.0548 78.8705 78.0896C79.3744 76.1002 79.6263 74.038 79.6263 71.903C79.6263 71.442 79.6007 71.1024 79.5495 70.884C79.5238 70.7385 79.4897 70.6657 79.447 70.6657C79.4043 70.6657 79.3359 70.7627 79.242 70.9568C78.9687 71.5148 78.627 71.7938 78.2171 71.7938C77.7217 71.7938 77.2861 71.2358 76.9103 70.1198C76.543 68.9795 76.3594 67.633 76.3594 66.0803C76.3594 64.4305 76.5729 62.9991 77 61.786C77.427 60.5487 77.9523 59.9301 78.5758 59.9301C79.2847 59.9301 79.8997 60.7671 80.4207 62.4411C80.9502 64.0909 81.215 66.3229 81.215 69.1372C81.215 72.4125 80.8605 75.3481 80.1516 77.9441C79.4427 80.54 78.3238 82.6386 76.795 84.2399ZM82.9574 84.2399V82.4203C83.8371 81.4983 84.5289 80.0548 85.0328 78.0896C85.5368 76.1002 85.7887 74.038 85.7887 71.903C85.7887 71.442 85.7631 71.1024 85.7119 70.884C85.6862 70.7385 85.6521 70.6657 85.6094 70.6657C85.5667 70.6657 85.4983 70.7627 85.4044 70.9568C85.1311 71.5148 84.7894 71.7938 84.3794 71.7938C83.8841 71.7938 83.4485 71.2358 83.0727 70.1198C82.7054 68.9795 82.5218 67.633 82.5218 66.0803C82.5218 64.4305 82.7353 62.9991 83.1623 61.786C83.5894 60.5487 84.1147 59.9301 84.7382 59.9301C85.4471 59.9301 86.062 60.7671 86.583 62.4411C87.1126 64.0909 87.3774 66.3229 87.3774 69.1372C87.3774 72.4125 87.0229 75.3481 86.314 77.9441C85.6051 80.54 84.4862 82.6386 82.9574 84.2399Z" fill="black"/>
<path d="M65.5387 60.3673C68.3061 60.0761 70.5524 62.3688 72.2777 67.2453C74.0115 72.1218 74.8784 78.2236 74.8784 85.5505C74.8784 91.8099 74.2336 97.3172 72.9439 102.072C71.2356 108.38 68.8228 111.534 65.7053 111.534C62.5793 111.534 60.1621 108.526 58.4539 102.509C57.1044 97.7539 56.4297 92.1132 56.4297 85.5869C56.4297 78.26 57.3051 72.1582 59.0561 67.2817C60.8155 62.3809 62.9764 60.0761 65.5387 60.3673ZM65.6925 62.6963C64.1038 62.6963 62.8953 65.0012 62.0668 69.6108C61.3921 73.3956 61.0547 78.8301 61.0547 85.9144C61.0547 94.3331 61.5757 100.556 62.6177 104.583C63.3437 107.398 64.3601 108.805 65.6669 108.805C66.5466 108.805 67.2811 108.198 67.8705 106.985C68.6221 105.433 69.2071 102.958 69.6257 99.5614C70.0442 96.1405 70.2534 91.6886 70.2534 86.2055C70.2534 79.6792 70.0399 74.8027 69.6128 71.576C69.1858 68.325 68.6392 66.0323 67.973 64.6979C67.3153 63.3635 66.5551 62.6963 65.6925 62.6963Z" fill="black"/>
<path d="M55.185 62.405C54.2454 62.405 53.639 62.8295 53.3657 63.6787C53.0924 64.5278 52.9557 66.1048 52.9557 68.4096V102.727C52.9557 105.347 53.0924 107.046 53.3657 107.822C53.639 108.598 54.2668 109.011 55.249 109.059V110.406H46.4859V109.059C47.1862 109.059 47.6774 108.902 47.9592 108.586C48.2496 108.247 48.4589 107.701 48.587 106.949C48.7151 106.197 48.7792 104.862 48.7792 102.946V64.261H44.6026V78.9997C44.6026 85.1621 44.5471 89.8566 44.436 93.0834C44.3335 96.3101 44.0389 99.3792 43.552 102.291C43.0737 105.178 42.4545 107.349 41.6943 108.805C40.9342 110.26 40.0929 110.988 39.1704 110.988C38.3334 110.988 37.6843 110.37 37.2231 109.132C36.7619 107.871 36.5312 106.318 36.5312 104.474C36.5312 102.946 36.6722 101.696 36.954 100.726C37.2359 99.731 37.6416 99.2336 38.1711 99.2336C39.1534 99.2336 39.6957 100.968 39.7982 104.438C39.8409 105.99 40.0544 106.767 40.4388 106.767C40.9769 106.767 41.5491 105.748 42.1556 103.71C42.762 101.648 43.1634 98.8212 43.3598 95.2305C43.5563 91.6398 43.6545 86.4358 43.6545 79.6184V70.302C43.6545 67.6575 43.5947 65.8986 43.4751 65.0252C43.3641 64.1275 43.142 63.4846 42.8089 63.0964C42.4844 62.684 41.8993 62.4535 41.0538 62.405V61.0585H55.185V62.405Z" fill="black"/>
<path d="M20.6562 61.0585H35.6458V74.4507H35.159C34.9967 71.9761 34.7234 69.9624 34.3391 68.4096C33.9547 66.8327 33.4978 65.753 32.9682 65.1708C32.4387 64.5642 31.6273 64.261 30.534 64.261H27.3567V83.4759H29.65C32.1269 83.4759 33.9248 84.7132 35.0437 87.1879C36.1626 89.6625 36.722 92.9621 36.722 97.0865C36.722 99.9008 36.4359 102.327 35.8636 104.365C35.2999 106.403 34.5867 107.919 33.7241 108.914C32.87 109.909 31.6187 110.406 29.9703 110.406H20.6562V109.059C21.7324 109.011 22.42 108.611 22.7189 107.858C23.0264 107.082 23.1801 105.408 23.1801 102.836V69.0647C23.1801 66.2746 23.0264 64.4672 22.7189 63.6423C22.4114 62.8174 21.7239 62.405 20.6562 62.405V61.0585ZM27.3567 86.6784V101.563C27.3567 103.916 27.472 105.578 27.7026 106.548C27.9332 107.495 28.3603 107.968 28.9838 107.968C29.9831 107.968 30.7347 107.009 31.2386 105.093C31.7511 103.176 32.0073 100.786 32.0073 97.9235C32.0073 95.1577 31.7767 92.8408 31.3155 90.9726C30.8543 89.0803 30.3376 87.8915 29.7653 87.4062C29.2016 86.921 28.3987 86.6784 27.3567 86.6784Z" fill="black"/>
<path d="M257.981 37.8479H250.512V30.3148H257.981V37.8479Z" fill="black"/>
<path d="M243.25 10.0081C243.241 7.33937 243.126 5.54404 242.904 4.62211C242.69 3.67592 242.148 3.20282 241.277 3.20282H240.7V1.85632H250.014V3.20282H249.412C248.609 3.20282 248.075 3.63953 247.811 4.51293C247.554 5.38634 247.426 7.30298 247.426 10.2629V42.7245C247.426 45.7571 247.559 47.7102 247.823 48.5836C248.088 49.4327 248.618 49.8573 249.412 49.8573H250.014V51.2038H240.7V49.8573H241.277C242.088 49.8573 242.618 49.4084 242.865 48.5108C243.121 47.5888 243.25 45.6601 243.25 42.7245V15.94L237.126 43.2339C237.126 45.5873 237.228 47.2856 237.433 48.3288C237.638 49.3478 238.193 49.8573 239.099 49.8573H239.701V51.2038H230.387V49.8573H230.963C231.775 49.8573 232.308 49.4084 232.565 48.5108C232.821 47.5888 232.949 45.6601 232.949 42.7245V10.2629C232.949 7.30298 232.847 5.38634 232.642 4.51293C232.437 3.63953 231.877 3.20282 230.963 3.20282H230.387V1.85632H239.701V3.20282H239.099C238.313 3.20282 237.788 3.68805 237.523 4.6585C237.258 5.60469 237.126 7.47281 237.126 10.2629V37.3021L243.25 10.0081Z" fill="black"/>
<path d="M202.777 3.20282V1.85632H210.695V3.20282H210.387C209.755 3.20282 209.337 3.65166 209.132 4.54933C208.927 5.44699 208.824 7.3515 208.824 10.2629V43.6343C208.824 45.6965 208.91 46.9459 209.081 47.3826C209.26 47.7951 209.738 48.0013 210.516 48.0013H212.13C213.146 48.0013 213.71 47.7708 213.821 47.3098C213.941 46.8246 214 45.5994 214 43.6343V10.2629C214 7.3515 213.898 5.44699 213.693 4.54933C213.488 3.65166 213.065 3.20282 212.424 3.20282H212.13V1.85632H220.047V3.20282H219.74C219.108 3.20282 218.689 3.65166 218.484 4.54933C218.279 5.42273 218.177 7.32724 218.177 10.2629V42.8336C218.177 45.2355 218.22 46.7033 218.305 47.2371C218.399 47.7465 218.92 48.0013 219.868 48.0013H221.905C222.699 48.0013 223.139 47.7102 223.225 47.1279C223.31 46.5214 223.353 45.2355 223.353 43.2703V10.2629C223.353 7.40003 223.25 5.50765 223.045 4.58572C222.84 3.66379 222.418 3.20282 221.777 3.20282H221.482V1.85632H229.387V3.20282H229.092C228.452 3.20282 228.029 3.66379 227.824 4.58572C227.619 5.48339 227.517 7.37577 227.517 10.2629V42.8336C227.517 45.5994 227.606 47.4675 227.786 48.438C227.965 49.3842 228.401 49.8573 229.092 49.8573H229.387V51.2038H202.777V49.8573H203.072C203.849 49.8573 204.306 49.275 204.443 48.1105C204.58 46.9217 204.648 44.9929 204.648 42.3241V10.2629C204.648 7.32724 204.541 5.42273 204.328 4.54933C204.123 3.65166 203.704 3.20282 203.072 3.20282H202.777Z" fill="black"/>
<path d="M195.054 10.0081C195.046 7.33937 194.93 5.54404 194.708 4.62211C194.495 3.67592 193.952 3.20282 193.081 3.20282H192.505V1.85632H201.819V3.20282H201.217C200.414 3.20282 199.88 3.63953 199.615 4.51293C199.359 5.38634 199.231 7.30298 199.231 10.2629V42.7245C199.231 45.7571 199.363 47.7102 199.628 48.5836C199.893 49.4327 200.422 49.8573 201.217 49.8573H201.819V51.2038H192.505V49.8573H193.081C193.893 49.8573 194.422 49.4084 194.67 48.5108C194.926 47.5888 195.054 45.6601 195.054 42.7245V15.94L188.93 43.2339C188.93 45.5873 189.033 47.2856 189.238 48.3288C189.443 49.3478 189.998 49.8573 190.903 49.8573H191.505V51.2038H182.191V49.8573H182.768C183.579 49.8573 184.113 49.4084 184.369 48.5108C184.626 47.5888 184.754 45.6601 184.754 42.7245V10.2629C184.754 7.30298 184.651 5.38634 184.446 4.51293C184.241 3.63953 183.682 3.20282 182.768 3.20282H182.191V1.85632H191.505V3.20282H190.903C190.118 3.20282 189.592 3.68805 189.327 4.6585C189.063 5.60469 188.93 7.47281 188.93 10.2629V37.3021L195.054 10.0081Z" fill="black"/>
<path d="M173.352 28.8591V42.5425C173.352 45.2112 173.408 46.8974 173.519 47.601C173.638 48.2803 173.843 48.8262 174.134 49.2386C174.433 49.6511 174.975 49.8573 175.761 49.8573V51.2038H166.934V49.8573C167.736 49.8573 168.279 49.6511 168.561 49.2386C168.851 48.8019 169.052 48.2439 169.163 47.5646C169.282 46.8853 169.342 45.2112 169.342 42.5425V10.5176C169.342 7.84886 169.282 6.17483 169.163 5.49552C169.052 4.79194 168.851 4.23393 168.561 3.82149C168.27 3.40905 167.728 3.20282 166.934 3.20282V1.85632H174.505C176.999 1.85632 178.789 3.11791 179.873 5.64108C180.958 8.16426 181.5 11.3182 181.5 15.103C181.5 18.3055 181.15 21.047 180.45 23.3276C179.749 25.6081 178.784 27.1608 177.554 27.9857C176.726 28.568 175.325 28.8591 173.352 28.8591ZM173.352 4.69489V26.0206C173.634 26.0691 173.848 26.0933 173.993 26.0933C175.035 26.0933 175.838 25.2199 176.401 23.4731C176.965 21.7021 177.247 18.9727 177.247 15.2849C177.247 11.6215 176.965 8.94062 176.401 7.24233C175.838 5.54404 174.996 4.69489 173.877 4.69489H173.352Z" fill="black"/>
<path d="M157.2 51.2038V49.8573H157.751C158.597 49.8573 159.122 49.3478 159.327 48.3288C159.532 47.3098 159.634 45.4417 159.634 42.7245V5.05881H153.498V42.7245C153.498 45.9027 153.634 47.8921 153.907 48.6927C154.181 49.4691 154.693 49.8573 155.445 49.8573H155.97V51.2038H146.887V49.8573H147.438C148.198 49.8573 148.702 49.4448 148.949 48.62C149.197 47.7951 149.321 45.8299 149.321 42.7245V10.2993C149.321 7.36364 149.206 5.44699 148.975 4.54933C148.744 3.65166 148.232 3.20282 147.438 3.20282H146.887V1.85632H166.271V3.20282H165.809C164.99 3.20282 164.451 3.66379 164.195 4.58572C163.939 5.50765 163.811 7.41216 163.811 10.2993V42.7245C163.811 45.9027 163.956 47.8921 164.246 48.6927C164.537 49.4691 165.075 49.8573 165.861 49.8573H166.271V51.2038H157.2Z" fill="black"/>
<path d="M145.395 0.728394V2.5116C144.507 3.43353 143.811 4.8892 143.307 6.87863C142.803 8.84379 142.551 10.8939 142.551 13.0289C142.551 13.4898 142.576 13.8295 142.628 14.0478C142.662 14.1934 142.7 14.2662 142.743 14.2662C142.786 14.2662 142.85 14.1813 142.935 14.0114C143.208 13.4534 143.554 13.1744 143.973 13.1744C144.46 13.1744 144.891 13.7446 145.267 14.8849C145.643 16.0009 145.83 17.3352 145.83 18.888C145.83 20.5135 145.613 21.9449 145.177 23.1822C144.75 24.4195 144.229 25.0382 143.614 25.0382C142.897 25.0382 142.277 24.2012 141.756 22.5272C141.235 20.8531 140.975 18.609 140.975 15.7947C140.975 12.5194 141.329 9.58376 142.038 6.9878C142.747 4.39185 143.866 2.30538 145.395 0.728394ZM139.233 0.728394V2.5116C138.344 3.43353 137.648 4.8892 137.144 6.87863C136.64 8.84379 136.388 10.8939 136.388 13.0289C136.388 13.4898 136.414 13.8295 136.465 14.0478C136.499 14.1934 136.538 14.2662 136.581 14.2662C136.623 14.2662 136.687 14.1813 136.773 14.0114C137.046 13.4534 137.392 13.1744 137.81 13.1744C138.297 13.1744 138.729 13.7446 139.104 14.8849C139.48 16.0009 139.668 17.3352 139.668 18.888C139.668 20.5135 139.45 21.9449 139.015 23.1822C138.588 24.4195 138.067 25.0382 137.452 25.0382C136.734 25.0382 136.115 24.2012 135.594 22.5272C135.073 20.8531 134.812 18.609 134.812 15.7947C134.812 12.5194 135.167 9.58376 135.876 6.9878C136.585 4.39185 137.704 2.30538 139.233 0.728394Z" fill="black"/>
<path d="M120.214 37.1569H114.078L113.347 41.9607C113.108 43.5619 112.989 44.8841 112.989 45.9274C112.989 47.3103 113.185 48.3292 113.578 48.9843C113.809 49.3725 114.377 49.6636 115.282 49.8577V51.2042H109.504V49.8577C110.127 49.5908 110.64 48.863 111.041 47.6742C111.443 46.4611 111.938 43.9743 112.527 40.2138L118.741 0.837769H118.985L125.249 41.3056C125.847 45.1389 126.338 47.5529 126.723 48.5476C127.013 49.2997 127.423 49.7364 127.953 49.8577V51.2042H119.548V49.8577H119.894C120.569 49.8577 121.043 49.5908 121.316 49.0571C121.504 48.6689 121.598 48.1109 121.598 47.383C121.598 46.9463 121.572 46.4975 121.521 46.0365C121.504 45.8182 121.376 44.9084 121.137 43.3072L120.214 37.1569ZM119.779 34.4639L117.191 17.4689L114.526 34.4639H119.779Z" fill="black"/>
<path d="M96.5806 27.4762V42.7609C96.5806 45.284 96.6276 46.861 96.7216 47.4918C96.8241 48.1226 97.0162 48.6806 97.2981 49.1658C97.5885 49.6268 97.9771 49.8573 98.4639 49.8573H99.0405V51.2038H89.957V49.8573H90.5336C91.0375 49.8573 91.4432 49.6025 91.7507 49.093C91.9727 48.7534 92.1435 48.1711 92.2631 47.3462C92.3571 46.764 92.4041 45.2355 92.4041 42.7609V10.2993C92.4041 7.77608 92.3571 6.19909 92.2631 5.5683C92.1692 4.93751 91.977 4.39163 91.6866 3.93066C91.4047 3.44544 91.0204 3.20282 90.5336 3.20282H89.957V1.85632H99.0405V3.20282H98.4639C97.96 3.20282 97.5543 3.45757 97.2468 3.96706C97.0248 4.30671 96.8497 4.88898 96.7216 5.71387C96.6276 6.29614 96.5806 7.8246 96.5806 10.2993V24.2738H102.717V10.2993C102.717 7.77608 102.67 6.19909 102.576 5.5683C102.483 4.93751 102.29 4.39163 102 3.93066C101.71 3.44544 101.321 3.20282 100.834 3.20282H100.27V1.85632H109.341V3.20282H108.777C108.265 3.20282 107.859 3.45757 107.56 3.96706C107.338 4.30671 107.163 4.88898 107.035 5.71387C106.941 6.29614 106.894 7.8246 106.894 10.2993V42.7609C106.894 45.284 106.941 46.861 107.035 47.4918C107.129 48.1226 107.321 48.6806 107.611 49.1658C107.902 49.6268 108.29 49.8573 108.777 49.8573H109.341V51.2038H100.27V49.8573H100.834C101.347 49.8573 101.752 49.6025 102.051 49.093C102.273 48.7534 102.448 48.1711 102.576 47.3462C102.67 46.764 102.717 45.2355 102.717 42.7609V27.4762H96.5806Z" fill="black"/>
<path d="M82.7847 10.0081C82.7762 7.33937 82.6609 5.54404 82.4388 4.62211C82.2253 3.67592 81.6829 3.20282 80.8118 3.20282H80.2352V1.85632H89.5493V3.20282H88.9471C88.1443 3.20282 87.6105 3.63953 87.3457 4.51293C87.0894 5.38634 86.9613 7.30298 86.9613 10.2629V42.7245C86.9613 45.7571 87.0937 47.7102 87.3585 48.5836C87.6233 49.4327 88.1528 49.8573 88.9471 49.8573H89.5493V51.2038H80.2352V49.8573H80.8118C81.6232 49.8573 82.1527 49.4084 82.4004 48.5108C82.6566 47.5888 82.7847 45.6601 82.7847 42.7245V15.94L76.6608 43.2339C76.6608 45.5873 76.7633 47.2856 76.9683 48.3288C77.1733 49.3478 77.7284 49.8573 78.6338 49.8573H79.2359V51.2038H69.9219V49.8573H70.4984C71.3098 49.8573 71.8436 49.4084 72.0999 48.5108C72.3561 47.5888 72.4842 45.6601 72.4842 42.7245V10.2629C72.4842 7.30298 72.3817 5.38634 72.1767 4.51293C71.9717 3.63953 71.4123 3.20282 70.4984 3.20282H69.9219V1.85632H79.2359V3.20282H78.6338C77.848 3.20282 77.3227 3.68805 77.0579 4.6585C76.7932 5.60469 76.6608 7.47281 76.6608 10.2629V37.3021L82.7847 10.0081Z" fill="black"/>
<path d="M51.5312 1.85656H60.5763V3.20306H60.2816C59.4275 3.20306 58.8552 3.6519 58.5648 4.54957C58.283 5.42297 58.142 7.097 58.142 9.57165V24.3104C59.3378 24.3104 60.115 24.2012 60.4738 23.9829C60.8325 23.7402 61.1656 23.0731 61.4731 21.9813C61.7805 20.8653 62.0752 18.7303 62.3571 15.5763C62.6902 11.8886 63.0105 9.12282 63.3179 7.27896C63.634 5.4351 64.0653 3.97943 64.6119 2.91193C65.1671 1.82017 65.8589 1.27429 66.6874 1.27429C67.5073 1.27429 68.165 1.94148 68.6604 3.27585C69.1558 4.58596 69.4035 6.21146 69.4035 8.15237C69.4035 9.65657 69.2369 10.8454 68.9038 11.7188C68.5707 12.5922 68.1565 13.0289 67.6611 13.0289C66.6874 13.0289 66.1621 11.4276 66.0852 8.22515C66.0511 6.62391 65.8546 5.82328 65.4959 5.82328C65.1116 5.82328 64.7827 6.44195 64.5094 7.67927C64.2361 8.9166 63.9414 11.1365 63.6254 14.339C63.3179 17.4687 63.0532 19.822 62.8311 21.399C62.609 22.9518 62.293 24.2619 61.883 25.3294C62.4297 25.7175 62.8482 26.227 63.1386 26.8578C63.4375 27.4886 63.7066 28.3135 63.9457 29.3325C64.1849 30.3272 64.6973 32.8746 65.4831 36.9748L67.2511 45.9272C67.5244 47.2616 67.849 48.2563 68.2248 48.9113C68.6091 49.5421 69.0704 49.8575 69.6084 49.8575V51.204H63.792L60.2175 32.2802C59.8076 30.1452 59.5043 28.8594 59.3079 28.4227C59.12 27.9617 58.7314 27.6948 58.142 27.622V44.3259C58.142 46.7036 58.3129 48.2199 58.6545 48.8749C59.0047 49.53 59.6453 49.8575 60.5763 49.8575V51.204H51.5312V49.8575C52.5306 49.809 53.1839 49.3966 53.4914 48.6202C53.8074 47.8196 53.9655 46.1213 53.9655 43.5253V10.5178C53.9655 7.63075 53.8416 5.68985 53.5939 4.69513C53.3462 3.70042 52.7825 3.20306 51.9028 3.20306H51.5312V1.85656Z" fill="black"/>
<path d="M50.7748 3.20282C49.8353 3.20282 49.2289 3.6274 48.9556 4.47654C48.6822 5.32569 48.5456 6.90267 48.5456 9.20749V43.5251C48.5456 46.1453 48.6822 47.8436 48.9556 48.62C49.2289 49.3963 49.8566 49.8088 50.8389 49.8573V51.2038H42.0757V49.8573C42.7761 49.8573 43.2672 49.6996 43.5491 49.3842C43.8395 49.0445 44.0487 48.4986 44.1768 47.7466C44.3049 46.9944 44.369 45.6601 44.369 43.7434V5.05881H40.1924V19.7975C40.1924 25.9599 40.1369 30.6545 40.0259 33.8812C39.9234 37.108 39.6287 40.177 39.1419 43.0884C38.6636 45.9755 38.0443 48.1469 37.2842 49.6025C36.524 51.0582 35.6827 51.7861 34.7603 51.7861C33.9233 51.7861 33.2741 51.1674 32.8129 49.9301C32.3517 48.6685 32.1211 47.1158 32.1211 45.2719C32.1211 43.7434 32.262 42.494 32.5439 41.5235C32.8257 40.5288 33.2314 40.0315 33.761 40.0315C34.7432 40.0315 35.2856 41.7661 35.3881 45.2355C35.4308 46.7882 35.6443 47.5646 36.0286 47.5646C36.5667 47.5646 37.139 46.5456 37.7454 44.5077C38.3518 42.4455 38.7532 39.619 38.9497 36.0283C39.1461 32.4377 39.2444 27.2336 39.2444 20.4162V11.0999C39.2444 8.45539 39.1846 6.69645 39.065 5.82304C38.954 4.92538 38.7319 4.28245 38.3988 3.89427C38.0742 3.48183 37.4892 3.25135 36.6436 3.20282V1.85632H50.7748V3.20282Z" fill="black"/>
<path d="M24.4488 37.1569H18.312L17.5818 41.9607C17.3426 43.5619 17.223 44.8841 17.223 45.9274C17.223 47.3103 17.4195 48.3292 17.8124 48.9843C18.043 49.3725 18.611 49.6636 19.5163 49.8577V51.2042H13.7383V49.8577C14.3618 49.5908 14.8742 48.863 15.2757 47.6742C15.6771 46.4611 16.1725 43.9743 16.7618 40.2138L22.9755 0.837769H23.2189L29.4838 41.3056C30.0816 45.1389 30.5727 47.5529 30.9571 48.5476C31.2475 49.2997 31.6575 49.7364 32.187 49.8577V51.2042H23.7826V49.8577H24.1285C24.8032 49.8577 25.2773 49.5908 25.5506 49.0571C25.7385 48.6689 25.8324 48.1109 25.8324 47.383C25.8324 46.9463 25.8068 46.4975 25.7556 46.0365C25.7385 45.8182 25.6104 44.9084 25.3712 43.3072L24.4488 37.1569ZM24.0132 34.4639L21.4253 17.4689L18.7604 34.4639H24.0132Z" fill="black"/>
<path d="M0.746094 1.85632H16.0688V15.2486H15.5948C15.3898 11.949 15.125 9.61993 14.8004 8.2613C14.4844 6.90267 14.0958 6.02926 13.6346 5.64108C13.1734 5.2529 12.2595 5.05881 10.8929 5.05881H7.35689V43.4159C7.35689 46.1817 7.49782 47.9528 7.77967 48.7291C8.07007 49.4812 8.59535 49.8573 9.3555 49.8573H9.80391V51.2038H0.746094V49.8573H1.23294C1.98455 49.8573 2.49701 49.457 2.77033 48.6563C3.04364 47.8315 3.1803 46.0846 3.1803 43.4159V9.35306C3.1803 7.12102 3.065 5.54404 2.83439 4.62211C2.61232 3.67592 2.09985 3.20282 1.29699 3.20282H0.746094V1.85632Z" fill="black"/>
</svg>
