<svg width="2902" height="732" viewBox="0 0 2902 732" fill="none" xmlns="http://www.w3.org/2000/svg">
<path d="M2901.36 718.237H2849.13V249.349L2762.83 718.237H2711.71V13.7227H2763.94V438.135L2844.24 13.7227H2901.36V718.237Z" fill="black"/>
<path d="M2684.13 508.159C2684.13 541.91 2682.03 572.822 2677.84 600.895C2673.75 628.969 2667.6 652.468 2659.41 671.394C2650.84 691.266 2640.65 706.407 2628.83 716.816C2617 726.91 2602.57 731.957 2585.53 731.957C2570.54 731.957 2556.58 727.698 2543.64 719.182C2530.79 710.981 2518.97 699.94 2508.17 686.062V527.085H2513.2C2515.8 532.131 2519.71 539.386 2524.93 548.849C2530.23 557.997 2535.54 565.882 2540.85 572.507C2547.55 581.023 2553.74 587.805 2559.42 592.852C2565.19 597.583 2571.85 599.949 2579.39 599.949C2586.74 599.949 2593.45 597.899 2599.5 593.798C2605.55 589.698 2610.62 583.389 2614.72 574.872C2619.28 565.725 2622.68 555.158 2624.92 543.171C2627.15 530.87 2628.27 515.098 2628.27 495.857C2628.27 477.562 2627.43 462.737 2625.75 451.381C2624.17 440.026 2621.66 430.72 2618.21 423.466C2614.77 416.842 2610.44 412.268 2605.22 409.744C2600.1 407.221 2594.05 405.959 2587.07 405.959H2548.81V280.102H2585.67C2592.66 280.102 2598.66 278.368 2603.69 274.898C2608.72 271.113 2612.53 265.908 2615.14 259.284C2618.03 251.714 2619.98 243.355 2621 234.207C2622.12 225.06 2622.68 213.547 2622.68 199.668C2622.68 176.01 2619.19 158.819 2612.21 148.095C2605.32 137.37 2595.87 132.008 2583.86 132.008C2576.69 132.008 2570.03 134.373 2563.89 139.105C2557.74 143.836 2551.88 149.356 2546.29 155.665C2540.24 162.92 2535.4 169.702 2531.77 176.01C2528.14 182.003 2524.32 188.154 2520.32 194.463H2515.15V46.3683C2524.65 34.6974 2536.24 24.1304 2549.92 14.6675C2563.7 4.88917 2578.04 0 2592.94 0C2621.42 0 2642.79 15.1407 2657.03 45.422C2671.37 75.3879 2678.54 117.182 2678.54 170.806C2678.54 210.865 2674.68 245.405 2666.95 274.425C2659.32 303.444 2649.4 322.843 2637.2 332.622V339.719C2642.23 342.558 2647.49 347.605 2652.98 354.859C2658.57 361.799 2663.64 371.735 2668.21 384.668C2672.86 397.916 2676.68 414.318 2679.66 433.875C2682.64 453.116 2684.13 477.877 2684.13 508.159Z" fill="black"/>
<path d="M2485.06 718.237H2431.71V459.899H2402.52L2350.15 718.237H2286.61L2348.76 426.306C2336.19 408.011 2326.32 382.146 2319.15 348.71C2312.08 315.274 2308.54 271.429 2308.54 217.175C2308.54 181.216 2310.87 149.831 2315.52 123.019C2320.27 96.2078 2326.27 74.2853 2333.54 57.2521C2339.87 42.4268 2347.55 31.5445 2356.58 24.605C2365.7 17.3501 2376.13 13.7227 2387.86 13.7227H2485.06V718.237ZM2431.71 333.096V143.365H2405.18C2397.08 143.365 2390.84 144.311 2386.46 146.204C2382.09 147.781 2377.85 153.774 2373.75 164.183C2370.59 172.069 2368.17 182.478 2366.49 195.411C2364.82 208.028 2363.98 222.065 2363.98 237.521C2363.98 253.608 2364.86 268.117 2366.63 281.05C2368.4 293.667 2370.87 304.077 2374.03 312.278C2377.57 321.741 2381.71 327.576 2386.46 329.784C2391.3 331.992 2397.63 333.096 2405.46 333.096H2431.71Z" fill="black"/>
<path d="M2285.1 502.482C2285.1 536.549 2283.05 566.988 2278.95 593.8C2274.95 620.611 2269.41 642.849 2262.33 660.513C2254.14 681.332 2245.11 696.157 2235.24 704.989C2225.47 713.821 2213.04 718.237 2197.96 718.237H2107.18V13.7227H2187.9C2204.66 13.7227 2216.9 15.6152 2224.63 19.4004C2232.45 23.1856 2240.18 31.5445 2247.81 44.4771C2255.72 58.0407 2261.59 76.3356 2265.41 99.3621C2269.32 122.073 2271.27 148.096 2271.27 177.431C2271.27 211.498 2268.62 241.621 2263.31 267.802C2258.01 293.667 2250.51 313.855 2240.83 328.365V332.15C2254.42 341.297 2265.17 360.223 2273.09 388.927C2281.09 417.632 2285.1 455.483 2285.1 502.482ZM2216.39 212.917C2216.39 201.246 2215.51 189.575 2213.74 177.904C2212.06 166.233 2209.03 157.559 2204.66 151.881C2200.75 146.834 2195.86 144.153 2190 143.838C2184.22 143.207 2176.08 142.891 2165.56 142.891H2160.53V291.932H2168.91C2177.38 291.932 2184.6 291.459 2190.55 290.513C2196.51 289.567 2201.21 286.412 2204.66 281.05C2209.5 273.795 2212.67 264.49 2214.16 253.134C2215.64 241.464 2216.39 228.058 2216.39 212.917ZM2229.52 499.643C2229.52 477.248 2228.21 460.057 2225.61 448.071C2223.09 435.769 2218.76 426.621 2212.62 420.628C2208.43 416.528 2202.66 414.32 2195.3 414.004C2187.95 413.689 2180.27 413.531 2172.26 413.531H2160.53V589.068H2164.44C2179.52 589.068 2190.32 588.91 2196.84 588.595C2203.36 588.279 2209.36 584.179 2214.85 576.293C2220.44 568.407 2224.26 557.998 2226.3 545.066C2228.45 531.817 2229.52 516.677 2229.52 499.643Z" fill="black"/>
<path d="M2008.51 731.957C1993.06 731.957 1978.77 724.229 1965.64 708.773C1952.61 693.316 1941.39 670.29 1931.98 639.693C1922.58 609.096 1915.27 570.929 1910.06 525.192C1904.94 479.455 1902.38 426.62 1902.38 366.688C1902.38 310.857 1904.85 260.23 1909.78 214.808C1914.71 169.386 1921.88 130.431 1931.29 97.9412C1940.32 66.7136 1951.49 42.5831 1964.8 25.5499C1978.21 8.51663 1992.83 0 2008.65 0C2017.4 0 2025.27 1.73487 2032.25 5.2046C2039.33 8.35891 2045.85 12.6172 2051.8 17.9795C2058.04 23.9727 2063.67 30.7545 2068.7 38.3248C2073.82 45.5797 2078.29 52.3615 2082.11 58.6701V229.476H2075.96C2073.36 221.905 2070.05 212.916 2066.05 202.506C2062.14 192.097 2057.67 181.846 2052.64 171.752C2047.52 161.658 2041.98 153.142 2036.02 146.202C2030.07 139.263 2023.69 135.793 2016.89 135.793C2009.35 135.793 2002.18 139.893 1995.39 148.095C1988.59 155.98 1982.31 169.229 1976.53 187.839C1971.04 205.818 1966.57 229.633 1963.13 259.284C1959.77 288.934 1958.1 324.894 1958.1 367.161C1958.1 411.322 1959.91 448.227 1963.55 477.877C1967.27 507.528 1971.92 530.87 1977.51 547.903C1983.19 565.252 1989.52 577.711 1996.5 585.281C2003.49 592.536 2010.37 596.164 2017.17 596.164C2023.69 596.164 2030.11 592.852 2036.44 586.228C2042.87 579.604 2048.78 570.614 2054.18 559.258C2058.74 550.111 2062.98 540.333 2066.89 529.923C2070.8 519.514 2074.01 510.524 2076.52 502.954H2082.11V671.394C2076.89 679.28 2071.91 686.692 2067.17 693.632C2062.42 700.571 2057.44 706.565 2052.22 711.611C2045.43 718.235 2039.05 723.282 2033.09 726.752C2027.13 730.222 2018.94 731.957 2008.51 731.957Z" fill="black"/>
<path d="M1815.5 718.237H1760.06L1745.68 575.82H1668.59L1654.21 718.237H1600.16L1676.97 13.7227H1738.7L1815.5 718.237ZM1732.69 446.651L1707.14 193.991L1681.58 446.651H1732.69Z" fill="black"/>
<path d="M1584.43 718.237H1530.81V407.853H1451.63V718.237H1398V13.7227H1451.63V271.587H1530.81V13.7227H1584.43V718.237Z" fill="black"/>
<path d="M1273.99 13.7227L1267.56 515.257H1222.04L1215.61 13.7227H1273.99ZM1273.01 718.237H1216.59V593.326H1273.01V718.237Z" fill="black"/>
<path d="M1195.83 149.989H1130.89V718.237H1077.27V149.989H1012.33V13.7227H1195.83V149.989Z" fill="black"/>
<path d="M1002.34 718.237H851.934V13.7227H1002.34V149.989H905.28V271.587H995.354V407.853H905.28V581.971H1002.34V718.237Z" fill="black"/>
<path d="M826.265 502.482C826.265 536.549 824.217 566.988 820.121 593.8C816.117 620.611 810.578 642.849 803.502 660.513C795.309 681.332 786.279 696.157 776.41 704.989C766.635 713.821 754.206 718.237 739.124 718.237H648.352V13.7227H729.069C745.827 13.7227 758.07 15.6152 765.797 19.4004C773.617 23.1856 781.344 31.5445 788.979 44.4771C796.892 58.0407 802.757 76.3356 806.575 99.3621C810.485 122.073 812.44 148.096 812.44 177.431C812.44 211.498 809.786 241.621 804.48 267.802C799.173 293.667 791.679 313.855 781.996 328.365V332.15C795.589 341.297 806.342 360.223 814.255 388.927C822.262 417.632 826.265 455.483 826.265 502.482ZM757.558 212.917C757.558 201.246 756.673 189.575 754.904 177.904C753.228 166.233 750.203 157.559 745.827 151.881C741.917 146.834 737.029 144.153 731.164 143.838C725.392 143.207 717.245 142.891 706.725 142.891H701.698V291.932H710.077C718.549 291.932 725.764 291.459 731.722 290.513C737.681 289.567 742.382 286.412 745.827 281.05C750.668 273.795 753.834 264.49 755.323 253.134C756.813 241.464 757.558 228.058 757.558 212.917ZM770.685 499.643C770.685 477.248 769.381 460.057 766.774 448.071C764.261 435.769 759.932 426.621 753.787 420.628C749.597 416.528 743.825 414.32 736.47 414.004C729.116 413.689 721.435 413.531 713.428 413.531H701.698V589.068H705.608C720.69 589.068 731.49 588.91 738.007 588.595C744.524 588.279 750.528 584.179 756.021 576.293C761.607 568.407 765.424 557.998 767.473 545.066C769.614 531.817 770.685 516.677 770.685 499.643Z" fill="black"/>
<path d="M610.441 718.237H558.212V249.349L471.909 718.237H420.797V13.7227H473.026V438.135L553.324 13.7227H610.441V718.237Z" fill="black"/>
<path d="M396.954 236.101C396.954 267.644 395.324 298.556 392.066 328.838C388.807 358.804 384.152 384.038 378.101 404.541C369.815 432.299 360.552 453.275 350.311 467.47C340.163 481.664 327.501 488.761 312.326 488.761H278.95V718.237H225.324V13.7227H313.583C326.803 13.7227 337.928 17.6655 346.959 25.5513C356.083 33.1216 364.136 44.6349 371.118 60.091C379.497 78.7014 385.875 102.516 390.25 131.536C394.719 160.556 396.954 195.411 396.954 236.101ZM341.513 240.36C341.513 220.487 339.93 203.454 336.765 189.26C333.599 174.75 329.922 164.656 325.732 158.978C320.146 151.408 314.7 147.308 309.393 146.677C304.087 145.73 297.011 145.257 288.167 145.257H278.95V356.28H294.311C303.435 356.28 310.929 354.388 316.795 350.603C322.753 346.817 327.734 339.247 331.737 327.892C335.182 317.798 337.649 305.811 339.139 291.932C340.721 277.738 341.513 260.547 341.513 240.36Z" fill="black"/>
<path d="M186.432 718.237H132.807V149.989H53.6254V718.237H0V13.7227H186.432V718.237Z" fill="black"/>
</svg>
