<svg width="128" height="218" viewBox="0 0 128 218" fill="none" xmlns="http://www.w3.org/2000/svg">
<path d="M13.6768 143.458L13.6791 143.46C23.9259 151.531 35.5773 155.441 48.1005 157.38C45.5575 159.946 43.0153 162.513 40.4731 165.08C32.953 172.673 25.4334 180.266 17.8937 187.846C15.3642 190.386 13.1856 193.585 12.9796 197.961C12.6728 204.197 16.4837 210.119 22.1888 212.925L22.2001 212.93C24.924 214.257 27.8356 214.776 30.7403 214.274C33.6418 213.772 36.2962 212.294 38.5831 210.025C47.0456 201.629 55.451 193.186 63.7271 184.603C63.9272 184.395 64.0986 184.225 64.2487 184.085C64.3534 184.183 64.4718 184.301 64.6051 184.442C70.0217 190.148 75.6038 195.74 81.1529 201.298C83.8689 204.019 86.577 206.731 89.2539 209.446L89.2597 209.451C91.7177 211.931 94.8165 214.042 98.9713 214.338L98.98 214.338C105.343 214.774 111.484 210.742 114.211 204.89L114.212 204.888C116.84 199.237 115.751 193.15 111.162 188.467L111.159 188.463C104.216 181.398 97.2324 174.354 90.2568 167.319C86.9478 163.982 83.6406 160.646 80.3405 157.311C86.4369 156.341 92.57 154.937 98.3456 152.681C106.523 149.488 113.972 144.88 120.185 138.445C122.594 135.962 123.925 133.003 124.06 129.778C124.193 126.611 123.162 123.474 121.376 120.551C117.917 114.871 111.756 112.449 105.358 114.097L105.356 114.097C102.232 114.904 99.6251 116.464 97.3407 118.219C77.3285 131.718 49.8738 131.338 29.9026 117.523L29.8959 117.518C28.8035 116.766 27.5649 115.973 26.2006 115.335C22.7458 113.693 19.1437 113.157 15.7698 113.923C12.3689 114.695 9.45925 116.733 7.3629 119.762C5.08865 123.036 3.89696 126.564 4.23974 130.183C4.58289 133.805 6.41914 137.047 9.30052 139.83C10.4585 140.952 11.7711 141.973 12.9131 142.861C13.1782 143.067 13.4341 143.266 13.6768 143.458ZM64.7469 183.677C64.7469 183.677 64.7456 183.678 64.7433 183.679C64.7457 183.678 64.7469 183.677 64.7469 183.677Z" fill="#FBF448" stroke="black" stroke-width="6.44861"/>
<path d="M63.7303 106.695H63.7316C91.8939 106.787 114.917 84.056 115.07 55.9685L115.07 55.9658C115.202 27.3191 92.5974 4.0252 64.3241 3.9536C36.1337 3.88207 13.2755 26.8044 13.1124 55.196L13.1124 55.197C12.9594 83.3101 35.794 106.593 63.7303 106.695ZM84.2636 55.2534L84.2636 55.2627V55.2719V55.2815V55.302L84.2638 55.3225C84.2976 57.9773 83.8051 60.6125 82.8147 63.076C81.8243 65.5394 80.3557 67.7822 78.4937 69.6749C76.6316 71.5676 74.4131 73.0726 71.9662 74.1031C69.5192 75.1335 66.8924 75.669 64.2373 75.6786L64.2239 75.6787C61.5681 75.6994 58.9345 75.1945 56.4747 74.1932C54.0148 73.192 51.7773 71.714 49.8909 69.8445C48.0046 67.975 46.5066 65.7508 45.4833 63.3001C44.46 60.8493 43.9315 58.2203 43.9283 55.5645L43.9283 55.5388L43.9279 55.513C43.8819 52.8329 44.3703 50.1705 45.3647 47.6813C46.3591 45.1921 47.8396 42.926 49.7196 41.0153C51.5995 39.1046 53.8414 37.5877 56.3141 36.5531C58.7869 35.5185 61.4411 34.9869 64.1215 34.9895H64.1234C66.7784 34.9906 69.407 35.5163 71.8581 36.5366C74.3092 37.5568 76.5345 39.0515 78.4061 40.9346C80.2777 42.8176 81.7587 45.0521 82.7639 47.5094C83.7692 49.9667 84.2788 52.5985 84.2636 55.2534Z" fill="#FBF448" stroke="black" stroke-width="6.44861"/>
</svg>
