<svg width="66" height="18" viewBox="0 0 66 18" fill="none" xmlns="http://www.w3.org/2000/svg">
<path d="M58.6523 15.6045C57.6797 15.6045 56.7803 15.4609 55.9541 15.1738C55.1338 14.8867 54.4277 14.459 53.8359 13.8906C53.2441 13.3223 52.7842 12.6133 52.4561 11.7637C52.1338 10.9141 51.9727 9.93262 51.9727 8.81934C51.9727 7.78223 52.1279 6.8418 52.4385 5.99805C52.749 5.1543 53.2002 4.43066 53.792 3.82715C54.3604 3.24707 55.0635 2.79883 55.9014 2.48242C56.7451 2.16602 57.665 2.00781 58.6611 2.00781C59.2119 2.00781 59.707 2.04004 60.1465 2.10449C60.5918 2.16309 61.002 2.24219 61.377 2.3418C61.7695 2.45312 62.124 2.5791 62.4404 2.71973C62.7627 2.85449 63.0439 2.98047 63.2842 3.09766V6.27051H62.8975C62.7334 6.12988 62.5254 5.96289 62.2734 5.76953C62.0273 5.57617 61.7461 5.38574 61.4297 5.19824C61.1074 5.01074 60.7588 4.85254 60.3838 4.72363C60.0088 4.59473 59.6074 4.53027 59.1797 4.53027C58.7051 4.53027 58.2539 4.60645 57.8262 4.75879C57.3984 4.90527 57.0029 5.15137 56.6396 5.49707C56.2939 5.83105 56.0127 6.27344 55.7959 6.82422C55.585 7.375 55.4795 8.04297 55.4795 8.82812C55.4795 9.64844 55.5938 10.334 55.8223 10.8848C56.0566 11.4355 56.3496 11.8691 56.7012 12.1855C57.0586 12.5078 57.457 12.7393 57.8965 12.8799C58.3359 13.0146 58.7695 13.082 59.1973 13.082C59.6074 13.082 60.0117 13.0205 60.4102 12.8975C60.8145 12.7744 61.1865 12.6074 61.5264 12.3965C61.8135 12.2266 62.0801 12.0449 62.3262 11.8516C62.5723 11.6582 62.7744 11.4912 62.9326 11.3506H63.2842V14.4795C62.9561 14.626 62.6426 14.7637 62.3438 14.8926C62.0449 15.0215 61.7314 15.1328 61.4033 15.2266C60.9756 15.3496 60.5742 15.4434 60.1992 15.5078C59.8242 15.5723 59.3086 15.6045 58.6523 15.6045Z" fill="white"/>
<path d="M51.0371 15.3496H47.5479L46.6426 12.7041H41.791L40.8857 15.3496H37.4844L42.3184 2.2627H46.2031L51.0371 15.3496ZM45.8252 10.3047L44.2168 5.61133L42.6084 10.3047H45.8252Z" fill="white"/>
<path d="M35.7725 15.3496H32.3975V9.58398H27.4141V15.3496H24.0391V2.2627H27.4141V7.05273H32.3975V2.2627H35.7725V15.3496Z" fill="white"/>
<path d="M15.6631 8.81055C15.6631 10.8965 15.0654 12.5547 13.8701 13.7852C12.6748 15.0098 11.0225 15.6221 8.91309 15.6221C6.80957 15.6221 5.16016 15.0098 3.96484 13.7852C2.76953 12.5547 2.17188 10.8965 2.17188 8.81055C2.17188 6.70703 2.76953 5.0459 3.96484 3.82715C5.16016 2.60254 6.80957 1.99023 8.91309 1.99023C11.0107 1.99023 12.6602 2.60254 13.8613 3.82715C15.0625 5.0459 15.6631 6.70703 15.6631 8.81055ZM11.1895 12.124C11.5176 11.7256 11.7607 11.2568 11.9189 10.7178C12.0771 10.1729 12.1562 9.53418 12.1562 8.80176C12.1562 8.0166 12.0654 7.34863 11.8838 6.79785C11.7021 6.24707 11.4648 5.80176 11.1719 5.46191C10.873 5.11035 10.5273 4.85547 10.1348 4.69727C9.74805 4.53906 9.34375 4.45996 8.92188 4.45996C8.49414 4.45996 8.08984 4.53613 7.70898 4.68848C7.33398 4.84082 6.98828 5.09277 6.67188 5.44434C6.37891 5.77246 6.13867 6.22656 5.95117 6.80664C5.76953 7.38086 5.67871 8.04883 5.67871 8.81055C5.67871 9.58984 5.7666 10.2549 5.94238 10.8057C6.12402 11.3506 6.36133 11.7959 6.6543 12.1416C6.94727 12.4873 7.29004 12.7422 7.68262 12.9062C8.0752 13.0703 8.48828 13.1523 8.92188 13.1523C9.35547 13.1523 9.76855 13.0703 10.1611 12.9062C10.5537 12.7363 10.8965 12.4756 11.1895 12.124Z" fill="white"/>
<path fill-rule="evenodd" clip-rule="evenodd" d="M55.2976 17.063L55.2934 17.0616C54.2188 16.6854 53.2614 16.1118 52.4506 15.3331C51.6256 14.5408 51.0122 13.5764 50.5904 12.4842L50.586 12.473C50.1609 11.3521 49.9727 10.1222 49.9727 8.81934C49.9727 7.58213 50.1581 6.40334 50.5616 5.30724C50.9634 4.21537 51.5613 3.2456 52.3634 2.42744M52.4561 11.7637C52.7842 12.6133 53.2441 13.3223 53.8359 13.8906C54.4277 14.459 55.1338 14.8867 55.9541 15.1738C56.7803 15.4609 57.6797 15.6045 58.6523 15.6045C59.3086 15.6045 59.8242 15.5723 60.1992 15.5078C60.5742 15.4434 60.9756 15.3496 61.4033 15.2266C61.7314 15.1328 62.0449 15.0215 62.3438 14.8926C62.6426 14.7637 62.9561 14.626 63.2842 14.4795V11.3506H62.9326C62.7744 11.4912 62.5723 11.6582 62.3262 11.8516C62.0801 12.0449 61.8135 12.2266 61.5264 12.3965C61.4474 12.4455 61.3666 12.4922 61.2842 12.5364C61.0118 12.6827 60.7205 12.803 60.4102 12.8975C60.0117 13.0205 59.6074 13.082 59.1973 13.082C58.7695 13.082 58.3359 13.0146 57.8965 12.8799C57.457 12.7393 57.0586 12.5078 56.7012 12.1855C56.3496 11.8691 56.0566 11.4355 55.8223 10.8848C55.5938 10.334 55.4795 9.64844 55.4795 8.82812C55.4795 8.04297 55.585 7.375 55.7959 6.82422C56.0127 6.27344 56.2939 5.83105 56.6396 5.49707C57.0029 5.15137 57.3984 4.90527 57.8262 4.75879C58.2539 4.60645 58.7051 4.53027 59.1797 4.53027C59.6074 4.53027 60.0088 4.59473 60.3838 4.72363C60.703 4.83337 61.0032 4.96434 61.2842 5.11654C61.3333 5.14313 61.3818 5.17036 61.4297 5.19824C61.7461 5.38574 62.0273 5.57617 62.2734 5.76953C62.5254 5.96289 62.7334 6.12988 62.8975 6.27051H63.2842V3.09766C63.0439 2.98047 62.7627 2.85449 62.4404 2.71973C62.124 2.5791 61.7695 2.45312 61.377 2.3418C61.002 2.24219 60.5918 2.16309 60.1465 2.10449C59.707 2.04004 59.2119 2.00781 58.6611 2.00781C57.665 2.00781 56.7451 2.16602 55.9014 2.48242C55.0635 2.79883 54.3604 3.24707 53.792 3.82715C53.2002 4.43066 52.749 5.1543 52.4385 5.99805C52.1279 6.8418 51.9727 7.78223 51.9727 8.81934C51.9727 9.93262 52.1338 10.9141 52.4561 11.7637ZM52.3634 2.42744C53.1553 1.61937 54.1134 1.01976 55.1948 0.611382L55.1991 0.609759C56.2899 0.200728 57.4504 0.0078125 58.6611 0.0078125C59.2814 0.0078125 59.8709 0.0435936 60.4218 0.123482C60.9341 0.191432 61.425 0.285208 61.8904 0.408827L61.9226 0.417669C62.3827 0.548141 62.821 0.701667 63.2315 0.882697C63.5716 1.02526 63.8829 1.16443 64.161 1.30012C64.8482 1.63534 65.2842 2.33304 65.2842 3.09766V6.27051C65.2842 7.37508 64.3887 8.27051 63.2842 8.27051H62.8975C62.42 8.27051 61.9584 8.09972 61.5959 7.78902C61.4686 7.67993 61.2911 7.53671 61.0558 7.35615L61.0378 7.34217C60.8727 7.21243 60.668 7.07201 60.4174 6.92318C60.2166 6.80693 59.9901 6.70316 59.7336 6.61501C59.5837 6.56347 59.4036 6.53027 59.1797 6.53027C58.9233 6.53027 58.6999 6.57067 58.4972 6.64286L58.4742 6.65091C58.3491 6.69375 58.1994 6.77509 58.0246 6.93996C57.9278 7.03499 57.7929 7.21425 57.6605 7.54757C57.5621 7.8086 57.4795 8.21751 57.4795 8.82812C57.4795 9.47088 57.5701 9.87468 57.6665 10.1108C57.8146 10.4561 57.9546 10.6229 58.0391 10.699L58.0404 10.7002C58.193 10.8378 58.3419 10.921 58.4958 10.9717C58.7542 11.0497 58.9861 11.082 59.1973 11.082C59.404 11.082 59.6095 11.0515 59.82 10.9865L59.8278 10.9841C60.0754 10.9088 60.2874 10.8116 60.4716 10.6972C60.4836 10.6898 60.4956 10.6825 60.5077 10.6753C60.7242 10.5472 60.9178 10.4147 61.0905 10.2789C61.3183 10.1 61.4865 9.96013 61.6039 9.85577C61.97 9.53034 62.4428 9.35059 62.9326 9.35059H63.2842C64.3887 9.35059 65.2842 10.246 65.2842 11.3506V14.4795C65.2842 15.2687 64.8201 15.9841 64.0995 16.3058C63.7645 16.4553 63.4432 16.5964 63.1359 16.729C62.755 16.8933 62.3607 17.033 61.9545 17.1491C61.4684 17.2889 60.9955 17.4003 60.538 17.4789C59.9992 17.5715 59.3534 17.6045 58.6523 17.6045C57.4811 17.6045 56.3571 17.4312 55.2976 17.063" fill="black"/>
<path fill-rule="evenodd" clip-rule="evenodd" d="M52.6782 16.4929C52.3042 17.0296 51.6913 17.3496 51.0371 17.3496H47.5479C46.6929 17.3496 45.9324 16.8061 45.6556 15.9971L45.2131 14.7041H43.2205L42.778 15.9971C42.5012 16.8061 41.7408 17.3496 40.8858 17.3496H37.4844C36.8302 17.3496 36.2173 17.0296 35.8434 16.4929C35.6065 16.1528 35.4844 15.753 35.4844 15.3496H35.7747V14.206L40.4423 1.56971C40.7324 0.784271 41.4811 0.262695 42.3184 0.262695H46.2031C47.0404 0.262695 47.7891 0.784271 48.0792 1.56971L52.9132 14.6566C53.1399 15.2703 53.0521 15.9561 52.6782 16.4929ZM41.791 12.7041H46.6426L47.5479 15.3496H51.0371L46.2031 2.2627H42.3184L37.4844 15.3496H40.8858L41.791 12.7041ZM44.2168 5.61133L42.6084 10.3047H45.8252L44.2168 5.61133Z" fill="black"/>
<path fill-rule="evenodd" clip-rule="evenodd" d="M37.7725 15.3496C37.7725 16.4542 36.877 17.3496 35.7725 17.3496H32.3975C31.2929 17.3496 30.3975 16.4542 30.3975 15.3496V11.584H29.4141V15.3496C29.4141 16.4542 28.5186 17.3496 27.4141 17.3496H24.0391C22.9345 17.3496 22.0391 16.4542 22.0391 15.3496V2.2627C22.0391 1.15813 22.9345 0.262695 24.0391 0.262695H27.4141C28.5186 0.262695 29.4141 1.15813 29.4141 2.2627V5.05273H30.3975V2.2627C30.3975 1.15813 31.2929 0.262695 32.3975 0.262695H35.7725C36.877 0.262695 37.7725 1.15813 37.7725 2.2627V14.5635L37.4821 15.3496H37.7725ZM32.3975 7.05273H27.4141V2.2627H24.0391V15.3496H27.4141V9.58398H32.3975V15.3496H35.7725V2.2627H32.3975V7.05273Z" fill="black"/>
<path fill-rule="evenodd" clip-rule="evenodd" d="M15.3047 15.1787L15.3014 15.1821C13.6456 16.8784 11.4278 17.6221 8.91309 17.6221C6.40242 17.6221 4.18828 16.8774 2.53361 15.1821L2.53028 15.1787C0.896996 13.4974 0.171875 11.2976 0.171875 8.81055C0.171875 6.31286 0.893261 4.10367 2.53529 2.42844C4.18977 0.734434 6.40327 -0.00976562 8.91309 -0.00976562C11.4193 -0.00976562 13.6295 0.735612 15.2875 2.425C16.9371 4.09977 17.6631 6.31015 17.6631 8.81055C17.6631 11.2976 16.938 13.4974 15.3047 15.1787ZM3.96484 3.82715C2.76953 5.0459 2.17188 6.70703 2.17188 8.81055C2.17188 10.8965 2.76953 12.5547 3.96484 13.7852C5.16016 15.0098 6.80957 15.6221 8.91309 15.6221C11.0225 15.6221 12.6748 15.0098 13.8701 13.7852C15.0654 12.5547 15.6631 10.8965 15.6631 8.81055C15.6631 6.70703 15.0625 5.0459 13.8613 3.82715C12.6602 2.60254 11.0107 1.99023 8.91309 1.99023C6.80957 1.99023 5.16016 2.60254 3.96484 3.82715ZM10.1348 4.69727C9.74805 4.53906 9.34375 4.45996 8.92188 4.45996C8.49414 4.45996 8.08984 4.53613 7.70898 4.68848C7.33398 4.84082 6.98828 5.09277 6.67188 5.44434C6.37891 5.77246 6.13867 6.22656 5.95117 6.80664C5.76953 7.38086 5.67871 8.04883 5.67871 8.81055C5.67871 9.58984 5.7666 10.2549 5.94238 10.8057C6.12402 11.3506 6.36133 11.7959 6.6543 12.1416C6.94727 12.4873 7.29004 12.7422 7.68262 12.9062C8.0752 13.0703 8.48828 13.1523 8.92188 13.1523C9.35547 13.1523 9.76855 13.0703 10.1611 12.9062C10.5537 12.7363 10.8965 12.4756 11.1895 12.124C11.5176 11.7256 11.7607 11.2568 11.9189 10.7178C12.0771 10.1729 12.1562 9.53418 12.1562 8.80176C12.1562 8.0166 12.0654 7.34863 11.8838 6.79785C11.7021 6.24707 11.4648 5.80176 11.1719 5.46191C10.873 5.11035 10.5273 4.85547 10.1348 4.69727ZM9.99905 10.1574C10.0915 9.83762 10.1562 9.39549 10.1562 8.80176C10.1562 8.15933 10.0805 7.71565 9.98441 7.42424C9.86207 7.05328 9.73625 6.85965 9.65705 6.76779L9.64796 6.75724L9.648 6.75721C9.53952 6.62959 9.45304 6.57883 9.38721 6.5523L9.37749 6.54838L9.3775 6.54836C9.23352 6.48946 9.08664 6.45996 8.92188 6.45996C8.74025 6.45996 8.59082 6.49067 8.45776 6.54305C8.40579 6.56487 8.30412 6.62125 8.16162 6.77877C8.11 6.8376 7.98645 7.01481 7.85625 7.41554C7.75112 7.7504 7.67871 8.20538 7.67871 8.81055C7.67871 9.44215 7.75032 9.8868 7.84404 10.186C7.96448 10.5431 8.09063 10.743 8.18009 10.8486C8.28233 10.9692 8.37173 11.0266 8.4538 11.0609C8.59736 11.1209 8.74787 11.1523 8.92188 11.1523C9.09065 11.1523 9.23732 11.1228 9.37698 11.0662C9.45862 11.0292 9.54833 10.9682 9.64941 10.848C9.78926 10.6769 9.91094 10.4564 9.99905 10.1574Z" fill="black"/>
</svg>
