<svg width="175" height="24" viewBox="0 0 175 24" fill="none" xmlns="http://www.w3.org/2000/svg">
<path d="M18.24 14.1465C18.24 14.7793 18.1111 15.3447 17.8533 15.8428C17.6013 16.3408 17.2527 16.7539 16.8074 17.082C16.2918 17.4688 15.7234 17.7441 15.1023 17.9082C14.4871 18.0723 13.7048 18.1543 12.7556 18.1543H7.04273V5.06738H12.1228C13.1775 5.06738 13.948 5.10254 14.4343 5.17285C14.9265 5.24316 15.4128 5.39844 15.8933 5.63867C16.3914 5.89063 16.7605 6.23047 17.0007 6.6582C17.2468 7.08008 17.3699 7.56348 17.3699 8.1084C17.3699 8.74121 17.2029 9.30078 16.8689 9.78711C16.5349 10.2676 16.0632 10.6426 15.4539 10.9121V10.9824C16.3093 11.1523 16.9861 11.5039 17.4841 12.0371C17.988 12.5703 18.24 13.2734 18.24 14.1465ZM13.9158 8.76758C13.9158 8.55078 13.8601 8.33398 13.7488 8.11719C13.6433 7.90039 13.4529 7.73926 13.1775 7.63379C12.9314 7.54004 12.6238 7.49023 12.2546 7.48438C11.8914 7.47266 11.3787 7.4668 10.7166 7.4668H10.4002V10.2354H10.9275C11.4607 10.2354 11.9148 10.2266 12.2898 10.209C12.6648 10.1914 12.9607 10.1328 13.1775 10.0332C13.4822 9.89844 13.6814 9.72559 13.7752 9.51465C13.8689 9.29785 13.9158 9.04883 13.9158 8.76758ZM14.742 14.0938C14.742 13.6777 14.6599 13.3584 14.4959 13.1357C14.3377 12.9072 14.0652 12.7373 13.6785 12.626C13.4148 12.5498 13.0515 12.5088 12.5886 12.5029C12.1257 12.4971 11.6423 12.4941 11.1384 12.4941H10.4002V15.7549H10.6462C11.5955 15.7549 12.2752 15.752 12.6853 15.7461C13.0955 15.7402 13.4734 15.6641 13.8191 15.5176C14.1707 15.3711 14.4109 15.1777 14.5398 14.9375C14.6746 14.6914 14.742 14.4102 14.742 14.0938ZM30.0395 18.1543H20.5737V5.06738H30.0395V7.59863H23.9311V9.85742H29.6V12.3887H23.9311V15.623H30.0395V18.1543ZM43.5001 9.19824C43.5001 9.78418 43.3976 10.3584 43.1925 10.9209C42.9874 11.4775 42.6945 11.9463 42.3136 12.3271C41.7921 12.8428 41.2091 13.2324 40.5646 13.4961C39.9259 13.7598 39.129 13.8916 38.1739 13.8916H36.0734V18.1543H32.6984V5.06738H38.253C39.0851 5.06738 39.7853 5.14062 40.3536 5.28711C40.9278 5.42773 41.4347 5.6416 41.8741 5.92871C42.4015 6.27441 42.8028 6.7168 43.0782 7.25586C43.3595 7.79492 43.5001 8.44238 43.5001 9.19824ZM40.0109 9.27734C40.0109 8.9082 39.9112 8.5918 39.712 8.32812C39.5128 8.05859 39.2814 7.87109 39.0177 7.76562C38.6661 7.625 38.3234 7.54883 37.9894 7.53711C37.6554 7.51953 37.2101 7.51074 36.6534 7.51074H36.0734V11.4307H37.0402C37.6144 11.4307 38.0861 11.3955 38.4552 11.3252C38.8302 11.2549 39.1437 11.1143 39.3956 10.9033C39.6124 10.7158 39.7677 10.4932 39.8614 10.2354C39.9611 9.97168 40.0109 9.65234 40.0109 9.27734ZM60.2215 14.9287C60.5379 14.5303 60.7723 14.0615 60.9246 13.5225C61.077 12.9775 61.1531 12.3389 61.1531 11.6064C61.1531 10.8447 61.0652 10.1855 60.8895 9.62891C60.7195 9.06641 60.491 8.6123 60.2039 8.2666C59.9168 7.9209 59.5857 7.66895 59.2107 7.51074C58.8357 7.34668 58.4402 7.26465 58.0242 7.26465C57.6082 7.26465 57.2156 7.34082 56.8465 7.49316C56.4832 7.64551 56.1492 7.89746 55.8445 8.24902C55.5574 8.57715 55.323 9.03125 55.1414 9.61133C54.9656 10.1855 54.8777 10.8535 54.8777 11.6152C54.8777 12.3945 54.9627 13.0596 55.1326 13.6104C55.3084 14.1611 55.5398 14.6064 55.827 14.9463C56.1141 15.292 56.4451 15.5469 56.8201 15.7109C57.201 15.875 57.6023 15.957 58.0242 15.957C58.452 15.957 58.8562 15.8721 59.2371 15.7021C59.618 15.5322 59.9461 15.2744 60.2215 14.9287ZM51.4852 12.3623H49.0945V18.1543H45.7195V5.06738H49.0945V9.84863H51.617C51.9158 8.2666 52.6248 7.03027 53.7439 6.13965C54.8631 5.24316 56.2986 4.79492 58.0506 4.79492C60.1072 4.79492 61.7215 5.4043 62.8934 6.62305C64.0711 7.8418 64.66 9.50586 64.66 11.6152C64.66 12.623 64.5164 13.5488 64.2293 14.3926C63.9422 15.2305 63.5203 15.9453 62.9637 16.5371C62.3953 17.1406 61.7068 17.6064 60.8982 17.9346C60.0896 18.2627 59.1404 18.4268 58.0506 18.4268C56.1346 18.4268 54.5965 17.8906 53.4363 16.8184C52.282 15.7402 51.6316 14.2549 51.4852 12.3623ZM73.0581 13.6016H66.352V11.0703H73.0581V13.6016ZM87.257 18.1543H83.882V12.3887H78.8986V18.1543H75.5236V5.06738H78.8986V9.85742H83.882V5.06738H87.257V18.1543ZM99.8914 18.1543H90.4256V5.06738H99.8914V7.59863H93.783V9.85742H99.452V12.3887H93.783V15.623H99.8914V18.1543ZM108.553 13.6016H101.847V11.0703H108.553V13.6016ZM122.216 14.1465C122.216 14.7793 122.087 15.3447 121.829 15.8428C121.577 16.3408 121.229 16.7539 120.783 17.082C120.268 17.4688 119.699 17.7441 119.078 17.9082C118.463 18.0723 117.681 18.1543 116.732 18.1543H111.019V5.06738H116.099C117.154 5.06738 117.924 5.10254 118.41 5.17285C118.903 5.24316 119.389 5.39844 119.869 5.63867C120.367 5.89063 120.737 6.23047 120.977 6.6582C121.223 7.08008 121.346 7.56348 121.346 8.1084C121.346 8.74121 121.179 9.30078 120.845 9.78711C120.511 10.2676 120.039 10.6426 119.43 10.9121V10.9824C120.285 11.1523 120.962 11.5039 121.46 12.0371C121.964 12.5703 122.216 13.2734 122.216 14.1465ZM117.892 8.76758C117.892 8.55078 117.836 8.33398 117.725 8.11719C117.619 7.90039 117.429 7.73926 117.154 7.63379C116.907 7.54004 116.6 7.49023 116.231 7.48438C115.867 7.47266 115.355 7.4668 114.693 7.4668H114.376V10.2354H114.904C115.437 10.2354 115.891 10.2266 116.266 10.209C116.641 10.1914 116.937 10.1328 117.154 10.0332C117.458 9.89844 117.657 9.72559 117.751 9.51465C117.845 9.29785 117.892 9.04883 117.892 8.76758ZM118.718 14.0938C118.718 13.6777 118.636 13.3584 118.472 13.1357C118.314 12.9072 118.041 12.7373 117.654 12.626C117.391 12.5498 117.028 12.5088 116.565 12.5029C116.102 12.4971 115.618 12.4941 115.114 12.4941H114.376V15.7549H114.622C115.571 15.7549 116.251 15.752 116.661 15.7461C117.071 15.7402 117.449 15.6641 117.795 15.5176C118.147 15.3711 118.387 15.1777 118.516 14.9375C118.651 14.6914 118.718 14.4102 118.718 14.0938ZM134.016 18.1543H124.55V5.06738H134.016V7.59863H127.907V9.85742H133.576V12.3887H127.907V15.623H134.016V18.1543ZM147.476 9.19824C147.476 9.78418 147.374 10.3584 147.169 10.9209C146.963 11.4775 146.67 11.9463 146.29 12.3271C145.768 12.8428 145.185 13.2324 144.541 13.4961C143.902 13.7598 143.105 13.8916 142.15 13.8916H140.049V18.1543H136.674V5.06738H142.229C143.061 5.06738 143.761 5.14062 144.33 5.28711C144.904 5.42773 145.411 5.6416 145.85 5.92871C146.378 6.27441 146.779 6.7168 147.054 7.25586C147.336 7.79492 147.476 8.44238 147.476 9.19824ZM143.987 9.27734C143.987 8.9082 143.887 8.5918 143.688 8.32812C143.489 8.05859 143.257 7.87109 142.994 7.76562C142.642 7.625 142.299 7.54883 141.965 7.53711C141.631 7.51953 141.186 7.51074 140.629 7.51074H140.049V11.4307H141.016C141.59 11.4307 142.062 11.3955 142.431 11.3252C142.806 11.2549 143.12 11.1143 143.372 10.9033C143.588 10.7158 143.744 10.4932 143.837 10.2354C143.937 9.97168 143.987 9.65234 143.987 9.27734ZM164.198 14.9287C164.514 14.5303 164.748 14.0615 164.901 13.5225C165.053 12.9775 165.129 12.3389 165.129 11.6064C165.129 10.8447 165.041 10.1855 164.865 9.62891C164.696 9.06641 164.467 8.6123 164.18 8.2666C163.893 7.9209 163.562 7.66895 163.187 7.51074C162.812 7.34668 162.416 7.26465 162 7.26465C161.584 7.26465 161.192 7.34082 160.823 7.49316C160.459 7.64551 160.125 7.89746 159.821 8.24902C159.533 8.57715 159.299 9.03125 159.117 9.61133C158.942 10.1855 158.854 10.8535 158.854 11.6152C158.854 12.3945 158.939 13.0596 159.109 13.6104C159.284 14.1611 159.516 14.6064 159.803 14.9463C160.09 15.292 160.421 15.5469 160.796 15.7109C161.177 15.875 161.578 15.957 162 15.957C162.428 15.957 162.832 15.8721 163.213 15.7021C163.594 15.5322 163.922 15.2744 164.198 14.9287ZM155.461 12.3623H153.071V18.1543H149.696V5.06738H153.071V9.84863H155.593C155.892 8.2666 156.601 7.03027 157.72 6.13965C158.839 5.24316 160.275 4.79492 162.027 4.79492C164.083 4.79492 165.698 5.4043 166.869 6.62305C168.047 7.8418 168.636 9.50586 168.636 11.6152C168.636 12.623 168.492 13.5488 168.205 14.3926C167.918 15.2305 167.496 15.9453 166.94 16.5371C166.371 17.1406 165.683 17.6064 164.874 17.9346C164.066 18.2627 163.116 18.4268 162.027 18.4268C160.111 18.4268 158.573 17.8906 157.412 16.8184C156.258 15.7402 155.608 14.2549 155.461 12.3623Z" fill="white"/>
<path d="M17.8533 15.8428L16.0771 14.9234C16.0743 14.9289 16.0714 14.9344 16.0686 14.94L17.8533 15.8428ZM16.8074 17.082L15.621 15.4719C15.6164 15.4753 15.6119 15.4786 15.6074 15.482L16.8074 17.082ZM15.1023 17.9082L14.5915 15.9745L14.587 15.9757L15.1023 17.9082ZM7.04273 18.1543H5.04273C5.04273 19.2589 5.93816 20.1543 7.04273 20.1543V18.1543ZM7.04273 5.06738V3.06738C5.93816 3.06738 5.04273 3.96281 5.04273 5.06738H7.04273ZM14.4343 5.17285L14.1482 7.15227L14.1515 7.15275L14.4343 5.17285ZM15.8933 5.63867L16.7961 3.85402L16.7877 3.84982L15.8933 5.63867ZM17.0007 6.6582L15.257 7.63759C15.2623 7.64709 15.2677 7.65654 15.2732 7.66595L17.0007 6.6582ZM16.8689 9.78711L18.5111 10.9287L18.5176 10.9193L16.8689 9.78711ZM15.4539 10.9121L14.6449 9.08304C13.9208 9.40328 13.4539 10.1204 13.4539 10.9121H15.4539ZM15.4539 10.9824H13.4539C13.4539 11.9368 14.1282 12.7582 15.0642 12.9441L15.4539 10.9824ZM17.4841 12.0371L16.0225 13.4023L16.0306 13.4108L17.4841 12.0371ZM13.7488 8.11719L11.9503 8.99212C11.9566 9.00508 11.9631 9.01797 11.9697 9.0308L13.7488 8.11719ZM13.1775 7.63379L13.8928 5.76607L13.8895 5.76481L13.1775 7.63379ZM12.2546 7.48438L12.1902 9.48334C12.2011 9.48369 12.212 9.48395 12.2229 9.48412L12.2546 7.48438ZM10.4002 7.4668V5.4668C9.29558 5.4668 8.40015 6.36223 8.40015 7.4668H10.4002ZM10.4002 10.2354H8.40015C8.40015 11.3399 9.29558 12.2354 10.4002 12.2354V10.2354ZM13.1775 10.0332L12.3685 8.20413C12.3598 8.20798 12.3511 8.21188 12.3425 8.21585L13.1775 10.0332ZM13.7752 9.51465L15.6028 10.3269C15.6055 10.3208 15.6082 10.3146 15.6109 10.3085L13.7752 9.51465ZM14.4959 13.1357L12.8515 14.2742C12.8627 14.2903 12.8741 14.3063 12.8857 14.3221L14.4959 13.1357ZM13.6785 12.626L13.1234 14.5474L13.1252 14.5479L13.6785 12.626ZM10.4002 12.4941V10.4941C9.29558 10.4941 8.40015 11.3896 8.40015 12.4941H10.4002ZM10.4002 15.7549H8.40015C8.40015 16.8595 9.29558 17.7549 10.4002 17.7549V15.7549ZM13.8191 15.5176L13.0499 13.6714L13.0388 13.6761L13.8191 15.5176ZM14.5398 14.9375L12.7856 13.9769C12.7829 13.9819 12.7802 13.9869 12.7775 13.9919L14.5398 14.9375ZM16.24 14.1465C16.24 14.5008 16.1699 14.7442 16.0771 14.9234L19.6294 16.7622C20.0523 15.9453 20.24 15.0577 20.24 14.1465H16.24ZM16.0686 14.94C15.9567 15.1613 15.8119 15.3312 15.621 15.4719L17.9938 18.6921C18.6935 18.1766 19.246 17.5203 19.6379 16.7456L16.0686 14.94ZM15.6074 15.482C15.2972 15.7147 14.9627 15.8765 14.5915 15.9745L15.6131 19.8419C16.4841 19.6118 17.2864 19.2228 18.0074 18.682L15.6074 15.482ZM14.587 15.9757C14.2003 16.0788 13.6071 16.1543 12.7556 16.1543V20.1543C13.8026 20.1543 14.7738 20.0657 15.6176 19.8407L14.587 15.9757ZM12.7556 16.1543H7.04273V20.1543H12.7556V16.1543ZM9.04273 18.1543V5.06738H5.04273V18.1543H9.04273ZM7.04273 7.06738H12.1228V3.06738H7.04273V7.06738ZM12.1228 7.06738C13.1645 7.06738 13.8133 7.10386 14.1482 7.15227L14.7205 3.19343C14.0827 3.10122 13.1905 3.06738 12.1228 3.06738V7.06738ZM14.1515 7.15275C14.4144 7.19031 14.6952 7.2757 14.9989 7.42753L16.7877 3.84982C16.1305 3.52118 15.4386 3.29602 14.7172 3.19295L14.1515 7.15275ZM14.9905 7.42331C15.1849 7.52164 15.2369 7.60183 15.257 7.63759L18.7445 5.67881C18.2841 4.8591 17.5978 4.25961 16.7961 3.85404L14.9905 7.42331ZM15.2732 7.66595C15.3208 7.74764 15.3699 7.87563 15.3699 8.1084H19.3699C19.3699 7.25132 19.1728 6.41252 18.7283 5.65046L15.2732 7.66595ZM15.3699 8.1084C15.3699 8.36786 15.3085 8.52638 15.2202 8.65489L18.5176 10.9193C19.0973 10.0752 19.3699 9.11456 19.3699 8.1084H15.3699ZM15.2267 8.64557C15.1299 8.78475 14.9663 8.94088 14.6449 9.08304L16.2629 12.7412C17.1602 12.3443 17.9399 11.7504 18.5111 10.9287L15.2267 8.64557ZM13.4539 10.9121V10.9824H17.4539V10.9121H13.4539ZM15.0642 12.9441C15.591 13.0487 15.8629 13.2314 16.0226 13.4023L18.9457 10.6719C18.1093 9.77643 17.0277 9.25596 15.8435 9.02075L15.0642 12.9441ZM16.0306 13.4108C16.1185 13.5039 16.24 13.681 16.24 14.1465H20.24C20.24 12.8658 19.8576 11.6367 18.9377 10.6634L16.0306 13.4108ZM15.9158 8.76758C15.9158 8.1954 15.7662 7.66756 15.5279 7.20358L11.9697 9.0308C11.9541 9.00041 11.9158 8.90616 11.9158 8.76758H15.9158ZM15.5473 7.24226C15.1726 6.47208 14.5307 6.01039 13.8928 5.76608L12.4622 9.5015C12.4272 9.4881 12.3395 9.44894 12.235 9.36051C12.1254 9.26778 12.0235 9.1426 11.9503 8.99212L15.5473 7.24226ZM13.8895 5.76481C13.3578 5.56226 12.8019 5.49281 12.2864 5.48463L12.2229 9.48412C12.3281 9.48579 12.3995 9.49344 12.4426 9.50041C12.486 9.50744 12.4899 9.51206 12.4655 9.50276L13.8895 5.76481ZM12.3191 5.48541C11.9237 5.47266 11.3858 5.4668 10.7166 5.4668V9.4668C11.3715 9.4668 11.8591 9.47265 12.1902 9.48334L12.3191 5.48541ZM10.7166 5.4668H10.4002V9.4668H10.7166V5.4668ZM8.40015 7.4668V10.2354H12.4002V7.4668H8.40015ZM10.4002 12.2354H10.9275V8.23535H10.4002V12.2354ZM10.9275 12.2354C11.4801 12.2354 11.9674 12.2263 12.3834 12.2068L12.1962 8.21118C11.8622 8.22683 11.4413 8.23535 10.9275 8.23535V12.2354ZM12.3834 12.2068C12.8844 12.1833 13.4676 12.1009 14.0125 11.8506L12.3425 8.21585C12.4084 8.18556 12.4369 8.18353 12.4045 8.18995C12.3739 8.196 12.3075 8.20596 12.1962 8.21118L12.3834 12.2068ZM13.9865 11.8623C14.5462 11.6147 15.2338 11.1572 15.6028 10.3269L11.9475 8.70237C12.1291 8.29394 12.4182 8.18215 12.3685 8.20413L13.9865 11.8623ZM15.6109 10.3085C15.8316 9.79799 15.9158 9.27068 15.9158 8.76758H11.9158C11.9158 8.79743 11.9133 8.80524 11.9151 8.79531C11.9171 8.78468 11.9234 8.75794 11.9394 8.72083L15.6109 10.3085ZM16.742 14.0938C16.742 13.4547 16.6222 12.6499 16.106 11.9493L12.8857 14.3221C12.7894 14.1914 12.7541 14.0819 12.7433 14.0398C12.7334 14.0011 12.742 14.012 12.742 14.0938H16.742ZM16.1402 11.9973C15.6242 11.252 14.8683 10.8873 14.2318 10.704L13.1252 14.5479C13.1834 14.5647 13.1692 14.5681 13.1145 14.5339C13.055 14.4968 12.9498 14.4163 12.8515 14.2742L16.1402 11.9973ZM14.2336 10.7045C13.7198 10.5561 13.1514 10.5099 12.6139 10.5031L12.5633 14.5028C12.7448 14.5051 12.883 14.5141 12.9839 14.5255C13.0879 14.5372 13.1285 14.5489 13.1234 14.5474L14.2336 10.7045ZM12.6139 10.5031C12.1419 10.4971 11.65 10.4941 11.1384 10.4941V14.4941C11.6346 14.4941 12.1096 14.497 12.5633 14.5028L12.6139 10.5031ZM11.1384 10.4941H10.4002V14.4941H11.1384V10.4941ZM8.40015 12.4941V15.7549H12.4002V12.4941H8.40015ZM10.4002 17.7549H10.6462V13.7549H10.4002V17.7549ZM10.6462 17.7549C11.5959 17.7549 12.2881 17.752 12.7139 17.7459L12.6567 13.7463C12.2622 13.7519 11.595 13.7549 10.6462 13.7549V17.7549ZM12.7139 17.7459C13.3585 17.7367 13.9945 17.6154 14.5994 17.3591L13.0388 13.6761C12.9523 13.7127 12.8325 13.7438 12.6567 13.7463L12.7139 17.7459ZM14.5883 17.3637C15.1983 17.1096 15.8835 16.6634 16.3021 15.8831L12.7775 13.9919C12.9383 13.6921 13.143 13.6326 13.0499 13.6714L14.5883 17.3637ZM16.294 15.8981C16.6097 15.3216 16.742 14.7024 16.742 14.0938H12.742C12.742 14.1096 12.7403 14.1016 12.7465 14.076C12.7528 14.0494 12.7651 14.0143 12.7856 13.9769L16.294 15.8981ZM30.0395 18.1543V20.1543C31.1441 20.1543 32.0395 19.2589 32.0395 18.1543H30.0395ZM20.5737 18.1543H18.5737C18.5737 19.2589 19.4691 20.1543 20.5737 20.1543V18.1543ZM20.5737 5.06738V3.06738C19.4691 3.06738 18.5737 3.96281 18.5737 5.06738H20.5737ZM30.0395 5.06738H32.0395C32.0395 3.96281 31.1441 3.06738 30.0395 3.06738V5.06738ZM30.0395 7.59863V9.59863C31.1441 9.59863 32.0395 8.7032 32.0395 7.59863H30.0395ZM23.9311 7.59863V5.59863C22.8265 5.59863 21.9311 6.49406 21.9311 7.59863H23.9311ZM23.9311 9.85742H21.9311C21.9311 10.962 22.8265 11.8574 23.9311 11.8574V9.85742ZM29.6 9.85742H31.6C31.6 8.75285 30.7046 7.85742 29.6 7.85742V9.85742ZM29.6 12.3887V14.3887C30.7046 14.3887 31.6 13.4932 31.6 12.3887H29.6ZM23.9311 12.3887V10.3887C22.8265 10.3887 21.9311 11.2841 21.9311 12.3887H23.9311ZM23.9311 15.623H21.9311C21.9311 16.7276 22.8265 17.623 23.9311 17.623V15.623ZM30.0395 15.623H32.0395C32.0395 14.5185 31.1441 13.623 30.0395 13.623V15.623ZM30.0395 16.1543H20.5737V20.1543H30.0395V16.1543ZM22.5737 18.1543V5.06738H18.5737V18.1543H22.5737ZM20.5737 7.06738H30.0395V3.06738H20.5737V7.06738ZM28.0395 5.06738V7.59863H32.0395V5.06738H28.0395ZM30.0395 5.59863H23.9311V9.59863H30.0395V5.59863ZM21.9311 7.59863V9.85742H25.9311V7.59863H21.9311ZM23.9311 11.8574H29.6V7.85742H23.9311V11.8574ZM27.6 9.85742V12.3887H31.6V9.85742H27.6ZM29.6 10.3887H23.9311V14.3887H29.6V10.3887ZM21.9311 12.3887V15.623H25.9311V12.3887H21.9311ZM23.9311 17.623H30.0395V13.623H23.9311V17.623ZM28.0395 15.623V18.1543H32.0395V15.623H28.0395ZM43.1925 10.9209L45.0692 11.6123L45.0715 11.606L43.1925 10.9209ZM42.3136 12.3271L43.7198 13.7494L43.7278 13.7414L42.3136 12.3271ZM40.5646 13.4961L39.8073 11.645L39.8014 11.6474L40.5646 13.4961ZM36.0734 13.8916V11.8916C34.9688 11.8916 34.0734 12.787 34.0734 13.8916H36.0734ZM36.0734 18.1543V20.1543C37.1779 20.1543 38.0734 19.2589 38.0734 18.1543H36.0734ZM32.6984 18.1543H30.6984C30.6984 19.2589 31.5938 20.1543 32.6984 20.1543V18.1543ZM32.6984 5.06738V3.06738C31.5938 3.06738 30.6984 3.96281 30.6984 5.06738H32.6984ZM40.3536 5.28711L39.8545 7.22382C39.8623 7.22583 39.8701 7.22779 39.8779 7.2297L40.3536 5.28711ZM41.8741 5.92871L42.9706 4.25608L42.968 4.25438L41.8741 5.92871ZM43.0782 7.25586L41.2972 8.16574C41.2998 8.17084 41.3024 8.17592 41.3051 8.18099L43.0782 7.25586ZM39.712 8.32812L38.1037 9.51691C38.1079 9.52256 38.1121 9.52819 38.1163 9.53379L39.712 8.32812ZM37.9894 7.53711L37.8843 9.53435C37.8959 9.53496 37.9076 9.53547 37.9192 9.53588L37.9894 7.53711ZM36.0734 7.51074V5.51074C34.9688 5.51074 34.0734 6.40617 34.0734 7.51074H36.0734ZM36.0734 11.4307H34.0734C34.0734 12.5352 34.9688 13.4307 36.0734 13.4307V11.4307ZM38.4552 11.3252L38.0866 9.35944L38.081 9.36052L38.4552 11.3252ZM39.3956 10.9033L40.6795 12.4368C40.6877 12.43 40.6958 12.423 40.7039 12.416L39.3956 10.9033ZM39.8614 10.2354L37.9905 9.52855C37.9876 9.5363 37.9847 9.54408 37.9819 9.55187L39.8614 10.2354ZM41.5001 9.19824C41.5001 9.54538 41.4403 9.888 41.3135 10.2358L45.0715 11.606C45.3549 10.8288 45.5001 10.023 45.5001 9.19824H41.5001ZM41.3158 10.2295C41.2005 10.5424 41.0556 10.7567 40.8994 10.9129L43.7278 13.7414C44.3333 13.1359 44.7743 12.4127 45.0692 11.6123L41.3158 10.2295ZM40.9074 10.905C40.562 11.2465 40.1968 11.4857 39.8073 11.645L41.3218 15.3472C42.2214 14.9792 43.0222 14.4391 43.7198 13.7493L40.9074 10.905ZM39.8014 11.6474C39.4782 11.7808 38.9606 11.8916 38.1739 11.8916V15.8916C39.2975 15.8916 40.3736 15.7387 41.3278 15.3447L39.8014 11.6474ZM38.1739 11.8916H36.0734V15.8916H38.1739V11.8916ZM34.0734 13.8916V18.1543H38.0734V13.8916H34.0734ZM36.0734 16.1543H32.6984V20.1543H36.0734V16.1543ZM34.6984 18.1543V5.06738H30.6984V18.1543H34.6984ZM32.6984 7.06738H38.253V3.06738H32.6984V7.06738ZM38.253 7.06738C38.9806 7.06738 39.5012 7.13278 39.8545 7.22382L40.8528 3.3504C40.0693 3.14847 39.1895 3.06738 38.253 3.06738V7.06738ZM39.8779 7.2297C40.2598 7.32324 40.5525 7.45424 40.7802 7.60304L42.968 4.25438C42.3169 3.82896 41.5959 3.53223 40.8294 3.34451L39.8779 7.2297ZM40.7776 7.60134C41.027 7.76483 41.1866 7.94922 41.2972 8.16574L44.8593 6.34598C44.4191 5.48437 43.7759 4.784 42.9706 4.25608L40.7776 7.60134ZM41.3051 8.18099C41.4054 8.37328 41.5001 8.68763 41.5001 9.19824H45.5001C45.5001 8.19714 45.3136 7.21657 44.8514 6.33073L41.3051 8.18099ZM42.0109 9.27734C42.0109 8.52659 41.7999 7.77377 41.3078 7.12246L38.1163 9.53379C38.0776 9.48254 38.047 9.42276 38.0285 9.36376C38.0106 9.30708 38.0109 9.27376 38.0109 9.27734H42.0109ZM41.3204 7.13934C40.9406 6.62553 40.4271 6.17532 39.7605 5.90867L38.2749 9.62258C38.2115 9.59723 38.1626 9.56572 38.1301 9.53938C38.0991 9.51432 38.0923 9.50147 38.1037 9.51691L41.3204 7.13934ZM39.7605 5.90867C39.2228 5.69358 38.6527 5.55915 38.0595 5.53834L37.9192 9.53588C37.994 9.5385 38.1095 9.55642 38.2749 9.62258L39.7605 5.90867ZM38.0945 5.53987C37.7102 5.51965 37.2255 5.51074 36.6534 5.51074V9.51074C37.1947 9.51074 37.6006 9.51941 37.8843 9.53435L38.0945 5.53987ZM36.6534 5.51074H36.0734V9.51074H36.6534V5.51074ZM34.0734 7.51074V11.4307H38.0734V7.51074H34.0734ZM36.0734 13.4307H37.0402V9.43066H36.0734V13.4307ZM37.0402 13.4307C37.6816 13.4307 38.2905 13.3925 38.8294 13.2899L38.081 9.36052C37.8816 9.39849 37.5471 9.43066 37.0402 9.43066V13.4307ZM38.8238 13.2909C39.4811 13.1677 40.1249 12.9012 40.6795 12.4368L38.1117 9.3698C38.1217 9.36149 38.1311 9.35485 38.1391 9.34988C38.147 9.34494 38.152 9.3426 38.1529 9.34219C38.155 9.34129 38.1359 9.35021 38.0866 9.35945L38.8238 13.2909ZM40.7039 12.416C41.1667 12.0158 41.5254 11.5119 41.741 10.9188L37.9819 9.55187C37.9937 9.51928 38.0114 9.48435 38.0342 9.45168C38.0567 9.4194 38.0771 9.39942 38.0873 9.39059L40.7039 12.416ZM41.7324 10.9422C41.9404 10.3916 42.0109 9.81867 42.0109 9.27734H38.0109C38.0109 9.48602 37.9817 9.55174 37.9905 9.52855L41.7324 10.9422ZM60.2215 14.9287L61.7858 16.1749L61.7877 16.1725L60.2215 14.9287ZM60.9246 13.5225L62.8492 14.0664L62.8507 14.061L60.9246 13.5225ZM60.8895 9.62891L58.9749 10.2073C58.9773 10.2152 58.9798 10.2232 58.9823 10.2312L60.8895 9.62891ZM59.2107 7.51074L58.4091 9.34306C58.4172 9.34658 58.4252 9.35005 58.4333 9.35347L59.2107 7.51074ZM56.8465 7.49316L56.0835 5.64439L56.073 5.64878L56.8465 7.49316ZM55.8445 8.24902L57.3497 9.56605L57.3559 9.55888L55.8445 8.24902ZM55.1414 9.61133L53.2327 9.01367L53.229 9.0259L55.1414 9.61133ZM55.1326 13.6104L53.2215 14.2C53.2234 14.2061 53.2253 14.2123 53.2273 14.2184L55.1326 13.6104ZM55.827 14.9463L57.3655 13.6685C57.3619 13.6642 57.3583 13.6599 57.3547 13.6556L55.827 14.9463ZM56.8201 15.7109L56.0185 17.5433L56.0289 17.5478L56.8201 15.7109ZM51.4852 12.3623L53.4792 12.208C53.3986 11.1664 52.5299 10.3623 51.4852 10.3623V12.3623ZM49.0945 12.3623V10.3623C47.99 10.3623 47.0945 11.2577 47.0945 12.3623H49.0945ZM49.0945 18.1543V20.1543C50.1991 20.1543 51.0945 19.2589 51.0945 18.1543H49.0945ZM45.7195 18.1543H43.7195C43.7195 19.2589 44.615 20.1543 45.7195 20.1543V18.1543ZM45.7195 5.06738V3.06738C44.615 3.06738 43.7195 3.96281 43.7195 5.06738H45.7195ZM49.0945 5.06738H51.0945C51.0945 3.96281 50.1991 3.06738 49.0945 3.06738V5.06738ZM49.0945 9.84863H47.0945C47.0945 10.9532 47.99 11.8486 49.0945 11.8486V9.84863ZM51.617 9.84863V11.8486C52.5784 11.8486 53.4038 11.1646 53.5822 10.2198L51.617 9.84863ZM53.7439 6.13965L54.9893 7.70459L54.9943 7.70059L53.7439 6.13965ZM62.8934 6.62305L61.4517 8.00927L61.4551 8.01285L62.8934 6.62305ZM64.2293 14.3926L66.1213 15.0409L66.1227 15.0369L64.2293 14.3926ZM62.9637 16.5371L64.4197 17.9083L64.4205 17.9074L62.9637 16.5371ZM53.4363 16.8184L52.0711 18.28L52.0788 18.2871L53.4363 16.8184ZM61.7877 16.1725C62.2846 15.5467 62.6322 14.8343 62.8492 14.0664L59 12.9785C58.9123 13.2887 58.7912 13.5138 58.6553 13.6849L61.7877 16.1725ZM62.8507 14.061C63.064 13.298 63.1531 12.4705 63.1531 11.6064H59.1531C59.1531 12.2073 59.0899 12.657 58.9985 12.984L62.8507 14.061ZM63.1531 11.6064C63.1531 10.6991 63.0494 9.8271 62.7966 9.02664L58.9823 10.2312C59.0811 10.544 59.1531 10.9904 59.1531 11.6064H63.1531ZM62.804 9.05055C62.5794 8.3071 62.2442 7.59291 61.7425 6.9888L58.6653 9.5444C58.7378 9.6317 58.8596 9.82571 58.9749 10.2073L62.804 9.05055ZM61.7425 6.9888C61.2723 6.42263 60.6882 5.96337 59.9881 5.66801L58.4333 9.35347C58.4832 9.37452 58.5613 9.41917 58.6653 9.5444L61.7425 6.9888ZM60.0124 5.67843C59.3804 5.40193 58.7115 5.26465 58.0242 5.26465V9.26465C58.169 9.26465 58.2911 9.29143 58.4091 9.34306L60.0124 5.67843ZM58.0242 5.26465C57.3576 5.26465 56.7047 5.38805 56.0835 5.64442L57.6095 9.34191C57.7265 9.29359 57.8588 9.26465 58.0242 9.26465V5.26465ZM56.073 5.64878C55.3789 5.93985 54.8032 6.39685 54.3332 6.93916L57.3559 9.55888C57.4953 9.39807 57.5875 9.35117 57.6199 9.33755L56.073 5.64878ZM54.3394 6.93201C53.8122 7.53455 53.4669 8.26598 53.2328 9.01368L57.05 10.209C57.1792 9.79652 57.3027 9.61975 57.3497 9.56603L54.3394 6.93201ZM53.229 9.0259C52.982 9.83278 52.8777 10.7057 52.8777 11.6152H56.8777C56.8777 11.0014 56.9492 10.5383 57.0538 10.1968L53.229 9.0259ZM52.8777 11.6152C52.8777 12.529 52.9761 13.4044 53.2215 14.2L57.0437 13.0208C56.9493 12.7147 56.8777 12.26 56.8777 11.6152H52.8777ZM53.2273 14.2184C53.4601 14.9479 53.8002 15.6463 54.2992 16.237L57.3547 13.6556C57.2795 13.5666 57.1567 13.3744 57.0379 13.0023L53.2273 14.2184ZM54.2884 16.2241C54.7548 16.7857 55.3309 17.2424 56.0185 17.5433L57.6218 13.8786C57.5593 13.8513 57.4734 13.7983 57.3655 13.6685L54.2884 16.2241ZM56.0289 17.5478C56.664 17.8214 57.3351 17.957 58.0242 17.957V13.957C57.8696 13.957 57.7379 13.9286 57.6114 13.8741L56.0289 17.5478ZM58.0242 17.957C58.7254 17.957 59.408 17.8159 60.052 17.5286L58.4222 13.8757C58.3045 13.9282 58.1785 13.957 58.0242 13.957V17.957ZM60.052 17.5286C60.743 17.2203 61.323 16.7558 61.7858 16.1749L58.6572 13.6826C58.5692 13.793 58.4929 13.8442 58.4222 13.8757L60.052 17.5286ZM51.4852 10.3623H49.0945V14.3623H51.4852V10.3623ZM47.0945 12.3623V18.1543H51.0945V12.3623H47.0945ZM49.0945 16.1543H45.7195V20.1543H49.0945V16.1543ZM47.7195 18.1543V5.06738H43.7195V18.1543H47.7195ZM45.7195 7.06738H49.0945V3.06738H45.7195V7.06738ZM47.0945 5.06738V9.84863H51.0945V5.06738H47.0945ZM49.0945 11.8486H51.617V7.84863H49.0945V11.8486ZM53.5822 10.2198C53.804 9.04593 54.293 8.25872 54.9893 7.70458L52.4986 4.57472C50.9566 5.80182 50.0277 7.48728 49.6517 9.47742L53.5822 10.2198ZM54.9943 7.70059C55.6853 7.14711 56.6493 6.79492 58.0506 6.79492V2.79492C55.948 2.79492 54.0409 3.33921 52.4936 4.57871L54.9943 7.70059ZM58.0506 6.79492C59.6894 6.79492 60.7363 7.26521 61.4517 8.00926L64.335 5.23683C62.7067 3.54339 60.525 2.79492 58.0506 2.79492V6.79492ZM61.4551 8.01285C62.1894 8.77262 62.66 9.89097 62.66 11.6152H66.66C66.66 9.12075 65.9528 6.91097 64.3316 5.23324L61.4551 8.01285ZM62.66 11.6152C62.66 12.4322 62.5439 13.1372 62.3359 13.7483L66.1227 15.0369C66.489 13.9604 66.66 12.8139 66.66 11.6152H62.66ZM62.3373 13.7443C62.1339 14.3378 61.8518 14.8001 61.5068 15.1668L64.4205 17.9074C65.1888 17.0905 65.7505 16.1231 66.1213 15.0409L62.3373 13.7443ZM61.5077 15.1659C61.1469 15.549 60.7025 15.8556 60.1462 16.0813L61.6503 19.7878C62.7111 19.3573 63.6437 18.7322 64.4197 17.9083L61.5077 15.1659ZM60.1462 16.0813C59.6279 16.2917 58.9446 16.4268 58.0506 16.4268V20.4268C59.3363 20.4268 60.5514 20.2337 61.6503 19.7878L60.1462 16.0813ZM58.0506 16.4268C56.5249 16.4268 55.5091 16.0107 54.7938 15.3496L52.0788 18.2871C53.6838 19.7705 55.7442 20.4268 58.0506 20.4268V16.4268ZM54.8015 15.3567C54.0842 14.6868 53.5953 13.7078 53.4792 12.208L49.4911 12.5166C49.668 14.802 50.4799 16.7937 52.0712 18.28L54.8015 15.3567ZM73.0581 13.6016V15.6016C74.1627 15.6016 75.0581 14.7061 75.0581 13.6016H73.0581ZM66.352 13.6016H64.352C64.352 14.7061 65.2475 15.6016 66.352 15.6016V13.6016ZM66.352 11.0703V9.07031C65.2475 9.07031 64.352 9.96574 64.352 11.0703H66.352ZM73.0581 11.0703H75.0581C75.0581 9.96574 74.1627 9.07031 73.0581 9.07031V11.0703ZM73.0581 11.6016H66.352V15.6016H73.0581V11.6016ZM68.352 13.6016V11.0703H64.352V13.6016H68.352ZM66.352 13.0703H73.0581V9.07031H66.352V13.0703ZM71.0581 11.0703V13.6016H75.0581V11.0703H71.0581ZM87.257 18.1543V20.1543C88.3616 20.1543 89.257 19.2589 89.257 18.1543H87.257ZM83.882 18.1543H81.882C81.882 19.2589 82.7774 20.1543 83.882 20.1543V18.1543ZM83.882 12.3887H85.882C85.882 11.2841 84.9866 10.3887 83.882 10.3887V12.3887ZM78.8986 12.3887V10.3887C77.794 10.3887 76.8986 11.2841 76.8986 12.3887H78.8986ZM78.8986 18.1543V20.1543C80.0032 20.1543 80.8986 19.2589 80.8986 18.1543H78.8986ZM75.5236 18.1543H73.5236C73.5236 19.2589 74.419 20.1543 75.5236 20.1543V18.1543ZM75.5236 5.06738V3.06738C74.419 3.06738 73.5236 3.96281 73.5236 5.06738H75.5236ZM78.8986 5.06738H80.8986C80.8986 3.96281 80.0032 3.06738 78.8986 3.06738V5.06738ZM78.8986 9.85742H76.8986C76.8986 10.962 77.794 11.8574 78.8986 11.8574V9.85742ZM83.882 9.85742V11.8574C84.9866 11.8574 85.882 10.962 85.882 9.85742H83.882ZM83.882 5.06738V3.06738C82.7774 3.06738 81.882 3.96281 81.882 5.06738H83.882ZM87.257 5.06738H89.257C89.257 3.96281 88.3616 3.06738 87.257 3.06738V5.06738ZM87.257 16.1543H83.882V20.1543H87.257V16.1543ZM85.882 18.1543V12.3887H81.882V18.1543H85.882ZM83.882 10.3887H78.8986V14.3887H83.882V10.3887ZM76.8986 12.3887V18.1543H80.8986V12.3887H76.8986ZM78.8986 16.1543H75.5236V20.1543H78.8986V16.1543ZM77.5236 18.1543V5.06738H73.5236V18.1543H77.5236ZM75.5236 7.06738H78.8986V3.06738H75.5236V7.06738ZM76.8986 5.06738V9.85742H80.8986V5.06738H76.8986ZM78.8986 11.8574H83.882V7.85742H78.8986V11.8574ZM85.882 9.85742V5.06738H81.882V9.85742H85.882ZM83.882 7.06738H87.257V3.06738H83.882V7.06738ZM85.257 5.06738V18.1543H89.257V5.06738H85.257ZM99.8914 18.1543V20.1543C100.996 20.1543 101.891 19.2589 101.891 18.1543H99.8914ZM90.4256 18.1543H88.4256C88.4256 19.2589 89.3211 20.1543 90.4256 20.1543V18.1543ZM90.4256 5.06738V3.06738C89.3211 3.06738 88.4256 3.96281 88.4256 5.06738H90.4256ZM99.8914 5.06738H101.891C101.891 3.96281 100.996 3.06738 99.8914 3.06738V5.06738ZM99.8914 7.59863V9.59863C100.996 9.59863 101.891 8.7032 101.891 7.59863H99.8914ZM93.783 7.59863V5.59863C92.6785 5.59863 91.783 6.49406 91.783 7.59863H93.783ZM93.783 9.85742H91.783C91.783 10.962 92.6785 11.8574 93.783 11.8574V9.85742ZM99.452 9.85742H101.452C101.452 8.75285 100.557 7.85742 99.452 7.85742V9.85742ZM99.452 12.3887V14.3887C100.557 14.3887 101.452 13.4932 101.452 12.3887H99.452ZM93.783 12.3887V10.3887C92.6785 10.3887 91.783 11.2841 91.783 12.3887H93.783ZM93.783 15.623H91.783C91.783 16.7276 92.6785 17.623 93.783 17.623V15.623ZM99.8914 15.623H101.891C101.891 14.5185 100.996 13.623 99.8914 13.623V15.623ZM99.8914 16.1543H90.4256V20.1543H99.8914V16.1543ZM92.4256 18.1543V5.06738H88.4256V18.1543H92.4256ZM90.4256 7.06738H99.8914V3.06738H90.4256V7.06738ZM97.8914 5.06738V7.59863H101.891V5.06738H97.8914ZM99.8914 5.59863H93.783V9.59863H99.8914V5.59863ZM91.783 7.59863V9.85742H95.783V7.59863H91.783ZM93.783 11.8574H99.452V7.85742H93.783V11.8574ZM97.452 9.85742V12.3887H101.452V9.85742H97.452ZM99.452 10.3887H93.783V14.3887H99.452V10.3887ZM91.783 12.3887V15.623H95.783V12.3887H91.783ZM93.783 17.623H99.8914V13.623H93.783V17.623ZM97.8914 15.623V18.1543H101.891V15.623H97.8914ZM108.553 13.6016V15.6016C109.658 15.6016 110.553 14.7061 110.553 13.6016H108.553ZM101.847 13.6016H99.8472C99.8472 14.7061 100.743 15.6016 101.847 15.6016V13.6016ZM101.847 11.0703V9.07031C100.743 9.07031 99.8472 9.96574 99.8472 11.0703H101.847ZM108.553 11.0703H110.553C110.553 9.96574 109.658 9.07031 108.553 9.07031V11.0703ZM108.553 11.6016H101.847V15.6016H108.553V11.6016ZM103.847 13.6016V11.0703H99.8472V13.6016H103.847ZM101.847 13.0703H108.553V9.07031H101.847V13.0703ZM106.553 11.0703V13.6016H110.553V11.0703H106.553ZM121.829 15.8428L120.053 14.9234C120.05 14.9289 120.047 14.9344 120.045 14.94L121.829 15.8428ZM120.783 17.082L119.597 15.4719C119.592 15.4753 119.588 15.4786 119.583 15.482L120.783 17.082ZM119.078 17.9082L118.568 15.9745L118.563 15.9757L119.078 17.9082ZM111.019 18.1543H109.019C109.019 19.2589 109.914 20.1543 111.019 20.1543V18.1543ZM111.019 5.06738V3.06738C109.914 3.06738 109.019 3.96281 109.019 5.06738H111.019ZM118.41 5.17285L118.124 7.15227L118.128 7.15275L118.41 5.17285ZM119.869 5.63867L120.772 3.85402L120.764 3.84982L119.869 5.63867ZM120.977 6.6582L119.233 7.63759C119.238 7.64709 119.244 7.65654 119.249 7.66595L120.977 6.6582ZM120.845 9.78711L122.487 10.9287L122.494 10.9193L120.845 9.78711ZM119.43 10.9121L118.621 9.08304C117.897 9.40328 117.43 10.1204 117.43 10.9121H119.43ZM119.43 10.9824H117.43C117.43 11.9368 118.104 12.7582 119.04 12.9441L119.43 10.9824ZM121.46 12.0371L119.999 13.4023L120.007 13.4108L121.46 12.0371ZM117.725 8.11719L115.926 8.99212C115.933 9.00508 115.939 9.01797 115.946 9.0308L117.725 8.11719ZM117.154 7.63379L117.869 5.76607L117.866 5.76481L117.154 7.63379ZM116.231 7.48438L116.166 9.48334C116.177 9.48369 116.188 9.48395 116.199 9.48412L116.231 7.48438ZM114.376 7.4668V5.4668C113.272 5.4668 112.376 6.36223 112.376 7.4668H114.376ZM114.376 10.2354H112.376C112.376 11.3399 113.272 12.2354 114.376 12.2354V10.2354ZM117.154 10.0332L116.344 8.20413C116.336 8.20798 116.327 8.21188 116.319 8.21585L117.154 10.0332ZM117.751 9.51465L119.579 10.3269C119.582 10.3208 119.584 10.3146 119.587 10.3085L117.751 9.51465ZM118.472 13.1357L116.827 14.2742C116.839 14.2903 116.85 14.3063 116.862 14.3221L118.472 13.1357ZM117.654 12.626L117.099 14.5474L117.101 14.5479L117.654 12.626ZM114.376 12.4941V10.4941C113.272 10.4941 112.376 11.3896 112.376 12.4941H114.376ZM114.376 15.7549H112.376C112.376 16.8595 113.272 17.7549 114.376 17.7549V15.7549ZM117.795 15.5176L117.026 13.6714L117.015 13.6761L117.795 15.5176ZM118.516 14.9375L116.762 13.9769C116.759 13.9819 116.756 13.9869 116.753 13.9919L118.516 14.9375ZM120.216 14.1465C120.216 14.5008 120.146 14.7442 120.053 14.9234L123.605 16.7622C124.028 15.9453 124.216 15.0577 124.216 14.1465H120.216ZM120.045 14.94C119.933 15.1613 119.788 15.3312 119.597 15.4719L121.97 18.6921C122.669 18.1766 123.222 17.5203 123.614 16.7456L120.045 14.94ZM119.583 15.482C119.273 15.7147 118.939 15.8765 118.568 15.9745L119.589 19.8419C120.46 19.6118 121.262 19.2228 121.983 18.682L119.583 15.482ZM118.563 15.9757C118.176 16.0788 117.583 16.1543 116.732 16.1543V20.1543C117.779 20.1543 118.75 20.0657 119.594 19.8407L118.563 15.9757ZM116.732 16.1543H111.019V20.1543H116.732V16.1543ZM113.019 18.1543V5.06738H109.019V18.1543H113.019ZM111.019 7.06738H116.099V3.06738H111.019V7.06738ZM116.099 7.06738C117.141 7.06738 117.789 7.10386 118.124 7.15227L118.697 3.19343C118.059 3.10122 117.166 3.06738 116.099 3.06738V7.06738ZM118.128 7.15275C118.39 7.19031 118.671 7.2757 118.975 7.42753L120.764 3.84982C120.106 3.52118 119.415 3.29602 118.693 3.19295L118.128 7.15275ZM118.967 7.42331C119.161 7.52164 119.213 7.60183 119.233 7.63759L122.721 5.67881C122.26 4.8591 121.574 4.25961 120.772 3.85404L118.967 7.42331ZM119.249 7.66595C119.297 7.74764 119.346 7.87563 119.346 8.1084H123.346C123.346 7.25132 123.149 6.41252 122.704 5.65046L119.249 7.66595ZM119.346 8.1084C119.346 8.36786 119.285 8.52638 119.196 8.65489L122.494 10.9193C123.073 10.0752 123.346 9.11456 123.346 8.1084H119.346ZM119.203 8.64557C119.106 8.78475 118.942 8.94088 118.621 9.08304L120.239 12.7412C121.136 12.3443 121.916 11.7504 122.487 10.9287L119.203 8.64557ZM117.43 10.9121V10.9824H121.43V10.9121H117.43ZM119.04 12.9441C119.567 13.0487 119.839 13.2314 119.999 13.4023L122.922 10.6719C122.085 9.77643 121.004 9.25596 119.82 9.02075L119.04 12.9441ZM120.007 13.4108C120.095 13.5039 120.216 13.681 120.216 14.1465H124.216C124.216 12.8658 123.834 11.6367 122.914 10.6634L120.007 13.4108ZM119.892 8.76758C119.892 8.1954 119.742 7.66756 119.504 7.20358L115.946 9.0308C115.93 9.00041 115.892 8.90616 115.892 8.76758H119.892ZM119.523 7.24226C119.149 6.47208 118.507 6.01039 117.869 5.76608L116.438 9.5015C116.403 9.4881 116.315 9.44894 116.211 9.36051C116.101 9.26778 116 9.1426 115.926 8.99212L119.523 7.24226ZM117.866 5.76481C117.334 5.56226 116.778 5.49281 116.262 5.48463L116.199 9.48412C116.304 9.48579 116.375 9.49344 116.419 9.50041C116.462 9.50744 116.466 9.51206 116.442 9.50276L117.866 5.76481ZM116.295 5.48541C115.9 5.47266 115.362 5.4668 114.693 5.4668V9.4668C115.348 9.4668 115.835 9.47265 116.166 9.48334L116.295 5.48541ZM114.693 5.4668H114.376V9.4668H114.693V5.4668ZM112.376 7.4668V10.2354H116.376V7.4668H112.376ZM114.376 12.2354H114.904V8.23535H114.376V12.2354ZM114.904 12.2354C115.456 12.2354 115.943 12.2263 116.359 12.2068L116.172 8.21118C115.838 8.22683 115.417 8.23535 114.904 8.23535V12.2354ZM116.359 12.2068C116.86 12.1833 117.444 12.1009 117.989 11.8506L116.319 8.21585C116.384 8.18556 116.413 8.18353 116.38 8.18995C116.35 8.196 116.283 8.20596 116.172 8.21118L116.359 12.2068ZM117.963 11.8623C118.522 11.6147 119.21 11.1572 119.579 10.3269L115.924 8.70237C116.105 8.29394 116.394 8.18215 116.344 8.20413L117.963 11.8623ZM119.587 10.3085C119.808 9.79799 119.892 9.27068 119.892 8.76758H115.892C115.892 8.79743 115.889 8.80524 115.891 8.79531C115.893 8.78468 115.899 8.75794 115.915 8.72083L119.587 10.3085ZM120.718 14.0938C120.718 13.4547 120.598 12.6499 120.082 11.9493L116.862 14.3221C116.765 14.1914 116.73 14.0819 116.719 14.0398C116.709 14.0011 116.718 14.012 116.718 14.0938H120.718ZM120.116 11.9973C119.6 11.252 118.844 10.8873 118.208 10.704L117.101 14.5479C117.159 14.5647 117.145 14.5681 117.091 14.5339C117.031 14.4968 116.926 14.4163 116.827 14.2742L120.116 11.9973ZM118.21 10.7045C117.696 10.5561 117.127 10.5099 116.59 10.5031L116.539 14.5028C116.721 14.5051 116.859 14.5141 116.96 14.5255C117.064 14.5372 117.105 14.5489 117.099 14.5474L118.21 10.7045ZM116.59 10.5031C116.118 10.4971 115.626 10.4941 115.114 10.4941V14.4941C115.611 14.4941 116.086 14.497 116.539 14.5028L116.59 10.5031ZM115.114 10.4941H114.376V14.4941H115.114V10.4941ZM112.376 12.4941V15.7549H116.376V12.4941H112.376ZM114.376 17.7549H114.622V13.7549H114.376V17.7549ZM114.622 17.7549C115.572 17.7549 116.264 17.752 116.69 17.7459L116.633 13.7463C116.238 13.7519 115.571 13.7549 114.622 13.7549V17.7549ZM116.69 17.7459C117.334 17.7367 117.971 17.6154 118.575 17.3591L117.015 13.6761C116.928 13.7127 116.808 13.7438 116.633 13.7463L116.69 17.7459ZM118.564 17.3637C119.174 17.1096 119.859 16.6634 120.278 15.8831L116.753 13.9919C116.914 13.6921 117.119 13.6326 117.026 13.6714L118.564 17.3637ZM120.27 15.8981C120.586 15.3216 120.718 14.7024 120.718 14.0938H116.718C116.718 14.1096 116.716 14.1016 116.722 14.076C116.729 14.0494 116.741 14.0143 116.762 13.9769L120.27 15.8981ZM134.016 18.1543V20.1543C135.12 20.1543 136.016 19.2589 136.016 18.1543H134.016ZM124.55 18.1543H122.55C122.55 19.2589 123.445 20.1543 124.55 20.1543V18.1543ZM124.55 5.06738V3.06738C123.445 3.06738 122.55 3.96281 122.55 5.06738H124.55ZM134.016 5.06738H136.016C136.016 3.96281 135.12 3.06738 134.016 3.06738V5.06738ZM134.016 7.59863V9.59863C135.12 9.59863 136.016 8.7032 136.016 7.59863H134.016ZM127.907 7.59863V5.59863C126.803 5.59863 125.907 6.49406 125.907 7.59863H127.907ZM127.907 9.85742H125.907C125.907 10.962 126.803 11.8574 127.907 11.8574V9.85742ZM133.576 9.85742H135.576C135.576 8.75285 134.681 7.85742 133.576 7.85742V9.85742ZM133.576 12.3887V14.3887C134.681 14.3887 135.576 13.4932 135.576 12.3887H133.576ZM127.907 12.3887V10.3887C126.803 10.3887 125.907 11.2841 125.907 12.3887H127.907ZM127.907 15.623H125.907C125.907 16.7276 126.803 17.623 127.907 17.623V15.623ZM134.016 15.623H136.016C136.016 14.5185 135.12 13.623 134.016 13.623V15.623ZM134.016 16.1543H124.55V20.1543H134.016V16.1543ZM126.55 18.1543V5.06738H122.55V18.1543H126.55ZM124.55 7.06738H134.016V3.06738H124.55V7.06738ZM132.016 5.06738V7.59863H136.016V5.06738H132.016ZM134.016 5.59863H127.907V9.59863H134.016V5.59863ZM125.907 7.59863V9.85742H129.907V7.59863H125.907ZM127.907 11.8574H133.576V7.85742H127.907V11.8574ZM131.576 9.85742V12.3887H135.576V9.85742H131.576ZM133.576 10.3887H127.907V14.3887H133.576V10.3887ZM125.907 12.3887V15.623H129.907V12.3887H125.907ZM127.907 17.623H134.016V13.623H127.907V17.623ZM132.016 15.623V18.1543H136.016V15.623H132.016ZM147.169 10.9209L149.045 11.6123L149.048 11.606L147.169 10.9209ZM146.29 12.3271L147.696 13.7494L147.704 13.7414L146.29 12.3271ZM144.541 13.4961L143.783 11.645L143.777 11.6474L144.541 13.4961ZM140.049 13.8916V11.8916C138.945 11.8916 138.049 12.787 138.049 13.8916H140.049ZM140.049 18.1543V20.1543C141.154 20.1543 142.049 19.2589 142.049 18.1543H140.049ZM136.674 18.1543H134.674C134.674 19.2589 135.57 20.1543 136.674 20.1543V18.1543ZM136.674 5.06738V3.06738C135.57 3.06738 134.674 3.96281 134.674 5.06738H136.674ZM144.33 5.28711L143.83 7.22382C143.838 7.22583 143.846 7.22779 143.854 7.2297L144.33 5.28711ZM145.85 5.92871L146.947 4.25608L146.944 4.25438L145.85 5.92871ZM147.054 7.25586L145.273 8.16574C145.276 8.17084 145.278 8.17592 145.281 8.18099L147.054 7.25586ZM143.688 8.32812L142.08 9.51691C142.084 9.52256 142.088 9.52819 142.092 9.53379L143.688 8.32812ZM141.965 7.53711L141.86 9.53435C141.872 9.53496 141.884 9.53547 141.895 9.53588L141.965 7.53711ZM140.049 7.51074V5.51074C138.945 5.51074 138.049 6.40617 138.049 7.51074H140.049ZM140.049 11.4307H138.049C138.049 12.5352 138.945 13.4307 140.049 13.4307V11.4307ZM142.431 11.3252L142.063 9.35944L142.057 9.36052L142.431 11.3252ZM143.372 10.9033L144.656 12.4368C144.664 12.43 144.672 12.423 144.68 12.416L143.372 10.9033ZM143.837 10.2354L141.967 9.52855C141.964 9.5363 141.961 9.54408 141.958 9.55187L143.837 10.2354ZM145.476 9.19824C145.476 9.54538 145.416 9.888 145.29 10.2358L149.048 11.606C149.331 10.8288 149.476 10.023 149.476 9.19824H145.476ZM145.292 10.2295C145.177 10.5424 145.032 10.7567 144.875 10.9129L147.704 13.7414C148.309 13.1359 148.75 12.4127 149.045 11.6123L145.292 10.2295ZM144.883 10.905C144.538 11.2465 144.173 11.4857 143.783 11.645L145.298 15.3472C146.197 14.9792 146.998 14.4391 147.696 13.7493L144.883 10.905ZM143.777 11.6474C143.454 11.7808 142.937 11.8916 142.15 11.8916V15.8916C143.274 15.8916 144.35 15.7387 145.304 15.3447L143.777 11.6474ZM142.15 11.8916H140.049V15.8916H142.15V11.8916ZM138.049 13.8916V18.1543H142.049V13.8916H138.049ZM140.049 16.1543H136.674V20.1543H140.049V16.1543ZM138.674 18.1543V5.06738H134.674V18.1543H138.674ZM136.674 7.06738H142.229V3.06738H136.674V7.06738ZM142.229 7.06738C142.957 7.06738 143.477 7.13278 143.83 7.22382L144.829 3.3504C144.045 3.14847 143.166 3.06738 142.229 3.06738V7.06738ZM143.854 7.2297C144.236 7.32324 144.529 7.45424 144.756 7.60304L146.944 4.25438C146.293 3.82896 145.572 3.53223 144.805 3.34451L143.854 7.2297ZM144.754 7.60134C145.003 7.76483 145.163 7.94922 145.273 8.16574L148.835 6.34598C148.395 5.48437 147.752 4.784 146.947 4.25608L144.754 7.60134ZM145.281 8.18099C145.381 8.37328 145.476 8.68763 145.476 9.19824H149.476C149.476 8.19714 149.29 7.21657 148.827 6.33073L145.281 8.18099ZM145.987 9.27734C145.987 8.52659 145.776 7.77377 145.284 7.12246L142.092 9.53379C142.054 9.48254 142.023 9.42276 142.004 9.36376C141.987 9.30708 141.987 9.27376 141.987 9.27734H145.987ZM145.296 7.13934C144.917 6.62553 144.403 6.17532 143.736 5.90867L142.251 9.62258C142.188 9.59723 142.139 9.56572 142.106 9.53938C142.075 9.51432 142.068 9.50147 142.08 9.51691L145.296 7.13934ZM143.736 5.90867C143.199 5.69358 142.629 5.55915 142.036 5.53834L141.895 9.53588C141.97 9.5385 142.086 9.55642 142.251 9.62258L143.736 5.90867ZM142.071 5.53987C141.686 5.51965 141.201 5.51074 140.629 5.51074V9.51074C141.171 9.51074 141.577 9.51941 141.86 9.53435L142.071 5.53987ZM140.629 5.51074H140.049V9.51074H140.629V5.51074ZM138.049 7.51074V11.4307H142.049V7.51074H138.049ZM140.049 13.4307H141.016V9.43066H140.049V13.4307ZM141.016 13.4307C141.658 13.4307 142.266 13.3925 142.805 13.2899L142.057 9.36052C141.858 9.39849 141.523 9.43066 141.016 9.43066V13.4307ZM142.8 13.2909C143.457 13.1677 144.101 12.9012 144.656 12.4368L142.088 9.3698C142.098 9.36149 142.107 9.35485 142.115 9.34988C142.123 9.34494 142.128 9.3426 142.129 9.34219C142.131 9.34129 142.112 9.35021 142.063 9.35945L142.8 13.2909ZM144.68 12.416C145.143 12.0158 145.501 11.5119 145.717 10.9188L141.958 9.55187C141.97 9.51928 141.987 9.48435 142.01 9.45168C142.033 9.4194 142.053 9.39942 142.063 9.39059L144.68 12.416ZM145.708 10.9422C145.916 10.3916 145.987 9.81867 145.987 9.27734H141.987C141.987 9.48602 141.958 9.55174 141.967 9.52855L145.708 10.9422ZM164.198 14.9287L165.762 16.1749L165.764 16.1725L164.198 14.9287ZM164.901 13.5225L166.825 14.0664L166.827 14.061L164.901 13.5225ZM164.865 9.62891L162.951 10.2073C162.953 10.2152 162.956 10.2232 162.958 10.2312L164.865 9.62891ZM163.187 7.51074L162.385 9.34306C162.393 9.34658 162.401 9.35005 162.409 9.35347L163.187 7.51074ZM160.823 7.49316L160.06 5.64439L160.049 5.64878L160.823 7.49316ZM159.821 8.24902L161.326 9.56605L161.332 9.55888L159.821 8.24902ZM159.117 9.61133L157.209 9.01367L157.205 9.0259L159.117 9.61133ZM159.109 13.6104L157.198 14.2C157.199 14.2061 157.201 14.2123 157.203 14.2184L159.109 13.6104ZM159.803 14.9463L161.342 13.6685C161.338 13.6642 161.334 13.6599 161.331 13.6556L159.803 14.9463ZM160.796 15.7109L159.994 17.5433L160.005 17.5478L160.796 15.7109ZM155.461 12.3623L157.455 12.208C157.375 11.1664 156.506 10.3623 155.461 10.3623V12.3623ZM153.071 12.3623V10.3623C151.966 10.3623 151.071 11.2577 151.071 12.3623H153.071ZM153.071 18.1543V20.1543C154.175 20.1543 155.071 19.2589 155.071 18.1543H153.071ZM149.696 18.1543H147.696C147.696 19.2589 148.591 20.1543 149.696 20.1543V18.1543ZM149.696 5.06738V3.06738C148.591 3.06738 147.696 3.96281 147.696 5.06738H149.696ZM153.071 5.06738H155.071C155.071 3.96281 154.175 3.06738 153.071 3.06738V5.06738ZM153.071 9.84863H151.071C151.071 10.9532 151.966 11.8486 153.071 11.8486V9.84863ZM155.593 9.84863V11.8486C156.554 11.8486 157.38 11.1646 157.558 10.2198L155.593 9.84863ZM157.72 6.13965L158.965 7.70459L158.97 7.70059L157.72 6.13965ZM166.869 6.62305L165.428 8.00927L165.431 8.01285L166.869 6.62305ZM168.205 14.3926L170.097 15.0409L170.099 15.0369L168.205 14.3926ZM166.94 16.5371L168.396 17.9083L168.397 17.9074L166.94 16.5371ZM157.412 16.8184L156.047 18.28L156.055 18.2871L157.412 16.8184ZM165.764 16.1725C166.261 15.5467 166.608 14.8343 166.825 14.0664L162.976 12.9785C162.888 13.2887 162.767 13.5138 162.631 13.6849L165.764 16.1725ZM166.827 14.061C167.04 13.298 167.129 12.4705 167.129 11.6064H163.129C163.129 12.2073 163.066 12.657 162.974 12.984L166.827 14.061ZM167.129 11.6064C167.129 10.6991 167.025 9.8271 166.773 9.02664L162.958 10.2312C163.057 10.544 163.129 10.9904 163.129 11.6064H167.129ZM166.78 9.05055C166.555 8.3071 166.22 7.59291 165.719 6.9888L162.641 9.5444C162.714 9.6317 162.836 9.82571 162.951 10.2073L166.78 9.05055ZM165.719 6.9888C165.248 6.42263 164.664 5.96337 163.964 5.66801L162.409 9.35347C162.459 9.37452 162.537 9.41917 162.641 9.5444L165.719 6.9888ZM163.988 5.67843C163.356 5.40193 162.688 5.26465 162 5.26465V9.26465C162.145 9.26465 162.267 9.29143 162.385 9.34306L163.988 5.67843ZM162 5.26465C161.334 5.26465 160.681 5.38805 160.06 5.64442L161.585 9.34191C161.703 9.29359 161.835 9.26465 162 9.26465V5.26465ZM160.049 5.64878C159.355 5.93985 158.779 6.39685 158.309 6.93916L161.332 9.55888C161.471 9.39807 161.563 9.35117 161.596 9.33755L160.049 5.64878ZM158.315 6.93201C157.788 7.53455 157.443 8.26598 157.209 9.01368L161.026 10.209C161.155 9.79652 161.279 9.61975 161.326 9.56603L158.315 6.93201ZM157.205 9.0259C156.958 9.83278 156.854 10.7057 156.854 11.6152H160.854C160.854 11.0014 160.925 10.5383 161.03 10.1968L157.205 9.0259ZM156.854 11.6152C156.854 12.529 156.952 13.4044 157.198 14.2L161.02 13.0208C160.925 12.7147 160.854 12.26 160.854 11.6152H156.854ZM157.203 14.2184C157.436 14.9479 157.776 15.6463 158.275 16.237L161.331 13.6556C161.256 13.5666 161.133 13.3744 161.014 13.0023L157.203 14.2184ZM158.264 16.2241C158.731 16.7857 159.307 17.2424 159.995 17.5433L161.598 13.8786C161.535 13.8513 161.449 13.7983 161.342 13.6685L158.264 16.2241ZM160.005 17.5478C160.64 17.8214 161.311 17.957 162 17.957V13.957C161.846 13.957 161.714 13.9286 161.587 13.8741L160.005 17.5478ZM162 17.957C162.701 17.957 163.384 17.8159 164.028 17.5286L162.398 13.8757C162.28 13.9282 162.155 13.957 162 13.957V17.957ZM164.028 17.5286C164.719 17.2203 165.299 16.7558 165.762 16.1749L162.633 13.6826C162.545 13.793 162.469 13.8442 162.398 13.8757L164.028 17.5286ZM155.461 10.3623H153.071V14.3623H155.461V10.3623ZM151.071 12.3623V18.1543H155.071V12.3623H151.071ZM153.071 16.1543H149.696V20.1543H153.071V16.1543ZM151.696 18.1543V5.06738H147.696V18.1543H151.696ZM149.696 7.06738H153.071V3.06738H149.696V7.06738ZM151.071 5.06738V9.84863H155.071V5.06738H151.071ZM153.071 11.8486H155.593V7.84863H153.071V11.8486ZM157.558 10.2198C157.78 9.04593 158.269 8.25872 158.965 7.70458L156.475 4.57472C154.933 5.80182 154.004 7.48728 153.628 9.47742L157.558 10.2198ZM158.97 7.70059C159.661 7.14711 160.625 6.79492 162.027 6.79492V2.79492C159.924 2.79492 158.017 3.33921 156.47 4.57871L158.97 7.70059ZM162.027 6.79492C163.665 6.79492 164.712 7.26521 165.428 8.00926L168.311 5.23683C166.683 3.54339 164.501 2.79492 162.027 2.79492V6.79492ZM165.431 8.01285C166.165 8.77262 166.636 9.89097 166.636 11.6152H170.636C170.636 9.12075 169.929 6.91097 168.308 5.23324L165.431 8.01285ZM166.636 11.6152C166.636 12.4322 166.52 13.1372 166.312 13.7483L170.099 15.0369C170.465 13.9604 170.636 12.8139 170.636 11.6152H166.636ZM166.313 13.7443C166.11 14.3378 165.828 14.8001 165.483 15.1668L168.397 17.9074C169.165 17.0905 169.727 16.1231 170.097 15.0409L166.313 13.7443ZM165.484 15.1659C165.123 15.549 164.679 15.8556 164.122 16.0813L165.626 19.7878C166.687 19.3573 167.62 18.7322 168.396 17.9083L165.484 15.1659ZM164.122 16.0813C163.604 16.2917 162.921 16.4268 162.027 16.4268V20.4268C163.312 20.4268 164.527 20.2337 165.626 19.7878L164.122 16.0813ZM162.027 16.4268C160.501 16.4268 159.485 16.0107 158.77 15.3496L156.055 18.2871C157.66 19.7705 159.72 20.4268 162.027 20.4268V16.4268ZM158.778 15.3567C158.06 14.6868 157.571 13.7078 157.455 12.208L153.467 12.5166C153.644 14.802 154.456 16.7937 156.047 18.28L158.778 15.3567Z" fill="black"/>
<path d="M163.908 9.91808L163.908 9.91811L163.912 9.93004C164.049 10.3648 164.129 10.9176 164.129 11.6064C164.129 12.2724 164.059 12.8161 163.938 13.2518C163.818 13.6755 163.64 14.0217 163.415 14.3061C163.233 14.5339 163.031 14.6883 162.805 14.7889C162.556 14.9001 162.291 14.957 162 14.957C161.713 14.957 161.447 14.9022 161.194 14.7937C160.976 14.6979 160.769 14.5443 160.572 14.3074L160.572 14.3074L160.567 14.3009C160.386 14.0872 160.21 13.7699 160.063 13.311C159.931 12.8832 159.854 12.3247 159.854 11.6152C159.854 10.929 159.933 10.3645 160.072 9.90712C160.228 9.4126 160.406 9.09806 160.573 8.90753L160.576 8.90395C160.797 8.64884 161.009 8.4996 161.206 8.41641C161.449 8.31681 161.71 8.26465 162 8.26465C162.28 8.26465 162.539 8.31906 162.786 8.4269L162.786 8.42698L162.798 8.43211C163.01 8.52173 163.215 8.67003 163.41 8.9055C163.59 9.122 163.765 9.44606 163.908 9.91808ZM153.07 19.1543C153.623 19.1543 154.07 18.7066 154.07 18.1543V13.3623H154.577C154.861 15.0436 155.564 16.4608 156.73 17.5492L156.733 17.5527C158.116 18.8306 159.915 19.4268 162.026 19.4268C163.214 19.4268 164.296 19.2482 165.25 18.8612C166.185 18.4819 166.995 17.9364 167.667 17.2227L167.668 17.2222C168.33 16.5179 168.822 15.6768 169.151 14.7167L169.152 14.7147C169.478 13.7546 169.636 12.7185 169.636 11.6152C169.636 9.31384 168.988 7.37728 167.589 5.92915C166.189 4.4736 164.291 3.79492 162.026 3.79492C160.1 3.79492 158.429 4.29088 157.096 5.35818C155.974 6.25121 155.216 7.43005 154.804 8.84863H154.07V5.06738C154.07 4.5151 153.623 4.06738 153.07 4.06738H149.695C149.143 4.06738 148.695 4.5151 148.695 5.06738V18.1543C148.695 18.7066 149.143 19.1543 149.695 19.1543H153.07Z" fill="white" stroke="black" stroke-width="2" stroke-linejoin="round"/>
<path d="M148.108 11.2666L148.109 11.2634C148.354 10.5936 148.478 9.90358 148.478 9.19824C148.478 8.32132 148.315 7.50864 147.944 6.7971C147.587 6.0985 147.065 5.52841 146.4 5.0924L146.4 5.0924L146.399 5.09154C145.855 4.73631 145.243 4.48146 144.575 4.31724C143.9 4.1441 143.112 4.06738 142.23 4.06738H136.676C136.123 4.06738 135.676 4.5151 135.676 5.06738V18.1543C135.676 18.7066 136.123 19.1543 136.676 19.1543H140.051C140.603 19.1543 141.051 18.7066 141.051 18.1543V14.8916H142.151C143.19 14.8916 144.126 14.7494 144.922 14.421C145.694 14.1052 146.385 13.6405 146.994 13.0382L146.998 13.0343C147.491 12.5411 147.858 11.9451 148.108 11.2666ZM142.885 8.92252L142.885 8.92255L142.892 8.93096C142.944 9.00081 142.988 9.09901 142.988 9.27734C142.988 9.56918 142.949 9.76171 142.903 9.88195L142.903 9.88192L142.899 9.89361C142.867 9.98181 142.815 10.0622 142.725 10.1416C142.625 10.2239 142.478 10.2993 142.248 10.3423L142.248 10.3423L142.246 10.3429C141.967 10.3959 141.575 10.4293 141.051 10.4306V8.51265C141.402 8.51604 141.689 8.52389 141.914 8.53573L141.932 8.53649C142.136 8.54367 142.365 8.59071 142.624 8.6941C142.686 8.71898 142.776 8.77513 142.885 8.92252Z" fill="white" stroke="black" stroke-width="2" stroke-linejoin="round"/>
<path d="M134.017 19.1543C134.569 19.1543 135.017 18.7066 135.017 18.1543V15.623C135.017 15.0708 134.569 14.623 134.017 14.623H128.908V13.3887H133.577C134.129 13.3887 134.577 12.941 134.577 12.3887V9.85742C134.577 9.30514 134.129 8.85742 133.577 8.85742H128.908V8.59863H134.017C134.569 8.59863 135.017 8.15092 135.017 7.59863V5.06738C135.017 4.5151 134.569 4.06738 134.017 4.06738H124.551C123.998 4.06738 123.551 4.5151 123.551 5.06738V18.1543C123.551 18.7066 123.998 19.1543 124.551 19.1543H134.017Z" fill="white" stroke="black" stroke-width="2" stroke-linejoin="round"/>
<path d="M110.02 18.1543C110.02 18.7066 110.467 19.1543 111.02 19.1543H116.732C117.73 19.1543 118.606 19.0691 119.336 18.8747C120.08 18.6779 120.764 18.3467 121.381 17.8845C121.951 17.4639 122.399 16.9316 122.72 16.2983C123.059 15.6419 123.217 14.9169 123.217 14.1465C123.217 13.0706 122.9 12.1053 122.19 11.3524C121.953 11.0994 121.69 10.8814 121.403 10.6964C121.497 10.589 121.585 10.4762 121.667 10.3579L121.67 10.3532C122.127 9.68798 122.347 8.92789 122.347 8.1084C122.347 7.41015 122.188 6.75148 121.845 6.1613C121.495 5.54116 120.969 5.07385 120.322 4.74635L120.322 4.74634L120.317 4.74424C119.749 4.45994 119.16 4.26976 118.553 4.18302C117.991 4.10185 117.16 4.06738 116.1 4.06738H111.02C110.467 4.06738 110.02 4.5151 110.02 5.06738V18.1543ZM116.826 8.55465L116.828 8.55731L116.826 8.55465ZM116.797 8.56796C116.819 8.57614 116.834 8.58328 116.843 8.58852C116.885 8.67362 116.893 8.73054 116.893 8.76758C116.893 8.89934 116.876 8.99494 116.854 9.06385C116.834 9.07684 116.801 9.09599 116.75 9.11867L116.737 9.12453C116.684 9.14875 116.532 9.19545 116.22 9.21008C115.978 9.22142 115.697 9.22905 115.377 9.23276V8.46932C115.711 8.47203 115.984 8.47692 116.199 8.48386L116.216 8.48425C116.511 8.48893 116.694 8.52871 116.797 8.56796ZM117.379 13.5869C117.579 13.6448 117.644 13.7009 117.654 13.7104C117.659 13.7167 117.663 13.7228 117.668 13.7289C117.667 13.7276 117.666 13.7269 117.666 13.7269C117.666 13.7271 117.719 13.8148 117.719 14.0938C117.719 14.264 117.684 14.3763 117.64 14.4572L117.639 14.4572L117.638 14.4598C117.628 14.4715 117.576 14.526 117.411 14.5945L117.411 14.5945L117.406 14.5968C117.19 14.6884 116.941 14.742 116.648 14.7462C116.362 14.7503 115.939 14.7529 115.377 14.7541V13.4944C115.783 13.4953 116.175 13.4981 116.553 13.5028C116.978 13.5082 117.239 13.5466 117.378 13.5867L117.379 13.5869ZM117.64 14.4575C117.64 14.4575 117.64 14.4579 117.639 14.4587L117.64 14.4575Z" fill="white" stroke="black" stroke-width="2" stroke-linejoin="round"/>
<path d="M108.554 14.6016C109.106 14.6016 109.554 14.1538 109.554 13.6016V11.0703C109.554 10.518 109.106 10.0703 108.554 10.0703H101.848C101.295 10.0703 100.848 10.518 100.848 11.0703V13.6016C100.848 14.1538 101.295 14.6016 101.848 14.6016H108.554Z" fill="white" stroke="black" stroke-width="2" stroke-linejoin="round"/>
<path d="M99.8916 19.1543C100.444 19.1543 100.892 18.7066 100.892 18.1543V15.623C100.892 15.0708 100.444 14.623 99.8916 14.623H94.7832V13.3887H99.4521C100.004 13.3887 100.452 12.941 100.452 12.3887V9.85742C100.452 9.30514 100.004 8.85742 99.4521 8.85742H94.7832V8.59863H99.8916C100.444 8.59863 100.892 8.15092 100.892 7.59863V5.06738C100.892 4.5151 100.444 4.06738 99.8916 4.06738H90.4258C89.8735 4.06738 89.4258 4.5151 89.4258 5.06738V18.1543C89.4258 18.7066 89.8735 19.1543 90.4258 19.1543H99.8916Z" fill="white" stroke="black" stroke-width="2" stroke-linejoin="round"/>
<path d="M87.2568 19.1543C87.8091 19.1543 88.2568 18.7066 88.2568 18.1543V5.06738C88.2568 4.5151 87.8091 4.06738 87.2568 4.06738H83.8818C83.3296 4.06738 82.8818 4.5151 82.8818 5.06738V8.85742H79.8984V5.06738C79.8984 4.5151 79.4507 4.06738 78.8984 4.06738H75.5234C74.9712 4.06738 74.5234 4.5151 74.5234 5.06738V18.1543C74.5234 18.7066 74.9712 19.1543 75.5234 19.1543H78.8984C79.4507 19.1543 79.8984 18.7066 79.8984 18.1543V13.3887H82.8818V18.1543C82.8818 18.7066 83.3296 19.1543 83.8818 19.1543H87.2568Z" fill="white" stroke="black" stroke-width="2" stroke-linejoin="round"/>
<path d="M73.0576 14.6016C73.6099 14.6016 74.0576 14.1538 74.0576 13.6016V11.0703C74.0576 10.518 73.6099 10.0703 73.0576 10.0703H66.3516C65.7993 10.0703 65.3516 10.518 65.3516 11.0703V13.6016C65.3516 14.1538 65.7993 14.6016 66.3516 14.6016H73.0576Z" fill="white" stroke="black" stroke-width="2" stroke-linejoin="round"/>
<path d="M59.9314 9.91808L59.9313 9.91811L59.9351 9.93004C60.0724 10.3648 60.1523 10.9176 60.1523 11.6064C60.1523 12.2724 60.0828 12.8161 59.9611 13.2518C59.8413 13.6755 59.6638 14.0217 59.4382 14.3061C59.2566 14.5339 59.0545 14.6883 58.8289 14.7889C58.5796 14.9001 58.3145 14.957 58.0234 14.957C57.7362 14.957 57.4706 14.9022 57.2177 14.7937C56.9999 14.6979 56.7922 14.5443 56.5955 14.3074L56.5955 14.3074L56.5901 14.3009C56.4095 14.0872 56.233 13.7699 56.086 13.311C55.9547 12.8832 55.877 12.3247 55.877 11.6152C55.877 10.929 55.9563 10.3645 56.0959 9.90712C56.2511 9.4126 56.4296 9.09806 56.5963 8.90753L56.5994 8.90395C56.8205 8.64884 57.0328 8.4996 57.2299 8.41641C57.4723 8.31681 57.7338 8.26465 58.0234 8.26465C58.3038 8.26465 58.5626 8.31906 58.8091 8.4269L58.8091 8.42698L58.8213 8.43211C59.0337 8.52173 59.2383 8.67003 59.4338 8.9055C59.6136 9.122 59.7888 9.44606 59.9314 9.91808ZM49.0938 19.1543C49.646 19.1543 50.0938 18.7066 50.0938 18.1543V13.3623H50.5999C50.8847 15.0436 51.5877 16.4608 52.753 17.5492L52.7568 17.5527C54.1394 18.8306 55.9386 19.4268 58.0498 19.4268C59.2376 19.4268 60.3198 19.2482 61.2735 18.8612C62.2082 18.4819 63.0187 17.9364 63.6909 17.2227L63.6913 17.2222C64.3538 16.5179 64.8456 15.6768 65.1745 14.7167L65.1752 14.7147C65.5019 13.7546 65.6592 12.7185 65.6592 11.6152C65.6592 9.31384 65.0115 7.37728 63.6127 5.92915C62.2126 4.4736 60.3149 3.79492 58.0498 3.79492C56.1231 3.79492 54.4523 4.29088 53.1192 5.35818C51.9976 6.25121 51.2397 7.43005 50.8275 8.84863H50.0938V5.06738C50.0938 4.5151 49.646 4.06738 49.0938 4.06738H45.7188C45.1665 4.06738 44.7188 4.5151 44.7188 5.06738V18.1543C44.7188 18.7066 45.1665 19.1543 45.7188 19.1543H49.0938Z" fill="white" stroke="black" stroke-width="2" stroke-linejoin="round"/>
<path d="M44.1317 11.2666L44.1329 11.2634C44.3771 10.5936 44.501 9.90358 44.501 9.19824C44.501 8.32132 44.338 7.50864 43.9677 6.7971C43.6099 6.0985 43.0884 5.52841 42.4233 5.0924L42.4233 5.0924L42.4219 5.09154C41.8782 4.73631 41.2663 4.48146 40.5982 4.31724C39.9236 4.1441 39.1356 4.06738 38.2539 4.06738H32.6992C32.1469 4.06738 31.6992 4.5151 31.6992 5.06738V18.1543C31.6992 18.7066 32.1469 19.1543 32.6992 19.1543H36.0742C36.6265 19.1543 37.0742 18.7066 37.0742 18.1543V14.8916H38.1748C39.2135 14.8916 40.1494 14.7494 40.9455 14.421C41.717 14.1052 42.4084 13.6405 43.0176 13.0382L43.0216 13.0343C43.5147 12.5411 43.8817 11.9451 44.1317 11.2666ZM38.9087 8.92252L38.9087 8.92255L38.915 8.93096C38.9678 9.00081 39.0117 9.09901 39.0117 9.27734C39.0117 9.56918 38.9723 9.76171 38.9268 9.88195L38.9268 9.88192L38.9225 9.89361C38.8904 9.98181 38.8385 10.0622 38.7485 10.1416C38.648 10.2239 38.501 10.2993 38.2718 10.3423L38.2718 10.3423L38.2689 10.3429C37.9906 10.3959 37.5981 10.4293 37.0742 10.4306V8.51265C37.4257 8.51604 37.7127 8.52389 37.9377 8.53573L37.9552 8.53649C38.1595 8.54367 38.3887 8.59071 38.6472 8.6941C38.7094 8.71898 38.7998 8.77513 38.9087 8.92252Z" fill="white" stroke="black" stroke-width="2" stroke-linejoin="round"/>
<path d="M30.04 19.1543C30.5923 19.1543 31.04 18.7066 31.04 18.1543V15.623C31.04 15.0708 30.5923 14.623 30.04 14.623H24.9316V13.3887H29.6006C30.1529 13.3887 30.6006 12.941 30.6006 12.3887V9.85742C30.6006 9.30514 30.1529 8.85742 29.6006 8.85742H24.9316V8.59863H30.04C30.5923 8.59863 31.04 8.15092 31.04 7.59863V5.06738C31.04 4.5151 30.5923 4.06738 30.04 4.06738H20.5742C20.0219 4.06738 19.5742 4.5151 19.5742 5.06738V18.1543C19.5742 18.7066 20.0219 19.1543 20.5742 19.1543H30.04Z" fill="white" stroke="black" stroke-width="2" stroke-linejoin="round"/>
<path d="M6.04297 18.1543C6.04297 18.7066 6.49068 19.1543 7.04297 19.1543H12.7559C13.7535 19.1543 14.6298 19.0691 15.3592 18.8747C16.1034 18.6779 16.7872 18.3467 17.4044 17.8845C17.974 17.4639 18.4226 16.9316 18.7438 16.2983C19.0826 15.6419 19.2402 14.9169 19.2402 14.1465C19.2402 13.0706 18.9236 12.1053 18.2132 11.3524C17.9766 11.0994 17.7133 10.8814 17.4267 10.6964C17.5201 10.589 17.608 10.4762 17.6902 10.3579L17.6935 10.3532C18.1503 9.68798 18.3701 8.92789 18.3701 8.1084C18.3701 7.41015 18.2113 6.75148 17.8688 6.1613C17.5185 5.54116 16.9923 5.07385 16.345 4.74635L16.345 4.74634L16.3408 4.74424C15.7722 4.45994 15.1833 4.26976 14.5768 4.18302C14.0148 4.10185 13.1837 4.06738 12.123 4.06738H7.04297C6.49068 4.06738 6.04297 4.5151 6.04297 5.06738V18.1543ZM12.8498 8.55465L12.8511 8.55731L12.8498 8.55465ZM12.8209 8.56796C12.8422 8.57614 12.857 8.58328 12.8667 8.58852C12.9082 8.67362 12.916 8.73054 12.916 8.76758C12.916 8.89934 12.8991 8.99494 12.8775 9.06385C12.8577 9.07684 12.8245 9.09599 12.7732 9.11867L12.7602 9.12453C12.7075 9.14875 12.5552 9.19545 12.2432 9.21008C12.0013 9.22142 11.7206 9.22905 11.4004 9.23276V8.46932C11.734 8.47203 12.0076 8.47692 12.2226 8.48386L12.239 8.48425C12.5342 8.48893 12.7175 8.52871 12.8209 8.56796ZM13.4021 13.5869C13.6029 13.6448 13.6677 13.7009 13.6777 13.7104C13.6821 13.7167 13.6865 13.7228 13.691 13.7289C13.69 13.7276 13.6896 13.7269 13.6895 13.7269C13.6892 13.7271 13.7422 13.8148 13.7422 14.0938C13.7422 14.264 13.7072 14.3763 13.6629 14.4572L13.6629 14.4572L13.6615 14.4598C13.6517 14.4715 13.5991 14.526 13.4347 14.5945L13.4347 14.5945L13.4292 14.5968C13.2131 14.6884 12.9642 14.742 12.6713 14.7462C12.3852 14.7503 11.9621 14.7529 11.4004 14.7541V13.4944C11.8065 13.4953 12.1984 13.4981 12.5762 13.5028C13.0018 13.5082 13.2625 13.5466 13.4012 13.5867L13.4021 13.5869ZM13.6633 14.4575C13.6633 14.4575 13.663 14.4579 13.6624 14.4587L13.6633 14.4575Z" fill="white" stroke="black" stroke-width="2" stroke-linejoin="round"/>
</svg>
