<svg width="280" height="190" viewBox="0 0 280 190" fill="none" xmlns="http://www.w3.org/2000/svg">
<path d="M6.69531 4.10382H3.40717L3.47163 7.39133C4.55439 62.6145 18.0918 107.251 43.1467 138.145C68.2821 169.139 104.733 185.954 150.786 185.954H155.911H159.135V182.73V123.726C188.991 128.474 211.795 152.431 221.232 183.663L221.925 185.954H224.319H271.249H275.413L274.371 181.923C262.144 134.62 231.42 106.896 209.635 94.4797C230.873 79.6293 257.727 48.7786 264.514 7.85569L265.136 4.10382H261.333H218.7H216.221L215.584 6.49875C211.089 23.3832 202.167 39.5252 191.221 51.7736C181.319 62.8553 170.022 70.4699 159.135 72.8741V7.32812V4.10382H155.911H113.276H110.052V7.32812V124.422C86.1396 115.567 56.5889 82.6067 55.1956 7.2685L55.1371 4.10382H51.9719H6.69531Z" fill="#FBF448" stroke="black" stroke-width="6.44861"/>
</svg>
