<svg width="230" height="220" viewBox="0 0 230 220" fill="none" xmlns="http://www.w3.org/2000/svg">
<path d="M136.397 35.5895L136.393 35.5913C117.031 44.9206 78.5007 64.1359 20.6776 93.0265C15.9437 95.2655 12.109 97.5449 9.34364 99.9243C6.6048 102.281 4.55863 105.046 4.17439 108.288L4.17157 108.312L4.16911 108.336C3.88416 111.09 4.53997 113.524 6.00809 115.603C7.40886 117.586 9.42509 119.072 11.5924 120.28C14.8781 122.11 19.25 123.669 23.8272 125.302C25.1232 125.764 26.4357 126.233 27.7446 126.714C32.9156 128.633 38.9474 130.707 44.6089 132.329C50.1853 133.927 55.6889 135.174 59.6837 135.281C67.2181 135.502 75.0578 131.947 83.2521 125.467C110.272 104.458 130.714 88.6374 144.625 78.0231C151.584 72.7133 156.893 68.7184 160.569 66.0318C162.41 64.6859 163.817 63.6867 164.805 63.0199C165.303 62.6841 165.661 62.4558 165.897 62.3159C165.926 62.2991 165.951 62.2844 165.973 62.2717C166.198 62.2094 166.391 62.1608 166.57 62.1252C166.655 62.1083 166.73 62.096 166.793 62.0872C166.811 62.1548 166.827 62.2321 166.84 62.3186C166.867 62.4909 166.878 62.656 166.879 62.7865C166.815 62.8998 166.719 63.0584 166.582 63.2676C166.223 63.8157 165.685 64.5561 164.964 65.4851C163.528 67.3352 161.497 69.768 159.038 72.6103C154.127 78.2862 147.625 85.4657 141.04 92.6267C133.374 100.962 125.545 109.325 120.071 115.173C116.202 119.306 113.509 122.183 112.879 122.907L112.864 122.924L112.849 122.942C111.485 124.558 110.091 126.104 108.707 127.629C108.564 127.787 108.421 127.945 108.278 128.102C107.049 129.455 105.824 130.803 104.688 132.126C102.185 135.039 99.8369 138.127 98.5615 141.46C97.2218 144.962 97.0817 148.694 98.8748 152.622C100.591 156.381 103.962 160.062 109.068 163.914C116.644 169.668 122.864 174.549 129.01 179.372C136.475 185.23 143.831 191.003 153.377 198.151C155.578 199.815 157.68 201.535 159.785 203.258C160.266 203.651 160.747 204.045 161.229 204.438C163.793 206.527 166.387 208.595 169.032 210.373C174.324 213.931 180.172 216.575 187.036 215.898L187.051 215.896L187.065 215.895C190.882 215.483 194.349 213.212 197.126 208.961C199.848 204.795 202.015 198.593 203.455 189.821L203.456 189.82C210.064 149.523 222.97 61.7892 225.964 25.4889C226.328 22.0763 225.965 17.7969 225.6 15.6942C225.27 13.7951 224.66 10.3426 221.844 7.64349L221.821 7.62076L221.797 7.59853C218.399 4.47121 213.721 4.08429 211.844 4.08429H211.803L211.762 4.08534C207.391 4.1971 202.154 5.60732 191.428 10.0858C180.635 14.5923 163.907 22.3781 136.397 35.5895ZM166.956 62.641C166.961 62.6281 166.964 62.6215 166.964 62.6217C166.965 62.6218 166.962 62.6282 166.956 62.641Z" fill="#FBF448" stroke="black" stroke-width="6.44861"/>
</svg>
