<svg width="2060" height="1080" viewBox="0 0 2060 1080" fill="none" xmlns="http://www.w3.org/2000/svg">
<path d="M1875.4 988.969H1791.94V593.797H1875.4V670.23H1821.54V738.437H1871.52V814.87H1821.54V912.535H1875.4V988.969Z" fill="black"/>
<path d="M1775.64 670.23H1739.6V988.969H1709.85V670.23H1673.82V593.797H1775.64V670.23Z" fill="black"/>
<path d="M1624.26 996.661C1615.69 996.661 1607.76 992.326 1600.47 983.656C1593.24 974.987 1587.02 962.071 1581.8 944.909C1576.58 927.747 1572.53 906.338 1569.63 880.683C1566.79 855.029 1565.37 825.393 1565.37 791.776C1565.37 760.46 1566.74 732.063 1569.48 706.585C1572.22 681.107 1576.19 659.256 1581.41 641.032C1586.42 623.516 1592.62 609.981 1600.01 600.427C1607.45 590.873 1615.56 586.096 1624.34 586.096C1629.2 586.096 1633.56 587.069 1637.44 589.015C1641.36 590.784 1644.98 593.173 1648.28 596.181C1651.75 599.542 1654.87 603.346 1657.66 607.593C1660.5 611.662 1662.98 615.466 1665.1 619.005V714.812H1661.69C1660.24 710.566 1658.41 705.523 1656.19 699.684C1654.02 693.846 1651.54 688.096 1648.75 682.434C1645.91 676.772 1642.83 671.995 1639.53 668.103C1636.22 664.21 1632.68 662.264 1628.91 662.264C1624.73 662.264 1620.75 664.564 1616.98 669.164C1613.21 673.587 1609.72 681.018 1606.52 691.457C1603.47 701.542 1600.99 714.9 1599.08 731.532C1597.22 748.163 1596.29 768.333 1596.29 792.042C1596.29 816.812 1597.3 837.513 1599.31 854.144C1601.38 870.775 1603.96 883.868 1607.06 893.422C1610.21 903.153 1613.72 910.142 1617.6 914.388C1621.47 918.458 1625.3 920.492 1629.07 920.492C1632.68 920.492 1636.25 918.635 1639.76 914.919C1643.32 911.204 1646.61 906.161 1649.6 899.792C1652.13 894.661 1654.48 889.176 1656.65 883.337C1658.82 877.499 1660.6 872.456 1662 868.21H1665.1V962.69C1662.21 967.113 1659.44 971.271 1656.81 975.164C1654.17 979.056 1651.41 982.418 1648.52 985.249C1644.75 988.964 1641.21 991.795 1637.9 993.741C1634.59 995.688 1630.05 996.661 1624.26 996.661Z" fill="black"/>
<path d="M1548.66 988.969H1465.2V593.797H1548.66V670.23H1494.8V738.437H1544.78V814.87H1494.8V912.535H1548.66V988.969Z" fill="black"/>
<path d="M1437.3 988.969H1407.7V724.371L1386.32 896.081H1365.78L1344.39 724.371V988.969H1316.34V593.797H1350.9L1376.86 792.046L1402.74 593.797H1437.3V988.969Z" fill="black"/>
<path d="M1235.72 988.969H1206.12V724.371L1184.73 896.081H1164.2L1142.81 724.371V988.969H1114.76V593.797H1149.32L1175.28 792.046L1201.16 593.797H1235.72V988.969Z" fill="black"/>
<path d="M1093.57 791.512C1093.57 854.499 1088.3 904.57 1077.76 941.725C1067.22 978.704 1052.65 997.193 1034.06 997.193C1015.51 997.193 1000.97 978.704 990.429 941.725C979.89 904.57 974.621 854.499 974.621 791.512C974.621 727.995 979.89 677.835 990.429 641.034C1000.97 604.056 1015.51 585.566 1034.06 585.566C1052.55 585.566 1067.09 604.056 1077.68 641.034C1088.27 677.835 1093.57 727.995 1093.57 791.512ZM1054.12 891.566C1057.02 879.535 1059.16 865.38 1060.56 849.103C1061.95 832.648 1062.65 813.363 1062.65 791.247C1062.65 767.538 1061.85 747.368 1060.25 730.737C1058.64 714.106 1056.55 700.659 1053.97 690.397C1051.34 679.781 1048.29 672.085 1044.83 667.308C1041.42 662.531 1037.85 660.142 1034.13 660.142C1030.36 660.142 1026.8 662.442 1023.44 667.042C1020.13 671.643 1017.09 679.251 1014.3 689.866C1011.71 699.774 1009.59 713.486 1007.94 731.002C1006.34 748.342 1005.54 768.511 1005.54 791.512C1005.54 815.044 1006.31 835.125 1007.86 851.757C1009.47 868.211 1011.56 881.658 1014.14 892.097C1016.72 902.536 1019.75 910.232 1023.21 915.186C1026.67 920.14 1030.31 922.617 1034.13 922.617C1037.96 922.617 1041.6 920.14 1045.06 915.186C1048.52 910.055 1051.54 902.182 1054.12 891.566Z" fill="black"/>
<path d="M953.416 988.969H923.661V814.87H879.724V988.969H849.969V593.797H879.724V738.437H923.661V593.797H953.416V988.969Z" fill="black"/>
<path d="M831.269 1079.73H803.915V987.642H733.865V1079.73H706.512V912.27H715.268C721.26 869.276 725.832 820.797 728.984 766.834C732.186 712.87 733.788 655.191 733.788 593.797H819.878V912.27H831.269V1079.73ZM790.122 912.27V670.23H761.296C760.315 718.355 758.248 762.853 755.097 803.724C751.998 844.417 748.227 880.6 743.784 912.27H790.122Z" fill="black"/>
<path d="M696.762 791.512C696.762 854.499 691.493 904.57 680.954 941.725C670.416 978.704 655.848 997.193 637.25 997.193C618.705 997.193 604.163 978.704 593.624 941.725C583.086 904.57 577.816 854.499 577.816 791.512C577.816 727.995 583.086 677.835 593.624 641.034C604.163 604.056 618.705 585.566 637.25 585.566C655.744 585.566 670.286 604.056 680.877 641.034C691.467 677.835 696.762 727.995 696.762 791.512ZM657.32 891.566C660.213 879.535 662.357 865.38 663.752 849.103C665.146 832.648 665.844 813.363 665.844 791.247C665.844 767.538 665.043 747.368 663.442 730.737C661.84 714.106 659.748 700.659 657.165 690.397C654.53 679.781 651.482 672.085 648.021 667.308C644.612 662.531 641.047 660.142 637.328 660.142C633.557 660.142 629.992 662.442 626.634 667.042C623.328 671.643 620.28 679.251 617.491 689.866C614.908 699.774 612.79 713.486 611.137 731.002C609.535 748.342 608.734 768.511 608.734 791.512C608.734 815.044 609.509 835.125 611.059 851.757C612.661 868.211 614.753 881.658 617.336 892.097C619.919 902.536 622.941 910.232 626.402 915.186C629.863 920.14 633.505 922.617 637.328 922.617C641.151 922.617 644.793 920.14 648.254 915.186C651.715 910.055 654.737 902.182 657.32 891.566Z" fill="black"/>
<path d="M511.342 867.949C511.342 887.057 510.205 904.131 507.932 919.17C505.711 934.209 502.637 946.683 498.711 956.591C494.165 968.268 489.154 976.584 483.678 981.538C478.254 986.492 471.358 988.969 462.989 988.969H412.621V593.797H457.41C466.708 593.797 473.502 594.858 477.789 596.982C482.129 599.105 486.416 603.793 490.652 611.047C495.043 618.655 498.298 628.917 500.416 641.833C502.586 654.572 503.67 669.169 503.67 685.623C503.67 704.732 502.198 721.628 499.254 736.314C496.309 750.822 492.15 762.145 486.778 770.284V772.407C494.32 777.538 500.287 788.154 504.678 804.254C509.121 820.355 511.342 841.587 511.342 867.949ZM473.217 705.528C473.217 698.981 472.727 692.435 471.745 685.889C470.815 679.342 469.136 674.477 466.708 671.292C464.539 668.461 461.827 666.957 458.572 666.78C455.369 666.426 450.849 666.25 445.011 666.25H442.222V749.849H446.871C451.572 749.849 455.576 749.583 458.882 749.053C462.188 748.522 464.797 746.752 466.708 743.745C469.395 739.675 471.151 734.456 471.978 728.086C472.804 721.54 473.217 714.02 473.217 705.528ZM480.501 866.357C480.501 853.795 479.778 844.152 478.332 837.429C476.937 830.529 474.535 825.398 471.125 822.036C468.801 819.736 465.598 818.497 461.517 818.32C457.435 818.143 453.174 818.055 448.731 818.055H442.222V916.516H444.392C452.76 916.516 458.753 916.428 462.369 916.251C465.985 916.074 469.317 913.774 472.365 909.351C475.465 904.927 477.583 899.089 478.719 891.835C479.907 884.404 480.501 875.911 480.501 866.357Z" fill="black"/>
<path d="M332.589 988.969H303.608V725.963L255.72 988.969H227.359V593.797H256.34V831.856L300.896 593.797H332.589V988.969Z" fill="black"/>
<path d="M211.027 670.23H174.995V988.969H145.239V670.23H109.207V593.797H211.027V670.23Z" fill="black"/>
<path d="M59.6571 996.661C51.0817 996.661 43.152 992.326 35.8681 983.656C28.6358 974.987 22.4108 962.071 17.1933 944.909C11.9757 927.747 7.92043 906.338 5.02751 880.683C2.18625 855.029 0.765625 825.393 0.765625 791.776C0.765625 760.46 2.13459 732.063 4.87253 706.585C7.61047 681.107 11.5882 659.256 16.8058 641.032C21.8168 623.516 28.0159 609.981 35.4031 600.427C42.8421 590.873 50.9526 586.096 59.7346 586.096C64.5906 586.096 68.9558 587.069 72.8302 589.015C76.7563 590.784 80.3725 593.173 83.6787 596.181C87.1399 599.542 90.2652 603.346 93.0548 607.593C95.8961 611.662 98.3757 615.466 100.494 619.005V714.812H97.0843C95.6378 710.566 93.8039 705.523 91.5825 699.684C89.4129 693.846 86.9332 688.096 84.1436 682.434C81.3024 676.772 78.2286 671.995 74.9225 668.103C71.6163 664.21 68.0776 662.264 64.3065 662.264C60.1221 662.264 56.1443 664.564 52.3732 669.164C48.6021 673.587 45.1151 681.018 41.9122 691.457C38.8643 701.542 36.3847 714.9 34.4733 731.532C32.6135 748.163 31.6837 768.333 31.6837 792.042C31.6837 816.812 32.691 837.513 34.7057 854.144C36.7721 870.775 39.3551 883.868 42.4546 893.422C45.6058 903.153 49.1187 910.142 52.9931 914.388C56.8675 918.458 60.6903 920.492 64.4615 920.492C68.0776 920.492 71.6421 918.635 75.1549 914.919C78.7194 911.204 81.9998 906.161 84.996 899.792C87.5273 894.661 89.8778 889.176 92.0475 883.337C94.2172 877.499 95.9994 872.456 97.3942 868.21H100.494V962.69C97.6009 967.113 94.8371 971.271 92.2025 975.164C89.5678 979.056 86.8041 982.418 83.9112 985.249C80.14 988.964 76.6014 991.795 73.2952 993.741C69.989 995.688 65.443 996.661 59.6571 996.661Z" fill="black"/>
<path d="M2059.15 388.639H2000.02V312.205H2059.15V388.639Z" fill="black"/>
<path d="M1985.05 328.672C1985.05 391.659 1979.78 441.73 1969.24 478.886C1958.7 515.864 1944.13 534.353 1925.54 534.353C1906.99 534.353 1892.45 515.864 1881.91 478.886C1871.37 441.73 1866.1 391.659 1866.1 328.672C1866.1 265.155 1871.37 214.995 1881.91 178.194C1892.45 141.216 1906.99 122.727 1925.54 122.727C1944.03 122.727 1958.57 141.216 1969.16 178.194C1979.75 214.995 1985.05 265.155 1985.05 328.672ZM1945.61 428.726C1948.5 416.695 1950.64 402.541 1952.04 386.263C1953.43 369.809 1954.13 350.523 1954.13 328.407C1954.13 304.699 1953.33 284.529 1951.73 267.897C1950.13 251.266 1948.03 237.819 1945.45 227.557C1942.82 216.942 1939.77 209.245 1936.31 204.468C1932.9 199.691 1929.33 197.302 1925.61 197.302C1921.84 197.302 1918.28 199.602 1914.92 204.203C1911.61 208.803 1908.57 216.411 1905.78 227.026C1903.19 236.935 1901.07 250.647 1899.42 268.163C1897.82 285.502 1897.02 305.672 1897.02 328.672C1897.02 352.204 1897.79 372.286 1899.34 388.917C1900.95 405.371 1903.04 418.818 1905.62 429.257C1908.2 439.696 1911.23 447.392 1914.69 452.346C1918.15 457.3 1921.79 459.777 1925.61 459.777C1929.44 459.777 1933.08 457.3 1936.54 452.346C1940 447.215 1943.02 439.342 1945.61 428.726Z" fill="black"/>
<path d="M1852.28 405.117C1852.28 424.225 1851.14 441.299 1848.87 456.338C1846.64 471.377 1843.57 483.851 1839.64 493.759C1835.1 505.436 1830.09 513.752 1824.61 518.706C1819.19 523.66 1812.29 526.137 1803.92 526.137H1753.55V130.965H1798.34C1807.64 130.965 1814.44 132.026 1818.72 134.15C1823.06 136.273 1827.35 140.961 1831.59 148.215C1835.98 155.823 1839.23 166.085 1841.35 179.001C1843.52 191.74 1844.6 206.337 1844.6 222.791C1844.6 241.9 1843.13 258.796 1840.19 273.482C1837.24 287.99 1833.08 299.313 1827.71 307.452V309.575C1835.25 314.706 1841.22 325.322 1845.61 341.422C1850.05 357.523 1852.28 378.755 1852.28 405.117ZM1814.15 242.696C1814.15 236.149 1813.66 229.603 1812.68 223.057C1811.75 216.51 1810.07 211.645 1807.64 208.46C1805.47 205.629 1802.76 204.125 1799.51 203.948C1796.3 203.594 1791.78 203.417 1785.95 203.417H1783.16V287.017H1787.8C1792.51 287.017 1796.51 286.751 1799.82 286.22C1803.12 285.69 1805.73 283.92 1807.64 280.913C1810.33 276.843 1812.08 271.624 1812.91 265.254C1813.74 258.708 1814.15 251.188 1814.15 242.696ZM1821.44 403.525C1821.44 390.963 1820.71 381.32 1819.27 374.597C1817.87 367.697 1815.47 362.566 1812.06 359.204C1809.73 356.904 1806.53 355.665 1802.45 355.488C1798.37 355.311 1794.11 355.223 1789.66 355.223H1783.16V453.684H1785.33C1793.69 453.684 1799.69 453.596 1803.3 453.419C1806.92 453.242 1810.25 450.942 1813.3 446.519C1816.4 442.095 1818.52 436.257 1819.65 429.003C1820.84 421.572 1821.44 413.079 1821.44 403.525Z" fill="black"/>
<path d="M1732.33 328.672C1732.33 391.659 1727.06 441.73 1716.52 478.886C1705.98 515.864 1691.41 534.353 1672.82 534.353C1654.27 534.353 1639.73 515.864 1629.19 478.886C1618.65 441.73 1613.38 391.659 1613.38 328.672C1613.38 265.155 1618.65 214.995 1629.19 178.194C1639.73 141.216 1654.27 122.727 1672.82 122.727C1691.31 122.727 1705.85 141.216 1716.44 178.194C1727.03 214.995 1732.33 265.155 1732.33 328.672ZM1692.89 428.726C1695.78 416.695 1697.92 402.541 1699.32 386.263C1700.71 369.809 1701.41 350.523 1701.41 328.407C1701.41 304.699 1700.61 284.529 1699.01 267.897C1697.41 251.266 1695.31 237.819 1692.73 227.557C1690.1 216.942 1687.05 209.245 1683.59 204.468C1680.18 199.691 1676.61 197.302 1672.89 197.302C1669.12 197.302 1665.56 199.602 1662.2 204.203C1658.89 208.803 1655.85 216.411 1653.06 227.026C1650.47 236.935 1648.36 250.647 1646.7 268.163C1645.1 285.502 1644.3 305.672 1644.3 328.672C1644.3 352.204 1645.08 372.286 1646.63 388.917C1648.23 405.371 1650.32 418.818 1652.9 429.257C1655.49 439.696 1658.51 447.392 1661.97 452.346C1665.43 457.3 1669.07 459.777 1672.89 459.777C1676.72 459.777 1680.36 457.3 1683.82 452.346C1687.28 447.215 1690.3 439.342 1692.89 428.726Z" fill="black"/>
<path d="M1592.19 526.137H1562.44V352.038H1518.5V526.137H1488.75V130.965H1518.5V275.605H1562.44V130.965H1592.19V526.137Z" fill="black"/>
<path d="M1412.67 526.137H1329.22V130.965H1412.67V207.398H1358.82V275.605H1408.8V352.038H1358.82V449.703H1412.67V526.137Z" fill="black"/>
<path d="M1229.84 402.198C1229.84 395.651 1229.64 389.459 1229.22 383.62C1228.81 377.781 1227.91 372.385 1226.51 367.431C1225.12 362.654 1223.2 358.85 1220.78 356.019C1218.35 353.188 1214.99 351.773 1210.7 351.773H1191.95V452.357H1210.7C1213.96 452.357 1216.88 450.942 1219.46 448.111C1222.09 445.28 1224.11 441.653 1225.5 437.23C1226.9 432.983 1227.96 427.941 1228.68 422.102C1229.46 416.087 1229.84 409.452 1229.84 402.198ZM1260.61 399.278C1260.61 418.564 1259.52 436.345 1257.35 452.623C1255.23 468.723 1252.31 481.904 1248.6 492.166C1243.89 505.082 1238.99 514.017 1233.87 518.971C1228.81 523.748 1222.66 526.137 1215.43 526.137H1162.2V130.965H1191.95V278.259H1215.9C1223.9 278.259 1230.46 280.293 1235.58 284.363C1240.74 288.255 1245.29 295.509 1249.22 306.125C1253.19 316.741 1256.09 330.187 1257.89 346.465C1259.7 362.566 1260.61 380.17 1260.61 399.278ZM1301.37 526.137H1271.61V130.965H1301.37V526.137Z" fill="black"/>
<path d="M1141.63 405.117C1141.63 424.225 1140.49 441.299 1138.22 456.338C1136 471.377 1132.93 483.851 1129 493.759C1124.45 505.436 1119.44 513.752 1113.97 518.706C1108.54 523.66 1101.65 526.137 1093.28 526.137H1042.91V130.965H1087.7C1097 130.965 1103.79 132.026 1108.08 134.15C1112.42 136.273 1116.71 140.961 1120.94 148.215C1125.33 155.823 1128.59 166.085 1130.71 179.001C1132.87 191.74 1133.96 206.337 1133.96 222.791C1133.96 241.9 1132.49 258.796 1129.54 273.482C1126.6 287.99 1122.44 299.313 1117.07 307.452V309.575C1124.61 314.706 1130.58 325.322 1134.97 341.422C1139.41 357.523 1141.63 378.755 1141.63 405.117ZM1103.51 242.696C1103.51 236.149 1103.02 229.603 1102.03 223.057C1101.1 216.51 1099.43 211.645 1097 208.46C1094.83 205.629 1092.12 204.125 1088.86 203.948C1085.66 203.594 1081.14 203.417 1075.3 203.417H1072.51V287.017H1077.16C1081.86 287.017 1085.86 286.751 1089.17 286.22C1092.48 285.69 1095.09 283.92 1097 280.913C1099.68 276.843 1101.44 271.624 1102.27 265.254C1103.09 258.708 1103.51 251.188 1103.51 242.696ZM1110.79 403.525C1110.79 390.963 1110.07 381.32 1108.62 374.597C1107.23 367.697 1104.82 362.566 1101.41 359.204C1099.09 356.904 1095.89 355.665 1091.81 355.488C1087.72 355.311 1083.46 355.223 1079.02 355.223H1072.51V453.684H1074.68C1083.05 453.684 1089.04 453.596 1092.66 453.419C1096.27 453.242 1099.61 450.942 1102.65 446.519C1105.75 442.095 1107.87 436.257 1109.01 429.003C1110.2 421.572 1110.79 413.079 1110.79 403.525Z" fill="black"/>
<path d="M1021.68 328.672C1021.68 391.659 1016.41 441.73 1005.88 478.886C995.337 515.864 980.77 534.353 962.172 534.353C943.627 534.353 929.085 515.864 918.546 478.886C908.008 441.73 902.738 391.659 902.738 328.672C902.738 265.155 908.008 214.995 918.546 178.194C929.085 141.216 943.627 122.727 962.172 122.727C980.666 122.727 995.208 141.216 1005.8 178.194C1016.39 214.995 1021.68 265.155 1021.68 328.672ZM982.242 428.726C985.135 416.695 987.279 402.541 988.673 386.263C990.068 369.809 990.766 350.523 990.766 328.407C990.766 304.699 989.965 284.529 988.363 267.897C986.762 251.266 984.67 237.819 982.087 227.557C979.452 216.942 976.404 209.245 972.943 204.468C969.534 199.691 965.969 197.302 962.25 197.302C958.479 197.302 954.914 199.602 951.556 204.203C948.25 208.803 945.202 216.411 942.413 227.026C939.83 236.935 937.712 250.647 936.059 268.163C934.457 285.502 933.656 305.672 933.656 328.672C933.656 352.204 934.431 372.286 935.981 388.917C937.582 405.371 939.675 418.818 942.258 429.257C944.841 439.696 947.863 447.392 951.324 452.346C954.785 457.3 958.427 459.777 962.25 459.777C966.073 459.777 969.715 457.3 973.176 452.346C976.637 447.215 979.659 439.342 982.242 428.726Z" fill="black"/>
<path d="M896.3 526.126H859.803L825.708 366.624H818.424V526.126H788.668V130.954H818.424V292.049C820.852 291.695 822.866 290.899 824.468 289.66C826.069 288.245 827.542 285.856 828.885 282.494C830.279 278.956 831.778 273.736 833.379 266.836C834.98 259.759 836.659 251.09 838.416 240.828C839.501 234.458 840.715 226.939 842.058 218.269C843.453 209.423 844.615 202.169 845.545 196.507C849.523 172.621 853.707 155.636 858.098 145.551C862.489 135.289 869.127 130.158 878.013 130.158C880.647 130.158 882.998 130.335 885.064 130.689C887.13 130.866 888.654 130.954 889.636 130.954V216.677H881.035C876.799 216.677 873.492 220.392 871.116 227.823C868.791 235.254 866.208 248.347 863.367 267.102C860.526 285.679 858.201 298.772 856.393 306.38C854.585 313.811 852.829 319.119 851.124 322.304L896.3 526.126Z" fill="black"/>
<path d="M761.222 526.125H732.241V263.119L684.353 526.125H655.992V130.953H684.973V369.012L729.529 130.953H761.222V526.125ZM750.296 0.644531C750.244 33.5534 746.603 59.3851 739.37 78.1396C732.138 96.8942 721.935 106.271 708.762 106.271C695.589 106.271 685.386 96.8942 678.154 78.1396C670.922 59.3851 667.28 33.5534 667.228 0.644531H693.264C693.368 19.9298 694.556 33.9073 696.829 42.5768C699.102 51.0694 703.08 55.3157 708.762 55.3157C714.445 55.3157 718.422 50.981 720.695 42.3114C722.968 33.6419 724.157 19.7529 724.26 0.644531H750.296Z" fill="black"/>
<path d="M632.569 526.137H549.113V130.965H632.569V207.398H578.714V275.605H628.694V352.038H578.714V449.703H632.569V526.137Z" fill="black"/>
<path d="M514.576 211.09C519.122 224.183 522.609 240.372 525.037 259.658C527.517 278.766 528.757 300.705 528.757 325.475C528.757 349.892 527.491 371.742 524.96 391.028C522.428 410.313 518.786 426.767 514.034 440.391C509.178 454.015 503.573 464.63 497.219 472.238C490.916 479.846 483.581 484.623 475.212 486.57V529.829H445.611V486.57C437.501 484.623 430.165 479.846 423.604 472.238C417.044 464.453 411.413 453.749 406.712 440.126C402.011 426.502 398.395 410.136 395.863 391.028C393.332 371.919 392.066 350.069 392.066 325.475C392.066 300.705 393.28 279.031 395.708 260.454C398.136 241.876 401.649 225.864 406.247 212.417C410.741 199.502 416.372 189.24 423.139 181.632C429.907 173.847 437.397 168.893 445.611 166.77V126.43H475.212V166.77C483.736 168.362 491.252 172.874 497.761 180.305C504.322 187.559 509.927 197.821 514.576 211.09ZM497.994 323.883C497.994 298.405 496.031 277.704 492.105 261.781C488.178 245.857 482.548 236.214 475.212 232.853V420.752C483.736 415.621 489.651 405.271 492.957 389.701C496.315 373.954 497.994 352.015 497.994 323.883ZM445.611 420.752V232.853C438.069 236.745 432.386 246.299 428.564 261.515C424.741 276.554 422.83 297.344 422.83 323.883C422.83 351.661 424.534 373.512 427.944 389.435C431.405 405.182 437.294 415.621 445.611 420.752Z" fill="black"/>
<path d="M323.498 526.137H240.043V130.965H323.498V207.398H269.644V275.605H319.624V352.038H269.644V449.703H323.498V526.137Z" fill="black"/>
<path d="M178.958 533.827C170.382 533.827 162.453 529.492 155.169 520.822C147.937 512.153 141.712 499.237 136.494 482.075C131.276 464.913 127.221 443.504 124.328 417.849C121.487 392.195 120.066 362.559 120.066 328.942C120.066 297.626 121.435 269.229 124.173 243.751C126.911 218.273 130.889 196.422 136.107 178.198C141.118 160.682 147.317 147.147 154.704 137.593C162.143 128.039 170.253 123.262 179.035 123.262C183.891 123.262 188.257 124.235 192.131 126.181C196.057 127.95 199.673 130.339 202.979 133.347C206.441 136.708 209.566 140.512 212.356 144.759C215.197 148.828 217.677 152.632 219.795 156.171V251.978H216.385C214.939 247.732 213.105 242.689 210.883 236.85C208.714 231.012 206.234 225.262 203.444 219.6C200.603 213.938 197.529 209.161 194.223 205.269C190.917 201.376 187.378 199.43 183.607 199.43C179.423 199.43 175.445 201.73 171.674 206.33C167.903 210.753 164.416 218.184 161.213 228.623C158.165 238.708 155.685 252.066 153.774 268.698C151.914 285.329 150.984 305.499 150.984 329.208C150.984 353.978 151.992 374.679 154.007 391.31C156.073 407.941 158.656 421.034 161.755 430.588C164.907 440.319 168.419 447.308 172.294 451.554C176.168 455.624 179.991 457.658 183.762 457.658C187.378 457.658 190.943 455.801 194.456 452.085C198.02 448.37 201.301 443.327 204.297 436.958C206.828 431.827 209.179 426.342 211.348 420.503C213.518 414.665 215.3 409.622 216.695 405.376H219.795V499.856C216.902 504.279 214.138 508.437 211.503 512.33C208.869 516.222 206.105 519.584 203.212 522.415C199.441 526.13 195.902 528.961 192.596 530.907C189.29 532.853 184.744 533.827 178.958 533.827Z" fill="black"/>
<path d="M106.236 405.117C106.236 424.225 105.1 441.299 102.827 456.338C100.606 471.377 97.5318 483.851 93.6057 493.759C89.0597 505.436 84.0488 513.752 78.5729 518.706C73.1487 523.66 66.2522 526.137 57.8834 526.137H7.51562V130.965H52.3042C61.6028 130.965 68.396 132.026 72.6837 134.15C77.0231 136.273 81.3108 140.961 85.5469 148.215C89.9379 155.823 93.1925 166.085 95.3105 179.001C97.4802 191.74 98.565 206.337 98.565 222.791C98.565 241.9 97.0927 258.796 94.1482 273.482C91.2036 287.99 87.045 299.313 81.6725 307.452V309.575C89.2147 314.706 95.1813 325.322 99.5724 341.422C104.015 357.523 106.236 378.755 106.236 405.117ZM68.1119 242.696C68.1119 236.149 67.6211 229.603 66.6396 223.057C65.7097 216.51 64.0308 211.645 61.6028 208.46C59.4332 205.629 56.721 204.125 53.4665 203.948C50.2636 203.594 45.7435 203.417 39.906 203.417H37.1164V287.017H41.7657C46.4667 287.017 50.4703 286.751 53.7765 286.22C57.0827 285.69 59.6915 283.92 61.6028 280.913C64.2891 276.843 66.0455 271.624 66.8721 265.254C67.6986 258.708 68.1119 251.188 68.1119 242.696ZM75.3959 403.525C75.3959 390.963 74.6726 381.32 73.2262 374.597C71.8314 367.697 69.4292 362.566 66.0197 359.204C63.695 356.904 60.4922 355.665 56.4111 355.488C52.33 355.311 48.0681 355.223 43.6254 355.223H37.1164V453.684H39.2861C47.6548 453.684 53.6473 453.596 57.2635 453.419C60.8796 453.242 64.2116 450.942 67.2595 446.519C70.3591 442.095 72.4771 436.257 73.6136 429.003C74.8018 421.572 75.3959 413.079 75.3959 403.525Z" fill="black"/>
</svg>
