<svg width="71" height="18" viewBox="0 0 71 18" fill="none" xmlns="http://www.w3.org/2000/svg">
<path d="M58.6528 11.8037L58.6528 11.8037L58.6474 11.8054C58.4703 11.862 58.2447 11.8984 57.959 11.8984H56.832V10.5674H57.959C58.399 10.5674 58.6542 10.6121 58.7793 10.6547C58.9401 10.7094 59.0124 10.7629 59.0396 10.7881C59.0626 10.8129 59.0744 10.8308 59.0801 10.8407C59.0861 10.851 59.0873 10.8561 59.0877 10.8577C59.1143 10.9673 59.1299 11.0928 59.1299 11.2373C59.1299 11.353 59.1094 11.4334 59.0831 11.4928L59.0775 11.5059C59.0538 11.5617 59.0216 11.6071 58.9733 11.6501L58.9583 11.6637C58.9467 11.6745 58.8693 11.7357 58.6528 11.8037ZM62.8826 14.9968L62.8842 14.9956C63.2762 14.6797 63.6033 14.3036 63.8672 13.8749V15.3418C63.8672 15.8941 64.3149 16.3418 64.8672 16.3418H68.2422C68.7945 16.3418 69.2422 15.8941 69.2422 15.3418V2.25488C69.2422 1.7026 68.7945 1.25488 68.2422 1.25488H64.8672C64.3149 1.25488 63.8672 1.7026 63.8672 2.25488V8.27939C63.622 7.89524 63.3135 7.55696 62.9443 7.26879C62.3756 6.82046 61.7225 6.51917 61.0009 6.35959C60.3198 6.20203 59.4943 6.13281 58.5479 6.13281H56.832V2.25488C56.832 1.7026 56.3843 1.25488 55.832 1.25488H52.457C51.9047 1.25488 51.457 1.7026 51.457 2.25488V15.3418C51.457 15.8941 51.9047 16.3418 52.457 16.3418H58.4951C59.374 16.3418 60.1662 16.2577 60.8525 16.0686L60.8525 16.0686L60.8591 16.0667C61.5842 15.8617 62.2588 15.4972 62.8826 14.9968Z" fill="white" stroke="black" stroke-width="2" stroke-linejoin="round"/>
<path d="M50.6074 5.78613C51.1597 5.78613 51.6074 5.33842 51.6074 4.78613V2.25488C51.6074 1.7026 51.1597 1.25488 50.6074 1.25488H39.0586C38.5063 1.25488 38.0586 1.7026 38.0586 2.25488V4.78613C38.0586 5.33842 38.5063 5.78613 39.0586 5.78613H42.1455V15.3418C42.1455 15.8941 42.5932 16.3418 43.1455 16.3418H46.5205C47.0728 16.3418 47.5205 15.8941 47.5205 15.3418V5.78613H50.6074Z" fill="white" stroke="black" stroke-width="2" stroke-linejoin="round"/>
<path d="M30.411 16.1106L30.4089 16.1099C29.4614 15.7783 28.6297 15.2776 27.9284 14.6041C27.22 13.9237 26.6833 13.087 26.3084 12.1161L26.3062 12.1105L26.3062 12.1105C25.9325 11.1253 25.7578 10.0196 25.7578 8.81152C25.7578 7.67437 25.9282 6.61476 26.2852 5.64483C26.6414 4.67703 27.1659 3.83032 27.8629 3.11948L30.411 16.1106ZM30.411 16.1106C31.3539 16.4383 32.3655 16.5967 33.4375 16.5967C34.1161 16.5967 34.6969 16.5641 35.1538 16.4855C35.57 16.414 36.0071 16.3115 36.4639 16.1801C36.8311 16.0751 37.185 15.9496 37.525 15.803C37.8281 15.6722 38.1454 15.5328 38.477 15.3848C38.8373 15.224 39.0693 14.8663 39.0693 14.4717V11.3428C39.0693 10.7905 38.6216 10.3428 38.0693 10.3428H37.7178C37.4729 10.3428 37.2365 10.4327 37.0534 10.5954C36.9156 10.7179 36.7304 10.8713 36.4935 11.0574C36.2841 11.222 36.054 11.3791 35.8022 11.5281L35.7842 11.539C35.5221 11.7017 35.2301 11.8338 34.9042 11.933L34.9041 11.933L34.9002 11.9342C34.5958 12.0282 34.2909 12.0742 33.9824 12.0742C33.663 12.0742 33.3302 12.0244 32.9809 11.9179C32.6845 11.8222 32.4111 11.6651 32.156 11.435L32.1553 11.4344C31.9376 11.2385 31.7209 10.9385 31.5294 10.4897C31.3674 10.0971 31.2646 9.55281 31.2646 8.82031C31.2646 8.12167 31.3589 7.58347 31.5133 7.17823C31.6885 6.73467 31.8969 6.42452 32.117 6.21099C32.3864 5.95524 32.6591 5.79162 32.9353 5.69704L32.9353 5.69711L32.9468 5.69301C33.2621 5.58074 33.5993 5.52246 33.9648 5.52246C34.2907 5.52246 34.5814 5.57129 34.8439 5.66151C35.1596 5.77004 35.4471 5.90101 35.7086 6.0528C35.9922 6.22106 36.2352 6.38652 36.4408 6.54804L36.4407 6.54809L36.4498 6.55503C36.6934 6.74199 36.8862 6.89709 37.0318 7.02195C37.2131 7.1773 37.4439 7.2627 37.6826 7.2627H38.0693C38.6216 7.2627 39.0693 6.81498 39.0693 6.2627V3.08984C39.0693 2.70754 38.8514 2.35869 38.5078 2.19108C38.2485 2.06461 37.9523 1.93207 37.6213 1.79349C37.2577 1.63256 36.8612 1.4928 36.4349 1.37192L36.4188 1.3675C35.9986 1.25587 35.5481 1.16944 35.0693 1.10618C34.5741 1.03399 34.0317 1 33.4463 1C32.3429 1 31.3027 1.17556 30.3354 1.53828L30.3354 1.53828M30.411 16.1106L30.3354 1.53828M30.3354 1.53828L30.3333 1.53909M30.3354 1.53828L30.3333 1.53909M30.3333 1.53909C29.3736 1.90148 28.5433 2.42512 27.8631 3.1192L30.3333 1.53909Z" fill="white" stroke="black" stroke-width="2" stroke-linejoin="round"/>
<path d="M24.8643 16.3418C25.4165 16.3418 25.8643 15.8941 25.8643 15.3418V12.8105C25.8643 12.2583 25.4165 11.8105 24.8643 11.8105H19.7559V10.5762H24.4248C24.9771 10.5762 25.4248 10.1285 25.4248 9.57617V7.04492C25.4248 6.49264 24.9771 6.04492 24.4248 6.04492H19.7559V5.78613H24.8643C25.4165 5.78613 25.8643 5.33842 25.8643 4.78613V2.25488C25.8643 1.7026 25.4165 1.25488 24.8643 1.25488H15.3984C14.8462 1.25488 14.3984 1.7026 14.3984 2.25488V15.3418C14.3984 15.8941 14.8462 16.3418 15.3984 16.3418H24.8643Z" fill="white" stroke="black" stroke-width="2" stroke-linejoin="round"/>
<path d="M13.5488 5.78613C14.1011 5.78613 14.5488 5.33842 14.5488 4.78613V2.25488C14.5488 1.7026 14.1011 1.25488 13.5488 1.25488H2C1.44772 1.25488 1 1.7026 1 2.25488V4.78613C1 5.33842 1.44772 5.78613 2 5.78613H5.08691V15.3418C5.08691 15.8941 5.53463 16.3418 6.08691 16.3418H9.46191C10.0142 16.3418 10.4619 15.8941 10.4619 15.3418V5.78613H13.5488Z" fill="white" stroke="black" stroke-width="2" stroke-linejoin="round"/>
<path d="M58.6528 12.0593L58.6528 12.0593L58.6474 12.061C58.4703 12.1177 58.2447 12.1541 57.959 12.1541H56.832V10.823H57.959C58.399 10.823 58.6542 10.8677 58.7793 10.9103C58.9401 10.965 59.0124 11.0185 59.0396 11.0437C59.0626 11.0685 59.0744 11.0864 59.0801 11.0963C59.0861 11.1066 59.0873 11.1117 59.0877 11.1133C59.1143 11.223 59.1299 11.3485 59.1299 11.4929C59.1299 11.6086 59.1094 11.689 59.0831 11.7485L59.0775 11.7615C59.0538 11.8173 59.0216 11.8627 58.9733 11.9057L58.9583 11.9193C58.9467 11.9301 58.8693 11.9914 58.6528 12.0593ZM62.8826 15.2524L62.8842 15.2512C63.2762 14.9353 63.6033 14.5592 63.8672 14.1306V15.5974C63.8672 16.1497 64.3149 16.5974 64.8672 16.5974H68.2422C68.7945 16.5974 69.2422 16.1497 69.2422 15.5974V2.5105C69.2422 1.95821 68.7945 1.5105 68.2422 1.5105H64.8672C64.3149 1.5105 63.8672 1.95821 63.8672 2.5105V8.53501C63.622 8.15086 63.3135 7.81257 62.9443 7.5244C62.3756 7.07607 61.7225 6.77479 61.0009 6.61521C60.3198 6.45764 59.4943 6.38843 58.5479 6.38843H56.832V2.5105C56.832 1.95821 56.3843 1.5105 55.832 1.5105H52.457C51.9047 1.5105 51.457 1.95821 51.457 2.5105V15.5974C51.457 16.1497 51.9047 16.5974 52.457 16.5974H58.4951C59.374 16.5974 60.1662 16.5133 60.8525 16.3242L60.8525 16.3242L60.8591 16.3224C61.5842 16.1173 62.2588 15.7528 62.8826 15.2524Z" fill="white" stroke="black" stroke-width="2" stroke-linejoin="round"/>
<path d="M50.6074 6.04175C51.1597 6.04175 51.6074 5.59403 51.6074 5.04175V2.5105C51.6074 1.95821 51.1597 1.5105 50.6074 1.5105H39.0586C38.5063 1.5105 38.0586 1.95821 38.0586 2.5105V5.04175C38.0586 5.59403 38.5063 6.04175 39.0586 6.04175H42.1455V15.5974C42.1455 16.1497 42.5932 16.5974 43.1455 16.5974H46.5205C47.0728 16.5974 47.5205 16.1497 47.5205 15.5974V6.04175H50.6074Z" fill="white" stroke="black" stroke-width="2" stroke-linejoin="round"/>
<path d="M30.411 16.3662L30.4089 16.3655C29.4614 16.0339 28.6297 15.5332 27.9284 14.8597C27.22 14.1793 26.6833 13.3427 26.3084 12.3717L26.3062 12.3661L26.3062 12.3661C25.9325 11.3809 25.7578 10.2752 25.7578 9.06714C25.7578 7.92998 25.9282 6.87037 26.2852 5.90045C26.6414 4.93264 27.1659 4.08594 27.8629 3.3751L30.411 16.3662ZM30.411 16.3662C31.3539 16.6939 32.3655 16.8523 33.4375 16.8523C34.1161 16.8523 34.6969 16.8197 35.1538 16.7412C35.57 16.6696 36.0071 16.5671 36.4639 16.4357C36.8311 16.3307 37.185 16.2052 37.525 16.0586C37.8281 15.9279 38.1454 15.7885 38.477 15.6404C38.8373 15.4796 39.0693 15.1219 39.0693 14.7273V11.5984C39.0693 11.0461 38.6216 10.5984 38.0693 10.5984H37.7178C37.4729 10.5984 37.2365 10.6883 37.0534 10.851C36.9156 10.9735 36.7304 11.1269 36.4935 11.313C36.2841 11.4776 36.054 11.6347 35.8022 11.7837L35.7842 11.7946C35.5221 11.9573 35.2301 12.0894 34.9042 12.1886L34.9041 12.1886L34.9002 12.1898C34.5958 12.2838 34.2909 12.3298 33.9824 12.3298C33.663 12.3298 33.3302 12.28 32.9809 12.1735C32.6845 12.0778 32.4111 11.9207 32.156 11.6907L32.1553 11.6901C31.9376 11.4941 31.7209 11.1941 31.5294 10.7454C31.3674 10.3528 31.2646 9.80842 31.2646 9.07593C31.2646 8.37728 31.3589 7.83908 31.5133 7.43385C31.6885 6.99029 31.8969 6.68014 32.117 6.4666C32.3864 6.21086 32.6591 6.04724 32.9353 5.95265L32.9353 5.95272L32.9468 5.94863C33.2621 5.83636 33.5993 5.77808 33.9648 5.77808C34.2907 5.77808 34.5814 5.8269 34.8439 5.91712C35.1596 6.02566 35.4471 6.15662 35.7086 6.30842C35.9922 6.47667 36.2352 6.64214 36.4408 6.80365L36.4407 6.8037L36.4498 6.81064C36.6934 6.9976 36.8862 7.15271 37.0318 7.27757C37.2131 7.43292 37.4439 7.51831 37.6826 7.51831H38.0693C38.6216 7.51831 39.0693 7.0706 39.0693 6.51831V3.34546C39.0693 2.96315 38.8514 2.6143 38.5078 2.44669C38.2485 2.32023 37.9523 2.18769 37.6213 2.04911C37.2577 1.88818 36.8612 1.74841 36.4349 1.62754L36.4188 1.62311C35.9986 1.51149 35.5481 1.42506 35.0693 1.3618C34.5741 1.2896 34.0317 1.25562 33.4463 1.25562C32.3429 1.25562 31.3027 1.43117 30.3354 1.7939L30.3354 1.79389M30.411 16.3662L30.3354 1.79389M30.3354 1.79389L30.3333 1.7947M30.3354 1.79389L30.3333 1.7947M30.3333 1.7947C29.3736 2.1571 28.5433 2.68073 27.8631 3.37481L30.3333 1.7947Z" fill="white" stroke="black" stroke-width="2" stroke-linejoin="round"/>
<path d="M24.8643 16.5974C25.4165 16.5974 25.8643 16.1497 25.8643 15.5974V13.0662C25.8643 12.5139 25.4165 12.0662 24.8643 12.0662H19.7559V10.8318H24.4248C24.9771 10.8318 25.4248 10.3841 25.4248 9.83179V7.30054C25.4248 6.74825 24.9771 6.30054 24.4248 6.30054H19.7559V6.04175H24.8643C25.4165 6.04175 25.8643 5.59403 25.8643 5.04175V2.5105C25.8643 1.95821 25.4165 1.5105 24.8643 1.5105H15.3984C14.8462 1.5105 14.3984 1.95821 14.3984 2.5105V15.5974C14.3984 16.1497 14.8462 16.5974 15.3984 16.5974H24.8643Z" fill="white" stroke="black" stroke-width="2" stroke-linejoin="round"/>
<path d="M13.5488 6.04175C14.1011 6.04175 14.5488 5.59403 14.5488 5.04175V2.5105C14.5488 1.95821 14.1011 1.5105 13.5488 1.5105H2C1.44772 1.5105 1 1.95821 1 2.5105V5.04175C1 5.59403 1.44772 6.04175 2 6.04175H5.08691V15.5974C5.08691 16.1497 5.53463 16.5974 6.08691 16.5974H9.46191C10.0142 16.5974 10.4619 16.1497 10.4619 15.5974V6.04175H13.5488Z" fill="white" stroke="black" stroke-width="2" stroke-linejoin="round"/>
<path d="M60.1299 11.2373C60.1299 11.0205 60.1064 10.8154 60.0596 10.6221C60.0127 10.4287 59.9102 10.25 59.752 10.0859C59.5938 9.92773 59.377 9.80176 59.1016 9.70801C58.8262 9.61426 58.4453 9.56738 57.959 9.56738H55.832V12.8984H57.959C58.3281 12.8984 58.6592 12.8516 58.9521 12.7578C59.251 12.6641 59.4795 12.5439 59.6377 12.3975C59.7959 12.2568 59.916 12.0898 59.998 11.8965C60.0859 11.6973 60.1299 11.4775 60.1299 11.2373ZM63.6191 11.1406C63.6191 11.7793 63.4961 12.3682 63.25 12.9072C63.0098 13.4404 62.6787 13.877 62.2568 14.2168C61.7236 14.6445 61.167 14.9404 60.5869 15.1045C60.0127 15.2627 59.3154 15.3418 58.4951 15.3418H52.457V2.25488H55.832V7.13281H58.5479C59.4561 7.13281 60.2002 7.2002 60.7803 7.33496C61.3662 7.46387 61.8818 7.7041 62.3271 8.05566C62.7783 8.40723 63.1064 8.85254 63.3115 9.3916C63.5166 9.9248 63.6191 10.5078 63.6191 11.1406ZM68.2422 15.3418H64.8672V2.25488H68.2422V15.3418Z" fill="white"/>
<path d="M50.6074 4.78613H46.5205V15.3418H43.1455V4.78613H39.0586V2.25488H50.6074V4.78613Z" fill="white"/>
<path d="M33.4375 15.5967C32.4648 15.5967 31.5654 15.4531 30.7393 15.166C29.9189 14.8789 29.2129 14.4512 28.6211 13.8828C28.0293 13.3145 27.5693 12.6055 27.2412 11.7559C26.9189 10.9062 26.7578 9.9248 26.7578 8.81152C26.7578 7.77441 26.9131 6.83398 27.2236 5.99023C27.5342 5.14648 27.9854 4.42285 28.5771 3.81934C29.1455 3.23926 29.8486 2.79102 30.6865 2.47461C31.5303 2.1582 32.4502 2 33.4463 2C33.9971 2 34.4922 2.03223 34.9316 2.09668C35.377 2.15527 35.7871 2.23438 36.1621 2.33398C36.5547 2.44531 36.9092 2.57129 37.2256 2.71191C37.5479 2.84668 37.8291 2.97266 38.0693 3.08984V6.2627H37.6826C37.5186 6.12207 37.3105 5.95508 37.0586 5.76172C36.8125 5.56836 36.5312 5.37793 36.2148 5.19043C35.8926 5.00293 35.5439 4.84473 35.1689 4.71582C34.7939 4.58691 34.3926 4.52246 33.9648 4.52246C33.4902 4.52246 33.0391 4.59863 32.6113 4.75098C32.1836 4.89746 31.7881 5.14355 31.4248 5.48926C31.0791 5.82324 30.7979 6.26562 30.5811 6.81641C30.3701 7.36719 30.2646 8.03516 30.2646 8.82031C30.2646 9.64062 30.3789 10.3262 30.6074 10.877C30.8418 11.4277 31.1348 11.8613 31.4863 12.1777C31.8438 12.5 32.2422 12.7314 32.6816 12.8721C33.1211 13.0068 33.5547 13.0742 33.9824 13.0742C34.3926 13.0742 34.7969 13.0127 35.1953 12.8896C35.5996 12.7666 35.9717 12.5996 36.3115 12.3887C36.5986 12.2188 36.8652 12.0371 37.1113 11.8438C37.3574 11.6504 37.5596 11.4834 37.7178 11.3428H38.0693V14.4717C37.7412 14.6182 37.4277 14.7559 37.1289 14.8848C36.8301 15.0137 36.5166 15.125 36.1885 15.2188C35.7607 15.3418 35.3594 15.4355 34.9844 15.5C34.6094 15.5645 34.0938 15.5967 33.4375 15.5967Z" fill="white"/>
<path d="M24.8643 15.3418H15.3984V2.25488H24.8643V4.78613H18.7559V7.04492H24.4248V9.57617H18.7559V12.8105H24.8643V15.3418Z" fill="white"/>
<path d="M13.5488 4.78613H9.46191V15.3418H6.08691V4.78613H2V2.25488H13.5488V4.78613Z" fill="white"/>
<path d="M60.1299 11.4929C60.1299 11.2761 60.1064 11.071 60.0596 10.8777C60.0127 10.6843 59.9102 10.5056 59.752 10.3416C59.5938 10.1833 59.377 10.0574 59.1016 9.96362C58.8262 9.86987 58.4453 9.823 57.959 9.823H55.832V13.1541H57.959C58.3281 13.1541 58.6592 13.1072 58.9521 13.0134C59.251 12.9197 59.4795 12.7996 59.6377 12.6531C59.7959 12.5125 59.916 12.3455 59.998 12.1521C60.0859 11.9529 60.1299 11.7332 60.1299 11.4929ZM63.6191 11.3962C63.6191 12.0349 63.4961 12.6238 63.25 13.1628C63.0098 13.696 62.6787 14.1326 62.2568 14.4724C61.7236 14.9001 61.167 15.196 60.5869 15.3601C60.0127 15.5183 59.3154 15.5974 58.4951 15.5974H52.457V2.5105H55.832V7.38843H58.5479C59.4561 7.38843 60.2002 7.45581 60.7803 7.59058C61.3662 7.71948 61.8818 7.95972 62.3271 8.31128C62.7783 8.66284 63.1064 9.10815 63.3115 9.64722C63.5166 10.1804 63.6191 10.7634 63.6191 11.3962ZM68.2422 15.5974H64.8672V2.5105H68.2422V15.5974Z" fill="white"/>
<path d="M50.6074 5.04175H46.5205V15.5974H43.1455V5.04175H39.0586V2.5105H50.6074V5.04175Z" fill="white"/>
<path d="M33.4375 15.8523C32.4648 15.8523 31.5654 15.7087 30.7393 15.4216C29.9189 15.1345 29.2129 14.7068 28.6211 14.1384C28.0293 13.5701 27.5693 12.8611 27.2412 12.0115C26.9189 11.1619 26.7578 10.1804 26.7578 9.06714C26.7578 8.03003 26.9131 7.0896 27.2236 6.24585C27.5342 5.4021 27.9854 4.67847 28.5771 4.07495C29.1455 3.49487 29.8486 3.04663 30.6865 2.73022C31.5303 2.41382 32.4502 2.25562 33.4463 2.25562C33.9971 2.25562 34.4922 2.28784 34.9316 2.35229C35.377 2.41089 35.7871 2.48999 36.1621 2.5896C36.5547 2.70093 36.9092 2.8269 37.2256 2.96753C37.5479 3.10229 37.8291 3.22827 38.0693 3.34546V6.51831H37.6826C37.5186 6.37769 37.3105 6.21069 37.0586 6.01733C36.8125 5.82397 36.5312 5.63354 36.2148 5.44604C35.8926 5.25854 35.5439 5.10034 35.1689 4.97144C34.7939 4.84253 34.3926 4.77808 33.9648 4.77808C33.4902 4.77808 33.0391 4.85425 32.6113 5.00659C32.1836 5.15308 31.7881 5.39917 31.4248 5.74487C31.0791 6.07886 30.7979 6.52124 30.5811 7.07202C30.3701 7.6228 30.2646 8.29077 30.2646 9.07593C30.2646 9.89624 30.3789 10.5818 30.6074 11.1326C30.8418 11.6833 31.1348 12.1169 31.4863 12.4333C31.8438 12.7556 32.2422 12.9871 32.6816 13.1277C33.1211 13.2625 33.5547 13.3298 33.9824 13.3298C34.3926 13.3298 34.7969 13.2683 35.1953 13.1453C35.5996 13.0222 35.9717 12.8552 36.3115 12.6443C36.5986 12.4744 36.8652 12.2927 37.1113 12.0994C37.3574 11.906 37.5596 11.739 37.7178 11.5984H38.0693V14.7273C37.7412 14.8738 37.4277 15.0115 37.1289 15.1404C36.8301 15.2693 36.5166 15.3806 36.1885 15.4744C35.7607 15.5974 35.3594 15.6912 34.9844 15.7556C34.6094 15.8201 34.0938 15.8523 33.4375 15.8523Z" fill="white"/>
<path d="M24.8643 15.5974H15.3984V2.5105H24.8643V5.04175H18.7559V7.30054H24.4248V9.83179H18.7559V13.0662H24.8643V15.5974Z" fill="white"/>
<path d="M13.5488 5.04175H9.46191V15.5974H6.08691V5.04175H2V2.5105H13.5488V5.04175Z" fill="white"/>
</svg>
