<svg width="380" height="218" viewBox="0 0 380 218" fill="none" xmlns="http://www.w3.org/2000/svg">
<mask id="mask0_2080_51414" style="mask-type:alpha" maskUnits="userSpaceOnUse" x="0" y="0" width="380" height="218">
<rect width="380" height="218" fill="white"/>
</mask>
<g mask="url(#mask0_2080_51414)">
<rect x="-1.19194" y="-0.715306" width="677.965" height="77.5777" transform="matrix(0.965926 -0.258819 0.226012 0.974125 -140.436 159.337)" fill="white" stroke="black" stroke-width="2"/>
</g>
<path d="M62.2227 119.406L88.7277 112.304L89.072 113.589C88.1044 113.945 87.3353 114.32 86.7647 114.714C86.1819 115.064 85.8036 115.455 85.6298 115.888C85.5131 116.354 85.4958 117.011 85.578 117.859C85.6602 118.706 85.8704 119.761 86.2086 121.023L94.6512 152.532C94.929 153.569 95.1811 154.419 95.4073 155.083C95.6336 155.747 95.8461 156.27 96.045 156.652C96.2318 156.988 96.4862 157.306 96.8082 157.607C97.1181 157.862 97.4896 158.076 97.9227 158.25C98.3437 158.379 98.7977 158.45 99.2847 158.465C99.8047 158.422 100.38 158.316 101.011 158.147L105.051 173.225L104.172 173.461C103.539 171.456 102.728 169.693 101.74 168.17C100.81 166.68 99.7183 165.402 98.4665 164.337C97.2148 163.271 95.8732 162.592 94.442 162.299C93.0108 162.006 91.5063 162.071 89.9286 162.494L81.2063 164.831C79.5385 165.278 78.1295 165.969 76.9793 166.905C75.8411 167.887 74.9107 169.102 74.188 170.552C73.5103 171.99 73.102 173.621 72.9629 175.446C72.8809 177.304 73.0517 179.384 73.4753 181.686L72.5963 181.922L68.5562 166.843C70.3946 165.771 71.7303 164.085 72.5632 161.784C73.4412 159.471 73.8676 156.555 73.8424 153.035C73.8171 149.515 73.4215 145.514 72.6556 141.033C71.8776 136.507 70.7458 131.471 69.2602 125.927C68.8979 124.575 68.5343 123.488 68.1696 122.668C67.7928 121.803 67.3698 121.216 66.9005 120.907C66.4762 120.586 65.9019 120.425 65.1774 120.426C64.486 120.37 63.6158 120.458 62.567 120.691L62.2227 119.406ZM78.1342 118.476L70.0881 120.632L71.157 124.622C71.9179 127.461 72.5992 130.274 73.2007 133.06C73.8022 135.846 74.3301 138.628 74.7844 141.405C75.2837 144.17 75.6369 146.66 75.8439 148.875C76.0389 151.045 76.1164 152.957 76.0762 154.61C76.0031 156.321 75.8487 157.908 75.613 159.372C75.4103 160.78 75.0647 162.104 74.5762 163.346L86.0031 160.284C86.7694 160.079 87.3719 159.893 87.8105 159.728C88.2371 159.517 88.4939 159.303 88.5808 159.086C88.6798 158.915 88.6854 158.575 88.5976 158.067C88.5549 157.547 88.4128 156.837 88.1712 155.935L78.1342 118.476ZM115.156 113.557C114.806 112.25 114.477 111.202 114.17 110.415C113.85 109.583 113.517 108.971 113.171 108.581C112.813 108.146 112.355 107.882 111.799 107.789C111.243 107.697 110.559 107.759 109.748 107.976L108.733 108.248L108.389 106.964L125.563 102.362L125.908 103.646L124.826 103.936C124.059 104.142 123.459 104.423 123.023 104.782C122.588 105.14 122.312 105.552 122.195 106.018C122.078 106.484 122.073 107.186 122.179 108.124C122.331 109.05 122.6 110.234 122.986 111.676L131.32 142.779C131.707 144.221 132.072 145.404 132.416 146.326C132.793 147.192 133.148 147.797 133.482 148.142C133.873 148.52 134.324 148.762 134.836 148.866C135.38 148.914 136.035 148.835 136.801 148.63L137.883 148.34L138.227 149.624L121.053 154.226L120.709 152.942L121.723 152.67C122.49 152.465 123.09 152.183 123.526 151.824C123.961 151.466 124.231 151.032 124.336 150.52C124.441 150.009 124.417 149.291 124.266 148.365C124.159 147.427 123.919 146.26 123.545 144.862L116.678 119.236L112.38 148.361C112.682 149.488 112.986 150.445 113.294 151.233C113.602 152.02 113.912 152.637 114.225 153.085C114.583 153.52 115.047 153.807 115.615 153.944C116.171 154.037 116.878 153.968 117.734 153.739L118.816 153.449L119.16 154.734L101.918 159.353L101.574 158.069L102.656 157.779C103.422 157.574 104.023 157.292 104.458 156.934C104.894 156.575 105.164 156.141 105.269 155.629C105.373 155.118 105.372 154.394 105.266 153.456C105.16 152.518 104.919 151.351 104.545 149.953L96.2109 118.851C95.8243 117.408 95.4652 116.248 95.1335 115.371C94.8018 114.493 94.4689 113.882 94.1348 113.537C93.8007 113.192 93.3556 112.973 92.7993 112.88C92.2431 112.788 91.5368 112.856 90.6803 113.086L89.5985 113.375L89.2542 112.091L106.496 107.471L106.84 108.755L105.758 109.045C104.992 109.251 104.391 109.532 103.956 109.891C103.565 110.237 103.324 110.688 103.231 111.244C103.082 111.768 103.06 112.498 103.166 113.436C103.318 114.362 103.569 115.478 103.919 116.785L110.858 142.682L115.156 113.557ZM157.126 144.488L156.781 143.204L157.796 142.932C158.562 142.726 159.14 142.451 159.531 142.105C159.966 141.746 160.23 141.289 160.323 140.733C160.37 140.189 160.318 139.454 160.167 138.528C160.015 137.602 159.764 136.486 159.414 135.179L149.776 99.2076L138.416 102.251L148.055 138.222C148.465 139.755 148.865 140.977 149.254 141.887C149.643 142.797 150.027 143.419 150.406 143.752C150.728 144.053 151.139 144.232 151.638 144.292C152.182 144.339 152.815 144.266 153.536 144.073L154.482 143.82L154.827 145.104L138.058 149.597L137.714 148.313L138.728 148.041C139.404 147.86 139.944 147.619 140.346 147.318C140.782 146.959 141.064 146.57 141.192 146.149C141.309 145.683 141.286 144.964 141.122 143.993C141.004 143.011 140.745 141.775 140.347 140.288L132.049 109.32C131.662 107.878 131.303 106.718 130.972 105.84C130.64 104.963 130.301 104.329 129.955 103.939C129.621 103.594 129.176 103.375 128.619 103.282C128.108 103.178 127.492 103.222 126.771 103.415L125.757 103.687L125.412 102.402L161.248 92.8L161.592 94.0847L160.713 94.3202C159.947 94.5256 159.346 94.8073 158.911 95.1656C158.475 95.5238 158.205 95.9585 158.101 96.4697C157.996 96.9808 157.997 97.7053 158.103 98.6431C158.21 99.5808 158.45 100.748 158.824 102.146L167.122 133.113C167.533 134.646 167.933 135.867 168.321 136.778C168.71 137.688 169.094 138.31 169.474 138.643C169.841 138.931 170.296 139.099 170.84 139.147C171.385 139.194 172.017 139.121 172.738 138.928L173.55 138.71L173.894 139.995L157.126 144.488ZM171.656 90.0112L188.222 85.5725L188.566 86.8572C187.676 87.1438 186.963 87.4558 186.425 87.7931C185.875 88.0853 185.536 88.442 185.407 88.863C185.222 89.251 185.158 89.8237 185.216 90.5812C185.262 91.2936 185.396 92.2478 185.62 93.444C187.469 92.9488 189.111 92.6777 190.548 92.6309C192.018 92.527 193.31 92.6637 194.426 93.0411C195.542 93.4186 196.632 93.9719 197.697 94.7011C198.75 95.3852 199.761 96.2738 200.731 97.3668C201.733 98.4027 202.62 99.6387 203.391 101.075C204.15 102.466 204.771 104.063 205.254 105.866C205.846 108.074 206.115 110.249 206.06 112.389C206.039 114.473 205.694 116.522 205.026 118.536C204.358 120.551 203.147 122.253 201.393 123.641C199.684 125.016 197.41 126.085 194.57 126.846C194.788 127.657 195.004 128.372 195.218 128.991C195.465 129.553 195.682 130.002 195.869 130.339C196.113 130.708 196.361 131.004 196.614 131.226C196.912 131.436 197.214 131.573 197.521 131.635C197.782 131.71 198.15 131.732 198.625 131.702C199.145 131.659 199.778 131.586 200.523 131.483L200.868 132.768L184.302 137.206L183.958 135.922C184.937 135.611 185.696 135.287 186.234 134.949C186.804 134.555 187.148 134.125 187.265 133.659C187.414 133.135 187.46 132.495 187.402 131.738C187.332 130.935 187.152 129.993 186.862 128.911C184.969 129.418 183.23 129.691 181.646 129.729C180.095 129.71 178.698 129.456 177.456 128.967C176.214 128.479 175.055 127.848 173.978 127.073C172.888 126.254 171.898 125.263 171.007 124.101C170.116 122.939 169.354 121.717 168.721 120.438C168.076 119.113 167.542 117.661 167.12 116.084C166.673 114.416 166.408 112.796 166.325 111.224C166.275 109.595 166.378 107.997 166.635 106.43C166.936 104.852 167.366 103.481 167.924 102.317C168.527 101.14 169.274 100.143 170.166 99.3243C171.058 98.5056 172.143 97.7798 173.423 97.147C174.703 96.5142 176.199 95.9683 177.912 95.5093C177.634 94.4726 177.309 93.6177 176.935 92.9448C176.607 92.2598 176.259 91.7733 175.892 91.4851C175.48 91.2091 174.956 91.0594 174.322 91.0361C173.688 91.0128 172.914 91.0994 172 91.2959L171.656 90.0112ZM193.882 124.276C194.648 124.071 195.323 123.794 195.905 123.444C196.533 123.083 197.047 122.655 197.446 122.162C197.845 121.668 198.151 121.007 198.364 120.177C198.576 119.347 198.712 118.32 198.77 117.096C198.829 115.873 198.72 114.477 198.445 112.908C198.215 111.327 197.834 109.545 197.302 107.562C196.88 105.984 196.403 104.566 195.872 103.307C195.375 101.991 194.829 100.856 194.236 99.9042C193.631 98.9069 193.028 98.102 192.429 97.4895C191.863 96.8198 191.284 96.3711 190.692 96.1434C190.087 95.8705 189.423 95.7345 188.698 95.7354C188.019 95.7242 187.222 95.8168 186.309 96.0133L193.882 124.276ZM178.601 98.0787C177.588 98.4467 176.735 98.8685 176.041 99.3443C175.38 99.763 174.891 100.281 174.573 100.897C174.21 101.526 173.957 102.294 173.814 103.202C173.703 104.053 173.652 105.033 173.659 106.142C173.667 107.252 173.784 108.5 174.011 109.889C174.283 111.265 174.643 112.788 175.09 114.455C175.597 116.349 176.112 117.998 176.633 119.405C177.143 120.766 177.717 121.916 178.355 122.857C178.937 123.764 179.521 124.501 180.108 125.068C180.694 125.636 181.307 126.027 181.944 126.243C182.537 126.471 183.195 126.584 183.92 126.583C184.644 126.583 185.395 126.502 186.174 126.342L178.601 98.0787ZM211.38 82.4109L216.507 101.546L217.116 101.383C218.153 101.105 218.971 100.644 219.572 100C220.16 99.311 220.581 98.4493 220.836 97.4149C221.033 96.3475 221.085 95.1014 220.993 93.6767C220.935 92.1948 220.725 90.5116 220.365 88.6272L221.244 88.3917L227.857 113.071L226.978 113.307C226.525 111.979 226.042 110.804 225.526 109.782C225.044 108.704 224.53 107.778 223.985 107.007C223.44 106.235 222.915 105.626 222.41 105.182C221.937 104.681 221.456 104.327 220.965 104.12C220.475 103.913 219.919 103.82 219.297 103.842C218.674 103.864 217.98 103.978 217.214 104.183L220.765 117.435C221.115 118.743 221.399 119.802 221.616 120.613C221.867 121.368 222.079 121.89 222.254 122.182C222.417 122.428 222.596 122.646 222.791 122.835C222.987 123.024 223.228 123.201 223.513 123.366C223.787 123.486 224.071 123.555 224.366 123.572C224.706 123.578 225.123 123.514 225.619 123.382L227.512 122.874C229.045 122.464 230.331 121.853 231.37 121.044C232.454 120.222 233.308 119.171 233.932 117.893C234.556 116.615 234.978 115.125 235.198 113.423C235.464 111.709 235.493 109.745 235.286 107.53L236.165 107.294L238.749 122.617L211.027 130.045L210.683 128.761L211.764 128.471C212.215 128.35 212.609 128.196 212.945 128.01C213.27 127.778 213.559 127.507 213.814 127.197C213.992 126.956 214.111 126.683 214.174 126.376C214.282 126.057 214.327 125.683 214.308 125.253C214.326 124.958 214.261 124.444 214.112 123.711C213.952 122.933 213.715 121.957 213.401 120.785L205.103 89.8179C204.813 88.736 204.561 87.8856 204.347 87.2666C204.166 86.5905 204.023 86.1458 203.917 85.9324C203.718 85.5509 203.509 85.2205 203.289 84.9412C203.069 84.6619 202.817 84.4398 202.531 84.2748C202.119 83.9987 201.692 83.8474 201.25 83.8209C200.796 83.7493 200.321 83.7799 199.825 83.9128L198.743 84.2026L198.399 82.918L225.242 75.7254L228.992 89.7216L228.113 89.9572C227.429 88.3046 226.743 86.9182 226.057 85.7977C225.415 84.6652 224.789 83.7702 224.178 83.1126C223.567 82.455 222.902 81.9567 222.183 81.6179C221.452 81.234 220.655 80.9644 219.792 80.8091C219.281 80.7045 218.608 80.7159 217.772 80.8431C216.937 80.9704 215.91 81.1971 214.693 81.5232L211.38 82.4109ZM244.069 65.8977C242.446 66.3325 241.007 66.5491 239.75 66.5476C238.494 66.5461 237.42 66.3265 236.53 65.8886C235.595 65.4629 234.844 64.9152 234.278 64.2455C233.757 63.5638 233.37 62.7496 233.116 61.803C232.983 61.3071 232.914 60.8668 232.907 60.4821C232.934 60.0401 233.017 59.6312 233.158 59.2553C233.299 58.8794 233.487 58.5876 233.721 58.3799C233.943 58.1271 234.234 57.9524 234.595 57.8558C235.226 57.6867 235.852 57.8573 236.471 58.3675C237.124 58.8207 237.794 59.6075 238.481 60.7279C238.887 61.3437 239.264 61.8467 239.61 62.2371C239.956 62.6275 240.301 62.9217 240.644 63.1196C241.032 63.3056 241.424 63.4178 241.821 63.4564C242.263 63.4829 242.732 63.4298 243.227 63.2969C243.813 63.1399 244.291 62.9394 244.661 62.6955C245.075 62.4395 245.381 62.14 245.579 61.7971C245.777 61.4542 245.951 61.0211 246.101 60.4978C246.239 59.9295 246.323 59.2546 246.355 58.4729C246.402 57.2043 246.578 56.2392 246.884 55.5775C247.223 54.8586 247.708 54.4146 248.339 54.2455C248.7 54.1489 249.033 54.132 249.34 54.1948C249.647 54.2575 249.961 54.439 250.283 54.7392C250.593 54.9944 250.876 55.3292 251.132 55.7437C251.376 56.1132 251.57 56.5684 251.715 57.1093C251.957 58.0108 251.977 58.8991 251.777 59.7741C251.61 60.5919 251.221 61.3965 250.612 62.1879C250.015 63.0243 249.172 63.7572 248.085 64.3868C246.986 64.9713 245.647 65.4749 244.069 65.8977ZM253.046 76.6817C252.708 75.4196 252.379 74.3723 252.06 73.54C251.74 72.7077 251.407 72.0964 251.061 71.706C250.715 71.3157 250.263 71.0742 249.707 70.9817C249.151 70.8892 248.467 70.9516 247.656 71.169L246.642 71.4408L246.297 70.1561L263.471 65.5543L263.816 66.839L262.666 67.147C261.9 67.3523 261.299 67.6341 260.864 67.9923C260.473 68.3385 260.22 68.7446 260.103 69.2107C259.986 69.6768 259.981 70.3787 260.088 71.3165C260.194 72.2542 260.44 73.4443 260.827 74.8868L269.125 105.854C269.511 107.297 269.899 108.473 270.288 109.384C270.664 110.249 271.026 110.877 271.372 111.267C271.706 111.612 272.151 111.831 272.708 111.924C273.252 111.971 273.884 111.898 274.606 111.705L275.755 111.397L276.099 112.682L258.925 117.284L258.581 115.999L259.595 115.727C260.361 115.522 260.962 115.24 261.398 114.882C261.833 114.524 262.109 114.111 262.226 113.645C262.331 113.134 262.307 112.416 262.156 111.49C262.037 110.507 261.791 109.317 261.416 107.92L254.568 82.3613L250.252 111.419C250.554 112.546 250.858 113.503 251.166 114.29C251.473 115.077 251.806 115.688 252.165 116.124C252.478 116.571 252.918 116.864 253.487 117.002C254.043 117.094 254.749 117.026 255.606 116.796L256.688 116.506L257.032 117.791L239.858 122.393L239.514 121.108L240.595 120.818C241.362 120.613 241.963 120.331 242.398 119.973C242.833 119.615 243.109 119.202 243.226 118.736C243.331 118.225 243.307 117.507 243.156 116.581C243.038 115.598 242.791 114.408 242.417 113.011L234.119 82.0431C233.732 80.6007 233.373 79.4408 233.042 78.5634C232.71 77.686 232.4 77.0686 232.111 76.7113C231.776 76.366 231.331 76.1471 230.775 76.0545C230.219 75.962 229.512 76.0305 228.656 76.26L227.574 76.5499L227.23 75.2652L244.404 70.6634L244.748 71.9481L243.667 72.2379C242.945 72.4312 242.367 72.7069 241.932 73.0652C241.496 73.4234 241.232 73.8807 241.14 74.4369C241.035 74.9481 241.036 75.6725 241.142 76.6103C241.248 77.548 241.477 78.6705 241.827 79.9778L248.73 105.739L253.046 76.6817ZM262.1 65.7045L278.868 61.2114L279.212 62.496L278.671 62.641C277.86 62.8584 277.214 63.1522 276.734 63.5226C276.253 63.8929 275.955 64.3111 275.838 64.7772C275.688 65.3004 275.654 65.9858 275.737 66.8334C275.807 67.636 275.999 68.6232 276.313 69.7952L280.117 83.9943C281.244 83.6924 282.14 83.4283 282.804 83.202C283.501 82.9186 284.018 82.6835 284.354 82.4968C284.679 82.2649 284.934 81.955 285.12 81.567C285.351 81.1669 285.535 80.6827 285.672 80.1144C285.843 79.4889 285.925 78.6216 285.917 77.5123C285.91 76.4031 285.842 75.0685 285.714 73.5085C285.547 71.6209 285.423 69.9872 285.343 68.6075C285.263 67.2279 285.26 66.045 285.334 65.0589C285.408 64.0728 285.535 63.1934 285.714 62.4206C285.927 61.5907 286.215 60.8614 286.578 60.2327C286.986 59.5919 287.469 59.0517 288.028 58.6122C288.586 58.1726 289.249 57.8502 290.015 57.6448C290.781 57.4395 291.5 57.4161 292.17 57.5746C292.886 57.7211 293.554 58.0494 294.173 58.5597C294.838 59.0579 295.392 59.6825 295.835 60.4335C296.266 61.1394 296.602 61.9431 296.843 62.8447C297.049 63.611 297.14 64.3113 297.116 64.9456C297.126 65.5227 297.028 66.0564 296.821 66.5467C296.614 67.0369 296.36 67.443 296.06 67.765C295.76 68.0871 295.362 68.3145 294.866 68.4473C293.965 68.6889 293.163 68.493 292.462 67.8595C291.806 67.214 291.221 66.1145 290.709 64.561C290.458 63.8067 290.195 63.2735 289.918 62.9612C289.629 62.6038 289.326 62.4674 289.011 62.5519C288.65 62.6486 288.354 62.8969 288.123 63.297C287.88 63.652 287.731 64.1752 287.674 64.8667C287.561 65.5252 287.514 66.4316 287.533 67.5859C287.541 68.6951 287.592 70.0583 287.687 71.6754C287.827 73.2805 287.936 74.6767 288.012 75.864C288.077 77.0062 288.099 77.9907 288.079 78.8174C288.059 79.6441 287.976 80.4152 287.829 81.1308C287.728 81.8344 287.563 82.4824 287.335 83.0749C287.88 83.1223 288.368 83.2329 288.801 83.4068C289.267 83.5235 289.678 83.7033 290.033 83.9464C290.388 84.1895 290.732 84.4836 291.067 84.8289C291.434 85.1171 291.796 85.4789 292.155 85.9143C292.513 86.3498 293.08 87.1157 293.857 88.2119C294.667 89.2511 295.698 90.6657 296.951 92.4558L302.565 100.155C302.96 100.726 303.358 101.223 303.762 101.646C304.198 102.012 304.639 102.305 305.084 102.524C305.529 102.743 305.979 102.888 306.433 102.96C306.92 102.974 307.411 102.915 307.907 102.782L308.251 104.067L297.5 106.947L286.019 90.6021C285.38 89.662 284.825 88.9412 284.352 88.4398C283.913 87.8812 283.573 87.5133 283.332 87.3362C283.091 87.1592 282.778 87.0739 282.394 87.0803C281.997 87.0417 281.522 87.0724 280.969 87.1722L285.245 103.129C285.559 104.301 285.88 105.23 286.208 105.915C286.582 106.588 286.969 107.04 287.369 107.271C287.814 107.49 288.331 107.617 288.92 107.652C289.543 107.63 290.305 107.499 291.206 107.257L291.55 108.542L274.782 113.035L274.438 111.75C275.327 111.463 276.041 111.152 276.578 110.814C277.149 110.42 277.521 110.006 277.695 109.573C277.914 109.128 277.982 108.481 277.9 107.634C277.818 106.786 277.608 105.731 277.27 104.469L268.791 72.8253C268.416 71.428 268.041 70.2966 267.664 69.4313C267.32 68.5089 266.969 67.8299 266.611 67.3945C266.253 66.959 265.773 66.7011 265.172 66.6206C264.615 66.5281 263.931 66.5906 263.12 66.808L262.444 66.9891L262.1 65.7045ZM310.53 86.6432L309.516 86.915C309.087 85.677 308.6 84.3098 308.054 82.8135C307.509 81.3171 306.836 79.7097 306.038 77.9912L302.882 71.0825C301.942 69.0154 301.17 67.2172 300.567 65.6879C299.964 64.1585 299.542 62.943 299.3 62.0415C299.058 61.14 298.937 60.327 298.936 59.6025C298.935 58.8781 299.043 58.1971 299.259 57.5595C299.486 56.967 299.789 56.4752 300.168 56.084C300.546 55.6927 301.005 55.4246 301.546 55.2797C302.087 55.1347 302.619 55.1371 303.143 55.2868C303.666 55.4365 304.18 55.7335 304.686 56.1777C305.179 56.577 305.607 57.0905 305.968 57.7183C306.33 58.3462 306.619 59.0658 306.837 59.8771C307.066 60.7336 307.279 61.9809 307.477 63.6189C307.719 65.2449 307.968 67.2557 308.224 69.6512L309.013 77.194C309.138 78.5616 309.315 80.0359 309.546 81.6168C309.821 83.1856 310.149 84.8611 310.53 86.6432ZM311.343 91.5707C311.839 91.4379 312.326 91.4523 312.804 91.6141C313.315 91.7187 313.824 91.9931 314.329 92.4374C314.835 92.8817 315.262 93.3952 315.612 93.978C315.961 94.5607 316.238 95.2353 316.444 96.0016C316.649 96.7679 316.746 97.4907 316.735 98.1701C316.724 98.8495 316.604 99.4854 316.376 100.078C316.161 100.715 315.864 101.23 315.485 101.621C315.152 102 314.738 102.256 314.242 102.389C313.746 102.522 313.236 102.514 312.713 102.364C312.19 102.214 311.676 101.917 311.17 101.473C310.677 101.074 310.255 100.583 309.906 99.9999C309.556 99.4172 309.279 98.7427 309.074 97.9764C308.868 97.2101 308.771 96.4872 308.782 95.8078C308.794 95.1284 308.907 94.47 309.123 93.8324C309.338 93.1949 309.641 92.703 310.032 92.3569C310.41 91.9656 310.847 91.7036 311.343 91.5707Z" fill="black"/>
</svg>
