<svg width="380" height="218" viewBox="0 0 380 218" fill="none" xmlns="http://www.w3.org/2000/svg">
<mask id="mask0_2582_41276" style="mask-type:alpha" maskUnits="userSpaceOnUse" x="0" y="0" width="380" height="218">
<rect width="380" height="218" fill="white"/>
</mask>
<g mask="url(#mask0_2582_41276)">
<rect x="-0.595969" y="-0.357653" width="676.965" height="76.5777" transform="matrix(0.965926 -0.258819 0.226012 0.974125 -140.496 159.501)" fill="white" stroke="black"/>
</g>
<path d="M138.421 100.294C137.52 100.536 136.829 100.842 136.348 101.212C135.856 101.537 135.529 101.939 135.367 102.417C135.25 102.883 135.227 103.517 135.297 104.32C135.367 105.122 135.547 106.065 135.837 107.147L144.624 139.94C144.962 141.202 145.307 142.22 145.66 142.996C146.013 143.771 146.35 144.308 146.672 144.609C147.039 144.897 147.546 145.075 148.192 145.143C148.827 145.167 149.595 145.058 150.496 144.816L150.84 146.101L134.613 150.449L134.268 149.164C134.945 148.983 135.502 148.809 135.941 148.644C136.367 148.433 136.698 148.223 136.932 148.016C137.154 147.763 137.325 147.5 137.445 147.226C137.553 146.907 137.626 146.549 137.665 146.153C137.658 145.768 137.593 145.254 137.469 144.611C137.378 143.91 137.212 143.109 136.97 142.208L127.078 105.29L119.37 107.356L123.138 121.419C123.936 124.395 124.585 126.999 125.087 129.231C125.633 131.452 126.073 133.364 126.406 134.965C126.726 136.522 126.95 138.081 127.079 139.641C127.24 141.143 127.26 142.66 127.138 144.19C127.062 145.708 126.87 147.064 126.561 148.258C126.286 149.395 125.885 150.42 125.357 151.335C124.862 152.192 124.279 152.904 123.61 153.47C122.94 154.036 122.177 154.433 121.32 154.663C120.554 154.868 119.813 154.898 119.098 154.751C118.439 154.638 117.8 154.326 117.18 153.815C116.617 153.338 116.127 152.769 115.708 152.108C115.289 151.447 114.959 150.666 114.718 149.765C114.512 148.998 114.399 148.304 114.377 147.682C114.355 147.06 114.419 146.487 114.569 145.964C114.707 145.395 114.925 144.95 115.226 144.628C115.526 144.306 115.924 144.079 116.42 143.946C117.321 143.704 118.129 143.923 118.842 144.601C119.6 145.268 120.248 146.423 120.785 148.067C121.035 148.821 121.299 149.354 121.576 149.666C121.853 149.979 122.172 150.086 122.532 149.99C123.028 149.857 123.486 149.493 123.906 148.897C124.314 148.256 124.656 147.368 124.931 146.231C125.251 145.082 125.411 143.783 125.409 142.334C125.407 140.886 125.267 139.28 124.988 137.519C124.71 135.758 124.283 133.626 123.709 131.122C123.135 128.619 122.413 125.745 121.543 122.499L119.152 113.574C118.814 112.312 118.491 111.287 118.183 110.5C117.909 109.655 117.666 109.02 117.455 108.593C117.256 108.212 117.008 107.916 116.71 107.706C116.445 107.439 116.125 107.235 115.749 107.094C115.373 106.953 114.902 106.91 114.337 106.965C113.772 107.02 113.101 107.127 112.322 107.287L111.978 106.003L138.077 99.0094L138.421 100.294ZM154.846 93.5018C157.379 92.6781 159.805 92.5354 162.123 93.0737C164.441 93.612 166.697 94.8193 168.891 96.6954C171.084 98.5716 172.951 100.849 174.49 103.529C176.063 106.151 177.314 109.198 178.244 112.669C179.041 115.644 179.491 118.495 179.593 121.221C179.696 123.948 179.463 126.595 178.895 129.163C178.114 132.56 176.819 135.299 175.009 137.378C173.244 139.446 170.941 140.86 168.101 141.621C165.262 142.381 162.55 142.359 159.967 141.554C157.417 140.691 154.972 139.051 152.634 136.634C150.768 134.718 149.169 132.538 147.837 130.092C146.539 127.59 145.473 124.784 144.639 121.673C143.709 118.202 143.269 114.938 143.32 111.881C143.37 108.824 143.876 105.934 144.838 103.213C145.788 100.446 147.087 98.2621 148.735 96.6609C150.429 95.0477 152.465 93.9946 154.846 93.5018ZM155.782 95.6425C154.339 96.029 153.199 96.9141 152.362 98.2979C151.57 99.6696 151.081 101.54 150.895 103.909C150.747 105.881 150.853 108.172 151.214 110.78C151.62 113.377 152.276 116.366 153.182 119.747C154.245 123.713 155.394 127.101 156.63 129.911C157.911 132.708 159.278 134.926 160.732 136.566C161.713 137.704 162.768 138.484 163.896 138.907C165.023 139.329 166.173 139.383 167.345 139.069C168.157 138.852 168.842 138.523 169.4 138.084C169.992 137.587 170.48 136.973 170.864 136.242C171.346 135.34 171.701 134.23 171.928 132.913C172.155 131.596 172.237 130.101 172.175 128.427C172.146 126.695 171.944 124.768 171.569 122.647C171.181 120.48 170.643 118.112 169.955 115.542C169.122 112.432 168.313 109.774 167.529 107.569C166.732 105.318 165.926 103.481 165.11 102.057C164.338 100.621 163.566 99.4509 162.792 98.547C162.006 97.598 161.214 96.8925 160.413 96.4305C159.613 95.9686 158.833 95.6704 158.072 95.536C157.311 95.4017 156.548 95.4371 155.782 95.6425ZM204.545 81.1995L204.889 82.4842C203.909 82.795 203.134 83.1476 202.564 83.5421C202.026 83.8794 201.67 84.2646 201.496 84.6977C201.322 85.1308 201.271 85.7486 201.341 86.5511C201.411 87.3537 201.603 88.3409 201.917 89.5129L205.776 103.915C206.53 103.664 207.166 103.422 207.682 103.187C208.199 102.952 208.575 102.73 208.809 102.522C209.088 102.303 209.321 101.999 209.507 101.611C209.68 101.178 209.808 100.66 209.888 100.059C210.014 99.4458 210.062 98.6356 210.034 97.6286C210.051 96.6095 209.979 95.3486 209.817 93.8457C209.707 91.9911 209.612 90.374 209.532 88.9943C209.452 87.6146 209.449 86.4317 209.523 85.4456C209.552 84.4716 209.679 83.5922 209.903 82.8074C210.116 81.9774 210.404 81.2481 210.767 80.6194C211.13 79.9907 211.59 79.4566 212.149 79.017C212.753 78.5654 213.438 78.2369 214.204 78.0316C214.97 77.8262 215.689 77.8028 216.359 77.9614C217.03 78.1199 217.697 78.4482 218.362 78.9465C218.982 79.4567 219.514 80.0874 219.956 80.8384C220.387 81.5443 220.723 82.348 220.965 83.2495C221.146 83.9257 221.247 84.5749 221.269 85.1971C221.279 85.7742 221.186 86.3305 220.992 86.8658C220.842 87.389 220.595 87.8177 220.249 88.1518C219.937 88.4287 219.533 88.6336 219.037 88.7665C218.135 89.008 217.34 88.8346 216.651 88.2463C215.995 87.6007 215.417 86.5238 214.916 85.0153C214.665 84.2611 214.379 83.7339 214.057 83.4337C213.768 83.0763 213.443 82.9459 213.083 83.0425C212.857 83.1029 212.64 83.282 212.429 83.5799C212.207 83.8327 212.027 84.2432 211.89 84.8115C211.773 85.2776 211.708 86.1164 211.694 87.3278C211.681 88.5393 211.741 90.1174 211.876 92.0622C211.983 93.7244 212.081 95.1717 212.17 96.4041C212.246 97.5914 212.275 98.5984 212.255 99.4251C212.235 100.252 212.145 101 211.987 101.671C211.816 102.296 211.554 102.85 211.2 103.331C211.858 103.445 212.461 103.621 213.008 103.861C213.544 104.056 214.017 104.291 214.43 104.567C214.887 104.831 215.282 105.136 215.617 105.481C215.984 105.769 216.34 106.109 216.686 106.499C217.033 106.889 217.588 107.61 218.353 108.661C219.106 109.668 220.074 111.027 221.257 112.739L226.022 119.434C226.718 120.407 227.314 121.189 227.811 121.781C228.352 122.36 228.817 122.743 229.205 122.929C229.548 123.127 229.941 123.239 230.383 123.266C230.87 123.28 231.361 123.221 231.857 123.088L232.201 124.373L222.194 127.054L210.991 110.127C210.434 109.31 209.977 108.683 209.618 108.248C209.248 107.768 208.948 107.461 208.72 107.329C208.524 107.14 208.257 107.043 207.917 107.037C207.577 107.032 207.153 107.073 206.645 107.16L210.722 122.374C211.036 123.546 211.312 124.486 211.55 125.195C211.822 125.847 212.055 126.268 212.251 126.457C212.446 126.646 212.665 126.829 212.905 127.006C213.134 127.138 213.385 127.264 213.659 127.384C213.945 127.549 214.347 127.61 214.867 127.568C215.375 127.48 216.035 127.327 216.846 127.11L217.191 128.395L200.76 132.797L200.416 131.512C201.047 131.343 201.582 131.176 202.021 131.01C202.447 130.799 202.8 130.584 203.08 130.364C203.359 130.144 203.581 129.891 203.746 129.606C203.911 129.32 204.013 128.979 204.051 128.582C204.09 128.185 204.047 127.665 203.923 127.022C203.844 126.366 203.678 125.566 203.424 124.619L199.275 109.135C198.825 109.256 198.454 109.404 198.162 109.578C197.916 109.741 197.721 109.914 197.577 110.098C197.445 110.326 197.332 110.719 197.24 111.275C197.135 111.786 197.056 112.484 197.003 113.367L195.689 134.156L185.75 136.819L185.406 135.535C186.127 135.341 186.705 135.066 187.141 134.707C187.609 134.292 187.912 133.8 188.05 133.232C188.232 132.651 188.42 131.369 188.613 129.385C188.851 127.388 189.095 124.69 189.343 121.29C189.575 118.909 189.802 116.964 190.026 115.454C190.237 113.9 190.439 112.759 190.63 112.031C190.867 111.292 191.212 110.595 191.665 109.942C192.118 109.29 192.68 108.68 193.349 108.114C192.802 107.874 192.298 107.526 191.837 107.07C191.41 106.556 190.981 105.947 190.55 105.241C190.119 104.535 189.64 103.649 189.113 102.582C188.574 101.47 187.935 100.168 187.197 98.675C186.341 96.9235 185.604 95.5265 184.987 94.4842C184.369 93.4418 183.871 92.754 183.492 92.4208C183.088 91.9974 182.727 91.7318 182.409 91.624C182.078 91.4711 181.8 91.4248 181.574 91.4852C181.214 91.5818 180.997 91.8571 180.926 92.3111C180.842 92.7201 180.88 93.3137 181.041 94.0921C181.361 95.6489 181.376 96.8768 181.086 97.776C180.828 98.618 180.249 99.1598 179.347 99.4013C178.851 99.5342 178.376 99.5648 177.922 99.4932C177.501 99.3645 177.073 99.117 176.636 98.7508C176.245 98.3725 175.887 97.937 175.562 97.4444C175.269 96.8947 175.027 96.2592 174.833 95.5379C174.604 94.6815 174.505 93.8624 174.537 93.0808C174.557 92.2541 174.702 91.4423 174.972 90.6454C175.254 89.8935 175.645 89.2813 176.147 88.8088C176.681 88.2791 177.354 87.9055 178.165 87.6881C178.932 87.4828 179.666 87.4308 180.37 87.5322C181.074 87.6335 181.74 87.8657 182.368 88.2287C183.009 88.6367 183.629 89.147 184.228 89.7596C184.815 90.327 185.387 91.0192 185.944 91.8362C186.456 92.6653 187.022 93.6972 187.643 94.9319C188.309 96.1546 189.029 97.5801 189.803 99.2085C190.671 101.005 191.443 102.441 192.117 103.516C192.792 104.592 193.393 105.3 193.919 105.643C194.445 105.985 195.077 106.178 195.814 106.222C196.55 106.266 197.414 106.155 198.406 105.89L194.547 91.4877C194.233 90.3157 193.883 89.3707 193.497 88.6527C193.145 87.8776 192.762 87.352 192.35 87.0759C191.938 86.7999 191.415 86.6502 190.78 86.6269C190.134 86.5585 189.36 86.6451 188.459 86.8867L188.114 85.602L204.545 81.1995ZM237.593 95.3171L241.852 94.1757C244.151 93.5597 246.197 93.3499 247.989 93.5461C249.813 93.6852 251.401 94.2019 252.752 95.0961C254.103 95.9902 255.237 97.1598 256.156 98.6046C257.108 99.9922 257.849 101.678 258.381 103.661C258.743 105.013 258.946 106.312 258.989 107.556C259.021 108.756 258.899 109.924 258.624 111.06C258.382 112.14 258.019 113.131 257.536 114.033C257.098 114.923 256.54 115.725 255.862 116.438C255.228 117.14 254.356 117.76 253.244 118.299C252.178 118.827 250.878 119.296 249.346 119.706L232.171 124.308L231.827 123.023C232.807 122.713 233.588 122.383 234.171 122.033C234.753 121.684 235.132 121.292 235.306 120.859C235.479 120.426 235.525 119.786 235.443 118.938C235.406 118.079 235.224 117.04 234.898 115.823L226.528 84.5852C226.081 82.9173 225.657 81.6057 225.256 80.6502C224.843 79.6497 224.476 78.9994 224.154 78.6991C223.832 78.3989 223.331 78.2432 222.652 78.232C222.005 78.1636 221.18 78.2398 220.176 78.4604L219.832 77.1757L236.263 72.7732L236.607 74.0579C235.84 74.2632 235.228 74.4999 234.768 74.768C234.296 74.991 233.972 75.2229 233.795 75.4636C233.585 75.7614 233.42 76.0472 233.3 76.3209C233.18 76.5946 233.117 76.9013 233.112 77.241C233.094 77.5356 233.137 78.0556 233.24 78.801C233.388 79.5343 233.619 80.4869 233.933 81.6589L237.593 95.3171ZM238.408 98.3598L242.213 112.559C242.515 113.686 242.819 114.643 243.127 115.43C243.467 116.16 243.817 116.743 244.175 117.178C244.521 117.569 244.905 117.828 245.326 117.957C245.792 118.074 246.318 118.054 246.904 117.897C247.805 117.655 248.534 117.218 249.089 116.586C249.633 115.909 250.031 115.054 250.286 114.019C250.54 112.985 250.629 111.874 250.552 110.687C250.464 109.454 250.238 108.162 249.876 106.81C249.525 105.502 249.093 104.338 248.577 103.317C248.095 102.238 247.508 101.308 246.816 100.528C246.168 99.7348 245.524 99.1343 244.883 98.7263C244.276 98.2611 243.671 97.9882 243.07 97.9078C242.514 97.8153 241.834 97.8041 241.032 97.8742C240.274 97.9322 239.4 98.0941 238.408 98.3598ZM262.546 99.5013L261.532 99.773C261.103 98.5351 260.616 97.1679 260.07 95.6715C259.525 94.1751 258.852 92.5677 258.054 90.8492L254.898 83.9405C253.958 81.8735 253.186 80.0753 252.583 78.5459C251.98 77.0165 251.558 75.8011 251.316 74.8995C251.074 73.998 250.953 73.185 250.952 72.4606C250.951 71.7361 251.059 71.0551 251.275 70.4176C251.502 69.8251 251.805 69.3332 252.184 68.942C252.562 68.5507 253.022 68.2827 253.562 68.1377C254.103 67.9928 254.635 67.9951 255.159 68.1448C255.682 68.2945 256.196 68.5915 256.702 69.0358C257.195 69.435 257.623 69.9485 257.984 70.5764C258.346 71.2042 258.635 71.9238 258.853 72.7352C259.082 73.5916 259.296 74.8389 259.493 76.477C259.735 78.103 259.984 80.1137 260.24 82.5092L261.029 90.052C261.154 91.4196 261.331 92.8939 261.562 94.4748C261.837 96.0436 262.165 97.7191 262.546 99.5013ZM263.359 104.429C263.855 104.296 264.342 104.31 264.82 104.472C265.331 104.577 265.84 104.851 266.345 105.295C266.851 105.74 267.278 106.253 267.628 106.836C267.977 107.419 268.254 108.093 268.46 108.86C268.665 109.626 268.762 110.349 268.751 111.028C268.74 111.708 268.62 112.343 268.392 112.936C268.177 113.573 267.88 114.088 267.501 114.479C267.168 114.858 266.754 115.114 266.258 115.247C265.762 115.38 265.252 115.372 264.729 115.222C264.206 115.072 263.692 114.775 263.186 114.331C262.693 113.932 262.271 113.441 261.922 112.858C261.572 112.275 261.295 111.601 261.09 110.834C260.884 110.068 260.787 109.345 260.798 108.666C260.81 107.986 260.923 107.328 261.139 106.69C261.354 106.053 261.657 105.561 262.048 105.215C262.426 104.824 262.863 104.562 263.359 104.429Z" fill="black"/>
</svg>
