<svg width="802" height="519" viewBox="0 0 802 519" fill="none" xmlns="http://www.w3.org/2000/svg">
<mask id="path-1-outside-1_2164_55805" maskUnits="userSpaceOnUse" x="42" y="6" width="719" height="511" fill="black">
<rect fill="white" x="42" y="6" width="719" height="511"/>
<path d="M115.332 27.9669H264.191L240.722 117.819H115.332L102.592 164.085C129.86 165.426 153.776 171.014 174.339 180.849C195.349 190.683 213.23 204.988 227.982 223.763C240.051 238.962 248.992 255.725 254.803 274.053C261.061 292.381 264.191 312.944 264.191 335.742C264.191 350.047 262.85 364.352 260.167 378.656C257.485 392.514 253.239 406.148 247.427 419.559C241.169 433.864 234.24 446.157 226.641 456.438C219.041 466.72 210.101 475.66 199.819 483.26C189.538 490.859 178.809 496.447 167.634 500.023C156.905 503.599 145.506 505.387 133.436 505.387C120.473 505.387 108.85 503.599 98.5686 500.023C88.7341 496.894 80.0171 491.53 72.4177 483.93C67.5005 479.013 63.9243 473.872 61.6892 468.508C59.4541 462.697 58.3365 456.438 58.3365 449.733C58.3365 444.816 59.007 440.122 60.3481 435.652C61.6892 431.182 63.4773 427.158 65.7124 423.582C67.9475 419.559 70.6296 416.653 73.7588 414.865C76.888 412.63 80.2406 411.513 83.8168 411.513C86.946 411.513 89.8516 411.96 92.5338 412.854C95.6629 413.748 99.0156 415.312 102.592 417.547C105.721 419.783 109.968 423.359 115.332 428.276C120.696 432.746 127.178 439.005 134.777 447.051C139.695 451.968 144.165 455.991 148.188 459.121C152.211 462.25 156.011 464.932 159.587 467.167C161.822 468.508 164.281 469.626 166.963 470.52C169.645 470.967 172.551 471.19 175.68 471.19C182.385 471.19 188.42 469.626 193.784 466.496C199.149 462.92 204.066 457.556 208.536 450.404C213.453 443.251 217.03 435.652 219.265 427.605C221.947 419.112 223.288 409.948 223.288 400.114C223.288 379.998 219.712 361.893 212.559 345.8C205.407 329.26 194.902 314.509 181.044 301.545C167.187 288.581 151.541 279.194 134.107 273.383C117.12 267.124 97.898 263.995 76.4409 263.995H56.9954L115.332 27.9669ZM504.588 262.654C504.588 285.899 503.247 308.25 500.564 329.707C498.329 351.165 494.977 372.398 490.506 393.408C487.824 405.478 484.695 416.653 481.119 426.935C477.543 437.216 473.52 446.157 469.049 453.756C464.579 461.803 459.885 468.955 454.968 475.213C450.051 481.472 444.463 487.283 438.205 492.647C432.393 497.118 426.359 500.247 420.1 502.035C413.842 504.27 407.36 505.387 400.655 505.387C393.055 505.387 385.68 504.046 378.527 501.364C371.822 498.682 365.34 494.212 359.082 487.954C352.823 482.142 347.012 475.213 341.648 467.167C336.284 459.121 331.143 449.957 326.226 439.675C322.649 431.182 319.297 421.794 316.167 411.513C313.485 401.231 310.803 389.609 308.121 376.645C304.545 359.211 301.863 341.554 300.075 323.673C298.287 305.345 297.393 286.57 297.393 267.348C297.393 241.867 298.51 217.728 300.745 194.93C302.98 171.685 306.78 149.11 312.144 127.206C316.167 109.772 321.085 94.3498 326.896 80.9391C333.154 67.5284 340.307 56.1294 348.353 46.7419C357.294 36.9074 365.787 29.755 373.833 25.2848C382.327 20.8146 391.267 18.5794 400.655 18.5794C410.489 18.5794 419.43 20.8146 427.476 25.2848C435.97 29.755 444.463 36.9074 452.957 46.7419C461.003 55.6823 467.932 66.4109 473.743 78.9275C479.554 91.4442 484.472 105.525 488.495 121.171C493.859 142.628 497.882 165.203 500.564 188.895C503.247 212.14 504.588 236.727 504.588 262.654ZM431.499 261.313C431.946 220.187 431.946 187.778 431.499 164.085C431.499 139.946 431.276 124.747 430.829 118.489C429.935 101.949 428.594 88.315 426.806 77.5865C425.465 66.4109 423.23 58.141 420.1 52.7767C417.865 49.2005 414.96 46.7419 411.383 45.4008C408.254 43.6127 404.455 42.7186 399.984 42.7186C396.855 42.7186 393.949 43.3892 391.267 44.7303C388.585 46.0713 385.903 47.8594 383.221 50.0946C380.539 54.1178 378.304 59.7055 376.516 66.8579C374.728 74.0103 373.386 82.7272 372.492 93.0088C371.598 103.29 370.704 126.088 369.81 161.403C369.363 196.718 369.14 244.997 369.14 306.239C369.14 339.765 369.587 367.481 370.481 389.385C371.375 411.289 372.492 428.053 373.833 439.675C374.728 447.274 375.845 453.98 377.186 459.791C378.974 465.602 380.986 469.849 383.221 472.531C385.903 475.66 388.585 477.896 391.267 479.237C394.397 480.131 397.749 480.578 401.325 480.578C405.349 480.578 408.925 479.684 412.054 477.896C415.183 476.107 417.865 473.425 420.1 469.849C423.23 463.591 425.465 455.321 426.806 445.039C428.594 434.758 429.935 422.912 430.829 409.501L431.499 261.313ZM596.126 27.9669H744.985L721.516 117.819H596.126L583.386 164.085C610.654 165.426 634.57 171.014 655.133 180.849C676.143 190.683 694.024 204.988 708.776 223.763C720.846 238.962 729.786 255.725 735.597 274.053C741.856 292.381 744.985 312.944 744.985 335.742C744.985 350.047 743.644 364.352 740.962 378.656C738.279 392.514 734.033 406.148 728.221 419.559C721.963 433.864 715.034 446.157 707.435 456.438C699.835 466.72 690.895 475.66 680.613 483.26C670.332 490.859 659.603 496.447 648.428 500.023C637.699 503.599 626.3 505.387 614.231 505.387C601.267 505.387 589.644 503.599 579.363 500.023C569.528 496.894 560.811 491.53 553.212 483.93C548.295 479.013 544.718 473.872 542.483 468.508C540.248 462.697 539.131 456.438 539.131 449.733C539.131 444.816 539.801 440.122 541.142 435.652C542.483 431.182 544.271 427.158 546.507 423.582C548.742 419.559 551.424 416.653 554.553 414.865C557.682 412.63 561.035 411.513 564.611 411.513C567.74 411.513 570.646 411.96 573.328 412.854C576.457 413.748 579.81 415.312 583.386 417.547C586.515 419.783 590.762 423.359 596.126 428.276C601.49 432.746 607.972 439.005 615.572 447.051C620.489 451.968 624.959 455.991 628.982 459.121C633.006 462.25 636.805 464.932 640.381 467.167C642.617 468.508 645.075 469.626 647.757 470.52C650.439 470.967 653.345 471.19 656.474 471.19C663.18 471.19 669.214 469.626 674.579 466.496C679.943 462.92 684.86 457.556 689.33 450.404C694.248 443.251 697.824 435.652 700.059 427.605C702.741 419.112 704.082 409.948 704.082 400.114C704.082 379.998 700.506 361.893 693.354 345.8C686.201 329.26 675.696 314.509 661.839 301.545C647.981 288.581 632.335 279.194 614.901 273.383C597.914 267.124 578.692 263.995 557.235 263.995H537.79L596.126 27.9669Z"/>
</mask>
<path d="M115.332 27.9669H264.191L240.722 117.819H115.332L102.592 164.085C129.86 165.426 153.776 171.014 174.339 180.849C195.349 190.683 213.23 204.988 227.982 223.763C240.051 238.962 248.992 255.725 254.803 274.053C261.061 292.381 264.191 312.944 264.191 335.742C264.191 350.047 262.85 364.352 260.167 378.656C257.485 392.514 253.239 406.148 247.427 419.559C241.169 433.864 234.24 446.157 226.641 456.438C219.041 466.72 210.101 475.66 199.819 483.26C189.538 490.859 178.809 496.447 167.634 500.023C156.905 503.599 145.506 505.387 133.436 505.387C120.473 505.387 108.85 503.599 98.5686 500.023C88.7341 496.894 80.0171 491.53 72.4177 483.93C67.5005 479.013 63.9243 473.872 61.6892 468.508C59.4541 462.697 58.3365 456.438 58.3365 449.733C58.3365 444.816 59.007 440.122 60.3481 435.652C61.6892 431.182 63.4773 427.158 65.7124 423.582C67.9475 419.559 70.6296 416.653 73.7588 414.865C76.888 412.63 80.2406 411.513 83.8168 411.513C86.946 411.513 89.8516 411.96 92.5338 412.854C95.6629 413.748 99.0156 415.312 102.592 417.547C105.721 419.783 109.968 423.359 115.332 428.276C120.696 432.746 127.178 439.005 134.777 447.051C139.695 451.968 144.165 455.991 148.188 459.121C152.211 462.25 156.011 464.932 159.587 467.167C161.822 468.508 164.281 469.626 166.963 470.52C169.645 470.967 172.551 471.19 175.68 471.19C182.385 471.19 188.42 469.626 193.784 466.496C199.149 462.92 204.066 457.556 208.536 450.404C213.453 443.251 217.03 435.652 219.265 427.605C221.947 419.112 223.288 409.948 223.288 400.114C223.288 379.998 219.712 361.893 212.559 345.8C205.407 329.26 194.902 314.509 181.044 301.545C167.187 288.581 151.541 279.194 134.107 273.383C117.12 267.124 97.898 263.995 76.4409 263.995H56.9954L115.332 27.9669ZM504.588 262.654C504.588 285.899 503.247 308.25 500.564 329.707C498.329 351.165 494.977 372.398 490.506 393.408C487.824 405.478 484.695 416.653 481.119 426.935C477.543 437.216 473.52 446.157 469.049 453.756C464.579 461.803 459.885 468.955 454.968 475.213C450.051 481.472 444.463 487.283 438.205 492.647C432.393 497.118 426.359 500.247 420.1 502.035C413.842 504.27 407.36 505.387 400.655 505.387C393.055 505.387 385.68 504.046 378.527 501.364C371.822 498.682 365.34 494.212 359.082 487.954C352.823 482.142 347.012 475.213 341.648 467.167C336.284 459.121 331.143 449.957 326.226 439.675C322.649 431.182 319.297 421.794 316.167 411.513C313.485 401.231 310.803 389.609 308.121 376.645C304.545 359.211 301.863 341.554 300.075 323.673C298.287 305.345 297.393 286.57 297.393 267.348C297.393 241.867 298.51 217.728 300.745 194.93C302.98 171.685 306.78 149.11 312.144 127.206C316.167 109.772 321.085 94.3498 326.896 80.9391C333.154 67.5284 340.307 56.1294 348.353 46.7419C357.294 36.9074 365.787 29.755 373.833 25.2848C382.327 20.8146 391.267 18.5794 400.655 18.5794C410.489 18.5794 419.43 20.8146 427.476 25.2848C435.97 29.755 444.463 36.9074 452.957 46.7419C461.003 55.6823 467.932 66.4109 473.743 78.9275C479.554 91.4442 484.472 105.525 488.495 121.171C493.859 142.628 497.882 165.203 500.564 188.895C503.247 212.14 504.588 236.727 504.588 262.654ZM431.499 261.313C431.946 220.187 431.946 187.778 431.499 164.085C431.499 139.946 431.276 124.747 430.829 118.489C429.935 101.949 428.594 88.315 426.806 77.5865C425.465 66.4109 423.23 58.141 420.1 52.7767C417.865 49.2005 414.96 46.7419 411.383 45.4008C408.254 43.6127 404.455 42.7186 399.984 42.7186C396.855 42.7186 393.949 43.3892 391.267 44.7303C388.585 46.0713 385.903 47.8594 383.221 50.0946C380.539 54.1178 378.304 59.7055 376.516 66.8579C374.728 74.0103 373.386 82.7272 372.492 93.0088C371.598 103.29 370.704 126.088 369.81 161.403C369.363 196.718 369.14 244.997 369.14 306.239C369.14 339.765 369.587 367.481 370.481 389.385C371.375 411.289 372.492 428.053 373.833 439.675C374.728 447.274 375.845 453.98 377.186 459.791C378.974 465.602 380.986 469.849 383.221 472.531C385.903 475.66 388.585 477.896 391.267 479.237C394.397 480.131 397.749 480.578 401.325 480.578C405.349 480.578 408.925 479.684 412.054 477.896C415.183 476.107 417.865 473.425 420.1 469.849C423.23 463.591 425.465 455.321 426.806 445.039C428.594 434.758 429.935 422.912 430.829 409.501L431.499 261.313ZM596.126 27.9669H744.985L721.516 117.819H596.126L583.386 164.085C610.654 165.426 634.57 171.014 655.133 180.849C676.143 190.683 694.024 204.988 708.776 223.763C720.846 238.962 729.786 255.725 735.597 274.053C741.856 292.381 744.985 312.944 744.985 335.742C744.985 350.047 743.644 364.352 740.962 378.656C738.279 392.514 734.033 406.148 728.221 419.559C721.963 433.864 715.034 446.157 707.435 456.438C699.835 466.72 690.895 475.66 680.613 483.26C670.332 490.859 659.603 496.447 648.428 500.023C637.699 503.599 626.3 505.387 614.231 505.387C601.267 505.387 589.644 503.599 579.363 500.023C569.528 496.894 560.811 491.53 553.212 483.93C548.295 479.013 544.718 473.872 542.483 468.508C540.248 462.697 539.131 456.438 539.131 449.733C539.131 444.816 539.801 440.122 541.142 435.652C542.483 431.182 544.271 427.158 546.507 423.582C548.742 419.559 551.424 416.653 554.553 414.865C557.682 412.63 561.035 411.513 564.611 411.513C567.74 411.513 570.646 411.96 573.328 412.854C576.457 413.748 579.81 415.312 583.386 417.547C586.515 419.783 590.762 423.359 596.126 428.276C601.49 432.746 607.972 439.005 615.572 447.051C620.489 451.968 624.959 455.991 628.982 459.121C633.006 462.25 636.805 464.932 640.381 467.167C642.617 468.508 645.075 469.626 647.757 470.52C650.439 470.967 653.345 471.19 656.474 471.19C663.18 471.19 669.214 469.626 674.579 466.496C679.943 462.92 684.86 457.556 689.33 450.404C694.248 443.251 697.824 435.652 700.059 427.605C702.741 419.112 704.082 409.948 704.082 400.114C704.082 379.998 700.506 361.893 693.354 345.8C686.201 329.26 675.696 314.509 661.839 301.545C647.981 288.581 632.335 279.194 614.901 273.383C597.914 267.124 578.692 263.995 557.235 263.995H537.79L596.126 27.9669Z" fill="#FBF448"/>
<path d="M115.332 27.9669V16.36H106.245L104.064 25.182L115.332 27.9669ZM264.191 27.9669L275.421 30.9002L279.219 16.36H264.191V27.9669ZM240.722 117.819V129.425H249.687L251.952 120.752L240.722 117.819ZM115.332 117.819V106.212H106.489L104.142 114.737L115.332 117.819ZM102.592 164.085L91.4014 161.004L87.5565 174.967L102.022 175.678L102.592 164.085ZM174.339 180.849L169.331 191.32L169.375 191.341L169.418 191.361L174.339 180.849ZM227.982 223.763L218.855 230.934L218.874 230.958L218.892 230.981L227.982 223.763ZM254.803 274.053L243.739 277.561L243.778 277.683L243.819 277.804L254.803 274.053ZM260.167 378.656L271.563 380.862L271.569 380.829L271.575 380.795L260.167 378.656ZM247.427 419.559L258.061 424.211L258.069 424.193L258.077 424.174L247.427 419.559ZM226.641 456.438L235.975 463.338L235.975 463.337L226.641 456.438ZM199.819 483.26L192.92 473.926L199.819 483.26ZM167.634 500.023L164.096 488.969L164.03 488.99L163.963 489.012L167.634 500.023ZM98.5686 500.023L102.382 489.061L102.235 489.01L102.088 488.963L98.5686 500.023ZM72.4177 483.93L80.625 475.723L80.625 475.723L72.4177 483.93ZM61.6892 468.508L50.8559 472.675L50.9135 472.824L50.9751 472.972L61.6892 468.508ZM65.7124 423.582L75.555 429.734L75.7135 429.48L75.8586 429.219L65.7124 423.582ZM73.7588 414.865L79.5174 424.943L80.0273 424.652L80.5052 424.31L73.7588 414.865ZM92.5338 412.854L88.8634 423.865L89.1026 423.945L89.3451 424.014L92.5338 412.854ZM102.592 417.547L109.338 408.103L109.047 407.895L108.743 407.705L102.592 417.547ZM115.332 428.276L107.489 436.832L107.691 437.017L107.901 437.193L115.332 428.276ZM134.777 447.051L126.339 455.021L126.453 455.141L126.57 455.258L134.777 447.051ZM148.188 459.121L155.314 449.959L155.314 449.959L148.188 459.121ZM159.587 467.167L153.436 477.01L153.525 477.066L153.616 477.12L159.587 467.167ZM166.963 470.52L163.293 481.531L164.157 481.819L165.055 481.969L166.963 470.52ZM193.784 466.496L199.633 476.522L199.933 476.347L200.223 476.154L193.784 466.496ZM208.536 450.404L198.972 443.828L198.828 444.037L198.694 444.252L208.536 450.404ZM219.265 427.605L208.197 424.11L208.136 424.304L208.081 424.499L219.265 427.605ZM212.559 345.8L201.906 350.407L201.929 350.461L201.953 350.514L212.559 345.8ZM181.044 301.545L188.974 293.069L188.974 293.069L181.044 301.545ZM134.107 273.383L130.094 284.274L130.264 284.336L130.436 284.394L134.107 273.383ZM56.9954 263.995L45.7276 261.21L42.1705 275.602H56.9954V263.995ZM115.332 39.5738H264.191V16.36H115.332V39.5738ZM252.96 25.0337L229.492 114.885L251.952 120.752L275.421 30.9002L252.96 25.0337ZM240.722 106.212H115.332V129.425H240.722V106.212ZM104.142 114.737L91.4014 161.004L113.782 167.167L126.522 120.9L104.142 114.737ZM102.022 175.678C128.049 176.958 150.404 182.268 169.331 191.32L179.347 170.378C157.148 159.761 131.671 153.895 103.162 152.493L102.022 175.678ZM169.418 191.361C188.735 200.403 205.191 213.543 218.855 230.934L237.108 216.592C221.269 196.433 201.963 180.964 179.26 170.337L169.418 191.361ZM218.892 230.981C230.092 245.084 238.359 260.593 243.739 277.561L265.867 270.545C259.625 250.858 250.011 232.839 237.071 216.545L218.892 230.981ZM243.819 277.804C249.599 294.732 252.584 313.999 252.584 335.742H275.798C275.798 311.889 272.524 290.03 265.787 270.302L243.819 277.804ZM252.584 335.742C252.584 349.317 251.311 362.906 248.759 376.517L271.575 380.795C274.388 365.798 275.798 350.777 275.798 335.742H252.584ZM248.772 376.451C246.256 389.452 242.265 402.28 236.777 414.944L258.077 424.174C264.212 410.017 268.715 395.576 271.563 380.862L248.772 376.451ZM236.793 414.907C230.81 428.584 224.292 440.089 217.307 449.539L235.975 463.337C244.189 452.225 251.528 439.143 258.061 424.211L236.793 414.907ZM217.307 449.539C210.393 458.893 202.274 467.013 192.92 473.926L206.718 492.594C217.928 484.308 227.689 474.547 235.975 463.338L217.307 449.539ZM192.92 473.926C183.567 480.839 173.961 485.812 164.096 488.969L171.171 511.078C183.657 507.082 195.509 500.879 206.718 492.594L192.92 473.926ZM163.963 489.012C154.495 492.168 144.343 493.781 133.436 493.781V516.994C146.669 516.994 159.315 515.031 171.304 511.034L163.963 489.012ZM133.436 493.781C121.53 493.781 111.228 492.138 102.382 489.061L94.7555 510.986C106.472 515.061 119.416 516.994 133.436 516.994V493.781ZM102.088 488.963C94.0957 486.42 86.9684 482.066 80.625 475.723L64.2104 492.138C73.0659 500.993 83.3725 507.368 95.0493 511.084L102.088 488.963ZM80.625 475.723C76.5735 471.671 73.9526 467.762 72.4032 464.044L50.9751 472.972C53.896 479.982 58.4275 486.355 64.2104 492.138L80.625 475.723ZM72.5224 464.341C70.8368 459.959 69.9434 455.124 69.9434 449.733H46.7296C46.7296 457.753 48.0713 465.435 50.8559 472.675L72.5224 464.341ZM69.9434 449.733C69.9434 445.885 70.466 442.319 71.4655 438.987L49.2307 432.317C47.5481 437.926 46.7296 443.747 46.7296 449.733H69.9434ZM71.4655 438.987C72.5404 435.404 73.9234 432.345 75.555 429.734L55.8698 417.431C53.0312 421.972 50.8379 426.959 49.2307 432.317L71.4655 438.987ZM75.8586 429.219C77.3452 426.543 78.6737 425.425 79.5174 424.943L68.0002 404.788C62.5856 407.882 58.5498 412.575 55.5661 417.945L75.8586 429.219ZM80.5052 424.31C81.8223 423.369 82.8453 423.12 83.8168 423.12V399.906C77.636 399.906 71.9536 401.891 67.0124 405.42L80.5052 424.31ZM83.8168 423.12C85.8307 423.12 87.484 423.405 88.8634 423.865L96.2042 401.842C92.2193 400.514 88.0613 399.906 83.8168 399.906V423.12ZM89.3451 424.014C91.1743 424.537 93.5287 425.57 96.4401 427.39L108.743 407.705C104.503 405.054 100.152 402.959 95.7224 401.693L89.3451 424.014ZM95.8454 426.992C98.3908 428.811 102.224 432.006 107.489 436.832L123.175 419.72C117.711 414.712 113.051 410.755 109.338 408.103L95.8454 426.992ZM107.901 437.193C112.769 441.249 118.896 447.14 126.339 455.021L143.216 439.081C135.46 430.869 128.624 424.244 122.762 419.359L107.901 437.193ZM126.57 455.258C131.714 460.403 136.551 464.774 141.062 468.283L155.314 449.959C151.779 447.209 147.675 443.534 142.985 438.844L126.57 455.258ZM141.062 468.283C145.336 471.607 149.463 474.527 153.436 477.01L165.739 457.324C162.559 455.337 159.086 452.893 155.314 449.959L141.062 468.283ZM153.616 477.12C156.635 478.932 159.874 480.392 163.293 481.531L170.634 459.508C168.688 458.86 167.01 458.085 165.559 457.214L153.616 477.12ZM165.055 481.969C168.453 482.535 172.005 482.797 175.68 482.797V459.583C173.097 459.583 170.837 459.398 168.871 459.071L165.055 481.969ZM175.68 482.797C184.271 482.797 192.353 480.769 199.633 476.522L187.936 456.471C184.488 458.482 180.5 459.583 175.68 459.583V482.797ZM200.223 476.154C207.311 471.428 213.293 464.693 218.379 456.555L198.694 444.252C194.839 450.419 190.986 454.412 187.346 456.839L200.223 476.154ZM218.101 456.979C223.717 448.81 227.856 440.045 230.448 430.712L208.081 424.499C206.204 431.259 203.19 437.692 198.972 443.828L218.101 456.979ZM230.333 431.101C233.407 421.365 234.895 411.011 234.895 400.114H211.681C211.681 408.885 210.487 416.859 208.197 424.11L230.333 431.101ZM234.895 400.114C234.895 378.604 231.065 358.86 223.166 341.086L201.953 350.514C208.358 364.926 211.681 381.391 211.681 400.114H234.895ZM223.213 341.193C215.395 323.113 203.933 307.063 188.974 293.069L173.115 310.021C185.872 321.955 195.42 335.408 201.906 350.407L223.213 341.193ZM188.974 293.069C173.936 279.002 156.849 268.729 137.777 262.371L130.436 284.394C146.233 289.659 160.437 298.161 173.115 310.021L188.974 293.069ZM138.119 262.491C119.634 255.681 99.0195 252.388 76.4409 252.388V275.602C96.7765 275.602 114.606 278.568 130.094 284.274L138.119 262.491ZM76.4409 252.388H56.9954V275.602H76.4409V252.388ZM68.2633 266.78L126.6 30.7519L104.064 25.182L45.7276 261.21L68.2633 266.78ZM500.564 329.707L489.047 328.268L489.032 328.386L489.02 328.505L500.564 329.707ZM490.506 393.408L501.837 395.926L501.848 395.875L501.859 395.824L490.506 393.408ZM481.119 426.935L492.082 430.748L492.082 430.748L481.119 426.935ZM469.049 453.756L459.045 447.871L458.973 447.995L458.903 448.12L469.049 453.756ZM454.968 475.213L445.841 468.042L454.968 475.213ZM438.205 492.647L445.282 501.847L445.525 501.66L445.758 501.46L438.205 492.647ZM420.1 502.035L416.912 490.875L416.55 490.978L416.197 491.104L420.1 502.035ZM378.527 501.364L374.217 512.141L374.334 512.188L374.452 512.232L378.527 501.364ZM359.082 487.954L367.289 479.746L367.137 479.594L366.98 479.448L359.082 487.954ZM341.648 467.167L331.99 473.605L331.99 473.605L341.648 467.167ZM326.226 439.675L315.528 444.179L315.635 444.434L315.755 444.683L326.226 439.675ZM316.167 411.513L304.936 414.442L304.995 414.669L305.063 414.892L316.167 411.513ZM308.121 376.645L296.751 378.977L296.753 378.987L296.755 378.996L308.121 376.645ZM300.075 323.673L288.523 324.8L288.524 324.814L288.525 324.828L300.075 323.673ZM300.745 194.93L312.297 196.062L312.298 196.052L312.299 196.041L300.745 194.93ZM312.144 127.206L323.418 129.967L323.436 129.892L323.454 129.816L312.144 127.206ZM326.896 80.9391L316.378 76.0308L316.31 76.1765L316.246 76.3241L326.896 80.9391ZM348.353 46.7419L339.765 38.9342L339.651 39.0596L339.541 39.1882L348.353 46.7419ZM373.833 25.2848L368.428 15.0136L368.311 15.0748L368.197 15.1385L373.833 25.2848ZM427.476 25.2848L421.839 35.431L421.954 35.4948L422.07 35.5559L427.476 25.2848ZM452.957 46.7419L444.172 54.3284L444.25 54.4182L444.329 54.5065L452.957 46.7419ZM488.495 121.171L499.755 118.356L499.746 118.318L499.736 118.281L488.495 121.171ZM500.564 188.895L489.031 190.201L489.033 190.213L489.034 190.226L500.564 188.895ZM431.499 261.313L419.893 261.187L419.893 261.224L419.893 261.26L431.499 261.313ZM431.499 164.085H419.893V164.195L419.895 164.304L431.499 164.085ZM430.829 118.489L419.239 119.116L419.244 119.216L419.251 119.316L430.829 118.489ZM426.806 77.5865L415.281 78.9694L415.313 79.2329L415.357 79.4946L426.806 77.5865ZM420.1 52.7767L430.126 46.9283L430.037 46.7753L429.943 46.6251L420.1 52.7767ZM411.383 45.4008L405.625 55.4784L406.435 55.9412L407.308 56.2687L411.383 45.4008ZM383.221 50.0946L375.79 41.1779L374.497 42.2556L373.563 43.6562L383.221 50.0946ZM376.516 66.8579L365.255 64.0428L365.255 64.0428L376.516 66.8579ZM369.81 161.403L358.207 161.11L358.205 161.183L358.204 161.256L369.81 161.403ZM370.481 389.385L382.078 388.912L370.481 389.385ZM373.833 439.675L362.303 441.006L362.305 441.018L362.306 441.031L373.833 439.675ZM377.186 459.791L365.876 462.401L365.97 462.807L366.093 463.205L377.186 459.791ZM383.221 472.531L374.304 479.962L374.356 480.024L374.408 480.085L383.221 472.531ZM391.267 479.237L386.077 489.618L387.041 490.101L388.079 490.397L391.267 479.237ZM412.054 477.896L417.813 487.973L417.813 487.973L412.054 477.896ZM420.1 469.849L429.943 476.001L430.235 475.533L430.482 475.04L420.1 469.849ZM426.806 445.039L415.37 443.051L415.328 443.294L415.296 443.538L426.806 445.039ZM430.829 409.501L442.41 410.273L442.434 409.914L442.436 409.554L430.829 409.501ZM492.981 262.654C492.981 285.453 491.665 307.322 489.047 328.268L512.082 331.147C514.828 309.178 516.195 286.345 516.195 262.654H492.981ZM489.02 328.505C486.827 349.556 483.538 370.385 479.154 390.993L501.859 395.824C506.415 374.411 509.832 352.773 512.109 330.91L489.02 328.505ZM479.176 390.89C476.578 402.579 473.567 413.317 470.156 423.122L492.082 430.748C495.824 419.99 499.07 408.377 501.837 395.926L479.176 390.89ZM470.156 423.122C466.775 432.843 463.051 441.061 459.045 447.871L479.054 459.641C483.988 451.253 488.311 441.59 492.082 430.748L470.156 423.122ZM458.903 448.12C454.686 455.71 450.325 462.336 445.841 468.042L464.095 482.384C469.445 475.575 474.472 467.896 479.196 459.393L458.903 448.12ZM445.841 468.042C441.41 473.683 436.353 478.947 430.651 483.835L445.758 501.46C452.573 495.619 458.692 489.261 464.095 482.384L445.841 468.042ZM431.128 483.447C426.331 487.137 421.595 489.536 416.912 490.875L423.289 513.195C431.122 510.957 438.456 507.098 445.282 501.847L431.128 483.447ZM416.197 491.104C411.203 492.888 406.042 493.781 400.655 493.781V516.994C408.678 516.994 416.481 515.652 424.004 512.966L416.197 491.104ZM400.655 493.781C394.455 493.781 388.459 492.692 382.603 490.496L374.452 512.232C382.9 515.4 391.656 516.994 400.655 516.994V493.781ZM382.838 490.588C377.882 488.605 372.68 485.137 367.289 479.746L350.874 496.161C358 503.287 365.762 508.759 374.217 512.141L382.838 490.588ZM366.98 479.448C361.468 474.33 356.231 468.117 351.305 460.729L331.99 473.605C337.793 482.31 344.179 489.955 351.184 496.459L366.98 479.448ZM351.305 460.729C346.294 453.211 341.417 444.538 336.696 434.667L315.755 444.683C320.868 455.375 326.273 465.03 331.99 473.605L351.305 460.729ZM336.923 435.171C333.524 427.1 330.303 418.094 327.272 408.133L305.063 414.892C308.29 425.494 311.774 435.264 315.528 444.179L336.923 435.171ZM327.399 408.583C324.777 398.533 322.139 387.108 319.487 374.293L296.755 378.996C299.468 392.109 302.194 403.93 304.936 414.442L327.399 408.583ZM319.491 374.313C315.996 357.272 313.373 340.007 311.624 322.518L288.525 324.828C290.353 343.1 293.094 361.15 296.751 378.977L319.491 374.313ZM311.627 322.546C309.877 304.608 308.999 286.21 308.999 267.348H285.786C285.786 286.93 286.696 306.081 288.523 324.8L311.627 322.546ZM308.999 267.348C308.999 242.204 310.102 218.445 312.297 196.062L289.194 193.797C286.918 217.011 285.786 241.531 285.786 267.348H308.999ZM312.299 196.041C314.482 173.332 318.191 151.31 323.418 129.967L300.871 124.445C295.369 146.911 291.478 170.038 289.192 193.819L312.299 196.041ZM323.454 129.816C327.352 112.923 332.069 98.1933 337.546 85.5541L316.246 76.3241C310.1 90.5064 304.983 106.622 300.835 124.596L323.454 129.816ZM337.414 85.8475C343.311 73.2105 349.924 62.7438 357.166 54.2956L339.541 39.1882C330.689 49.5149 322.997 61.8464 316.378 76.0308L337.414 85.8475ZM356.942 54.5495C365.376 45.2722 372.901 39.0809 379.47 35.431L368.197 15.1385C358.674 20.4291 349.212 28.5426 339.765 38.9342L356.942 54.5495ZM379.239 35.5559C386.105 31.9426 393.194 30.1863 400.655 30.1863V6.97254C389.34 6.97254 378.549 9.68655 368.428 15.0136L379.239 35.5559ZM400.655 30.1863C408.656 30.1863 415.635 31.9842 421.839 35.431L433.113 15.1385C423.225 9.64491 412.323 6.97254 400.655 6.97254V30.1863ZM422.07 35.5559C428.913 39.1574 436.312 45.2277 444.172 54.3284L461.741 39.1554C452.614 28.587 443.026 20.3526 432.882 15.0136L422.07 35.5559ZM444.329 54.5065C451.498 62.4722 457.821 72.1956 463.216 83.8153L484.271 74.0397C478.043 60.6261 470.508 48.8924 461.584 38.9773L444.329 54.5065ZM463.216 83.8153C468.683 95.5917 473.378 108.989 477.254 124.062L499.736 118.281C495.565 102.062 490.426 87.2966 484.271 74.0397L463.216 83.8153ZM477.235 123.986C482.465 144.91 486.402 166.978 489.031 190.201L512.098 187.59C509.362 163.428 505.253 140.347 499.755 118.356L477.235 123.986ZM489.034 190.226C491.66 212.985 492.981 237.124 492.981 262.654H516.195C516.195 236.329 514.833 211.296 512.095 187.565L489.034 190.226ZM443.106 261.439C443.553 220.268 443.554 187.727 443.104 163.866L419.895 164.304C420.338 187.828 420.34 220.105 419.893 261.187L443.106 261.439ZM443.106 164.085C443.106 140.09 442.889 124.424 442.406 117.662L419.251 119.316C419.663 125.071 419.893 139.802 419.893 164.085H443.106ZM442.419 117.863C441.512 101.09 440.14 86.9892 438.255 75.6783L415.357 79.4946C417.048 89.6409 418.357 102.808 419.239 119.116L442.419 117.863ZM438.33 76.2036C436.929 64.5257 434.462 54.361 430.126 46.9283L410.075 58.6251C411.997 61.9209 414.001 68.2961 415.281 78.9694L438.33 76.2036ZM429.943 46.6251C426.505 41.124 421.674 36.8635 415.459 34.5329L407.308 56.2687C408.245 56.6202 409.226 57.2771 410.258 58.9283L429.943 46.6251ZM417.142 35.3232C411.884 32.3188 405.994 31.1118 399.984 31.1118V54.3255C402.915 54.3255 404.624 54.9066 405.625 55.4784L417.142 35.3232ZM399.984 31.1118C395.134 31.1118 390.441 32.1665 386.077 34.3488L396.458 55.1118C397.458 54.6119 398.576 54.3255 399.984 54.3255V31.1118ZM386.077 34.3488C382.476 36.1492 379.051 38.461 375.79 41.1779L390.652 59.0112C392.755 57.2579 394.695 55.9935 396.458 55.1118L386.077 34.3488ZM373.563 43.6562C369.862 49.2077 367.215 56.2049 365.255 64.0428L387.776 69.673C389.393 63.2062 391.215 59.0278 392.878 56.5329L373.563 43.6562ZM365.255 64.0428C363.273 71.9718 361.857 81.3328 360.929 92.0033L384.056 94.0143C384.916 84.1217 386.182 76.0487 387.776 69.673L365.255 64.0428ZM360.929 92.0033C359.998 102.71 359.099 125.889 358.207 161.11L381.413 161.697C382.31 126.288 383.199 103.871 384.056 94.0143L360.929 92.0033ZM358.204 161.256C357.756 196.643 357.533 244.977 357.533 306.239H380.747C380.747 245.016 380.97 196.793 381.416 161.55L358.204 161.256ZM357.533 306.239C357.533 339.85 357.981 367.737 358.884 389.858L382.078 388.912C381.193 367.224 380.747 339.681 380.747 306.239H357.533ZM358.884 389.858C359.781 411.848 360.912 428.951 362.303 441.006L385.364 438.345C384.073 427.154 382.969 410.73 382.078 388.912L358.884 389.858ZM362.306 441.031C363.237 448.941 364.418 456.08 365.876 462.401L388.496 457.181C387.272 451.88 386.218 445.608 385.361 438.319L362.306 441.031ZM366.093 463.205C368.047 469.557 370.611 475.53 374.304 479.962L392.138 465.101C391.361 464.169 389.901 461.647 388.28 456.378L366.093 463.205ZM374.408 480.085C377.744 483.977 381.597 487.378 386.077 489.618L396.458 468.855C395.574 468.413 394.062 467.344 392.034 464.978L374.408 480.085ZM388.079 490.397C392.342 491.615 396.776 492.185 401.325 492.185V468.971C398.722 468.971 396.451 468.646 394.456 468.076L388.079 490.397ZM401.325 492.185C407.128 492.185 412.732 490.876 417.813 487.973L406.295 467.818C405.117 468.491 403.569 468.971 401.325 468.971V492.185ZM417.813 487.973C422.869 485.084 426.865 480.925 429.943 476.001L410.258 463.698C408.865 465.925 407.497 467.131 406.295 467.818L417.813 487.973ZM430.482 475.04C434.397 467.209 436.879 457.548 438.315 446.541L415.296 443.538C414.05 453.094 412.062 459.973 409.719 464.658L430.482 475.04ZM438.241 447.028C440.116 436.249 441.496 423.982 442.41 410.273L419.248 408.729C418.374 421.841 417.072 433.267 415.37 443.051L438.241 447.028ZM442.436 409.554L443.106 261.365L419.893 261.26L419.222 409.449L442.436 409.554ZM596.126 27.9669V16.36H587.039L584.858 25.182L596.126 27.9669ZM744.985 27.9669L756.215 30.9002L760.013 16.36H744.985V27.9669ZM721.516 117.819V129.425H730.481L732.746 120.752L721.516 117.819ZM596.126 117.819V106.212H587.283L584.936 114.737L596.126 117.819ZM583.386 164.085L572.196 161.004L568.351 174.967L582.816 175.678L583.386 164.085ZM655.133 180.849L650.125 191.32L650.169 191.341L650.213 191.361L655.133 180.849ZM708.776 223.763L699.649 230.934L699.668 230.958L699.686 230.981L708.776 223.763ZM735.597 274.053L724.533 277.561L724.572 277.683L724.613 277.804L735.597 274.053ZM740.962 378.656L752.357 380.862L752.363 380.829L752.37 380.795L740.962 378.656ZM728.221 419.559L738.855 424.211L738.863 424.193L738.871 424.174L728.221 419.559ZM707.435 456.438L716.769 463.338L716.769 463.337L707.435 456.438ZM680.613 483.26L673.714 473.926L680.613 483.26ZM648.428 500.023L644.89 488.969L644.824 488.99L644.757 489.012L648.428 500.023ZM579.363 500.023L583.176 489.061L583.03 489.01L582.882 488.963L579.363 500.023ZM553.212 483.93L561.419 475.723L561.419 475.723L553.212 483.93ZM542.483 468.508L531.65 472.675L531.708 472.824L531.769 472.972L542.483 468.508ZM546.507 423.582L556.349 429.734L556.508 429.48L556.653 429.219L546.507 423.582ZM554.553 414.865L560.312 424.943L560.821 424.652L561.299 424.31L554.553 414.865ZM573.328 412.854L569.658 423.865L569.897 423.945L570.139 424.014L573.328 412.854ZM583.386 417.547L590.132 408.103L589.841 407.895L589.538 407.705L583.386 417.547ZM596.126 428.276L588.283 436.832L588.485 437.017L588.696 437.193L596.126 428.276ZM615.572 447.051L607.133 455.021L607.247 455.141L607.364 455.258L615.572 447.051ZM628.982 459.121L636.108 449.959L636.108 449.959L628.982 459.121ZM640.381 467.167L634.23 477.01L634.319 477.066L634.41 477.12L640.381 467.167ZM647.757 470.52L644.087 481.531L644.951 481.819L645.849 481.969L647.757 470.52ZM674.579 466.496L680.427 476.522L680.728 476.347L681.017 476.154L674.579 466.496ZM689.33 450.404L679.766 443.828L679.622 444.037L679.488 444.252L689.33 450.404ZM700.059 427.605L688.991 424.11L688.93 424.304L688.876 424.499L700.059 427.605ZM693.354 345.8L682.7 350.407L682.723 350.461L682.747 350.514L693.354 345.8ZM661.839 301.545L669.768 293.069L669.768 293.069L661.839 301.545ZM614.901 273.383L610.889 284.274L611.059 284.336L611.231 284.394L614.901 273.383ZM537.79 263.995L526.522 261.21L522.965 275.602H537.79V263.995ZM596.126 39.5738H744.985V16.36H596.126V39.5738ZM733.755 25.0337L710.286 114.885L732.746 120.752L756.215 30.9002L733.755 25.0337ZM721.516 106.212H596.126V129.425H721.516V106.212ZM584.936 114.737L572.196 161.004L594.576 167.167L607.317 120.9L584.936 114.737ZM582.816 175.678C608.843 176.958 631.198 182.268 650.125 191.32L660.141 170.378C637.942 159.761 612.465 153.895 583.956 152.493L582.816 175.678ZM650.213 191.361C669.53 200.403 685.985 213.543 699.649 230.934L717.903 216.592C702.063 196.433 682.757 180.964 660.054 170.337L650.213 191.361ZM699.686 230.981C710.886 245.084 719.153 260.593 724.533 277.561L746.661 270.545C740.419 250.858 730.805 232.839 717.865 216.545L699.686 230.981ZM724.613 277.804C730.393 294.732 733.378 313.999 733.378 335.742H756.592C756.592 311.889 753.318 290.03 746.581 270.302L724.613 277.804ZM733.378 335.742C733.378 349.317 732.106 362.906 729.553 376.517L752.37 380.795C755.182 365.798 756.592 350.777 756.592 335.742H733.378ZM729.566 376.451C727.05 389.452 723.059 402.28 717.571 414.944L738.871 424.174C745.006 410.017 749.509 395.576 752.357 380.862L729.566 376.451ZM717.588 414.907C711.604 428.584 705.086 440.089 698.101 449.539L716.769 463.337C724.983 452.225 732.322 439.143 738.855 424.211L717.588 414.907ZM698.101 449.539C691.188 458.893 683.068 467.013 673.714 473.926L687.513 492.594C698.722 484.308 708.483 474.547 716.769 463.338L698.101 449.539ZM673.714 473.926C664.361 480.839 654.756 485.812 644.89 488.969L651.965 511.078C664.451 507.082 676.303 500.879 687.513 492.594L673.714 473.926ZM644.757 489.012C635.29 492.168 625.137 493.781 614.231 493.781V516.994C627.464 516.994 640.109 515.031 652.098 511.034L644.757 489.012ZM614.231 493.781C602.324 493.781 592.023 492.138 583.176 489.061L575.55 510.986C587.266 515.061 600.21 516.994 614.231 516.994V493.781ZM582.882 488.963C574.89 486.42 567.763 482.066 561.419 475.723L545.005 492.138C553.86 500.993 564.167 507.368 575.844 511.084L582.882 488.963ZM561.419 475.723C557.368 471.671 554.747 467.762 553.197 464.044L531.769 472.972C534.69 479.982 539.222 486.355 545.005 492.138L561.419 475.723ZM553.317 464.341C551.631 459.959 550.738 455.124 550.738 449.733H527.524C527.524 457.753 528.865 465.435 531.65 472.675L553.317 464.341ZM550.738 449.733C550.738 445.885 551.26 442.319 552.26 438.987L530.025 432.317C528.342 437.926 527.524 443.747 527.524 449.733H550.738ZM552.26 438.987C553.335 435.404 554.718 432.345 556.349 429.734L536.664 417.431C533.825 421.972 531.632 426.959 530.025 432.317L552.26 438.987ZM556.653 429.219C558.139 426.543 559.468 425.425 560.312 424.943L548.794 404.788C543.38 407.882 539.344 412.575 536.36 417.945L556.653 429.219ZM561.299 424.31C562.617 423.369 563.639 423.12 564.611 423.12V399.906C558.43 399.906 552.748 401.891 547.807 405.42L561.299 424.31ZM564.611 423.12C566.625 423.12 568.278 423.405 569.658 423.865L576.998 401.842C573.013 400.514 568.855 399.906 564.611 399.906V423.12ZM570.139 424.014C571.968 424.537 574.323 425.57 577.234 427.39L589.538 407.705C585.297 405.054 580.946 402.959 576.517 401.693L570.139 424.014ZM576.64 426.992C579.185 428.811 583.018 432.006 588.283 436.832L603.969 419.72C598.506 414.712 593.845 410.755 590.132 408.103L576.64 426.992ZM588.696 437.193C593.563 441.249 599.691 447.14 607.133 455.021L624.01 439.081C616.254 430.869 609.418 424.244 603.557 419.359L588.696 437.193ZM607.364 455.258C612.509 460.403 617.345 464.774 621.856 468.283L636.108 449.959C632.573 447.209 628.469 443.534 623.779 438.844L607.364 455.258ZM621.856 468.283C626.13 471.607 630.257 474.527 634.23 477.01L646.533 457.324C643.354 455.337 639.881 452.893 636.108 449.959L621.856 468.283ZM634.41 477.12C637.429 478.932 640.668 480.392 644.087 481.531L651.428 459.508C649.482 458.86 647.804 458.085 646.353 457.214L634.41 477.12ZM645.849 481.969C649.248 482.535 652.799 482.797 656.474 482.797V459.583C653.891 459.583 651.631 459.398 649.665 459.071L645.849 481.969ZM656.474 482.797C665.065 482.797 673.147 480.769 680.427 476.522L668.73 456.471C665.282 458.482 661.294 459.583 656.474 459.583V482.797ZM681.017 476.154C688.105 471.428 694.087 464.693 699.173 456.555L679.488 444.252C675.633 450.419 671.781 454.412 668.14 456.839L681.017 476.154ZM698.895 456.979C704.511 448.81 708.65 440.045 711.242 430.712L688.876 424.499C686.998 431.259 683.984 437.692 679.766 443.828L698.895 456.979ZM711.127 431.101C714.201 421.365 715.689 411.011 715.689 400.114H692.475C692.475 408.885 691.281 416.859 688.991 424.11L711.127 431.101ZM715.689 400.114C715.689 378.604 711.86 358.86 703.96 341.086L682.747 350.514C689.152 364.926 692.475 381.391 692.475 400.114H715.689ZM704.007 341.193C696.189 323.113 684.727 307.063 669.768 293.069L653.909 310.021C666.666 321.955 676.214 335.408 682.7 350.407L704.007 341.193ZM669.768 293.069C654.73 279.002 637.643 268.729 618.572 262.371L611.231 284.394C627.027 289.659 641.231 298.161 653.909 310.021L669.768 293.069ZM618.914 262.491C600.428 255.681 579.814 252.388 557.235 252.388V275.602C577.571 275.602 595.4 278.568 610.889 284.274L618.914 262.491ZM557.235 252.388H537.79V275.602H557.235V252.388ZM549.057 266.78L607.394 30.7519L584.858 25.182L526.522 261.21L549.057 266.78Z" fill="black" mask="url(#path-1-outside-1_2164_55805)"/>
</svg>
