<svg width="380" height="218" viewBox="0 0 380 218" fill="none" xmlns="http://www.w3.org/2000/svg">
<mask id="mask0_2080_51393" style="mask-type:alpha" maskUnits="userSpaceOnUse" x="0" y="0" width="380" height="218">
<rect width="380" height="218" fill="white"/>
</mask>
<g mask="url(#mask0_2080_51393)">
<rect x="-1.19194" y="-0.715306" width="677.965" height="77.5777" transform="matrix(0.965926 -0.258819 0.226012 0.974125 -140.436 159.337)" fill="white" stroke="black" stroke-width="2"/>
</g>
<path d="M64.4716 117.717C67.0047 116.893 69.4304 116.75 71.7488 117.289C74.0671 117.827 76.3231 119.034 78.5167 120.91C80.7104 122.787 82.5769 125.064 84.1162 127.744C85.6885 130.366 86.9397 133.413 87.8697 136.884C88.6669 139.859 89.1167 142.71 89.2191 145.436C89.3216 148.162 89.0888 150.81 88.5207 153.377C87.7402 156.775 86.4449 159.514 84.6347 161.593C82.8696 163.66 80.5671 165.075 77.7273 165.836C74.8875 166.596 72.176 166.574 69.5928 165.769C67.0426 164.906 64.5982 163.266 62.2596 160.849C60.3936 158.933 58.7948 156.753 57.4631 154.307C56.1645 151.805 55.0985 148.999 54.2651 145.888C53.3351 142.417 52.8953 139.153 52.9458 136.096C52.9962 133.039 53.5023 130.149 54.464 127.428C55.4136 124.661 56.7126 122.477 58.361 120.876C60.0545 119.263 62.0914 118.21 64.4716 117.717ZM65.4075 119.857C63.9651 120.244 62.8253 121.129 61.9883 122.513C61.1963 123.885 60.7071 125.755 60.5205 128.124C60.3726 130.096 60.479 132.387 60.8399 134.995C61.2458 137.592 61.9017 140.581 62.8076 143.962C63.8705 147.928 65.0198 151.316 66.2557 154.126C67.5366 156.923 68.904 159.141 70.3579 160.781C71.3392 161.919 72.3938 162.699 73.5216 163.122C74.6494 163.544 75.7992 163.598 76.9712 163.284C77.7826 163.067 78.4676 162.738 79.0262 162.299C79.6178 161.802 80.1056 161.188 80.4895 160.457C80.9724 159.555 81.3272 158.445 81.5541 157.128C81.781 155.811 81.8634 154.316 81.8013 152.642C81.7721 150.91 81.5699 148.983 81.1946 146.862C80.8073 144.695 80.2694 142.327 79.5809 139.757C78.7475 136.647 77.9387 133.989 77.1545 131.783C76.3582 129.533 75.5519 127.696 74.7355 126.272C73.9642 124.836 73.1918 123.666 72.4181 122.762C71.6324 121.813 70.8395 121.107 70.0393 120.645C69.2391 120.184 68.4587 119.885 67.698 119.751C66.9373 119.617 66.1738 119.652 65.4075 119.857ZM100.672 136.715L104.187 149.832C104.537 151.139 104.843 152.193 105.106 152.992C105.401 153.734 105.642 154.273 105.829 154.61C106.004 154.901 106.218 155.158 106.47 155.38C106.756 155.545 107.064 155.704 107.395 155.857C107.726 156.01 108.152 156.065 108.672 156.022C109.192 155.979 109.812 155.861 110.533 155.668L110.878 156.953L94.5148 161.337L94.1706 160.053C94.9369 159.847 95.5559 159.633 96.0275 159.41C96.4992 159.187 96.8401 158.927 97.0502 158.629C97.2602 158.331 97.4252 158.045 97.5452 157.771C97.653 157.453 97.7262 157.095 97.7648 156.698C97.7704 156.358 97.6931 155.799 97.5328 155.021C97.3605 154.198 97.0992 153.132 96.7489 151.825L88.5237 121.128C88.1734 119.821 87.8731 118.79 87.6227 118.036C87.3723 117.281 87.1537 116.736 86.9669 116.4C86.735 116.075 86.4988 115.825 86.2581 115.647C86.0053 115.425 85.7135 115.238 85.3826 115.085C85.0518 114.932 84.6263 114.877 84.1063 114.92C83.5863 114.962 82.9432 115.086 82.1769 115.292L81.8327 114.007L95.8965 110.239C98.1954 109.623 100.241 109.413 102.033 109.609C103.858 109.748 105.451 110.287 106.814 111.226C108.177 112.166 109.306 113.313 110.2 114.667C111.095 116.022 111.789 117.623 112.285 119.472C112.707 121.049 112.914 122.54 112.903 123.944C112.926 125.291 112.773 126.612 112.444 127.908C112.102 129.159 111.584 130.288 110.887 131.296C110.179 132.259 109.316 133.094 108.298 133.802C107.604 134.278 106.621 134.758 105.35 135.244C104.08 135.729 102.52 136.22 100.672 136.715ZM94.4757 113.59L99.9471 134.01C100.23 133.983 100.461 133.945 100.641 133.897C100.867 133.836 101.047 133.788 101.182 133.752C102.129 133.498 102.931 133.066 103.589 132.455C104.246 131.844 104.708 131.043 104.975 130.054C105.241 129.065 105.334 127.88 105.254 126.501C105.175 125.121 104.899 123.552 104.428 121.794C103.957 120.036 103.417 118.562 102.809 117.373C102.188 116.138 101.521 115.181 100.808 114.503C100.094 113.824 99.2776 113.391 98.3576 113.203C97.4825 113.002 96.5267 113.041 95.4899 113.319L94.4757 113.59ZM133.091 108.751C132.741 107.444 132.412 106.397 132.105 105.609C131.785 104.777 131.452 104.166 131.106 103.775C130.748 103.34 130.291 103.076 129.734 102.983C129.178 102.891 128.494 102.953 127.683 103.171L126.669 103.443L126.324 102.158L143.499 97.5561L143.843 98.8408L142.761 99.1306C141.995 99.336 141.394 99.6178 140.958 99.976C140.523 100.334 140.247 100.746 140.13 101.212C140.013 101.679 140.008 102.38 140.115 103.318C140.266 104.244 140.535 105.428 140.922 106.87L149.255 137.973C149.642 139.416 150.007 140.598 150.351 141.521C150.728 142.386 151.083 142.991 151.417 143.337C151.808 143.715 152.26 143.956 152.771 144.061C153.315 144.108 153.97 144.029 154.737 143.824L155.818 143.534L156.163 144.819L138.988 149.421L138.644 148.136L139.658 147.864C140.425 147.659 141.026 147.377 141.461 147.019C141.897 146.661 142.167 146.226 142.271 145.715C142.376 145.204 142.352 144.485 142.201 143.559C142.095 142.622 141.854 141.454 141.48 140.057L134.613 114.431L130.315 143.556C130.617 144.683 130.922 145.64 131.229 146.427C131.537 147.214 131.847 147.831 132.16 148.279C132.519 148.714 132.982 149.001 133.55 149.139C134.106 149.231 134.813 149.163 135.669 148.933L136.751 148.643L137.095 149.928L119.853 154.548L119.509 153.263L120.591 152.973C121.357 152.768 121.958 152.486 122.394 152.128C122.829 151.77 123.099 151.335 123.204 150.824C123.308 150.313 123.307 149.588 123.201 148.65C123.095 147.713 122.854 146.545 122.48 145.148L114.146 114.045C113.76 112.602 113.4 111.443 113.069 110.565C112.737 109.688 112.404 109.076 112.07 108.731C111.736 108.386 111.291 108.167 110.735 108.074C110.178 107.982 109.472 108.05 108.615 108.28L107.534 108.57L107.189 107.285L124.431 102.665L124.775 103.95L123.694 104.24C122.927 104.445 122.326 104.727 121.891 105.085C121.501 105.431 121.259 105.882 121.167 106.439C121.017 106.962 120.995 107.692 121.102 108.63C121.253 109.556 121.504 110.672 121.854 111.98L128.793 137.876L133.091 108.751ZM142.942 97.7053L171.137 90.1503L174.561 102.93L173.682 103.165C173.079 101.636 172.498 100.366 171.937 99.357C171.41 98.2904 170.904 97.4839 170.419 96.9374C169.968 96.3337 169.507 95.8773 169.038 95.5683C168.569 95.2592 168.107 95.0689 167.653 94.9973C167.142 94.8927 166.452 94.9326 165.583 95.117C164.748 95.2442 163.699 95.477 162.437 95.8152L155.946 97.5544L165.711 133.999C166.061 135.306 166.419 136.37 166.784 137.19C167.148 138.01 167.492 138.57 167.814 138.871C168.181 139.159 168.636 139.327 169.181 139.374C169.725 139.421 170.335 139.355 171.011 139.173L171.822 138.956L172.167 140.241L155.533 144.698L155.189 143.413L156.068 143.177C156.789 142.984 157.351 142.737 157.754 142.436C158.189 142.078 158.471 141.688 158.6 141.267C158.729 140.846 158.752 140.212 158.67 139.364C158.576 138.471 158.353 137.371 158.003 136.064L149.325 103.677C149.047 102.64 148.76 101.75 148.465 101.008C148.169 100.266 147.849 99.6999 147.502 99.3096C147.156 98.9192 146.728 98.6717 146.216 98.5671C145.705 98.4625 145.067 98.5129 144.3 98.7182L143.286 98.9899L142.942 97.7053ZM194.777 92.2226C194.426 90.9154 194.098 89.8681 193.79 89.0809C193.47 88.2486 193.137 87.6373 192.791 87.2469C192.433 86.8115 191.976 86.5475 191.42 86.4549C190.863 86.3624 190.18 86.4249 189.368 86.6423L188.354 86.914L188.01 85.6294L205.184 81.0275L205.528 82.3122L204.446 82.6021C203.68 82.8074 203.079 83.0892 202.644 83.4475C202.208 83.8057 201.932 84.2179 201.815 84.684C201.699 85.15 201.694 85.852 201.8 86.7897C201.951 87.7154 202.22 88.8995 202.607 90.3419L210.941 121.445C211.327 122.887 211.692 124.07 212.036 124.992C212.413 125.857 212.768 126.463 213.103 126.808C213.494 127.186 213.945 127.428 214.456 127.532C215 127.58 215.656 127.501 216.422 127.295L217.504 127.006L217.848 128.29L200.674 132.892L200.33 131.607L201.344 131.336C202.11 131.13 202.711 130.849 203.146 130.49C203.582 130.132 203.852 129.697 203.956 129.186C204.061 128.675 204.038 127.957 203.886 127.031C203.78 126.093 203.54 124.926 203.165 123.528L196.299 97.9022L192 127.027C192.302 128.154 192.607 129.111 192.915 129.898C193.222 130.686 193.532 131.303 193.846 131.75C194.204 132.186 194.667 132.472 195.235 132.61C195.792 132.703 196.498 132.634 197.354 132.405L198.436 132.115L198.781 133.399L181.539 138.019L181.195 136.735L182.276 136.445C183.043 136.239 183.644 135.958 184.079 135.599C184.514 135.241 184.784 134.806 184.889 134.295C184.994 133.784 184.993 133.06 184.886 132.122C184.78 131.184 184.54 130.017 184.165 128.619L175.831 97.5164C175.445 96.0739 175.086 94.914 174.754 94.0367C174.422 93.1593 174.089 92.5479 173.755 92.2026C173.421 91.8574 172.976 91.6384 172.42 91.5459C171.864 91.4534 171.157 91.5219 170.301 91.7514L169.219 92.0412L168.875 90.7566L186.117 86.1366L186.461 87.4213L185.379 87.7112C184.613 87.9165 184.012 88.1983 183.576 88.5566C183.186 88.9027 182.944 89.3539 182.852 89.9102C182.702 90.4334 182.681 91.1639 182.787 92.1017C182.938 93.0273 183.189 94.1438 183.539 95.451L190.478 121.347L194.777 92.2226ZM223.915 102.315L227.829 116.92C228.155 118.137 228.443 119.122 228.693 119.877C228.932 120.586 229.138 121.086 229.313 121.377C229.488 121.669 229.701 121.926 229.954 122.148C230.207 122.37 230.499 122.557 230.83 122.71C231.16 122.863 231.518 122.936 231.903 122.93C232.288 122.923 232.706 122.86 233.156 122.739L234.238 122.449L234.582 123.734L217.746 128.245L217.402 126.96L218.484 126.67C218.98 126.538 219.396 126.378 219.732 126.191C220.057 125.959 220.324 125.694 220.534 125.396C220.711 125.156 220.831 124.882 220.894 124.575C221.002 124.257 221.046 123.882 221.028 123.452C221.045 123.158 220.98 122.644 220.832 121.911C220.672 121.132 220.435 120.157 220.121 118.985L211.823 88.0174C211.497 86.8004 211.214 85.8373 210.976 85.1281C210.726 84.3739 210.513 83.8511 210.338 83.5597C210.164 83.2683 209.956 83.0341 209.715 82.8571C209.508 82.6228 209.238 82.4293 208.908 82.2763C208.577 82.1234 208.213 82.0277 207.816 81.9891C207.464 81.9384 207.04 81.9795 206.545 82.1123L205.463 82.4022L205.119 81.1175L221.955 76.6063L222.299 77.891L221.217 78.1809C220.721 78.3137 220.311 78.4961 219.987 78.7279C219.662 78.9598 219.395 79.2247 219.185 79.5225C219.008 79.7632 218.866 80.0429 218.758 80.3617C218.695 80.6684 218.65 81.0427 218.624 81.4846C218.606 81.7793 218.677 82.3158 218.838 83.0941C218.986 83.8274 219.217 84.7801 219.531 85.9521L223.1 99.2722L234.459 96.2285L230.89 82.9084C230.564 81.6913 230.282 80.7282 230.044 80.019C229.793 79.2648 229.581 78.742 229.406 78.4506C229.231 78.1593 229.023 77.925 228.783 77.748C228.53 77.5258 228.238 77.3383 227.907 77.1854C227.622 77.0204 227.28 76.9186 226.883 76.88C226.487 76.8414 226.063 76.8825 225.612 77.0032L224.53 77.2931L224.186 76.0084L240.954 71.5153L241.299 72.8L240.284 73.0718C239.789 73.2046 239.378 73.387 239.054 73.6189C238.73 73.8507 238.44 74.1216 238.185 74.4315C238.008 74.6722 237.888 74.9459 237.825 75.2526C237.762 75.5593 237.718 75.9336 237.691 76.3756C237.673 76.6702 237.745 77.2067 237.905 77.985C238.053 78.7183 238.284 79.671 238.598 80.843L246.896 111.811C247.222 113.028 247.51 114.013 247.761 114.767C247.999 115.477 248.206 115.977 248.38 116.268C248.555 116.56 248.769 116.816 249.022 117.039C249.274 117.261 249.566 117.448 249.897 117.601C250.228 117.754 250.563 117.833 250.903 117.839C251.288 117.832 251.728 117.763 252.224 117.63L253.238 117.358L253.582 118.643L236.814 123.136L236.469 121.851L237.551 121.561C238.047 121.429 238.463 121.269 238.8 121.082C239.124 120.85 239.391 120.585 239.601 120.287C239.778 120.047 239.898 119.773 239.961 119.466C240.069 119.148 240.114 118.773 240.095 118.343C240.113 118.049 240.048 117.535 239.899 116.801C239.739 116.023 239.502 115.048 239.188 113.876L235.275 99.2711L223.915 102.315ZM267.572 100.835L256.415 103.825L256.326 108.631C256.306 109.458 256.313 110.205 256.347 110.872C256.414 111.483 256.514 112.036 256.647 112.531C256.816 113.163 257.057 113.702 257.37 114.149C257.683 114.597 258.062 114.93 258.508 115.149C258.781 115.269 259.184 115.33 259.716 115.332C260.248 115.335 260.955 115.266 261.835 115.127L262.161 116.344L251.681 119.152L251.355 117.935C251.905 117.643 252.363 117.279 252.729 116.842C253.083 116.361 253.362 115.779 253.565 115.096C253.781 114.459 253.957 113.494 254.094 112.201C254.231 110.908 254.334 109.31 254.404 107.407L255.754 67.5498L256.227 67.4229L277.732 102.244C278.756 103.902 279.622 105.24 280.33 106.258C281.083 107.264 281.706 107.967 282.199 108.366C282.566 108.654 282.954 108.84 283.363 108.924C283.772 109.007 284.237 109.028 284.757 108.985L285.083 110.202L269.869 114.279L269.543 113.062L270.152 112.899C270.783 112.729 271.283 112.523 271.653 112.279C272.067 112.023 272.357 111.752 272.522 111.466C272.642 111.193 272.717 110.931 272.746 110.682C272.764 110.387 272.725 110.059 272.628 109.699C272.568 109.473 272.491 109.276 272.397 109.108C272.349 108.928 272.272 108.731 272.167 108.518C272.097 108.44 271.963 108.21 271.765 107.828C271.554 107.402 271.233 106.836 270.802 106.13L267.572 100.835ZM266.09 98.551L257.149 83.844L256.556 101.106L266.09 98.551ZM304.363 55.8295C303.461 56.0711 302.77 56.377 302.29 56.7473C301.797 57.0726 301.47 57.4743 301.308 57.9524C301.192 58.4185 301.168 59.0528 301.239 59.8554C301.309 60.6579 301.489 61.6001 301.778 62.6819L310.565 95.4751C310.904 96.7372 311.249 97.7559 311.602 98.531C311.954 99.3062 312.292 99.8439 312.614 100.144C312.981 100.432 313.487 100.61 314.134 100.679C314.768 100.702 315.536 100.593 316.438 100.351L316.782 101.636L300.554 105.984L300.21 104.7C300.886 104.518 301.444 104.345 301.882 104.179C302.309 103.968 302.639 103.759 302.874 103.551C303.096 103.298 303.267 103.035 303.387 102.761C303.494 102.443 303.568 102.085 303.606 101.688C303.6 101.303 303.535 100.789 303.411 100.146C303.32 99.4458 303.153 98.6449 302.912 97.7433L293.02 60.8256L285.311 62.891L289.08 76.9549C289.877 79.9299 290.526 82.5339 291.028 84.7668C291.575 86.9877 292.015 88.899 292.347 90.5008C292.668 92.0576 292.892 93.616 293.02 95.176C293.181 96.6788 293.201 98.1953 293.08 99.7256C293.003 101.244 292.811 102.6 292.503 103.793C292.228 104.93 291.826 105.956 291.298 106.87C290.803 107.727 290.221 108.439 289.551 109.005C288.881 109.571 288.118 109.969 287.262 110.198C286.496 110.403 285.755 110.433 285.039 110.286C284.381 110.173 283.741 109.861 283.122 109.351C282.559 108.874 282.068 108.305 281.65 107.644C281.231 106.983 280.901 106.202 280.659 105.3C280.454 104.534 280.34 103.84 280.319 103.217C280.297 102.595 280.361 102.022 280.51 101.499C280.648 100.931 280.867 100.486 281.167 100.164C281.467 99.8417 281.865 99.6142 282.361 99.4814C283.263 99.2398 284.07 99.4583 284.783 100.137C285.542 100.803 286.189 101.958 286.726 103.602C286.977 104.356 287.241 104.889 287.517 105.202C287.794 105.514 288.113 105.622 288.474 105.525C288.97 105.392 289.428 105.028 289.848 104.432C290.256 103.792 290.597 102.903 290.873 101.766C291.193 100.618 291.352 99.3188 291.35 97.8699C291.349 96.421 291.209 94.8159 290.93 93.0547C290.651 91.2935 290.225 89.1612 289.651 86.6578C289.076 84.1544 288.355 81.28 287.485 78.0345L285.093 69.1093C284.755 67.8472 284.432 66.8225 284.125 66.0353C283.85 65.1909 283.608 64.5554 283.397 64.1288C283.198 63.7473 282.949 63.4515 282.652 63.2414C282.387 62.9742 282.066 62.7701 281.69 62.6293C281.314 62.4885 280.844 62.4455 280.279 62.5002C279.714 62.555 279.042 62.6625 278.264 62.8228L277.919 61.5381L304.019 54.5448L304.363 55.8295ZM319.089 84.35L318.075 84.6217C317.646 83.3837 317.159 82.0166 316.613 80.5202C316.067 79.0238 315.395 77.4164 314.597 75.6979L311.441 68.7892C310.501 66.7222 309.729 64.9239 309.126 63.3946C308.523 61.8652 308.1 60.6498 307.859 59.7482C307.617 58.8467 307.496 58.0337 307.495 57.3093C307.494 56.5848 307.602 55.9038 307.817 55.2662C308.045 54.6738 308.348 54.1819 308.727 53.7907C309.105 53.3994 309.564 53.1313 310.105 52.9864C310.646 52.8415 311.178 52.8438 311.702 52.9935C312.225 53.1432 312.739 53.4402 313.245 53.8845C313.738 54.2837 314.166 54.7972 314.527 55.425C314.889 56.0529 315.178 56.7725 315.395 57.5839C315.625 58.4403 315.838 59.6876 316.036 61.3257C316.278 62.9516 316.527 64.9624 316.782 67.3579L317.572 74.9007C317.696 76.2683 317.874 77.7426 318.104 79.3235C318.38 80.8923 318.708 82.5678 319.089 84.35ZM319.902 89.2774C320.398 89.1446 320.885 89.159 321.363 89.3208C321.874 89.4254 322.382 89.6998 322.888 90.1441C323.394 90.5884 323.821 91.1019 324.17 91.6847C324.52 92.2675 324.797 92.942 325.003 93.7083C325.208 94.4746 325.305 95.1974 325.294 95.8768C325.282 96.5562 325.163 97.1921 324.935 97.7846C324.72 98.4221 324.423 98.9365 324.044 99.3278C323.711 99.7069 323.297 99.963 322.801 100.096C322.305 100.229 321.795 100.22 321.272 100.071C320.749 99.9209 320.234 99.6239 319.729 99.1796C319.235 98.7804 318.814 98.2894 318.465 97.7067C318.115 97.1239 317.838 96.4494 317.633 95.6831C317.427 94.9168 317.33 94.1939 317.341 93.5146C317.353 92.8352 317.466 92.1767 317.682 91.5392C317.897 90.9016 318.2 90.4098 318.591 90.0636C318.969 89.6724 319.406 89.4103 319.902 89.2774Z" fill="black"/>
</svg>
