<svg width="380" height="218" viewBox="0 0 380 218" fill="none" xmlns="http://www.w3.org/2000/svg">
<mask id="mask0_2080_51414" style="mask-type:alpha" maskUnits="userSpaceOnUse" x="0" y="0" width="380" height="218">
<rect width="380" height="218" fill="white"/>
</mask>
<g mask="url(#mask0_2080_51414)">
<rect x="-0.595969" y="-0.357653" width="676.965" height="76.5777" transform="matrix(0.965926 -0.258819 0.226012 0.974125 -140.496 159.501)" fill="white" stroke="black"/>
</g>
<path d="M133.437 99.3819L137.785 115.609L136.838 115.863C135.898 113.796 134.901 112.058 133.847 110.65C132.781 109.196 131.624 108.033 130.375 107.159C129.127 106.286 127.889 105.724 126.662 105.473C125.468 105.165 124.286 105.168 123.114 105.482C122.077 105.759 121.162 106.222 120.369 106.869C119.576 107.516 118.889 108.377 118.307 109.451C117.68 110.537 117.202 111.728 116.873 113.024C116.577 114.263 116.43 115.606 116.431 117.055C116.394 118.901 116.501 120.829 116.749 122.84C117.031 124.794 117.462 126.852 118.042 129.016C118.61 131.135 119.243 133.139 119.943 135.029C120.631 136.874 121.384 138.604 122.204 140.221C123.023 141.837 123.879 143.226 124.77 144.389C125.694 145.494 126.66 146.394 127.668 147.091C128.676 147.787 129.736 148.227 130.848 148.412C131.949 148.552 133.108 148.459 134.325 148.133C135.361 147.855 136.288 147.438 137.105 146.881C137.91 146.279 138.634 145.553 139.276 144.705C139.963 143.844 140.59 142.758 141.157 141.447C141.756 140.079 142.318 138.479 142.842 136.647L143.911 140.637C143.384 142.276 142.78 143.718 142.099 144.963C141.463 146.196 140.734 147.261 139.911 148.158C139.089 149.055 138.15 149.79 137.096 150.362C136.099 150.967 134.946 151.445 133.639 151.795C131.926 152.254 130.237 152.441 128.572 152.356C126.951 152.259 125.348 151.867 123.763 151.181C122.19 150.539 120.698 149.659 119.287 148.539C117.909 147.362 116.583 145.93 115.31 144.242C114.081 142.542 113.021 140.749 112.129 138.862C111.282 136.963 110.574 134.955 110.007 132.836C109.403 130.582 109.026 128.364 108.876 126.182C108.714 123.955 108.744 121.724 108.967 119.49C109.235 117.244 109.682 115.216 110.308 113.406C110.979 111.583 111.84 109.927 112.89 108.438C113.941 106.949 115.115 105.741 116.412 104.813C117.71 103.886 119.125 103.217 120.657 102.806C121.784 102.504 122.982 102.376 124.251 102.423C125.519 102.47 126.859 102.69 128.269 103.086C129.144 103.286 129.815 103.444 130.281 103.561C130.78 103.621 131.142 103.62 131.367 103.56C131.638 103.487 131.845 103.359 131.989 103.176C132.178 102.98 132.327 102.723 132.435 102.404C132.588 102.073 132.655 101.693 132.636 101.263C132.606 100.788 132.557 100.246 132.49 99.6356L133.437 99.3819ZM133.682 100.113L150.451 95.6201L150.795 96.9048L150.254 97.0497C149.443 97.2672 148.797 97.561 148.316 97.9313C147.836 98.3017 147.537 98.7199 147.42 99.1859C147.271 99.7092 147.237 100.395 147.319 101.242C147.389 102.045 147.581 103.032 147.895 104.204L151.7 118.403C152.827 118.101 153.722 117.837 154.387 117.611C155.084 117.327 155.6 117.092 155.937 116.906C156.261 116.674 156.516 116.364 156.702 115.976C156.933 115.576 157.118 115.091 157.255 114.523C157.426 113.898 157.507 113.03 157.5 111.921C157.493 110.812 157.425 109.477 157.297 107.917C157.129 106.03 157.006 104.396 156.926 103.016C156.846 101.637 156.843 100.454 156.917 99.4677C156.991 98.4816 157.118 97.6022 157.297 96.8294C157.51 95.9995 157.797 95.2701 158.16 94.6414C158.568 94.0007 159.052 93.4605 159.61 93.0209C160.169 92.5814 160.831 92.2589 161.598 92.0536C162.364 91.8483 163.082 91.8249 163.753 91.9834C164.468 92.1298 165.136 92.4582 165.756 92.9685C166.421 93.4667 166.975 94.0913 167.418 94.8423C167.848 95.5482 168.184 96.3519 168.426 97.2534C168.631 98.0197 168.722 98.7201 168.699 99.3544C168.709 99.9315 168.61 100.465 168.403 100.955C168.197 101.446 167.943 101.852 167.643 102.174C167.343 102.496 166.945 102.723 166.449 102.856C165.547 103.098 164.746 102.902 164.045 102.268C163.389 101.623 162.804 100.523 162.291 98.9697C162.041 98.2155 161.777 97.6823 161.5 97.37C161.211 97.0126 160.909 96.8762 160.593 96.9607C160.233 97.0573 159.937 97.3057 159.706 97.7058C159.463 98.0608 159.313 98.584 159.257 99.2755C159.144 99.9339 159.096 100.84 159.116 101.995C159.123 103.104 159.174 104.467 159.27 106.084C159.41 107.689 159.518 109.085 159.595 110.273C159.659 111.415 159.681 112.399 159.661 113.226C159.641 114.053 159.558 114.824 159.412 115.54C159.31 116.243 159.146 116.891 158.918 117.484C159.462 117.531 159.951 117.642 160.384 117.816C160.85 117.932 161.26 118.112 161.615 118.355C161.971 118.598 162.315 118.892 162.649 119.238C163.016 119.526 163.379 119.888 163.737 120.323C164.095 120.759 164.663 121.524 165.44 122.621C166.25 123.66 167.281 125.074 168.534 126.865L174.148 134.564C174.542 135.135 174.941 135.632 175.344 136.055C175.781 136.421 176.221 136.714 176.667 136.933C177.112 137.152 177.561 137.297 178.015 137.368C178.502 137.383 178.994 137.324 179.49 137.191L179.834 138.476L169.083 141.356L157.601 125.011C156.963 124.071 156.407 123.35 155.935 122.849C155.495 122.29 155.155 121.922 154.915 121.745C154.674 121.568 154.361 121.483 153.976 121.489C153.579 121.451 153.105 121.481 152.552 121.581L156.827 137.538C157.141 138.71 157.463 139.639 157.791 140.324C158.165 140.996 158.551 141.448 158.951 141.679C159.397 141.898 159.914 142.025 160.503 142.061C161.125 142.039 161.887 141.907 162.789 141.666L163.133 142.95L146.364 147.444L146.02 146.159C146.91 145.872 147.623 145.56 148.161 145.223C148.732 144.828 149.104 144.415 149.278 143.982C149.497 143.536 149.565 142.89 149.483 142.042C149.401 141.195 149.19 140.14 148.852 138.878L140.373 107.234C139.999 105.837 139.623 104.705 139.247 103.84C138.903 102.918 138.552 102.239 138.193 101.803C137.835 101.368 137.355 101.11 136.754 101.029C136.198 100.937 135.514 100.999 134.703 101.217L134.027 101.398L133.682 100.113ZM183.811 85.7392C186.344 84.9155 188.77 84.7729 191.088 85.3112C193.406 85.8495 195.662 87.0567 197.856 88.9329C200.05 90.8091 201.916 93.0869 203.455 95.7665C205.028 98.3889 206.279 101.436 207.209 104.906C208.006 107.882 208.456 110.732 208.558 113.459C208.661 116.185 208.428 118.832 207.86 121.4C207.079 124.798 205.784 127.536 203.974 129.616C202.209 131.683 199.906 133.097 197.067 133.858C194.227 134.619 191.515 134.597 188.932 133.791C186.382 132.928 183.938 131.288 181.599 128.871C179.733 126.956 178.134 124.775 176.802 122.33C175.504 119.827 174.438 117.021 173.604 113.911C172.674 110.44 172.235 107.176 172.285 104.119C172.336 101.061 172.842 98.1719 173.803 95.4503C174.753 92.6836 176.052 90.4996 177.7 88.8984C179.394 87.2851 181.431 86.2321 183.811 85.7392ZM184.747 87.8799C183.304 88.2664 182.165 89.1516 181.328 90.5354C180.536 91.9071 180.046 93.7774 179.86 96.1464C179.712 98.1186 179.818 100.409 180.179 103.018C180.585 105.615 181.241 108.603 182.147 111.984C183.21 115.951 184.359 119.339 185.595 122.148C186.876 124.945 188.243 127.164 189.697 128.803C190.679 129.941 191.733 130.722 192.861 131.144C193.989 131.567 195.139 131.621 196.311 131.307C197.122 131.089 197.807 130.761 198.365 130.321C198.957 129.825 199.445 129.211 199.829 128.48C200.312 127.577 200.667 126.468 200.893 125.151C201.12 123.834 201.203 122.338 201.141 120.664C201.111 118.933 200.909 117.006 200.534 114.884C200.147 112.717 199.609 110.349 198.92 107.78C198.087 104.669 197.278 102.011 196.494 99.806C195.697 97.5554 194.891 95.7181 194.075 94.2942C193.304 92.8583 192.531 91.6883 191.757 90.7844C190.972 89.8354 190.179 89.13 189.379 88.668C188.578 88.206 187.798 87.9078 187.037 87.7735C186.277 87.6391 185.513 87.6746 184.747 87.8799ZM220.011 104.737L223.526 117.855C223.876 119.162 224.183 120.215 224.445 121.014C224.74 121.756 224.982 122.296 225.168 122.632C225.343 122.924 225.557 123.18 225.81 123.402C226.095 123.567 226.404 123.726 226.735 123.879C227.065 124.032 227.491 124.087 228.011 124.045C228.531 124.002 229.151 123.884 229.873 123.691L230.217 124.975L213.854 129.36L213.51 128.075C214.276 127.87 214.895 127.656 215.367 127.433C215.839 127.21 216.179 126.949 216.389 126.651C216.6 126.353 216.765 126.068 216.884 125.794C216.992 125.475 217.065 125.117 217.104 124.721C217.11 124.381 217.032 123.822 216.872 123.043C216.7 122.22 216.438 121.155 216.088 119.847L207.863 89.1503C207.513 87.8431 207.212 86.8124 206.962 86.0581C206.712 85.3039 206.493 84.7586 206.306 84.4221C206.074 84.0978 205.838 83.847 205.597 83.67C205.345 83.4478 205.053 83.2603 204.722 83.1074C204.391 82.9545 203.966 82.8994 203.446 82.9421C202.926 82.9848 202.282 83.1088 201.516 83.3141L201.172 82.0294L215.236 78.261C217.535 77.645 219.58 77.4352 221.372 77.6314C223.197 77.7705 224.791 78.3097 226.154 79.249C227.516 80.1882 228.645 81.3352 229.539 82.6899C230.434 84.0445 231.129 85.6459 231.624 87.4941C232.047 89.0718 232.253 90.5625 232.243 91.9664C232.265 93.3131 232.112 94.6344 231.783 95.9304C231.442 97.1814 230.923 98.3108 230.227 99.3186C229.518 100.281 228.655 101.117 227.637 101.824C226.943 102.3 225.961 102.781 224.69 103.266C223.419 103.752 221.859 104.242 220.011 104.737ZM213.815 81.613L219.286 102.033C219.569 102.005 219.8 101.967 219.981 101.919C220.206 101.859 220.386 101.81 220.522 101.774C221.468 101.521 222.27 101.088 222.928 100.477C223.585 99.8662 224.047 99.066 224.314 98.0767C224.58 97.0874 224.673 95.9029 224.594 94.5232C224.514 93.1435 224.238 91.5746 223.767 89.8167C223.296 88.0587 222.756 86.5848 222.148 85.3952C221.527 84.1604 220.86 83.2038 220.147 82.5253C219.434 81.8468 218.617 81.4134 217.697 81.2251C216.822 81.0247 215.866 81.0634 214.829 81.3412L213.815 81.613ZM243.449 69.7592C245.982 68.9355 248.408 68.7928 250.726 69.3311C253.045 69.8694 255.301 71.0767 257.494 72.9528C259.688 74.829 261.555 77.1069 263.094 79.7864C264.666 82.4089 265.917 85.4555 266.847 88.9264C267.645 91.9015 268.094 94.7522 268.197 97.4785C268.299 100.205 268.066 102.852 267.498 105.42C266.718 108.818 265.423 111.556 263.612 113.636C261.847 115.703 259.545 117.117 256.705 117.878C253.865 118.639 251.154 118.617 248.57 117.811C246.02 116.948 243.576 115.308 241.237 112.891C239.371 110.976 237.772 108.795 236.441 106.35C235.142 103.847 234.076 101.041 233.243 97.9307C232.313 94.4598 231.873 91.1958 231.923 88.1385C231.974 85.0813 232.48 82.1919 233.442 79.4702C234.391 76.7035 235.69 74.5195 237.339 72.9183C239.032 71.3051 241.069 70.252 243.449 69.7592ZM244.385 71.8999C242.943 72.2864 241.803 73.1715 240.966 74.5553C240.174 75.927 239.685 77.7974 239.498 80.1664C239.35 82.1385 239.457 84.429 239.818 87.0379C240.223 89.6346 240.879 92.6234 241.785 96.0041C242.848 99.9709 243.997 103.359 245.233 106.168C246.514 108.965 247.882 111.183 249.336 112.823C250.317 113.961 251.371 114.741 252.499 115.164C253.627 115.586 254.777 115.641 255.949 115.327C256.76 115.109 257.445 114.781 258.004 114.341C258.595 113.845 259.083 113.231 259.467 112.5C259.95 111.597 260.305 110.488 260.532 109.171C260.759 107.854 260.841 106.358 260.779 104.684C260.75 102.952 260.548 101.026 260.172 98.904C259.785 96.7371 259.247 94.369 258.559 91.7996C257.725 88.6893 256.916 86.0314 256.132 83.8259C255.336 81.5753 254.53 79.7381 253.713 78.3142C252.942 76.8782 252.169 75.7083 251.396 74.8044C250.61 73.8554 249.817 73.1499 249.017 72.6879C248.217 72.226 247.436 71.9278 246.676 71.7934C245.915 71.6591 245.151 71.6945 244.385 71.8999Z" fill="black"/>
</svg>
