<svg width="73" height="21" viewBox="0 0 73 21" fill="none" xmlns="http://www.w3.org/2000/svg">
<mask id="path-1-outside-1_247_11041" maskUnits="userSpaceOnUse" x="0" y="0" width="73" height="18" fill="black">
<rect fill="white" width="73" height="18"/>
<path d="M7.33496 10.9551H10.5518L8.94336 6.26172L7.33496 10.9551ZM11.3691 13.3545H6.51758L5.6123 16H2.21094L7.04492 2.91309H10.9297L15.7637 16H12.2744L11.3691 13.3545ZM17.4645 16V2.91309H23.0192C23.8512 2.91309 24.5514 2.98633 25.1198 3.13281C25.694 3.27344 26.2009 3.4873 26.6403 3.77441C27.1677 4.12012 27.569 4.5625 27.8444 5.10156C28.1257 5.64062 28.2663 6.28809 28.2663 7.04395C28.2663 7.62988 28.1637 8.2041 27.9587 8.7666C27.7536 9.32324 27.4606 9.79199 27.0798 10.1729C26.5583 10.6885 25.9753 11.0781 25.3307 11.3418C24.6921 11.6055 23.8952 11.7373 22.9401 11.7373H20.8395V16H17.4645ZM20.8395 9.27637H21.8063C22.3805 9.27637 22.8522 9.24121 23.2214 9.1709C23.5964 9.10059 23.9098 8.95996 24.1618 8.74902C24.3786 8.56152 24.5339 8.33887 24.6276 8.08105C24.7272 7.81738 24.777 7.49805 24.777 7.12305C24.777 6.75391 24.6774 6.4375 24.4782 6.17383C24.279 5.9043 24.0475 5.7168 23.7839 5.61133C23.4323 5.4707 23.0895 5.39453 22.7555 5.38281C22.4216 5.36523 21.9762 5.35645 21.4196 5.35645H20.8395V9.27637ZM42.3509 16H38.4486L35.6273 11.6934L32.7533 16H29.0267L33.6673 9.4082L29.1234 2.91309H33.017L35.7416 6.99121L38.5453 2.91309H42.2806L37.7103 9.27637L42.3509 16ZM55.9873 16H52.7002V7.29004L47.2686 16H44.0518V2.91309H47.3389V10.7969L52.3926 2.91309H55.9873V16ZM70.2917 11.9922C70.2917 12.625 70.1628 13.1904 69.905 13.6885C69.653 14.1865 69.3044 14.5996 68.8591 14.9277C68.3435 15.3145 67.7751 15.5898 67.154 15.7539C66.5388 15.918 65.7566 16 64.8073 16H59.0945V2.91309H64.1745C65.2292 2.91309 65.9997 2.94824 66.4861 3.01855C66.9782 3.08887 67.4646 3.24414 67.945 3.48438C68.4431 3.73633 68.8122 4.07617 69.0525 4.50391C69.2986 4.92578 69.4216 5.40918 69.4216 5.9541C69.4216 6.58691 69.2546 7.14648 68.9206 7.63281C68.5866 8.11328 68.115 8.48828 67.5056 8.75781V8.82812C68.3611 8.99805 69.0378 9.34961 69.5359 9.88281C70.0398 10.416 70.2917 11.1191 70.2917 11.9922ZM62.4519 8.08105H62.9792C63.5124 8.08105 63.9665 8.07227 64.3415 8.05469C64.7165 8.03711 65.0124 7.97852 65.2292 7.87891C65.5339 7.74414 65.7331 7.57129 65.8269 7.36035C65.9206 7.14355 65.9675 6.89453 65.9675 6.61328C65.9675 6.39648 65.9118 6.17969 65.8005 5.96289C65.695 5.74609 65.5046 5.58496 65.2292 5.47949C64.9831 5.38574 64.6755 5.33594 64.3064 5.33008C63.9431 5.31836 63.4304 5.3125 62.7683 5.3125H62.4519V8.08105ZM62.4519 13.6006H62.698C63.6472 13.6006 64.3269 13.5977 64.737 13.5918C65.1472 13.5859 65.5251 13.5098 65.8708 13.3633C66.2224 13.2168 66.4626 13.0234 66.5915 12.7832C66.7263 12.5371 66.7937 12.2559 66.7937 11.9395C66.7937 11.5234 66.7116 11.2041 66.5476 10.9814C66.3894 10.7529 66.1169 10.583 65.7302 10.4717C65.4665 10.3955 65.1032 10.3545 64.6404 10.3486C64.1775 10.3428 63.6941 10.3398 63.1902 10.3398H62.4519V13.6006Z"/>
</mask>
<path d="M7.33496 10.9551H10.5518L8.94336 6.26172L7.33496 10.9551ZM11.3691 13.3545H6.51758L5.6123 16H2.21094L7.04492 2.91309H10.9297L15.7637 16H12.2744L11.3691 13.3545ZM17.4645 16V2.91309H23.0192C23.8512 2.91309 24.5514 2.98633 25.1198 3.13281C25.694 3.27344 26.2009 3.4873 26.6403 3.77441C27.1677 4.12012 27.569 4.5625 27.8444 5.10156C28.1257 5.64062 28.2663 6.28809 28.2663 7.04395C28.2663 7.62988 28.1637 8.2041 27.9587 8.7666C27.7536 9.32324 27.4606 9.79199 27.0798 10.1729C26.5583 10.6885 25.9753 11.0781 25.3307 11.3418C24.6921 11.6055 23.8952 11.7373 22.9401 11.7373H20.8395V16H17.4645ZM20.8395 9.27637H21.8063C22.3805 9.27637 22.8522 9.24121 23.2214 9.1709C23.5964 9.10059 23.9098 8.95996 24.1618 8.74902C24.3786 8.56152 24.5339 8.33887 24.6276 8.08105C24.7272 7.81738 24.777 7.49805 24.777 7.12305C24.777 6.75391 24.6774 6.4375 24.4782 6.17383C24.279 5.9043 24.0475 5.7168 23.7839 5.61133C23.4323 5.4707 23.0895 5.39453 22.7555 5.38281C22.4216 5.36523 21.9762 5.35645 21.4196 5.35645H20.8395V9.27637ZM42.3509 16H38.4486L35.6273 11.6934L32.7533 16H29.0267L33.6673 9.4082L29.1234 2.91309H33.017L35.7416 6.99121L38.5453 2.91309H42.2806L37.7103 9.27637L42.3509 16ZM55.9873 16H52.7002V7.29004L47.2686 16H44.0518V2.91309H47.3389V10.7969L52.3926 2.91309H55.9873V16ZM70.2917 11.9922C70.2917 12.625 70.1628 13.1904 69.905 13.6885C69.653 14.1865 69.3044 14.5996 68.8591 14.9277C68.3435 15.3145 67.7751 15.5898 67.154 15.7539C66.5388 15.918 65.7566 16 64.8073 16H59.0945V2.91309H64.1745C65.2292 2.91309 65.9997 2.94824 66.4861 3.01855C66.9782 3.08887 67.4646 3.24414 67.945 3.48438C68.4431 3.73633 68.8122 4.07617 69.0525 4.50391C69.2986 4.92578 69.4216 5.40918 69.4216 5.9541C69.4216 6.58691 69.2546 7.14648 68.9206 7.63281C68.5866 8.11328 68.115 8.48828 67.5056 8.75781V8.82812C68.3611 8.99805 69.0378 9.34961 69.5359 9.88281C70.0398 10.416 70.2917 11.1191 70.2917 11.9922ZM62.4519 8.08105H62.9792C63.5124 8.08105 63.9665 8.07227 64.3415 8.05469C64.7165 8.03711 65.0124 7.97852 65.2292 7.87891C65.5339 7.74414 65.7331 7.57129 65.8269 7.36035C65.9206 7.14355 65.9675 6.89453 65.9675 6.61328C65.9675 6.39648 65.9118 6.17969 65.8005 5.96289C65.695 5.74609 65.5046 5.58496 65.2292 5.47949C64.9831 5.38574 64.6755 5.33594 64.3064 5.33008C63.9431 5.31836 63.4304 5.3125 62.7683 5.3125H62.4519V8.08105ZM62.4519 13.6006H62.698C63.6472 13.6006 64.3269 13.5977 64.737 13.5918C65.1472 13.5859 65.5251 13.5098 65.8708 13.3633C66.2224 13.2168 66.4626 13.0234 66.5915 12.7832C66.7263 12.5371 66.7937 12.2559 66.7937 11.9395C66.7937 11.5234 66.7116 11.2041 66.5476 10.9814C66.3894 10.7529 66.1169 10.583 65.7302 10.4717C65.4665 10.3955 65.1032 10.3545 64.6404 10.3486C64.1775 10.3428 63.6941 10.3398 63.1902 10.3398H62.4519V13.6006Z" fill="#FCF549"/>
<path d="M7.33496 10.9551L5.44298 10.3067C5.2336 10.9177 5.33215 11.5921 5.70758 12.1177C6.08301 12.6432 6.68911 12.9551 7.33496 12.9551V10.9551ZM10.5518 10.9551V12.9551C11.1976 12.9551 11.8037 12.6432 12.1791 12.1177C12.5546 11.5921 12.6531 10.9177 12.4437 10.3067L10.5518 10.9551ZM8.94336 6.26172L10.8353 5.61334C10.5583 4.80482 9.79804 4.26172 8.94336 4.26172C8.08868 4.26172 7.32845 4.80482 7.05137 5.61334L8.94336 6.26172ZM11.3691 13.3545L13.2614 12.707C12.9846 11.898 12.2242 11.3545 11.3691 11.3545V13.3545ZM6.51758 13.3545V11.3545C5.66257 11.3545 4.90212 11.898 4.6253 12.707L6.51758 13.3545ZM5.6123 16V18C6.46732 18 7.22776 17.4565 7.50458 16.6475L5.6123 16ZM2.21094 16L0.334833 15.307C0.108152 15.9207 0.195942 16.6065 0.569905 17.1432C0.943869 17.68 1.55672 18 2.21094 18V16ZM7.04492 2.91309V0.913086C6.20762 0.913086 5.45894 1.43466 5.16882 2.2201L7.04492 2.91309ZM10.9297 2.91309L12.8058 2.2201C12.5157 1.43466 11.767 0.913086 10.9297 0.913086V2.91309ZM15.7637 16V18C16.4179 18 17.0307 17.68 17.4047 17.1432C17.7787 16.6065 17.8665 15.9207 17.6398 15.307L15.7637 16ZM12.2744 16L10.3821 16.6475C10.659 17.4565 11.4194 18 12.2744 18V16ZM7.33496 12.9551H10.5518V8.95508H7.33496V12.9551ZM12.4437 10.3067L10.8353 5.61334L7.05137 6.9101L8.65977 11.6035L12.4437 10.3067ZM7.05137 5.61334L5.44298 10.3067L9.22695 11.6035L10.8353 6.9101L7.05137 5.61334ZM11.3691 11.3545H6.51758V15.3545H11.3691V11.3545ZM4.6253 12.707L3.72003 15.3525L7.50458 16.6475L8.40986 14.002L4.6253 12.707ZM5.6123 14H2.21094V18H5.6123V14ZM4.08704 16.693L8.92103 3.60607L5.16882 2.2201L0.334833 15.307L4.08704 16.693ZM7.04492 4.91309H10.9297V0.913086H7.04492V4.91309ZM9.05358 3.60607L13.8876 16.693L17.6398 15.307L12.8058 2.2201L9.05358 3.60607ZM15.7637 14H12.2744V18H15.7637V14ZM14.1667 15.3525L13.2614 12.707L9.47686 14.002L10.3821 16.6475L14.1667 15.3525ZM17.4645 16H15.4645C15.4645 17.1046 16.36 18 17.4645 18V16ZM17.4645 2.91309V0.913086C16.36 0.913086 15.4645 1.80852 15.4645 2.91309H17.4645ZM25.1198 3.13281L24.6207 5.06952C24.6284 5.07153 24.6362 5.07349 24.6441 5.07541L25.1198 3.13281ZM26.6403 3.77441L27.7368 2.10178L27.7342 2.10008L26.6403 3.77441ZM27.8444 5.10156L26.0634 6.01144C26.066 6.01654 26.0686 6.02162 26.0712 6.02669L27.8444 5.10156ZM27.9587 8.7666L29.8354 9.45802L29.8377 9.45166L27.9587 8.7666ZM27.0798 10.1729L28.486 11.5951L28.494 11.5871L27.0798 10.1729ZM25.3307 11.3418L24.5735 9.49069L24.5675 9.49314L25.3307 11.3418ZM20.8395 11.7373V9.7373C19.735 9.7373 18.8395 10.6327 18.8395 11.7373H20.8395ZM20.8395 16V18C21.9441 18 22.8395 17.1046 22.8395 16H20.8395ZM20.8395 9.27637H18.8395C18.8395 10.3809 19.735 11.2764 20.8395 11.2764V9.27637ZM23.2214 9.1709L22.8528 7.20515L22.8471 7.20622L23.2214 9.1709ZM24.1618 8.74902L25.4457 10.2825C25.4539 10.2757 25.462 10.2687 25.4701 10.2618L24.1618 8.74902ZM24.6276 8.08105L22.7567 7.37425C22.7537 7.38201 22.7509 7.38978 22.748 7.39757L24.6276 8.08105ZM24.4782 6.17383L22.8699 7.36261C22.874 7.36826 22.8782 7.37389 22.8825 7.37949L24.4782 6.17383ZM22.7555 5.38281L22.6504 7.38005C22.6621 7.38066 22.6737 7.38117 22.6854 7.38158L22.7555 5.38281ZM20.8395 5.35645V3.35645C19.735 3.35645 18.8395 4.25188 18.8395 5.35645H20.8395ZM19.4645 16V2.91309H15.4645V16H19.4645ZM17.4645 4.91309H23.0192V0.913086H17.4645V4.91309ZM23.0192 4.91309C23.7468 4.91309 24.2674 4.97848 24.6207 5.06952L25.619 1.1961C24.8355 0.994172 23.9557 0.913086 23.0192 0.913086V4.91309ZM24.6441 5.07541C25.026 5.16894 25.3187 5.29994 25.5464 5.44875L27.7342 2.10008C27.0831 1.67467 26.3621 1.37793 25.5955 1.19022L24.6441 5.07541ZM25.5438 5.44704C25.7932 5.61053 25.9528 5.79493 26.0634 6.01144L29.6255 4.19168C29.1853 3.33007 28.5421 2.6297 27.7368 2.10179L25.5438 5.44704ZM26.0712 6.02669C26.1716 6.21898 26.2663 6.53333 26.2663 7.04395H30.2663C30.2663 6.04284 30.0798 5.06227 29.6176 4.17643L26.0712 6.02669ZM26.2663 7.04395C26.2663 7.39108 26.2065 7.7337 26.0797 8.08154L29.8377 9.45166C30.121 8.6745 30.2663 7.86868 30.2663 7.04395H26.2663ZM26.082 8.07519C25.9667 8.38807 25.8218 8.60238 25.6656 8.75864L28.494 11.5871C29.0994 10.9816 29.5405 10.2584 29.8354 9.45801L26.082 8.07519ZM25.6736 8.75067C25.3282 9.09216 24.963 9.33136 24.5735 9.4907L26.088 13.1929C26.9876 12.8249 27.7884 12.2848 28.486 11.595L25.6736 8.75067ZM24.5675 9.49314C24.2444 9.62654 23.7267 9.7373 22.9401 9.7373V13.7373C24.0637 13.7373 25.1397 13.5844 26.0939 13.1904L24.5675 9.49314ZM22.9401 9.7373H20.8395V13.7373H22.9401V9.7373ZM18.8395 11.7373V16H22.8395V11.7373H18.8395ZM20.8395 14H17.4645V18H20.8395V14ZM20.8395 11.2764H21.8063V7.27637H20.8395V11.2764ZM21.8063 11.2764C22.4478 11.2764 23.0566 11.2382 23.5956 11.1356L22.8471 7.20622C22.6478 7.24419 22.3133 7.27637 21.8063 7.27637V11.2764ZM23.5899 11.1366C24.2473 11.0134 24.8911 10.7469 25.4457 10.2825L22.8779 7.21551C22.8879 7.20719 22.8973 7.20055 22.9053 7.19558C22.9132 7.19064 22.9182 7.1883 22.9191 7.1879C22.9211 7.18699 22.9021 7.19591 22.8528 7.20515L23.5899 11.1366ZM25.4701 10.2618C25.9329 9.86148 26.2916 9.35758 26.5072 8.76454L22.748 7.39757C22.7599 7.36498 22.7776 7.33005 22.8004 7.29738C22.8229 7.2651 22.8433 7.24512 22.8535 7.2363L25.4701 10.2618ZM26.4986 8.78786C26.7065 8.23733 26.777 7.66437 26.777 7.12305H22.777C22.777 7.33172 22.7479 7.39744 22.7567 7.37425L26.4986 8.78786ZM26.777 7.12305C26.777 6.3723 26.566 5.61947 26.0739 4.96816L22.8825 7.37949C22.8437 7.32824 22.8132 7.26846 22.7946 7.20946C22.7768 7.15278 22.777 7.11947 22.777 7.12305H26.777ZM26.0866 4.98505C25.7068 4.47123 25.1933 4.02102 24.5266 3.75437L23.0411 7.46828C22.9777 7.44293 22.9288 7.41143 22.8962 7.38509C22.8653 7.36003 22.8584 7.34718 22.8699 7.36261L26.0866 4.98505ZM24.5266 3.75437C23.9889 3.53929 23.4189 3.40486 22.8257 3.38404L22.6854 7.38158C22.7602 7.38421 22.8757 7.40212 23.0411 7.46828L24.5266 3.75437ZM22.8607 3.38558C22.4764 3.36535 21.9916 3.35645 21.4196 3.35645V7.35645C21.9609 7.35645 22.3667 7.36512 22.6504 7.38005L22.8607 3.38558ZM21.4196 3.35645H20.8395V7.35645H21.4196V3.35645ZM18.8395 5.35645V9.27637H22.8395V5.35645H18.8395ZM42.3509 16V18C43.0943 18 43.7764 17.5877 44.1218 16.9295C44.4673 16.2713 44.4192 15.4757 43.9969 14.8639L42.3509 16ZM38.4486 16L36.7756 17.096C37.1452 17.6601 37.7742 18 38.4486 18V16ZM35.6273 11.6934L37.3003 10.5974C36.9324 10.0358 36.3072 9.69624 35.6358 9.69338C34.9644 9.69052 34.3364 10.0247 33.9637 10.5832L35.6273 11.6934ZM32.7533 16V18C33.4217 18 34.0458 17.6661 34.4169 17.1102L32.7533 16ZM29.0267 16L27.3913 14.8487C26.9615 15.4593 26.9076 16.2585 27.2515 16.9212C27.5955 17.584 28.28 18 29.0267 18V16ZM33.6673 9.4082L35.3027 10.5595C35.7876 9.87072 35.789 8.95194 35.3061 8.26173L33.6673 9.4082ZM29.1234 2.91309V0.913086C28.3777 0.913086 27.694 1.32789 27.3496 1.98922C27.0051 2.65055 27.0572 3.44858 27.4846 4.05956L29.1234 2.91309ZM33.017 2.91309L34.68 1.80203C34.3089 1.24659 33.685 0.913086 33.017 0.913086V2.91309ZM35.7416 6.99121L34.0786 8.10227C34.447 8.65379 35.065 8.98676 35.7283 8.99117C36.3916 8.99557 37.0139 8.67085 37.3896 8.12427L35.7416 6.99121ZM38.5453 2.91309V0.913086C37.8867 0.913086 37.2703 1.23732 36.8972 1.78003L38.5453 2.91309ZM42.2806 2.91309L43.9051 4.0798C44.3426 3.47055 44.4025 2.66767 44.0602 2.00024C43.7178 1.33282 43.0307 0.913086 42.2806 0.913086V2.91309ZM37.7103 9.27637L36.0859 8.10965C35.5932 8.79568 35.5845 9.71729 36.0643 10.4124L37.7103 9.27637ZM42.3509 14H38.4486V18H42.3509V14ZM40.1216 14.904L37.3003 10.5974L33.9543 12.7893L36.7756 17.096L40.1216 14.904ZM33.9637 10.5832L31.0897 14.8898L34.4169 17.1102L37.2909 12.8035L33.9637 10.5832ZM32.7533 14H29.0267V18H32.7533V14ZM30.6621 17.1513L35.3027 10.5595L32.032 8.25689L27.3913 14.8487L30.6621 17.1513ZM35.3061 8.26173L30.7622 1.76661L27.4846 4.05956L32.0286 10.5547L35.3061 8.26173ZM29.1234 4.91309H33.017V0.913086H29.1234V4.91309ZM31.354 4.02414L34.0786 8.10227L37.4046 5.88016L34.68 1.80203L31.354 4.02414ZM37.3896 8.12427L40.1934 4.04614L36.8972 1.78003L34.0935 5.85815L37.3896 8.12427ZM38.5453 4.91309H42.2806V0.913086H38.5453V4.91309ZM40.6562 1.74637L36.0859 8.10965L39.3347 10.4431L43.9051 4.0798L40.6562 1.74637ZM36.0643 10.4124L40.7049 17.1361L43.9969 14.8639L39.3563 8.1403L36.0643 10.4124ZM55.9873 16V18C57.0919 18 57.9873 17.1046 57.9873 16H55.9873ZM52.7002 16H50.7002C50.7002 17.1046 51.5957 18 52.7002 18V16ZM52.7002 7.29004H54.7002C54.7002 6.39745 54.1088 5.61291 53.2506 5.36727C52.3925 5.12162 51.4755 5.47435 51.0032 6.23173L52.7002 7.29004ZM47.2686 16V18C47.9589 18 48.6004 17.644 48.9656 17.0583L47.2686 16ZM44.0518 16H42.0518C42.0518 17.1046 42.9472 18 44.0518 18V16ZM44.0518 2.91309V0.913086C42.9472 0.913086 42.0518 1.80852 42.0518 2.91309H44.0518ZM47.3389 2.91309H49.3389C49.3389 1.80852 48.4435 0.913086 47.3389 0.913086V2.91309ZM47.3389 10.7969H45.3389C45.3389 11.6849 45.9244 12.4665 46.7766 12.7162C47.6287 12.9659 48.5434 12.6238 49.0227 11.8762L47.3389 10.7969ZM52.3926 2.91309V0.913086C51.7112 0.913086 51.0766 1.26006 50.7089 1.83375L52.3926 2.91309ZM55.9873 2.91309H57.9873C57.9873 1.80852 57.0919 0.913086 55.9873 0.913086V2.91309ZM55.9873 14H52.7002V18H55.9873V14ZM54.7002 16V7.29004H50.7002V16H54.7002ZM51.0032 6.23173L45.5715 14.9417L48.9656 17.0583L54.3973 8.34834L51.0032 6.23173ZM47.2686 14H44.0518V18H47.2686V14ZM46.0518 16V2.91309H42.0518V16H46.0518ZM44.0518 4.91309H47.3389V0.913086H44.0518V4.91309ZM45.3389 2.91309V10.7969H49.3389V2.91309H45.3389ZM49.0227 11.8762L54.0764 3.99242L50.7089 1.83375L45.6551 9.71754L49.0227 11.8762ZM52.3926 4.91309H55.9873V0.913086H52.3926V4.91309ZM53.9873 2.91309V16H57.9873V2.91309H53.9873ZM69.905 13.6885L68.1289 12.7691C68.126 12.7746 68.1232 12.7801 68.1204 12.7857L69.905 13.6885ZM68.8591 14.9277L67.6727 13.3176C67.6682 13.321 67.6636 13.3243 67.6591 13.3277L68.8591 14.9277ZM67.154 15.7539L66.6432 13.8202L66.6387 13.8214L67.154 15.7539ZM59.0945 16H57.0945C57.0945 17.1046 57.9899 18 59.0945 18V16ZM59.0945 2.91309V0.913086C57.9899 0.913086 57.0945 1.80852 57.0945 2.91309H59.0945ZM66.4861 3.01855L66.1999 4.99798L66.2032 4.99845L66.4861 3.01855ZM67.945 3.48438L68.8479 1.69972L68.8395 1.69552L67.945 3.48438ZM69.0525 4.50391L67.3087 5.48329C67.314 5.49279 67.3194 5.50224 67.3249 5.51165L69.0525 4.50391ZM68.9206 7.63281L70.5629 8.77437L70.5693 8.76503L68.9206 7.63281ZM67.5056 8.75781L66.6966 6.92874C65.9726 7.24898 65.5056 7.96614 65.5056 8.75781H67.5056ZM67.5056 8.82812H65.5056C65.5056 9.78248 66.1799 10.6039 67.1159 10.7898L67.5056 8.82812ZM69.5359 9.88281L68.0743 11.248L68.0823 11.2565L69.5359 9.88281ZM62.4519 8.08105H60.4519C60.4519 9.18562 61.3473 10.0811 62.4519 10.0811V8.08105ZM65.2292 7.87891L64.4202 6.04984C64.4115 6.05368 64.4029 6.05759 64.3942 6.06155L65.2292 7.87891ZM65.8269 7.36035L67.6545 8.17263C67.6572 8.16649 67.6599 8.16034 67.6626 8.15417L65.8269 7.36035ZM65.8005 5.96289L64.002 6.83782C64.0083 6.85078 64.0148 6.86368 64.0214 6.8765L65.8005 5.96289ZM65.2292 5.47949L65.9445 3.61178L65.9412 3.61052L65.2292 5.47949ZM64.3064 5.33008L64.2419 7.32904C64.2528 7.32939 64.2637 7.32965 64.2746 7.32983L64.3064 5.33008ZM62.4519 5.3125V3.3125C61.3473 3.3125 60.4519 4.20793 60.4519 5.3125H62.4519ZM62.4519 13.6006H60.4519C60.4519 14.7052 61.3473 15.6006 62.4519 15.6006V13.6006ZM65.8708 13.3633L65.1016 11.5171L65.0905 11.5218L65.8708 13.3633ZM66.5915 12.7832L64.8373 11.8226C64.8346 11.8276 64.8319 11.8326 64.8292 11.8376L66.5915 12.7832ZM66.5476 10.9814L64.9032 12.1199C64.9144 12.136 64.9258 12.152 64.9375 12.1678L66.5476 10.9814ZM65.7302 10.4717L65.1751 12.3931L65.1769 12.3936L65.7302 10.4717ZM62.4519 10.3398V8.33984C61.3473 8.33984 60.4519 9.23527 60.4519 10.3398H62.4519ZM68.2917 11.9922C68.2917 12.3465 68.2216 12.5899 68.1289 12.7691L71.6811 14.6079C72.104 13.791 72.2917 12.9035 72.2917 11.9922H68.2917ZM68.1204 12.7857C68.0084 13.007 67.8636 13.1769 67.6727 13.3176L70.0455 16.5378C70.7452 16.0223 71.2977 15.366 71.6896 14.5913L68.1204 12.7857ZM67.6591 13.3277C67.3489 13.5604 67.0144 13.7222 66.6432 13.8202L67.6648 17.6876C68.5358 17.4575 69.3381 17.0685 70.0591 16.5277L67.6591 13.3277ZM66.6387 13.8214C66.252 13.9245 65.6588 14 64.8073 14V18C65.8543 18 66.8255 17.9114 67.6693 17.6864L66.6387 13.8214ZM64.8073 14H59.0945V18H64.8073V14ZM61.0945 16V2.91309H57.0945V16H61.0945ZM59.0945 4.91309H64.1745V0.913086H59.0945V4.91309ZM64.1745 4.91309C65.2162 4.91309 65.865 4.94956 66.1999 4.99797L66.7722 1.03914C66.1344 0.946925 65.2422 0.913086 64.1745 0.913086V4.91309ZM66.2032 4.99845C66.4661 5.03601 66.747 5.1214 67.0506 5.27323L68.8395 1.69552C68.1822 1.36688 67.4903 1.14172 66.7689 1.03866L66.2032 4.99845ZM67.0422 5.26901C67.2366 5.36735 67.2886 5.44754 67.3087 5.48329L70.7962 3.52452C70.3359 2.70481 69.6496 2.10531 68.8479 1.69974L67.0422 5.26901ZM67.3249 5.51165C67.3726 5.59334 67.4216 5.72133 67.4216 5.9541H71.4216C71.4216 5.09703 71.2246 4.25822 70.78 3.49616L67.3249 5.51165ZM67.4216 5.9541C67.4216 6.21356 67.3602 6.37208 67.272 6.5006L70.5693 8.76503C71.149 7.92089 71.4216 6.96026 71.4216 5.9541H67.4216ZM67.2784 6.49127C67.1817 6.63045 67.018 6.78658 66.6966 6.92874L68.3146 10.5869C69.2119 10.19 69.9916 9.59611 70.5628 8.77435L67.2784 6.49127ZM65.5056 8.75781V8.82812H69.5056V8.75781H65.5056ZM67.1159 10.7898C67.6427 10.8944 67.9146 11.0771 68.0743 11.248L70.9974 8.5176C70.161 7.62213 69.0794 7.10166 67.8952 6.86645L67.1159 10.7898ZM68.0823 11.2565C68.1702 11.3496 68.2917 11.5267 68.2917 11.9922H72.2917C72.2917 10.7115 71.9093 9.48243 70.9894 8.5091L68.0823 11.2565ZM62.4519 10.0811H62.9792V6.08105H62.4519V10.0811ZM62.9792 10.0811C63.5319 10.0811 64.0191 10.072 64.4352 10.0525L64.2479 6.05688C63.914 6.07253 63.493 6.08105 62.9792 6.08105V10.0811ZM64.4352 10.0525C64.9361 10.029 65.5193 9.94664 66.0642 9.69626L64.3942 6.06155C64.4601 6.03126 64.4886 6.02924 64.4562 6.03565C64.4256 6.04171 64.3592 6.05166 64.2479 6.05688L64.4352 10.0525ZM66.0382 9.70798C66.5979 9.46043 67.2855 9.00294 67.6545 8.17263L63.9993 6.54807C64.1808 6.13964 64.4699 6.02785 64.4202 6.04984L66.0382 9.70798ZM67.6626 8.15417C67.8833 7.64369 67.9675 7.11638 67.9675 6.61328H63.9675C63.9675 6.64313 63.965 6.65095 63.9669 6.64101C63.9689 6.63038 63.9751 6.60365 63.9912 6.56653L67.6626 8.15417ZM67.9675 6.61328C67.9675 6.0411 67.8179 5.51326 67.5796 5.04928L64.0214 6.8765C64.0058 6.84612 63.9675 6.75187 63.9675 6.61328H67.9675ZM67.599 5.08796C67.2243 4.31778 66.5825 3.8561 65.9445 3.61178L64.5139 7.34721C64.4789 7.3338 64.3912 7.29464 64.2867 7.20622C64.1771 7.11348 64.0752 6.98831 64.002 6.83782L67.599 5.08796ZM65.9412 3.61052C65.4095 3.40797 64.8536 3.33851 64.3381 3.33033L64.2746 7.32983C64.3798 7.3315 64.4512 7.33914 64.4943 7.34612C64.5377 7.35315 64.5416 7.35776 64.5172 7.34847L65.9412 3.61052ZM64.3708 3.33112C63.9754 3.31836 63.4375 3.3125 62.7683 3.3125V7.3125C63.4232 7.3125 63.9108 7.31836 64.2419 7.32904L64.3708 3.33112ZM62.7683 3.3125H62.4519V7.3125H62.7683V3.3125ZM60.4519 5.3125V8.08105H64.4519V5.3125H60.4519ZM62.4519 15.6006H62.698V11.6006H62.4519V15.6006ZM62.698 15.6006C63.6477 15.6006 64.3399 15.5977 64.7656 15.5916L64.7085 11.592C64.3139 11.5976 63.6467 11.6006 62.698 11.6006V15.6006ZM64.7656 15.5916C65.4102 15.5824 66.0462 15.4611 66.6511 15.2048L65.0905 11.5218C65.004 11.5584 64.8842 11.5895 64.7085 11.592L64.7656 15.5916ZM66.6401 15.2094C67.25 14.9553 67.9352 14.5091 68.3538 13.7288L64.8292 11.8376C64.9901 11.5378 65.1947 11.4783 65.1016 11.5171L66.6401 15.2094ZM68.3457 13.7438C68.6614 13.1673 68.7937 12.5481 68.7937 11.9395H64.7937C64.7937 11.9553 64.7921 11.9473 64.7982 11.9217C64.8046 11.8951 64.8169 11.86 64.8373 11.8226L68.3457 13.7438ZM68.7937 11.9395C68.7937 11.3004 68.6739 10.4956 68.1577 9.79505L64.9375 12.1678C64.8411 12.0371 64.8058 11.9276 64.795 11.8855C64.7851 11.8468 64.7937 11.8577 64.7937 11.9395H68.7937ZM68.192 9.84303C67.6759 9.09768 66.9201 8.73299 66.2835 8.54973L65.1769 12.3936C65.2352 12.4104 65.2209 12.4138 65.1662 12.3796C65.1067 12.3425 65.0016 12.262 64.9032 12.1199L68.192 9.84303ZM66.2853 8.55025C65.7715 8.40183 65.2031 8.3556 64.6657 8.34879L64.615 12.3485C64.7965 12.3508 64.9347 12.3598 65.0356 12.3712C65.1397 12.3829 65.1802 12.3946 65.1751 12.3931L66.2853 8.55025ZM64.6657 8.34879C64.1936 8.34282 63.7018 8.33984 63.1902 8.33984V12.3398C63.6864 12.3398 64.1613 12.3427 64.615 12.3485L64.6657 8.34879ZM63.1902 8.33984H62.4519V12.3398H63.1902V8.33984ZM60.4519 10.3398V13.6006H64.4519V10.3398H60.4519Z" fill="black" mask="url(#path-1-outside-1_247_11041)"/>
</svg>
