<svg width="70" height="21" viewBox="0 0 70 21" fill="none" xmlns="http://www.w3.org/2000/svg">
<mask id="path-1-outside-1_247_11039" maskUnits="userSpaceOnUse" x="-2" y="0" width="73" height="18" fill="black">
<rect fill="white" x="-2" width="73" height="18"/>
<path d="M5.33496 10.9551H8.55176L6.94336 6.26172L5.33496 10.9551ZM9.36914 13.3545H4.51758L3.6123 16H0.210938L5.04492 2.91309H8.92969L13.7637 16H10.2744L9.36914 13.3545ZM15.4645 16V2.91309H21.0192C21.8512 2.91309 22.5514 2.98633 23.1198 3.13281C23.694 3.27344 24.2009 3.4873 24.6403 3.77441C25.1677 4.12012 25.569 4.5625 25.8444 5.10156C26.1257 5.64062 26.2663 6.28809 26.2663 7.04395C26.2663 7.62988 26.1637 8.2041 25.9587 8.7666C25.7536 9.32324 25.4606 9.79199 25.0798 10.1729C24.5583 10.6885 23.9753 11.0781 23.3307 11.3418C22.6921 11.6055 21.8952 11.7373 20.9401 11.7373H18.8395V16H15.4645ZM18.8395 9.27637H19.8063C20.3805 9.27637 20.8522 9.24121 21.2214 9.1709C21.5964 9.10059 21.9098 8.95996 22.1618 8.74902C22.3786 8.56152 22.5339 8.33887 22.6276 8.08105C22.7272 7.81738 22.777 7.49805 22.777 7.12305C22.777 6.75391 22.6774 6.4375 22.4782 6.17383C22.279 5.9043 22.0475 5.7168 21.7839 5.61133C21.4323 5.4707 21.0895 5.39453 20.7555 5.38281C20.4216 5.36523 19.9762 5.35645 19.4196 5.35645H18.8395V9.27637ZM40.3509 16H36.4486L33.6273 11.6934L30.7533 16H27.0267L31.6673 9.4082L27.1234 2.91309H31.017L33.7416 6.99121L36.5453 2.91309H40.2806L35.7103 9.27637L40.3509 16ZM53.9873 16H50.7002V7.29004L45.2686 16H42.0518V2.91309H45.3389V10.7969L50.3926 2.91309H53.9873V16ZM68.2917 11.9922C68.2917 12.625 68.1628 13.1904 67.905 13.6885C67.653 14.1865 67.3044 14.5996 66.8591 14.9277C66.3435 15.3145 65.7751 15.5898 65.154 15.7539C64.5388 15.918 63.7566 16 62.8073 16H57.0945V2.91309H62.1745C63.2292 2.91309 63.9997 2.94824 64.4861 3.01855C64.9782 3.08887 65.4646 3.24414 65.945 3.48438C66.4431 3.73633 66.8122 4.07617 67.0525 4.50391C67.2986 4.92578 67.4216 5.40918 67.4216 5.9541C67.4216 6.58691 67.2546 7.14648 66.9206 7.63281C66.5866 8.11328 66.115 8.48828 65.5056 8.75781V8.82812C66.3611 8.99805 67.0378 9.34961 67.5359 9.88281C68.0398 10.416 68.2917 11.1191 68.2917 11.9922ZM60.4519 8.08105H60.9792C61.5124 8.08105 61.9665 8.07227 62.3415 8.05469C62.7165 8.03711 63.0124 7.97852 63.2292 7.87891C63.5339 7.74414 63.7331 7.57129 63.8269 7.36035C63.9206 7.14355 63.9675 6.89453 63.9675 6.61328C63.9675 6.39648 63.9118 6.17969 63.8005 5.96289C63.695 5.74609 63.5046 5.58496 63.2292 5.47949C62.9831 5.38574 62.6755 5.33594 62.3064 5.33008C61.9431 5.31836 61.4304 5.3125 60.7683 5.3125H60.4519V8.08105ZM60.4519 13.6006H60.698C61.6472 13.6006 62.3269 13.5977 62.737 13.5918C63.1472 13.5859 63.5251 13.5098 63.8708 13.3633C64.2224 13.2168 64.4626 13.0234 64.5915 12.7832C64.7263 12.5371 64.7937 12.2559 64.7937 11.9395C64.7937 11.5234 64.7116 11.2041 64.5476 10.9814C64.3894 10.7529 64.1169 10.583 63.7302 10.4717C63.4665 10.3955 63.1032 10.3545 62.6404 10.3486C62.1775 10.3428 61.6941 10.3398 61.1902 10.3398H60.4519V13.6006Z"/>
</mask>
<path d="M5.33496 10.9551H8.55176L6.94336 6.26172L5.33496 10.9551ZM9.36914 13.3545H4.51758L3.6123 16H0.210938L5.04492 2.91309H8.92969L13.7637 16H10.2744L9.36914 13.3545ZM15.4645 16V2.91309H21.0192C21.8512 2.91309 22.5514 2.98633 23.1198 3.13281C23.694 3.27344 24.2009 3.4873 24.6403 3.77441C25.1677 4.12012 25.569 4.5625 25.8444 5.10156C26.1257 5.64062 26.2663 6.28809 26.2663 7.04395C26.2663 7.62988 26.1637 8.2041 25.9587 8.7666C25.7536 9.32324 25.4606 9.79199 25.0798 10.1729C24.5583 10.6885 23.9753 11.0781 23.3307 11.3418C22.6921 11.6055 21.8952 11.7373 20.9401 11.7373H18.8395V16H15.4645ZM18.8395 9.27637H19.8063C20.3805 9.27637 20.8522 9.24121 21.2214 9.1709C21.5964 9.10059 21.9098 8.95996 22.1618 8.74902C22.3786 8.56152 22.5339 8.33887 22.6276 8.08105C22.7272 7.81738 22.777 7.49805 22.777 7.12305C22.777 6.75391 22.6774 6.4375 22.4782 6.17383C22.279 5.9043 22.0475 5.7168 21.7839 5.61133C21.4323 5.4707 21.0895 5.39453 20.7555 5.38281C20.4216 5.36523 19.9762 5.35645 19.4196 5.35645H18.8395V9.27637ZM40.3509 16H36.4486L33.6273 11.6934L30.7533 16H27.0267L31.6673 9.4082L27.1234 2.91309H31.017L33.7416 6.99121L36.5453 2.91309H40.2806L35.7103 9.27637L40.3509 16ZM53.9873 16H50.7002V7.29004L45.2686 16H42.0518V2.91309H45.3389V10.7969L50.3926 2.91309H53.9873V16ZM68.2917 11.9922C68.2917 12.625 68.1628 13.1904 67.905 13.6885C67.653 14.1865 67.3044 14.5996 66.8591 14.9277C66.3435 15.3145 65.7751 15.5898 65.154 15.7539C64.5388 15.918 63.7566 16 62.8073 16H57.0945V2.91309H62.1745C63.2292 2.91309 63.9997 2.94824 64.4861 3.01855C64.9782 3.08887 65.4646 3.24414 65.945 3.48438C66.4431 3.73633 66.8122 4.07617 67.0525 4.50391C67.2986 4.92578 67.4216 5.40918 67.4216 5.9541C67.4216 6.58691 67.2546 7.14648 66.9206 7.63281C66.5866 8.11328 66.115 8.48828 65.5056 8.75781V8.82812C66.3611 8.99805 67.0378 9.34961 67.5359 9.88281C68.0398 10.416 68.2917 11.1191 68.2917 11.9922ZM60.4519 8.08105H60.9792C61.5124 8.08105 61.9665 8.07227 62.3415 8.05469C62.7165 8.03711 63.0124 7.97852 63.2292 7.87891C63.5339 7.74414 63.7331 7.57129 63.8269 7.36035C63.9206 7.14355 63.9675 6.89453 63.9675 6.61328C63.9675 6.39648 63.9118 6.17969 63.8005 5.96289C63.695 5.74609 63.5046 5.58496 63.2292 5.47949C62.9831 5.38574 62.6755 5.33594 62.3064 5.33008C61.9431 5.31836 61.4304 5.3125 60.7683 5.3125H60.4519V8.08105ZM60.4519 13.6006H60.698C61.6472 13.6006 62.3269 13.5977 62.737 13.5918C63.1472 13.5859 63.5251 13.5098 63.8708 13.3633C64.2224 13.2168 64.4626 13.0234 64.5915 12.7832C64.7263 12.5371 64.7937 12.2559 64.7937 11.9395C64.7937 11.5234 64.7116 11.2041 64.5476 10.9814C64.3894 10.7529 64.1169 10.583 63.7302 10.4717C63.4665 10.3955 63.1032 10.3545 62.6404 10.3486C62.1775 10.3428 61.6941 10.3398 61.1902 10.3398H60.4519V13.6006Z" fill="white"/>
<path d="M5.33496 10.9551L3.44298 10.3067C3.2336 10.9177 3.33215 11.5921 3.70758 12.1177C4.08301 12.6432 4.68911 12.9551 5.33496 12.9551V10.9551ZM8.55176 10.9551V12.9551C9.19761 12.9551 9.80371 12.6432 10.1791 12.1177C10.5546 11.5921 10.6531 10.9177 10.4437 10.3067L8.55176 10.9551ZM6.94336 6.26172L8.83534 5.61334C8.55827 4.80482 7.79804 4.26172 6.94336 4.26172C6.08868 4.26172 5.32845 4.80482 5.05137 5.61334L6.94336 6.26172ZM9.36914 13.3545L11.2614 12.707C10.9846 11.898 10.2242 11.3545 9.36914 11.3545V13.3545ZM4.51758 13.3545V11.3545C3.66257 11.3545 2.90212 11.898 2.6253 12.707L4.51758 13.3545ZM3.6123 16V18C4.46732 18 5.22776 17.4565 5.50458 16.6475L3.6123 16ZM0.210938 16L-1.66517 15.307C-1.89185 15.9207 -1.80406 16.6065 -1.43009 17.1432C-1.05613 17.68 -0.443275 18 0.210938 18V16ZM5.04492 2.91309V0.913086C4.20762 0.913086 3.45894 1.43466 3.16882 2.2201L5.04492 2.91309ZM8.92969 2.91309L10.8058 2.2201C10.5157 1.43466 9.76699 0.913086 8.92969 0.913086V2.91309ZM13.7637 16V18C14.4179 18 15.0307 17.68 15.4047 17.1432C15.7787 16.6065 15.8665 15.9207 15.6398 15.307L13.7637 16ZM10.2744 16L8.38214 16.6475C8.65896 17.4565 9.4194 18 10.2744 18V16ZM5.33496 12.9551H8.55176V8.95508H5.33496V12.9551ZM10.4437 10.3067L8.83534 5.61334L5.05137 6.9101L6.65977 11.6035L10.4437 10.3067ZM5.05137 5.61334L3.44298 10.3067L7.22695 11.6035L8.83534 6.9101L5.05137 5.61334ZM9.36914 11.3545H4.51758V15.3545H9.36914V11.3545ZM2.6253 12.707L1.72003 15.3525L5.50458 16.6475L6.40986 14.002L2.6253 12.707ZM3.6123 14H0.210938V18H3.6123V14ZM2.08704 16.693L6.92103 3.60607L3.16882 2.2201L-1.66517 15.307L2.08704 16.693ZM5.04492 4.91309H8.92969V0.913086H5.04492V4.91309ZM7.05358 3.60607L11.8876 16.693L15.6398 15.307L10.8058 2.2201L7.05358 3.60607ZM13.7637 14H10.2744V18H13.7637V14ZM12.1667 15.3525L11.2614 12.707L7.47686 14.002L8.38214 16.6475L12.1667 15.3525ZM15.4645 16H13.4645C13.4645 17.1046 14.36 18 15.4645 18V16ZM15.4645 2.91309V0.913086C14.36 0.913086 13.4645 1.80852 13.4645 2.91309H15.4645ZM23.1198 3.13281L22.6207 5.06952C22.6284 5.07153 22.6362 5.07349 22.6441 5.07541L23.1198 3.13281ZM24.6403 3.77441L25.7368 2.10178L25.7342 2.10008L24.6403 3.77441ZM25.8444 5.10156L24.0634 6.01144C24.066 6.01654 24.0686 6.02162 24.0712 6.02669L25.8444 5.10156ZM25.9587 8.7666L27.8354 9.45802L27.8377 9.45166L25.9587 8.7666ZM25.0798 10.1729L26.486 11.5951L26.494 11.5871L25.0798 10.1729ZM23.3307 11.3418L22.5735 9.49069L22.5675 9.49314L23.3307 11.3418ZM18.8395 11.7373V9.7373C17.735 9.7373 16.8395 10.6327 16.8395 11.7373H18.8395ZM18.8395 16V18C19.9441 18 20.8395 17.1046 20.8395 16H18.8395ZM18.8395 9.27637H16.8395C16.8395 10.3809 17.735 11.2764 18.8395 11.2764V9.27637ZM21.2214 9.1709L20.8528 7.20515L20.8471 7.20622L21.2214 9.1709ZM22.1618 8.74902L23.4457 10.2825C23.4539 10.2757 23.462 10.2687 23.4701 10.2618L22.1618 8.74902ZM22.6276 8.08105L20.7567 7.37425C20.7537 7.38201 20.7509 7.38978 20.748 7.39757L22.6276 8.08105ZM22.4782 6.17383L20.8699 7.36261C20.874 7.36826 20.8782 7.37389 20.8825 7.37949L22.4782 6.17383ZM20.7555 5.38281L20.6504 7.38005C20.6621 7.38066 20.6737 7.38117 20.6854 7.38158L20.7555 5.38281ZM18.8395 5.35645V3.35645C17.735 3.35645 16.8395 4.25188 16.8395 5.35645H18.8395ZM17.4645 16V2.91309H13.4645V16H17.4645ZM15.4645 4.91309H21.0192V0.913086H15.4645V4.91309ZM21.0192 4.91309C21.7468 4.91309 22.2674 4.97848 22.6207 5.06952L23.619 1.1961C22.8355 0.994172 21.9557 0.913086 21.0192 0.913086V4.91309ZM22.6441 5.07541C23.026 5.16894 23.3187 5.29994 23.5464 5.44875L25.7342 2.10008C25.0831 1.67467 24.3621 1.37793 23.5955 1.19022L22.6441 5.07541ZM23.5438 5.44704C23.7932 5.61053 23.9528 5.79493 24.0634 6.01144L27.6255 4.19168C27.1853 3.33007 26.5421 2.6297 25.7368 2.10179L23.5438 5.44704ZM24.0712 6.02669C24.1716 6.21898 24.2663 6.53333 24.2663 7.04395H28.2663C28.2663 6.04284 28.0798 5.06227 27.6176 4.17643L24.0712 6.02669ZM24.2663 7.04395C24.2663 7.39108 24.2065 7.7337 24.0797 8.08154L27.8377 9.45166C28.121 8.6745 28.2663 7.86868 28.2663 7.04395H24.2663ZM24.082 8.07519C23.9667 8.38807 23.8218 8.60238 23.6656 8.75864L26.494 11.5871C27.0994 10.9816 27.5405 10.2584 27.8354 9.45801L24.082 8.07519ZM23.6736 8.75067C23.3282 9.09216 22.963 9.33136 22.5735 9.4907L24.088 13.1929C24.9876 12.8249 25.7884 12.2848 26.486 11.595L23.6736 8.75067ZM22.5675 9.49314C22.2444 9.62654 21.7267 9.7373 20.9401 9.7373V13.7373C22.0637 13.7373 23.1397 13.5844 24.0939 13.1904L22.5675 9.49314ZM20.9401 9.7373H18.8395V13.7373H20.9401V9.7373ZM16.8395 11.7373V16H20.8395V11.7373H16.8395ZM18.8395 14H15.4645V18H18.8395V14ZM18.8395 11.2764H19.8063V7.27637H18.8395V11.2764ZM19.8063 11.2764C20.4478 11.2764 21.0566 11.2382 21.5956 11.1356L20.8471 7.20622C20.6478 7.24419 20.3133 7.27637 19.8063 7.27637V11.2764ZM21.5899 11.1366C22.2473 11.0134 22.8911 10.7469 23.4457 10.2825L20.8779 7.21551C20.8879 7.20719 20.8973 7.20055 20.9053 7.19558C20.9132 7.19064 20.9182 7.1883 20.9191 7.1879C20.9211 7.18699 20.9021 7.19591 20.8528 7.20515L21.5899 11.1366ZM23.4701 10.2618C23.9329 9.86148 24.2916 9.35758 24.5072 8.76454L20.748 7.39757C20.7599 7.36498 20.7776 7.33005 20.8004 7.29738C20.8229 7.2651 20.8433 7.24512 20.8535 7.2363L23.4701 10.2618ZM24.4986 8.78786C24.7065 8.23733 24.777 7.66437 24.777 7.12305H20.777C20.777 7.33172 20.7479 7.39744 20.7567 7.37425L24.4986 8.78786ZM24.777 7.12305C24.777 6.3723 24.566 5.61947 24.0739 4.96816L20.8825 7.37949C20.8437 7.32824 20.8132 7.26846 20.7946 7.20946C20.7768 7.15278 20.777 7.11947 20.777 7.12305H24.777ZM24.0866 4.98505C23.7068 4.47123 23.1933 4.02102 22.5266 3.75437L21.0411 7.46828C20.9777 7.44293 20.9288 7.41143 20.8962 7.38509C20.8653 7.36003 20.8584 7.34718 20.8699 7.36261L24.0866 4.98505ZM22.5266 3.75437C21.9889 3.53929 21.4189 3.40486 20.8257 3.38404L20.6854 7.38158C20.7602 7.38421 20.8757 7.40212 21.0411 7.46828L22.5266 3.75437ZM20.8607 3.38558C20.4764 3.36535 19.9916 3.35645 19.4196 3.35645V7.35645C19.9609 7.35645 20.3667 7.36512 20.6504 7.38005L20.8607 3.38558ZM19.4196 3.35645H18.8395V7.35645H19.4196V3.35645ZM16.8395 5.35645V9.27637H20.8395V5.35645H16.8395ZM40.3509 16V18C41.0943 18 41.7764 17.5877 42.1218 16.9295C42.4673 16.2713 42.4192 15.4757 41.9969 14.8639L40.3509 16ZM36.4486 16L34.7756 17.096C35.1452 17.6601 35.7742 18 36.4486 18V16ZM33.6273 11.6934L35.3003 10.5974C34.9324 10.0358 34.3072 9.69624 33.6358 9.69338C32.9644 9.69052 32.3364 10.0247 31.9637 10.5832L33.6273 11.6934ZM30.7533 16V18C31.4217 18 32.0458 17.6661 32.4169 17.1102L30.7533 16ZM27.0267 16L25.3913 14.8487C24.9615 15.4593 24.9076 16.2585 25.2515 16.9212C25.5955 17.584 26.28 18 27.0267 18V16ZM31.6673 9.4082L33.3027 10.5595C33.7876 9.87072 33.789 8.95194 33.3061 8.26173L31.6673 9.4082ZM27.1234 2.91309V0.913086C26.3777 0.913086 25.694 1.32789 25.3496 1.98922C25.0051 2.65055 25.0572 3.44858 25.4846 4.05956L27.1234 2.91309ZM31.017 2.91309L32.68 1.80203C32.3089 1.24659 31.685 0.913086 31.017 0.913086V2.91309ZM33.7416 6.99121L32.0786 8.10227C32.447 8.65379 33.065 8.98676 33.7283 8.99117C34.3916 8.99557 35.0139 8.67085 35.3896 8.12427L33.7416 6.99121ZM36.5453 2.91309V0.913086C35.8867 0.913086 35.2703 1.23732 34.8972 1.78003L36.5453 2.91309ZM40.2806 2.91309L41.9051 4.0798C42.3426 3.47055 42.4025 2.66767 42.0602 2.00024C41.7178 1.33282 41.0307 0.913086 40.2806 0.913086V2.91309ZM35.7103 9.27637L34.0859 8.10965C33.5932 8.79568 33.5845 9.71729 34.0643 10.4124L35.7103 9.27637ZM40.3509 14H36.4486V18H40.3509V14ZM38.1216 14.904L35.3003 10.5974L31.9543 12.7893L34.7756 17.096L38.1216 14.904ZM31.9637 10.5832L29.0897 14.8898L32.4169 17.1102L35.2909 12.8035L31.9637 10.5832ZM30.7533 14H27.0267V18H30.7533V14ZM28.6621 17.1513L33.3027 10.5595L30.032 8.25689L25.3913 14.8487L28.6621 17.1513ZM33.3061 8.26173L28.7622 1.76661L25.4846 4.05956L30.0286 10.5547L33.3061 8.26173ZM27.1234 4.91309H31.017V0.913086H27.1234V4.91309ZM29.354 4.02414L32.0786 8.10227L35.4046 5.88016L32.68 1.80203L29.354 4.02414ZM35.3896 8.12427L38.1934 4.04614L34.8972 1.78003L32.0935 5.85815L35.3896 8.12427ZM36.5453 4.91309H40.2806V0.913086H36.5453V4.91309ZM38.6562 1.74637L34.0859 8.10965L37.3347 10.4431L41.9051 4.0798L38.6562 1.74637ZM34.0643 10.4124L38.7049 17.1361L41.9969 14.8639L37.3563 8.1403L34.0643 10.4124ZM53.9873 16V18C55.0919 18 55.9873 17.1046 55.9873 16H53.9873ZM50.7002 16H48.7002C48.7002 17.1046 49.5957 18 50.7002 18V16ZM50.7002 7.29004H52.7002C52.7002 6.39745 52.1088 5.61291 51.2506 5.36727C50.3925 5.12162 49.4755 5.47435 49.0032 6.23173L50.7002 7.29004ZM45.2686 16V18C45.9589 18 46.6004 17.644 46.9656 17.0583L45.2686 16ZM42.0518 16H40.0518C40.0518 17.1046 40.9472 18 42.0518 18V16ZM42.0518 2.91309V0.913086C40.9472 0.913086 40.0518 1.80852 40.0518 2.91309H42.0518ZM45.3389 2.91309H47.3389C47.3389 1.80852 46.4435 0.913086 45.3389 0.913086V2.91309ZM45.3389 10.7969H43.3389C43.3389 11.6849 43.9244 12.4665 44.7766 12.7162C45.6287 12.9659 46.5434 12.6238 47.0227 11.8762L45.3389 10.7969ZM50.3926 2.91309V0.913086C49.7112 0.913086 49.0766 1.26006 48.7089 1.83375L50.3926 2.91309ZM53.9873 2.91309H55.9873C55.9873 1.80852 55.0919 0.913086 53.9873 0.913086V2.91309ZM53.9873 14H50.7002V18H53.9873V14ZM52.7002 16V7.29004H48.7002V16H52.7002ZM49.0032 6.23173L43.5715 14.9417L46.9656 17.0583L52.3973 8.34834L49.0032 6.23173ZM45.2686 14H42.0518V18H45.2686V14ZM44.0518 16V2.91309H40.0518V16H44.0518ZM42.0518 4.91309H45.3389V0.913086H42.0518V4.91309ZM43.3389 2.91309V10.7969H47.3389V2.91309H43.3389ZM47.0227 11.8762L52.0764 3.99242L48.7089 1.83375L43.6551 9.71754L47.0227 11.8762ZM50.3926 4.91309H53.9873V0.913086H50.3926V4.91309ZM51.9873 2.91309V16H55.9873V2.91309H51.9873ZM67.905 13.6885L66.1289 12.7691C66.126 12.7746 66.1232 12.7801 66.1204 12.7857L67.905 13.6885ZM66.8591 14.9277L65.6727 13.3176C65.6682 13.321 65.6636 13.3243 65.6591 13.3277L66.8591 14.9277ZM65.154 15.7539L64.6432 13.8202L64.6387 13.8214L65.154 15.7539ZM57.0945 16H55.0945C55.0945 17.1046 55.9899 18 57.0945 18V16ZM57.0945 2.91309V0.913086C55.9899 0.913086 55.0945 1.80852 55.0945 2.91309H57.0945ZM64.4861 3.01855L64.1999 4.99798L64.2032 4.99845L64.4861 3.01855ZM65.945 3.48438L66.8479 1.69972L66.8395 1.69552L65.945 3.48438ZM67.0525 4.50391L65.3087 5.48329C65.314 5.49279 65.3194 5.50224 65.3249 5.51165L67.0525 4.50391ZM66.9206 7.63281L68.5629 8.77437L68.5693 8.76503L66.9206 7.63281ZM65.5056 8.75781L64.6966 6.92874C63.9726 7.24898 63.5056 7.96614 63.5056 8.75781H65.5056ZM65.5056 8.82812H63.5056C63.5056 9.78248 64.1799 10.6039 65.1159 10.7898L65.5056 8.82812ZM67.5359 9.88281L66.0743 11.248L66.0823 11.2565L67.5359 9.88281ZM60.4519 8.08105H58.4519C58.4519 9.18562 59.3473 10.0811 60.4519 10.0811V8.08105ZM63.2292 7.87891L62.4202 6.04984C62.4115 6.05368 62.4029 6.05759 62.3942 6.06155L63.2292 7.87891ZM63.8269 7.36035L65.6545 8.17263C65.6572 8.16649 65.6599 8.16034 65.6626 8.15417L63.8269 7.36035ZM63.8005 5.96289L62.002 6.83782C62.0083 6.85078 62.0148 6.86368 62.0214 6.8765L63.8005 5.96289ZM63.2292 5.47949L63.9445 3.61178L63.9412 3.61052L63.2292 5.47949ZM62.3064 5.33008L62.2419 7.32904C62.2528 7.32939 62.2637 7.32965 62.2746 7.32983L62.3064 5.33008ZM60.4519 5.3125V3.3125C59.3473 3.3125 58.4519 4.20793 58.4519 5.3125H60.4519ZM60.4519 13.6006H58.4519C58.4519 14.7052 59.3473 15.6006 60.4519 15.6006V13.6006ZM63.8708 13.3633L63.1016 11.5171L63.0905 11.5218L63.8708 13.3633ZM64.5915 12.7832L62.8373 11.8226C62.8346 11.8276 62.8319 11.8326 62.8292 11.8376L64.5915 12.7832ZM64.5476 10.9814L62.9032 12.1199C62.9144 12.136 62.9258 12.152 62.9375 12.1678L64.5476 10.9814ZM63.7302 10.4717L63.1751 12.3931L63.1769 12.3936L63.7302 10.4717ZM60.4519 10.3398V8.33984C59.3473 8.33984 58.4519 9.23527 58.4519 10.3398H60.4519ZM66.2917 11.9922C66.2917 12.3465 66.2216 12.5899 66.1289 12.7691L69.6811 14.6079C70.104 13.791 70.2917 12.9035 70.2917 11.9922H66.2917ZM66.1204 12.7857C66.0084 13.007 65.8636 13.1769 65.6727 13.3176L68.0455 16.5378C68.7452 16.0223 69.2977 15.366 69.6896 14.5913L66.1204 12.7857ZM65.6591 13.3277C65.3489 13.5604 65.0144 13.7222 64.6432 13.8202L65.6648 17.6876C66.5358 17.4575 67.3381 17.0685 68.0591 16.5277L65.6591 13.3277ZM64.6387 13.8214C64.252 13.9245 63.6588 14 62.8073 14V18C63.8543 18 64.8255 17.9114 65.6693 17.6864L64.6387 13.8214ZM62.8073 14H57.0945V18H62.8073V14ZM59.0945 16V2.91309H55.0945V16H59.0945ZM57.0945 4.91309H62.1745V0.913086H57.0945V4.91309ZM62.1745 4.91309C63.2162 4.91309 63.865 4.94956 64.1999 4.99797L64.7722 1.03914C64.1344 0.946925 63.2422 0.913086 62.1745 0.913086V4.91309ZM64.2032 4.99845C64.4661 5.03601 64.747 5.1214 65.0506 5.27323L66.8395 1.69552C66.1822 1.36688 65.4903 1.14172 64.7689 1.03866L64.2032 4.99845ZM65.0422 5.26901C65.2366 5.36735 65.2886 5.44754 65.3087 5.48329L68.7962 3.52452C68.3359 2.70481 67.6496 2.10531 66.8479 1.69974L65.0422 5.26901ZM65.3249 5.51165C65.3726 5.59334 65.4216 5.72133 65.4216 5.9541H69.4216C69.4216 5.09703 69.2246 4.25822 68.78 3.49616L65.3249 5.51165ZM65.4216 5.9541C65.4216 6.21356 65.3602 6.37208 65.272 6.5006L68.5693 8.76503C69.149 7.92089 69.4216 6.96026 69.4216 5.9541H65.4216ZM65.2784 6.49127C65.1817 6.63045 65.018 6.78658 64.6966 6.92874L66.3146 10.5869C67.2119 10.19 67.9916 9.59611 68.5628 8.77435L65.2784 6.49127ZM63.5056 8.75781V8.82812H67.5056V8.75781H63.5056ZM65.1159 10.7898C65.6427 10.8944 65.9146 11.0771 66.0743 11.248L68.9974 8.5176C68.161 7.62213 67.0794 7.10166 65.8952 6.86645L65.1159 10.7898ZM66.0823 11.2565C66.1702 11.3496 66.2917 11.5267 66.2917 11.9922H70.2917C70.2917 10.7115 69.9093 9.48243 68.9894 8.5091L66.0823 11.2565ZM60.4519 10.0811H60.9792V6.08105H60.4519V10.0811ZM60.9792 10.0811C61.5319 10.0811 62.0191 10.072 62.4352 10.0525L62.2479 6.05688C61.914 6.07253 61.493 6.08105 60.9792 6.08105V10.0811ZM62.4352 10.0525C62.9361 10.029 63.5193 9.94664 64.0642 9.69626L62.3942 6.06155C62.4601 6.03126 62.4886 6.02924 62.4562 6.03565C62.4256 6.04171 62.3592 6.05166 62.2479 6.05688L62.4352 10.0525ZM64.0382 9.70798C64.5979 9.46043 65.2855 9.00294 65.6545 8.17263L61.9993 6.54807C62.1808 6.13964 62.4699 6.02785 62.4202 6.04984L64.0382 9.70798ZM65.6626 8.15417C65.8833 7.64369 65.9675 7.11638 65.9675 6.61328H61.9675C61.9675 6.64313 61.965 6.65095 61.9669 6.64101C61.9689 6.63038 61.9751 6.60365 61.9912 6.56653L65.6626 8.15417ZM65.9675 6.61328C65.9675 6.0411 65.8179 5.51326 65.5796 5.04928L62.0214 6.8765C62.0058 6.84612 61.9675 6.75187 61.9675 6.61328H65.9675ZM65.599 5.08796C65.2243 4.31778 64.5825 3.8561 63.9445 3.61178L62.5139 7.34721C62.4789 7.3338 62.3912 7.29464 62.2867 7.20622C62.1771 7.11348 62.0752 6.98831 62.002 6.83782L65.599 5.08796ZM63.9412 3.61052C63.4095 3.40797 62.8536 3.33851 62.3381 3.33033L62.2746 7.32983C62.3798 7.3315 62.4512 7.33914 62.4943 7.34612C62.5377 7.35315 62.5416 7.35776 62.5172 7.34847L63.9412 3.61052ZM62.3708 3.33112C61.9754 3.31836 61.4375 3.3125 60.7683 3.3125V7.3125C61.4232 7.3125 61.9108 7.31836 62.2419 7.32904L62.3708 3.33112ZM60.7683 3.3125H60.4519V7.3125H60.7683V3.3125ZM58.4519 5.3125V8.08105H62.4519V5.3125H58.4519ZM60.4519 15.6006H60.698V11.6006H60.4519V15.6006ZM60.698 15.6006C61.6477 15.6006 62.3399 15.5977 62.7656 15.5916L62.7085 11.592C62.3139 11.5976 61.6467 11.6006 60.698 11.6006V15.6006ZM62.7656 15.5916C63.4102 15.5824 64.0462 15.4611 64.6511 15.2048L63.0905 11.5218C63.004 11.5584 62.8842 11.5895 62.7085 11.592L62.7656 15.5916ZM64.6401 15.2094C65.25 14.9553 65.9352 14.5091 66.3538 13.7288L62.8292 11.8376C62.9901 11.5378 63.1947 11.4783 63.1016 11.5171L64.6401 15.2094ZM66.3457 13.7438C66.6614 13.1673 66.7937 12.5481 66.7937 11.9395H62.7937C62.7937 11.9553 62.7921 11.9473 62.7982 11.9217C62.8046 11.8951 62.8169 11.86 62.8373 11.8226L66.3457 13.7438ZM66.7937 11.9395C66.7937 11.3004 66.6739 10.4956 66.1577 9.79505L62.9375 12.1678C62.8411 12.0371 62.8058 11.9276 62.795 11.8855C62.7851 11.8468 62.7937 11.8577 62.7937 11.9395H66.7937ZM66.192 9.84303C65.6759 9.09768 64.9201 8.73299 64.2835 8.54973L63.1769 12.3936C63.2352 12.4104 63.2209 12.4138 63.1662 12.3796C63.1067 12.3425 63.0016 12.262 62.9032 12.1199L66.192 9.84303ZM64.2853 8.55025C63.7715 8.40183 63.2031 8.3556 62.6657 8.34879L62.615 12.3485C62.7965 12.3508 62.9347 12.3598 63.0356 12.3712C63.1397 12.3829 63.1802 12.3946 63.1751 12.3931L64.2853 8.55025ZM62.6657 8.34879C62.1936 8.34282 61.7018 8.33984 61.1902 8.33984V12.3398C61.6864 12.3398 62.1613 12.3427 62.615 12.3485L62.6657 8.34879ZM61.1902 8.33984H60.4519V12.3398H61.1902V8.33984ZM58.4519 10.3398V13.6006H62.4519V10.3398H58.4519Z" fill="black" mask="url(#path-1-outside-1_247_11039)"/>
</svg>
