<svg width="294" height="172" viewBox="0 0 294 172" fill="none" xmlns="http://www.w3.org/2000/svg">
<g filter="url(#filter0_d_428_1617)">
<ellipse cx="146.881" cy="85.7678" rx="137.742" ry="57.9965" transform="rotate(-12.1871 146.881 85.7678)" fill="black"/>
<path d="M280.052 57.0065C281.634 64.3285 279.65 72.1927 274.445 80.2254C269.235 88.2648 260.858 96.3714 249.881 104.064C227.932 119.444 195.84 132.993 158.808 140.991C121.775 148.989 86.9524 149.892 60.6122 144.94C47.4389 142.464 36.4624 138.537 28.3995 133.364C20.3433 128.196 15.2909 121.851 13.7095 114.529C12.1282 107.207 14.1119 99.3429 19.317 91.3102C24.5264 83.2708 32.904 75.1642 43.8812 67.4719C65.8302 52.0912 97.922 38.5424 134.954 30.5445C171.986 22.5466 206.809 21.6437 233.15 26.5952C246.323 29.0717 257.299 32.9984 265.362 38.1713C273.418 43.34 278.471 49.6845 280.052 57.0065Z" stroke="#FBF448" stroke-width="3"/>
</g>
<path d="M240.772 84.0252C239.193 84.3663 237.792 84.0647 236.571 83.1204C235.349 82.1761 234.277 80.7577 233.354 78.8653C232.441 76.9707 231.78 75.0759 231.37 73.1808C230.544 69.356 230.324 65.3734 230.71 61.2329C231.092 57.0751 232.067 53.6098 233.634 50.8368C235.208 48.0446 237.006 46.4301 239.028 45.9934C240.212 45.7376 241.449 46.0295 242.739 46.8689C244.039 47.7062 245.189 49.0176 246.189 50.8032C247.199 52.5866 247.914 54.4517 248.335 56.3986C249.276 60.7574 249.446 65.3008 248.845 70.0289C248.24 74.7397 247.181 78.2862 245.67 80.6682C244.523 82.4487 242.89 83.5677 240.772 84.0252ZM239.009 48.2155C238.248 48.3797 237.652 48.7699 237.221 49.386C236.796 49.9828 236.419 50.9207 236.09 52.1998C235.762 53.4789 235.532 55.2597 235.4 57.5421C235.264 59.8074 235.33 62.8407 235.597 66.642C235.873 70.4412 236.277 73.5726 236.809 76.0363C237.263 78.1382 237.863 79.6767 238.607 80.6519C239.348 81.6098 240.118 82.0025 240.918 81.8299C241.977 81.6012 242.741 80.7779 243.211 79.3601C244.145 76.5438 244.553 72.6238 244.435 67.6002C244.324 62.5573 243.86 58.1493 243.045 54.3762C242.536 52.0159 241.917 50.3644 241.189 49.4216C240.468 48.4595 239.741 48.0574 239.009 48.2155Z" fill="#FBF448"/>
<path d="M216.322 68.6415L223.485 67.0943L222.959 56.9568C222.88 55.5672 222.765 54.5193 222.612 53.8129C222.463 53.1237 222.22 52.6263 221.882 52.3207C221.544 52.015 220.866 51.909 219.848 52.0026L219.8 51.0121L229.535 48.9097L229.582 49.9002C228.629 50.1061 227.985 50.6238 227.65 51.4535C227.316 52.2832 227.206 53.8036 227.32 56.0148L228.525 79.2324C228.601 80.7488 228.708 81.8257 228.845 82.4632C228.983 83.1006 229.217 83.555 229.548 83.8262C229.981 84.2013 230.645 84.3105 231.538 84.1536L231.6 85.141L222.054 87.2028L222.064 86.1999C222.988 86.0002 223.598 85.5349 223.894 84.8039C224.195 84.0535 224.285 82.5104 224.164 80.1744L223.599 69.369L216.464 70.9099L217.043 81.7122C217.111 83.1942 217.22 84.2797 217.369 84.9688C217.503 85.5891 217.757 86.0661 218.131 86.4C218.512 86.7146 219.139 86.7955 220.013 86.6428L220.075 87.6302L210.658 89.6639L210.61 88.6734C211.535 88.4738 212.14 88.0095 212.426 87.2806C212.718 86.5323 212.803 84.9902 212.681 82.6542L211.477 59.4366C211.409 58.0987 211.296 57.0594 211.136 56.3185C210.983 55.6122 210.738 55.1062 210.4 54.8005C210.071 54.4928 209.412 54.3826 208.424 54.4699L208.376 53.4794L217.952 51.4114L217.941 52.4143C217.056 52.6057 216.461 53.0948 216.157 53.8816C215.85 54.6513 215.748 56.1879 215.853 58.4915L216.322 68.6415Z" fill="#FBF448"/>
<path d="M198.278 57.688L199.033 71.7523L199.697 71.6088C201.45 71.2303 202.636 70.5413 203.257 69.5418C203.887 68.5401 204.254 66.928 204.359 64.7055L204.893 64.5901L205.645 78.7093L205.139 78.8184C205.029 77.8866 204.912 77.1364 204.789 76.5679C204.585 75.6203 204.258 74.8793 203.81 74.345C203.372 73.8085 202.875 73.4651 202.318 73.3148C201.953 73.2133 201.256 73.2737 200.226 73.4962L199.099 73.7395L199.761 85.9035C199.821 86.9726 199.904 87.7569 200.012 88.2565C200.098 88.6528 200.273 88.9487 200.537 89.1441C200.919 89.4221 201.539 89.4686 202.396 89.2835C204.042 88.9279 205.459 87.9729 206.645 86.4184C207.827 84.8468 208.722 82.6698 209.331 79.8877L209.923 79.7598L209.963 89.8132L193.209 93.4315L193.176 92.4379C194.158 92.2258 194.804 91.7435 195.116 90.9911C195.423 90.2214 195.516 88.6686 195.394 86.3327L194.205 62.9765C194.135 61.6752 194.023 60.6627 193.866 59.9391C193.725 59.2844 193.487 58.8128 193.153 58.5244C192.815 58.2188 192.17 58.1055 191.22 58.1845L191.172 57.194L206.785 53.8221L207.421 62.8542L206.901 62.9664C206.49 61.2519 206.078 60.0695 205.666 59.4193C205.023 58.404 204.311 57.7193 203.529 57.3653C202.753 56.9919 201.614 56.9674 200.112 57.2918L198.278 57.688Z" fill="#FBF448"/>
<path d="M174.168 60.8667L183.223 58.911L183.271 59.9015C182.392 60.2175 181.874 60.9695 181.717 62.1574C181.567 63.326 181.565 65.3009 181.712 68.0821L182.165 76.4775C183.224 76.0144 183.986 75.39 184.451 74.6043C184.916 73.8186 185.221 72.8962 185.365 71.8373C185.515 70.759 185.578 68.762 185.553 65.8462C185.536 62.5499 185.784 60.3596 186.295 59.2754C186.807 58.1912 187.457 57.5638 188.247 57.3933C188.95 57.2415 189.602 57.4613 190.203 58.0527C190.811 58.6248 191.235 59.4707 191.477 60.5906C191.685 61.5554 191.667 62.425 191.421 63.1994C191.181 63.9545 190.801 64.3882 190.281 64.5005C189.645 64.6377 189.011 64.2428 188.377 63.3157C187.955 62.6676 187.609 62.3726 187.339 62.4309C187.031 62.4974 186.843 62.8626 186.775 63.5265C186.716 64.1883 186.7 65.7697 186.726 68.2705C186.748 70.051 186.671 71.6093 186.496 72.9454C186.327 74.2622 185.826 75.3712 184.993 76.2725C185.751 76.4694 186.446 77.0765 187.079 78.0939C187.718 79.092 188.766 81.5885 190.223 85.5834C191.296 88.5434 192.087 90.4102 192.597 91.1837C193.107 91.9572 193.688 92.2915 194.34 92.1866L194.388 93.1771L188.9 94.3624L184.217 81.4981C183.681 80.045 183.291 79.1734 183.047 78.8835C182.809 78.5743 182.555 78.4488 182.286 78.507L182.804 88.1865C182.921 90.3612 183.039 91.7242 183.158 92.2755C183.426 93.516 184.053 94.1559 185.039 94.1954L185.087 95.1859L176.464 97.0481L176.417 96.0576C177.379 95.8497 177.991 95.3209 178.251 94.4714C178.52 93.6197 178.561 91.429 178.373 87.8992L177.907 79.3715C177.464 79.4672 177.154 79.6875 176.977 80.0323C176.809 80.3751 176.565 81.4377 176.244 83.2199L173.662 97.6533L167.611 98.9602L167.565 98.0504C168.521 97.7177 169.407 95.1461 170.223 90.3358C170.746 87.3014 171.15 85.1586 171.434 83.9071C171.714 82.6384 172.179 81.4743 172.827 80.4147C173.484 79.3531 174.323 78.6669 175.345 78.3561C174.37 77.4846 173.649 75.9635 173.18 73.7927C173.05 73.1897 172.884 72.1435 172.684 70.6541C172.469 69.0055 172.304 67.9142 172.188 67.3801C171.984 66.4325 171.703 65.9972 171.347 66.0742C171.125 66.122 170.937 66.4872 170.782 67.1698C170.517 68.273 170.138 68.8777 169.647 68.9837C169.137 69.094 168.637 68.8774 168.146 68.3341C167.653 67.7736 167.309 67.0454 167.115 66.1495C166.892 65.1158 166.924 64.1442 167.211 63.2346C167.495 62.3078 168.065 61.7519 168.922 61.5668C169.866 61.363 170.724 61.7456 171.498 62.7146C172.281 63.6814 172.842 64.9488 173.181 66.5166C173.348 67.2918 173.58 68.7385 173.876 70.8564C174.055 72.1521 174.215 73.1273 174.357 73.782C174.584 74.8329 174.894 75.6856 175.287 76.3399C175.686 76.975 176.059 77.3454 176.404 77.4512C176.759 77.5548 177.225 77.5443 177.803 77.4195L177.328 68.5692C177.202 66.072 177.045 64.3926 176.859 63.5312C176.714 62.8593 176.451 62.4112 176.07 62.1869C175.695 61.9434 175.077 61.8335 174.215 61.8572L174.168 60.8667Z" fill="#FBF448"/>
<path d="M160.195 83.7117L160.717 93.8234C160.793 95.2495 160.892 96.2468 161.015 96.8154C161.186 97.6079 161.461 98.1797 161.839 98.5308C162.213 98.8647 162.915 98.9386 163.943 98.7526L163.962 99.7494L154.4 101.814L154.353 100.824C155.158 100.632 155.701 100.37 155.982 100.039C156.26 99.6907 156.444 99.1911 156.535 98.5402C156.613 98.1086 156.596 96.841 156.485 94.7373L155.304 71.7037C155.235 70.168 155.131 69.0814 154.993 68.444C154.856 67.8065 154.582 67.3068 154.171 66.9447C153.756 66.5653 153.126 66.4489 152.281 66.5954L152.234 65.6049L159.99 63.9298C162.117 63.4703 163.753 63.622 164.895 64.3851C166.667 65.5893 167.88 67.7075 168.535 70.7397C169.167 73.6686 169.003 76.4088 168.043 78.9604C167.088 81.4928 165.393 83.022 162.957 83.5481C162.225 83.7061 161.305 83.7607 160.195 83.7117ZM160.055 81.6594C160.71 81.6621 161.245 81.6187 161.659 81.5293C162.988 81.2423 163.798 79.9313 164.09 77.5962C164.382 75.2611 164.273 72.9134 163.763 70.5531C163.417 68.9509 162.904 67.7634 162.223 66.9908C161.538 66.201 160.763 65.8997 159.896 66.0868C159.713 66.1263 159.491 66.1924 159.228 66.2851L160.055 81.6594Z" fill="#FBF448"/>
<path d="M141.942 69.854L142.697 83.9183L143.361 83.7748C145.114 83.3964 146.3 82.7073 146.921 81.7078C147.551 80.7061 147.918 79.0941 148.023 76.8716L148.557 76.7561L149.309 90.8753L148.803 90.9844C148.693 90.0526 148.576 89.3024 148.453 88.7339C148.249 87.7863 147.922 87.0454 147.474 86.511C147.036 85.9745 146.539 85.6312 145.982 85.4809C145.618 85.3793 144.92 85.4397 143.89 85.6622L142.763 85.9055L143.425 98.0695C143.485 99.1386 143.569 99.9229 143.676 100.423C143.762 100.819 143.937 101.115 144.201 101.31C144.583 101.588 145.203 101.635 146.06 101.45C147.706 101.094 149.123 100.139 150.309 98.5845C151.491 97.0128 152.386 94.8359 152.995 92.0537L153.587 91.9258L153.627 101.979L136.873 105.598L136.84 104.604C137.822 104.392 138.469 103.91 138.78 103.157C139.087 102.387 139.18 100.835 139.058 98.4987L137.869 75.1425C137.8 73.8412 137.687 72.8287 137.53 72.1051C137.389 71.4504 137.151 70.9789 136.817 70.6904C136.479 70.3848 135.834 70.2715 134.884 70.3505L134.836 69.36L150.449 65.9881L151.085 75.0202L150.565 75.1325C150.154 73.4179 149.743 72.2355 149.33 71.5853C148.687 70.57 147.975 69.8854 147.193 69.5313C146.417 69.1579 145.278 69.1334 143.776 69.4579L141.942 69.854Z" fill="#FBF448"/>
<path d="M117.56 73.0912L125.301 71.4193C127.025 71.047 128.293 70.9445 129.105 71.1117C130.167 71.3152 131.092 71.9627 131.882 73.0543C132.678 74.1267 133.24 75.4209 133.568 76.937C133.835 78.1774 133.897 79.4895 133.753 80.8731C133.608 82.2568 133.203 83.4622 132.538 84.4894C131.879 85.4973 130.754 86.5426 129.164 87.6254C131.172 88.1475 132.681 89.0477 133.693 90.3258C134.705 91.604 135.415 93.1907 135.824 95.0858C136.208 96.8603 136.241 98.6925 135.923 100.582C135.602 102.455 134.956 103.92 133.985 104.977C133.01 106.017 130.997 106.867 127.945 107.526L119.799 109.285L119.78 108.288C120.57 108.118 121.105 107.867 121.386 107.536C121.677 107.202 121.866 106.747 121.953 106.169C122.045 105.572 122.045 104.382 121.952 102.599L120.793 80.291C120.677 78.0261 120.538 76.5232 120.378 75.7823C120.248 75.1793 119.996 74.7109 119.621 74.377C119.257 74.0411 118.59 73.9416 117.622 74.0786L117.56 73.0912ZM125.337 87.6134C126.639 87.2961 127.589 86.7032 128.188 85.8346C128.796 84.964 129.153 83.6787 129.26 81.9787C129.372 80.2594 129.274 78.6847 128.965 77.2548C128.675 75.9109 128.203 74.8679 127.549 74.1256C126.895 73.3833 126.176 73.1146 125.394 73.3196L124.611 73.5428L125.337 87.6134ZM125.409 89.6265L126.276 105.749C126.765 105.68 127.13 105.619 127.37 105.567C129.518 105.103 130.779 103.713 131.156 101.396C131.528 99.0611 131.45 96.6706 130.922 94.2242C130.669 93.0526 130.282 92.0543 129.761 91.2291C129.246 90.3846 128.696 89.8452 128.112 89.6108C127.523 89.3592 126.622 89.3645 125.409 89.6265Z" fill="#FBF448"/>
<path d="M110.041 112.26C108.462 112.601 107.062 112.299 105.84 111.355C104.618 110.41 103.546 108.992 102.623 107.1C101.71 105.205 101.049 103.31 100.64 101.415C99.8138 97.5904 99.5936 93.6078 99.9793 89.4673C100.361 85.3095 101.336 81.8442 102.904 79.0712C104.478 76.279 106.275 74.6645 108.298 74.2278C109.482 73.972 110.719 74.2638 112.009 75.1033C113.308 75.9406 114.458 77.252 115.459 79.0375C116.468 80.821 117.184 82.6861 117.604 84.6329C118.546 88.9918 118.716 93.5352 118.114 98.2633C117.509 102.974 116.451 106.521 114.94 108.903C113.792 110.683 112.16 111.802 110.041 112.26ZM108.279 76.4498C107.518 76.6141 106.922 77.0043 106.491 77.6204C106.065 78.2171 105.688 79.1551 105.36 80.4342C105.031 81.7132 104.801 83.494 104.669 85.7765C104.534 88.0418 104.599 91.0751 104.866 94.8763C105.142 98.6755 105.547 101.807 106.079 104.271C106.533 106.373 107.132 107.911 107.877 108.886C108.618 109.844 109.388 110.237 110.187 110.064C111.246 109.836 112.011 109.012 112.48 107.594C113.414 104.778 113.822 100.858 113.705 95.8346C113.593 90.7916 113.13 86.3837 112.315 82.6106C111.805 80.2503 111.187 78.5987 110.459 77.6559C109.737 76.6938 109.01 76.2918 108.279 76.4498Z" fill="#FBF448"/>
<path d="M91.1447 98.6238L91.6657 108.735C91.7419 110.162 91.8414 111.159 91.9642 111.727C92.1354 112.52 92.4101 113.092 92.7882 113.443C93.1627 113.777 93.8639 113.851 94.892 113.665L94.9107 114.661L85.3495 116.726L85.3019 115.736C86.107 115.544 86.6501 115.282 86.9313 114.951C87.2088 114.603 87.3931 114.103 87.4843 113.452C87.5624 113.021 87.5456 111.753 87.434 109.649L86.2536 86.6159C86.184 85.0801 86.0803 83.9935 85.9426 83.3561C85.805 82.7186 85.5307 82.2189 85.12 81.8568C84.7055 81.4775 84.0757 81.361 83.2305 81.5075L83.1829 80.517L90.9387 78.8419C93.0667 78.3824 94.7018 78.5341 95.8441 79.2972C97.6159 80.5014 98.8292 82.6196 99.4841 85.6518C100.117 88.5807 99.9526 91.3209 98.992 93.8726C98.0373 96.4049 96.342 97.9341 93.906 98.4602C93.1742 98.6183 92.2538 98.6728 91.1447 98.6238ZM91.0038 96.5715C91.6594 96.5742 92.1943 96.5308 92.6083 96.4414C93.937 96.1544 94.7473 94.8434 95.0392 92.5083C95.331 90.1732 95.222 87.8255 94.7123 85.4652C94.3662 83.863 93.8528 82.6755 93.172 81.9029C92.4874 81.1131 91.7119 80.8118 90.8453 80.9989C90.6623 81.0384 90.4398 81.1045 90.1776 81.1972L91.0038 96.5715Z" fill="#FBF448"/>
<path d="M62.3126 85.0256L83.4571 80.459L83.5191 81.4463C82.2571 81.809 81.5416 82.6488 81.3725 83.9656C81.213 85.2803 81.2174 87.4703 81.3856 90.5355L82.4223 109.894C82.5347 111.908 82.6671 113.268 82.8197 113.974C83.1062 115.301 83.9864 115.877 85.4605 115.703L85.5226 116.69L75.9758 118.752L75.9282 117.762C77.0258 117.525 77.6846 116.958 77.9045 116.063C78.1303 115.149 78.1632 113.131 78.0031 110.01L76.5964 83.9693L69.5194 85.4977L70.9198 112C71.051 114.334 71.1929 115.854 71.3454 116.56C71.6282 117.87 72.477 118.417 73.8917 118.201L73.9394 119.192L64.537 121.223L64.4894 120.232C65.4448 119.99 66.0581 119.469 66.3292 118.672C66.6099 117.872 66.6718 115.965 66.5147 112.951L65.4668 92.3506C65.3564 90.0663 65.2249 88.571 65.0724 87.8647C64.7375 86.3141 63.8334 85.6979 62.3603 86.0161L62.3126 85.0256Z" fill="#FBF448"/>
<path d="M55.0649 124.133C53.4858 124.474 52.0853 124.172 50.8635 123.228C49.6417 122.284 48.5695 120.865 47.6468 118.973C46.7338 117.078 46.0726 115.183 45.6633 113.288C44.8373 109.463 44.6171 105.481 45.0027 101.34C45.3846 97.1826 46.3595 93.7172 47.9273 90.9443C49.5011 88.152 51.2989 86.5375 53.3209 86.1008C54.5053 85.8451 55.7423 86.1369 57.0322 86.9763C58.3317 87.8136 59.4816 89.1251 60.4819 90.9106C61.4919 92.694 62.2072 94.5592 62.6276 96.506C63.569 100.865 63.739 105.408 63.1376 110.136C62.5325 114.847 61.4744 118.394 59.9632 120.776C58.8159 122.556 57.1831 123.675 55.0649 124.133ZM53.302 88.3229C52.5413 88.4872 51.9454 88.8773 51.5141 89.4934C51.0887 90.0902 50.7118 91.0281 50.3834 92.3072C50.0549 93.5863 49.8248 95.3671 49.6929 97.6496C49.5573 99.9148 49.6229 102.948 49.8896 106.749C50.1659 110.549 50.5701 113.68 51.1022 116.144C51.5562 118.246 52.1555 119.784 52.9002 120.759C53.6412 121.717 54.4113 122.11 55.2105 121.937C56.2697 121.709 57.0341 120.885 57.5039 119.468C58.4375 116.651 58.8456 112.731 58.7281 107.708C58.6165 102.665 58.1533 98.2567 57.3384 94.4837C56.8287 92.1233 56.21 90.4718 55.4823 89.529C54.7605 88.5669 54.0338 88.1648 53.302 88.3229Z" fill="#FBF448"/>
<defs>
<filter id="filter0_d_428_1617" x="11.6792" y="22.043" width="270.403" height="136.451" filterUnits="userSpaceOnUse" color-interpolation-filters="sRGB">
<feFlood flood-opacity="0" result="BackgroundImageFix"/>
<feColorMatrix in="SourceAlpha" type="matrix" values="0 0 0 0 0 0 0 0 0 0 0 0 0 0 0 0 0 0 127 0" result="hardAlpha"/>
<feOffset dy="9"/>
<feComposite in2="hardAlpha" operator="out"/>
<feColorMatrix type="matrix" values="0 0 0 0 0 0 0 0 0 0 0 0 0 0 0 0 0 0 1 0"/>
<feBlend mode="normal" in2="BackgroundImageFix" result="effect1_dropShadow_428_1617"/>
<feBlend mode="normal" in="SourceGraphic" in2="effect1_dropShadow_428_1617" result="shape"/>
</filter>
</defs>
</svg>
