<svg width="160" height="146" viewBox="0 0 160 146" fill="none" xmlns="http://www.w3.org/2000/svg">
<mask id="mask0_1_782" style="mask-type:alpha" maskUnits="userSpaceOnUse" x="0" y="0" width="160" height="146">
<rect y="0.441406" width="159.756" height="145.334" fill="#D9D9D9"/>
</mask>
<g mask="url(#mask0_1_782)">
<g filter="url(#filter0_d_1_782)">
<path d="M41.2622 -87.1485L49.0654 -53.5151L78.3603 -75.6098L73.221 -42.4102L110.117 -55.4942L92.5385 -25.9781L133.424 -28.7707L105.127 -5.82743L146 1.94479L109.754 16.0694L146.613 33.6456L105.967 37.569L135.205 63.2287L94.136 56.5668L112.89 87.7983L75.4199 71.2031L81.8547 104.949L51.6503 80.0454L45.1359 113.003L25.1541 82.2279L6.32799 111.17L-1.47521 77.5371L-30.7701 99.6318L-25.6308 66.4322L-62.5269 79.5162L-44.9483 50.0001L-85.834 52.7927L-57.5367 29.8494L-98.4097 22.0772L-62.1637 7.95253L-99.0233 -9.62369L-58.3765 -13.5471L-87.6145 -39.2068L-46.5458 -32.5448L-65.3001 -63.7763L-27.8296 -47.1812L-34.2645 -80.9273L-4.06007 -56.0234L2.45435 -88.9808L22.4362 -58.2059L41.2622 -87.1485Z" fill="black"/>
<path d="M49.8214 -52.5128L76.6464 -72.7447L71.9804 -42.6023L71.6587 -40.5241L73.6407 -41.227L107.259 -53.1486L91.4599 -26.6205L90.2341 -24.5624L92.6241 -24.7256L129.553 -27.2479L104.336 -6.80262L102.235 -5.09932L104.892 -4.59409L141.472 2.36177L109.298 14.8996L106.594 15.9534L109.214 17.2026L141.988 32.8308L105.846 36.3194L102.957 36.5982L105.139 38.5126L131.092 61.2897L94.3371 55.3275L91.6674 54.8945L93.0597 57.2131L109.772 85.0442L75.9282 70.0552L73.7379 69.0852L74.1866 71.4383L79.9701 101.768L52.449 79.0767L50.8264 77.7389L50.4187 79.8019L44.5041 109.724L26.207 81.5442L25.155 79.924L24.1017 81.5433L6.8842 108.013L-0.252242 77.2534L-0.688845 75.3715L-2.23118 76.5348L-29.0561 96.7666L-24.3902 66.6242L-24.0685 64.5461L-26.0504 65.2489L-59.6687 77.1706L-43.8697 50.6425L-42.6439 48.5843L-45.0338 48.7476L-81.9624 51.2699L-56.746 30.8246L-54.6452 29.1213L-57.3021 28.616L-93.882 21.6602L-61.7079 9.1223L-59.0037 8.06851L-61.6234 6.81932L-94.3977 -8.80888L-58.2559 -12.2974L-55.3671 -12.5763L-57.5484 -14.4907L-83.5018 -37.2678L-46.7469 -31.3056L-44.0772 -30.8725L-45.4695 -33.1912L-62.1819 -61.0223L-28.338 -46.0333L-26.1477 -45.0632L-26.5964 -47.4164L-32.3799 -77.7462L-4.85874 -55.0548L-3.23622 -53.717L-2.82845 -55.78L3.08609 -85.7024L21.3832 -57.5223L22.4352 -55.902L23.4886 -57.5214L40.706 -83.991L47.8425 -53.2314L48.2791 -51.3496L49.8214 -52.5128Z" stroke="#FBF448" stroke-width="2.5109"/>
</g>
</g>
<defs>
<filter id="filter0_d_1_782" x="-99.0234" y="-88.9805" width="245.637" height="213.281" filterUnits="userSpaceOnUse" color-interpolation-filters="sRGB">
<feFlood flood-opacity="0" result="BackgroundImageFix"/>
<feColorMatrix in="SourceAlpha" type="matrix" values="0 0 0 0 0 0 0 0 0 0 0 0 0 0 0 0 0 0 127 0" result="hardAlpha"/>
<feOffset dy="11.299"/>
<feComposite in2="hardAlpha" operator="out"/>
<feColorMatrix type="matrix" values="0 0 0 0 0 0 0 0 0 0 0 0 0 0 0 0 0 0 1 0"/>
<feBlend mode="normal" in2="BackgroundImageFix" result="effect1_dropShadow_1_782"/>
<feBlend mode="normal" in="SourceGraphic" in2="effect1_dropShadow_1_782" result="shape"/>
</filter>
</defs>
</svg>
