<svg width="158" height="86" viewBox="0 0 158 86" fill="none" xmlns="http://www.w3.org/2000/svg">
<mask id="mask0_675_1658" style="mask-type:alpha" maskUnits="userSpaceOnUse" x="0" y="0" width="158" height="86">
<rect width="158" height="86" transform="matrix(1 0 0 -1 0 86)" fill="#FBF448"/>
</mask>
<g mask="url(#mask0_675_1658)">
<g filter="url(#filter0_d_675_1658)">
<path d="M136.15 6.45102L141.336 37.1373L168.899 18.8561L162.464 48.4462L196.374 38.6867L178.948 64.2841L215.886 64.0016L189.175 83.1007L225.525 92.3229L192.144 103.054L224.348 120.878L187.564 122.191L212.47 146.873L175.883 138.639L191.053 167.761L158.245 150.786L162.194 181.499L136.377 157.445L128.718 186.742L112.419 157.964L93.9021 182.977L88.7159 152.291L61.1536 170.572L67.5883 140.982L33.6785 150.742L51.1043 125.144L14.1663 125.427L40.8774 106.328L4.52695 97.1053L37.9086 86.3741L5.70405 68.55L42.4887 67.2371L17.5823 42.5557L54.1693 50.7897L38.9991 21.6671L71.8069 38.6419L67.858 7.92887L93.6752 31.9829L101.334 2.68576L117.633 31.4644L136.15 6.45102Z" fill="black"/>
<path d="M141.889 37.9706L167.398 21.0515L161.487 48.2337L161.131 49.8704L162.741 49.4072L193.988 40.4138L178.121 63.7213L177.048 65.2986L178.956 65.2841L212.734 65.0257L188.593 82.2872L186.841 83.5402L188.929 84.07L221.906 92.4362L191.838 102.102L189.637 102.81L191.659 103.929L220.71 120.007L187.528 121.192L185.218 121.274L186.86 122.901L209.294 145.133L176.103 137.663L174.001 137.19L174.996 139.101L188.707 165.421L158.705 149.898L157.01 149.021L157.254 150.914L160.849 178.879L137.059 156.714L135.833 155.572L135.41 157.192L128.374 184.106L113.289 157.471L112.531 156.132L111.615 157.369L94.4965 180.494L89.7019 152.124L89.4455 150.607L88.1632 151.458L62.6544 168.377L68.5655 141.195L68.9214 139.558L67.3117 140.021L36.064 149.014L51.9309 125.707L53.0047 124.13L51.0966 124.144L17.3179 124.402L41.459 107.141L43.2114 105.888L41.1233 105.358L8.14688 96.992L38.2147 87.3261L40.4155 86.6186L38.3929 85.4992L9.34244 69.4207L42.5244 68.2364L44.8347 68.154L43.1926 66.5268L20.7588 44.2956L53.9497 51.7653L56.0514 52.2383L55.0562 50.3277L41.3456 24.0071L71.3474 39.5301L73.0421 40.4069L72.7988 38.5144L69.2031 10.5489L92.9935 32.7145L94.219 33.8564L94.6427 32.2358L101.678 5.32273L116.763 31.9572L117.522 33.2962L118.437 32.0594L135.556 8.93471L140.35 37.3039L140.607 38.8212L141.889 37.9706Z" stroke="#FBF448" stroke-width="2"/>
</g>
</g>
<defs>
<filter id="filter0_d_675_1658" x="4.52734" y="2.68575" width="221" height="193.057" filterUnits="userSpaceOnUse" color-interpolation-filters="sRGB">
<feFlood flood-opacity="0" result="BackgroundImageFix"/>
<feColorMatrix in="SourceAlpha" type="matrix" values="0 0 0 0 0 0 0 0 0 0 0 0 0 0 0 0 0 0 127 0" result="hardAlpha"/>
<feOffset dy="9"/>
<feComposite in2="hardAlpha" operator="out"/>
<feColorMatrix type="matrix" values="0 0 0 0 0 0 0 0 0 0 0 0 0 0 0 0 0 0 1 0"/>
<feBlend mode="normal" in2="BackgroundImageFix" result="effect1_dropShadow_675_1658"/>
<feBlend mode="normal" in="SourceGraphic" in2="effect1_dropShadow_675_1658" result="shape"/>
</filter>
</defs>
</svg>
