<svg width="326" height="149" viewBox="0 0 326 149" fill="none" xmlns="http://www.w3.org/2000/svg">
<g filter="url(#filter0_d_91_655)">
<path d="M16.4931 46.4416L311.217 0.000184802L308.762 91.6877L14.0382 138.129L16.4931 46.4416Z" fill="black"/>
<path d="M15.5375 136.422L17.9132 47.6888L309.717 1.70736L307.342 90.4405L15.5375 136.422Z" stroke="#FBF448" stroke-width="2.90601"/>
</g>
<path d="M259.474 64.6195L258.672 64.746C258.263 62.1505 258.135 59.896 258.288 57.9826C258.454 56.0671 259.164 52.848 260.417 48.325C261.313 45.1013 261.845 42.283 262.013 39.87C262.124 38.2863 262.044 36.6334 261.773 34.9112C261.448 32.8493 260.932 31.3148 260.225 30.3075C259.527 29.274 258.787 28.8189 258.004 28.9422C257.443 29.0307 257.037 29.3805 256.786 29.9919C256.543 30.577 256.474 31.1969 256.577 31.8519C256.65 32.3128 256.863 32.9007 257.216 33.6156C257.914 35.0718 258.352 36.37 258.532 37.51C258.723 38.7229 258.632 39.8434 258.259 40.8717C257.896 41.8736 257.349 42.4322 256.618 42.5473C255.861 42.6666 255.135 42.2589 254.439 41.3245C253.753 40.3637 253.274 39.0221 253.003 37.2999C252.552 34.4376 252.858 32.1396 253.922 30.4058C254.996 28.6457 256.393 27.63 258.116 27.3586C259.564 27.1303 260.905 27.3665 262.139 28.067C263.385 28.7655 264.409 29.872 265.209 31.3866C266.019 32.8749 266.559 34.4801 266.831 36.2024C267.22 38.6766 267.234 40.9242 266.87 42.9454C266.364 45.7596 265.167 48.6828 263.278 51.7149C261.385 54.7229 260.229 57.018 259.809 58.6005C259.403 60.1809 259.291 62.1872 259.474 64.6195ZM259.173 67.7992C260.06 67.6594 260.902 68.1233 261.699 69.191C262.505 70.2324 263.038 71.5778 263.298 73.2273C263.558 74.8767 263.466 76.333 263.023 77.596C262.58 78.859 261.922 79.5594 261.048 79.6971C260.16 79.837 259.312 79.374 258.502 78.3084C257.692 77.2428 257.157 75.8852 256.897 74.2358C256.638 72.5863 256.724 71.1432 257.158 69.9065C257.601 68.6435 258.272 67.9411 259.173 67.7992Z" fill="#FBF448"/>
<path d="M242.837 67.2386L242.034 67.3651C241.625 64.7696 241.497 62.5152 241.651 60.6018C241.817 58.6863 242.526 55.4671 243.779 50.9442C244.676 47.7205 245.208 44.9021 245.376 42.4892C245.487 40.9055 245.407 39.2525 245.136 37.5303C244.811 35.4685 244.295 33.9339 243.588 32.9267C242.89 31.8931 242.15 31.438 241.367 31.5614C240.806 31.6498 240.4 31.9997 240.148 32.611C239.906 33.1961 239.837 33.8161 239.94 34.471C240.013 34.9319 240.226 35.5198 240.579 36.2348C241.276 37.691 241.715 38.9891 241.895 40.1292C242.086 41.342 241.995 42.4626 241.622 43.4908C241.258 44.4928 240.711 45.0513 239.981 45.1664C239.224 45.2857 238.498 44.8781 237.802 43.9436C237.116 42.9828 236.637 41.6413 236.366 39.9191C235.915 37.0568 236.221 34.7587 237.285 33.0249C238.358 31.2648 239.756 30.2491 241.479 29.9777C242.927 29.7495 244.268 29.9856 245.501 30.6862C246.748 31.3846 247.772 32.4912 248.572 34.0058C249.381 35.494 249.922 37.0993 250.193 38.8215C250.583 41.2957 250.596 43.5434 250.233 45.5645C249.727 48.3787 248.529 51.3019 246.64 54.3341C244.747 57.342 243.591 59.6372 243.172 61.2196C242.766 62.8001 242.654 64.8064 242.837 67.2386ZM242.536 70.4184C243.423 70.2785 244.265 70.7425 245.062 71.8102C245.868 72.8515 246.4 74.197 246.66 75.8464C246.92 77.4959 246.829 78.9521 246.386 80.2151C245.943 81.4781 245.285 82.1785 244.41 82.3163C243.523 82.4561 242.675 81.9932 241.865 80.9276C241.055 79.8619 240.52 78.5044 240.26 76.8549C240 75.2055 240.087 73.7624 240.521 72.5257C240.964 71.2627 241.635 70.5602 242.536 70.4184Z" fill="#FBF448"/>
<path d="M226.194 69.8666L225.391 69.993C224.982 67.3976 224.854 65.1431 225.008 63.2297C225.174 61.3142 225.883 58.095 227.136 53.5721C228.032 50.3484 228.565 47.5301 228.733 45.1171C228.844 43.5334 228.764 41.8805 228.493 40.1582C228.168 38.0964 227.652 36.5619 226.945 35.5546C226.247 34.5211 225.507 34.0659 224.724 34.1893C224.163 34.2777 223.757 34.6276 223.505 35.239C223.263 35.824 223.194 36.444 223.297 37.0989C223.37 37.5598 223.583 38.1477 223.936 38.8627C224.633 40.3189 225.072 41.617 225.252 42.7571C225.443 43.9699 225.352 45.0905 224.979 46.1187C224.615 47.1207 224.068 47.6792 223.338 47.7944C222.581 47.9136 221.855 47.506 221.159 46.5715C220.473 45.6107 219.994 44.2692 219.723 42.547C219.272 39.6847 219.578 37.3867 220.642 35.6529C221.715 33.8928 223.113 32.877 224.835 32.6056C226.284 32.3774 227.625 32.6136 228.858 33.3141C230.105 34.0126 231.129 35.1191 231.929 36.6337C232.738 38.122 233.279 39.7272 233.55 41.4494C233.94 43.9236 233.953 46.1713 233.59 48.1924C233.084 51.0067 231.886 53.9299 229.997 56.962C228.104 59.9699 226.948 62.2651 226.529 63.8476C226.123 65.428 226.011 67.4343 226.194 69.8666ZM225.893 73.0463C226.78 72.9065 227.622 73.3704 228.419 74.4381C229.224 75.4795 229.757 76.8249 230.017 78.4744C230.277 80.1238 230.186 81.58 229.743 82.8431C229.3 84.1061 228.642 84.8065 227.767 84.9442C226.88 85.084 226.032 84.6211 225.222 83.5555C224.412 82.4899 223.877 81.1323 223.617 79.4829C223.357 77.8334 223.444 76.3903 223.878 75.1536C224.321 73.8906 224.992 73.1882 225.893 73.0463Z" fill="#FBF448"/>
<path d="M206.754 88.3638C204.614 88.701 202.758 88.1608 201.184 86.7432C199.61 85.3257 198.268 83.2625 197.159 80.5536C196.064 77.8426 195.305 75.153 194.885 72.4847C194.036 67.0997 194.011 61.5478 194.808 55.8289C195.601 50.0858 197.142 45.3558 199.432 41.6391C201.73 37.8961 204.25 35.8087 206.99 35.3769C208.595 35.124 210.233 35.6365 211.906 36.9142C213.591 38.1899 215.044 40.1113 216.264 42.6784C217.497 45.2434 218.33 47.8964 218.762 50.6374C219.729 56.7744 219.649 63.1011 218.523 69.6176C217.393 76.1098 215.735 80.9452 213.548 84.1237C211.889 86.4981 209.625 87.9114 206.754 88.3638ZM206.814 38.4623C205.783 38.6247 204.958 39.1152 204.338 39.9338C203.727 40.7261 203.159 41.9965 202.632 43.7451C202.105 45.4936 201.676 47.9477 201.345 51.1073C201.01 54.2426 200.893 58.4622 200.993 63.7663C201.106 69.0682 201.436 73.4536 201.983 76.9223C202.449 79.8816 203.148 82.0709 204.081 83.4901C205.009 84.885 206.015 85.4972 207.098 85.3265C208.533 85.1003 209.614 84.0227 210.34 82.0937C211.782 78.2619 212.594 72.8513 212.776 65.862C212.968 58.8465 212.645 52.6826 211.808 47.3703C211.284 44.0472 210.567 41.6992 209.655 40.3265C208.753 38.9274 207.806 38.306 206.814 38.4623Z" fill="#FBF448"/>
<path d="M175.226 64.8442L184.934 63.3145L184.914 49.1853C184.903 47.248 184.819 45.7821 184.662 44.7876C184.51 43.8173 184.217 43.1053 183.784 42.6514C183.352 42.1975 182.45 41.9916 181.079 42.0335L181.083 40.6534L194.274 38.5747L194.271 39.9548C192.979 40.1584 192.081 40.822 191.576 41.9456C191.071 43.0693 190.821 45.172 190.825 48.2539L190.869 80.6133C190.868 82.7266 190.938 84.2319 191.08 85.1294C191.221 86.0269 191.504 86.6784 191.929 87.0837C192.485 87.6424 193.367 87.8515 194.575 87.7108L194.592 89.0879L181.654 91.1265L181.736 89.734C182.989 89.5366 183.838 88.9429 184.283 87.9529C184.738 86.9366 184.963 84.8005 184.959 81.5447L184.932 66.4843L175.264 68.0079L175.31 83.0652C175.301 85.1299 175.373 86.6474 175.525 87.6177C175.663 88.4909 175.971 89.1757 176.451 89.6719C176.939 90.1418 177.775 90.3085 178.957 90.1719L178.973 91.549L166.212 93.5599L166.215 92.1797C167.468 91.9823 168.31 91.3896 168.743 90.4017C169.185 89.3874 169.404 87.2524 169.399 83.9966L169.354 51.6371C169.355 49.7727 169.273 48.3189 169.108 47.2759C168.952 46.2813 168.657 45.5571 168.224 45.1033C167.805 44.6473 166.929 44.4373 165.598 44.4731L165.601 43.0929L178.577 41.0481L178.496 42.4406C177.295 42.6298 176.465 43.2578 176.005 44.3247C175.54 45.3674 175.3 47.4934 175.285 50.7027L175.226 64.8442Z" fill="#FBF448"/>
<path d="M153.187 68.3165C155.087 68.0668 156.651 67.9819 157.881 68.0616C159.11 68.1413 160.348 68.6548 161.593 69.602C162.852 70.5472 163.873 71.8034 164.654 73.3706C165.433 74.9135 165.978 76.6795 166.292 78.6686C166.781 81.7734 166.646 84.6534 165.888 87.3086C165.126 89.9394 164.046 91.7875 162.65 92.8528C161.253 93.9181 159.413 94.6306 157.13 94.9904L144.74 96.9427L144.744 95.5625C145.759 95.3031 146.449 94.6349 146.815 93.5582C147.189 92.4551 147.37 89.6549 147.356 85.1575L147.26 57.6909C147.25 53.8892 147.174 51.5395 147.032 50.642C146.868 49.599 146.551 48.9032 146.082 48.5545C145.608 48.1817 144.767 47.9786 143.558 47.9453L143.542 46.5682L156.401 44.542L156.398 45.9221C155.323 46.1413 154.585 46.5558 154.187 47.1655C153.797 47.7489 153.53 48.8102 153.385 50.3495C153.249 51.8625 153.177 54.6331 153.17 58.6614L153.187 68.3165ZM153.276 92.4282C153.888 92.5803 154.449 92.6162 154.958 92.536C157.215 92.1803 158.72 90.4889 159.473 87.4617C160.236 84.4082 160.346 81.1592 159.803 77.7148C159.577 76.2836 159.152 74.9834 158.526 73.8142C157.914 72.6429 157.236 71.9045 156.492 71.599C155.762 71.2915 154.666 71.2529 153.205 71.4832L153.276 92.4282Z" fill="#FBF448"/>
<path d="M144.392 46.4329L144.408 47.81C142.805 48.162 141.828 49.1736 141.476 50.8449C141.121 52.4919 140.947 55.1667 140.956 58.8694L141.056 87.6403C141.062 90.0507 141.141 91.7411 141.294 92.7114C141.607 94.7004 142.773 95.6478 144.791 95.5536L144.787 96.9338L132.007 98.9477L132.01 97.5675C132.949 97.4195 133.645 97.0365 134.095 96.4186C134.556 95.7743 134.849 94.8332 134.974 93.5953C135.109 92.3311 135.164 89.7495 135.138 85.8508L135.036 50.7038L127.696 51.8604L127.695 69.4234C127.708 76.6305 127.611 82.5498 127.405 87.1812C127.195 91.7884 126.643 95.2064 125.751 97.4352C124.868 99.6376 123.728 100.849 122.332 101.069C121.445 101.209 120.61 100.831 119.827 99.9348C119.043 99.039 118.537 97.8634 118.308 96.408C118.105 95.1224 118.177 93.9675 118.524 92.9433C118.867 91.8949 119.417 91.3111 120.174 91.1919C120.996 91.0623 121.827 91.7518 122.666 93.2602C123.229 94.2901 123.668 94.7803 123.981 94.731C124.829 94.5973 125.367 93.0459 125.594 90.0767C125.835 87.1054 126.013 80.8128 126.13 71.1989C126.256 61.5586 126.179 55.8531 125.9 54.0824C125.556 51.8993 124.444 50.9558 122.565 51.2519L121.841 51.366L121.844 49.9858L144.392 46.4329Z" fill="#FBF448"/>
<path d="M111.806 85.8367L103.585 87.1321L102.538 91.1752L101.318 95.6555C101.094 96.6106 100.955 97.4654 100.9 98.2198C100.857 98.7983 100.88 99.3664 100.968 99.9244C101.06 100.507 101.309 101.027 101.715 101.485C102.131 101.916 102.729 102.108 103.511 102.059L103.723 103.406L95.796 104.655L95.7796 103.278C96.4498 102.948 97.0035 102.389 97.4407 101.599C98.0185 100.513 98.7535 98.3467 99.6458 95.0987L111.878 50.4012L112.759 50.2624L118.243 90.7886C118.536 92.9051 118.717 94.1817 118.786 94.6183C119.046 96.2678 119.411 97.4407 119.882 98.1372C120.366 98.8316 121.035 99.1736 121.889 99.1633L121.905 100.54L110.416 102.351L110.42 100.971C111.524 100.598 112.15 100.325 112.297 100.153C112.608 99.7556 112.83 98.9997 112.962 97.8852C113.09 96.7463 112.977 94.8376 112.622 92.1591L111.806 85.8367ZM111.336 82.8532L109.31 66.6908L104.466 83.9357L111.336 82.8532Z" fill="#FBF448"/>
<path d="M82.5428 58.9767L82.6032 78.5809L83.5035 78.439C85.8782 78.0648 87.5154 77.2103 88.4149 75.8753C89.3275 74.5382 89.929 72.3304 90.2195 69.2519L90.9437 69.1378L90.9959 88.8179L90.3109 88.9258C90.2258 87.6217 90.1201 86.5694 89.994 85.7689C89.7837 84.4348 89.3965 83.3772 88.8321 82.5961C88.2808 81.8129 87.6372 81.2928 86.9013 81.0359C86.4195 80.8632 85.4805 80.8869 84.0843 81.1069L82.5577 81.3474L82.622 98.3036C82.6295 99.7939 82.6887 100.891 82.7996 101.594C82.8875 102.152 83.1017 102.578 83.4423 102.873C83.9363 103.292 84.7639 103.41 85.9252 103.227C88.1564 102.876 90.1196 101.671 91.8146 99.6144C93.5059 97.5332 94.8535 94.5864 95.8574 90.7739L96.6598 90.6474L96.033 104.618L73.3292 108.195L73.3519 106.812C74.6829 106.602 75.5823 105.988 76.0503 104.97C76.5145 103.927 76.7442 101.778 76.7393 98.5221L76.7249 65.9714C76.7199 64.1575 76.6371 62.7412 76.4766 61.7224C76.3313 60.8006 76.0443 60.1249 75.6156 59.6953C75.183 59.2415 74.3271 59.0283 73.0477 59.0559L73.0508 57.6757L94.2084 54.3418L94.4492 66.9447L93.7446 67.0557C93.3102 64.6382 92.8385 62.96 92.3295 62.021C91.5368 60.5549 90.6284 59.5421 89.6042 58.9826C88.5892 58.3968 87.064 58.2642 85.0285 58.585L82.5428 58.9767Z" fill="#FBF448"/>
<path d="M61.4369 86.8392L61.4512 100.932C61.4569 102.92 61.5228 104.314 61.6489 105.114C61.8247 106.23 62.1542 107.048 62.6374 107.569C63.1168 108.065 64.0518 108.229 65.4426 108.059L65.4003 109.445L52.4435 111.487L52.4466 110.107C53.5388 109.91 54.2846 109.594 54.684 109.158C55.0795 108.698 55.3604 108.02 55.5268 107.123C55.6607 106.53 55.7239 104.768 55.7165 101.836L55.6927 69.734C55.7032 67.5944 55.6378 66.0759 55.4964 65.1784C55.3549 64.2809 55.0211 63.5629 54.495 63.0243C53.965 62.4615 53.1286 62.2453 51.9858 62.3756L51.989 60.9955L62.4992 59.3393C65.3829 58.8849 67.5645 59.2372 69.0443 60.3961C71.3378 62.2223 72.821 65.27 73.4937 69.5392C74.1435 73.6628 73.7382 77.4555 72.2779 80.9173C70.8268 84.3528 68.4507 86.3306 65.1495 86.8508C64.1578 87.0071 62.9203 87.0032 61.4369 86.8392ZM61.3869 83.9759C62.2656 84.0363 62.9855 84.0223 63.5465 83.9339C65.3472 83.6501 66.5221 81.8989 67.0713 78.6801C67.6205 75.4613 67.6333 72.1903 67.1096 68.8672C66.7541 66.6113 66.1462 64.9172 65.2858 63.785C64.4216 62.6285 63.4023 62.1428 62.228 62.3278C61.9801 62.3669 61.6773 62.4395 61.3196 62.5456L61.3869 83.9759Z" fill="#FBF448"/>
<defs>
<filter id="filter0_d_91_655" x="6.77306" y="0" width="304.444" height="148.72" filterUnits="userSpaceOnUse" color-interpolation-filters="sRGB">
<feFlood flood-opacity="0" result="BackgroundImageFix"/>
<feColorMatrix in="SourceAlpha" type="matrix" values="0 0 0 0 0 0 0 0 0 0 0 0 0 0 0 0 0 0 127 0" result="hardAlpha"/>
<feOffset dx="-7.26502" dy="10.5914"/>
<feComposite in2="hardAlpha" operator="out"/>
<feColorMatrix type="matrix" values="0 0 0 0 0 0 0 0 0 0 0 0 0 0 0 0 0 0 1 0"/>
<feBlend mode="normal" in2="BackgroundImageFix" result="effect1_dropShadow_91_655"/>
<feBlend mode="normal" in="SourceGraphic" in2="effect1_dropShadow_91_655" result="shape"/>
</filter>
</defs>
</svg>
