<svg width="2444" height="260" viewBox="0 0 2444 260" fill="none" xmlns="http://www.w3.org/2000/svg">
<path d="M2434.84 174.506C2437.28 174.506 2439.33 176.114 2440.98 179.33C2442.64 182.449 2443.47 186.251 2443.47 190.734C2443.47 195.218 2442.62 199.067 2440.91 202.284C2439.25 205.403 2437.23 206.962 2434.84 206.962C2432.46 206.962 2430.41 205.403 2428.7 202.284C2427.04 199.067 2426.21 195.218 2426.21 190.734C2426.21 186.153 2427.04 182.303 2428.7 179.184C2430.41 176.065 2432.46 174.506 2434.84 174.506Z" fill="black"/>
<path d="M2396.64 174.504C2399.07 174.504 2401.12 176.112 2402.78 179.329C2404.44 182.447 2405.26 186.249 2405.26 190.732C2405.26 195.216 2404.41 199.065 2402.7 202.282C2401.04 205.401 2399.02 206.96 2396.64 206.96C2394.25 206.96 2392.21 205.401 2390.5 202.282C2388.84 199.065 2388.01 195.216 2388.01 190.732C2388.01 186.151 2388.84 182.301 2390.5 179.182C2392.21 176.063 2394.25 174.504 2396.64 174.504Z" fill="black"/>
<path d="M2358.44 174.506C2360.88 174.506 2362.92 176.114 2364.58 179.33C2366.24 182.449 2367.07 186.251 2367.07 190.734C2367.07 195.218 2366.21 199.067 2364.5 202.284C2362.85 205.403 2360.82 206.962 2358.44 206.962C2356.06 206.962 2354.01 205.403 2352.3 202.284C2350.64 199.067 2349.81 195.218 2349.81 190.734C2349.81 186.153 2350.64 182.303 2352.3 179.184C2354.01 176.065 2356.06 174.506 2358.44 174.506Z" fill="black"/>
<path d="M2281.67 93.9525H2285.87C2298.77 93.9525 2308.25 95.5119 2314.32 98.6306C2320.38 101.652 2325.3 107.5 2329.09 116.174C2332.92 124.848 2334.84 135.276 2334.84 147.459C2334.84 162.176 2331.94 175.089 2326.13 186.2C2320.33 197.311 2310.33 202.866 2296.13 202.866H2251.51V197.457C2258.04 197.067 2262.21 195.118 2264.03 191.609C2265.84 188.1 2266.75 179.816 2266.75 166.756V40.7384C2266.75 27.6786 2265.84 19.3943 2264.03 15.8857C2262.21 12.3771 2258.04 10.4279 2251.51 10.038V4.62891L2296.91 4.62891V10.038C2290.38 10.4279 2286.2 12.3771 2284.39 15.8857C2282.58 19.3943 2281.67 27.6786 2281.67 40.7384V93.9525ZM2281.67 191.024C2286.23 192.389 2289.78 193.071 2292.32 193.071C2298.69 193.071 2304.45 189.075 2309.58 181.083C2314.76 173.091 2317.35 162.029 2317.35 147.898C2317.35 133.278 2314.65 122.46 2309.26 115.443C2303.88 108.328 2297.03 104.771 2288.74 104.771C2286.41 104.771 2284.05 105.161 2281.67 105.94V191.024Z" fill="black"/>
<path d="M2245.09 4.62891L2246.26 51.1181H2243.3C2242.73 42.9313 2241.96 37.0836 2240.97 33.575C2239.36 27.9222 2237.21 23.7801 2234.52 21.1487C2231.88 18.4197 2228.38 17.0553 2224.03 17.0553H2209.18V168.511C2209.18 180.693 2209.88 188.295 2211.28 191.317C2213.25 195.41 2216.28 197.457 2220.37 197.457H2224.03V202.866H2179.33V197.457H2183.06C2187.52 197.457 2190.68 194.923 2192.55 189.855C2193.69 186.736 2194.26 179.621 2194.26 168.511V17.0553H2181.59C2176.66 17.0553 2173.17 17.7375 2171.09 19.102C2168.4 20.9537 2166.09 24.5111 2164.17 29.774C2162.26 35.0369 2161.12 42.1516 2160.75 51.1181H2157.8L2159.04 4.62891L2245.09 4.62891Z" fill="black"/>
<path d="M2126.38 136.491H2085.57L2078.42 167.776C2076.66 175.476 2075.78 181.226 2075.78 185.027C2075.78 188.049 2076.53 190.729 2078.03 193.068C2079.59 195.309 2082.9 196.771 2087.98 197.454V202.863H2054.79V197.454C2059.2 195.992 2062.05 194.091 2063.34 191.752C2065.99 187.074 2068.91 177.571 2072.13 163.245L2109.2 0.09375L2111.92 0.09375L2148.61 164.999C2151.57 178.254 2154.23 186.879 2156.62 190.875C2159.05 194.773 2162.42 196.966 2166.72 197.454V202.863H2125.14V197.454C2129.33 197.064 2132.16 195.748 2133.61 193.506C2135.11 191.265 2135.86 188.536 2135.86 185.32C2135.86 181.031 2134.83 174.258 2132.76 164.999L2126.38 136.491ZM2124.2 125.673L2106.33 45.5596L2087.98 125.673H2124.2Z" fill="black"/>
<path d="M2067.96 4.62891L2068.34 50.9719H2065.31C2065.11 41.6156 2064.04 34.1111 2062.13 28.4583C2060.21 22.8055 2057.85 19.2482 2055.05 17.7862C2052.31 16.2268 2048.32 15.4471 2043.08 15.4471H2013.55V166.756C2013.55 179.816 2014.43 188.1 2016.19 191.609C2018 195.118 2022.15 197.067 2028.62 197.457V202.866H1983.39V197.457C1989.92 197.067 1994.09 195.118 1995.9 191.609C1997.71 188.1 1998.62 179.816 1998.62 166.756V40.7384C1998.62 27.6786 1997.71 19.3943 1995.9 15.8857C1994.09 12.3771 1989.92 10.4279 1983.39 10.038V4.62891L2067.96 4.62891Z" fill="black"/>
<path d="M1925.29 0.0957031C1938.97 0.0957031 1950.82 9.8906 1960.82 29.4804C1970.87 48.9727 1975.9 73.3381 1975.9 102.577C1975.9 132.692 1970.84 157.691 1960.74 177.573C1950.63 197.456 1938.4 207.397 1924.05 207.397C1909.54 207.397 1897.34 197.699 1887.44 178.304C1877.59 158.909 1872.67 133.813 1872.67 103.015C1872.67 71.5351 1878.37 45.8539 1889.77 25.9718C1899.67 8.72106 1911.51 0.0957031 1925.29 0.0957031ZM1923.82 10.7677C1914.39 10.7677 1906.82 17.3464 1901.12 30.5037C1894.02 46.8773 1890.47 70.8529 1890.47 102.43C1890.47 134.788 1894.15 159.689 1901.51 177.135C1907.16 190.39 1914.62 197.017 1923.9 197.017C1933.79 197.017 1941.95 189.756 1948.38 175.234C1954.86 160.712 1958.1 137.809 1958.1 106.524C1958.1 72.6072 1954.55 47.3159 1947.45 30.6499C1941.75 17.3951 1933.87 10.7677 1923.82 10.7677Z" fill="black"/>
<path d="M1792.16 202.87L1751.43 36.0642V168.515C1751.43 180.697 1752.13 188.299 1753.53 191.321C1755.45 195.414 1758.48 197.461 1762.63 197.461H1766.36V202.87H1729.67V197.461H1733.4C1737.86 197.461 1741.02 194.927 1742.88 189.859C1744.02 186.74 1744.59 179.625 1744.59 168.515V38.988C1744.59 30.2165 1744.07 23.8815 1743.04 19.983C1742.31 17.1566 1740.96 14.8176 1739 12.9658C1737.08 11.0166 1733.97 10.0419 1729.67 10.0419V4.63281L1759.52 4.63281L1797.76 159.743L1835.38 4.63281L1865.23 4.63281V10.0419H1861.57C1857.07 10.0419 1853.88 12.5759 1852.01 17.6439C1850.87 20.7627 1850.3 27.8774 1850.3 38.988V168.515C1850.3 180.697 1851.03 188.299 1852.48 191.321C1854.4 195.414 1857.43 197.461 1861.57 197.461H1865.23V202.87H1820.46V197.461H1824.19C1828.69 197.461 1831.86 194.927 1833.67 189.859C1834.81 186.74 1835.38 179.625 1835.38 168.515V36.0642L1794.73 202.87H1792.16Z" fill="black"/>
<path d="M1671.8 0.0957031C1685.48 0.0957031 1697.32 9.8906 1707.32 29.4804C1717.38 48.9727 1722.4 73.3381 1722.4 102.577C1722.4 132.692 1717.35 157.691 1707.25 177.573C1697.14 197.456 1684.91 207.397 1670.56 207.397C1656.05 207.397 1643.85 197.699 1633.95 178.304C1624.1 158.909 1619.18 133.813 1619.18 103.015C1619.18 71.5351 1624.88 45.8539 1636.28 25.9718C1646.18 8.72106 1658.02 0.0957031 1671.8 0.0957031ZM1670.33 10.7677C1660.89 10.7677 1653.33 17.3464 1647.63 30.5037C1640.53 46.8773 1636.98 70.8529 1636.98 102.43C1636.98 134.788 1640.66 159.689 1648.02 177.135C1653.67 190.39 1661.13 197.017 1670.4 197.017C1680.3 197.017 1688.46 189.756 1694.89 175.234C1701.37 160.712 1704.6 137.809 1704.6 106.524C1704.6 72.6072 1701.05 47.3159 1693.95 30.6499C1688.25 17.3951 1680.38 10.7677 1670.33 10.7677Z" fill="black"/>
<path d="M1582.06 15.4452H1533.17V166.754C1533.17 179.814 1534.05 188.098 1535.81 191.607C1537.63 195.116 1541.82 197.065 1548.41 197.455V202.864H1503.01V197.455C1509.54 197.065 1513.71 195.116 1515.53 191.607C1517.34 188.098 1518.25 179.814 1518.25 166.754V40.7365C1518.25 27.6766 1517.34 19.3924 1515.53 15.8838C1513.71 12.3752 1509.54 10.4259 1503.01 10.0361V4.62695L1612.22 4.62695V10.0361C1605.69 10.4259 1601.52 12.3752 1599.71 15.8838C1597.89 19.3924 1596.99 27.6766 1596.99 40.7365V166.754C1596.99 179.814 1597.89 188.098 1599.71 191.607C1601.52 195.116 1605.69 197.065 1612.22 197.455V202.864H1566.9V197.455C1573.38 197.065 1577.53 195.164 1579.34 191.753C1581.16 188.245 1582.06 179.912 1582.06 166.754V15.4452Z" fill="black"/>
<path d="M1387.04 202.866L1346.31 36.0603V168.511C1346.31 180.693 1347.01 188.295 1348.41 191.317C1350.33 195.41 1353.36 197.457 1357.5 197.457H1361.23V202.866H1324.55V197.457H1328.28C1332.73 197.457 1335.9 194.923 1337.76 189.855C1338.9 186.736 1339.47 179.621 1339.47 168.511V38.9841C1339.47 30.2126 1338.95 23.8776 1337.92 19.9791C1337.19 17.1527 1335.84 14.8136 1333.87 12.9619C1331.96 11.0126 1328.85 10.038 1324.55 10.038V4.62891L1354.39 4.62891L1392.64 159.739L1430.26 4.62891L1460.11 4.62891V10.038H1456.45C1451.94 10.038 1448.76 12.572 1446.89 17.64C1445.75 20.7588 1445.18 27.8735 1445.18 38.9841V168.511C1445.18 180.693 1445.91 188.295 1447.36 191.317C1449.28 195.41 1452.31 197.457 1456.45 197.457H1460.11V202.866H1415.33V197.457H1419.07C1423.57 197.457 1426.73 194.923 1428.55 189.855C1429.69 186.736 1430.26 179.621 1430.26 168.511V36.0603L1389.61 202.866H1387.04Z" fill="black"/>
<path d="M1281.3 136.493H1240.49L1233.34 167.778C1231.57 175.478 1230.69 181.228 1230.69 185.029C1230.69 188.05 1231.45 190.731 1232.95 193.07C1234.5 195.311 1237.82 196.773 1242.9 197.456V202.865H1209.71V197.456C1214.11 195.994 1216.96 194.093 1218.26 191.754C1220.9 187.076 1223.83 177.573 1227.04 163.246L1264.12 0.0957031L1266.84 0.0957031L1303.53 165.001C1306.48 178.256 1309.15 186.881 1311.53 190.877C1313.97 194.775 1317.34 196.968 1321.64 197.456V202.865H1280.05V197.456C1284.25 197.066 1287.07 195.75 1288.52 193.508C1290.03 191.267 1290.78 188.538 1290.78 185.322C1290.78 181.033 1289.74 174.26 1287.67 165.001L1281.3 136.493ZM1279.12 125.675L1261.24 45.5616L1242.9 125.675H1279.12Z" fill="black"/>
<path d="M1187.51 101.697C1194.81 104.621 1200.28 109.299 1203.91 115.731C1208.93 124.698 1211.45 135.662 1211.45 148.625C1211.45 158.468 1209.79 167.922 1206.47 176.986C1203.16 185.952 1198.6 192.531 1192.79 196.722C1187.04 200.815 1178.23 202.862 1166.36 202.862H1116.62V197.453H1120.58C1124.99 197.453 1128.15 194.821 1130.06 189.558C1131.26 186.147 1131.85 178.886 1131.85 167.776V39.7112C1131.85 27.431 1131.1 19.6828 1129.6 16.4666C1127.58 12.1783 1124.57 10.0341 1120.58 10.0341H1116.62V4.625L1162.17 4.625C1170.66 4.625 1177.48 5.79454 1182.61 8.13362C1190.38 11.6422 1196.32 17.8798 1200.41 26.8463C1204.5 35.7153 1206.55 45.9487 1206.55 57.5467C1206.55 67.4878 1204.94 76.4055 1201.73 84.2999C1198.52 92.0968 1193.78 97.8958 1187.51 101.697ZM1146.78 93.8024C1148.69 94.4846 1150.87 95.0207 1153.31 95.4105C1155.79 95.7029 1158.51 95.8491 1161.47 95.8491C1169.03 95.8491 1174.71 94.3384 1178.49 91.3171C1182.32 88.1984 1185.25 83.4715 1187.27 77.1365C1189.29 70.8014 1190.3 63.8817 1190.3 56.3771C1190.3 44.7792 1187.79 34.8868 1182.76 26.7001C1177.74 18.5133 1170.41 14.4199 1160.77 14.4199C1155.59 14.4199 1150.92 15.492 1146.78 17.6361V93.8024ZM1146.78 188.535C1152.79 191.167 1158.72 192.482 1164.58 192.482C1173.96 192.482 1181.11 188.535 1186.03 180.641C1190.95 172.649 1193.41 162.805 1193.41 151.11C1193.41 143.41 1192.3 136.003 1190.07 128.889C1187.84 121.774 1184.22 116.17 1179.19 112.076C1174.16 107.983 1167.94 105.936 1160.53 105.936C1157.32 105.936 1154.57 106.034 1152.29 106.229C1150.01 106.424 1148.18 106.765 1146.78 107.252V188.535Z" fill="black"/>
<path d="M1000.88 202.868L960.155 36.0622V168.513C960.155 180.695 960.854 188.297 962.253 191.319C964.171 195.412 967.202 197.459 971.348 197.459H975.079V202.868H938.391V197.459H942.122C946.578 197.459 949.739 194.925 951.605 189.857C952.745 186.738 953.315 179.623 953.315 168.513V38.9861C953.315 30.2145 952.796 23.8795 951.76 19.9811C951.035 17.1547 949.687 14.8156 947.718 12.9638C945.801 11.0146 942.692 10.04 938.391 10.04V4.63086L968.239 4.63086L1006.48 159.741L1044.1 4.63086L1073.95 4.63086V10.04H1070.3C1065.79 10.04 1062.6 12.574 1060.74 17.642C1059.6 20.7608 1059.03 27.8755 1059.03 38.9861V168.513C1059.03 180.695 1059.75 188.297 1061.2 191.319C1063.12 195.412 1066.15 197.459 1070.3 197.459H1073.95V202.868H1029.18V197.459H1032.91C1037.42 197.459 1040.58 194.925 1042.39 189.857C1043.53 186.738 1044.1 179.623 1044.1 168.513V36.0622L1003.45 202.868H1000.88Z" fill="black"/>
<path d="M873.277 15.4471V93.8063H896.44C902.451 93.8063 906.467 92.1007 908.488 88.6896C911.183 84.2063 912.685 76.3119 912.996 65.0064H915.872V134.009H912.996C912.271 124.361 911.545 118.172 910.82 115.443C909.887 112.032 908.358 109.351 906.234 107.402C904.109 105.453 900.845 104.478 896.44 104.478H873.277V169.826C873.277 178.598 873.484 183.958 873.899 185.908C874.313 187.759 875.039 189.27 876.075 190.44C877.111 191.512 879.081 192.048 881.982 192.048H899.86C905.819 192.048 910.146 191.268 912.841 189.709C915.535 188.149 918.126 185.079 920.614 180.498C923.827 174.456 927.117 165.343 930.485 153.16H933.595L924.5 202.866H843.273V197.457H847.004C849.492 197.457 851.849 196.336 854.078 194.094C855.736 192.535 856.85 190.196 857.42 187.077C858.042 183.958 858.353 177.575 858.353 167.926V39.1303C858.353 26.5578 857.679 18.8096 856.332 15.8857C854.466 11.9873 851.357 10.038 847.004 10.038H843.273V4.62891L924.5 4.62891L925.666 48.0481H922.635C921.546 37.6197 920.329 30.4562 918.981 26.5578C917.686 22.6593 915.743 19.6867 913.152 17.64C911.079 16.1781 907.426 15.4471 902.192 15.4471H873.277Z" fill="black"/>
<path d="M751.677 4.63281L838.655 4.63281V10.0419C832.126 10.4318 827.955 12.381 826.141 15.8896C824.327 19.3983 823.42 27.6825 823.42 40.7424V150.533C823.42 171.78 824.068 184.937 825.364 190.005C826.659 194.975 830.856 197.461 837.956 197.461V259.885H835.313C833.758 245.461 831.245 233.814 827.773 224.945C824.353 216.173 820.441 210.277 816.036 207.256C811.683 204.332 806.45 202.87 800.335 202.87H773.441C761.678 202.87 753.024 208.864 747.479 220.851C741.986 232.839 738.696 245.85 737.608 259.885H734.965V197.461C743.308 196.096 750.096 186.691 755.33 169.246C760.564 151.8 764.191 130.407 766.212 105.067C768.233 79.6295 769.243 58.7728 769.243 42.4967C769.243 32.7505 768.596 25.5871 767.3 21.0064C766.005 16.4257 764.45 13.5506 762.636 12.381C760.874 11.2115 757.221 10.4318 751.677 10.0419V4.63281ZM777.016 15.4511C775.721 73.2458 773.259 113.79 769.632 137.083C766.005 160.377 761.134 178.699 755.019 192.052H794.039C800.983 192.052 805.128 190.931 806.475 188.689C807.875 186.35 808.574 178.894 808.574 166.322V15.4511H777.016Z" fill="black"/>
<path d="M640.023 4.62891L682.774 4.62891V10.038C675.261 10.6228 671.504 14.4238 671.504 21.441C671.504 26.4116 674.276 38.0095 679.821 56.2348L702.828 132.255L719.618 56.2348C723.142 40.2511 724.903 29.5304 724.903 24.0725C724.903 16.4705 721.639 11.7923 715.11 10.038V4.62891L748.144 4.62891V10.038C740.372 11.7923 734.464 21.7334 730.422 39.8613L710.29 129.916C705.057 153.014 700.807 169.437 697.543 179.183C694.278 188.929 690.703 196.092 686.816 200.673C682.982 205.156 678.992 207.398 674.846 207.398C671.27 207.398 668.239 205.936 665.752 203.012C663.316 200.186 662.098 196.287 662.098 191.317C662.098 187.711 662.746 184.738 664.042 182.399C665.337 179.962 667.099 178.744 669.327 178.744C671.504 178.744 674.095 180.401 677.1 183.715C679.121 185.761 680.65 186.785 681.686 186.785C685.78 186.785 690.366 178.793 695.444 162.809L657.202 36.3527C654.507 27.4837 651.942 21.1974 649.506 17.4938C647.123 13.7903 643.962 11.305 640.023 10.038V4.62891Z" fill="black"/>
<path d="M632.193 4.62695L633.281 47.8999H630.483C628.824 33.8654 626.259 24.9477 622.788 21.1467C619.367 17.3457 613.253 15.4452 604.444 15.4452H586.721V93.9505H590.919C603.822 93.9505 613.305 95.5099 619.367 98.6287C625.43 101.65 630.353 107.498 634.136 116.172C637.971 124.846 639.888 135.274 639.888 147.457C639.888 162.174 636.986 175.087 631.182 186.198C625.379 197.309 615.377 202.864 601.179 202.864H556.562V197.455C563.092 197.065 567.263 195.116 569.077 191.607C570.891 188.098 571.797 179.814 571.797 166.754V40.7365C571.797 30.6979 571.409 23.9244 570.631 20.4157C569.906 16.9071 568.688 14.4219 566.978 12.9599C565.268 11.498 562.107 10.5234 557.495 10.0361V4.62695L632.193 4.62695ZM586.721 191.022C591.281 192.387 594.831 193.069 597.37 193.069C603.744 193.069 609.496 189.073 614.626 181.081C619.808 173.089 622.399 162.027 622.399 147.896C622.399 133.276 619.704 122.458 614.315 115.441C608.926 108.326 602.086 104.769 593.795 104.769C591.463 104.769 589.105 105.159 586.721 105.938V191.022Z" fill="black"/>
<path d="M460.326 0.0996094C474.006 0.0996094 485.847 9.8945 495.848 29.4843C505.901 48.9766 510.927 73.342 510.927 102.581C510.927 132.696 505.875 157.695 495.77 177.577C485.665 197.459 473.436 207.401 459.082 207.401C444.573 207.401 432.369 197.703 422.472 178.308C412.626 158.913 407.703 133.817 407.703 103.019C407.703 71.539 413.403 45.8578 424.804 25.9757C434.701 8.72497 446.542 0.0996094 460.326 0.0996094ZM458.849 10.7717C449.418 10.7717 441.852 17.3503 436.152 30.5076C429.053 46.8812 425.503 70.8568 425.503 102.434C425.503 134.792 429.182 159.693 436.541 177.139C442.189 190.393 449.651 197.021 458.926 197.021C468.824 197.021 476.986 189.76 483.411 175.238C489.889 160.716 493.127 137.813 493.127 106.528C493.127 72.6111 489.578 47.3198 482.478 30.6538C476.778 17.399 468.902 10.7717 458.849 10.7717Z" fill="black"/>
<path d="M345.714 110.032V167.778C345.714 180.253 346.44 188.001 347.891 191.022C349.86 195.311 352.839 197.455 356.83 197.455H360.871V202.864H315.711V197.455H319.675C324.132 197.455 327.318 194.726 329.236 189.268C330.272 186.247 330.79 179.083 330.79 167.778V39.7131C330.79 27.2381 330.091 19.4899 328.692 16.4685C326.671 12.1802 323.665 10.0361 319.675 10.0361H315.711V4.62695L354.342 4.62695C363.773 4.62695 371.209 6.47873 376.65 10.1823C382.091 13.7883 386.677 19.9284 390.408 28.6025C394.139 37.2766 396.005 47.5588 396.005 59.4491C396.005 75.6278 393.155 88.7851 387.455 98.9211C381.806 109.057 373.8 114.125 363.436 114.125C360.897 114.125 358.151 113.784 355.197 113.102C352.244 112.42 349.083 111.396 345.714 110.032ZM345.714 101.699C348.461 102.673 350.896 103.404 353.021 103.892C355.145 104.379 356.959 104.623 358.462 104.623C363.851 104.623 368.489 100.724 372.375 92.9272C376.314 85.0328 378.283 74.8481 378.283 62.373C378.283 53.7963 377.35 45.8532 375.484 38.5436C373.619 31.1365 370.976 25.6299 367.556 22.0239C364.136 18.3203 360.25 16.4685 355.897 16.4685C353.254 16.4685 349.86 17.3944 345.714 19.2462V101.699Z" fill="black"/>
<path d="M257.845 0.0957031C271.525 0.0957031 283.366 9.8906 293.367 29.4804C303.42 48.9727 308.447 73.3381 308.447 102.577C308.447 132.692 303.394 157.691 293.29 177.573C283.185 197.456 270.955 207.397 256.601 207.397C242.092 207.397 229.889 197.699 219.991 178.304C210.145 158.909 205.223 133.813 205.223 103.015C205.223 71.5351 210.923 45.8539 222.323 25.9718C232.22 8.72106 244.061 0.0957031 257.845 0.0957031ZM256.368 10.7677C246.937 10.7677 239.372 17.3464 233.671 30.5037C226.572 46.8773 223.023 70.8529 223.023 102.43C223.023 134.788 226.702 159.689 234.06 177.135C239.708 190.39 247.17 197.017 256.446 197.017C266.344 197.017 274.505 189.756 280.931 175.234C287.408 160.712 290.647 137.809 290.647 106.524C290.647 72.6072 287.097 47.3159 279.998 30.6499C274.298 17.3951 266.421 10.7677 256.368 10.7677Z" fill="black"/>
<path d="M204.726 197.454V202.863H177.521C174.568 193.994 168.349 177.279 158.866 152.719C149.383 128.061 143.606 114.417 141.533 111.785C139.46 109.056 136.325 107.643 132.128 107.546V166.754C132.128 179.813 133.009 188.098 134.77 191.606C136.584 195.115 140.781 197.064 147.362 197.454V202.863H101.969V197.454C108.446 197.064 112.592 195.164 114.405 191.753C116.271 188.244 117.204 179.911 117.204 166.754V40.7357C117.204 27.6759 116.297 19.3916 114.483 15.883C112.669 12.3744 108.498 10.4252 101.969 10.0353V4.62619L147.362 4.62619V10.0353C140.781 10.4252 136.584 12.3744 134.77 15.883C133.009 19.3916 132.128 27.6759 132.128 40.7357V95.9965C137.776 95.899 141.688 95.2168 143.865 93.9498C146.041 92.5853 148.477 89.564 151.171 84.8858C153.918 80.2077 156.068 75.1884 157.623 69.828C159.229 64.3702 161.276 55.4524 163.763 43.0748C166.095 31.4769 167.987 23.4363 169.437 18.953C170.94 14.3724 173.324 10.4739 176.589 7.25765C179.853 3.94396 183.74 2.28711 188.248 2.28711C196.228 2.28711 200.218 7.55004 200.218 18.0759C200.218 21.7794 199.415 24.9957 197.809 27.7246C196.254 30.4535 194.466 31.818 192.445 31.818C190.994 31.818 188.559 30.2586 185.139 27.1398C182.133 24.3134 180.035 22.9002 178.843 22.9002C177.184 22.9002 175.759 24.5571 174.568 27.8708C173.376 31.087 171.484 39.3713 168.893 52.7235C163.919 77.6737 157.571 93.5112 149.85 100.236C154.565 101.795 161.095 113.929 169.437 136.638C178.299 160.711 184.802 176.792 188.947 184.881C193.093 192.971 198.353 197.162 204.726 197.454Z" fill="black"/>
<path d="M90.3418 0.0957031L92.7513 67.4904H90.3418C87.129 47.3159 82.5429 32.7941 76.5837 23.9251C70.6245 15.0561 63.4734 10.6216 55.1305 10.6216C48.1349 10.6216 41.813 13.984 36.1647 20.7088C30.5164 27.3362 26.0599 37.9595 22.7953 52.5788C19.5825 67.198 17.9761 85.3746 17.9761 107.109C17.9761 125.042 19.5048 140.587 22.5621 153.744C25.6195 166.901 30.2055 176.989 36.3201 184.006C42.4866 191.023 49.5081 194.532 57.3847 194.532C64.2248 194.532 70.2618 191.803 75.4955 186.345C80.7293 180.79 86.4812 169.825 92.7513 153.452L95.1609 156.375C89.8754 174.016 83.7089 186.93 76.6615 195.116C69.614 203.303 61.2452 207.397 51.555 207.397C34.0919 207.397 20.5671 195.214 10.9805 170.848C3.82944 152.721 0.253906 131.377 0.253906 106.816C0.253906 87.0315 2.61168 68.8549 7.32724 52.2864C12.0428 35.7179 18.5202 22.9017 26.7595 13.8378C35.0506 4.6764 44.093 0.0957031 53.8869 0.0957031C61.5043 0.0957031 69.0181 3.60432 76.4283 10.6216C78.6047 12.7657 80.1593 13.8378 81.092 13.8378C82.4911 13.8378 83.7089 12.9119 84.7453 11.0601C86.0926 8.42867 87.0512 4.77386 87.6212 0.0957031L90.3418 0.0957031Z" fill="black"/>
</svg>
