<svg width="307" height="100" viewBox="0 0 307 100" fill="none" xmlns="http://www.w3.org/2000/svg">
<g filter="url(#filter0_d_1_2037)">
<path d="M30.8056 3H296.843L269.516 89H3.47852L30.8056 3Z" fill="black"/>
<path d="M30.8056 1.79439H29.9237L29.6566 2.6349L2.32952 88.6349L1.83042 90.2056H3.47852H269.516H270.398L270.665 89.3651L297.992 3.3651L298.491 1.79439H296.843H30.8056Z" stroke="#FBF448" stroke-width="2.41121"/>
</g>
<path d="M215.696 75.4184C214.051 75.4184 212.723 74.507 211.71 72.6841C210.698 70.8612 209.936 68.3718 209.424 65.2158C208.923 62.0598 208.672 58.9854 208.672 55.9927C208.672 49.9528 209.309 43.872 210.582 37.7505C211.856 31.6017 213.57 26.6909 215.726 23.018C217.892 19.3178 220.027 17.4678 222.133 17.4678C223.366 17.4678 224.534 18.3112 225.637 19.998C226.75 21.6848 227.612 24.0382 228.224 27.0582C228.845 30.0782 229.156 33.1253 229.156 36.1997C229.156 43.083 228.349 49.9936 226.735 56.9313C225.121 63.8419 223.306 68.8479 221.291 71.9495C219.767 74.2621 217.902 75.4184 215.696 75.4184ZM221.636 20.8142C220.844 20.8142 220.168 21.2087 219.606 21.9977C219.055 22.7595 218.478 24.0518 217.877 25.8747C217.275 27.6976 216.663 30.3094 216.042 33.7103C215.42 37.0839 214.834 41.6819 214.282 47.5041C213.741 53.3264 213.47 58.1828 213.47 62.0734C213.47 65.3927 213.736 67.9093 214.267 69.6233C214.798 71.3101 215.48 72.1536 216.312 72.1536C217.415 72.1536 218.353 71.1605 219.125 69.1744C220.659 65.2294 221.907 59.448 222.87 51.83C223.842 44.1849 224.328 37.3832 224.328 31.4249C224.328 27.6976 224.068 25.0041 223.546 23.3445C223.035 21.6576 222.398 20.8142 221.636 20.8142Z" fill="#FBF448"/>
<path d="M209.686 18.7734L209.536 20.2834C208.292 20.3922 207.44 21.3309 206.979 23.0993C206.518 24.8406 206.072 27.7381 205.64 31.7919L202.317 63.2975C202.036 65.9365 201.896 67.8002 201.896 68.8885C201.896 71.1194 202.658 72.3574 204.182 72.6022L204.016 74.1122H194.195L194.361 72.6022C195.083 72.6022 195.649 72.3029 196.06 71.7044C196.481 71.0786 196.812 70.0992 197.053 68.766C197.303 67.4057 197.649 64.5898 198.091 60.3183L202.166 21.8342H196.526L194.451 41.0559C193.609 48.9458 192.837 55.4075 192.135 60.4407C191.433 65.4468 190.616 69.0925 189.683 71.3779C188.761 73.6361 187.763 74.7652 186.691 74.7652C186.009 74.7652 185.427 74.2074 184.946 73.0919C184.465 71.9765 184.224 70.6025 184.224 68.9701C184.224 67.5281 184.415 66.2766 184.796 65.2155C185.177 64.1273 185.658 63.5831 186.239 63.5831C186.871 63.5831 187.413 64.481 187.864 66.2766C188.164 67.5009 188.435 68.1131 188.676 68.1131C189.328 68.1131 189.914 66.5079 190.435 63.2975C190.967 60.0871 191.844 53.2309 193.067 42.7291C194.301 32.2 194.917 25.9424 194.917 23.9563C194.917 21.5077 194.195 20.2834 192.752 20.2834H192.195L192.36 18.7734H209.686Z" fill="#FBF448"/>
<path d="M178.135 56.2776H171.818L170.555 60.5219L169.111 65.215C168.831 66.2217 168.625 67.1331 168.495 67.9493C168.394 68.5751 168.344 69.2008 168.344 69.8266C168.344 70.4796 168.47 71.0917 168.72 71.6631C168.981 72.2072 169.407 72.5201 169.999 72.6017V74.1117H163.908L164.058 72.6017C164.6 72.3568 165.081 71.8399 165.502 71.0509C166.063 69.9626 166.87 67.7181 167.923 64.3172L182.376 17.5078H183.053L182.376 62.8072C182.346 65.1742 182.331 66.6026 182.331 67.0923C182.331 68.9424 182.466 70.2891 182.737 71.1325C183.018 71.9759 183.479 72.4657 184.121 72.6017L183.97 74.1117H175.142L175.308 72.6017C176.18 72.3841 176.681 72.1936 176.812 72.0304C177.092 71.6495 177.348 70.8605 177.579 69.6634C177.809 68.4391 177.95 66.3305 178 63.3378L178.135 56.2776ZM178.135 52.9311L178.526 34.893L172.856 52.9311H178.135Z" fill="#FBF448"/>
<path d="M158.183 18.7734H168.29L168.139 20.2834C167.397 20.3378 166.821 20.6371 166.41 21.1812C166.009 21.6982 165.648 22.664 165.327 24.0788C165.016 25.4935 164.685 27.8877 164.334 31.2614L160.95 63.2567C160.65 66.1406 160.499 68.1403 160.499 69.2558C160.499 70.5345 160.655 71.4051 160.965 71.8676C161.276 72.3029 161.883 72.5478 162.785 72.6022L162.62 74.1122H152.739L152.904 72.6022C154.037 72.5478 154.804 71.8948 155.205 70.6433C155.616 69.3646 156.057 66.5079 156.529 62.0732L158.018 48.0752C155.431 51.3673 153.18 53.0133 151.265 53.0133C150.102 53.0133 149.064 52.2243 148.152 50.6463C147.239 49.0411 146.783 46.6741 146.783 43.5453C146.783 42.1033 146.923 40.022 147.204 37.3013L148.061 29.2209C148.352 26.5274 148.498 24.6773 148.498 23.6707C148.498 21.5485 147.821 20.4195 146.467 20.2834L146.633 18.7734H156.198L156.032 20.2834C154.919 20.5011 154.152 21.2357 153.731 22.4872C153.31 23.7387 152.854 26.7042 152.363 31.3838L151.806 36.6892C151.485 39.8179 151.325 42.0897 151.325 43.5045C151.325 46.6061 152.112 48.1568 153.686 48.1568C154.819 48.1568 156.393 46.8781 158.409 44.3207L159.852 30.7309C160.193 27.4388 160.364 25.2623 160.364 24.2012C160.364 22.8953 160.188 21.943 159.837 21.3445C159.497 20.7459 158.89 20.3922 158.018 20.2834L158.183 18.7734Z" fill="#FBF448"/>
<path d="M136.815 56.2776H130.498L129.235 60.5219L127.791 65.215C127.51 66.2217 127.305 67.1331 127.174 67.9493C127.074 68.5751 127.024 69.2008 127.024 69.8266C127.024 70.4796 127.149 71.0917 127.4 71.6631C127.661 72.2072 128.087 72.5201 128.678 72.6017V74.1117H122.587L122.738 72.6017C123.279 72.3568 123.76 71.8399 124.182 71.0509C124.743 69.9626 125.55 67.7181 126.603 64.3172L141.056 17.5078H141.733L141.056 62.8072C141.026 65.1742 141.011 66.6026 141.011 67.0923C141.011 68.9424 141.146 70.2891 141.417 71.1325C141.698 71.9759 142.159 72.4657 142.801 72.6017L142.65 74.1117H133.822L133.987 72.6017C134.86 72.3841 135.361 72.1936 135.491 72.0304C135.772 71.6495 136.028 70.8605 136.258 69.6634C136.489 68.4391 136.629 66.3305 136.679 63.3378L136.815 56.2776ZM136.815 52.9311L137.206 34.893L131.536 52.9311H136.815Z" fill="#FBF448"/>
<path d="M109.673 44.2391H117.132L118.787 28.772C119.007 26.6498 119.117 25.031 119.117 23.9155C119.117 22.8273 118.982 21.9975 118.711 21.4261C118.441 20.8548 117.789 20.4739 116.756 20.2834L116.922 18.7734H127.058L126.893 20.2834C125.9 20.2834 125.148 20.8548 124.637 21.9975C124.126 23.1401 123.689 25.3983 123.329 28.772L119.539 64.1953C119.288 66.5079 119.163 68.1675 119.163 69.1741C119.163 70.1808 119.298 70.9426 119.569 71.4595C119.92 72.1669 120.556 72.5478 121.479 72.6022L121.328 74.1122H111.387L111.613 72.6022C112.575 72.6022 113.282 72.0989 113.733 71.0922C114.195 70.0584 114.616 67.7594 114.997 64.1953L116.756 47.7079H109.327L107.582 64.1953C107.332 66.4535 107.206 68.1267 107.206 69.215C107.206 70.1944 107.357 70.997 107.657 71.6228C107.968 72.2213 108.575 72.5478 109.477 72.6022L109.327 74.1122H99.521L99.6864 72.6022C100.649 72.6022 101.351 72.0989 101.792 71.0922C102.243 70.0584 102.659 67.7594 103.04 64.1953L106.83 28.772C107.051 26.7314 107.161 25.1262 107.161 23.9563C107.161 22.8409 107.026 21.9975 106.755 21.4261C106.494 20.8548 105.863 20.4739 104.86 20.2834L105.025 18.7734H114.997L114.771 20.2834C113.849 20.2834 113.152 20.8276 112.681 21.9158C112.209 22.9769 111.778 25.2623 111.387 28.772L109.673 44.2391Z" fill="#FBF448"/>
<path d="M77.3445 18.7734H85.4057C87.2004 18.7734 88.4838 19.0319 89.2558 19.5488C90.2685 20.2018 91.0505 21.4805 91.602 23.385C92.1634 25.2623 92.4442 27.398 92.4442 29.7922C92.4442 31.7511 92.2236 33.7508 91.7824 35.7913C91.3413 37.8318 90.6795 39.5187 89.7972 40.8518C88.9249 42.1577 87.5814 43.3684 85.7666 44.4839C87.6516 45.9259 88.96 47.7759 89.6919 50.0341C90.4239 52.2923 90.7898 54.9178 90.7898 57.9105C90.7898 60.7128 90.4289 63.4879 89.707 66.2358C88.9851 68.9565 88.0276 70.9562 86.8344 72.2349C85.6413 73.4864 83.4556 74.1122 80.2772 74.1122H71.7949L71.9904 72.6022C72.8126 72.6022 73.3991 72.3982 73.7501 71.9901C74.111 71.582 74.3968 70.9562 74.6073 70.1128C74.8279 69.2422 75.0836 67.4465 75.3743 64.7258L79.0139 30.69C79.3849 27.2348 79.5703 24.9222 79.5703 23.7523C79.5703 22.8001 79.42 22.0111 79.1192 21.3853C78.8284 20.7595 78.1867 20.3922 77.1941 20.2834L77.3445 18.7734ZM81.9616 43.2188C83.3252 43.1644 84.398 42.5794 85.1801 41.464C85.9722 40.3485 86.6038 38.5256 87.0751 35.9954C87.5563 33.4379 87.797 31.0301 87.797 28.772C87.797 26.6498 87.5513 24.9222 87.06 23.5891C86.5687 22.2559 85.912 21.6166 85.0898 21.671L84.2627 21.7526L81.9616 43.2188ZM81.6007 46.2796L78.9988 70.8882C79.5002 70.9426 79.8762 70.9698 80.1268 70.9698C82.3627 70.9698 83.9168 69.283 84.7891 65.9093C85.6614 62.5085 86.0975 58.8764 86.0975 55.013C86.0975 53.1629 85.927 51.5305 85.5862 50.1157C85.2553 48.6738 84.8242 47.6807 84.2928 47.1366C83.7614 46.5652 82.864 46.2796 81.6007 46.2796Z" fill="#FBF448"/>
<defs>
<filter id="filter0_d_1_2037" x="0.182129" y="0.588867" width="306.387" height="98.8596" filterUnits="userSpaceOnUse" color-interpolation-filters="sRGB">
<feFlood flood-opacity="0" result="BackgroundImageFix"/>
<feColorMatrix in="SourceAlpha" type="matrix" values="0 0 0 0 0 0 0 0 0 0 0 0 0 0 0 0 0 0 127 0" result="hardAlpha"/>
<feOffset dx="6.42991" dy="8.03738"/>
<feComposite in2="hardAlpha" operator="out"/>
<feColorMatrix type="matrix" values="0 0 0 0 0 0 0 0 0 0 0 0 0 0 0 0 0 0 1 0"/>
<feBlend mode="normal" in2="BackgroundImageFix" result="effect1_dropShadow_1_2037"/>
<feBlend mode="normal" in="SourceGraphic" in2="effect1_dropShadow_1_2037" result="shape"/>
</filter>
</defs>
</svg>
