<svg width="166" height="21" viewBox="0 0 166 21" fill="none" xmlns="http://www.w3.org/2000/svg">
<mask id="path-1-outside-1_247_11057" maskUnits="userSpaceOnUse" x="-0.519531" y="0" width="167" height="19" fill="black">
<rect fill="white" x="-0.519531" width="167" height="19"/>
<path d="M13.3477 11.9922C13.3477 12.625 13.2188 13.1904 12.9609 13.6885C12.709 14.1865 12.3604 14.5996 11.915 14.9277C11.3994 15.3145 10.8311 15.5898 10.21 15.7539C9.59473 15.918 8.8125 16 7.86328 16H2.15039V2.91309H7.23047C8.28516 2.91309 9.05566 2.94824 9.54199 3.01855C10.0342 3.08887 10.5205 3.24414 11.001 3.48438C11.499 3.73633 11.8682 4.07617 12.1084 4.50391C12.3545 4.92578 12.4775 5.40918 12.4775 5.9541C12.4775 6.58691 12.3105 7.14648 11.9766 7.63281C11.6426 8.11328 11.1709 8.48828 10.5615 8.75781V8.82812C11.417 8.99805 12.0938 9.34961 12.5918 9.88281C13.0957 10.416 13.3477 11.1191 13.3477 11.9922ZM5.50781 8.08105H6.03516C6.56836 8.08105 7.02246 8.07227 7.39746 8.05469C7.77246 8.03711 8.06836 7.97852 8.28516 7.87891C8.58984 7.74414 8.78906 7.57129 8.88281 7.36035C8.97656 7.14355 9.02344 6.89453 9.02344 6.61328C9.02344 6.39648 8.96777 6.17969 8.85645 5.96289C8.75098 5.74609 8.56055 5.58496 8.28516 5.47949C8.03906 5.38574 7.73145 5.33594 7.3623 5.33008C6.99902 5.31836 6.48633 5.3125 5.82422 5.3125H5.50781V8.08105ZM5.50781 13.6006H5.75391C6.70312 13.6006 7.38281 13.5977 7.79297 13.5918C8.20312 13.5859 8.58105 13.5098 8.92676 13.3633C9.27832 13.2168 9.51855 13.0234 9.64746 12.7832C9.78223 12.5371 9.84961 12.2559 9.84961 11.9395C9.84961 11.5234 9.76758 11.2041 9.60352 10.9814C9.44531 10.7529 9.17285 10.583 8.78613 10.4717C8.52246 10.3955 8.15918 10.3545 7.69629 10.3486C7.2334 10.3428 6.75 10.3398 6.24609 10.3398H5.50781V13.6006ZM19.0387 7.70312H24.7077V10.2344H19.0387V13.4688H25.1471V16H15.6813V2.91309H25.1471V5.44434H19.0387V7.70312ZM27.806 16V2.91309H33.3607C34.1927 2.91309 34.8929 2.98633 35.4613 3.13281C36.0355 3.27344 36.5423 3.4873 36.9818 3.77441C37.5091 4.12012 37.9105 4.5625 38.1859 5.10156C38.4671 5.64062 38.6078 6.28809 38.6078 7.04395C38.6078 7.62988 38.5052 8.2041 38.3002 8.7666C38.0951 9.32324 37.8021 9.79199 37.4212 10.1729C36.8998 10.6885 36.3168 11.0781 35.6722 11.3418C35.0336 11.6055 34.2367 11.7373 33.2816 11.7373H31.181V16H27.806ZM31.181 9.27637H32.1478C32.722 9.27637 33.1937 9.24121 33.5629 9.1709C33.9379 9.10059 34.2513 8.95996 34.5033 8.74902C34.7201 8.56152 34.8754 8.33887 34.9691 8.08105C35.0687 7.81738 35.1185 7.49805 35.1185 7.12305C35.1185 6.75391 35.0189 6.4375 34.8197 6.17383C34.6205 5.9043 34.389 5.7168 34.1254 5.61133C33.7738 5.4707 33.431 5.39453 33.097 5.38281C32.763 5.36523 32.3177 5.35645 31.7611 5.35645H31.181V9.27637ZM40.8272 16V2.91309H44.2022V7.69434H46.7246C47.0235 6.1123 47.7325 4.87598 48.8516 3.98535C49.9707 3.08887 51.4063 2.64062 53.1582 2.64062C55.2149 2.64062 56.8291 3.25 58.001 4.46875C59.1787 5.6875 59.7676 7.35156 59.7676 9.46094C59.7676 10.4688 59.6241 11.3945 59.337 12.2383C59.0498 13.0762 58.628 13.791 58.0713 14.3828C57.503 14.9863 56.8145 15.4521 56.0059 15.7803C55.1973 16.1084 54.2481 16.2725 53.1582 16.2725C51.2422 16.2725 49.7041 15.7363 48.544 14.6641C47.3897 13.5859 46.7393 12.1006 46.5928 10.208H44.2022V16H40.8272ZM55.3291 12.7744C55.6455 12.376 55.8799 11.9072 56.0323 11.3682C56.1846 10.8232 56.2608 10.1846 56.2608 9.45215C56.2608 8.69043 56.1729 8.03125 55.9971 7.47461C55.8272 6.91211 55.5987 6.45801 55.3116 6.1123C55.0245 5.7666 54.6934 5.51465 54.3184 5.35645C53.9434 5.19238 53.5479 5.11035 53.1319 5.11035C52.7159 5.11035 52.3233 5.18652 51.9541 5.33887C51.5909 5.49121 51.2569 5.74316 50.9522 6.09473C50.6651 6.42285 50.4307 6.87695 50.2491 7.45703C50.0733 8.03125 49.9854 8.69922 49.9854 9.46094C49.9854 10.2402 50.0704 10.9053 50.2403 11.4561C50.4161 12.0068 50.6475 12.4521 50.9346 12.792C51.2217 13.1377 51.5528 13.3926 51.9278 13.5566C52.3086 13.7207 52.71 13.8027 53.1319 13.8027C53.5596 13.8027 53.9639 13.7178 54.3448 13.5479C54.7256 13.3779 55.0537 13.1201 55.3291 12.7744ZM68.1657 11.4473H61.4597V8.91602H68.1657V11.4473ZM78.9896 10.2344H74.0062V16H70.6312V2.91309H74.0062V7.70312H78.9896V2.91309H82.3646V16H78.9896V10.2344ZM88.8907 7.70312H94.5596V10.2344H88.8907V13.4688H94.9991V16H85.5333V2.91309H94.9991V5.44434H88.8907V7.70312ZM103.661 11.4473H96.9548V8.91602H103.661V11.4473ZM117.324 11.9922C117.324 12.625 117.195 13.1904 116.937 13.6885C116.685 14.1865 116.336 14.5996 115.891 14.9277C115.375 15.3145 114.807 15.5898 114.186 15.7539C113.571 15.918 112.789 16 111.839 16H106.126V2.91309H111.206C112.261 2.91309 113.032 2.94824 113.518 3.01855C114.01 3.08887 114.497 3.24414 114.977 3.48438C115.475 3.73633 115.844 4.07617 116.084 4.50391C116.331 4.92578 116.454 5.40918 116.454 5.9541C116.454 6.58691 116.287 7.14648 115.953 7.63281C115.619 8.11328 115.147 8.48828 114.538 8.75781V8.82812C115.393 8.99805 116.07 9.34961 116.568 9.88281C117.072 10.416 117.324 11.1191 117.324 11.9922ZM109.484 8.08105H110.011C110.544 8.08105 110.998 8.07227 111.373 8.05469C111.748 8.03711 112.044 7.97852 112.261 7.87891C112.566 7.74414 112.765 7.57129 112.859 7.36035C112.953 7.14355 112.999 6.89453 112.999 6.61328C112.999 6.39648 112.944 6.17969 112.832 5.96289C112.727 5.74609 112.537 5.58496 112.261 5.47949C112.015 5.38574 111.707 5.33594 111.338 5.33008C110.975 5.31836 110.462 5.3125 109.8 5.3125H109.484V8.08105ZM109.484 13.6006H109.73C110.679 13.6006 111.359 13.5977 111.769 13.5918C112.179 13.5859 112.557 13.5098 112.903 13.3633C113.254 13.2168 113.495 13.0234 113.623 12.7832C113.758 12.5371 113.826 12.2559 113.826 11.9395C113.826 11.5234 113.744 11.2041 113.58 10.9814C113.421 10.7529 113.149 10.583 112.762 10.4717C112.498 10.3955 112.135 10.3545 111.672 10.3486C111.209 10.3428 110.726 10.3398 110.222 10.3398H109.484V13.6006ZM123.015 7.70312H128.684V10.2344H123.015V13.4688H129.123V16H119.657V2.91309H129.123V5.44434H123.015V7.70312ZM131.782 16V2.91309H137.337C138.169 2.91309 138.869 2.98633 139.437 3.13281C140.012 3.27344 140.518 3.4873 140.958 3.77441C141.485 4.12012 141.887 4.5625 142.162 5.10156C142.443 5.64062 142.584 6.28809 142.584 7.04395C142.584 7.62988 142.481 8.2041 142.276 8.7666C142.071 9.32324 141.778 9.79199 141.397 10.1729C140.876 10.6885 140.293 11.0781 139.648 11.3418C139.01 11.6055 138.213 11.7373 137.258 11.7373H135.157V16H131.782ZM135.157 9.27637H136.124C136.698 9.27637 137.17 9.24121 137.539 9.1709C137.914 9.10059 138.227 8.95996 138.479 8.74902C138.696 8.56152 138.851 8.33887 138.945 8.08105C139.045 7.81738 139.095 7.49805 139.095 7.12305C139.095 6.75391 138.995 6.4375 138.796 6.17383C138.596 5.9043 138.365 5.7168 138.101 5.61133C137.75 5.4707 137.407 5.39453 137.073 5.38281C136.739 5.36523 136.294 5.35645 135.737 5.35645H135.157V9.27637ZM144.803 16V2.91309H148.178V7.69434H150.701C150.999 6.1123 151.708 4.87598 152.828 3.98535C153.947 3.08887 155.382 2.64062 157.134 2.64062C159.191 2.64062 160.805 3.25 161.977 4.46875C163.155 5.6875 163.744 7.35156 163.744 9.46094C163.744 10.4688 163.6 11.3945 163.313 12.2383C163.026 13.0762 162.604 13.791 162.047 14.3828C161.479 14.9863 160.791 15.4521 159.982 15.7803C159.173 16.1084 158.224 16.2725 157.134 16.2725C155.218 16.2725 153.68 15.7363 152.52 14.6641C151.366 13.5859 150.715 12.1006 150.569 10.208H148.178V16H144.803ZM159.305 12.7744C159.622 12.376 159.856 11.9072 160.008 11.3682C160.161 10.8232 160.237 10.1846 160.237 9.45215C160.237 8.69043 160.149 8.03125 159.973 7.47461C159.803 6.91211 159.575 6.45801 159.288 6.1123C159 5.7666 158.669 5.51465 158.294 5.35645C157.919 5.19238 157.524 5.11035 157.108 5.11035C156.692 5.11035 156.299 5.18652 155.93 5.33887C155.567 5.49121 155.233 5.74316 154.928 6.09473C154.641 6.42285 154.407 6.87695 154.225 7.45703C154.049 8.03125 153.961 8.69922 153.961 9.46094C153.961 10.2402 154.046 10.9053 154.216 11.4561C154.392 12.0068 154.624 12.4521 154.911 12.792C155.198 13.1377 155.529 13.3926 155.904 13.5566C156.285 13.7207 156.686 13.8027 157.108 13.8027C157.536 13.8027 157.94 13.7178 158.321 13.5479C158.702 13.3779 159.03 13.1201 159.305 12.7744Z"/>
</mask>
<path d="M13.3477 11.9922C13.3477 12.625 13.2188 13.1904 12.9609 13.6885C12.709 14.1865 12.3604 14.5996 11.915 14.9277C11.3994 15.3145 10.8311 15.5898 10.21 15.7539C9.59473 15.918 8.8125 16 7.86328 16H2.15039V2.91309H7.23047C8.28516 2.91309 9.05566 2.94824 9.54199 3.01855C10.0342 3.08887 10.5205 3.24414 11.001 3.48438C11.499 3.73633 11.8682 4.07617 12.1084 4.50391C12.3545 4.92578 12.4775 5.40918 12.4775 5.9541C12.4775 6.58691 12.3105 7.14648 11.9766 7.63281C11.6426 8.11328 11.1709 8.48828 10.5615 8.75781V8.82812C11.417 8.99805 12.0938 9.34961 12.5918 9.88281C13.0957 10.416 13.3477 11.1191 13.3477 11.9922ZM5.50781 8.08105H6.03516C6.56836 8.08105 7.02246 8.07227 7.39746 8.05469C7.77246 8.03711 8.06836 7.97852 8.28516 7.87891C8.58984 7.74414 8.78906 7.57129 8.88281 7.36035C8.97656 7.14355 9.02344 6.89453 9.02344 6.61328C9.02344 6.39648 8.96777 6.17969 8.85645 5.96289C8.75098 5.74609 8.56055 5.58496 8.28516 5.47949C8.03906 5.38574 7.73145 5.33594 7.3623 5.33008C6.99902 5.31836 6.48633 5.3125 5.82422 5.3125H5.50781V8.08105ZM5.50781 13.6006H5.75391C6.70312 13.6006 7.38281 13.5977 7.79297 13.5918C8.20312 13.5859 8.58105 13.5098 8.92676 13.3633C9.27832 13.2168 9.51855 13.0234 9.64746 12.7832C9.78223 12.5371 9.84961 12.2559 9.84961 11.9395C9.84961 11.5234 9.76758 11.2041 9.60352 10.9814C9.44531 10.7529 9.17285 10.583 8.78613 10.4717C8.52246 10.3955 8.15918 10.3545 7.69629 10.3486C7.2334 10.3428 6.75 10.3398 6.24609 10.3398H5.50781V13.6006ZM19.0387 7.70312H24.7077V10.2344H19.0387V13.4688H25.1471V16H15.6813V2.91309H25.1471V5.44434H19.0387V7.70312ZM27.806 16V2.91309H33.3607C34.1927 2.91309 34.8929 2.98633 35.4613 3.13281C36.0355 3.27344 36.5423 3.4873 36.9818 3.77441C37.5091 4.12012 37.9105 4.5625 38.1859 5.10156C38.4671 5.64062 38.6078 6.28809 38.6078 7.04395C38.6078 7.62988 38.5052 8.2041 38.3002 8.7666C38.0951 9.32324 37.8021 9.79199 37.4212 10.1729C36.8998 10.6885 36.3168 11.0781 35.6722 11.3418C35.0336 11.6055 34.2367 11.7373 33.2816 11.7373H31.181V16H27.806ZM31.181 9.27637H32.1478C32.722 9.27637 33.1937 9.24121 33.5629 9.1709C33.9379 9.10059 34.2513 8.95996 34.5033 8.74902C34.7201 8.56152 34.8754 8.33887 34.9691 8.08105C35.0687 7.81738 35.1185 7.49805 35.1185 7.12305C35.1185 6.75391 35.0189 6.4375 34.8197 6.17383C34.6205 5.9043 34.389 5.7168 34.1254 5.61133C33.7738 5.4707 33.431 5.39453 33.097 5.38281C32.763 5.36523 32.3177 5.35645 31.7611 5.35645H31.181V9.27637ZM40.8272 16V2.91309H44.2022V7.69434H46.7246C47.0235 6.1123 47.7325 4.87598 48.8516 3.98535C49.9707 3.08887 51.4063 2.64062 53.1582 2.64062C55.2149 2.64062 56.8291 3.25 58.001 4.46875C59.1787 5.6875 59.7676 7.35156 59.7676 9.46094C59.7676 10.4688 59.6241 11.3945 59.337 12.2383C59.0498 13.0762 58.628 13.791 58.0713 14.3828C57.503 14.9863 56.8145 15.4521 56.0059 15.7803C55.1973 16.1084 54.2481 16.2725 53.1582 16.2725C51.2422 16.2725 49.7041 15.7363 48.544 14.6641C47.3897 13.5859 46.7393 12.1006 46.5928 10.208H44.2022V16H40.8272ZM55.3291 12.7744C55.6455 12.376 55.8799 11.9072 56.0323 11.3682C56.1846 10.8232 56.2608 10.1846 56.2608 9.45215C56.2608 8.69043 56.1729 8.03125 55.9971 7.47461C55.8272 6.91211 55.5987 6.45801 55.3116 6.1123C55.0245 5.7666 54.6934 5.51465 54.3184 5.35645C53.9434 5.19238 53.5479 5.11035 53.1319 5.11035C52.7159 5.11035 52.3233 5.18652 51.9541 5.33887C51.5909 5.49121 51.2569 5.74316 50.9522 6.09473C50.6651 6.42285 50.4307 6.87695 50.2491 7.45703C50.0733 8.03125 49.9854 8.69922 49.9854 9.46094C49.9854 10.2402 50.0704 10.9053 50.2403 11.4561C50.4161 12.0068 50.6475 12.4521 50.9346 12.792C51.2217 13.1377 51.5528 13.3926 51.9278 13.5566C52.3086 13.7207 52.71 13.8027 53.1319 13.8027C53.5596 13.8027 53.9639 13.7178 54.3448 13.5479C54.7256 13.3779 55.0537 13.1201 55.3291 12.7744ZM68.1657 11.4473H61.4597V8.91602H68.1657V11.4473ZM78.9896 10.2344H74.0062V16H70.6312V2.91309H74.0062V7.70312H78.9896V2.91309H82.3646V16H78.9896V10.2344ZM88.8907 7.70312H94.5596V10.2344H88.8907V13.4688H94.9991V16H85.5333V2.91309H94.9991V5.44434H88.8907V7.70312ZM103.661 11.4473H96.9548V8.91602H103.661V11.4473ZM117.324 11.9922C117.324 12.625 117.195 13.1904 116.937 13.6885C116.685 14.1865 116.336 14.5996 115.891 14.9277C115.375 15.3145 114.807 15.5898 114.186 15.7539C113.571 15.918 112.789 16 111.839 16H106.126V2.91309H111.206C112.261 2.91309 113.032 2.94824 113.518 3.01855C114.01 3.08887 114.497 3.24414 114.977 3.48438C115.475 3.73633 115.844 4.07617 116.084 4.50391C116.331 4.92578 116.454 5.40918 116.454 5.9541C116.454 6.58691 116.287 7.14648 115.953 7.63281C115.619 8.11328 115.147 8.48828 114.538 8.75781V8.82812C115.393 8.99805 116.07 9.34961 116.568 9.88281C117.072 10.416 117.324 11.1191 117.324 11.9922ZM109.484 8.08105H110.011C110.544 8.08105 110.998 8.07227 111.373 8.05469C111.748 8.03711 112.044 7.97852 112.261 7.87891C112.566 7.74414 112.765 7.57129 112.859 7.36035C112.953 7.14355 112.999 6.89453 112.999 6.61328C112.999 6.39648 112.944 6.17969 112.832 5.96289C112.727 5.74609 112.537 5.58496 112.261 5.47949C112.015 5.38574 111.707 5.33594 111.338 5.33008C110.975 5.31836 110.462 5.3125 109.8 5.3125H109.484V8.08105ZM109.484 13.6006H109.73C110.679 13.6006 111.359 13.5977 111.769 13.5918C112.179 13.5859 112.557 13.5098 112.903 13.3633C113.254 13.2168 113.495 13.0234 113.623 12.7832C113.758 12.5371 113.826 12.2559 113.826 11.9395C113.826 11.5234 113.744 11.2041 113.58 10.9814C113.421 10.7529 113.149 10.583 112.762 10.4717C112.498 10.3955 112.135 10.3545 111.672 10.3486C111.209 10.3428 110.726 10.3398 110.222 10.3398H109.484V13.6006ZM123.015 7.70312H128.684V10.2344H123.015V13.4688H129.123V16H119.657V2.91309H129.123V5.44434H123.015V7.70312ZM131.782 16V2.91309H137.337C138.169 2.91309 138.869 2.98633 139.437 3.13281C140.012 3.27344 140.518 3.4873 140.958 3.77441C141.485 4.12012 141.887 4.5625 142.162 5.10156C142.443 5.64062 142.584 6.28809 142.584 7.04395C142.584 7.62988 142.481 8.2041 142.276 8.7666C142.071 9.32324 141.778 9.79199 141.397 10.1729C140.876 10.6885 140.293 11.0781 139.648 11.3418C139.01 11.6055 138.213 11.7373 137.258 11.7373H135.157V16H131.782ZM135.157 9.27637H136.124C136.698 9.27637 137.17 9.24121 137.539 9.1709C137.914 9.10059 138.227 8.95996 138.479 8.74902C138.696 8.56152 138.851 8.33887 138.945 8.08105C139.045 7.81738 139.095 7.49805 139.095 7.12305C139.095 6.75391 138.995 6.4375 138.796 6.17383C138.596 5.9043 138.365 5.7168 138.101 5.61133C137.75 5.4707 137.407 5.39453 137.073 5.38281C136.739 5.36523 136.294 5.35645 135.737 5.35645H135.157V9.27637ZM144.803 16V2.91309H148.178V7.69434H150.701C150.999 6.1123 151.708 4.87598 152.828 3.98535C153.947 3.08887 155.382 2.64062 157.134 2.64062C159.191 2.64062 160.805 3.25 161.977 4.46875C163.155 5.6875 163.744 7.35156 163.744 9.46094C163.744 10.4688 163.6 11.3945 163.313 12.2383C163.026 13.0762 162.604 13.791 162.047 14.3828C161.479 14.9863 160.791 15.4521 159.982 15.7803C159.173 16.1084 158.224 16.2725 157.134 16.2725C155.218 16.2725 153.68 15.7363 152.52 14.6641C151.366 13.5859 150.715 12.1006 150.569 10.208H148.178V16H144.803ZM159.305 12.7744C159.622 12.376 159.856 11.9072 160.008 11.3682C160.161 10.8232 160.237 10.1846 160.237 9.45215C160.237 8.69043 160.149 8.03125 159.973 7.47461C159.803 6.91211 159.575 6.45801 159.288 6.1123C159 5.7666 158.669 5.51465 158.294 5.35645C157.919 5.19238 157.524 5.11035 157.108 5.11035C156.692 5.11035 156.299 5.18652 155.93 5.33887C155.567 5.49121 155.233 5.74316 154.928 6.09473C154.641 6.42285 154.407 6.87695 154.225 7.45703C154.049 8.03125 153.961 8.69922 153.961 9.46094C153.961 10.2402 154.046 10.9053 154.216 11.4561C154.392 12.0068 154.624 12.4521 154.911 12.792C155.198 13.1377 155.529 13.3926 155.904 13.5566C156.285 13.7207 156.686 13.8027 157.108 13.8027C157.536 13.8027 157.94 13.7178 158.321 13.5479C158.702 13.3779 159.03 13.1201 159.305 12.7744Z" fill="white"/>
<path d="M12.9609 13.6885L11.1848 12.7691C11.1819 12.7746 11.1791 12.7801 11.1763 12.7857L12.9609 13.6885ZM11.915 14.9277L10.7286 13.3176C10.7241 13.321 10.7196 13.3243 10.715 13.3277L11.915 14.9277ZM10.21 15.7539L9.69918 13.8202L9.69464 13.8214L10.21 15.7539ZM2.15039 16H0.150391C0.150391 17.1046 1.04582 18 2.15039 18V16ZM2.15039 2.91309V0.913086C1.04582 0.913086 0.150391 1.80852 0.150391 2.91309H2.15039ZM9.54199 3.01855L9.25581 4.99798L9.25915 4.99845L9.54199 3.01855ZM11.001 3.48438L11.9038 1.69972L11.8954 1.69552L11.001 3.48438ZM12.1084 4.50391L10.3646 5.48329C10.3699 5.49279 10.3754 5.50224 10.3808 5.51165L12.1084 4.50391ZM11.9766 7.63281L13.6188 8.77437L13.6252 8.76503L11.9766 7.63281ZM10.5615 8.75781L9.75251 6.92874C9.0285 7.24898 8.56152 7.96614 8.56152 8.75781H10.5615ZM10.5615 8.82812H8.56152C8.56152 9.78248 9.23581 10.6039 10.1719 10.7898L10.5615 8.82812ZM12.5918 9.88281L11.1302 11.248L11.1382 11.2565L12.5918 9.88281ZM5.50781 8.08105H3.50781C3.50781 9.18562 4.40324 10.0811 5.50781 10.0811V8.08105ZM8.28516 7.87891L7.47614 6.04984C7.46745 6.05368 7.45879 6.05759 7.45016 6.06155L8.28516 7.87891ZM8.88281 7.36035L10.7104 8.17263C10.7132 8.16649 10.7159 8.16034 10.7185 8.15417L8.88281 7.36035ZM8.85645 5.96289L7.05798 6.83782C7.06428 6.85078 7.07073 6.86368 7.07731 6.8765L8.85645 5.96289ZM8.28516 5.47949L9.00045 3.61178L8.99715 3.61052L8.28516 5.47949ZM7.3623 5.33008L7.29782 7.32904C7.30873 7.32939 7.31965 7.32965 7.33056 7.32983L7.3623 5.33008ZM5.50781 5.3125V3.3125C4.40324 3.3125 3.50781 4.20793 3.50781 5.3125H5.50781ZM5.50781 13.6006H3.50781C3.50781 14.7052 4.40324 15.6006 5.50781 15.6006V13.6006ZM8.92676 13.3633L8.15751 11.5171L8.14646 11.5218L8.92676 13.3633ZM9.64746 12.7832L7.89327 11.8226C7.89054 11.8276 7.88783 11.8326 7.88514 11.8376L9.64746 12.7832ZM9.60352 10.9814L7.95913 12.1199C7.97032 12.136 7.98174 12.152 7.9934 12.1678L9.60352 10.9814ZM8.78613 10.4717L8.23105 12.3931L8.23285 12.3936L8.78613 10.4717ZM5.50781 10.3398V8.33984C4.40324 8.33984 3.50781 9.23527 3.50781 10.3398H5.50781ZM11.3477 11.9922C11.3477 12.3465 11.2776 12.5899 11.1848 12.7691L14.7371 14.6079C15.1599 13.791 15.3477 12.9035 15.3477 11.9922H11.3477ZM11.1763 12.7857C11.0643 13.007 10.9196 13.1769 10.7286 13.3176L13.1014 16.5378C13.8011 16.0223 14.3536 15.366 14.7456 14.5913L11.1763 12.7857ZM10.715 13.3277C10.4048 13.5604 10.0703 13.7222 9.69918 13.8202L10.7207 17.6876C11.5918 17.4575 12.394 17.0685 13.115 16.5277L10.715 13.3277ZM9.69464 13.8214C9.30798 13.9245 8.71478 14 7.86328 14V18C8.91022 18 9.88148 17.9114 10.7253 17.6864L9.69464 13.8214ZM7.86328 14H2.15039V18H7.86328V14ZM4.15039 16V2.91309H0.150391V16H4.15039ZM2.15039 4.91309H7.23047V0.913086H2.15039V4.91309ZM7.23047 4.91309C8.27218 4.91309 8.92095 4.94956 9.25581 4.99797L9.82817 1.03914C9.19038 0.946925 8.29814 0.913086 7.23047 0.913086V4.91309ZM9.25915 4.99845C9.52208 5.03601 9.8029 5.1214 10.1065 5.27323L11.8954 1.69552C11.2381 1.36688 10.5463 1.14172 9.82483 1.03866L9.25915 4.99845ZM10.0982 5.26901C10.2925 5.36735 10.3445 5.44754 10.3646 5.48329L13.8522 3.52452C13.3918 2.70481 12.7055 2.10531 11.9038 1.69974L10.0982 5.26901ZM10.3808 5.51165C10.4285 5.59334 10.4775 5.72133 10.4775 5.9541H14.4775C14.4775 5.09703 14.2805 4.25822 13.836 3.49616L10.3808 5.51165ZM10.4775 5.9541C10.4775 6.21356 10.4162 6.37208 10.3279 6.5006L13.6252 8.76503C14.2049 7.92089 14.4775 6.96026 14.4775 5.9541H10.4775ZM10.3343 6.49127C10.2376 6.63045 10.0739 6.78658 9.75251 6.92874L11.3705 10.5869C12.2679 10.19 13.0476 9.59611 13.6188 8.77435L10.3343 6.49127ZM8.56152 8.75781V8.82812H12.5615V8.75781H8.56152ZM10.1719 10.7898C10.6986 10.8944 10.9706 11.0771 11.1302 11.248L14.0534 8.5176C13.2169 7.62213 12.1353 7.10166 10.9512 6.86645L10.1719 10.7898ZM11.1382 11.2565C11.2262 11.3496 11.3477 11.5267 11.3477 11.9922H15.3477C15.3477 10.7115 14.9652 9.48243 14.0454 8.5091L11.1382 11.2565ZM5.50781 10.0811H6.03516V6.08105H5.50781V10.0811ZM6.03516 10.0811C6.58779 10.0811 7.07502 10.072 7.49111 10.0525L7.30381 6.05688C6.96991 6.07253 6.54892 6.08105 6.03516 6.08105V10.0811ZM7.49111 10.0525C7.99205 10.029 8.57521 9.94664 9.12016 9.69626L7.45016 6.06155C7.51609 6.03126 7.54454 6.02924 7.51214 6.03565C7.48157 6.04171 7.41513 6.05166 7.30381 6.05688L7.49111 10.0525ZM9.09417 9.70798C9.65384 9.46043 10.3414 9.00294 10.7104 8.17263L7.05519 6.54807C7.23671 6.13964 7.52585 6.02785 7.47614 6.04984L9.09417 9.70798ZM10.7185 8.15417C10.9393 7.64369 11.0234 7.11638 11.0234 6.61328H7.02344C7.02344 6.64313 7.02093 6.65095 7.0228 6.64101C7.0248 6.63038 7.03105 6.60365 7.0471 6.56653L10.7185 8.15417ZM11.0234 6.61328C11.0234 6.0411 10.8738 5.51326 10.6356 5.04928L7.07731 6.8765C7.06171 6.84612 7.02344 6.75187 7.02344 6.61328H11.0234ZM10.6549 5.08796C10.2802 4.31778 9.63839 3.8561 9.00045 3.61178L7.56986 7.34721C7.53487 7.3338 7.44714 7.29464 7.34264 7.20622C7.23304 7.11348 7.13118 6.98831 7.05798 6.83782L10.6549 5.08796ZM8.99715 3.61052C8.46545 3.40797 7.90954 3.33851 7.39405 3.33033L7.33056 7.32983C7.43574 7.3315 7.50713 7.33914 7.55023 7.34612C7.59365 7.35315 7.59756 7.35776 7.57317 7.34847L8.99715 3.61052ZM7.42679 3.33112C7.03132 3.31836 6.49348 3.3125 5.82422 3.3125V7.3125C6.47918 7.3125 6.96672 7.31836 7.29782 7.32904L7.42679 3.33112ZM5.82422 3.3125H5.50781V7.3125H5.82422V3.3125ZM3.50781 5.3125V8.08105H7.50781V5.3125H3.50781ZM5.50781 15.6006H5.75391V11.6006H5.50781V15.6006ZM5.75391 15.6006C6.7036 15.6006 7.3958 15.5977 7.82154 15.5916L7.7644 11.592C7.36982 11.5976 6.70265 11.6006 5.75391 11.6006V15.6006ZM7.82154 15.5916C8.46611 15.5824 9.10219 15.4611 9.70706 15.2048L8.14646 11.5218C8.05992 11.5584 7.94014 11.5895 7.7644 11.592L7.82154 15.5916ZM9.69599 15.2094C10.306 14.9553 10.9911 14.5091 11.4098 13.7288L7.88514 11.8376C8.046 11.5378 8.25068 11.4783 8.15753 11.5171L9.69599 15.2094ZM11.4017 13.7438C11.7174 13.1673 11.8496 12.5481 11.8496 11.9395H7.84961C7.84961 11.9553 7.84799 11.9473 7.85411 11.9217C7.8605 11.8951 7.8728 11.86 7.89327 11.8226L11.4017 13.7438ZM11.8496 11.9395C11.8496 11.3004 11.7298 10.4956 11.2136 9.79505L7.9934 12.1678C7.89706 12.0371 7.86178 11.9276 7.85098 11.8855C7.84102 11.8468 7.84961 11.8577 7.84961 11.9395H11.8496ZM11.2479 9.84303C10.7319 9.09768 9.976 8.73299 9.33942 8.54973L8.23285 12.3936C8.29111 12.4104 8.27688 12.4138 8.22216 12.3796C8.16266 12.3425 8.0575 12.262 7.95913 12.1199L11.2479 9.84303ZM9.34121 8.55025C8.82745 8.40183 8.25908 8.3556 7.7216 8.34879L7.67097 12.3485C7.85248 12.3508 7.99065 12.3598 8.09154 12.3712C8.1956 12.3829 8.23616 12.3946 8.23105 12.3931L9.34121 8.55025ZM7.7216 8.34879C7.24958 8.34282 6.75771 8.33984 6.24609 8.33984V12.3398C6.74229 12.3398 7.21722 12.3427 7.67097 12.3485L7.7216 8.34879ZM6.24609 8.33984H5.50781V12.3398H6.24609V8.33984ZM3.50781 10.3398V13.6006H7.50781V10.3398H3.50781ZM19.0387 7.70312H17.0387C17.0387 8.80769 17.9342 9.70312 19.0387 9.70312V7.70312ZM24.7077 7.70312H26.7077C26.7077 6.59856 25.8123 5.70312 24.7077 5.70312V7.70312ZM24.7077 10.2344V12.2344C25.8123 12.2344 26.7077 11.3389 26.7077 10.2344H24.7077ZM19.0387 10.2344V8.23438C17.9342 8.23438 17.0387 9.12981 17.0387 10.2344H19.0387ZM19.0387 13.4688H17.0387C17.0387 14.5733 17.9342 15.4688 19.0387 15.4688V13.4688ZM25.1471 13.4688H27.1471C27.1471 12.3642 26.2517 11.4688 25.1471 11.4688V13.4688ZM25.1471 16V18C26.2517 18 27.1471 17.1046 27.1471 16H25.1471ZM15.6813 16H13.6813C13.6813 17.1046 14.5768 18 15.6813 18V16ZM15.6813 2.91309V0.913086C14.5768 0.913086 13.6813 1.80852 13.6813 2.91309H15.6813ZM25.1471 2.91309H27.1471C27.1471 1.80852 26.2517 0.913086 25.1471 0.913086V2.91309ZM25.1471 5.44434V7.44434C26.2517 7.44434 27.1471 6.54891 27.1471 5.44434H25.1471ZM19.0387 5.44434V3.44434C17.9342 3.44434 17.0387 4.33977 17.0387 5.44434H19.0387ZM19.0387 9.70312H24.7077V5.70312H19.0387V9.70312ZM22.7077 7.70312V10.2344H26.7077V7.70312H22.7077ZM24.7077 8.23438H19.0387V12.2344H24.7077V8.23438ZM17.0387 10.2344V13.4688H21.0387V10.2344H17.0387ZM19.0387 15.4688H25.1471V11.4688H19.0387V15.4688ZM23.1471 13.4688V16H27.1471V13.4688H23.1471ZM25.1471 14H15.6813V18H25.1471V14ZM17.6813 16V2.91309H13.6813V16H17.6813ZM15.6813 4.91309H25.1471V0.913086H15.6813V4.91309ZM23.1471 2.91309V5.44434H27.1471V2.91309H23.1471ZM25.1471 3.44434H19.0387V7.44434H25.1471V3.44434ZM17.0387 5.44434V7.70312H21.0387V5.44434H17.0387ZM27.806 16H25.806C25.806 17.1046 26.7014 18 27.806 18V16ZM27.806 2.91309V0.913086C26.7014 0.913086 25.806 1.80852 25.806 2.91309H27.806ZM35.4613 3.13281L34.9621 5.06952C34.9699 5.07153 34.9777 5.07349 34.9855 5.07541L35.4613 3.13281ZM36.9818 3.77441L38.0783 2.10178L38.0757 2.10008L36.9818 3.77441ZM38.1859 5.10156L36.4049 6.01144C36.4075 6.01654 36.4101 6.02162 36.4127 6.02669L38.1859 5.10156ZM38.3002 8.7666L40.1769 9.45802L40.1792 9.45166L38.3002 8.7666ZM37.4212 10.1729L38.8275 11.5951L38.8355 11.5871L37.4212 10.1729ZM35.6722 11.3418L34.915 9.49069L34.909 9.49314L35.6722 11.3418ZM31.181 11.7373V9.7373C30.0764 9.7373 29.181 10.6327 29.181 11.7373H31.181ZM31.181 16V18C32.2856 18 33.181 17.1046 33.181 16H31.181ZM31.181 9.27637H29.181C29.181 10.3809 30.0764 11.2764 31.181 11.2764V9.27637ZM33.5629 9.1709L33.1943 7.20515L33.1886 7.20622L33.5629 9.1709ZM34.5033 8.74902L35.7872 10.2825C35.7954 10.2757 35.8035 10.2687 35.8116 10.2618L34.5033 8.74902ZM34.9691 8.08105L33.0982 7.37425C33.0952 7.38201 33.0923 7.38978 33.0895 7.39757L34.9691 8.08105ZM34.8197 6.17383L33.2113 7.36261C33.2155 7.36826 33.2197 7.37389 33.224 7.37949L34.8197 6.17383ZM33.097 5.38281L32.9919 7.38005C33.0036 7.38066 33.0152 7.38117 33.0269 7.38158L33.097 5.38281ZM31.181 5.35645V3.35645C30.0764 3.35645 29.181 4.25188 29.181 5.35645H31.181ZM29.806 16V2.91309H25.806V16H29.806ZM27.806 4.91309H33.3607V0.913086H27.806V4.91309ZM33.3607 4.91309C34.0883 4.91309 34.6089 4.97848 34.9621 5.06952L35.9604 1.1961C35.177 0.994172 34.2972 0.913086 33.3607 0.913086V4.91309ZM34.9855 5.07541C35.3675 5.16894 35.6601 5.29994 35.8879 5.44875L38.0757 2.10008C37.4245 1.67467 36.7035 1.37793 35.937 1.19022L34.9855 5.07541ZM35.8853 5.44704C36.1347 5.61053 36.2942 5.79493 36.4049 6.01144L39.9669 4.19168C39.5268 3.33007 38.8836 2.6297 38.0783 2.10179L35.8853 5.44704ZM36.4127 6.02669C36.5131 6.21898 36.6078 6.53333 36.6078 7.04395H40.6078C40.6078 6.04284 40.4212 5.06227 39.9591 4.17643L36.4127 6.02669ZM36.6078 7.04395C36.6078 7.39108 36.548 7.7337 36.4211 8.08154L40.1792 9.45166C40.4625 8.6745 40.6078 7.86868 40.6078 7.04395H36.6078ZM36.4235 8.07519C36.3082 8.38807 36.1633 8.60238 36.007 8.75864L38.8355 11.5871C39.4409 10.9816 39.882 10.2584 40.1768 9.45801L36.4235 8.07519ZM36.015 8.75067C35.6697 9.09216 35.3045 9.33136 34.915 9.4907L36.4295 13.1929C37.3291 12.8249 38.1299 12.2848 38.8274 11.595L36.015 8.75067ZM34.909 9.49314C34.5859 9.62654 34.0682 9.7373 33.2816 9.7373V13.7373C34.4051 13.7373 35.4812 13.5844 36.4354 13.1904L34.909 9.49314ZM33.2816 9.7373H31.181V13.7373H33.2816V9.7373ZM29.181 11.7373V16H33.181V11.7373H29.181ZM31.181 14H27.806V18H31.181V14ZM31.181 11.2764H32.1478V7.27637H31.181V11.2764ZM32.1478 11.2764C32.7893 11.2764 33.3981 11.2382 33.9371 11.1356L33.1886 7.20622C32.9893 7.24419 32.6548 7.27637 32.1478 7.27637V11.2764ZM33.9314 11.1366C34.5888 11.0134 35.2325 10.7469 35.7872 10.2825L33.2194 7.21551C33.2293 7.20719 33.2387 7.20055 33.2467 7.19558C33.2547 7.19064 33.2597 7.1883 33.2606 7.1879C33.2626 7.18699 33.2436 7.19591 33.1943 7.20515L33.9314 11.1366ZM35.8116 10.2618C36.2744 9.86148 36.633 9.35758 36.8487 8.76454L33.0895 7.39757C33.1014 7.36498 33.1191 7.33005 33.1418 7.29738C33.1644 7.2651 33.1848 7.24512 33.195 7.2363L35.8116 10.2618ZM36.84 8.78786C37.048 8.23733 37.1185 7.66437 37.1185 7.12305H33.1185C33.1185 7.33172 33.0894 7.39744 33.0982 7.37425L36.84 8.78786ZM37.1185 7.12305C37.1185 6.3723 36.9075 5.61947 36.4154 4.96816L33.224 7.37949C33.1852 7.32824 33.1547 7.26846 33.1361 7.20946C33.1183 7.15278 33.1185 7.11947 33.1185 7.12305H37.1185ZM36.428 4.98505C36.0483 4.47123 35.5347 4.02102 34.8681 3.75437L33.3826 7.46828C33.3192 7.44293 33.2702 7.41143 33.2377 7.38509C33.2068 7.36003 33.1999 7.34718 33.2113 7.36261L36.428 4.98505ZM34.8681 3.75437C34.3304 3.53929 33.7604 3.40486 33.1672 3.38404L33.0269 7.38158C33.1017 7.38421 33.2172 7.40212 33.3826 7.46828L34.8681 3.75437ZM33.2021 3.38558C32.8179 3.36535 32.3331 3.35645 31.7611 3.35645V7.35645C32.3023 7.35645 32.7082 7.36512 32.9919 7.38005L33.2021 3.38558ZM31.7611 3.35645H31.181V7.35645H31.7611V3.35645ZM29.181 5.35645V9.27637H33.181V5.35645H29.181ZM40.8272 16H38.8272C38.8272 17.1046 39.7226 18 40.8272 18V16ZM40.8272 2.91309V0.913086C39.7226 0.913086 38.8272 1.80852 38.8272 2.91309H40.8272ZM44.2022 2.91309H46.2022C46.2022 1.80852 45.3068 0.913086 44.2022 0.913086V2.91309ZM44.2022 7.69434H42.2022C42.2022 8.79891 43.0976 9.69434 44.2022 9.69434V7.69434ZM46.7246 7.69434V9.69434C47.6861 9.69434 48.5114 9.01026 48.6899 8.06555L46.7246 7.69434ZM48.8516 3.98535L50.097 5.55029L50.102 5.54629L48.8516 3.98535ZM58.001 4.46875L56.5593 5.85497L56.5628 5.85856L58.001 4.46875ZM59.337 12.2383L61.229 12.8866L61.2303 12.8826L59.337 12.2383ZM58.0713 14.3828L59.5273 15.754L59.5282 15.7531L58.0713 14.3828ZM48.544 14.6641L47.1788 16.1257L47.1865 16.1328L48.544 14.6641ZM46.5928 10.208L48.5868 10.0537C48.5062 9.01208 47.6375 8.20801 46.5928 8.20801V10.208ZM44.2022 10.208V8.20801C43.0976 8.20801 42.2022 9.10344 42.2022 10.208H44.2022ZM44.2022 16V18C45.3068 18 46.2022 17.1046 46.2022 16H44.2022ZM55.3291 12.7744L56.8935 14.0206L56.8954 14.0182L55.3291 12.7744ZM56.0323 11.3682L57.9569 11.9121L57.9584 11.9067L56.0323 11.3682ZM55.9971 7.47461L54.0826 8.05296C54.085 8.06095 54.0874 8.06892 54.0899 8.07687L55.9971 7.47461ZM54.3184 5.35645L53.5168 7.18876C53.5248 7.19228 53.5329 7.19576 53.541 7.19917L54.3184 5.35645ZM51.9541 5.33887L51.1912 3.49009L51.1807 3.49448L51.9541 5.33887ZM50.9522 6.09473L52.4574 7.41175L52.4636 7.40459L50.9522 6.09473ZM50.2491 7.45703L48.3404 6.85937L48.3367 6.8716L50.2491 7.45703ZM50.2403 11.4561L48.3292 12.0457C48.3311 12.0518 48.333 12.058 48.335 12.0641L50.2403 11.4561ZM50.9346 12.792L52.4732 11.5142C52.4696 11.5099 52.466 11.5056 52.4624 11.5013L50.9346 12.792ZM51.9278 13.5566L51.1261 15.389L51.1365 15.3935L51.9278 13.5566ZM42.8272 16V2.91309H38.8272V16H42.8272ZM40.8272 4.91309H44.2022V0.913086H40.8272V4.91309ZM42.2022 2.91309V7.69434H46.2022V2.91309H42.2022ZM44.2022 9.69434H46.7246V5.69434H44.2022V9.69434ZM48.6899 8.06555C48.9116 6.89163 49.4007 6.10443 50.097 5.55028L47.6062 2.42042C46.0643 3.64753 45.1353 5.33298 44.7594 7.32312L48.6899 8.06555ZM50.102 5.54629C50.7929 4.99282 51.7569 4.64062 53.1582 4.64062V0.640625C51.0557 0.640625 49.1486 1.18492 47.6012 2.42441L50.102 5.54629ZM53.1582 4.64062C54.7971 4.64062 55.8439 5.11091 56.5593 5.85497L59.4427 3.08253C57.8144 1.38909 55.6327 0.640625 53.1582 0.640625V4.64062ZM56.5628 5.85856C57.297 6.61833 57.7676 7.73667 57.7676 9.46094H61.7676C61.7676 6.96645 61.0605 4.75667 59.4392 3.07894L56.5628 5.85856ZM57.7676 9.46094C57.7676 10.2779 57.6515 10.9829 57.4436 11.594L61.2303 12.8826C61.5966 11.8062 61.7676 10.6596 61.7676 9.46094H57.7676ZM57.4449 11.59C57.2416 12.1835 56.9594 12.6458 56.6145 13.0125L59.5282 15.7531C60.2965 14.9362 60.8581 13.9688 61.229 12.8866L57.4449 11.59ZM56.6153 13.0116C56.2546 13.3947 55.8102 13.7013 55.2539 13.927L56.7579 17.6335C57.8188 17.203 58.7514 16.5779 59.5273 15.754L56.6153 13.0116ZM55.2539 13.927C54.7355 14.1374 54.0522 14.2725 53.1582 14.2725V18.2725C54.444 18.2725 55.6591 18.0794 56.7579 17.6335L55.2539 13.927ZM53.1582 14.2725C51.6325 14.2725 50.6168 13.8564 49.9015 13.1953L47.1865 16.1328C48.7915 17.6162 50.8519 18.2725 53.1582 18.2725V14.2725ZM49.9091 13.2024C49.1918 12.5325 48.7029 11.5535 48.5868 10.0537L44.5988 10.3623C44.7757 12.6477 45.5876 14.6394 47.1788 16.1257L49.9091 13.2024ZM46.5928 8.20801H44.2022V12.208H46.5928V8.20801ZM42.2022 10.208V16H46.2022V10.208H42.2022ZM44.2022 14H40.8272V18H44.2022V14ZM56.8954 14.0182C57.3923 13.3924 57.7399 12.68 57.9569 11.9121L54.1076 10.8243C54.02 11.1344 53.8988 11.3595 53.7629 11.5307L56.8954 14.0182ZM57.9584 11.9067C58.1717 11.1437 58.2608 10.3162 58.2608 9.45215H54.2608C54.2608 10.053 54.1975 10.5027 54.1061 10.8297L57.9584 11.9067ZM58.2608 9.45215C58.2608 8.54476 58.1571 7.6728 57.9043 6.87235L54.0899 8.07687C54.1887 8.3897 54.2608 8.8361 54.2608 9.45215H58.2608ZM57.9117 6.89626C57.6871 6.1528 57.3519 5.43861 56.8501 4.8345L53.773 7.39011C53.8455 7.47741 53.9673 7.67142 54.0826 8.05296L57.9117 6.89626ZM56.8501 4.8345C56.3799 4.26833 55.7959 3.80907 55.0958 3.51372L53.541 7.19917C53.5909 7.22023 53.669 7.26487 53.773 7.39011L56.8501 4.8345ZM55.12 3.52413C54.488 3.24763 53.8192 3.11035 53.1319 3.11035V7.11035C53.2766 7.11035 53.3988 7.13714 53.5168 7.18876L55.12 3.52413ZM53.1319 3.11035C52.4652 3.11035 51.8124 3.23375 51.1912 3.49012L52.7171 7.18761C52.8342 7.1393 52.9665 7.11035 53.1319 7.11035V3.11035ZM51.1807 3.49448C50.4866 3.78555 49.9108 4.24256 49.4408 4.78487L52.4636 7.40459C52.6029 7.24377 52.6951 7.19687 52.7276 7.18326L51.1807 3.49448ZM49.447 4.77772C48.9198 5.38025 48.5746 6.11168 48.3404 6.85938L52.1577 8.05468C52.2868 7.64223 52.4103 7.46545 52.4573 7.41174L49.447 4.77772ZM48.3367 6.8716C48.0897 7.67848 47.9854 8.55137 47.9854 9.46094H51.9854C51.9854 8.84707 52.0569 8.38402 52.1615 8.04246L48.3367 6.8716ZM47.9854 9.46094C47.9854 10.3747 48.0837 11.2501 48.3292 12.0457L52.1514 10.8665C52.057 10.5604 51.9854 10.1057 51.9854 9.46094H47.9854ZM48.335 12.0641C48.5678 12.7936 48.9078 13.492 49.4068 14.0827L52.4624 11.5013C52.3872 11.4123 52.2643 11.2201 52.1456 10.848L48.335 12.0641ZM49.396 14.0698C49.8624 14.6314 50.4385 15.0881 51.1261 15.389L52.7294 11.7243C52.667 11.697 52.581 11.644 52.4732 11.5142L49.396 14.0698ZM51.1365 15.3935C51.7717 15.6671 52.4427 15.8027 53.1319 15.8027V11.8027C52.9773 11.8027 52.8456 11.7743 52.719 11.7198L51.1365 15.3935ZM53.1319 15.8027C53.833 15.8027 54.5157 15.6616 55.1596 15.3743L53.5299 11.7214C53.4121 11.7739 53.2862 11.8027 53.1319 11.8027V15.8027ZM55.1596 15.3743C55.8507 15.066 56.4307 14.6015 56.8935 14.0206L53.7648 11.5283C53.6768 11.6387 53.6005 11.6899 53.5299 11.7214L55.1596 15.3743ZM68.1657 11.4473V13.4473C69.2703 13.4473 70.1657 12.5518 70.1657 11.4473H68.1657ZM61.4597 11.4473H59.4597C59.4597 12.5518 60.3551 13.4473 61.4597 13.4473V11.4473ZM61.4597 8.91602V6.91602C60.3551 6.91602 59.4597 7.81145 59.4597 8.91602H61.4597ZM68.1657 8.91602H70.1657C70.1657 7.81145 69.2703 6.91602 68.1657 6.91602V8.91602ZM68.1657 9.44727H61.4597V13.4473H68.1657V9.44727ZM63.4597 11.4473V8.91602H59.4597V11.4473H63.4597ZM61.4597 10.916H68.1657V6.91602H61.4597V10.916ZM66.1657 8.91602V11.4473H70.1657V8.91602H66.1657ZM78.9896 10.2344H80.9896C80.9896 9.12981 80.0942 8.23438 78.9896 8.23438V10.2344ZM74.0062 10.2344V8.23438C72.9017 8.23438 72.0062 9.12981 72.0062 10.2344H74.0062ZM74.0062 16V18C75.1108 18 76.0062 17.1046 76.0062 16H74.0062ZM70.6312 16H68.6312C68.6312 17.1046 69.5267 18 70.6312 18V16ZM70.6312 2.91309V0.913086C69.5267 0.913086 68.6312 1.80852 68.6312 2.91309H70.6312ZM74.0062 2.91309H76.0062C76.0062 1.80852 75.1108 0.913086 74.0062 0.913086V2.91309ZM74.0062 7.70312H72.0062C72.0062 8.80769 72.9017 9.70312 74.0062 9.70312V7.70312ZM78.9896 7.70312V9.70312C80.0942 9.70312 80.9896 8.80769 80.9896 7.70312H78.9896ZM78.9896 2.91309V0.913086C77.8851 0.913086 76.9896 1.80852 76.9896 2.91309H78.9896ZM82.3646 2.91309H84.3646C84.3646 1.80852 83.4692 0.913086 82.3646 0.913086V2.91309ZM82.3646 16V18C83.4692 18 84.3646 17.1046 84.3646 16H82.3646ZM78.9896 16H76.9896C76.9896 17.1046 77.8851 18 78.9896 18V16ZM78.9896 8.23438H74.0062V12.2344H78.9896V8.23438ZM72.0062 10.2344V16H76.0062V10.2344H72.0062ZM74.0062 14H70.6312V18H74.0062V14ZM72.6312 16V2.91309H68.6312V16H72.6312ZM70.6312 4.91309H74.0062V0.913086H70.6312V4.91309ZM72.0062 2.91309V7.70312H76.0062V2.91309H72.0062ZM74.0062 9.70312H78.9896V5.70312H74.0062V9.70312ZM80.9896 7.70312V2.91309H76.9896V7.70312H80.9896ZM78.9896 4.91309H82.3646V0.913086H78.9896V4.91309ZM80.3646 2.91309V16H84.3646V2.91309H80.3646ZM82.3646 14H78.9896V18H82.3646V14ZM80.9896 16V10.2344H76.9896V16H80.9896ZM88.8907 7.70312H86.8907C86.8907 8.80769 87.7861 9.70312 88.8907 9.70312V7.70312ZM94.5596 7.70312H96.5596C96.5596 6.59856 95.6642 5.70312 94.5596 5.70312V7.70312ZM94.5596 10.2344V12.2344C95.6642 12.2344 96.5596 11.3389 96.5596 10.2344H94.5596ZM88.8907 10.2344V8.23438C87.7861 8.23438 86.8907 9.12981 86.8907 10.2344H88.8907ZM88.8907 13.4688H86.8907C86.8907 14.5733 87.7861 15.4688 88.8907 15.4688V13.4688ZM94.9991 13.4688H96.9991C96.9991 12.3642 96.1037 11.4688 94.9991 11.4688V13.4688ZM94.9991 16V18C96.1037 18 96.9991 17.1046 96.9991 16H94.9991ZM85.5333 16H83.5333C83.5333 17.1046 84.4287 18 85.5333 18V16ZM85.5333 2.91309V0.913086C84.4287 0.913086 83.5333 1.80852 83.5333 2.91309H85.5333ZM94.9991 2.91309H96.9991C96.9991 1.80852 96.1037 0.913086 94.9991 0.913086V2.91309ZM94.9991 5.44434V7.44434C96.1037 7.44434 96.9991 6.54891 96.9991 5.44434H94.9991ZM88.8907 5.44434V3.44434C87.7861 3.44434 86.8907 4.33977 86.8907 5.44434H88.8907ZM88.8907 9.70312H94.5596V5.70312H88.8907V9.70312ZM92.5596 7.70312V10.2344H96.5596V7.70312H92.5596ZM94.5596 8.23438H88.8907V12.2344H94.5596V8.23438ZM86.8907 10.2344V13.4688H90.8907V10.2344H86.8907ZM88.8907 15.4688H94.9991V11.4688H88.8907V15.4688ZM92.9991 13.4688V16H96.9991V13.4688H92.9991ZM94.9991 14H85.5333V18H94.9991V14ZM87.5333 16V2.91309H83.5333V16H87.5333ZM85.5333 4.91309H94.9991V0.913086H85.5333V4.91309ZM92.9991 2.91309V5.44434H96.9991V2.91309H92.9991ZM94.9991 3.44434H88.8907V7.44434H94.9991V3.44434ZM86.8907 5.44434V7.70312H90.8907V5.44434H86.8907ZM103.661 11.4473V13.4473C104.765 13.4473 105.661 12.5518 105.661 11.4473H103.661ZM96.9548 11.4473H94.9548C94.9548 12.5518 95.8503 13.4473 96.9548 13.4473V11.4473ZM96.9548 8.91602V6.91602C95.8503 6.91602 94.9548 7.81145 94.9548 8.91602H96.9548ZM103.661 8.91602H105.661C105.661 7.81145 104.765 6.91602 103.661 6.91602V8.91602ZM103.661 9.44727H96.9548V13.4473H103.661V9.44727ZM98.9548 11.4473V8.91602H94.9548V11.4473H98.9548ZM96.9548 10.916H103.661V6.91602H96.9548V10.916ZM101.661 8.91602V11.4473H105.661V8.91602H101.661ZM116.937 13.6885L115.161 12.7691C115.158 12.7746 115.155 12.7801 115.152 12.7857L116.937 13.6885ZM115.891 14.9277L114.705 13.3176C114.7 13.321 114.696 13.3243 114.691 13.3277L115.891 14.9277ZM114.186 15.7539L113.675 13.8202L113.671 13.8214L114.186 15.7539ZM106.126 16H104.126C104.126 17.1046 105.022 18 106.126 18V16ZM106.126 2.91309V0.913086C105.022 0.913086 104.126 1.80852 104.126 2.91309H106.126ZM113.518 3.01855L113.232 4.99798L113.235 4.99845L113.518 3.01855ZM114.977 3.48438L115.88 1.69972L115.871 1.69552L114.977 3.48438ZM116.084 4.50391L114.341 5.48329C114.346 5.49279 114.351 5.50224 114.357 5.51165L116.084 4.50391ZM115.953 7.63281L117.595 8.77437L117.601 8.76503L115.953 7.63281ZM114.538 8.75781L113.729 6.92874C113.005 7.24898 112.538 7.96614 112.538 8.75781H114.538ZM114.538 8.82812H112.538C112.538 9.78248 113.212 10.6039 114.148 10.7898L114.538 8.82812ZM116.568 9.88281L115.106 11.248L115.114 11.2565L116.568 9.88281ZM109.484 8.08105H107.484C107.484 9.18562 108.379 10.0811 109.484 10.0811V8.08105ZM112.261 7.87891L111.452 6.04984C111.443 6.05368 111.435 6.05759 111.426 6.06155L112.261 7.87891ZM112.859 7.36035L114.686 8.17263C114.689 8.16649 114.692 8.16034 114.695 8.15417L112.859 7.36035ZM112.832 5.96289L111.034 6.83782C111.04 6.85078 111.047 6.86368 111.053 6.8765L112.832 5.96289ZM112.261 5.47949L112.976 3.61178L112.973 3.61052L112.261 5.47949ZM111.338 5.33008L111.274 7.32904C111.285 7.32939 111.296 7.32965 111.307 7.32983L111.338 5.33008ZM109.484 5.3125V3.3125C108.379 3.3125 107.484 4.20793 107.484 5.3125H109.484ZM109.484 13.6006H107.484C107.484 14.7052 108.379 15.6006 109.484 15.6006V13.6006ZM112.903 13.3633L112.134 11.5171L112.122 11.5218L112.903 13.3633ZM113.623 12.7832L111.869 11.8226C111.867 11.8276 111.864 11.8326 111.861 11.8376L113.623 12.7832ZM113.58 10.9814L111.935 12.1199C111.946 12.136 111.958 12.152 111.969 12.1678L113.58 10.9814ZM112.762 10.4717L112.207 12.3931L112.209 12.3936L112.762 10.4717ZM109.484 10.3398V8.33984C108.379 8.33984 107.484 9.23527 107.484 10.3398H109.484ZM115.324 11.9922C115.324 12.3465 115.254 12.5899 115.161 12.7691L118.713 14.6079C119.136 13.791 119.324 12.9035 119.324 11.9922H115.324ZM115.152 12.7857C115.04 13.007 114.896 13.1769 114.705 13.3176L117.077 16.5378C117.777 16.0223 118.33 15.366 118.722 14.5913L115.152 12.7857ZM114.691 13.3277C114.381 13.5604 114.046 13.7222 113.675 13.8202L114.697 17.6876C115.568 17.4575 116.37 17.0685 117.091 16.5277L114.691 13.3277ZM113.671 13.8214C113.284 13.9245 112.691 14 111.839 14V18C112.886 18 113.857 17.9114 114.701 17.6864L113.671 13.8214ZM111.839 14H106.126V18H111.839V14ZM108.126 16V2.91309H104.126V16H108.126ZM106.126 4.91309H111.206V0.913086H106.126V4.91309ZM111.206 4.91309C112.248 4.91309 112.897 4.94956 113.232 4.99797L113.804 1.03914C113.166 0.946925 112.274 0.913086 111.206 0.913086V4.91309ZM113.235 4.99845C113.498 5.03601 113.779 5.1214 114.083 5.27323L115.871 1.69552C115.214 1.36688 114.522 1.14172 113.801 1.03866L113.235 4.99845ZM114.074 5.26901C114.269 5.36735 114.321 5.44754 114.341 5.48329L117.828 3.52452C117.368 2.70481 116.682 2.10531 115.88 1.69974L114.074 5.26901ZM114.357 5.51165C114.405 5.59334 114.454 5.72133 114.454 5.9541H118.454C118.454 5.09703 118.257 4.25822 117.812 3.49616L114.357 5.51165ZM114.454 5.9541C114.454 6.21356 114.392 6.37208 114.304 6.5006L117.601 8.76503C118.181 7.92089 118.454 6.96026 118.454 5.9541H114.454ZM114.31 6.49127C114.214 6.63045 114.05 6.78658 113.729 6.92874L115.347 10.5869C116.244 10.19 117.024 9.59611 117.595 8.77435L114.31 6.49127ZM112.538 8.75781V8.82812H116.538V8.75781H112.538ZM114.148 10.7898C114.675 10.8944 114.947 11.0771 115.106 11.248L118.029 8.5176C117.193 7.62213 116.111 7.10166 114.927 6.86645L114.148 10.7898ZM115.114 11.2565C115.202 11.3496 115.324 11.5267 115.324 11.9922H119.324C119.324 10.7115 118.941 9.48243 118.021 8.5091L115.114 11.2565ZM109.484 10.0811H110.011V6.08105H109.484V10.0811ZM110.011 10.0811C110.564 10.0811 111.051 10.072 111.467 10.0525L111.28 6.05688C110.946 6.07253 110.525 6.08105 110.011 6.08105V10.0811ZM111.467 10.0525C111.968 10.029 112.551 9.94664 113.096 9.69626L111.426 6.06155C111.492 6.03126 111.521 6.02924 111.488 6.03565C111.458 6.04171 111.391 6.05166 111.28 6.05688L111.467 10.0525ZM113.07 9.70798C113.63 9.46043 114.317 9.00294 114.686 8.17263L111.031 6.54807C111.213 6.13964 111.502 6.02785 111.452 6.04984L113.07 9.70798ZM114.695 8.15417C114.915 7.64369 114.999 7.11638 114.999 6.61328H110.999C110.999 6.64313 110.997 6.65095 110.999 6.64101C111.001 6.63038 111.007 6.60365 111.023 6.56653L114.695 8.15417ZM114.999 6.61328C114.999 6.0411 114.85 5.51326 114.612 5.04928L111.053 6.8765C111.038 6.84612 110.999 6.75187 110.999 6.61328H114.999ZM114.631 5.08796C114.256 4.31778 113.614 3.8561 112.976 3.61178L111.546 7.34721C111.511 7.3338 111.423 7.29464 111.319 7.20622C111.209 7.11348 111.107 6.98831 111.034 6.83782L114.631 5.08796ZM112.973 3.61052C112.441 3.40797 111.886 3.33851 111.37 3.33033L111.307 7.32983C111.412 7.3315 111.483 7.33914 111.526 7.34612C111.57 7.35315 111.574 7.35776 111.549 7.34847L112.973 3.61052ZM111.403 3.33112C111.007 3.31836 110.469 3.3125 109.8 3.3125V7.3125C110.455 7.3125 110.943 7.31836 111.274 7.32904L111.403 3.33112ZM109.8 3.3125H109.484V7.3125H109.8V3.3125ZM107.484 5.3125V8.08105H111.484V5.3125H107.484ZM109.484 15.6006H109.73V11.6006H109.484V15.6006ZM109.73 15.6006C110.68 15.6006 111.372 15.5977 111.798 15.5916L111.74 11.592C111.346 11.5976 110.679 11.6006 109.73 11.6006V15.6006ZM111.798 15.5916C112.442 15.5824 113.078 15.4611 113.683 15.2048L112.122 11.5218C112.036 11.5584 111.916 11.5895 111.74 11.592L111.798 15.5916ZM113.672 15.2094C114.282 14.9553 114.967 14.5091 115.386 13.7288L111.861 11.8376C112.022 11.5378 112.227 11.4783 112.134 11.5171L113.672 15.2094ZM115.378 13.7438C115.693 13.1673 115.826 12.5481 115.826 11.9395H111.826C111.826 11.9553 111.824 11.9473 111.83 11.9217C111.837 11.8951 111.849 11.86 111.869 11.8226L115.378 13.7438ZM115.826 11.9395C115.826 11.3004 115.706 10.4956 115.19 9.79505L111.969 12.1678C111.873 12.0371 111.838 11.9276 111.827 11.8855C111.817 11.8468 111.826 11.8577 111.826 11.9395H115.826ZM115.224 9.84303C114.708 9.09768 113.952 8.73299 113.315 8.54973L112.209 12.3936C112.267 12.4104 112.253 12.4138 112.198 12.3796C112.139 12.3425 112.034 12.262 111.935 12.1199L115.224 9.84303ZM113.317 8.55025C112.803 8.40183 112.235 8.3556 111.698 8.34879L111.647 12.3485C111.828 12.3508 111.967 12.3598 112.068 12.3712C112.172 12.3829 112.212 12.3946 112.207 12.3931L113.317 8.55025ZM111.698 8.34879C111.226 8.34282 110.734 8.33984 110.222 8.33984V12.3398C110.718 12.3398 111.193 12.3427 111.647 12.3485L111.698 8.34879ZM110.222 8.33984H109.484V12.3398H110.222V8.33984ZM107.484 10.3398V13.6006H111.484V10.3398H107.484ZM123.015 7.70312H121.015C121.015 8.80769 121.91 9.70312 123.015 9.70312V7.70312ZM128.684 7.70312H130.684C130.684 6.59856 129.788 5.70312 128.684 5.70312V7.70312ZM128.684 10.2344V12.2344C129.788 12.2344 130.684 11.3389 130.684 10.2344H128.684ZM123.015 10.2344V8.23438C121.91 8.23438 121.015 9.12981 121.015 10.2344H123.015ZM123.015 13.4688H121.015C121.015 14.5733 121.91 15.4688 123.015 15.4688V13.4688ZM129.123 13.4688H131.123C131.123 12.3642 130.228 11.4688 129.123 11.4688V13.4688ZM129.123 16V18C130.228 18 131.123 17.1046 131.123 16H129.123ZM119.657 16H117.657C117.657 17.1046 118.553 18 119.657 18V16ZM119.657 2.91309V0.913086C118.553 0.913086 117.657 1.80852 117.657 2.91309H119.657ZM129.123 2.91309H131.123C131.123 1.80852 130.228 0.913086 129.123 0.913086V2.91309ZM129.123 5.44434V7.44434C130.228 7.44434 131.123 6.54891 131.123 5.44434H129.123ZM123.015 5.44434V3.44434C121.91 3.44434 121.015 4.33977 121.015 5.44434H123.015ZM123.015 9.70312H128.684V5.70312H123.015V9.70312ZM126.684 7.70312V10.2344H130.684V7.70312H126.684ZM128.684 8.23438H123.015V12.2344H128.684V8.23438ZM121.015 10.2344V13.4688H125.015V10.2344H121.015ZM123.015 15.4688H129.123V11.4688H123.015V15.4688ZM127.123 13.4688V16H131.123V13.4688H127.123ZM129.123 14H119.657V18H129.123V14ZM121.657 16V2.91309H117.657V16H121.657ZM119.657 4.91309H129.123V0.913086H119.657V4.91309ZM127.123 2.91309V5.44434H131.123V2.91309H127.123ZM129.123 3.44434H123.015V7.44434H129.123V3.44434ZM121.015 5.44434V7.70312H125.015V5.44434H121.015ZM131.782 16H129.782C129.782 17.1046 130.677 18 131.782 18V16ZM131.782 2.91309V0.913086C130.677 0.913086 129.782 1.80852 129.782 2.91309H131.782ZM139.437 3.13281L138.938 5.06952C138.946 5.07153 138.954 5.07349 138.962 5.07541L139.437 3.13281ZM140.958 3.77441L142.054 2.10178L142.052 2.10008L140.958 3.77441ZM142.162 5.10156L140.381 6.01144C140.383 6.01654 140.386 6.02162 140.389 6.02669L142.162 5.10156ZM142.276 8.7666L144.153 9.45802L144.155 9.45166L142.276 8.7666ZM141.397 10.1729L142.803 11.5951L142.811 11.5871L141.397 10.1729ZM139.648 11.3418L138.891 9.49069L138.885 9.49314L139.648 11.3418ZM135.157 11.7373V9.7373C134.052 9.7373 133.157 10.6327 133.157 11.7373H135.157ZM135.157 16V18C136.262 18 137.157 17.1046 137.157 16H135.157ZM135.157 9.27637H133.157C133.157 10.3809 134.052 11.2764 135.157 11.2764V9.27637ZM137.539 9.1709L137.17 7.20515L137.165 7.20622L137.539 9.1709ZM138.479 8.74902L139.763 10.2825C139.771 10.2757 139.78 10.2687 139.788 10.2618L138.479 8.74902ZM138.945 8.08105L137.074 7.37425C137.071 7.38201 137.068 7.38978 137.066 7.39757L138.945 8.08105ZM138.796 6.17383L137.187 7.36261C137.192 7.36826 137.196 7.37389 137.2 7.37949L138.796 6.17383ZM137.073 5.38281L136.968 7.38005C136.98 7.38066 136.991 7.38117 137.003 7.38158L137.073 5.38281ZM135.157 5.35645V3.35645C134.052 3.35645 133.157 4.25188 133.157 5.35645H135.157ZM133.782 16V2.91309H129.782V16H133.782ZM131.782 4.91309H137.337V0.913086H131.782V4.91309ZM137.337 4.91309C138.064 4.91309 138.585 4.97848 138.938 5.06952L139.936 1.1961C139.153 0.994172 138.273 0.913086 137.337 0.913086V4.91309ZM138.962 5.07541C139.343 5.16894 139.636 5.29994 139.864 5.44875L142.052 2.10008C141.401 1.67467 140.68 1.37793 139.913 1.19022L138.962 5.07541ZM139.861 5.44704C140.111 5.61053 140.27 5.79493 140.381 6.01144L143.943 4.19168C143.503 3.33007 142.86 2.6297 142.054 2.10179L139.861 5.44704ZM140.389 6.02669C140.489 6.21898 140.584 6.53333 140.584 7.04395H144.584C144.584 6.04284 144.397 5.06227 143.935 4.17643L140.389 6.02669ZM140.584 7.04395C140.584 7.39108 140.524 7.7337 140.397 8.08154L144.155 9.45166C144.439 8.6745 144.584 7.86868 144.584 7.04395H140.584ZM140.399 8.07519C140.284 8.38807 140.139 8.60238 139.983 8.75864L142.811 11.5871C143.417 10.9816 143.858 10.2584 144.153 9.45801L140.399 8.07519ZM139.991 8.75067C139.646 9.09216 139.28 9.33136 138.891 9.4907L140.406 13.1929C141.305 12.8249 142.106 12.2848 142.803 11.595L139.991 8.75067ZM138.885 9.49314C138.562 9.62654 138.044 9.7373 137.258 9.7373V13.7373C138.381 13.7373 139.457 13.5844 140.411 13.1904L138.885 9.49314ZM137.258 9.7373H135.157V13.7373H137.258V9.7373ZM133.157 11.7373V16H137.157V11.7373H133.157ZM135.157 14H131.782V18H135.157V14ZM135.157 11.2764H136.124V7.27637H135.157V11.2764ZM136.124 11.2764C136.765 11.2764 137.374 11.2382 137.913 11.1356L137.165 7.20622C136.965 7.24419 136.631 7.27637 136.124 7.27637V11.2764ZM137.907 11.1366C138.565 11.0134 139.209 10.7469 139.763 10.2825L137.195 7.21551C137.205 7.20719 137.215 7.20055 137.223 7.19558C137.231 7.19064 137.236 7.1883 137.237 7.1879C137.239 7.18699 137.22 7.19591 137.17 7.20515L137.907 11.1366ZM139.788 10.2618C140.25 9.86148 140.609 9.35758 140.825 8.76454L137.066 7.39757C137.077 7.36498 137.095 7.33005 137.118 7.29738C137.14 7.2651 137.161 7.24512 137.171 7.2363L139.788 10.2618ZM140.816 8.78786C141.024 8.23733 141.095 7.66437 141.095 7.12305H137.095C137.095 7.33172 137.065 7.39744 137.074 7.37425L140.816 8.78786ZM141.095 7.12305C141.095 6.3723 140.884 5.61947 140.391 4.96816L137.2 7.37949C137.161 7.32824 137.131 7.26846 137.112 7.20946C137.094 7.15278 137.095 7.11947 137.095 7.12305H141.095ZM140.404 4.98505C140.024 4.47123 139.511 4.02102 138.844 3.75437L137.359 7.46828C137.295 7.44293 137.246 7.41143 137.214 7.38509C137.183 7.36003 137.176 7.34718 137.187 7.36261L140.404 4.98505ZM138.844 3.75437C138.306 3.53929 137.736 3.40486 137.143 3.38404L137.003 7.38158C137.078 7.38421 137.193 7.40212 137.359 7.46828L138.844 3.75437ZM137.178 3.38558C136.794 3.36535 136.309 3.35645 135.737 3.35645V7.35645C136.278 7.35645 136.684 7.36512 136.968 7.38005L137.178 3.38558ZM135.737 3.35645H135.157V7.35645H135.737V3.35645ZM133.157 5.35645V9.27637H137.157V5.35645H133.157ZM144.803 16H142.803C142.803 17.1046 143.699 18 144.803 18V16ZM144.803 2.91309V0.913086C143.699 0.913086 142.803 1.80852 142.803 2.91309H144.803ZM148.178 2.91309H150.178C150.178 1.80852 149.283 0.913086 148.178 0.913086V2.91309ZM148.178 7.69434H146.178C146.178 8.79891 147.074 9.69434 148.178 9.69434V7.69434ZM150.701 7.69434V9.69434C151.662 9.69434 152.487 9.01026 152.666 8.06555L150.701 7.69434ZM152.828 3.98535L154.073 5.55029L154.078 5.54629L152.828 3.98535ZM161.977 4.46875L160.535 5.85497L160.539 5.85856L161.977 4.46875ZM163.313 12.2383L165.205 12.8866L165.206 12.8826L163.313 12.2383ZM162.047 14.3828L163.503 15.754L163.504 15.7531L162.047 14.3828ZM152.52 14.6641L151.155 16.1257L151.163 16.1328L152.52 14.6641ZM150.569 10.208L152.563 10.0537C152.482 9.01208 151.614 8.20801 150.569 8.20801V10.208ZM148.178 10.208V8.20801C147.074 8.20801 146.178 9.10344 146.178 10.208H148.178ZM148.178 16V18C149.283 18 150.178 17.1046 150.178 16H148.178ZM159.305 12.7744L160.869 14.0206L160.871 14.0182L159.305 12.7744ZM160.008 11.3682L161.933 11.9121L161.934 11.9067L160.008 11.3682ZM159.973 7.47461L158.059 8.05296C158.061 8.06095 158.063 8.06892 158.066 8.07687L159.973 7.47461ZM158.294 5.35645L157.493 7.18876C157.501 7.19228 157.509 7.19576 157.517 7.19917L158.294 5.35645ZM155.93 5.33887L155.167 3.49009L155.157 3.49448L155.93 5.33887ZM154.928 6.09473L156.433 7.41175L156.44 7.40459L154.928 6.09473ZM154.225 7.45703L152.316 6.85937L152.313 6.8716L154.225 7.45703ZM154.216 11.4561L152.305 12.0457C152.307 12.0518 152.309 12.058 152.311 12.0641L154.216 11.4561ZM154.911 12.792L156.449 11.5142C156.446 11.5099 156.442 11.5056 156.438 11.5013L154.911 12.792ZM155.904 13.5566L155.102 15.389L155.113 15.3935L155.904 13.5566ZM146.803 16V2.91309H142.803V16H146.803ZM144.803 4.91309H148.178V0.913086H144.803V4.91309ZM146.178 2.91309V7.69434H150.178V2.91309H146.178ZM148.178 9.69434H150.701V5.69434H148.178V9.69434ZM152.666 8.06555C152.888 6.89163 153.377 6.10443 154.073 5.55028L151.582 2.42042C150.04 3.64753 149.111 5.33298 148.735 7.32312L152.666 8.06555ZM154.078 5.54629C154.769 4.99282 155.733 4.64062 157.134 4.64062V0.640625C155.032 0.640625 153.125 1.18492 151.577 2.42441L154.078 5.54629ZM157.134 4.64062C158.773 4.64062 159.82 5.11091 160.535 5.85497L163.419 3.08253C161.79 1.38909 159.609 0.640625 157.134 0.640625V4.64062ZM160.539 5.85856C161.273 6.61833 161.744 7.73667 161.744 9.46094H165.744C165.744 6.96645 165.037 4.75667 163.415 3.07894L160.539 5.85856ZM161.744 9.46094C161.744 10.2779 161.628 10.9829 161.42 11.594L165.206 12.8826C165.573 11.8062 165.744 10.6596 165.744 9.46094H161.744ZM161.421 11.59C161.218 12.1835 160.935 12.6458 160.591 13.0125L163.504 15.7531C164.273 14.9362 164.834 13.9688 165.205 12.8866L161.421 11.59ZM160.591 13.0116C160.231 13.3947 159.786 13.7013 159.23 13.927L160.734 17.6335C161.795 17.203 162.727 16.5779 163.503 15.754L160.591 13.0116ZM159.23 13.927C158.712 14.1374 158.028 14.2725 157.134 14.2725V18.2725C158.42 18.2725 159.635 18.0794 160.734 17.6335L159.23 13.927ZM157.134 14.2725C155.609 14.2725 154.593 13.8564 153.877 13.1953L151.163 16.1328C152.768 17.6162 154.828 18.2725 157.134 18.2725V14.2725ZM153.885 13.2024C153.168 12.5325 152.679 11.5535 152.563 10.0537L148.575 10.3623C148.752 12.6477 149.564 14.6394 151.155 16.1257L153.885 13.2024ZM150.569 8.20801H148.178V12.208H150.569V8.20801ZM146.178 10.208V16H150.178V10.208H146.178ZM148.178 14H144.803V18H148.178V14ZM160.871 14.0182C161.368 13.3924 161.716 12.68 161.933 11.9121L158.084 10.8243C157.996 11.1344 157.875 11.3595 157.739 11.5307L160.871 14.0182ZM161.934 11.9067C162.148 11.1437 162.237 10.3162 162.237 9.45215H158.237C158.237 10.053 158.174 10.5027 158.082 10.8297L161.934 11.9067ZM162.237 9.45215C162.237 8.54476 162.133 7.6728 161.88 6.87235L158.066 8.07687C158.165 8.3897 158.237 8.8361 158.237 9.45215H162.237ZM161.888 6.89626C161.663 6.1528 161.328 5.43861 160.826 4.8345L157.749 7.39011C157.822 7.47741 157.943 7.67142 158.059 8.05296L161.888 6.89626ZM160.826 4.8345C160.356 4.26833 159.772 3.80907 159.072 3.51372L157.517 7.19917C157.567 7.22023 157.645 7.26487 157.749 7.39011L160.826 4.8345ZM159.096 3.52413C158.464 3.24763 157.795 3.11035 157.108 3.11035V7.11035C157.253 7.11035 157.375 7.13714 157.493 7.18876L159.096 3.52413ZM157.108 3.11035C156.441 3.11035 155.788 3.23375 155.167 3.49012L156.693 7.18761C156.81 7.1393 156.943 7.11035 157.108 7.11035V3.11035ZM155.157 3.49448C154.463 3.78555 153.887 4.24256 153.417 4.78487L156.44 7.40459C156.579 7.24377 156.671 7.19687 156.704 7.18326L155.157 3.49448ZM153.423 4.77772C152.896 5.38025 152.551 6.11168 152.316 6.85938L156.134 8.05468C156.263 7.64223 156.386 7.46545 156.433 7.41174L153.423 4.77772ZM152.313 6.8716C152.066 7.67848 151.961 8.55137 151.961 9.46094H155.961C155.961 8.84707 156.033 8.38402 156.137 8.04246L152.313 6.8716ZM151.961 9.46094C151.961 10.3747 152.06 11.2501 152.305 12.0457L156.127 10.8665C156.033 10.5604 155.961 10.1057 155.961 9.46094H151.961ZM152.311 12.0641C152.544 12.7936 152.884 13.492 153.383 14.0827L156.438 11.5013C156.363 11.4123 156.24 11.2201 156.122 10.848L152.311 12.0641ZM153.372 14.0698C153.838 14.6314 154.415 15.0881 155.102 15.389L156.705 11.7243C156.643 11.697 156.557 11.644 156.449 11.5142L153.372 14.0698ZM155.113 15.3935C155.748 15.6671 156.419 15.8027 157.108 15.8027V11.8027C156.953 11.8027 156.822 11.7743 156.695 11.7198L155.113 15.3935ZM157.108 15.8027C157.809 15.8027 158.492 15.6616 159.136 15.3743L157.506 11.7214C157.388 11.7739 157.262 11.8027 157.108 11.8027V15.8027ZM159.136 15.3743C159.827 15.066 160.407 14.6015 160.869 14.0206L157.741 11.5283C157.653 11.6387 157.577 11.6899 157.506 11.7214L159.136 15.3743Z" fill="black" mask="url(#path-1-outside-1_247_11057)"/>
</svg>
