<svg width="73" height="18" viewBox="0 0 73 18" fill="none" xmlns="http://www.w3.org/2000/svg">
<path d="M70.7129 11.0791C70.7129 11.7119 70.584 12.2773 70.3262 12.7754C70.0742 13.2734 69.7256 13.6865 69.2803 14.0146C68.7646 14.4014 68.1963 14.6768 67.5752 14.8408C66.96 15.0049 66.1777 15.0869 65.2285 15.0869H59.5156V2H64.5957C65.6504 2 66.4209 2.03516 66.9072 2.10547C67.3994 2.17578 67.8857 2.33105 68.3662 2.57129C68.8643 2.82324 69.2334 3.16309 69.4736 3.59082C69.7197 4.0127 69.8428 4.49609 69.8428 5.04102C69.8428 5.67383 69.6758 6.2334 69.3418 6.71973C69.0078 7.2002 68.5361 7.5752 67.9268 7.84473V7.91504C68.7822 8.08496 69.459 8.43652 69.957 8.96973C70.4609 9.50293 70.7129 10.2061 70.7129 11.0791ZM66.3887 5.7002C66.3887 5.4834 66.333 5.2666 66.2217 5.0498C66.1162 4.83301 65.9258 4.67188 65.6504 4.56641C65.4043 4.47266 65.0967 4.42285 64.7275 4.41699C64.3643 4.40527 63.8516 4.39941 63.1895 4.39941H62.873V7.16797H63.4004C63.9336 7.16797 64.3877 7.15918 64.7627 7.1416C65.1377 7.12402 65.4336 7.06543 65.6504 6.96582C65.9551 6.83105 66.1543 6.6582 66.248 6.44727C66.3418 6.23047 66.3887 5.98145 66.3887 5.7002ZM67.2148 11.0264C67.2148 10.6104 67.1328 10.291 66.9688 10.0684C66.8105 9.83984 66.5381 9.66992 66.1514 9.55859C65.8877 9.48242 65.5244 9.44141 65.0615 9.43555C64.5986 9.42969 64.1152 9.42676 63.6113 9.42676H62.873V12.6875H63.1191C64.0684 12.6875 64.748 12.6846 65.1582 12.6787C65.5684 12.6729 65.9463 12.5967 66.292 12.4502C66.6436 12.3037 66.8838 12.1104 67.0127 11.8701C67.1475 11.624 67.2148 11.3428 67.2148 11.0264Z" fill="white"/>
<path d="M56.4082 15.0869H53.1211V6.37695L47.6895 15.0869H44.4727V2H47.7598V9.88379L52.8135 2H56.4082V15.0869Z" fill="white"/>
<path d="M42.7734 15.0869H38.8711L36.0498 10.7803L33.1758 15.0869H29.4492L34.0898 8.49512L29.5459 2H33.4395L36.1641 6.07812L38.9678 2H42.7031L38.1328 8.36328L42.7734 15.0869Z" fill="white"/>
<path d="M28.6885 6.13086C28.6885 6.7168 28.5859 7.29102 28.3809 7.85352C28.1758 8.41016 27.8828 8.87891 27.502 9.25977C26.9805 9.77539 26.3975 10.165 25.7529 10.4287C25.1143 10.6924 24.3174 10.8242 23.3623 10.8242H21.2617V15.0869H17.8867V2H23.4414C24.2734 2 24.9736 2.07324 25.542 2.21973C26.1162 2.36035 26.623 2.57422 27.0625 2.86133C27.5898 3.20703 27.9912 3.64941 28.2666 4.18848C28.5479 4.72754 28.6885 5.375 28.6885 6.13086ZM25.1992 6.20996C25.1992 5.84082 25.0996 5.52441 24.9004 5.26074C24.7012 4.99121 24.4697 4.80371 24.2061 4.69824C23.8545 4.55762 23.5117 4.48145 23.1777 4.46973C22.8438 4.45215 22.3984 4.44336 21.8418 4.44336H21.2617V8.36328H22.2285C22.8027 8.36328 23.2744 8.32812 23.6436 8.25781C24.0186 8.1875 24.332 8.04688 24.584 7.83594C24.8008 7.64844 24.9561 7.42578 25.0498 7.16797C25.1494 6.9043 25.1992 6.58496 25.1992 6.20996Z" fill="white"/>
<path d="M16.1855 15.0869H12.6963L11.791 12.4414H6.93945L6.03418 15.0869H2.63281L7.4668 2H11.3516L16.1855 15.0869ZM10.9736 10.042L9.36523 5.34863L7.75684 10.042H10.9736Z" fill="white"/>
<path fill-rule="evenodd" clip-rule="evenodd" d="M67.0127 11.8701C67.1475 11.624 67.2148 11.3428 67.2148 11.0264C67.2148 10.6104 67.1328 10.291 66.9688 10.0684C66.8105 9.83984 66.5381 9.66992 66.1514 9.55859C65.8877 9.48242 65.5244 9.44141 65.0615 9.43555C64.9991 9.43476 64.9362 9.43402 64.873 9.43334C64.4678 9.42895 64.0472 9.42676 63.6113 9.42676H62.873V12.6875H63.1191C63.8744 12.6875 64.4591 12.6856 64.873 12.6819C64.9793 12.681 65.0744 12.6799 65.1582 12.6787C65.5684 12.6729 65.9463 12.5967 66.292 12.4502C66.6436 12.3037 66.8838 12.1104 67.0127 11.8701ZM69.9446 8.95647C69.9487 8.96088 69.9529 8.96529 69.957 8.96973C70.4609 9.50293 70.7129 10.2061 70.7129 11.0791C70.7129 11.7119 70.584 12.2773 70.3262 12.7754C70.0742 13.2734 69.7256 13.6865 69.2803 14.0146C68.7646 14.4014 68.1963 14.6768 67.5752 14.8408C66.96 15.0049 66.1777 15.0869 65.2285 15.0869H59.5156V2H64.5957C65.6504 2 66.4209 2.03516 66.9072 2.10547C67.3994 2.17578 67.8857 2.33105 68.3662 2.57129C68.8643 2.82324 69.2334 3.16309 69.4736 3.59082C69.7197 4.0127 69.8428 4.49609 69.8428 5.04102C69.8428 5.51102 69.7507 5.94063 69.5664 6.32982C69.5026 6.46464 69.4277 6.59461 69.3418 6.71973C69.0106 7.19616 68.544 7.56889 67.9421 7.83792C67.937 7.84019 67.9319 7.84246 67.9268 7.84473V7.91504C67.9382 7.91731 67.9496 7.91961 67.9609 7.92194C68.7932 8.09292 69.4544 8.43777 69.9446 8.95647ZM64.7275 4.41699C64.7772 4.41778 64.8257 4.41936 64.873 4.42174C65.1783 4.43703 65.4374 4.48526 65.6504 4.56641C65.9258 4.67188 66.1162 4.83301 66.2217 5.0498C66.333 5.2666 66.3887 5.4834 66.3887 5.7002C66.3887 5.98145 66.3418 6.23047 66.248 6.44727C66.1543 6.6582 65.9551 6.83105 65.6504 6.96582C65.4553 7.05545 65.1962 7.11187 64.873 7.13508C64.8371 7.13767 64.8003 7.13984 64.7627 7.1416C64.3877 7.15918 63.9336 7.16797 63.4004 7.16797H62.873V4.39941H63.1895C63.8516 4.39941 64.3643 4.40527 64.7275 4.41699ZM71.415 7.60061C71.3607 7.5426 71.3053 7.48617 71.249 7.43128C71.6516 6.69424 71.8428 5.88359 71.8428 5.04102C71.8428 4.18931 71.6482 3.35564 71.2095 2.5974C70.7492 1.78487 70.0662 1.18991 69.269 0.786634L69.2606 0.782435C68.6044 0.454299 67.9136 0.22933 67.1934 0.12605C66.5556 0.033839 65.6634 0 64.5957 0H59.5156C58.4111 0 57.5156 0.895431 57.5156 2V15.0869C57.5156 16.1915 58.4111 17.0869 59.5156 17.0869H65.2285C66.2748 17.0869 67.2456 16.9984 68.089 16.7737C68.956 16.5443 69.7549 16.1573 70.4732 15.6199C71.1675 15.1068 71.7165 14.4549 72.1069 13.6859C72.5266 12.8714 72.7129 11.987 72.7129 11.0791C72.7129 9.80048 72.3316 8.57321 71.415 7.60061Z" fill="black"/>
<path fill-rule="evenodd" clip-rule="evenodd" d="M58.4082 15.0869C58.4082 16.1915 57.5128 17.0869 56.4082 17.0869H53.1211C52.0165 17.0869 51.1211 16.1915 51.1211 15.0869V13.3637L49.3865 16.1452C49.0212 16.7309 48.3797 17.0869 47.6895 17.0869H44.4727C43.3681 17.0869 42.4727 16.1915 42.4727 15.0869H42.7718L42.4727 14.6535V2.3186L42.7015 2H42.4727C42.4727 0.895431 43.3681 0 44.4727 0H47.7598C48.8643 0 49.7598 0.895431 49.7598 2V3.05779L51.1297 0.920668C51.4975 0.34697 52.132 0 52.8135 0H56.4082C57.5128 0 58.4082 0.895431 58.4082 2V15.0869ZM47.7598 9.88379V2H44.4727V15.0869H47.6895L53.1211 6.37695V15.0869H56.4082V2H52.8135L47.7598 9.88379Z" fill="black"/>
<path fill-rule="evenodd" clip-rule="evenodd" d="M44.5443 16.0164C44.1989 16.6746 43.5168 17.0869 42.7734 17.0869H38.8711C38.1967 17.0869 37.5677 16.747 37.1981 16.1829L36.0344 14.4064L34.8394 16.1971C34.4684 16.753 33.8442 17.0869 33.1758 17.0869H29.4492C28.7025 17.0869 28.018 16.6709 27.674 16.0082C27.3301 15.3454 27.384 14.5462 27.8138 13.9356L31.6465 8.49151L27.9071 3.14648C27.4797 2.5355 27.4276 1.73747 27.7721 1.07614C28.1165 0.414806 28.8003 0 29.5459 0H33.4395C34.1075 0 34.7314 0.333503 35.1025 0.888946L36.1878 2.5134L37.3197 0.866942C37.6928 0.324234 38.3092 0 38.9678 0H42.7031C43.4532 0 44.1403 0.419734 44.4827 1.08716C44.6303 1.37504 44.7032 1.68812 44.7031 2H44.4743V2.92905C44.4314 3.01088 44.3824 3.09032 44.3276 3.16672L40.5788 8.3862L44.4195 13.9508C44.4385 13.9784 44.4568 14.0064 44.4743 14.0347V15.0869H44.7734C44.7735 15.4051 44.6977 15.7243 44.5443 16.0164ZM38.1328 8.36328L42.7031 2H38.9678L36.1641 6.07812L33.4395 2H29.5459L34.0899 8.49512L29.4492 15.0869H33.1758L36.0498 10.7803L38.8711 15.0869H42.7734L38.1328 8.36328Z" fill="black"/>
<path fill-rule="evenodd" clip-rule="evenodd" d="M30.2599 8.53857L30.2576 8.54493C29.9627 9.34533 29.5216 10.0685 28.9162 10.674L28.9082 10.682C28.2113 11.371 27.4115 11.9106 26.5132 12.2786C25.5597 12.6716 24.4847 12.8242 23.3623 12.8242H23.2617V15.0869C23.2617 16.1915 22.3663 17.0869 21.2617 17.0869H17.8867C16.7821 17.0869 15.8867 16.1915 15.8867 15.0869H16.1859L15.8867 14.2771V2C15.8867 0.895431 16.7821 0 17.8867 0H23.4414C24.3732 0 25.2488 0.0802722 26.0293 0.279977C26.7915 0.467842 27.5085 0.763723 28.1564 1.187L28.159 1.1887C28.9619 1.71506 29.6037 2.41286 30.0438 3.27099C30.503 4.15482 30.6885 5.13263 30.6885 6.13086C30.6885 6.9556 30.5432 7.76141 30.2599 8.53857ZM28.2666 4.18848C27.9912 3.64941 27.5898 3.20703 27.0625 2.86133C26.623 2.57422 26.1162 2.36035 25.542 2.21973C24.9736 2.07324 24.2734 2 23.4414 2H17.8867V15.0869H21.2617V10.8242H23.3623C24.3174 10.8242 25.1143 10.6924 25.7529 10.4287C26.3975 10.165 26.9805 9.77539 27.502 9.25977C27.8828 8.87891 28.1758 8.41016 28.3809 7.85352C28.5859 7.29102 28.6885 6.7168 28.6885 6.13086C28.6885 5.375 28.5479 4.72754 28.2666 4.18848ZM23.1777 4.46973C23.2057 4.47071 23.2337 4.47214 23.2617 4.47402C23.5691 4.49464 23.8839 4.56938 24.2061 4.69824C24.4697 4.80371 24.7012 4.99121 24.9004 5.26074C25.0996 5.52441 25.1992 5.84082 25.1992 6.20996C25.1992 6.58496 25.1494 6.9043 25.0498 7.16797C24.9561 7.42578 24.8008 7.64844 24.584 7.83594C24.332 8.04688 24.0186 8.1875 23.6436 8.25781C23.5266 8.28009 23.3993 8.29885 23.2617 8.31407C22.9652 8.34688 22.6208 8.36328 22.2285 8.36328H21.2617V4.44336H21.8418C22.3984 4.44336 22.8438 4.45215 23.1777 4.46973Z" fill="black"/>
<path fill-rule="evenodd" clip-rule="evenodd" d="M17.8266 16.2302C17.4526 16.767 16.8398 17.0869 16.1856 17.0869H12.6963C11.8413 17.0869 11.0808 16.5434 10.804 15.7344L10.3616 14.4414H8.36894L7.92647 15.7344C7.64965 16.5434 6.8892 17.0869 6.03419 17.0869H2.63282C1.97861 17.0869 1.36576 16.767 0.991792 16.2302C0.617829 15.6934 0.530039 15.0076 0.75672 14.3939L5.5907 1.30701C5.88083 0.521576 6.6295 0 7.46681 0H11.3516C12.1889 0 12.9376 0.521576 13.2277 1.30701L17.8864 13.9195V15.0869H18.1856C18.1855 15.4903 18.0635 15.8901 17.8266 16.2302ZM6.93947 12.4414H11.791L12.6963 15.0869H16.1856L11.3516 2H7.46681L2.63282 15.0869H6.03419L6.93947 12.4414ZM9.36525 5.34863L7.75685 10.042H10.9736L9.36525 5.34863Z" fill="black"/>
</svg>
