<svg width="323" height="147" viewBox="0 0 323 147" fill="none" xmlns="http://www.w3.org/2000/svg">
<g filter="url(#filter0_d_1_1987)">
<path d="M16.9862 45.9759L308.76 -0.000749119L306.33 90.7692L14.556 136.746L16.9862 45.9759Z" fill="black"/>
<path d="M16.1037 134.983L18.4523 47.2634L307.213 1.76164L304.864 89.4817L16.1037 134.983Z" stroke="#FBF448" stroke-width="3"/>
</g>
<path d="M266.461 61.2018L266.033 61.2696C265.548 55.8278 264.955 50.3092 264.253 44.7137C263.549 39.0977 263.232 35.3016 263.303 33.3254C263.379 31.3275 263.721 30.2805 264.329 30.1842C264.651 30.1331 265.002 30.4748 265.379 31.2093C265.757 31.9438 266.033 32.8616 266.208 33.9628C266.35 34.8601 266.443 35.8592 266.486 36.9601C266.53 38.0611 266.517 40.5298 266.448 44.3661C266.341 50.7795 266.345 56.3914 266.461 61.2018ZM265.857 64.0881C266.367 64.0073 266.876 64.4284 267.384 65.3514C267.899 66.2731 268.265 67.4172 268.481 68.7834C268.701 70.1701 268.708 71.3813 268.503 72.4172C268.294 73.4327 267.939 73.9802 267.436 74.0598C266.926 74.1406 266.415 73.7303 265.903 72.829C265.395 71.906 265.032 70.7512 264.812 69.3645C264.596 67.9983 264.586 66.7978 264.784 65.7631C264.989 64.7273 265.347 64.1689 265.857 64.0881Z" fill="#FBF448"/>
<path d="M254.637 76.2138C253.407 76.4087 252.304 75.8831 251.33 74.6368C250.356 73.3906 249.49 71.615 248.733 69.3102C247.983 67.0041 247.431 64.7295 247.075 62.4864C246.358 57.9594 246.113 53.3263 246.339 48.5872C246.562 43.8277 247.262 39.9437 248.439 36.9353C249.621 33.9053 250.999 32.2655 252.575 32.016C253.497 31.8698 254.472 32.3635 255.497 33.4971C256.53 34.6295 257.455 36.2912 258.271 38.4822C259.095 40.6721 259.689 42.9191 260.054 45.2234C260.871 50.3826 261.088 55.6578 260.703 61.0491C260.316 66.42 259.552 70.3872 258.412 72.9508C257.546 74.8647 256.288 75.9524 254.637 76.2138ZM252.6 34.583C252.008 34.6769 251.548 35.0528 251.222 35.7107C250.899 36.347 250.621 37.384 250.388 38.8216C250.154 40.2591 250.006 42.2892 249.945 44.9119C249.88 47.5142 249.987 51.03 250.266 55.4592C250.552 59.8873 250.925 63.5593 251.387 66.4754C251.781 68.9632 252.279 70.818 252.88 72.0397C253.478 73.241 254.088 73.7924 254.711 73.6937C255.536 73.563 256.12 72.7076 256.462 71.1275C257.142 67.9888 257.389 63.5076 257.205 57.6837C257.026 51.8383 256.582 46.6827 255.875 42.2168C255.432 39.4231 254.917 37.4352 254.33 36.2531C253.747 35.0494 253.171 34.4927 252.6 34.583Z" fill="#FBF448"/>
<path d="M233.826 55.5536L239.408 54.6695L238.81 42.8806C238.724 41.2639 238.614 40.0375 238.481 39.2014C238.352 38.3857 238.152 37.7798 237.882 37.3836C237.612 36.9875 237.079 36.7793 236.283 36.7589L236.228 35.6075L243.813 34.4061L243.869 35.5575C243.126 35.6751 242.631 36.1925 242.384 37.1096C242.137 38.0266 242.079 39.7709 242.209 42.3423L243.578 69.3418C243.665 71.1049 243.768 72.3636 243.888 73.1181C244.007 73.8726 244.199 74.4276 244.463 74.7829C244.81 75.2715 245.331 75.4816 246.028 75.413L246.095 76.5626L238.656 77.7408L238.645 76.5823C239.365 76.4683 239.835 76.0072 240.053 75.1993C240.275 74.3697 240.317 72.5967 240.179 69.8802L239.539 57.314L233.979 58.1946L234.631 70.7589C234.712 72.4812 234.816 73.7501 234.946 74.5658C235.062 75.2999 235.27 75.8837 235.569 76.317C235.873 76.7288 236.365 76.9016 237.047 76.8355L237.114 77.985L229.776 79.1472L229.72 77.9959C230.441 77.8818 230.906 77.4214 231.117 76.6146C231.332 75.7862 231.37 74.0138 231.232 71.2973L229.863 44.2977C229.786 42.7421 229.678 41.5259 229.539 40.6491C229.407 39.813 229.205 39.1969 228.935 38.8007C228.672 38.4034 228.154 38.1928 227.381 38.1689L227.326 37.0175L234.787 35.8357L234.798 36.9942C234.107 37.1035 233.651 37.594 233.427 38.4655C233.2 39.3166 233.149 41.0807 233.273 43.7576L233.826 55.5536Z" fill="#FBF448"/>
<path d="M214.011 39.1258L226.289 37.1811L226.898 48.5293L226.493 48.5935C226.415 47.9997 226.34 47.4785 226.269 47.0299C225.933 44.9091 225.444 43.3038 224.802 42.214C224.157 41.1037 223.278 40.5532 222.164 40.5624L223.712 72.331C223.799 74.0941 223.908 75.3936 224.041 76.2297C224.163 77.0046 224.378 77.6081 224.685 78.0403C224.989 78.4521 225.5 78.6219 226.219 78.5498L226.297 79.6976L218.723 80.8972L218.679 79.7441C219.452 79.6217 219.953 79.1451 220.183 78.3144C220.41 77.4632 220.453 75.6482 220.313 72.8694L218.765 41.1007C217.611 41.388 216.742 42.2364 216.157 43.6459C215.573 45.0554 215.192 47.3106 215.014 50.4116L214.575 50.4812L214.011 39.1258Z" fill="#FBF448"/>
<path d="M211.869 38.4946L212.832 51.8563L212.393 51.9258C211.772 48.3451 211.022 45.7254 210.144 44.0668C209.271 42.3866 208.353 41.6225 207.393 41.7746C206.358 41.9386 205.517 43.3051 204.87 45.8742C204.223 48.4433 203.936 52.2619 204.008 57.33C204.066 61.4387 204.406 65.4507 205.026 69.366C205.581 72.8734 206.321 75.5051 207.245 77.2609C208.174 78.9952 209.189 79.775 210.292 79.6003C211.185 79.4589 211.915 78.7997 212.483 77.6229C213.05 76.4461 213.52 74.6053 213.892 72.1006L214.432 72.015C214.103 75.9553 213.583 78.7656 212.872 80.4459C212.169 82.125 211.131 83.0733 209.758 83.2908C207.92 83.582 206.199 82.3076 204.595 79.4679C202.996 76.6065 201.811 72.739 201.039 67.8653C200.315 63.2975 200.072 58.8731 200.309 54.5921C200.543 50.2908 201.295 46.7331 202.564 43.9191C203.838 41.0835 205.304 39.5344 206.962 39.2718C207.592 39.1719 208.435 39.4148 209.489 40.0004C210.027 40.2914 210.39 40.422 210.578 40.3923C210.953 40.3329 211.244 39.7223 211.453 38.5605L211.869 38.4946Z" fill="#FBF448"/>
<path d="M189.567 45.3486L190.416 61.707L190.934 61.625C192.299 61.4088 193.216 60.7619 193.684 59.6844C194.159 58.6058 194.417 56.7881 194.458 54.2314L194.875 54.1654L195.722 70.5868L195.328 70.6492C195.224 69.5577 195.119 68.6755 195.013 68.0026C194.835 66.881 194.566 65.983 194.205 65.3085C193.852 64.6328 193.456 64.1729 193.018 63.9288C192.73 63.7653 192.185 63.7471 191.382 63.8743L190.504 64.0133L191.246 78.1626C191.312 79.4063 191.392 80.3239 191.486 80.9152C191.56 81.3842 191.702 81.7484 191.912 82.0078C192.217 82.3776 192.703 82.5096 193.371 82.4038C194.654 82.2006 195.746 81.2752 196.646 79.6275C197.543 77.9595 198.205 75.5553 198.63 72.4151L199.092 72.342L199.307 83.9721L186.252 86.0398L186.208 84.8867C186.973 84.7655 187.471 84.2895 187.701 83.4587C187.927 82.6076 187.972 80.8238 187.834 78.1073L186.474 50.9494C186.396 49.4358 186.289 48.2508 186.153 47.3943C186.031 46.6195 185.836 46.0441 185.568 45.6684C185.298 45.2722 184.791 45.0598 184.048 45.0312L183.993 43.8798L196.159 41.9529L196.822 52.4773L196.417 52.5415C196.064 50.507 195.72 49.0878 195.385 48.2838C194.863 47.0286 194.293 46.147 193.674 45.6388C193.059 45.109 192.167 44.9368 190.996 45.1222L189.567 45.3486Z" fill="#FBF448"/>
<path d="M175.247 45.2657L182.81 44.0679L182.877 45.2174C182.328 45.3462 181.932 45.6388 181.689 46.0954C181.45 46.5303 181.295 47.297 181.223 48.3955C181.158 49.4927 181.195 51.3264 181.333 53.8966L182.599 78.2787C182.716 80.4759 182.841 81.9925 182.973 82.8286C183.125 83.787 183.345 84.4211 183.632 84.7309C183.916 85.0204 184.399 85.132 185.081 85.0658L185.137 86.2172L177.742 87.3883L177.687 86.2369C178.528 86.0619 179.025 85.4816 179.176 84.496C179.332 83.4888 179.323 81.2954 179.149 77.9157L178.602 67.2475C177.057 70.0215 175.568 71.522 174.135 71.749C173.264 71.8869 172.394 71.4185 171.524 70.3439C170.651 69.2489 170.028 67.5289 169.657 65.1838C169.486 64.103 169.344 62.5264 169.231 60.4539L168.913 54.2959C168.811 52.2426 168.7 50.8387 168.581 50.0842C168.329 48.4936 167.688 47.7276 166.659 47.7861L166.604 46.6347L173.762 45.501L173.817 46.6524C173.01 46.9474 172.523 47.5889 172.357 48.5768C172.19 49.5648 172.201 51.8416 172.389 55.4072L172.602 59.4496C172.733 61.8327 172.883 63.5545 173.051 64.6149C173.419 66.9396 174.192 68.0086 175.37 67.822C176.218 67.6878 177.244 66.5428 178.449 64.3871L177.916 54.0301C177.78 51.5223 177.649 49.8707 177.523 49.0755C177.368 48.0966 177.124 47.4037 176.79 46.9967C176.464 46.5885 175.968 46.3953 175.303 46.4171L175.247 45.2657Z" fill="#FBF448"/>
<path d="M152.574 51.208L153.422 67.5664L153.94 67.4844C155.306 67.2681 156.222 66.6213 156.69 65.5438C157.165 64.4652 157.423 62.6475 157.465 60.0907L157.881 60.0248L158.728 76.4462L158.334 76.5086C158.231 75.4171 158.126 74.5349 158.019 73.862C157.841 72.7404 157.572 71.8424 157.212 71.1679C156.858 70.4922 156.463 70.0323 156.024 69.7882C155.737 69.6247 155.191 69.6065 154.389 69.7337L153.511 69.8727L154.252 84.022C154.318 85.2657 154.398 86.1832 154.492 86.7746C154.566 87.2436 154.708 87.6078 154.919 87.8671C155.223 88.237 155.71 88.369 156.377 88.2632C157.66 88.06 158.752 87.1346 159.653 85.4869C160.55 83.8189 161.211 81.4147 161.637 78.2745L162.098 78.2014L162.313 89.8315L149.258 91.8992L149.214 90.7461C149.979 90.6248 150.477 90.1489 150.707 89.3181C150.934 88.467 150.978 86.6832 150.84 83.9666L149.48 56.8088C149.402 55.2952 149.295 54.1102 149.16 53.2537C149.037 52.4788 148.842 51.9035 148.575 51.5277C148.304 51.1316 147.798 50.9192 147.055 50.8905L146.999 49.7392L159.165 47.8123L159.829 58.3367L159.423 58.4008C159.07 56.3664 158.726 54.9472 158.391 54.1432C157.87 52.888 157.299 52.0063 156.68 51.4982C156.066 50.9684 155.173 50.7962 154.003 50.9816L152.574 51.208Z" fill="#FBF448"/>
<path d="M133.56 51.868L145.839 49.9233L146.448 61.2715L146.043 61.3357C145.964 60.7419 145.889 60.2207 145.818 59.7721C145.482 57.6513 144.993 56.046 144.351 54.9562C143.706 53.8459 142.827 53.2954 141.713 53.3046L143.261 85.0732C143.348 86.8363 143.458 88.1358 143.59 88.9719C143.713 89.7468 143.928 90.3503 144.234 90.7825C144.538 91.1943 145.049 91.3641 145.769 91.292L145.847 92.4398L138.272 93.6394L138.228 92.4863C139.001 92.3639 139.502 91.8873 139.732 91.0566C139.959 90.2054 140.002 88.3904 139.862 85.6115L138.315 53.8429C137.16 54.1302 136.291 54.9786 135.707 56.3881C135.122 57.7976 134.741 60.0528 134.563 63.1538L134.124 63.2233L133.56 51.868Z" fill="#FBF448"/>
<path d="M119.633 43.9156C119.511 43.1407 119.498 42.5051 119.597 42.0087C119.702 41.5112 119.883 41.2422 120.138 41.2018C120.656 41.1198 121.208 42.0566 121.794 44.0123C122.195 45.3284 122.552 46.244 122.864 46.7589C123.181 47.2523 123.583 47.4603 124.07 47.3831C124.581 47.3023 124.927 46.9652 125.11 46.3718C125.3 45.7773 125.406 44.7676 125.426 43.343C125.45 41.3534 125.746 40.3135 126.317 40.2232C126.564 40.184 126.806 40.3756 127.042 40.7981C127.278 41.2206 127.442 41.7173 127.532 42.2883C127.771 43.7973 127.607 45.2865 127.04 46.756C126.48 48.2243 125.555 49.0606 124.265 49.265C122.989 49.467 121.952 48.9624 121.152 47.7512C120.35 46.5196 119.843 45.2411 119.633 43.9156ZM124.658 53.2789L132.007 52.1149L132.063 53.2662C131.556 53.3674 131.188 53.6451 130.96 54.0993C130.732 54.5535 130.589 55.2764 130.531 56.2681C130.477 57.2383 130.524 59.1853 130.671 62.1093L131.966 86.236C132.086 88.4955 132.203 89.9924 132.32 90.7265C132.588 92.419 133.297 93.2056 134.447 93.0861L134.514 94.2357L127.108 95.4086L127.053 94.2572C127.803 94.1384 128.279 93.5718 128.48 92.5576C128.68 91.5433 128.686 89.2011 128.497 85.5312L127.411 64.7579L123.105 89.5834C123.164 90.682 123.243 91.5474 123.344 92.1795C123.618 93.9128 124.333 94.688 125.489 94.505L125.555 95.6546L118.206 96.8186L118.151 95.6672C118.863 95.5543 119.325 94.9481 119.535 93.8487C119.746 92.7493 119.765 90.5619 119.592 87.2865L118.333 63.311C118.192 60.5741 118.068 58.8692 117.961 58.1963C117.858 57.5437 117.676 56.9768 117.415 56.4955C117.154 56.0142 116.627 55.7946 115.834 55.8366L115.778 54.6853L123.184 53.5124L123.239 54.6637C122.436 54.7909 121.944 55.4438 121.761 56.6224C121.583 57.7794 121.584 60.1413 121.764 63.7082L122.825 84.172L127.13 59.3465C127.066 58.3114 126.991 57.5186 126.904 56.968C126.607 55.092 125.88 54.2454 124.725 54.4284L124.658 53.2789Z" fill="#FBF448"/>
<path d="M111.274 84.2141L106.547 84.9628L106.106 88.2937L105.582 91.9824C105.492 92.7702 105.446 93.4777 105.445 94.1049C105.445 94.5858 105.482 95.0607 105.556 95.5298C105.633 96.0192 105.8 96.4631 106.055 96.8617C106.315 97.2386 106.671 97.4226 107.123 97.4137L107.302 98.5454L102.744 99.2673L102.678 98.1178C103.054 97.8701 103.353 97.4256 103.574 96.7843C103.865 95.9021 104.203 94.1241 104.587 91.4503L109.845 54.6529L110.352 54.5726L115.223 88.6055C115.481 90.3832 115.64 91.4556 115.698 91.8226C115.917 93.2093 116.179 94.2026 116.481 94.8027C116.791 95.4016 117.195 95.714 117.691 95.7399L117.758 96.8895L111.151 97.9358L111.096 96.7844C111.723 96.5179 112.075 96.3158 112.154 96.178C112.319 95.8592 112.416 95.2375 112.447 94.3129C112.474 93.368 112.329 91.771 112.011 89.5219L111.274 84.2141ZM110.877 81.7059L109.028 68.1397L106.926 82.3316L110.877 81.7059Z" fill="#FBF448"/>
<path d="M87.0152 59.2407L93.0475 58.2853C94.3905 58.0725 95.3816 58.1142 96.0207 58.4101C96.856 58.7795 97.593 59.6452 98.2318 61.0073C98.8748 62.3478 99.3384 63.9153 99.6226 65.7098C99.8552 67.178 99.9275 68.703 99.8396 70.2847C99.7517 71.8664 99.4568 73.2091 98.9548 74.3129C98.457 75.3951 97.5954 76.4618 96.3698 77.5129C97.9515 78.3703 99.1503 79.6019 99.966 81.2076C100.782 82.8134 101.367 84.7379 101.723 86.981C102.055 89.0814 102.115 91.2041 101.901 93.3493C101.683 95.4741 101.204 97.0864 100.463 98.1862C99.7189 99.2656 98.1576 99.9937 95.7791 100.37L89.4317 101.376L89.3987 100.221C90.014 100.123 90.4287 99.9009 90.6428 99.5535C90.8645 99.2048 91.004 98.7019 91.0615 98.0448C91.1232 97.3661 91.1013 95.9899 90.9959 93.9163L89.6791 67.9745C89.5465 65.3408 89.4107 63.5855 89.2719 62.7086C89.1588 61.9949 88.9526 61.4213 88.6532 60.988C88.3614 60.5534 87.8376 60.3542 87.0819 60.3903L87.0152 59.2407ZM93.3722 77.0157C94.3862 76.8133 95.1195 76.2477 95.5723 75.3189C96.0327 74.389 96.2889 72.9478 96.3412 70.9955C96.3978 69.0216 96.292 67.1884 96.0239 65.4959C95.772 63.9053 95.3831 62.6395 94.8572 61.6986C94.3313 60.7576 93.7639 60.3562 93.1552 60.4944L92.5459 60.6537L93.3722 77.0157ZM93.4655 79.3525L94.4398 98.1055C94.8214 98.0868 95.106 98.0627 95.2936 98.033C96.9667 97.768 97.9294 96.3195 98.1817 93.6875C98.4307 91.0351 98.3259 88.2611 97.8673 85.3654C97.6477 83.9787 97.3263 82.7754 96.9033 81.7555C96.4845 80.7139 96.044 80.0207 95.5817 79.6758C95.1163 79.3106 94.4108 79.2028 93.4655 79.3525Z" fill="#FBF448"/>
<path d="M82.3262 88.7981L77.5994 89.5468L77.1579 92.8777L76.6346 96.5664C76.544 97.3542 76.4984 98.0617 76.4977 98.6889C76.497 99.1698 76.5338 99.6447 76.6081 100.114C76.6856 100.603 76.852 101.047 77.1074 101.446C77.3671 101.823 77.7231 102.007 78.1755 101.998L78.3547 103.129L73.7967 103.851L73.73 102.702C74.1061 102.454 74.4049 102.01 74.6263 101.368C74.9173 100.486 75.2548 98.7081 75.6389 96.0343L80.8975 59.2368L81.404 59.1566L86.2751 93.1895C86.5336 94.9672 86.6919 96.0396 86.75 96.4066C86.9697 97.7933 87.2308 98.7866 87.5335 99.3867C87.8437 99.9856 88.247 100.298 88.7433 100.324L88.81 101.473L82.2037 102.52L82.1483 101.368C82.7752 101.102 83.1277 100.9 83.2059 100.762C83.3707 100.443 83.4684 99.8215 83.4989 98.8969C83.5261 97.952 83.3808 96.3549 83.0631 94.1059L82.3262 88.7981ZM81.929 86.2899L80.0802 72.7237L77.9787 86.9156L81.929 86.2899Z" fill="#FBF448"/>
<path d="M58.0084 63.8351L70.8609 61.7994L70.9277 62.949C70.0498 63.0881 69.5223 63.7151 69.3451 64.8302C69.1647 65.9248 69.1863 68.5866 69.41 72.8155L70.6075 95.672C70.7161 97.766 70.8495 99.3127 71.0078 100.312C71.1757 101.372 71.3959 102.059 71.6684 102.371C71.9452 102.661 72.4202 102.795 73.0933 102.772L73.7923 116.144L73.3646 116.212C73.2662 114.911 73.1168 113.628 72.9166 112.364C72.5096 109.794 71.9702 107.821 71.2982 106.443C70.6369 105.084 69.7548 104.492 68.6519 104.667L64.2627 105.362C63.1522 105.538 62.2987 105.976 61.7021 106.677C61.1055 107.378 60.6235 108.656 60.256 110.512C59.881 112.369 59.6212 115.002 59.4767 118.412L59.0603 118.478L58.3501 105.107C58.8903 105.022 59.3311 104.576 59.6725 103.769C60.0182 102.941 60.3493 101.195 60.6659 98.5321C60.9824 95.8691 61.1757 92.3789 61.2456 88.0617C61.3124 83.7241 61.2592 79.625 61.0861 75.7643C60.9098 71.8833 60.707 69.2189 60.4777 67.771C60.2775 66.5067 60.0116 65.7022 59.6801 65.3576C59.3529 64.9913 58.8142 64.8676 58.0639 64.9864L58.0084 63.8351ZM61.5118 65.6319L61.9468 74.0602C62.0305 75.6566 62.103 78.2267 62.1643 81.7706C62.2332 85.3133 62.1858 88.9475 62.0222 92.6734C61.8586 96.3992 61.5915 100.006 61.2208 103.492L65.6438 102.792C66.5891 102.642 67.1163 102.256 67.2252 101.632C67.3416 101.008 67.3151 99.0677 67.1456 95.8127L65.5408 64.9937L61.5118 65.6319Z" fill="#FBF448"/>
<defs>
<filter id="filter0_d_1_1987" x="7.73412" y="0" width="301.026" height="146.692" filterUnits="userSpaceOnUse" color-interpolation-filters="sRGB">
<feFlood flood-opacity="0" result="BackgroundImageFix"/>
<feColorMatrix in="SourceAlpha" type="matrix" values="0 0 0 0 0 0 0 0 0 0 0 0 0 0 0 0 0 0 127 0" result="hardAlpha"/>
<feOffset dx="-6.82203" dy="9.9456"/>
<feComposite in2="hardAlpha" operator="out"/>
<feColorMatrix type="matrix" values="0 0 0 0 0 0 0 0 0 0 0 0 0 0 0 0 0 0 1 0"/>
<feBlend mode="normal" in2="BackgroundImageFix" result="effect1_dropShadow_1_1987"/>
<feBlend mode="normal" in="SourceGraphic" in2="effect1_dropShadow_1_1987" result="shape"/>
</filter>
</defs>
</svg>
