<svg width="295" height="172" viewBox="0 0 295 172" fill="none" xmlns="http://www.w3.org/2000/svg">
<g filter="url(#filter0_d_1_1746)">
<ellipse cx="147.539" cy="85.7678" rx="137.742" ry="57.9965" transform="rotate(-12.1871 147.539 85.7678)" fill="black"/>
<path d="M280.71 57.0065C282.292 64.3285 280.308 72.1927 275.103 80.2254C269.894 88.2648 261.516 96.3714 250.539 104.064C228.59 119.444 196.498 132.993 159.466 140.991C122.434 148.989 87.6106 149.892 61.2704 144.94C48.0971 142.464 37.1206 138.537 29.0577 133.364C21.0015 128.196 15.9491 121.851 14.3677 114.529C12.7864 107.207 14.7701 99.3429 19.9752 91.3102C25.1846 83.2708 33.5622 75.1642 44.5394 67.4719C66.4884 52.0912 98.5802 38.5424 135.612 30.5445C172.645 22.5466 207.467 21.6437 233.808 26.5952C246.981 29.0717 257.958 32.9984 266.02 38.1713C274.077 43.34 279.129 49.6845 280.71 57.0065Z" stroke="#FBF448" stroke-width="3"/>
</g>
<path d="M197.456 93.1143H196.88C196.819 90.2933 196.618 86.8783 196.278 82.8695L195.597 74.7776C195.187 69.9275 194.982 66.4507 194.982 64.3473C194.982 62.4419 195.183 60.9076 195.584 59.7446C195.986 58.5815 196.509 58 197.155 58C197.783 58 198.302 58.5939 198.712 59.7817C199.13 60.9447 199.34 62.4295 199.34 64.2359C199.34 66.1166 199.122 69.6305 198.686 74.7776L197.992 82.8695C197.748 85.74 197.569 89.155 197.456 93.1143ZM197.181 98.4223C197.765 98.4223 198.262 99.0162 198.672 100.204C199.091 101.367 199.301 102.79 199.301 104.473C199.301 106.131 199.091 107.553 198.672 108.741C198.262 109.904 197.765 110.486 197.181 110.486C196.596 110.486 196.095 109.904 195.676 108.741C195.266 107.553 195.061 106.131 195.061 104.473C195.061 102.815 195.266 101.392 195.676 100.204C196.086 99.0162 196.588 98.4223 197.181 98.4223Z" fill="#FBF448"/>
<path d="M186.687 86.544H185.522L179.804 109.483H174.217V108.11C174.688 108.036 175.102 107.615 175.46 106.848C175.695 106.304 176.092 104.93 176.651 102.728L180.916 85.6903C179.835 84.9231 178.993 83.7725 178.391 82.2382C177.449 79.8131 176.978 76.7446 176.978 73.0328C176.978 69.989 177.292 67.3412 177.92 65.0894C178.548 62.8128 179.359 61.2538 180.354 60.4124C181.348 59.5711 182.918 59.1504 185.064 59.1504H193.308V60.5238C192.497 60.5238 191.943 60.7341 191.646 61.1548C191.35 61.5755 191.14 62.1446 191.018 62.8623C190.905 63.5551 190.848 65.2626 190.848 67.9846V100.649C190.848 103.371 190.905 105.079 191.018 105.771C191.14 106.464 191.345 107.033 191.633 107.479C191.93 107.9 192.488 108.11 193.308 108.11V109.483H184.227V108.11C185.038 108.11 185.592 107.9 185.889 107.479C186.185 107.058 186.39 106.501 186.504 105.809C186.626 105.091 186.687 103.371 186.687 100.649V86.544ZM186.687 61.8601H185.287C183.882 61.8601 182.862 62.7756 182.225 64.6068C181.597 66.438 181.283 69.2714 181.283 73.107C181.283 75.7548 181.453 77.9077 181.793 79.5657C182.142 81.1989 182.617 82.3372 183.219 82.9806C183.821 83.5992 184.729 83.9086 185.941 83.9086H186.687V61.8601Z" fill="#FBF448"/>
<path d="M166.748 82.0155H169.09C171.62 82.0155 173.456 83.2775 174.599 85.8016C175.742 88.3257 176.313 91.6911 176.313 95.8979C176.313 98.7684 176.021 101.243 175.436 103.322C174.861 105.4 174.132 106.947 173.251 107.961C172.379 108.976 171.101 109.483 169.417 109.483H159.904V108.11C161.003 108.06 161.706 107.652 162.011 106.885C162.325 106.093 162.482 104.386 162.482 101.763V68.3187C162.482 64.7553 162.351 62.5777 162.09 61.7858C161.837 60.994 161.156 60.5733 160.048 60.5238V59.1504H169.182V60.5238C168.344 60.5485 167.786 60.7712 167.507 61.1919C167.236 61.6126 167.04 62.1323 166.918 62.7509C166.805 63.3695 166.748 64.9038 166.748 67.3536V82.0155ZM166.748 85.2819V100.463C166.748 102.864 166.866 104.559 167.101 105.549C167.337 106.514 167.773 106.996 168.41 106.996C169.43 106.996 170.198 106.019 170.713 104.064C171.236 102.109 171.498 99.6716 171.498 96.7516C171.498 93.9306 171.262 91.5674 170.791 89.662C170.32 87.7318 169.792 86.5192 169.208 86.0243C168.632 85.5294 167.812 85.2819 166.748 85.2819Z" fill="#FBF448"/>
<path d="M147.905 73.4785V58H148.389C148.485 59.7817 148.725 60.6725 149.108 60.6725C149.283 60.6725 149.588 60.4251 150.024 59.9302C151.185 58.6434 152.293 58 153.348 58C155.163 58 156.563 59.2744 157.548 61.8232C158.543 64.372 159.04 67.3044 159.04 70.6204C159.04 72.1793 158.914 73.7631 158.661 75.3715C158.416 76.9553 157.998 78.4029 157.404 79.7144C156.82 81.0012 155.878 82.1271 154.578 83.0922C156.471 83.9831 157.801 85.7153 158.569 88.2888C159.337 90.8377 159.721 93.5844 159.721 96.5292C159.721 99.078 159.454 101.478 158.922 103.73C158.399 105.957 157.636 107.665 156.632 108.853C155.638 110.04 154.377 110.634 152.851 110.634C151.377 110.634 150.208 110.065 149.344 108.927C148.489 107.789 147.721 105.92 147.041 103.322L147.591 101.763C148.803 105.475 150.077 107.331 151.411 107.331C152.511 107.331 153.374 106.329 154.002 104.324C154.639 102.295 154.958 99.6595 154.958 96.4178C154.958 93.9433 154.757 91.8028 154.356 89.9963C153.954 88.1651 153.47 86.9649 152.903 86.3958C152.336 85.8019 151.494 85.4678 150.378 85.3936V82.1271C150.683 82.1519 150.936 82.1643 151.137 82.1643C152.358 82.1643 153.222 81.2116 153.728 79.3061C154.242 77.376 154.5 74.5673 154.5 70.8802C154.5 67.3663 154.238 64.8546 153.714 63.3451C153.191 61.8109 152.572 61.0437 151.856 61.0437C150.888 61.0437 150.099 62.1325 149.488 64.3102C148.886 66.4631 148.55 69.5192 148.48 73.4785H147.905Z" fill="#FBF448"/>
<path d="M141.89 59.1504H147.831V60.5238C147.22 60.6723 146.718 61.3033 146.326 62.4168C145.942 63.5304 145.44 65.8194 144.821 69.2838L139.299 100.018C138.436 104.819 137.685 107.788 137.049 108.927C136.42 110.065 135.67 110.634 134.798 110.634C133.847 110.634 133.127 109.904 132.639 108.444C132.159 106.984 131.919 105.351 131.919 103.544C131.919 102.084 132.089 100.884 132.429 99.9438C132.778 98.9787 133.201 98.4962 133.699 98.4962C134.17 98.4962 134.514 98.8426 134.732 99.5355C134.951 100.228 135.103 101.478 135.19 103.285C135.295 105.413 135.605 106.477 136.119 106.477C136.73 106.477 137.315 104.819 137.873 101.503L138.122 100.018L131.775 67.3165C131.234 64.5697 130.763 62.788 130.362 61.9714C129.969 61.1548 129.394 60.6723 128.635 60.5238V59.1504H137.48V60.5238H137.14C136.111 60.5238 135.596 61.2167 135.596 62.6024C135.596 63.1221 135.692 63.8892 135.884 64.9038L140.32 87.8431L143.683 69.0611C144.145 66.4875 144.376 64.644 144.376 63.5304C144.376 62.689 144.241 61.9962 143.971 61.4517C143.7 60.9073 143.007 60.598 141.89 60.5238V59.1504Z" fill="#FBF448"/>
<path d="M121.14 86.6925V100.649C121.14 103.371 121.196 105.091 121.31 105.809C121.432 106.501 121.641 107.058 121.938 107.479C122.243 107.9 122.797 108.11 123.6 108.11V109.483H114.584V108.11C115.404 108.11 115.958 107.9 116.246 107.479C116.542 107.033 116.747 106.464 116.861 105.771C116.983 105.079 117.044 103.371 117.044 100.649V67.9846C117.044 65.2626 116.983 63.5551 116.861 62.8623C116.747 62.1446 116.542 61.5755 116.246 61.1548C115.949 60.7341 115.395 60.5238 114.584 60.5238V59.1504H122.317C124.865 59.1504 126.692 60.4372 127.8 63.0107C128.908 65.5843 129.462 68.8012 129.462 72.6616C129.462 75.928 129.104 78.7243 128.389 81.0504C127.674 83.3765 126.688 84.9602 125.432 85.8016C124.585 86.3955 123.155 86.6925 121.14 86.6925ZM121.14 62.0456V83.7972C121.428 83.8467 121.646 83.8714 121.794 83.8714C122.858 83.8714 123.678 82.9806 124.254 81.1989C124.83 79.3924 125.118 76.6085 125.118 72.8472C125.118 69.1106 124.83 66.3762 124.254 64.644C123.678 62.9117 122.819 62.0456 121.676 62.0456H121.14Z" fill="#FBF448"/>
<path d="M99.9295 59.1504H114.598V60.5238C113.508 60.6228 112.814 61.0806 112.517 61.8972C112.221 62.7138 112.073 64.4707 112.073 67.168V100.798C112.073 102.926 112.129 104.41 112.243 105.252C112.356 106.093 112.605 106.786 112.989 107.33C113.381 107.85 113.918 108.11 114.598 108.11V124.182H114.114C114.009 119.827 113.451 116.288 112.439 113.566C111.427 110.844 110.04 109.483 108.278 109.483H103.449C101.626 109.483 100.161 110.745 99.0528 113.269C97.9536 115.818 97.3168 119.456 97.1424 124.182H96.6582V108.11C98.8129 106.897 100.353 102.777 101.277 95.7494C102.211 88.6969 102.677 79.2687 102.677 67.465C102.677 64.6192 102.503 62.7633 102.154 61.8972C101.814 61.0063 101.072 60.5485 99.9295 60.5238V59.1504ZM108.278 62.4168H103.816V66.7226C103.816 72.7606 103.672 78.6501 103.384 84.3911C103.096 90.1321 102.704 94.6482 102.206 97.9394C101.709 101.206 101.046 103.965 100.217 106.217H106.538C107.392 106.217 107.894 106.056 108.042 105.734C108.199 105.388 108.278 104.299 108.278 102.468V62.4168Z" fill="#FBF448"/>
<defs>
<filter id="filter0_d_1_1746" x="12.3369" y="22.043" width="270.404" height="136.451" filterUnits="userSpaceOnUse" color-interpolation-filters="sRGB">
<feFlood flood-opacity="0" result="BackgroundImageFix"/>
<feColorMatrix in="SourceAlpha" type="matrix" values="0 0 0 0 0 0 0 0 0 0 0 0 0 0 0 0 0 0 127 0" result="hardAlpha"/>
<feOffset dy="9"/>
<feComposite in2="hardAlpha" operator="out"/>
<feColorMatrix type="matrix" values="0 0 0 0 0 0 0 0 0 0 0 0 0 0 0 0 0 0 1 0"/>
<feBlend mode="normal" in2="BackgroundImageFix" result="effect1_dropShadow_1_1746"/>
<feBlend mode="normal" in="SourceGraphic" in2="effect1_dropShadow_1_1746" result="shape"/>
</filter>
</defs>
</svg>
