<svg width="3653" height="769" viewBox="0 0 3653 769" fill="none" xmlns="http://www.w3.org/2000/svg">
<g filter="url(#filter0_d_673_35)">
<mask id="path-1-outside-1_673_35" maskUnits="userSpaceOnUse" x="0.367188" y="-0.544922" width="3634" height="743" fill="black">
<rect fill="white" x="0.367188" y="-0.544922" width="3634" height="743"/>
<path fill-rule="evenodd" clip-rule="evenodd" d="M3448.06 262.56L3522.89 45.4551L3445.11 58.8889L3430.94 95.5146C3422.46 80.7829 3411.13 70.6339 3396.96 65.0677C3383.11 59.4763 3366.14 57.4491 3346.05 58.9862C3312.46 61.5563 3277.62 72.9518 3241.53 93.1727C3195.36 118.737 3158.34 150.98 3130.47 189.901C3102.9 228.591 3090.8 264.331 3094.16 297.122C3096.4 318.982 3106.89 335.534 3125.63 346.779C3144.35 357.817 3165.73 362.416 3189.77 360.577C3214.8 358.662 3239.8 351.656 3264.78 339.561C3299.57 322.765 3336.72 295.085 3376.25 256.519L3368.25 280.513C3362.7 297.566 3360.44 311.145 3361.47 321.25C3362.34 329.705 3366.45 335.834 3373.81 339.635C3381.52 343.618 3392.46 345.068 3406.62 343.984C3427.03 342.422 3448.69 335.153 3471.59 322.177C3494.47 308.995 3516.17 290.811 3536.69 267.625L3519.14 261.486C3499.65 281.89 3483.8 295.574 3471.57 302.538C3464.99 306.366 3459.56 308.444 3455.28 308.772C3451.33 309.074 3447.94 308.398 3445.12 306.744C3441.57 304.521 3439.63 301.76 3439.29 298.46C3439.1 296.604 3439.36 294.298 3440.07 291.541L3448.06 262.56ZM3283.41 98.6972C3305.85 84.5093 3327.61 76.609 3348.69 74.9964C3367.46 73.5601 3382.68 76.3446 3394.35 83.3497C3406.02 90.3549 3412.75 102.622 3414.55 120.152C3419.3 166.553 3395.78 213.975 3344 262.416C3305.25 298.844 3267.93 318.432 3232.03 321.178C3217.54 322.287 3204.29 319.248 3192.27 312.062C3180.23 304.669 3173.49 293.961 3172.05 279.938C3169.2 252.097 3179.01 219.961 3201.5 183.531C3224.31 147.075 3251.62 118.797 3283.41 98.6972ZM2263.34 509.096L896.314 613.698L116.34 673.38L119.51 704.314L899.483 644.633L2237.78 542.229C2239.31 547.39 2243.66 551.733 2250.8 555.259C2258.88 559.628 2268.03 561.423 2278.24 560.642C2295.36 559.331 2315.47 553.116 2338.55 541.997C2343.39 539.712 2348.73 536.81 2354.58 533.292L3594.5 438.416L3591.33 407.481L2404.06 498.329C2415.8 489.155 2428.58 478.719 2442.38 467.022C2509.26 410.359 2565.84 358.433 2612.11 311.245C2658.39 264.056 2689.35 229.367 2705 207.178C2720.62 184.782 2727.6 165.438 2725.93 149.145C2725.28 142.77 2723.51 137.159 2720.61 132.313C2725.9 131.762 2730.8 131.313 2735.3 130.969C2759.01 129.155 2777.24 130.566 2790 135.202C2802.75 139.838 2813.6 148.568 2822.55 161.394C2824.49 164.155 2838.24 189.811 2863.79 238.362C2856.74 250.541 2841.21 270.643 2817.2 298.669C2793.19 326.695 2773.85 345.218 2759.17 354.239C2753.25 358.017 2748.32 360.058 2744.37 360.36C2739.76 360.713 2732.93 358.845 2723.88 354.757C2711.35 349.065 2699.81 346.622 2689.28 347.428C2678.74 348.235 2670.08 351.184 2663.3 356.275C2656.52 361.366 2653.48 367.315 2654.18 374.12C2654.96 381.751 2659.53 387.532 2667.9 391.464C2679.38 396.614 2691.71 398.684 2704.88 397.676C2723.65 396.24 2742.55 389.598 2761.58 377.749C2790.89 359.295 2828.36 320.158 2874.01 260.339C2902.02 319.926 2919.89 353.477 2927.63 360.99C2939.83 373.151 2955.15 378.526 2973.59 377.115C2986.1 376.158 3000.95 370.449 3018.13 359.989C3048.43 341.459 3072.7 319.233 3090.95 293.31L3073.09 289.065C3061.82 305.309 3047.61 318.867 3030.47 329.739C3021.73 335.188 3013.91 338.177 3006.99 338.706C3002.71 339.033 2998.27 337.814 2993.67 335.048C2989.05 332.076 2982.78 322.684 2974.86 306.87L2923.45 203.556C2948.62 170.661 2970.86 148.07 2990.18 135.784C3000.46 129.178 3009.55 125.573 3017.45 124.968C3022.72 124.565 3033.26 125.421 3049.08 127.536C3057.17 128.788 3064.67 129.149 3071.59 128.62C3083.44 127.713 3093.72 124.328 3102.41 118.467C3107.05 115.202 3108.97 109.651 3108.17 101.814C3107.47 95.0089 3102.6 89.562 3093.55 85.4739C3084.84 81.3606 3073.4 79.8457 3059.24 80.9292C3049.69 81.6599 3041.07 83.3588 3033.37 86.0258C3021.2 90.283 3007.34 97.5785 2991.81 107.912C2976.25 118.04 2963.22 128.494 2952.71 139.275L2913.42 183.435C2896.69 152.915 2884.98 134.17 2878.29 127.199C2868.96 117.105 2855.67 107.313 2838.44 97.8241L2711.13 121.871C2709.97 120.996 2708.75 120.167 2707.45 119.383C2696.46 112.534 2683.72 109.663 2669.23 110.772C2657.38 111.679 2647.76 115.013 2640.39 120.773C2633.01 126.534 2629.76 133.642 2630.62 142.097C2631.32 148.903 2635.07 154.747 2641.88 159.63C2648.99 164.282 2657.43 167.274 2667.19 168.605C2677.26 169.705 2683.52 170.889 2685.98 172.156C2688.43 173.423 2689.77 175.191 2690 177.46C2690.36 180.966 2689.72 184.444 2688.09 187.895C2685.14 194.771 2676.45 207.076 2662 224.809C2638.09 253.866 2617.89 276.924 2601.38 293.983C2567.14 329.027 2540.9 354.73 2522.66 371.09L2485.33 220.556C2477.92 190.362 2471.55 170.273 2466.21 160.289C2460.86 150.099 2451.97 139.452 2439.54 128.347L2297.1 161.694L2302.72 172.8C2320.37 170.202 2332.66 168.638 2339.57 168.109C2361.31 166.446 2377.14 168.768 2387.08 175.074C2397.02 181.38 2405.95 200.546 2413.88 232.571L2461.64 426.577C2447.8 440.523 2426.11 458.81 2396.57 481.439C2386.95 488.758 2377.8 495.279 2369.11 501.003L2303.29 506.04C2302.64 505.688 2302.03 505.422 2301.43 505.243C2296.96 503.714 2291.43 503.202 2284.85 503.706C2277.18 504.292 2270.01 506.089 2263.34 509.096ZM1842.58 174.03L1792.66 318.457C1817.95 283.475 1839.8 256.966 1858.19 238.93C1886.86 210.964 1915.42 190.073 1943.87 176.256C1960.65 168.322 1978.58 163.623 1997.68 162.162C2014.15 160.902 2028.15 163.156 2039.7 168.924C2051.24 174.692 2057.54 182.731 2058.6 193.043C2059.63 203.148 2057.2 216.636 2051.29 233.508L2024.27 314.764C2071.5 247.758 2117.86 199.732 2163.34 170.687C2188.57 154.622 2214.2 145.595 2240.22 143.604C2255.36 142.445 2268.05 144.8 2278.28 150.668C2288.81 156.305 2294.77 165.93 2296.17 179.541C2297.39 191.502 2295.73 204.412 2291.18 218.27L2249.17 342.762C2240 369.86 2235.56 384.853 2235.86 387.74C2236.15 390.627 2237.89 392.988 2241.06 394.824C2243.19 396.116 2245.9 396.637 2249.19 396.385C2252.48 396.133 2258.04 393.733 2265.88 389.184C2283.72 378.674 2300.11 365.365 2315.05 349.256L2332.02 354.505C2324.63 363.384 2311.14 375.848 2291.54 391.897C2272.28 407.92 2255.5 419.077 2241.21 425.366C2226.92 431.656 2213.51 435.28 2201 436.237C2189.48 437.119 2179.51 435.388 2171.1 431.043C2163.02 426.673 2158.61 420.879 2157.87 413.661C2156.85 403.762 2161.56 383.344 2172 352.408L2206.78 249.67C2214.64 225.997 2218.77 212.898 2219.18 210.373C2219.76 206.379 2219.87 202.526 2219.49 198.814C2218.96 193.658 2216.74 189.776 2212.82 187.166C2208.57 184.581 2203.98 183.477 2199.04 183.855C2185.21 184.914 2171.01 190.469 2156.44 200.521C2113.68 230.189 2074.96 270.148 2040.28 320.398C2017.46 353.529 1997.18 395.299 1979.44 445.708L1904.86 451.415L1970.15 257.8C1977.3 236.884 1980.52 223.023 1979.82 216.217C1979.25 210.649 1977.02 206.663 1973.12 204.259C1969.23 201.856 1964.64 200.855 1959.37 201.258C1948.51 202.09 1937.24 205.447 1925.56 211.328C1906.62 220.883 1882.87 240.056 1854.29 268.847C1826.04 297.613 1804.59 324.715 1789.94 350.154C1782.87 362.127 1767 400.025 1742.35 463.85L1669.24 469.444L1740.08 261.997L1749.27 235.106C1751.18 231.011 1752.04 228.035 1751.84 226.179C1751.38 221.642 1747.67 217.873 1740.73 214.871C1733.76 211.663 1725.18 210.449 1714.97 211.23C1710.69 211.558 1698.96 213.702 1679.78 217.664L1674.16 206.558L1842.58 174.03ZM1642.47 196.821L1351.53 219.083L1347.79 231.216C1389.48 229.897 1410.99 235.837 1412.35 249.036C1413.21 257.491 1402.16 290.553 1379.2 348.22C1356.23 405.888 1339.37 440.537 1328.62 452.168C1318.19 463.774 1308.04 469.955 1298.16 470.711C1292.56 471.139 1286.12 469.865 1278.85 466.888C1267.41 462.152 1256.75 460.161 1246.87 460.917C1244.13 461.127 1241.54 461.488 1239.12 461.998C1253.06 453.355 1267.05 443.809 1281.08 433.359L1269.78 425.182C1228.78 449.312 1197.56 465.314 1176.13 473.189C1155.01 480.833 1132.6 485.562 1108.89 487.376C1079.25 489.644 1053.4 485.178 1031.35 473.98C1009.27 462.575 997.29 447.695 995.409 429.341C994.712 422.535 994.988 413.889 996.236 403.401C1062.6 393.543 1113.79 382.975 1149.8 371.697C1204.17 354.859 1244.63 335.135 1271.18 312.526C1291.31 295.19 1300.5 277.963 1298.75 260.846C1297.5 248.679 1288.02 238.804 1270.32 231.221C1252.62 223.638 1226.31 221.182 1191.41 223.853C1143 227.557 1096.83 240.132 1052.89 261.576C1008.94 282.814 973.46 310.678 946.461 345.168C919.461 379.658 907.536 412.266 910.684 442.995C913.03 465.886 927.359 485.886 953.671 502.994C957.738 505.638 962.065 508.034 966.651 510.182C948.54 509.403 934.685 506.386 925.086 501.131C912.758 494.176 894.216 476.785 869.46 448.957L794.541 363.966L787.789 356.376C774.776 339.497 760.298 329.382 744.356 326.029C775.664 317.398 802.212 302.792 823.999 282.211C846.115 261.605 867.928 231.565 889.439 192.091C900.029 172.367 907.859 159.712 912.929 154.128C918.329 148.519 925.474 145.374 934.365 144.694C941.28 144.165 949.458 146.241 958.899 150.923C977.822 160.698 994.858 165.007 1010.01 163.847C1024.17 162.764 1035.37 158.789 1043.63 151.921C1051.89 145.054 1055.54 136.981 1054.59 127.7C1053.45 116.564 1045.92 107.891 1032.01 101.681C1018.41 95.2391 1000.9 92.8373 979.5 94.4751C951.18 96.6421 928.608 104.708 911.786 118.674C894.942 132.434 875.649 157.916 853.906 195.122C835.789 225.606 819.699 248.349 805.638 263.351C791.555 278.146 774.16 289.766 753.453 298.209C733.075 306.627 703.622 312.31 665.093 315.258L630.516 317.904L672.294 200.912C681.816 173.995 693.367 155.548 706.948 145.572C720.508 135.389 744.082 129.012 777.671 126.442L780.943 114.656L516.678 134.878L513.899 146.626C536.621 144.887 554.594 145.382 567.817 148.112C581.369 150.816 588.716 157.736 589.857 168.873C591.083 180.834 586.536 201.239 576.216 230.088L542.593 324.632L499.125 327.958C462.572 330.755 435.486 328.774 417.868 322.017C400.228 315.053 390.479 302.496 388.619 284.348C387.922 277.543 388.22 265.881 389.515 249.362C390.788 232.637 391.023 220.356 390.22 212.519C387.769 188.597 376.206 171.295 355.53 160.614C335.184 149.908 311.839 145.563 285.494 147.579C264.748 149.166 246.996 154.058 232.237 162.254C217.478 170.45 210.648 179.91 211.747 190.634C212.719 200.121 218.801 207.657 229.994 213.244C241.495 218.599 253.008 220.836 264.534 219.954C278.694 218.871 293.303 212.453 308.361 200.7C317.893 193.32 326.117 189.365 333.033 188.836C346.534 187.803 354.384 198.01 356.581 219.458C357.173 225.232 357.119 236.044 356.42 251.894C355.624 270.038 355.564 282.409 356.24 289.008C359.262 318.499 379.795 337.505 417.839 346.025C391.642 349.484 370.496 355.259 354.399 363.35C338.631 371.415 319.976 385.314 298.434 405.044L174.107 518.065C147.39 542.348 125.828 558.651 109.423 566.973C92.9965 575.089 75.3982 579.865 56.6279 581.301L52.3672 593.163L200.553 581.824L412.537 396.314C438.107 373.78 454.87 360.858 462.828 357.547C471.094 354.005 490.375 351.075 520.671 348.757L534.502 347.698L490.92 471.375C478.557 506.2 466.213 528.241 453.886 537.498C441.559 546.755 417.645 553.054 382.144 556.394L379.365 568.142L640.173 548.185L644.927 536.286C594.067 538.723 567.865 532.414 566.323 517.359C565.752 511.791 568.164 501.318 573.558 485.941L622.425 340.971C641.546 339.715 657 341.547 668.788 346.464C680.555 351.176 695.09 363.469 712.394 383.346L842.2 532.727L980.507 522.144L982.806 516.391C1005.34 523.371 1032.82 525.621 1065.26 523.138C1115.62 519.285 1166.56 503.031 1218.07 474.375C1215.03 478.32 1213.76 482.668 1214.24 487.42C1215.89 503.506 1233.02 510.301 1265.62 507.807C1295.91 505.489 1321.37 491.59 1341.99 466.109C1362.92 440.398 1388.67 385.635 1419.25 301.82C1429.86 272.534 1437.1 254.208 1441 246.844C1445.22 239.454 1450.21 234.707 1455.97 232.604C1462.03 230.269 1477.08 228.182 1501.12 226.343L1560.4 221.807L1495.11 405.757C1484.53 435.25 1479.71 454.636 1480.66 463.917C1482.52 482.065 1497.61 490.055 1525.93 487.888C1548.98 486.124 1570.34 479.19 1590.01 467.085C1609.66 454.774 1631.65 436.152 1655.97 411.219L1638.48 405.699C1621.38 423.427 1608.36 435.647 1599.43 442.358C1590.8 448.838 1582.37 452.393 1574.13 453.023C1564.58 453.754 1559.45 450.613 1558.73 443.602C1558.2 438.446 1560.75 427.651 1566.36 411.217L1642.47 196.821ZM998.141 387.979C1046.52 380.743 1085.59 371.726 1115.35 360.928C1154.69 346.486 1183.6 330.66 1202.08 313.449C1220.87 296.007 1229.54 280.172 1228.08 265.942C1227.19 257.28 1222.03 250.609 1212.59 245.927C1203.48 241.22 1190.85 239.484 1174.72 240.719C1141.13 243.289 1106.55 257.262 1070.98 282.639C1035.72 307.784 1011.44 342.897 998.141 387.979Z"/>
</mask>
<path fill-rule="evenodd" clip-rule="evenodd" d="M3448.06 262.56L3522.89 45.4551L3445.11 58.8889L3430.94 95.5146C3422.46 80.7829 3411.13 70.6339 3396.96 65.0677C3383.11 59.4763 3366.14 57.4491 3346.05 58.9862C3312.46 61.5563 3277.62 72.9518 3241.53 93.1727C3195.36 118.737 3158.34 150.98 3130.47 189.901C3102.9 228.591 3090.8 264.331 3094.16 297.122C3096.4 318.982 3106.89 335.534 3125.63 346.779C3144.35 357.817 3165.73 362.416 3189.77 360.577C3214.8 358.662 3239.8 351.656 3264.78 339.561C3299.57 322.765 3336.72 295.085 3376.25 256.519L3368.25 280.513C3362.7 297.566 3360.44 311.145 3361.47 321.25C3362.34 329.705 3366.45 335.834 3373.81 339.635C3381.52 343.618 3392.46 345.068 3406.62 343.984C3427.03 342.422 3448.69 335.153 3471.59 322.177C3494.47 308.995 3516.17 290.811 3536.69 267.625L3519.14 261.486C3499.65 281.89 3483.8 295.574 3471.57 302.538C3464.99 306.366 3459.56 308.444 3455.28 308.772C3451.33 309.074 3447.94 308.398 3445.12 306.744C3441.57 304.521 3439.63 301.76 3439.29 298.46C3439.1 296.604 3439.36 294.298 3440.07 291.541L3448.06 262.56ZM3283.41 98.6972C3305.85 84.5093 3327.61 76.609 3348.69 74.9964C3367.46 73.5601 3382.68 76.3446 3394.35 83.3497C3406.02 90.3549 3412.75 102.622 3414.55 120.152C3419.3 166.553 3395.78 213.975 3344 262.416C3305.25 298.844 3267.93 318.432 3232.03 321.178C3217.54 322.287 3204.29 319.248 3192.27 312.062C3180.23 304.669 3173.49 293.961 3172.05 279.938C3169.2 252.097 3179.01 219.961 3201.5 183.531C3224.31 147.075 3251.62 118.797 3283.41 98.6972ZM2263.34 509.096L896.314 613.698L116.34 673.38L119.51 704.314L899.483 644.633L2237.78 542.229C2239.31 547.39 2243.66 551.733 2250.8 555.259C2258.88 559.628 2268.03 561.423 2278.24 560.642C2295.36 559.331 2315.47 553.116 2338.55 541.997C2343.39 539.712 2348.73 536.81 2354.58 533.292L3594.5 438.416L3591.33 407.481L2404.06 498.329C2415.8 489.155 2428.58 478.719 2442.38 467.022C2509.26 410.359 2565.84 358.433 2612.11 311.245C2658.39 264.056 2689.35 229.367 2705 207.178C2720.62 184.782 2727.6 165.438 2725.93 149.145C2725.28 142.77 2723.51 137.159 2720.61 132.313C2725.9 131.762 2730.8 131.313 2735.3 130.969C2759.01 129.155 2777.24 130.566 2790 135.202C2802.75 139.838 2813.6 148.568 2822.55 161.394C2824.49 164.155 2838.24 189.811 2863.79 238.362C2856.74 250.541 2841.21 270.643 2817.2 298.669C2793.19 326.695 2773.85 345.218 2759.17 354.239C2753.25 358.017 2748.32 360.058 2744.37 360.36C2739.76 360.713 2732.93 358.845 2723.88 354.757C2711.35 349.065 2699.81 346.622 2689.28 347.428C2678.74 348.235 2670.08 351.184 2663.3 356.275C2656.52 361.366 2653.48 367.315 2654.18 374.12C2654.96 381.751 2659.53 387.532 2667.9 391.464C2679.38 396.614 2691.71 398.684 2704.88 397.676C2723.65 396.24 2742.55 389.598 2761.58 377.749C2790.89 359.295 2828.36 320.158 2874.01 260.339C2902.02 319.926 2919.89 353.477 2927.63 360.99C2939.83 373.151 2955.15 378.526 2973.59 377.115C2986.1 376.158 3000.95 370.449 3018.13 359.989C3048.43 341.459 3072.7 319.233 3090.95 293.31L3073.09 289.065C3061.82 305.309 3047.61 318.867 3030.47 329.739C3021.73 335.188 3013.91 338.177 3006.99 338.706C3002.71 339.033 2998.27 337.814 2993.67 335.048C2989.05 332.076 2982.78 322.684 2974.86 306.87L2923.45 203.556C2948.62 170.661 2970.86 148.07 2990.18 135.784C3000.46 129.178 3009.55 125.573 3017.45 124.968C3022.72 124.565 3033.26 125.421 3049.08 127.536C3057.17 128.788 3064.67 129.149 3071.59 128.62C3083.44 127.713 3093.72 124.328 3102.41 118.467C3107.05 115.202 3108.97 109.651 3108.17 101.814C3107.47 95.0089 3102.6 89.562 3093.55 85.4739C3084.84 81.3606 3073.4 79.8457 3059.24 80.9292C3049.69 81.6599 3041.07 83.3588 3033.37 86.0258C3021.2 90.283 3007.34 97.5785 2991.81 107.912C2976.25 118.04 2963.22 128.494 2952.71 139.275L2913.42 183.435C2896.69 152.915 2884.98 134.17 2878.29 127.199C2868.96 117.105 2855.67 107.313 2838.44 97.8241L2711.13 121.871C2709.97 120.996 2708.75 120.167 2707.45 119.383C2696.46 112.534 2683.72 109.663 2669.23 110.772C2657.38 111.679 2647.76 115.013 2640.39 120.773C2633.01 126.534 2629.76 133.642 2630.62 142.097C2631.32 148.903 2635.07 154.747 2641.88 159.63C2648.99 164.282 2657.43 167.274 2667.19 168.605C2677.26 169.705 2683.52 170.889 2685.98 172.156C2688.43 173.423 2689.77 175.191 2690 177.46C2690.36 180.966 2689.72 184.444 2688.09 187.895C2685.14 194.771 2676.45 207.076 2662 224.809C2638.09 253.866 2617.89 276.924 2601.38 293.983C2567.14 329.027 2540.9 354.73 2522.66 371.09L2485.33 220.556C2477.92 190.362 2471.55 170.273 2466.21 160.289C2460.86 150.099 2451.97 139.452 2439.54 128.347L2297.1 161.694L2302.72 172.8C2320.37 170.202 2332.66 168.638 2339.57 168.109C2361.31 166.446 2377.14 168.768 2387.08 175.074C2397.02 181.38 2405.95 200.546 2413.88 232.571L2461.64 426.577C2447.8 440.523 2426.11 458.81 2396.57 481.439C2386.95 488.758 2377.8 495.279 2369.11 501.003L2303.29 506.04C2302.64 505.688 2302.03 505.422 2301.43 505.243C2296.96 503.714 2291.43 503.202 2284.85 503.706C2277.18 504.292 2270.01 506.089 2263.34 509.096ZM1842.58 174.03L1792.66 318.457C1817.95 283.475 1839.8 256.966 1858.19 238.93C1886.86 210.964 1915.42 190.073 1943.87 176.256C1960.65 168.322 1978.58 163.623 1997.68 162.162C2014.15 160.902 2028.15 163.156 2039.7 168.924C2051.24 174.692 2057.54 182.731 2058.6 193.043C2059.63 203.148 2057.2 216.636 2051.29 233.508L2024.27 314.764C2071.5 247.758 2117.86 199.732 2163.34 170.687C2188.57 154.622 2214.2 145.595 2240.22 143.604C2255.36 142.445 2268.05 144.8 2278.28 150.668C2288.81 156.305 2294.77 165.93 2296.17 179.541C2297.39 191.502 2295.73 204.412 2291.18 218.27L2249.17 342.762C2240 369.86 2235.56 384.853 2235.86 387.74C2236.15 390.627 2237.89 392.988 2241.06 394.824C2243.19 396.116 2245.9 396.637 2249.19 396.385C2252.48 396.133 2258.04 393.733 2265.88 389.184C2283.72 378.674 2300.11 365.365 2315.05 349.256L2332.02 354.505C2324.63 363.384 2311.14 375.848 2291.54 391.897C2272.28 407.92 2255.5 419.077 2241.21 425.366C2226.92 431.656 2213.51 435.28 2201 436.237C2189.48 437.119 2179.51 435.388 2171.1 431.043C2163.02 426.673 2158.61 420.879 2157.87 413.661C2156.85 403.762 2161.56 383.344 2172 352.408L2206.78 249.67C2214.64 225.997 2218.77 212.898 2219.18 210.373C2219.76 206.379 2219.87 202.526 2219.49 198.814C2218.96 193.658 2216.74 189.776 2212.82 187.166C2208.57 184.581 2203.98 183.477 2199.04 183.855C2185.21 184.914 2171.01 190.469 2156.44 200.521C2113.68 230.189 2074.96 270.148 2040.28 320.398C2017.46 353.529 1997.18 395.299 1979.44 445.708L1904.86 451.415L1970.15 257.8C1977.3 236.884 1980.52 223.023 1979.82 216.217C1979.25 210.649 1977.02 206.663 1973.12 204.259C1969.23 201.856 1964.64 200.855 1959.37 201.258C1948.51 202.09 1937.24 205.447 1925.56 211.328C1906.62 220.883 1882.87 240.056 1854.29 268.847C1826.04 297.613 1804.59 324.715 1789.94 350.154C1782.87 362.127 1767 400.025 1742.35 463.85L1669.24 469.444L1740.08 261.997L1749.27 235.106C1751.18 231.011 1752.04 228.035 1751.84 226.179C1751.38 221.642 1747.67 217.873 1740.73 214.871C1733.76 211.663 1725.18 210.449 1714.97 211.23C1710.69 211.558 1698.96 213.702 1679.78 217.664L1674.16 206.558L1842.58 174.03ZM1642.47 196.821L1351.53 219.083L1347.79 231.216C1389.48 229.897 1410.99 235.837 1412.35 249.036C1413.21 257.491 1402.16 290.553 1379.2 348.22C1356.23 405.888 1339.37 440.537 1328.62 452.168C1318.19 463.774 1308.04 469.955 1298.16 470.711C1292.56 471.139 1286.12 469.865 1278.85 466.888C1267.41 462.152 1256.75 460.161 1246.87 460.917C1244.13 461.127 1241.54 461.488 1239.12 461.998C1253.06 453.355 1267.05 443.809 1281.08 433.359L1269.78 425.182C1228.78 449.312 1197.56 465.314 1176.13 473.189C1155.01 480.833 1132.6 485.562 1108.89 487.376C1079.25 489.644 1053.4 485.178 1031.35 473.98C1009.27 462.575 997.29 447.695 995.409 429.341C994.712 422.535 994.988 413.889 996.236 403.401C1062.6 393.543 1113.79 382.975 1149.8 371.697C1204.17 354.859 1244.63 335.135 1271.18 312.526C1291.31 295.19 1300.5 277.963 1298.75 260.846C1297.5 248.679 1288.02 238.804 1270.32 231.221C1252.62 223.638 1226.31 221.182 1191.41 223.853C1143 227.557 1096.83 240.132 1052.89 261.576C1008.94 282.814 973.46 310.678 946.461 345.168C919.461 379.658 907.536 412.266 910.684 442.995C913.03 465.886 927.359 485.886 953.671 502.994C957.738 505.638 962.065 508.034 966.651 510.182C948.54 509.403 934.685 506.386 925.086 501.131C912.758 494.176 894.216 476.785 869.46 448.957L794.541 363.966L787.789 356.376C774.776 339.497 760.298 329.382 744.356 326.029C775.664 317.398 802.212 302.792 823.999 282.211C846.115 261.605 867.928 231.565 889.439 192.091C900.029 172.367 907.859 159.712 912.929 154.128C918.329 148.519 925.474 145.374 934.365 144.694C941.28 144.165 949.458 146.241 958.899 150.923C977.822 160.698 994.858 165.007 1010.01 163.847C1024.17 162.764 1035.37 158.789 1043.63 151.921C1051.89 145.054 1055.54 136.981 1054.59 127.7C1053.45 116.564 1045.92 107.891 1032.01 101.681C1018.41 95.2391 1000.9 92.8373 979.5 94.4751C951.18 96.6421 928.608 104.708 911.786 118.674C894.942 132.434 875.649 157.916 853.906 195.122C835.789 225.606 819.699 248.349 805.638 263.351C791.555 278.146 774.16 289.766 753.453 298.209C733.075 306.627 703.622 312.31 665.093 315.258L630.516 317.904L672.294 200.912C681.816 173.995 693.367 155.548 706.948 145.572C720.508 135.389 744.082 129.012 777.671 126.442L780.943 114.656L516.678 134.878L513.899 146.626C536.621 144.887 554.594 145.382 567.817 148.112C581.369 150.816 588.716 157.736 589.857 168.873C591.083 180.834 586.536 201.239 576.216 230.088L542.593 324.632L499.125 327.958C462.572 330.755 435.486 328.774 417.868 322.017C400.228 315.053 390.479 302.496 388.619 284.348C387.922 277.543 388.22 265.881 389.515 249.362C390.788 232.637 391.023 220.356 390.22 212.519C387.769 188.597 376.206 171.295 355.53 160.614C335.184 149.908 311.839 145.563 285.494 147.579C264.748 149.166 246.996 154.058 232.237 162.254C217.478 170.45 210.648 179.91 211.747 190.634C212.719 200.121 218.801 207.657 229.994 213.244C241.495 218.599 253.008 220.836 264.534 219.954C278.694 218.871 293.303 212.453 308.361 200.7C317.893 193.32 326.117 189.365 333.033 188.836C346.534 187.803 354.384 198.01 356.581 219.458C357.173 225.232 357.119 236.044 356.42 251.894C355.624 270.038 355.564 282.409 356.24 289.008C359.262 318.499 379.795 337.505 417.839 346.025C391.642 349.484 370.496 355.259 354.399 363.35C338.631 371.415 319.976 385.314 298.434 405.044L174.107 518.065C147.39 542.348 125.828 558.651 109.423 566.973C92.9965 575.089 75.3982 579.865 56.6279 581.301L52.3672 593.163L200.553 581.824L412.537 396.314C438.107 373.78 454.87 360.858 462.828 357.547C471.094 354.005 490.375 351.075 520.671 348.757L534.502 347.698L490.92 471.375C478.557 506.2 466.213 528.241 453.886 537.498C441.559 546.755 417.645 553.054 382.144 556.394L379.365 568.142L640.173 548.185L644.927 536.286C594.067 538.723 567.865 532.414 566.323 517.359C565.752 511.791 568.164 501.318 573.558 485.941L622.425 340.971C641.546 339.715 657 341.547 668.788 346.464C680.555 351.176 695.09 363.469 712.394 383.346L842.2 532.727L980.507 522.144L982.806 516.391C1005.34 523.371 1032.82 525.621 1065.26 523.138C1115.62 519.285 1166.56 503.031 1218.07 474.375C1215.03 478.32 1213.76 482.668 1214.24 487.42C1215.89 503.506 1233.02 510.301 1265.62 507.807C1295.91 505.489 1321.37 491.59 1341.99 466.109C1362.92 440.398 1388.67 385.635 1419.25 301.82C1429.86 272.534 1437.1 254.208 1441 246.844C1445.22 239.454 1450.21 234.707 1455.97 232.604C1462.03 230.269 1477.08 228.182 1501.12 226.343L1560.4 221.807L1495.11 405.757C1484.53 435.25 1479.71 454.636 1480.66 463.917C1482.52 482.065 1497.61 490.055 1525.93 487.888C1548.98 486.124 1570.34 479.19 1590.01 467.085C1609.66 454.774 1631.65 436.152 1655.97 411.219L1638.48 405.699C1621.38 423.427 1608.36 435.647 1599.43 442.358C1590.8 448.838 1582.37 452.393 1574.13 453.023C1564.58 453.754 1559.45 450.613 1558.73 443.602C1558.2 438.446 1560.75 427.651 1566.36 411.217L1642.47 196.821ZM998.141 387.979C1046.52 380.743 1085.59 371.726 1115.35 360.928C1154.69 346.486 1183.6 330.66 1202.08 313.449C1220.87 296.007 1229.54 280.172 1228.08 265.942C1227.19 257.28 1222.03 250.609 1212.59 245.927C1203.48 241.22 1190.85 239.484 1174.72 240.719C1141.13 243.289 1106.55 257.262 1070.98 282.639C1035.72 307.784 1011.44 342.897 998.141 387.979Z" fill="#FBF448"/>
<path d="M3522.89 45.4551L3556.42 57.0126L3575.97 0.294391L3516.85 10.5052L3522.89 45.4551ZM3448.06 262.56L3414.52 251.002L3414.16 252.061L3413.86 253.141L3448.06 262.56ZM3445.11 58.8889L3439.07 23.939L3419.28 27.3579L3412.03 46.0923L3445.11 58.8889ZM3430.94 95.5146L3400.2 113.207L3437.23 177.548L3464.02 108.311L3430.94 95.5146ZM3396.96 65.0677L3383.68 97.9554L3383.83 98.0194L3383.99 98.0819L3396.96 65.0677ZM3346.05 58.9862L3348.76 94.3501L3348.76 94.3501L3346.05 58.9862ZM3241.53 93.1727L3258.71 124.201L3258.78 124.158L3258.86 124.115L3241.53 93.1727ZM3130.47 189.901L3101.63 169.251L3101.6 169.286L3101.58 169.321L3130.47 189.901ZM3094.16 297.122L3129.44 293.507L3129.44 293.506L3094.16 297.122ZM3125.63 346.779L3107.38 377.192L3107.5 377.262L3107.62 377.331L3125.63 346.779ZM3189.77 360.577L3187.06 325.213L3187.06 325.213L3189.77 360.577ZM3264.78 339.561L3249.36 307.621L3249.34 307.63L3249.32 307.639L3264.78 339.561ZM3376.25 256.519L3409.9 267.732L3351.48 231.133L3376.25 256.519ZM3368.25 280.513L3334.6 269.3L3334.57 269.415L3334.53 269.529L3368.25 280.513ZM3361.47 321.25L3396.76 317.635L3396.76 317.635L3361.47 321.25ZM3373.81 339.635L3390.09 308.124L3390.09 308.124L3373.81 339.635ZM3406.62 343.984L3403.91 308.62L3403.91 308.62L3406.62 343.984ZM3471.59 322.177L3489.07 353.035L3489.19 352.972L3489.3 352.908L3471.59 322.177ZM3536.69 267.625L3563.25 291.133L3598.26 251.582L3548.4 234.145L3536.69 267.625ZM3519.14 261.486L3530.84 228.006L3509.27 220.461L3493.48 236.993L3519.14 261.486ZM3471.57 302.538L3454.02 271.716L3453.87 271.8L3453.72 271.886L3471.57 302.538ZM3455.28 308.772L3457.99 344.136L3457.99 344.136L3455.28 308.772ZM3445.12 306.744L3426.28 336.796L3426.73 337.079L3427.19 337.348L3445.12 306.744ZM3439.29 298.46L3404.01 302.076L3404.01 302.076L3439.29 298.46ZM3440.07 291.541L3405.88 282.123L3405.81 282.39L3405.74 282.658L3440.07 291.541ZM3348.69 74.9964L3345.98 39.6324L3345.98 39.6324L3348.69 74.9964ZM3283.41 98.6972L3302.36 128.676L3302.36 128.676L3283.41 98.6972ZM3414.55 120.152L3449.83 116.536L3449.83 116.536L3414.55 120.152ZM3344 262.416L3319.77 236.514L3319.73 236.544L3319.7 236.575L3344 262.416ZM3232.03 321.178L3229.33 285.814L3229.33 285.814L3232.03 321.178ZM3192.27 312.062L3173.71 342.288L3173.89 342.397L3174.07 342.504L3192.27 312.062ZM3172.05 279.938L3207.33 276.323L3207.33 276.323L3172.05 279.938ZM3201.5 183.531L3171.43 164.715L3171.38 164.808L3171.32 164.902L3201.5 183.531ZM896.314 613.698L893.608 578.334L893.608 578.334L896.314 613.698ZM2263.34 509.096L2266.05 544.46L2272.25 543.986L2277.92 541.431L2263.34 509.096ZM116.34 673.38L113.634 638.016L77.3481 640.793L81.0575 676.995L116.34 673.38ZM119.51 704.314L84.2271 707.93L87.7504 742.316L122.216 739.678L119.51 704.314ZM899.483 644.633L896.777 609.269L896.777 609.269L899.483 644.633ZM2237.78 542.229L2271.78 532.123L2263.62 504.681L2235.07 506.865L2237.78 542.229ZM2250.8 555.259L2267.67 524.06L2267.09 523.745L2266.49 523.451L2250.8 555.259ZM2278.24 560.642L2275.53 525.278L2275.53 525.278L2278.24 560.642ZM2338.55 541.997L2323.41 509.926L2323.29 509.984L2323.16 510.042L2338.55 541.997ZM2354.58 533.292L2351.87 497.928L2343.49 498.569L2336.29 502.904L2354.58 533.292ZM3594.5 438.416L3597.2 473.78L3633.49 471.003L3629.78 434.8L3594.5 438.416ZM3591.33 407.481L3626.61 403.866L3623.09 369.48L3588.62 372.117L3591.33 407.481ZM2404.06 498.329L2382.23 470.378L2289.71 542.65L2406.77 533.693L2404.06 498.329ZM2442.38 467.022L2419.46 439.961L2419.46 439.962L2442.38 467.022ZM2612.11 311.245L2586.79 286.412L2586.79 286.412L2612.11 311.245ZM2705 207.178L2733.98 227.618L2734.03 227.545L2734.08 227.473L2705 207.178ZM2725.93 149.145L2761.22 145.53L2761.22 145.53L2725.93 149.145ZM2720.61 132.313L2716.93 97.037L2661.64 102.799L2690.17 150.513L2720.61 132.313ZM2735.3 130.969L2738.01 166.333L2738.01 166.333L2735.3 130.969ZM2790 135.202L2777.88 168.536L2777.88 168.536L2790 135.202ZM2822.55 161.394L2793.46 181.687L2793.5 181.743L2793.54 181.798L2822.55 161.394ZM2863.79 238.362L2894.49 256.13L2904.3 239.178L2895.18 221.844L2863.79 238.362ZM2817.2 298.669L2844.13 321.745L2844.13 321.745L2817.2 298.669ZM2759.17 354.239L2740.6 324.024L2740.34 324.182L2740.09 324.344L2759.17 354.239ZM2744.37 360.36L2741.66 324.996L2741.66 324.996L2744.37 360.36ZM2723.88 354.757L2709.21 387.049L2709.24 387.064L2709.28 387.078L2723.88 354.757ZM2689.28 347.428L2686.57 312.064L2686.57 312.064L2689.28 347.428ZM2654.18 374.12L2689.46 370.506L2689.46 370.505L2654.18 374.12ZM2667.9 391.464L2652.82 423.564L2653.1 423.698L2653.39 423.826L2667.9 391.464ZM2704.88 397.676L2702.17 362.312L2702.17 362.312L2704.88 397.676ZM2761.58 377.749L2780.33 407.858L2780.4 407.81L2780.48 407.762L2761.58 377.749ZM2874.01 260.339L2906.11 245.251L2881.25 192.378L2845.81 238.824L2874.01 260.339ZM2927.63 360.99L2952.67 335.873L2952.51 335.707L2952.34 335.543L2927.63 360.99ZM2973.59 377.115L2976.3 412.479L2976.3 412.479L2973.59 377.115ZM3018.13 359.989L3036.58 390.284L3036.61 390.265L3036.64 390.245L3018.13 359.989ZM3090.95 293.31L3119.95 313.73L3150.1 270.915L3099.16 258.804L3090.95 293.31ZM3073.09 289.065L3081.3 254.559L3057.76 248.964L3043.96 268.836L3073.09 289.065ZM3030.47 329.739L3049.24 359.831L3049.35 359.76L3049.46 359.689L3030.47 329.739ZM3006.99 338.706L3004.29 303.342L3004.29 303.342L3006.99 338.706ZM2993.67 335.048L2974.48 364.875L2974.93 365.165L2975.39 365.441L2993.67 335.048ZM2974.86 306.87L2943.1 322.67L2943.13 322.717L2943.15 322.763L2974.86 306.87ZM2923.45 203.556L2895.28 182.002L2881.85 199.561L2891.69 219.356L2923.45 203.556ZM2990.18 135.784L3009.22 165.712L3009.29 165.665L3009.36 165.618L2990.18 135.784ZM3017.45 124.968L3020.16 160.332L3020.16 160.332L3017.45 124.968ZM3049.08 127.536L3054.5 92.4855L3054.14 92.4302L3053.78 92.3821L3049.08 127.536ZM3071.59 128.62L3068.88 93.2557L3068.88 93.2557L3071.59 128.62ZM3102.41 118.467L3122.24 147.874L3122.53 147.68L3122.81 147.481L3102.41 118.467ZM3108.17 101.814L3072.89 105.429L3072.89 105.43L3108.17 101.814ZM3093.55 85.4739L3078.42 117.551L3078.68 117.675L3078.95 117.795L3093.55 85.4739ZM3059.24 80.9292L3056.53 45.5652L3056.53 45.5652L3059.24 80.9292ZM3033.37 86.0258L3021.75 52.5156L3021.71 52.5308L3021.67 52.546L3033.37 86.0258ZM2991.81 107.912L3011.16 137.636L3011.3 137.54L3011.45 137.443L2991.81 107.912ZM2952.71 139.275L2927.31 114.516L2926.74 115.096L2926.21 115.702L2952.71 139.275ZM2913.42 183.435L2882.32 200.487L2906.5 244.578L2939.92 207.008L2913.42 183.435ZM2878.29 127.199L2852.24 151.275L2852.47 151.517L2852.7 151.754L2878.29 127.199ZM2838.44 97.8241L2855.54 66.7548L2844.38 60.6073L2831.86 62.9731L2838.44 97.8241ZM2711.13 121.871L2689.78 150.19L2702.3 159.633L2717.72 156.722L2711.13 121.871ZM2707.45 119.383L2688.69 149.483L2688.89 149.603L2689.08 149.721L2707.45 119.383ZM2669.23 110.772L2671.94 146.136L2671.94 146.136L2669.23 110.772ZM2630.62 142.097L2665.91 138.482L2665.91 138.481L2630.62 142.097ZM2641.88 159.63L2621.2 188.448L2621.83 188.895L2622.47 189.315L2641.88 159.63ZM2667.19 168.605L2662.4 203.747L2662.87 203.811L2663.34 203.863L2667.19 168.605ZM2685.98 172.156L2669.7 203.667L2669.7 203.667L2685.98 172.156ZM2690 177.46L2725.29 173.845L2725.29 173.845L2690 177.46ZM2688.09 187.895L2656.04 172.688L2655.75 173.302L2655.49 173.927L2688.09 187.895ZM2662 224.809L2689.39 247.342L2689.44 247.276L2689.5 247.209L2662 224.809ZM2601.38 293.983L2626.75 318.771L2626.81 318.708L2626.87 318.645L2601.38 293.983ZM2522.66 371.09L2488.24 379.626L2502.44 436.883L2546.35 397.491L2522.66 371.09ZM2485.33 220.556L2450.89 229.008L2450.9 229.05L2450.91 229.093L2485.33 220.556ZM2466.21 160.289L2434.82 176.797L2434.88 176.904L2434.94 177.011L2466.21 160.289ZM2439.54 128.347L2463.18 101.905L2449.43 89.6077L2431.46 93.8135L2439.54 128.347ZM2297.1 161.694L2289.01 127.161L2245.08 137.445L2265.45 177.705L2297.1 161.694ZM2302.72 172.8L2271.07 188.811L2282.6 211.609L2307.88 207.889L2302.72 172.8ZM2339.57 168.109L2342.28 203.473L2342.28 203.473L2339.57 168.109ZM2387.08 175.074L2406.08 145.126L2406.08 145.126L2387.08 175.074ZM2413.88 232.571L2448.32 224.093L2448.32 224.071L2448.31 224.048L2413.88 232.571ZM2461.64 426.577L2486.81 451.56L2500.84 437.429L2496.08 418.1L2461.64 426.577ZM2396.57 481.439L2418.04 509.666L2418.09 509.631L2418.14 509.596L2396.57 481.439ZM2369.11 501.003L2371.81 536.367L2380.96 535.667L2388.62 530.619L2369.11 501.003ZM2303.29 506.04L2286.26 537.151L2295.49 542.207L2305.99 541.404L2303.29 506.04ZM2301.43 505.243L2289.96 538.803L2290.56 539.007L2291.16 539.189L2301.43 505.243ZM2284.85 503.706L2282.14 468.342L2282.14 468.342L2284.85 503.706ZM1792.66 318.457L1759.14 306.871L1821.41 339.236L1792.66 318.457ZM1842.58 174.03L1876.1 185.616L1896.17 127.557L1835.86 139.206L1842.58 174.03ZM1858.19 238.93L1833.42 213.544L1833.39 213.574L1833.36 213.603L1858.19 238.93ZM1943.87 176.256L1928.7 144.194L1928.54 144.272L1928.38 144.351L1943.87 176.256ZM1997.68 162.162L2000.39 197.526L2000.39 197.526L1997.68 162.162ZM2039.7 168.924L2055.55 137.197L2055.55 137.197L2039.7 168.924ZM2058.6 193.043L2023.31 196.658L2023.31 196.658L2058.6 193.043ZM2051.29 233.508L2017.82 221.792L2017.72 222.054L2017.64 222.317L2051.29 233.508ZM2024.27 314.764L1990.62 303.573L2053.26 335.198L2024.27 314.764ZM2163.34 170.687L2144.29 140.767L2144.27 140.781L2144.25 140.795L2163.34 170.687ZM2240.22 143.604L2237.51 108.24L2237.51 108.24L2240.22 143.604ZM2278.28 150.668L2260.62 181.43L2261.08 181.692L2261.54 181.94L2278.28 150.668ZM2296.17 179.541L2260.89 183.156L2260.89 183.156L2296.17 179.541ZM2291.18 218.27L2324.78 229.609L2324.83 229.476L2324.87 229.342L2291.18 218.27ZM2249.17 342.762L2282.77 354.132L2282.77 354.117L2282.78 354.101L2249.17 342.762ZM2241.06 394.824L2259.5 364.526L2259.16 364.318L2258.82 364.118L2241.06 394.824ZM2249.19 396.385L2251.9 431.749L2251.9 431.749L2249.19 396.385ZM2265.88 389.184L2283.69 419.854L2283.78 419.799L2283.88 419.743L2265.88 389.184ZM2315.05 349.256L2325.53 315.373L2304.22 308.78L2289.05 325.135L2315.05 349.256ZM2332.02 354.505L2359.28 377.189L2393.28 336.331L2342.5 320.622L2332.02 354.505ZM2291.54 391.897L2269.07 364.457L2268.97 364.542L2268.86 364.627L2291.54 391.897ZM2241.21 425.366L2255.49 457.829L2255.49 457.829L2241.21 425.366ZM2201 436.237L2198.3 400.873L2198.3 400.873L2201 436.237ZM2171.1 431.043L2154.23 462.241L2154.52 462.4L2154.82 462.554L2171.1 431.043ZM2157.87 413.661L2193.15 410.046L2193.15 410.045L2157.87 413.661ZM2172 352.408L2138.41 341.037L2138.4 341.053L2138.39 341.07L2172 352.408ZM2206.78 249.67L2240.37 261.041L2240.4 260.945L2240.44 260.85L2206.78 249.67ZM2219.18 210.373L2254.2 215.99L2254.24 215.758L2254.27 215.526L2219.18 210.373ZM2219.49 198.814L2254.77 195.199L2254.77 195.199L2219.49 198.814ZM2212.82 187.166L2232.48 157.648L2231.88 157.245L2231.26 156.867L2212.82 187.166ZM2199.04 183.855L2201.74 219.219L2201.74 219.219L2199.04 183.855ZM2156.44 200.521L2136.3 171.328L2136.26 171.354L2136.22 171.381L2156.44 200.521ZM2040.28 320.398L2011.09 300.254L2011.08 300.265L2011.07 300.277L2040.28 320.398ZM1979.44 445.708L1982.15 481.072L2005.22 479.306L2012.9 457.479L1979.44 445.708ZM1904.86 451.415L1871.25 440.082L1854.12 490.868L1907.56 486.779L1904.86 451.415ZM1970.15 257.8L1936.59 246.327L1936.56 246.397L1936.54 246.466L1970.15 257.8ZM1979.82 216.217L2015.11 212.602L2015.11 212.602L1979.82 216.217ZM1973.12 204.259L1991.74 174.073L1991.74 174.073L1973.12 204.259ZM1959.37 201.258L1962.08 236.622L1962.08 236.622L1959.37 201.258ZM1925.56 211.328L1909.6 179.652L1909.59 179.658L1909.58 179.664L1925.56 211.328ZM1854.29 268.847L1829.12 243.861L1829.05 243.928L1828.98 243.996L1854.29 268.847ZM1789.94 350.154L1820.48 368.189L1820.57 368.023L1820.67 367.856L1789.94 350.154ZM1742.35 463.85L1745.05 499.214L1767.36 497.507L1775.43 476.631L1742.35 463.85ZM1669.24 469.444L1635.68 457.982L1618.28 508.914L1671.95 504.808L1669.24 469.444ZM1740.08 261.997L1706.52 250.525L1706.52 250.535L1740.08 261.997ZM1749.27 235.106L1717.11 220.154L1716.32 221.857L1715.71 223.633L1749.27 235.106ZM1751.84 226.179L1787.13 222.564L1787.13 222.564L1751.84 226.179ZM1740.73 214.871L1725.89 247.086L1726.27 247.261L1726.66 247.427L1740.73 214.871ZM1714.97 211.23L1712.26 175.866L1712.26 175.866L1714.97 211.23ZM1679.78 217.664L1648.14 233.675L1660.38 257.888L1686.96 252.398L1679.78 217.664ZM1674.16 206.558L1667.44 171.735L1621.31 180.645L1642.52 222.569L1674.16 206.558ZM1351.53 219.083L1348.82 183.719L1324.74 185.562L1317.63 208.648L1351.53 219.083ZM1642.47 196.821L1675.89 208.686L1694.13 157.297L1639.76 161.457L1642.47 196.821ZM1347.79 231.216L1313.9 220.781L1299.29 268.236L1348.92 266.666L1347.79 231.216ZM1412.35 249.036L1377.06 252.651L1377.06 252.651L1412.35 249.036ZM1379.2 348.22L1346.25 335.098L1346.25 335.098L1379.2 348.22ZM1328.62 452.168L1302.58 428.087L1302.4 428.275L1302.23 428.465L1328.62 452.168ZM1298.16 470.711L1295.45 435.347L1295.45 435.347L1298.16 470.711ZM1278.85 466.888L1265.28 499.657L1265.35 499.685L1265.42 499.714L1278.85 466.888ZM1246.87 460.917L1244.17 425.553L1244.17 425.553L1246.87 460.917ZM1239.12 461.998L1220.43 431.852L1246.43 496.704L1239.12 461.998ZM1281.08 433.359L1302.26 461.803L1340.99 432.956L1301.88 404.633L1281.08 433.359ZM1269.78 425.182L1290.59 396.455L1271.79 382.847L1251.8 394.614L1269.78 425.182ZM1176.13 473.189L1188.2 506.54L1188.28 506.51L1188.37 506.48L1176.13 473.189ZM1108.89 487.376L1106.18 452.012L1106.18 452.012L1108.89 487.376ZM1031.35 473.98L1015.07 505.491L1015.18 505.548L1015.29 505.604L1031.35 473.98ZM995.409 429.341L960.127 432.956L960.127 432.956L995.409 429.341ZM996.236 403.401L991.025 368.319L964.221 372.3L961.018 399.208L996.236 403.401ZM1149.8 371.697L1139.31 337.818L1139.26 337.834L1139.2 337.85L1149.8 371.697ZM1271.18 312.526L1294.18 339.533L1294.25 339.467L1294.33 339.4L1271.18 312.526ZM1298.75 260.846L1263.46 264.462L1263.46 264.462L1298.75 260.846ZM1270.32 231.221L1284.29 198.619L1284.29 198.619L1270.32 231.221ZM1191.41 223.853L1188.7 188.489L1188.7 188.489L1191.41 223.853ZM1052.89 261.576L1068.32 293.511L1068.39 293.48L1068.45 293.449L1052.89 261.576ZM910.684 442.995L875.402 446.61L875.402 446.61L910.684 442.995ZM953.671 502.994L934.338 532.729L934.338 532.729L953.671 502.994ZM966.651 510.182L965.127 545.616L981.691 478.061L966.651 510.182ZM925.086 501.131L907.66 532.022L907.857 532.133L908.055 532.242L925.086 501.131ZM869.46 448.957L842.854 472.411L842.907 472.471L842.961 472.531L869.46 448.957ZM794.541 363.966L821.147 340.513L821.093 340.452L821.04 340.392L794.541 363.966ZM787.789 356.376L759.701 378.032L760.462 379.019L761.29 379.95L787.789 356.376ZM744.356 326.029L734.93 291.837L737.056 360.737L744.356 326.029ZM823.999 282.211L799.821 256.261L799.732 256.345L799.643 256.428L823.999 282.211ZM889.439 192.091L920.582 209.062L920.635 208.966L920.687 208.869L889.439 192.091ZM912.929 154.128L887.376 129.532L887.018 129.905L886.67 130.287L912.929 154.128ZM934.365 144.694L937.071 180.058L937.071 180.058L934.365 144.694ZM958.899 150.923L975.177 119.412L974.918 119.277L974.656 119.148L958.899 150.923ZM1010.01 163.847L1012.71 199.211L1012.71 199.211L1010.01 163.847ZM1043.63 151.921L1066.31 179.191L1066.31 179.191L1043.63 151.921ZM1054.59 127.7L1089.87 124.085L1089.87 124.085L1054.59 127.7ZM1032.01 101.681L1016.83 133.736L1017.19 133.906L1017.55 134.068L1032.01 101.681ZM979.5 94.4751L976.794 59.1111L976.794 59.1111L979.5 94.4751ZM911.786 118.674L934.224 146.142L934.333 146.053L934.441 145.963L911.786 118.674ZM853.906 195.122L884.395 213.241L884.462 213.129L884.527 213.017L853.906 195.122ZM805.638 263.351L831.328 287.804L831.422 287.705L831.515 287.606L805.638 263.351ZM753.453 298.209L740.062 265.367L739.986 265.397L739.911 265.428L753.453 298.209ZM665.093 315.258L662.387 279.894L662.387 279.894L665.093 315.258ZM630.516 317.904L597.115 305.976L578.738 357.437L633.222 353.268L630.516 317.904ZM672.294 200.912L705.696 212.84L705.714 212.79L705.731 212.74L672.294 200.912ZM706.948 145.572L727.946 174.155L728.096 174.045L728.246 173.932L706.948 145.572ZM777.671 126.442L780.377 161.806L805.187 159.908L811.845 135.932L777.671 126.442ZM780.943 114.656L815.118 124.146L828.644 75.4355L778.238 79.2925L780.943 114.656ZM516.678 134.878L513.972 99.5135L488.129 101.491L482.163 126.713L516.678 134.878ZM513.899 146.626L479.384 138.461L468.212 185.692L516.605 181.99L513.899 146.626ZM567.817 148.112L560.647 182.847L560.762 182.871L560.877 182.893L567.817 148.112ZM589.857 168.873L554.574 172.488L554.574 172.488L589.857 168.873ZM576.216 230.088L542.821 218.142L542.81 218.172L542.799 218.203L576.216 230.088ZM542.593 324.632L545.299 359.996L568.285 358.237L576.01 336.516L542.593 324.632ZM499.125 327.958L496.419 292.594L496.419 292.594L499.125 327.958ZM417.868 322.017L404.844 355.006L405.005 355.07L405.166 355.132L417.868 322.017ZM388.619 284.348L353.336 287.963L353.337 287.964L388.619 284.348ZM389.515 249.362L424.874 252.133L424.877 252.093L424.88 252.054L389.515 249.362ZM390.22 212.519L354.938 216.134L354.938 216.134L390.22 212.519ZM355.53 160.614L339.014 192.002L339.133 192.064L339.252 192.125L355.53 160.614ZM285.494 147.579L282.788 112.215L282.788 112.215L285.494 147.579ZM232.237 162.254L215.018 131.247L215.018 131.247L232.237 162.254ZM211.747 190.634L176.464 194.249L176.464 194.249L211.747 190.634ZM229.994 213.244L214.155 244.978L214.586 245.193L215.023 245.396L229.994 213.244ZM264.534 219.954L267.24 255.318L267.24 255.318L264.534 219.954ZM308.361 200.7L286.648 172.656L286.594 172.698L286.54 172.741L308.361 200.7ZM333.033 188.836L330.327 153.472L330.327 153.472L333.033 188.836ZM356.581 219.458L321.298 223.073L321.298 223.073L356.581 219.458ZM356.42 251.894L320.987 250.331L320.987 250.34L356.42 251.894ZM356.24 289.008L320.957 292.623L320.957 292.623L356.24 289.008ZM417.839 346.025L422.482 381.187L425.59 311.415L417.839 346.025ZM354.399 363.35L338.471 331.66L338.359 331.717L338.247 331.774L354.399 363.35ZM298.434 405.044L322.291 431.289L322.34 431.244L322.389 431.199L298.434 405.044ZM174.107 518.065L197.963 544.311L197.965 544.309L174.107 518.065ZM109.423 566.973L125.133 598.771L125.301 598.688L125.468 598.604L109.423 566.973ZM56.6279 581.301L53.922 545.937L31.0152 547.69L23.2487 569.311L56.6279 581.301ZM52.3672 593.163L18.988 581.173L0.477377 632.704L55.0732 628.527L52.3672 593.163ZM200.553 581.824L203.259 617.188L215.028 616.287L223.911 608.514L200.553 581.824ZM412.537 396.314L435.894 423.004L435.941 422.963L435.987 422.923L412.537 396.314ZM462.828 357.547L476.452 390.294L476.626 390.221L476.799 390.147L462.828 357.547ZM520.671 348.757L517.965 313.393L517.965 313.393L520.671 348.757ZM534.502 347.698L567.953 359.486L586.031 308.184L531.796 312.334L534.502 347.698ZM490.92 471.375L524.343 483.24L524.357 483.202L524.371 483.163L490.92 471.375ZM453.886 537.498L432.588 509.137L432.588 509.137L453.886 537.498ZM382.144 556.394L378.822 521.082L353.486 523.466L347.629 548.229L382.144 556.394ZM379.365 568.142L344.85 559.977L333.678 607.209L382.071 603.506L379.365 568.142ZM640.173 548.185L642.879 583.549L664.909 581.864L673.108 561.346L640.173 548.185ZM644.927 536.286L677.863 549.446L698.332 498.219L643.23 500.859L644.927 536.286ZM566.323 517.359L601.605 513.744L601.605 513.744L566.323 517.359ZM573.558 485.941L607.026 497.68L607.098 497.475L607.167 497.27L573.558 485.941ZM622.425 340.971L620.102 305.579L596.403 307.135L588.816 329.641L622.425 340.971ZM668.788 346.464L655.133 379.197L655.368 379.296L655.605 379.39L668.788 346.464ZM712.394 383.346L739.165 360.082L739.155 360.07L739.144 360.058L712.394 383.346ZM842.2 532.727L815.428 555.99L827.125 569.451L844.906 568.091L842.2 532.727ZM980.507 522.144L983.213 557.508L1005.24 555.822L1013.44 535.304L980.507 522.144ZM982.806 516.391L993.302 482.512L962.021 472.821L949.87 503.231L982.806 516.391ZM1065.26 523.138L1062.55 487.775L1065.26 523.138ZM1218.07 474.375L1246.17 496.018L1200.83 443.381L1218.07 474.375ZM1214.24 487.42L1249.53 483.805L1249.53 483.805L1214.24 487.42ZM1265.62 507.807L1262.91 472.443L1262.91 472.443L1265.62 507.807ZM1341.99 466.109L1314.49 443.719L1314.45 443.758L1314.42 443.797L1341.99 466.109ZM1419.25 301.82L1452.57 313.974L1452.58 313.936L1452.6 313.897L1419.25 301.82ZM1441 246.844L1410.2 229.252L1409.91 229.757L1409.64 230.272L1441 246.844ZM1455.97 232.604L1468.13 265.918L1468.42 265.814L1468.7 265.704L1455.97 232.604ZM1501.12 226.343L1498.42 190.979L1498.42 190.979L1501.12 226.343ZM1560.4 221.807L1593.82 233.67L1612.06 182.283L1557.69 186.443L1560.4 221.807ZM1495.11 405.757L1528.5 417.739L1528.52 417.679L1528.54 417.62L1495.11 405.757ZM1480.66 463.917L1515.94 460.301L1515.94 460.301L1480.66 463.917ZM1525.93 487.888L1523.23 452.524L1523.23 452.524L1525.93 487.888ZM1590.01 467.085L1608.6 497.29L1608.72 497.215L1608.84 497.139L1590.01 467.085ZM1655.97 411.219L1681.36 435.989L1721.61 394.742L1666.65 377.396L1655.97 411.219ZM1638.48 405.699L1649.16 371.876L1628.21 365.264L1612.96 381.075L1638.48 405.699ZM1599.43 442.358L1578.13 413.998L1578.13 413.998L1599.43 442.358ZM1574.13 453.023L1576.84 488.387L1576.84 488.387L1574.13 453.023ZM1558.73 443.602L1523.45 447.216L1523.45 447.217L1558.73 443.602ZM1566.36 411.217L1532.94 399.353L1532.87 399.548L1532.8 399.745L1566.36 411.217ZM1115.35 360.928L1127.44 394.268L1127.51 394.245L1127.57 394.223L1115.35 360.928ZM998.141 387.979L964.124 377.941L948.384 431.282L1003.39 423.056L998.141 387.979ZM1202.08 313.449L1177.95 287.455L1177.93 287.474L1177.91 287.493L1202.08 313.449ZM1228.08 265.942L1192.8 269.557L1192.8 269.557L1228.08 265.942ZM1212.59 245.927L1196.31 277.438L1196.57 277.572L1196.83 277.702L1212.59 245.927ZM1174.72 240.719L1177.42 276.083L1177.42 276.083L1174.72 240.719ZM1070.98 282.639L1091.58 311.515L1091.58 311.511L1070.98 282.639ZM3489.36 33.8975L3414.52 251.002L3481.59 274.117L3556.42 57.0126L3489.36 33.8975ZM3451.15 93.8388L3528.92 80.405L3516.85 10.5052L3439.07 23.939L3451.15 93.8388ZM3464.02 108.311L3478.19 71.6856L3412.03 46.0923L3397.86 82.718L3464.02 108.311ZM3383.99 98.0819C3389.81 100.364 3395.24 104.595 3400.2 113.207L3461.68 77.8219C3449.68 56.9712 3432.46 40.9038 3409.92 32.0535L3383.99 98.0819ZM3348.76 94.3501C3365.21 93.0915 3376.34 94.9951 3383.68 97.9554L3410.23 32.18C3389.87 23.9575 3367.07 21.8067 3343.35 23.6222L3348.76 94.3501ZM3258.86 124.115C3291.46 105.852 3321.34 96.4479 3348.76 94.3501L3343.35 23.6222C3303.58 26.6648 3263.78 40.0519 3224.19 62.2301L3258.86 124.115ZM3159.3 210.552C3183.81 176.334 3216.67 147.478 3258.71 124.201L3224.34 62.1447C3174.05 89.9959 3132.87 125.626 3101.63 169.251L3159.3 210.552ZM3129.44 293.506C3127.28 272.4 3134.61 245.202 3159.35 210.481L3101.58 169.321C3071.19 211.98 3054.32 256.262 3058.88 300.737L3129.44 293.506ZM3143.88 316.365C3134.78 310.907 3130.55 304.32 3129.44 293.507L3058.88 300.737C3062.25 333.644 3079 360.161 3107.38 377.192L3143.88 316.365ZM3187.06 325.213C3169.44 326.562 3155.44 323.179 3143.65 316.227L3107.62 377.331C3133.27 392.455 3162.03 398.271 3192.48 395.941L3187.06 325.213ZM3249.32 307.639C3227.92 318.004 3207.22 323.671 3187.06 325.213L3192.48 395.941C3222.38 393.653 3251.68 385.309 3280.24 371.482L3249.32 307.639ZM3351.48 231.133C3313.62 268.074 3279.56 293.039 3249.36 307.621L3280.2 371.5C3319.57 352.492 3359.83 322.096 3401.02 281.904L3351.48 231.133ZM3401.9 291.726L3409.9 267.732L3342.6 245.306L3334.6 269.3L3401.9 291.726ZM3396.76 317.635C3396.47 314.874 3396.96 306.904 3401.98 291.497L3334.53 269.529C3328.44 288.228 3324.4 307.416 3326.19 324.865L3396.76 317.635ZM3390.09 308.124C3391.06 308.626 3392.99 309.942 3394.66 312.424C3396.3 314.87 3396.69 316.966 3396.76 317.635L3326.19 324.865C3328.24 344.855 3339.21 361.679 3357.53 371.147L3390.09 308.124ZM3403.91 308.62C3398.63 309.025 3394.9 308.874 3392.46 308.55C3389.99 308.224 3389.48 307.808 3390.09 308.124L3357.53 371.147C3373.72 379.507 3392.36 380.647 3409.32 379.348L3403.91 308.62ZM3454.1 291.32C3434.49 302.433 3417.87 307.552 3403.91 308.62L3409.32 379.348C3436.2 377.292 3462.89 367.874 3489.07 353.035L3454.1 291.32ZM3510.13 244.116C3491.72 264.917 3472.92 280.476 3453.88 291.447L3489.3 352.908C3516.01 337.514 3540.61 316.705 3563.25 291.133L3510.13 244.116ZM3507.43 294.965L3524.98 301.104L3548.4 234.145L3530.84 228.006L3507.43 294.965ZM3489.12 333.359C3506.03 323.727 3524.81 306.901 3544.79 285.978L3493.48 236.993C3474.5 256.88 3461.56 267.421 3454.02 271.716L3489.12 333.359ZM3457.99 344.136C3470.26 343.197 3481.25 337.938 3489.41 333.189L3453.72 271.886C3452.7 272.482 3451.86 272.929 3451.19 273.257C3450.52 273.586 3450.09 273.765 3449.88 273.844C3449.67 273.926 3449.78 273.871 3450.18 273.772C3450.57 273.674 3451.39 273.499 3452.57 273.408L3457.99 344.136ZM3427.19 337.348C3437.46 343.363 3448.38 344.871 3457.99 344.136L3452.57 273.408C3454.28 273.277 3458.42 273.434 3463.04 276.14L3427.19 337.348ZM3404.01 302.076C3405.74 319.037 3416.13 330.437 3426.28 336.796L3463.95 276.692C3465.25 277.504 3467.7 279.314 3470.01 282.6C3472.47 286.094 3474.11 290.341 3474.57 294.845L3404.01 302.076ZM3405.74 282.658C3404.47 287.573 3403.22 294.43 3404.01 302.076L3474.57 294.845C3474.79 296.973 3474.67 298.544 3474.58 299.334C3474.49 300.149 3474.38 300.542 3474.41 300.424L3405.74 282.658ZM3413.86 253.141L3405.88 282.123L3474.27 300.96L3482.25 271.978L3413.86 253.141ZM3345.98 39.6324C3317.84 41.7858 3290.57 52.2125 3264.46 68.7185L3302.36 128.676C3321.14 116.806 3337.39 111.432 3351.39 110.36L3345.98 39.6324ZM3412.6 52.9404C3392.63 40.9491 3369.35 37.8445 3345.98 39.6324L3351.39 110.36C3365.57 109.276 3372.73 111.74 3376.09 113.759L3412.6 52.9404ZM3449.83 116.536C3447.26 91.4817 3436.57 67.3295 3412.6 52.9404L3376.09 113.759C3376.39 113.935 3376.63 114.08 3377.06 114.869C3377.63 115.918 3378.73 118.541 3379.26 123.767L3449.83 116.536ZM3368.22 288.318C3423.78 236.357 3456.21 178.762 3449.83 116.536L3379.26 123.767C3382.4 154.344 3367.79 191.592 3319.77 236.514L3368.22 288.318ZM3234.74 356.542C3281.77 352.943 3326.36 327.677 3368.29 288.257L3319.7 236.575C3284.14 270.011 3254.08 283.92 3229.33 285.814L3234.74 356.542ZM3174.07 342.504C3192.63 353.6 3213.23 358.188 3234.74 356.542L3229.33 285.814C3221.85 286.386 3215.95 284.896 3210.47 281.62L3174.07 342.504ZM3136.77 283.553C3139.33 308.598 3152.28 329.131 3173.71 342.288L3210.82 281.836C3208.89 280.652 3208.34 279.827 3208.2 279.595C3208.05 279.365 3207.56 278.532 3207.33 276.323L3136.77 283.553ZM3171.32 164.902C3146.78 204.651 3132.79 244.781 3136.77 283.553L3207.33 276.323C3205.6 259.414 3211.24 235.272 3231.68 202.159L3171.32 164.902ZM3264.46 68.7185C3227.57 92.0407 3196.67 124.399 3171.43 164.715L3231.56 202.346C3251.96 169.75 3275.67 145.553 3302.36 128.676L3264.46 68.7185ZM899.02 649.062L2266.05 544.46L2260.63 473.732L893.608 578.334L899.02 649.062ZM119.046 708.744L899.02 649.062L893.608 578.334L113.634 638.016L119.046 708.744ZM154.792 700.699L151.623 669.765L81.0575 676.995L84.2271 707.93L154.792 700.699ZM896.777 609.269L116.804 668.95L122.216 739.678L902.189 679.996L896.777 609.269ZM2235.07 506.865L896.777 609.269L902.189 679.996L2240.49 577.593L2235.07 506.865ZM2266.49 523.451C2265.42 522.922 2266.02 523.035 2267.27 524.287C2268.68 525.693 2270.64 528.301 2271.78 532.123L2203.78 552.335C2209.25 570.727 2223.38 581.28 2235.11 587.066L2266.49 523.451ZM2275.53 525.278C2271.31 525.601 2269.09 524.828 2267.67 524.06L2233.93 586.457C2248.67 594.429 2264.75 597.245 2280.94 596.006L2275.53 525.278ZM2323.16 510.042C2302.28 520.099 2286.64 524.427 2275.53 525.278L2280.94 596.006C2304.08 594.235 2328.65 586.134 2353.94 573.951L2323.16 510.042ZM2336.29 502.904C2331.2 505.967 2326.92 508.265 2323.41 509.926L2353.7 574.068C2359.86 571.159 2366.27 567.654 2372.87 563.679L2336.29 502.904ZM3591.79 403.052L2351.87 497.928L2357.29 568.656L3597.2 473.78L3591.79 403.052ZM3556.05 411.097L3559.21 442.031L3629.78 434.8L3626.61 403.866L3556.05 411.097ZM2406.77 533.693L3594.03 442.845L3588.62 372.117L2401.35 462.965L2406.77 533.693ZM2419.46 439.962C2405.94 451.417 2393.53 461.547 2382.23 470.378L2425.89 526.279C2438.08 516.763 2451.22 506.022 2465.31 494.082L2419.46 439.962ZM2586.79 286.412C2541.48 332.618 2485.75 383.792 2419.46 439.961L2465.31 494.082C2532.77 436.926 2590.2 384.249 2637.44 336.078L2586.79 286.412ZM2676.01 186.737C2662.2 206.331 2633.08 239.204 2586.79 286.412L2637.44 336.078C2683.69 288.908 2716.5 252.404 2733.98 227.618L2676.01 186.737ZM2690.65 152.761C2691.04 156.533 2689.68 167.149 2675.91 186.882L2734.08 227.473C2751.57 202.414 2764.17 174.342 2761.22 145.53L2690.65 152.761ZM2690.17 150.513C2690.15 150.477 2690.2 150.56 2690.3 150.854C2690.39 151.161 2690.55 151.767 2690.65 152.761L2761.22 145.53C2760.11 134.697 2756.95 123.975 2751.05 114.113L2690.17 150.513ZM2732.59 95.6053C2727.72 95.9782 2722.5 96.4573 2716.93 97.037L2724.28 167.59C2729.31 167.066 2733.88 166.649 2738.01 166.333L2732.59 95.6053ZM2802.11 101.868C2782.31 94.6693 2758.11 93.6532 2732.59 95.6053L2738.01 166.333C2759.91 164.657 2772.18 166.463 2777.88 168.536L2802.11 101.868ZM2851.64 141.1C2839.17 123.227 2822.74 109.365 2802.11 101.868L2777.88 168.536C2782.76 170.31 2788.04 173.909 2793.46 181.687L2851.64 141.1ZM2895.18 221.844C2882.39 197.546 2872.52 178.902 2865.58 165.956C2862.12 159.496 2859.34 154.36 2857.27 150.615C2855.77 147.898 2853.44 143.656 2851.56 140.989L2793.54 181.798C2792.64 180.512 2792.75 180.512 2795.17 184.9C2797.02 188.258 2799.64 193.089 2803.05 199.457C2809.86 212.168 2819.64 230.627 2832.4 254.88L2895.18 221.844ZM2844.13 321.745C2868 293.888 2885.59 271.504 2894.49 256.13L2833.09 220.595C2827.89 229.578 2814.42 247.399 2790.27 275.593L2844.13 321.745ZM2777.75 384.454C2797.46 372.334 2819.82 350.124 2844.13 321.745L2790.27 275.593C2766.56 303.265 2750.23 318.102 2740.6 324.024L2777.75 384.454ZM2747.07 395.724C2759.77 394.753 2770.68 388.974 2778.26 384.134L2740.09 324.344C2739.26 324.87 2738.62 325.24 2738.16 325.488C2737.69 325.739 2737.47 325.831 2737.48 325.827C2737.49 325.825 2737.83 325.683 2738.47 325.512C2739.12 325.342 2740.2 325.108 2741.66 324.996L2747.07 395.724ZM2709.28 387.078C2718.87 391.412 2732.83 396.814 2747.07 395.724L2741.66 324.996C2743.48 324.857 2744.71 324.99 2745.15 325.048C2745.61 325.11 2745.64 325.149 2745.14 325.013C2744.08 324.722 2741.93 323.993 2738.48 322.436L2709.28 387.078ZM2691.98 382.792C2695.03 382.559 2700.52 383.103 2709.21 387.049L2738.55 322.465C2722.17 315.027 2704.6 310.685 2686.57 312.064L2691.98 382.792ZM2684.6 384.636C2684.78 384.497 2686.53 383.21 2691.98 382.792L2686.57 312.064C2670.95 313.26 2655.38 317.87 2642 327.914L2684.6 384.636ZM2689.46 370.505C2689.79 373.736 2689.19 377.43 2687.51 380.7C2686.01 383.64 2684.39 384.79 2684.6 384.636L2642 327.914C2628.04 338.403 2616.61 355.472 2618.89 377.735L2689.46 370.505ZM2682.99 359.364C2682.54 359.153 2684.13 359.805 2686.01 362.17C2688.08 364.796 2689.19 367.889 2689.46 370.506L2618.89 377.735C2621.22 400.458 2635.89 415.611 2652.82 423.564L2682.99 359.364ZM2702.17 362.312C2694.6 362.892 2688.22 361.708 2682.42 359.103L2653.39 423.826C2670.54 431.519 2688.82 434.476 2707.59 433.04L2702.17 362.312ZM2742.84 347.64C2727.73 357.045 2714.26 361.387 2702.17 362.312L2707.59 433.04C2733.04 431.093 2757.37 422.15 2780.33 407.858L2742.84 347.64ZM2845.81 238.824C2800.44 298.29 2766.2 332.927 2742.68 347.737L2780.48 407.762C2815.57 385.663 2856.29 342.027 2902.2 281.855L2845.81 238.824ZM2952.34 335.543C2953.75 336.915 2953.1 336.647 2950.02 331.702C2947.41 327.524 2944 321.543 2939.72 313.515C2931.19 297.506 2920.01 274.834 2906.11 245.251L2841.91 275.428C2856.01 305.431 2867.77 329.328 2877.12 346.869C2881.78 355.617 2886.04 363.157 2889.83 369.244C2893.15 374.565 2897.64 381.308 2902.93 386.438L2952.34 335.543ZM2970.88 341.751C2961.88 342.44 2956.96 340.152 2952.67 335.873L2902.59 386.108C2922.69 406.15 2948.42 414.612 2976.3 412.479L2970.88 341.751ZM2999.69 329.694C2984.71 338.812 2975.45 341.402 2970.88 341.751L2976.3 412.479C2996.76 410.913 3017.19 402.086 3036.58 390.284L2999.69 329.694ZM3061.95 272.891C3046.81 294.402 3026.28 313.427 2999.63 329.733L3036.64 390.245C3070.57 369.491 3098.59 344.063 3119.95 313.73L3061.95 272.891ZM3064.89 323.571L3082.75 327.816L3099.16 258.804L3081.3 254.559L3064.89 323.571ZM3049.46 359.689C3070.49 346.352 3088.18 329.525 3102.23 309.294L3043.96 268.836C3035.45 281.093 3024.72 291.381 3011.47 299.789L3049.46 359.689ZM3009.7 374.07C3024.41 372.944 3037.82 366.955 3049.24 359.831L3011.69 299.647C3008.84 301.426 3006.75 302.415 3005.39 302.935C3004.03 303.454 3003.72 303.385 3004.29 303.342L3009.7 374.07ZM2975.39 365.441C2984.71 371.046 2996.42 375.086 3009.7 374.07L3004.29 303.342C3009 302.981 3011.83 304.582 3011.96 304.656L2975.39 365.441ZM2943.15 322.763C2947.45 331.337 2951.74 339.074 2956.01 345.472C2959.59 350.838 2965.67 359.204 2974.48 364.875L3012.86 305.222C3014.28 306.131 3015.23 306.942 3015.73 307.395C3016.24 307.863 3016.5 308.16 3016.51 308.172C3016.53 308.193 3016.4 308.045 3016.12 307.673C3015.85 307.306 3015.47 306.784 3015 306.078C3013 303.083 3010.19 298.217 3006.56 290.978L2943.15 322.763ZM2891.69 219.356L2943.1 322.67L3006.61 291.07L2955.2 187.756L2891.69 219.356ZM2971.15 105.857C2946.55 121.503 2921.28 148.029 2895.28 182.002L2951.62 225.109C2975.96 193.293 2995.18 174.638 3009.22 165.712L2971.15 105.857ZM3014.74 89.6041C2998.64 90.8363 2983.79 97.7313 2971 105.95L3009.36 165.618C3013.03 163.263 3015.82 161.873 3017.78 161.094C3019.75 160.313 3020.48 160.307 3020.16 160.332L3014.74 89.6041ZM3053.78 92.3821C3038.62 90.3541 3024.35 88.8688 3014.74 89.6041L3020.16 160.332C3019.9 160.352 3021.57 160.264 3026.44 160.659C3030.87 161.019 3036.8 161.678 3044.37 162.691L3053.78 92.3821ZM3068.88 93.2557C3065.12 93.5441 3060.37 93.3938 3054.5 92.4855L3043.66 162.587C3053.97 164.182 3064.23 164.754 3074.3 163.984L3068.88 93.2557ZM3082.58 89.0607C3079.64 91.0462 3075.45 92.7535 3068.88 93.2557L3074.3 163.984C3091.44 162.672 3107.8 157.611 3122.24 147.874L3082.58 89.0607ZM3072.89 105.43C3072.93 105.874 3072.61 103.732 3073.82 100.259C3075.2 96.2561 3078.02 92.2615 3082.01 89.4538L3122.81 147.481C3141.86 134.089 3144.99 113.221 3143.45 98.1992L3072.89 105.43ZM3078.95 117.795C3080.49 118.492 3079.38 118.302 3077.56 116.272C3075.37 113.823 3073.36 109.992 3072.89 105.429L3143.45 98.1995C3140.94 73.6312 3123 59.8589 3108.16 53.1527L3078.95 117.795ZM3061.94 116.293C3072.67 115.472 3077.28 117.015 3078.42 117.551L3108.69 53.3973C3092.39 45.7062 3074.12 44.2192 3056.53 45.5652L3061.94 116.293ZM3044.99 119.536C3049.35 118.024 3054.91 116.831 3061.94 116.293L3056.53 45.5652C3044.46 46.4887 3032.78 48.6931 3021.75 52.5156L3044.99 119.536ZM3011.45 137.443C3025.51 128.09 3036.64 122.455 3045.08 119.506L3021.67 52.546C3005.75 58.111 2989.17 67.0669 2972.16 78.3817L3011.45 137.443ZM2978.1 164.035C2986.42 155.5 2997.31 146.653 3011.16 137.636L2972.46 78.1889C2955.19 89.4274 2940.01 101.489 2927.31 114.516L2978.1 164.035ZM2939.92 207.008L2979.2 162.849L2926.21 115.702L2886.92 159.861L2939.92 207.008ZM2852.7 151.754C2852.69 151.748 2853.55 152.689 2855.4 155.273C2857.14 157.701 2859.33 160.994 2862.01 165.278C2867.37 173.854 2874.12 185.524 2882.32 200.487L2944.52 166.382C2935.99 150.826 2928.52 137.863 2922.17 127.693C2916.24 118.204 2909.99 109.008 2903.88 102.643L2852.7 151.754ZM2821.33 128.893C2836.54 137.269 2846.35 144.898 2852.24 151.275L2904.33 103.123C2891.56 89.312 2874.8 77.3575 2855.54 66.7548L2821.33 128.893ZM2717.72 156.722L2845.02 132.675L2831.86 62.9731L2704.55 87.02L2717.72 156.722ZM2689.08 149.721C2689.39 149.907 2689.61 150.065 2689.78 150.19L2732.49 93.5523C2730.33 91.9266 2728.11 90.4267 2725.82 89.045L2689.08 149.721ZM2671.94 146.136C2679.86 145.53 2684.89 147.112 2688.69 149.483L2726.21 89.2826C2708.03 77.9549 2687.59 73.7966 2666.53 75.408L2671.94 146.136ZM2662.22 148.725C2662.77 148.294 2665.17 146.654 2671.94 146.136L2666.53 75.408C2649.58 76.7045 2632.75 81.7321 2618.56 92.8218L2662.22 148.725ZM2665.91 138.481C2666.06 139.975 2665.9 142.5 2664.66 145.189C2663.5 147.726 2662.13 148.792 2662.22 148.725L2618.56 92.8218C2602.73 105.187 2593.09 123.728 2595.34 145.713L2665.91 138.481ZM2662.56 130.813C2662.06 130.457 2662.82 130.887 2663.81 132.425C2664.89 134.112 2665.68 136.262 2665.91 138.482L2595.34 145.712C2597.3 164.847 2608.15 179.085 2621.2 188.448L2662.56 130.813ZM2671.99 133.463C2666.62 132.73 2663.35 131.292 2661.29 129.945L2622.47 189.315C2634.64 197.272 2648.25 201.817 2662.4 203.747L2671.99 133.463ZM2702.26 140.645C2696.01 137.421 2689.29 136.085 2686.03 135.468C2681.63 134.635 2676.53 133.947 2671.04 133.348L2663.34 203.863C2667.92 204.363 2670.99 204.817 2672.85 205.168C2673.78 205.343 2674.03 205.424 2673.82 205.364C2673.69 205.329 2673.29 205.212 2672.69 204.991C2672.12 204.783 2671.05 204.365 2669.7 203.667L2702.26 140.645ZM2725.29 173.845C2723.57 157.041 2712.77 146.075 2702.25 140.645L2669.7 203.667C2667.35 202.455 2663.78 200.098 2660.58 195.885C2657.2 191.436 2655.25 186.234 2654.72 181.075L2725.29 173.845ZM2720.13 203.101C2724.31 194.299 2726.36 184.341 2725.29 173.845L2654.72 181.074C2654.37 177.59 2655.14 174.589 2656.04 172.688L2720.13 203.101ZM2689.5 247.209C2703.35 230.209 2715.44 214.1 2720.69 201.863L2655.49 173.927C2655.55 173.785 2654.44 176.082 2650.39 181.811C2646.68 187.06 2641.45 193.884 2634.5 202.408L2689.5 247.209ZM2626.87 318.645C2644.31 300.628 2665.18 276.763 2689.39 247.342L2634.61 202.276C2611 230.968 2591.47 253.22 2575.89 269.321L2626.87 318.645ZM2546.35 397.491C2565.48 380.323 2592.39 353.939 2626.75 318.771L2576.02 269.195C2541.89 304.116 2516.31 329.136 2498.98 344.689L2546.35 397.491ZM2450.91 229.093L2488.24 379.626L2557.09 362.553L2519.76 212.02L2450.91 229.093ZM2434.94 177.011C2437.87 182.493 2443.37 198.35 2450.89 229.008L2519.78 212.105C2512.48 182.374 2505.24 158.053 2497.49 143.568L2434.94 177.011ZM2415.91 154.789C2426.46 164.224 2432.11 171.629 2434.82 176.797L2497.61 143.781C2489.61 128.569 2477.47 114.679 2463.18 101.905L2415.91 154.789ZM2305.18 196.228L2447.63 162.881L2431.46 93.8135L2289.01 127.161L2305.18 196.228ZM2334.36 156.789L2328.74 145.683L2265.45 177.705L2271.07 188.811L2334.36 156.789ZM2336.87 132.745C2328.56 133.38 2315.15 135.121 2297.55 137.71L2307.88 207.889C2325.6 205.282 2336.75 203.896 2342.28 203.473L2336.87 132.745ZM2406.08 145.126C2386.14 132.475 2360.59 130.93 2336.87 132.745L2342.28 203.473C2351.4 202.775 2358.03 203.024 2362.61 203.695C2367.27 204.378 2368.54 205.314 2368.08 205.022L2406.08 145.126ZM2448.31 224.048C2444.06 206.9 2439.2 191.666 2433.38 179.194C2428.03 167.705 2419.74 153.789 2406.08 145.126L2368.08 205.022C2364.36 202.664 2365.51 201.485 2369.09 209.162C2372.21 215.855 2375.77 226.217 2379.45 241.093L2448.31 224.048ZM2496.08 418.1L2448.32 224.093L2379.44 241.048L2427.2 435.055L2496.08 418.1ZM2418.14 509.596C2448.04 486.689 2471.25 467.24 2486.81 451.56L2436.46 401.595C2424.35 413.806 2404.18 430.931 2375 453.283L2418.14 509.596ZM2388.62 530.619C2398.08 524.391 2407.89 517.394 2418.04 509.666L2375.09 453.213C2366.01 460.121 2357.52 466.167 2349.59 471.387L2388.62 530.619ZM2305.99 541.404L2371.81 536.367L2366.4 465.639L2300.58 470.676L2305.99 541.404ZM2291.16 539.189C2289.03 538.546 2287.39 537.771 2286.26 537.151L2320.32 474.928C2317.9 473.605 2315.02 472.298 2311.71 471.296L2291.16 539.189ZM2287.55 539.07C2289.22 538.942 2290.22 538.987 2290.66 539.028C2291.1 539.069 2290.79 539.088 2289.96 538.803L2312.91 471.682C2302.45 468.108 2291.75 467.607 2282.14 468.342L2287.55 539.07ZM2277.92 541.431C2280.65 540.199 2283.78 539.359 2287.55 539.07L2282.14 468.342C2270.58 469.226 2259.38 471.98 2248.77 476.762L2277.92 541.431ZM1826.18 330.043L1876.1 185.616L1809.06 162.444L1759.14 306.871L1826.18 330.043ZM1833.36 213.603C1812.9 233.664 1789.71 262 1763.92 297.678L1821.41 339.236C1846.19 304.949 1866.69 280.268 1883.02 264.257L1833.36 213.603ZM1928.38 144.351C1895.73 160.204 1864.12 183.595 1833.42 213.544L1882.96 264.317C1909.59 238.334 1935.1 219.942 1959.36 208.161L1928.38 144.351ZM1994.98 126.798C1971.7 128.579 1949.52 134.348 1928.7 144.194L1959.03 208.319C1971.77 202.296 1985.47 198.668 2000.39 197.526L1994.98 126.798ZM2055.55 137.197C2036.87 127.861 2016.08 125.183 1994.98 126.798L2000.39 197.526C2012.21 196.621 2019.44 198.451 2023.84 200.651L2055.55 137.197ZM2093.88 189.428C2091.27 163.999 2074.91 146.869 2055.55 137.197L2023.84 200.651C2026.11 201.786 2025.99 202.213 2025.16 201.155C2024.74 200.612 2024.27 199.856 2023.9 198.932C2023.53 198.012 2023.37 197.208 2023.31 196.658L2093.88 189.428ZM2084.77 245.224C2091.28 226.623 2095.71 207.26 2093.88 189.428L2023.31 196.658C2023.56 199.035 2023.12 206.649 2017.82 221.792L2084.77 245.224ZM2057.93 325.956L2084.95 244.699L2017.64 222.317L1990.62 303.573L2057.93 325.956ZM2144.25 140.795C2093.41 173.262 2043.93 225.318 1995.28 294.331L2053.26 335.198C2099.08 270.197 2142.31 226.201 2182.43 200.578L2144.25 140.795ZM2237.51 108.24C2204.88 110.737 2173.72 122.035 2144.29 140.767L2182.38 200.607C2203.43 187.209 2223.52 180.453 2242.92 178.968L2237.51 108.24ZM2295.93 119.907C2277.97 109.601 2257.72 106.694 2237.51 108.24L2242.92 178.968C2253.01 178.196 2258.13 179.998 2260.62 181.43L2295.93 119.907ZM2331.45 175.926C2329.06 152.567 2317.58 131.475 2295.01 119.397L2261.54 181.94C2261.68 182.014 2261.53 181.949 2261.24 181.68C2260.94 181.404 2260.68 181.083 2260.5 180.797C2260.33 180.525 2260.35 180.472 2260.45 180.789C2260.56 181.123 2260.75 181.872 2260.89 183.156L2331.45 175.926ZM2324.87 229.342C2330.66 211.741 2333.28 193.778 2331.45 175.925L2260.89 183.156C2261.51 189.225 2260.81 197.082 2257.48 207.198L2324.87 229.342ZM2282.78 354.101L2324.78 229.609L2257.57 206.931L2215.57 331.423L2282.78 354.101ZM2271.14 384.124C2271.4 386.676 2271.3 388.627 2271.25 389.436C2271.18 390.396 2271.09 391.078 2271.04 391.354C2270.96 391.882 2270.93 391.943 2271.08 391.309C2271.36 390.08 2271.95 387.864 2272.97 384.396C2275 377.556 2278.23 367.54 2282.77 354.132L2215.58 331.392C2210.94 345.082 2207.37 356.111 2204.96 364.264C2203.76 368.292 2202.72 372.059 2201.97 375.301C2201.6 376.901 2201.2 378.819 2200.89 380.826C2200.71 382.089 2200.06 386.325 2200.58 391.356L2271.14 384.124ZM2258.82 364.118C2260.44 365.055 2263.3 367.047 2265.96 370.673C2268.8 374.535 2270.64 379.214 2271.14 384.124L2200.58 391.356C2202.33 408.516 2213.18 419.669 2223.31 425.53L2258.82 364.118ZM2246.48 361.021C2248.19 360.89 2253.49 360.869 2259.5 364.526L2222.63 425.122C2232.88 431.364 2243.6 432.383 2251.9 431.749L2246.48 361.021ZM2248.06 358.515C2246.5 359.423 2245.18 360.146 2244.09 360.71C2243 361.28 2242.24 361.633 2241.78 361.831C2241.29 362.042 2241.37 361.979 2241.91 361.817C2242.2 361.729 2242.72 361.586 2243.43 361.441C2244.13 361.297 2245.17 361.121 2246.48 361.021L2251.9 431.749C2259.46 431.17 2265.98 428.644 2269.88 426.96C2274.42 425.004 2279.09 422.525 2283.69 419.854L2248.06 358.515ZM2289.05 325.135C2276.3 338.875 2262.57 349.965 2247.87 358.626L2283.88 419.743C2304.86 407.383 2323.91 391.854 2341.05 373.378L2289.05 325.135ZM2342.5 320.622L2325.53 315.373L2304.57 383.139L2321.54 388.388L2342.5 320.622ZM2314.02 419.336C2333.8 403.134 2349.57 388.863 2359.28 377.189L2304.75 331.821C2299.69 337.906 2288.48 348.562 2269.07 364.457L2314.02 419.336ZM2255.49 457.829C2274.07 449.653 2293.75 436.192 2314.22 419.166L2268.86 364.627C2250.8 379.649 2236.92 388.501 2226.92 392.904L2255.49 457.829ZM2203.71 471.601C2221.06 470.273 2238.39 465.355 2255.49 457.829L2226.92 392.904C2215.44 397.957 2205.97 400.286 2198.3 400.873L2203.71 471.601ZM2154.82 462.554C2170.25 470.525 2187.07 472.874 2203.71 471.601L2198.3 400.873C2191.88 401.364 2188.77 400.25 2187.38 399.532L2154.82 462.554ZM2122.58 417.276C2124.84 439.274 2138.91 453.959 2154.23 462.241L2187.97 399.845C2187.24 399.449 2188.42 399.923 2189.95 401.938C2191.68 404.214 2192.85 407.139 2193.15 410.046L2122.58 417.276ZM2138.39 341.07C2132.98 357.107 2128.8 371.161 2126.08 382.949C2123.6 393.71 2121.44 406.137 2122.58 417.276L2193.15 410.045C2193.28 411.285 2192.97 408.555 2195.2 398.898C2197.19 390.268 2200.58 378.645 2205.61 363.746L2138.39 341.07ZM2173.18 238.298L2138.41 341.037L2205.6 363.779L2240.37 261.041L2173.18 238.298ZM2184.16 204.756C2184.47 202.826 2184.81 201.955 2184.12 204.355C2183.66 205.931 2182.95 208.251 2181.95 211.417C2179.96 217.714 2177.03 226.71 2173.12 238.49L2240.44 260.85C2244.39 248.957 2247.45 239.568 2249.6 232.766C2251.22 227.619 2253.47 220.515 2254.2 215.99L2184.16 204.756ZM2184.2 202.429C2184.26 202.995 2184.28 203.895 2184.09 205.221L2254.27 215.526C2255.25 208.864 2255.47 202.058 2254.77 195.199L2184.2 202.429ZM2193.15 216.684C2190.78 215.103 2188.41 212.74 2186.64 209.658C2184.93 206.668 2184.37 204.009 2184.2 202.43L2254.77 195.199C2253.29 180.716 2246.17 166.768 2232.48 157.648L2193.15 216.684ZM2201.74 219.219C2200.71 219.299 2199.37 219.239 2197.9 218.886C2196.43 218.533 2195.24 217.985 2194.38 217.464L2231.26 156.867C2220.69 150.437 2208.7 147.544 2196.33 148.491L2201.74 219.219ZM2176.58 229.714C2187.39 222.259 2195.67 219.684 2201.74 219.219L2196.33 148.491C2174.74 150.143 2154.63 158.679 2136.3 171.328L2176.58 229.714ZM2069.47 340.543C2102.14 293.211 2137.95 256.514 2176.66 229.661L2136.22 171.381C2089.4 203.864 2047.78 247.086 2011.09 300.254L2069.47 340.543ZM2012.9 457.479C2029.91 409.124 2048.92 370.381 2069.49 340.519L2011.07 300.277C1986 336.677 1964.44 381.474 1945.99 433.937L2012.9 457.479ZM1907.56 486.779L1982.15 481.072L1976.74 410.344L1902.15 416.051L1907.56 486.779ZM1936.54 246.466L1871.25 440.082L1938.46 462.748L2003.75 269.133L1936.54 246.466ZM1944.54 219.832C1944.35 217.911 1944.55 217.171 1944.41 218.336C1944.29 219.305 1944 221.031 1943.38 223.677C1942.15 228.999 1939.96 236.454 1936.59 246.327L2003.71 269.272C2007.48 258.229 2010.48 248.296 2012.47 239.757C2014.23 232.216 2016.09 222.203 2015.11 212.602L1944.54 219.832ZM1954.5 234.446C1951.33 232.489 1948.62 229.669 1946.78 226.391C1945.06 223.316 1944.64 220.814 1944.54 219.833L2015.11 212.602C2013.69 198.783 2007.12 183.559 1991.74 174.073L1954.5 234.446ZM1962.08 236.622C1961.7 236.651 1960.67 236.68 1959.2 236.358C1957.68 236.026 1956.05 235.397 1954.5 234.446L1991.74 174.073C1980.51 167.146 1968.22 165.011 1956.67 165.894L1962.08 236.622ZM1941.51 243.004C1949.86 238.798 1956.65 237.038 1962.08 236.622L1956.67 165.894C1940.36 167.142 1924.61 172.095 1909.6 179.652L1941.51 243.004ZM1879.46 293.833C1907.34 265.751 1927.84 249.905 1941.54 242.992L1909.58 179.664C1885.41 191.861 1858.4 214.361 1829.12 243.861L1879.46 293.833ZM1820.67 367.856C1833.38 345.784 1852.73 321.057 1879.59 293.698L1828.98 243.996C1799.35 274.169 1775.79 303.647 1759.2 332.453L1820.67 367.856ZM1775.43 476.631C1787.71 444.853 1797.7 419.767 1805.45 401.252C1813.53 381.95 1818.38 371.739 1820.48 368.189L1759.4 332.119C1754.42 340.542 1747.8 355.267 1740.02 373.863C1731.91 393.247 1721.64 419.022 1709.26 451.068L1775.43 476.631ZM1671.95 504.808L1745.05 499.214L1739.64 428.486L1666.53 434.08L1671.95 504.808ZM1706.52 250.535L1635.68 457.982L1702.8 480.906L1773.65 273.46L1706.52 250.535ZM1715.71 223.633L1706.52 250.525L1773.64 273.47L1782.84 246.578L1715.71 223.633ZM1716.56 229.795C1716.25 226.735 1716.46 224.33 1716.66 222.934C1716.86 221.483 1717.13 220.462 1717.26 219.989C1717.51 219.119 1717.61 219.087 1717.11 220.154L1781.44 250.057C1782.84 247.029 1784.32 243.462 1785.43 239.617C1786.39 236.266 1787.89 230.017 1787.13 222.564L1716.56 229.795ZM1726.66 247.427C1727.6 247.833 1725.85 247.278 1723.42 244.812C1720.57 241.91 1717.28 236.777 1716.56 229.795L1787.13 222.564C1784.65 198.375 1765.41 186.898 1754.8 182.315L1726.66 247.427ZM1717.67 246.594C1723.8 246.125 1725.94 247.11 1725.89 247.086L1755.57 182.656C1741.58 176.216 1726.55 174.773 1712.26 175.866L1717.67 246.594ZM1686.96 252.398C1696.43 250.442 1703.86 248.976 1709.34 247.973C1712.09 247.471 1714.21 247.111 1715.77 246.869C1717.51 246.6 1717.98 246.571 1717.67 246.594L1712.26 175.866C1705.17 176.409 1690.76 179.18 1672.61 182.93L1686.96 252.398ZM1642.52 222.569L1648.14 233.675L1711.43 201.653L1705.81 190.547L1642.52 222.569ZM1835.86 139.206L1667.44 171.735L1680.89 241.382L1849.31 208.854L1835.86 139.206ZM1354.24 254.447L1645.17 232.185L1639.76 161.457L1348.82 183.719L1354.24 254.447ZM1381.69 241.651L1385.43 229.518L1317.63 208.648L1313.9 220.781L1381.69 241.651ZM1447.63 245.421C1444.59 215.745 1418.83 204.412 1404.63 200.493C1388.64 196.079 1368.55 195.074 1346.67 195.766L1348.92 266.666C1368.72 266.039 1380.23 267.344 1385.76 268.87C1388.46 269.617 1387.26 269.768 1384.79 267.697C1381.52 264.958 1377.79 259.711 1377.06 252.651L1447.63 245.421ZM1412.15 361.342C1423.72 332.286 1432.51 308.885 1438.35 291.416C1441.25 282.725 1443.61 274.969 1445.21 268.44C1446.42 263.518 1448.55 254.36 1447.63 245.42L1377.06 252.651C1376.58 247.939 1377.65 246.085 1376.32 251.542C1375.37 255.392 1373.69 261.091 1371.07 268.931C1365.86 284.523 1357.64 306.487 1346.25 335.098L1412.15 361.342ZM1354.66 476.249C1363.98 466.172 1372.83 450.229 1381.22 432.977C1390.19 414.542 1400.51 390.563 1412.15 361.342L1346.25 335.098C1334.92 363.545 1325.33 385.725 1317.44 401.939C1313.49 410.045 1310.14 416.313 1307.37 420.955C1306 423.259 1304.86 424.998 1303.97 426.263C1303.53 426.886 1303.18 427.345 1302.93 427.664C1302.67 427.986 1302.55 428.112 1302.58 428.087L1354.66 476.249ZM1300.86 506.075C1323.86 504.315 1341.85 490.512 1355 475.872L1302.23 428.465C1298.65 432.449 1296.11 434.382 1294.74 435.213C1293.49 435.973 1293.81 435.472 1295.45 435.347L1300.86 506.075ZM1265.42 499.714C1275.88 503.995 1288.01 507.058 1300.86 506.075L1295.45 435.347C1296.35 435.278 1296.6 435.399 1296.02 435.284C1295.43 435.167 1294.21 434.85 1292.28 434.063L1265.42 499.714ZM1249.58 496.281C1252.69 496.043 1257.73 496.531 1265.28 499.657L1292.42 434.12C1277.09 427.772 1260.81 424.279 1244.17 425.553L1249.58 496.281ZM1246.43 496.704C1247.17 496.547 1248.21 496.386 1249.58 496.281L1244.17 425.553C1240.04 425.869 1235.91 426.429 1231.81 427.293L1246.43 496.704ZM1259.89 404.915C1246.62 414.802 1233.46 423.774 1220.43 431.852L1257.8 492.144C1272.66 482.936 1287.48 472.816 1302.26 461.803L1259.89 404.915ZM1248.98 453.908L1260.27 462.085L1301.88 404.633L1290.59 396.455L1248.98 453.908ZM1188.37 506.48C1212.96 497.444 1246.46 480.061 1287.77 455.749L1251.8 394.614C1211.1 418.562 1182.17 433.184 1163.9 439.899L1188.37 506.48ZM1111.59 522.74C1138.31 520.696 1163.89 515.337 1188.2 506.54L1164.06 439.839C1146.13 446.329 1126.88 450.428 1106.18 452.012L1111.59 522.74ZM1015.29 505.604C1044.21 520.289 1076.79 525.403 1111.59 522.74L1106.18 452.012C1081.71 453.885 1062.59 450.068 1047.4 442.355L1015.29 505.604ZM960.127 432.956C963.632 467.169 986.442 490.703 1015.07 505.491L1047.62 442.469C1032.1 434.447 1030.95 428.222 1030.69 425.726L960.127 432.956ZM961.018 399.208C959.608 411.05 959.061 422.553 960.127 432.956L1030.69 425.726C1030.36 422.518 1030.37 416.727 1031.46 407.594L961.018 399.208ZM1139.2 337.85C1105.8 348.31 1056.73 358.557 991.025 368.319L1001.45 438.483C1068.47 428.528 1121.77 417.639 1160.4 405.544L1139.2 337.85ZM1248.19 285.52C1226.89 303.66 1191.63 321.613 1139.31 337.818L1160.3 405.577C1216.71 388.104 1262.37 366.611 1294.18 339.533L1248.19 285.52ZM1263.46 264.462C1263.5 264.786 1264.34 271.613 1248.04 285.653L1294.33 339.4C1318.29 318.767 1337.5 291.14 1334.03 257.231L1263.46 264.462ZM1256.36 263.824C1259.31 265.087 1261.42 266.239 1262.89 267.179C1264.35 268.119 1264.98 268.73 1265.11 268.87C1265.22 268.979 1264.83 268.596 1264.37 267.664C1263.9 266.69 1263.58 265.562 1263.46 264.462L1334.03 257.231C1330.82 225.927 1306.53 208.148 1284.29 198.619L1256.36 263.824ZM1194.11 259.217C1227.27 256.68 1246.62 259.655 1256.36 263.824L1284.29 198.619C1258.61 187.622 1225.36 185.684 1188.7 188.489L1194.11 259.217ZM1068.45 293.449C1108.39 273.955 1150.2 262.577 1194.11 259.217L1188.7 188.489C1135.8 192.538 1085.27 206.308 1037.34 229.703L1068.45 293.449ZM974.389 367.03C997.68 337.277 1028.68 312.664 1068.32 293.511L1037.46 229.641C989.192 252.964 949.24 284.079 918.533 323.305L974.389 367.03ZM945.967 439.379C944.084 420.997 950.67 397.33 974.389 367.03L918.533 323.305C888.253 361.986 870.988 403.536 875.402 446.61L945.967 439.379ZM973.005 473.26C952.21 459.739 946.857 448.066 945.967 439.379L875.402 446.61C879.203 483.706 902.508 512.033 934.338 532.729L973.005 473.26ZM981.691 478.061C978.524 476.578 975.638 474.972 973.005 473.26L934.338 532.729C939.838 536.305 945.605 539.49 951.611 542.302L981.691 478.061ZM908.055 532.242C924.57 541.283 944.718 544.739 965.127 545.616L968.175 474.747C952.363 474.067 944.801 471.489 942.118 470.021L908.055 532.242ZM842.961 472.531C867.405 500.009 889.507 521.782 907.66 532.022L942.513 470.24C936.008 466.571 921.026 453.561 895.959 425.384L842.961 472.531ZM767.934 387.419L842.854 472.411L896.066 425.504L821.147 340.513L767.934 387.419ZM761.29 379.95L768.041 387.54L821.04 340.392L814.288 332.802L761.29 379.95ZM737.056 360.737C742.471 361.876 750.227 365.745 759.701 378.032L815.877 334.72C799.324 313.25 778.124 296.887 751.655 291.321L737.056 360.737ZM799.643 256.428C782.417 272.701 761.128 284.615 734.93 291.837L753.782 360.221C790.2 350.181 822.006 332.883 848.354 307.993L799.643 256.428ZM858.295 175.12C837.809 212.713 818.143 239.19 799.821 256.261L848.176 308.16C874.087 284.019 898.047 250.416 920.582 209.062L858.295 175.12ZM886.67 130.287C878.191 139.627 868.44 156.224 858.191 175.313L920.687 208.869C925.791 199.362 930.02 191.956 933.414 186.47C935.106 183.736 936.484 181.652 937.566 180.123C938.702 178.516 939.227 177.927 939.188 177.969L886.67 130.287ZM931.659 109.33C915.435 110.571 899.687 116.743 887.376 129.532L938.483 178.724C938.259 178.956 937.963 179.218 937.603 179.469C937.244 179.72 936.903 179.903 936.625 180.025C936.048 180.279 936.062 180.135 937.071 180.058L931.659 109.33ZM974.656 119.148C962.239 112.99 947.422 108.124 931.659 109.33L937.071 180.058C935.961 180.143 935.821 179.942 936.957 180.231C938.106 180.523 940.137 181.208 943.142 182.697L974.656 119.148ZM1007.3 128.483C1000.85 128.977 990.498 127.326 975.177 119.412L942.62 182.434C965.146 194.07 988.869 201.036 1012.71 199.211L1007.3 128.483ZM1020.95 124.652C1019.92 125.509 1016.46 127.782 1007.3 128.483L1012.71 199.211C1031.87 197.746 1050.83 192.068 1066.31 179.191L1020.95 124.652ZM1019.31 131.315C1019.26 130.801 1019.24 129.99 1019.4 128.977C1019.56 127.953 1019.86 126.967 1020.25 126.095C1021.06 124.313 1021.82 123.935 1020.95 124.652L1066.31 179.191C1082.05 166.098 1092.23 147.042 1089.87 124.085L1019.31 131.315ZM1017.55 134.068C1019.34 134.864 1020.43 135.525 1021.02 135.935C1021.6 136.337 1021.6 136.427 1021.3 136.089C1020.98 135.721 1020.48 135.029 1020.04 134.027C1019.6 133.017 1019.38 132.058 1019.31 131.315L1089.87 124.085C1086.99 95.901 1067.24 78.5662 1046.47 69.2936L1017.55 134.068ZM982.206 129.839C999.933 128.483 1010.68 130.822 1016.83 133.736L1047.19 69.6254C1026.14 59.6559 1001.88 57.1919 976.794 59.1111L982.206 129.839ZM934.441 145.963C944.133 137.917 959.03 131.612 982.206 129.839L976.794 59.1111C943.329 61.6718 913.084 71.5001 889.131 91.3852L934.441 145.963ZM884.527 213.017C905.809 176.601 922.5 155.719 934.224 146.142L889.348 91.2067C867.384 109.149 845.488 139.231 823.284 177.226L884.527 213.017ZM831.515 287.606C848.147 269.861 865.764 244.591 884.395 213.241L823.416 177.002C805.813 206.621 791.251 226.837 779.761 239.096L831.515 287.606ZM766.844 331.051C791.754 320.894 813.469 306.567 831.328 287.804L779.948 238.898C769.641 249.726 756.567 258.637 740.062 265.367L766.844 331.051ZM667.799 350.622C707.696 347.57 741.504 341.52 766.995 330.989L739.911 265.428C724.646 271.735 699.547 277.051 662.387 279.894L667.799 350.622ZM633.222 353.268L667.799 350.622L662.387 279.894L627.81 282.54L633.222 353.268ZM638.893 188.984L597.115 305.976L663.918 329.832L705.696 212.84L638.893 188.984ZM685.95 116.988C663.889 133.194 649.279 159.624 638.857 189.084L705.731 212.74C714.353 188.366 722.845 177.902 727.946 174.155L685.95 116.988ZM774.965 91.0784C740.126 93.7441 707.769 100.6 685.65 117.211L728.246 173.932C733.246 170.178 748.037 164.281 780.377 161.806L774.965 91.0784ZM746.769 105.167L743.496 116.952L811.845 135.932L815.118 124.146L746.769 105.167ZM519.384 170.242L783.649 150.02L778.238 79.2925L513.972 99.5135L519.384 170.242ZM548.414 154.79L551.193 143.042L482.163 126.713L479.384 138.461L548.414 154.79ZM574.986 113.377C557.047 109.674 535.285 109.418 511.193 111.262L516.605 181.99C537.957 180.356 552.14 181.091 560.647 182.847L574.986 113.377ZM625.14 165.257C623.802 152.204 618.376 139.466 607.81 129.513C597.824 120.106 585.73 115.519 574.757 113.33L560.877 182.893C563.456 183.408 561.812 183.634 559.173 181.147C557.804 179.858 556.597 178.223 555.74 176.399C554.906 174.625 554.647 173.199 554.574 172.488L625.14 165.257ZM609.611 242.033C615.061 226.799 619.282 212.99 621.984 200.861C624.57 189.26 626.325 176.826 625.14 165.257L554.574 172.488C554.565 172.4 554.66 173.384 554.412 175.806C554.171 178.153 553.664 181.323 552.748 185.433C550.904 193.709 547.691 204.528 542.821 218.142L609.611 242.033ZM576.01 336.516L609.633 241.972L542.799 218.203L509.176 312.747L576.01 336.516ZM501.831 363.322L545.299 359.996L539.887 289.268L496.419 292.594L501.831 363.322ZM405.166 355.132C430.424 364.819 464.069 366.211 501.831 363.322L496.419 292.594C461.075 295.298 440.549 292.729 430.57 288.902L405.166 355.132ZM353.337 287.964C354.841 302.648 359.79 316.866 369.312 329.129C378.779 341.32 391.258 349.642 404.844 355.006L430.892 289.027C426.839 287.427 425.623 285.989 425.34 285.624C425.112 285.331 424.257 284.197 423.902 280.733L353.337 287.964ZM354.156 246.591C352.863 263.091 352.278 277.631 353.336 287.963L423.902 280.733C423.566 277.455 423.578 268.671 424.874 252.133L354.156 246.591ZM354.938 216.134C355.398 220.629 355.4 230.246 354.15 246.67L424.88 252.054C426.176 235.028 426.648 220.083 425.503 208.904L354.938 216.134ZM339.252 192.125C348.87 197.094 353.658 203.643 354.938 216.134L425.503 208.904C421.88 173.55 403.542 145.496 371.808 129.103L339.252 192.125ZM288.2 182.943C308.906 181.359 325.414 184.845 339.014 192.002L372.046 129.227C344.954 114.971 314.772 109.768 282.788 112.215L288.2 182.943ZM249.456 193.261C258.834 188.053 271.393 184.229 288.2 182.943L282.788 112.215C258.103 114.104 235.157 120.063 215.018 131.247L249.456 193.261ZM247.03 187.019C247.2 188.68 247.073 190.599 246.528 192.516C245.996 194.389 245.243 195.646 244.801 196.258C244.397 196.817 244.344 196.718 245.108 196.093C245.873 195.468 247.243 194.49 249.456 193.261L215.018 131.247C195.766 141.939 173.179 162.189 176.464 194.249L247.03 187.019ZM245.834 181.51C243.515 180.353 243.695 179.958 244.638 181.127C245.137 181.745 245.719 182.646 246.2 183.805C246.682 184.969 246.934 186.086 247.03 187.019L176.464 194.249C179.054 219.524 195.906 235.869 214.155 244.978L245.834 181.51ZM261.828 184.59C256.952 184.963 251.5 184.134 244.966 181.091L215.023 245.396C231.491 253.065 249.064 256.709 267.24 255.318L261.828 184.59ZM286.54 172.741C275.131 181.645 267.001 184.194 261.828 184.59L267.24 255.318C290.387 253.547 311.476 243.261 330.183 228.66L286.54 172.741ZM330.327 153.472C313.065 154.793 298.096 163.792 286.648 172.656L330.075 228.744C333.458 226.125 335.767 224.779 337.049 224.162C338.375 223.525 337.824 224.04 335.739 224.2L330.327 153.472ZM391.864 215.843C390.497 202.501 386.971 186.853 377.161 174.096C365.5 158.931 348.274 152.099 330.327 153.472L335.739 224.2C334.349 224.306 331.499 224.217 328.097 222.755C324.618 221.26 322.251 219.055 320.93 217.338C319.767 215.825 319.717 215.104 320.068 216.209C320.409 217.285 320.928 219.454 321.298 223.073L391.864 215.843ZM391.853 253.457C392.541 237.863 392.758 224.568 391.864 215.843L321.298 223.073C321.588 225.897 321.697 234.226 320.987 250.331L391.853 253.457ZM391.523 285.393C391.148 281.741 391.046 271.851 391.853 253.449L320.987 250.34C320.202 268.225 319.979 283.077 320.957 292.623L391.523 285.393ZM425.59 311.415C410.388 308.01 402.211 303.251 397.998 299.352C394.463 296.08 392.211 292.112 391.523 285.393L320.957 292.623C323.291 315.396 332.816 335.676 349.814 351.409C366.134 366.516 387.245 375.519 410.087 380.635L425.59 311.415ZM370.326 395.04C381.644 389.351 398.554 384.347 422.482 381.187L413.195 310.863C384.731 314.622 359.347 321.167 338.471 331.66L370.326 395.04ZM322.389 431.199C342.893 412.419 358.85 400.911 370.55 394.926L338.247 331.774C318.412 341.92 297.058 358.208 274.478 378.89L322.389 431.199ZM197.965 544.309L322.291 431.289L274.576 378.8L150.25 491.82L197.965 544.309ZM125.468 598.604C146.268 588.053 170.693 569.097 197.963 544.311L150.252 491.818C124.087 515.6 105.389 529.25 93.3776 535.343L125.468 598.604ZM59.3338 616.665C82.5003 614.893 104.528 608.952 125.133 598.771L93.7125 535.175C81.4654 541.226 68.296 544.838 53.922 545.937L59.3338 616.665ZM85.7464 605.153L90.0071 593.292L23.2487 569.311L18.988 581.173L85.7464 605.153ZM197.847 546.46L49.6612 557.799L55.0732 628.527L203.259 617.188L197.847 546.46ZM389.18 369.623L177.196 555.134L223.911 608.514L435.894 423.004L389.18 369.623ZM449.204 324.801C440.426 328.453 430.938 335.23 422.634 341.632C413.383 348.762 402.15 358.193 389.088 369.704L435.987 422.923C448.493 411.901 458.427 403.604 465.94 397.813C474.4 391.292 477.272 389.952 476.452 390.294L449.204 324.801ZM517.965 313.393C502.364 314.586 489.009 315.979 478.159 317.628C468.172 319.146 457.437 321.271 448.858 324.947L476.799 390.147C476.486 390.281 479.524 389.17 488.817 387.758C497.249 386.476 508.682 385.245 523.377 384.121L517.965 313.393ZM531.796 312.334L517.965 313.393L523.377 384.121L537.208 383.062L531.796 312.334ZM524.371 483.163L567.953 359.486L501.05 335.911L457.468 459.588L524.371 483.163ZM475.184 565.859C487.029 556.963 496.1 544.272 503.334 531.356C510.821 517.988 517.769 501.761 524.343 483.24L457.496 459.511C451.708 475.815 446.303 488.02 441.445 496.693C439.038 500.99 436.958 504.074 435.28 506.202C434.456 507.248 433.792 507.982 433.307 508.472C432.821 508.963 432.574 509.148 432.588 509.137L475.184 565.859ZM385.466 591.705C404.38 589.926 421.289 587.268 435.739 583.462C449.77 579.767 463.809 574.401 475.184 565.859L432.588 509.137C431.636 509.852 427.554 512.264 417.672 514.867C408.207 517.36 395.409 519.522 378.822 521.082L385.466 591.705ZM413.88 576.306L416.659 564.558L347.629 548.229L344.85 559.977L413.88 576.306ZM637.467 512.821L376.659 532.778L382.071 603.506L642.879 583.549L637.467 512.821ZM611.992 523.126L607.237 535.025L673.108 561.346L677.863 549.446L611.992 523.126ZM531.04 520.974C534.337 553.153 563.612 564.2 578.828 567.864C596.929 572.222 620.255 572.976 646.625 571.713L643.23 500.859C618.739 502.033 603.534 500.851 595.433 498.9C591.376 497.923 591.714 497.347 593.742 498.909C596.669 501.163 600.84 506.275 601.605 513.744L531.04 520.974ZM540.09 474.201C537.155 482.567 534.75 490.381 533.141 497.369C531.711 503.579 530.143 512.224 531.04 520.975L601.605 513.744C601.81 515.746 601.635 516.783 601.69 516.308C601.729 515.968 601.87 515.008 602.266 513.288C603.069 509.803 604.566 504.692 607.026 497.68L540.09 474.201ZM588.816 329.641L539.948 474.611L607.167 497.27L656.035 352.3L588.816 329.641ZM682.444 313.731C663.715 305.918 642.184 304.13 620.102 305.579L624.749 376.362C640.909 375.301 650.286 377.175 655.133 379.197L682.444 313.731ZM739.144 360.058C721.31 339.572 702.102 321.598 681.972 313.538L655.605 379.39C659.008 380.753 668.87 387.367 685.643 406.634L739.144 360.058ZM868.972 509.463L739.165 360.082L685.622 406.609L815.428 555.99L868.972 509.463ZM977.801 486.78L839.494 497.363L844.906 568.091L983.213 557.508L977.801 486.78ZM949.87 503.231L947.572 508.983L1013.44 535.304L1015.74 529.551L949.87 503.231ZM1062.55 487.775C1032.99 490.036 1010.28 487.772 993.302 482.512L972.309 550.27C1000.39 558.971 1032.64 561.205 1067.96 558.502L1062.55 487.775ZM1200.83 443.381C1153.05 469.96 1107.03 484.371 1062.55 487.775L1067.96 558.502C1124.21 554.198 1180.07 536.101 1235.31 505.37L1200.83 443.381ZM1249.53 483.805C1249.73 485.748 1249.59 488.106 1248.87 490.578C1248.15 493.022 1247.07 494.849 1246.17 496.018L1189.97 452.733C1181.65 463.532 1177.51 476.843 1178.96 491.035L1249.53 483.805ZM1262.91 472.443C1256.13 472.962 1250.94 472.931 1247.13 472.6C1243.22 472.262 1241.57 471.68 1241.41 471.615C1241.36 471.598 1243.51 472.451 1245.8 475.246C1248.28 478.269 1249.3 481.567 1249.53 483.805L1178.96 491.035C1180.01 501.316 1183.79 511.496 1190.96 520.239C1197.95 528.755 1206.72 534.166 1215.24 537.548C1231.31 543.926 1250.2 544.558 1268.32 543.171L1262.91 472.443ZM1314.42 443.797C1299.4 462.358 1282.65 470.932 1262.91 472.443L1268.32 543.171C1309.17 540.045 1343.34 520.821 1369.56 488.422L1314.42 443.797ZM1385.93 289.665C1355.16 374.023 1331.13 423.277 1314.49 443.719L1369.5 488.5C1394.72 457.519 1422.19 397.246 1452.57 313.974L1385.93 289.665ZM1409.64 230.272C1404.35 240.282 1396.23 261.218 1385.9 289.743L1452.6 313.897C1463.48 283.849 1469.86 268.134 1472.35 263.415L1409.64 230.272ZM1443.8 199.289C1427.59 205.211 1416.97 217.392 1410.2 229.252L1471.79 264.435C1472.58 263.061 1472.86 262.951 1472.35 263.439C1471.75 264.006 1470.36 265.106 1468.13 265.918L1443.8 199.289ZM1498.42 190.979C1486.04 191.926 1475.47 192.973 1466.93 194.156C1459.33 195.211 1450.44 196.728 1443.23 199.503L1468.7 265.704C1467.56 266.144 1469.23 265.451 1476.68 264.419C1483.19 263.515 1492.17 262.599 1503.83 261.706L1498.42 190.979ZM1557.69 186.443L1498.42 190.979L1503.83 261.706L1563.1 257.171L1557.69 186.443ZM1528.54 417.62L1593.82 233.67L1526.97 209.944L1461.69 393.895L1528.54 417.62ZM1515.94 460.301C1516.14 462.211 1515.7 460.171 1517.98 450.97C1519.99 442.893 1523.41 431.914 1528.5 417.739L1461.73 393.776C1456.23 409.093 1451.95 422.553 1449.14 433.864C1446.61 444.048 1444.23 456.342 1445.38 467.532L1515.94 460.301ZM1523.23 452.524C1517.93 452.929 1514.25 452.774 1511.89 452.456C1509.5 452.136 1509.16 451.746 1509.97 452.177C1511.01 452.729 1512.82 454.045 1514.3 456.327C1515.72 458.52 1515.93 460.204 1515.94 460.301L1445.38 467.532C1447.42 487.43 1457.94 504.89 1476.78 514.865C1492.99 523.448 1511.76 524.544 1528.64 523.252L1523.23 452.524ZM1571.42 436.88C1556.57 446.022 1540.65 451.191 1523.23 452.524L1528.64 523.252C1557.31 521.058 1584.12 512.358 1608.6 497.29L1571.42 436.88ZM1630.59 386.45C1607.35 410.266 1587.57 426.76 1571.18 437.03L1608.84 497.139C1631.75 482.787 1655.94 462.037 1681.36 435.989L1630.59 386.45ZM1627.81 439.522L1645.3 445.042L1666.65 377.396L1649.16 371.876L1627.81 439.522ZM1620.72 470.719C1632.09 462.183 1646.77 448.191 1664.01 430.322L1612.96 381.075C1595.99 398.663 1584.63 409.111 1578.13 413.998L1620.72 470.719ZM1576.84 488.387C1593.59 487.106 1608.32 480.033 1620.72 470.719L1578.13 413.998C1573.27 417.643 1571.14 417.681 1571.43 417.659L1576.84 488.387ZM1523.45 447.217C1524.72 459.605 1530.92 473.093 1544.61 481.472C1556.3 488.622 1568.69 489.01 1576.84 488.387L1571.43 417.659C1570.02 417.767 1575.07 416.95 1581.63 420.96C1585.26 423.181 1588.51 426.41 1590.82 430.421C1593.04 434.265 1593.79 437.761 1594.01 439.986L1523.45 447.217ZM1532.8 399.745C1529.8 408.52 1527.36 416.534 1525.72 423.501C1524.34 429.382 1522.54 438.323 1523.45 447.216L1594.01 439.987C1594.26 442.424 1594.02 443.737 1594.1 443.126C1594.15 442.738 1594.32 441.678 1594.76 439.776C1595.67 435.948 1597.31 430.348 1599.93 422.689L1532.8 399.745ZM1609.04 184.956L1532.94 399.353L1599.79 423.082L1675.89 208.686L1609.04 184.956ZM1103.25 327.588C1076.56 337.27 1040.05 345.849 992.895 352.901L1003.39 423.056C1052.98 415.638 1094.61 406.183 1127.44 394.268L1103.25 327.588ZM1177.91 287.493C1164.43 300.048 1140.58 313.885 1103.12 327.633L1127.57 394.223C1168.8 379.087 1202.77 361.271 1226.25 339.405L1177.91 287.493ZM1192.8 269.557C1192.62 267.858 1193.35 268.193 1191.56 271.465C1189.65 274.956 1185.63 280.331 1177.95 287.455L1226.21 339.444C1246.97 320.172 1266.6 293.95 1263.36 262.327L1192.8 269.557ZM1196.83 277.702C1197.91 278.239 1196.91 277.979 1195.49 276.151C1194.78 275.234 1194.12 274.111 1193.62 272.839C1193.12 271.575 1192.89 270.435 1192.8 269.557L1263.36 262.327C1260.96 238.866 1246.04 222.928 1228.34 214.152L1196.83 277.702ZM1177.42 276.083C1190.46 275.086 1195.51 277.025 1196.31 277.438L1228.86 214.416C1211.44 205.416 1191.25 203.883 1172.01 205.355L1177.42 276.083ZM1091.58 311.511C1123.42 288.796 1151.93 278.034 1177.42 276.083L1172.01 205.355C1130.33 208.544 1089.68 225.729 1050.38 253.767L1091.58 311.511ZM1032.16 398.016C1043.42 359.847 1063.34 331.656 1091.58 311.515L1050.39 253.763C1008.11 283.913 979.466 325.948 964.124 377.941L1032.16 398.016Z" fill="black" mask="url(#path-1-outside-1_673_35)"/>
</g>
<defs>
<filter id="filter0_d_673_35" x="0.476562" y="0.294922" width="3652.36" height="767.816" filterUnits="userSpaceOnUse" color-interpolation-filters="sRGB">
<feFlood flood-opacity="0" result="BackgroundImageFix"/>
<feColorMatrix in="SourceAlpha" type="matrix" values="0 0 0 0 0 0 0 0 0 0 0 0 0 0 0 0 0 0 127 0" result="hardAlpha"/>
<feOffset dx="19.3458" dy="25.7944"/>
<feComposite in2="hardAlpha" operator="out"/>
<feColorMatrix type="matrix" values="0 0 0 0 0 0 0 0 0 0 0 0 0 0 0 0 0 0 1 0"/>
<feBlend mode="normal" in2="BackgroundImageFix" result="effect1_dropShadow_673_35"/>
<feBlend mode="normal" in="SourceGraphic" in2="effect1_dropShadow_673_35" result="shape"/>
</filter>
</defs>
</svg>
