<svg width="310" height="211" viewBox="0 0 310 211" fill="none" xmlns="http://www.w3.org/2000/svg">
<g filter="url(#filter0_d_1_2006)">
<path d="M18.928 69.6882L63.9374 73.6114L31.2399 50.1636L76.8364 61.8226L55.6963 36.0846L97.4167 54.3381L89.9033 28.8293L123.664 51.8906L130.512 29.1079L153.008 54.7196L173.549 36.8932L182.577 62.5482L214.799 51.4231L209.477 74.61L250.226 71.2752L231.075 89.7245L276.362 94.5064L245.255 106.412L290.647 118.843L250.631 123.039L291.685 141.902L246.676 137.978L279.373 161.426L233.777 149.767L254.917 175.505L213.197 157.252L220.71 182.76L186.95 159.699L180.101 182.482L157.605 156.87L137.065 174.697L128.036 149.042L95.8142 160.167L101.136 136.98L60.3872 140.315L79.5387 121.865L34.2516 117.083L65.358 105.178L19.9657 92.7471L59.9822 88.5506L18.928 69.6882Z" fill="black"/>
<path d="M34.0666 118.836L75.5922 123.22L59.1647 139.045L55.606 142.474L60.5309 142.071L98.88 138.932L94.0968 159.772L93.3861 162.869L96.3893 161.832L126.955 151.279L135.403 175.281L136.263 177.726L138.22 176.027L157.437 159.349L178.777 183.645L180.874 186.032L181.788 182.989L187.944 162.512L219.716 184.215L223.796 187.003L222.4 182.263L215.956 160.382L254.211 177.119L256.279 174.387L238.554 152.807L278.937 163.133L280.4 159.994L252.926 140.292L291.532 143.657L292.421 140.3L257.207 124.121L290.831 120.595L291.113 117.143L250.911 106.134L276.991 96.152L276.547 92.7541L235.021 88.3693L251.449 72.5442L255.007 69.116L250.082 69.519L211.733 72.6575L216.516 51.8172L217.227 48.7206L214.224 49.7575L183.658 60.3109L175.211 36.3082L174.351 33.8641L172.394 35.5624L153.176 52.2407L131.836 27.9451L129.74 25.558L128.825 28.6006L122.669 49.0775L90.8972 27.3743L86.8169 24.587L88.213 29.3271L94.6577 51.2077L56.4026 34.4702L54.3347 37.2029L72.059 58.7823L31.6764 48.4564L30.213 51.5955L57.6876 71.2979L19.081 67.9328L18.1923 71.2893L53.4064 87.4684L19.782 90.9947L19.5003 94.4466L59.702 105.456L33.6218 115.438L34.0666 118.836Z" stroke="#FBF448" stroke-width="3.52412"/>
</g>
<path d="M222.286 134.586C222.821 134.728 223.16 135.278 223.304 136.236C223.448 137.194 223.359 138.281 223.037 139.499C222.714 140.717 222.25 141.705 221.643 142.464C221.043 143.225 220.48 143.536 219.954 143.397C219.427 143.257 219.091 142.709 218.947 141.751C218.803 140.793 218.892 139.705 219.215 138.487C219.537 137.27 219.998 136.28 220.597 135.519C221.196 134.758 221.759 134.447 222.286 134.586Z" fill="#FBF448"/>
<path d="M216.815 133.139C217.35 133.281 217.689 133.83 217.833 134.788C217.978 135.746 217.888 136.834 217.566 138.052C217.244 139.27 216.779 140.258 216.172 141.017C215.573 141.778 215.01 142.089 214.483 141.95C213.956 141.81 213.621 141.261 213.477 140.303C213.332 139.345 213.421 138.258 213.744 137.04C214.066 135.822 214.527 134.833 215.126 134.072C215.726 133.311 216.289 133 216.815 133.139Z" fill="#FBF448"/>
<path d="M211.334 131.686C211.868 131.828 212.207 132.377 212.351 133.335C212.496 134.293 212.407 135.381 212.084 136.599C211.762 137.816 211.297 138.805 210.69 139.564C210.091 140.325 209.528 140.636 209.001 140.496C208.474 140.357 208.139 139.808 207.995 138.85C207.85 137.892 207.94 136.804 208.262 135.587C208.584 134.369 209.045 133.38 209.645 132.619C210.244 131.857 210.807 131.547 211.334 131.686Z" fill="#FBF448"/>
<path d="M201.852 116.761L207.614 118.287L211.587 108.445C212.127 107.093 212.495 106.05 212.689 105.316C212.879 104.6 212.919 104.026 212.809 103.594C212.699 103.163 212.262 102.779 211.498 102.443L211.889 101.483L219.719 103.556L219.328 104.516C218.561 104.313 217.881 104.535 217.287 105.182C216.693 105.83 215.962 107.227 215.096 109.374L205.995 131.914C205.399 133.385 205.013 134.451 204.837 135.114C204.662 135.776 204.634 136.305 204.753 136.701C204.9 137.238 205.326 137.619 206.029 137.844L205.65 138.807L197.97 136.774L198.408 135.826C199.151 136.023 199.785 135.836 200.309 135.266C200.845 134.68 201.571 133.253 202.487 130.985L206.719 120.493L200.98 118.974L196.759 129.468C196.172 130.904 195.784 131.979 195.594 132.695C195.423 133.34 195.4 133.899 195.523 134.373C195.659 134.83 196.07 135.169 196.758 135.389L196.379 136.352L188.804 134.347L189.195 133.387C189.939 133.584 190.568 133.396 191.085 132.824C191.613 132.236 192.335 130.808 193.251 128.54L202.351 106C202.877 104.702 203.242 103.668 203.446 102.898C203.64 102.163 203.683 101.581 203.573 101.149C203.471 100.72 203.05 100.34 202.308 100.01L202.699 99.0496L210.402 101.089L209.964 102.037C209.252 101.848 208.619 102.064 208.065 102.683C207.516 103.285 206.785 104.701 205.871 106.932L201.852 116.761Z" fill="#FBF448"/>
<path d="M179.316 132.753C178.046 132.416 177.179 131.545 176.714 130.138C176.25 128.731 176.095 126.937 176.25 124.755C176.412 122.575 176.755 120.5 177.276 118.53C178.329 114.555 179.88 110.683 181.93 106.914C183.985 103.128 186.166 100.246 188.471 98.2694C190.788 96.277 192.761 95.496 194.387 95.9267C195.34 96.1789 196.095 96.9729 196.653 98.3087C197.219 99.6465 197.475 101.372 197.421 103.485C197.375 105.599 197.084 107.669 196.548 109.692C195.349 114.223 193.521 118.606 191.065 122.842C188.614 127.06 186.34 129.984 184.243 131.614C182.662 132.824 181.02 133.204 179.316 132.753ZM193.42 98.0277C192.809 97.8657 192.217 97.987 191.646 98.3915C191.087 98.7801 190.417 99.5128 189.634 100.59C188.852 101.666 187.924 103.26 186.851 105.372C185.783 107.465 184.529 110.371 183.089 114.091C181.656 117.812 180.6 120.953 179.922 123.514C179.344 125.698 179.111 127.409 179.223 128.646C179.339 129.865 179.719 130.56 180.362 130.73C181.214 130.955 182.111 130.493 183.053 129.344C184.926 127.061 186.897 123.511 188.968 118.694C191.052 113.861 192.613 109.484 193.651 105.562C194.301 103.109 194.569 101.283 194.455 100.084C194.354 98.8689 194.009 98.1836 193.42 98.0277Z" fill="#FBF448"/>
<path d="M170.809 90.6057L165.342 115.948L179.464 92.8972L184.982 94.3582L184.58 95.3151C183.821 95.1142 183.144 95.3375 182.55 95.985C181.956 96.6325 181.225 98.0296 180.359 100.176L171.281 122.722C170.707 124.142 170.325 125.209 170.135 125.926C169.96 126.588 169.934 127.156 170.057 127.63C170.185 128.085 170.585 128.421 171.257 128.637L170.889 129.603L163.024 127.521L163.427 126.564C164.271 126.788 164.992 126.586 165.589 125.958C166.191 125.313 166.923 123.925 167.785 121.797L176.998 98.9704L160.004 126.721L159.527 126.595L166.246 95.4913L156.829 118.896C156.445 119.848 156.164 120.656 155.989 121.318C155.752 122.214 155.692 122.974 155.808 123.598C155.937 124.207 156.316 124.624 156.944 124.848L156.565 125.811L151.36 124.433L151.728 123.467C152.37 123.579 152.93 123.402 153.41 122.935C154.264 122.088 155.098 120.661 155.911 118.653L166.441 92.6399C166.334 91.7301 166.182 91.1149 165.985 90.7945C165.796 90.4762 165.395 90.236 164.783 90.074L165.186 89.117L170.809 90.6057Z" fill="#FBF448"/>
<path d="M149.515 111.383L144.635 110.091L142.92 112.626L140.987 115.42C140.594 116.025 140.277 116.583 140.034 117.093C139.847 117.484 139.7 117.886 139.591 118.298C139.477 118.728 139.467 119.156 139.561 119.584C139.668 119.995 139.942 120.288 140.385 120.463L140.122 121.457L135.417 120.211L135.796 119.248C136.257 119.197 136.719 118.956 137.181 118.522C137.805 117.921 138.819 116.609 140.225 114.586L159.547 86.7321L160.069 86.8706L151.653 116.548C151.217 118.099 150.957 119.036 150.871 119.359C150.549 120.576 150.419 121.491 150.481 122.101C150.551 122.714 150.822 123.13 151.294 123.351L150.914 124.314L144.095 122.509L144.486 121.549C145.198 121.584 145.618 121.561 145.747 121.48C146.03 121.287 146.365 120.82 146.752 120.079C147.144 119.32 147.62 117.961 148.18 116.002L149.515 111.383ZM150.098 109.18L153.543 97.3874L146.02 108.1L150.098 109.18Z" fill="#FBF448"/>
<path d="M133.154 99.1181C134.236 99.1938 135.25 98.7916 136.196 97.9114C137.15 97.0333 138.453 94.8968 140.106 91.502C141.27 89.1083 142.145 87.4332 142.729 86.4766C143.319 85.5021 143.931 84.754 144.567 84.2324C145.202 83.7107 145.806 83.5258 146.379 83.6775C147.007 83.8436 147.399 84.3499 147.556 85.1963C147.713 86.0427 147.633 87.0658 147.315 88.2656C147.083 89.1431 146.741 89.8861 146.29 90.4949C145.851 91.0877 145.407 91.3247 144.958 91.2057C144.741 91.1483 144.583 91.0106 144.483 90.7926C144.383 90.5745 144.252 90.0991 144.09 89.3663C143.919 88.5736 143.728 88.1495 143.519 88.0942C143.271 88.0285 142.998 88.2149 142.7 88.6533C142.409 89.0937 141.876 90.1215 141.1 91.7365C139.844 94.3548 138.832 96.2522 138.064 97.4288C137.309 98.5894 136.53 99.4659 135.727 100.058C136.16 100.709 136.37 101.637 136.358 102.841C136.346 104.045 136.062 106.806 135.508 111.124C135.053 114.625 134.86 116.778 134.929 117.582C135.006 118.387 135.364 118.961 136.003 119.303L135.612 120.263L130.872 119.008L132.639 104.96C132.838 103.365 132.905 102.358 132.842 101.939C132.784 101.502 132.612 101.245 132.325 101.169L128.568 110.522C127.702 112.669 127.181 114.074 127.005 114.736C126.683 115.954 126.967 116.757 127.859 117.147L127.479 118.11L120.253 116.197L120.644 115.237C121.33 115.246 121.821 115.175 122.118 115.023C122.42 114.854 122.785 114.414 123.213 113.704C123.642 112.993 124.278 111.59 125.123 109.495L133.374 88.9436C134.219 86.8486 134.743 85.4161 134.947 84.646C135.34 83.1598 134.959 82.2349 133.804 81.8716L134.195 80.9116L141.468 82.837L141.077 83.797C140.283 83.9128 139.598 84.4211 139.019 85.3219C138.441 86.2227 137.53 88.2236 136.287 91.3244L133.154 99.1181Z" fill="#FBF448"/>
<path d="M122.998 77.946L128.459 79.3916L128.079 80.3547C127.391 80.23 126.649 80.5604 125.853 81.346C125.061 82.1137 124.008 83.6649 122.694 85.9997L110.548 107.504C109.367 109.586 108.363 111.093 107.536 112.024C106.722 112.939 105.796 113.259 104.758 112.984C103.868 112.748 103.261 112.051 102.938 110.893C102.627 109.718 102.666 108.397 103.055 106.928C103.325 105.907 103.689 105.113 104.146 104.544C104.616 103.959 105.075 103.726 105.524 103.845C106.462 104.093 106.617 105.696 105.992 108.654C105.695 110.089 105.767 110.865 106.208 110.982C106.51 111.062 106.849 110.893 107.225 110.476C107.609 110.06 108.274 109.096 109.222 107.584L112.442 82.8831C112.796 80.1984 112.922 78.44 112.819 77.6079C112.716 76.7759 112.354 76.2489 111.733 76.027L112.124 75.067L119.594 77.0448L119.203 78.0048C117.941 77.6705 117.061 78.4435 116.563 80.3238C116.402 80.9326 116.219 82.0148 116.014 83.5703L113.974 99.2127L122.132 84.7875C123.024 83.2032 123.574 82.0171 123.782 81.2291C124.114 79.9756 123.727 79.2023 122.619 78.909L122.998 77.946Z" fill="#FBF448"/>
<path d="M93.77 88.1459L99.5323 89.6715L103.506 79.8296C104.046 78.4779 104.413 77.435 104.607 76.7008C104.797 75.9845 104.837 75.4107 104.727 74.9792C104.618 74.5478 104.181 74.1638 103.416 73.8273L103.807 72.8673L111.637 74.9404L111.247 75.9004C110.48 75.6974 109.799 75.9196 109.205 76.5672C108.611 77.2147 107.881 78.6118 107.014 80.7584L97.9136 103.298C97.317 104.769 96.931 105.836 96.7556 106.499C96.5802 107.161 96.552 107.69 96.671 108.086C96.8188 108.623 97.2443 109.004 97.9473 109.229L97.568 110.192L89.8888 108.159L90.3262 107.211C91.0697 107.408 91.7035 107.221 92.2274 106.651C92.7638 106.065 93.4897 104.638 94.4051 102.37L98.6374 91.8777L92.8983 90.3583L88.6777 100.853C88.0905 102.288 87.7022 103.364 87.5125 104.08C87.3418 104.725 87.3182 105.284 87.4415 105.757C87.5773 106.215 87.9889 106.554 88.6765 106.774L88.2972 107.737L80.7226 105.732L81.1135 104.772C81.857 104.969 82.4869 104.781 83.0031 104.209C83.5318 103.62 84.2538 102.192 85.1692 99.9244L94.2695 77.3843C94.7955 76.0864 95.1604 75.0524 95.3643 74.2824C95.5587 73.5482 95.6011 72.9654 95.4915 72.534C95.3897 72.1046 94.9681 71.7247 94.2268 71.3943L94.6177 70.4343L102.32 72.4736L101.883 73.4213C101.17 73.2326 100.537 73.4483 99.9835 74.0682C99.4346 74.6702 98.7033 76.0862 97.7897 78.3163L93.77 88.1459Z" fill="#FBF448"/>
<defs>
<filter id="filter0_d_1_2006" x="17.4565" y="20.3457" width="275.7" height="176.83" filterUnits="userSpaceOnUse" color-interpolation-filters="sRGB">
<feFlood flood-opacity="0" result="BackgroundImageFix"/>
<feColorMatrix in="SourceAlpha" type="matrix" values="0 0 0 0 0 0 0 0 0 0 0 0 0 0 0 0 0 0 127 0" result="hardAlpha"/>
<feOffset dy="5.93154"/>
<feComposite in2="hardAlpha" operator="out"/>
<feColorMatrix type="matrix" values="0 0 0 0 0 0 0 0 0 0 0 0 0 0 0 0 0 0 1 0"/>
<feBlend mode="normal" in2="BackgroundImageFix" result="effect1_dropShadow_1_2006"/>
<feBlend mode="normal" in="SourceGraphic" in2="effect1_dropShadow_1_2006" result="shape"/>
</filter>
</defs>
</svg>
