<svg width="1423" height="586" viewBox="0 0 1423 586" fill="none" xmlns="http://www.w3.org/2000/svg">
<path d="M1422.78 9.22656L1418.89 342.972H1391.32L1387.43 9.22656H1422.78ZM1422.18 478.045H1388.02V394.923H1422.18V478.045Z" fill="black"/>
<path d="M1369.96 478.045H1332.41L1305.26 323.766L1277.61 478.045H1241.75L1286.4 241.904L1242.68 9.22656H1280.14L1306.36 155.319L1333.34 9.22656H1369.28L1325.3 237.181L1369.96 478.045Z" fill="black"/>
<path d="M1230.19 478.045H1139.11V9.22656H1230.19V99.9047H1171.42V180.822H1225.96V271.5H1171.42V387.367H1230.19V478.045Z" fill="black"/>
<path d="M1072.44 487.182C1063.08 487.182 1054.42 482.039 1046.47 471.754C1038.58 461.469 1031.79 446.146 1026.09 425.785C1020.4 405.424 1015.97 380.026 1012.82 349.59C1009.71 319.154 1008.16 283.995 1008.16 244.114C1008.16 206.961 1009.66 173.272 1012.65 143.046C1015.63 112.82 1019.98 86.8965 1025.67 65.2765C1031.14 44.4961 1037.9 28.4385 1045.97 17.1037C1054.08 5.76895 1062.94 0.101562 1072.52 0.101562C1077.82 0.101562 1082.58 1.25603 1086.81 3.56496C1091.1 5.66399 1095.04 8.49769 1098.65 12.066C1102.43 16.0542 1105.84 20.5671 1108.88 25.6048C1111.99 30.4326 1114.69 34.9455 1117 39.1435V152.806H1113.28C1111.7 147.768 1109.7 141.786 1107.28 134.859C1104.91 127.933 1102.2 121.111 1099.16 114.394C1096.06 107.677 1092.7 102.01 1089.1 97.3916C1085.49 92.7738 1081.63 90.4648 1077.51 90.4648C1072.94 90.4648 1068.6 93.1936 1064.49 98.6511C1060.37 103.899 1056.57 112.715 1053.07 125.099C1049.74 137.063 1047.04 152.911 1044.95 172.642C1042.92 192.373 1041.91 216.302 1041.91 244.429C1041.91 273.815 1043.01 298.374 1045.2 318.105C1047.46 337.836 1050.28 353.368 1053.66 364.703C1057.1 376.248 1060.93 384.539 1065.16 389.577C1069.39 394.404 1073.56 396.818 1077.68 396.818C1081.63 396.818 1085.52 394.614 1089.35 390.206C1093.24 385.798 1096.82 379.816 1100.09 372.26C1102.85 366.173 1105.42 359.666 1107.79 352.739C1110.15 345.812 1112.1 339.83 1113.62 334.792H1117V446.88C1113.85 452.128 1110.83 457.061 1107.95 461.678C1105.08 466.296 1102.06 470.284 1098.91 473.643C1094.79 478.051 1090.93 481.409 1087.32 483.718C1083.71 486.027 1078.75 487.182 1072.44 487.182Z" fill="black"/>
<path d="M993.068 334.471C993.068 357.141 991.828 377.397 989.347 395.238C986.923 413.08 983.568 427.878 979.283 439.633C974.322 453.486 968.853 463.352 962.877 469.229C956.957 475.106 949.431 478.045 940.297 478.045H885.328V9.22656H934.209C944.357 9.22656 951.77 10.486 956.45 13.0048C961.186 15.5237 965.865 21.0861 970.488 29.6921C975.28 38.7179 978.832 50.8923 981.144 66.2152C983.512 81.3283 984.696 98.6453 984.696 118.166C984.696 140.836 983.089 160.882 979.875 178.303C976.662 195.516 972.123 208.949 966.26 218.605V221.124C974.491 227.211 981.003 239.805 985.795 258.906C990.644 278.007 993.068 303.196 993.068 334.471ZM951.46 141.78C951.46 134.014 950.925 126.248 949.854 118.481C948.839 110.715 947.006 104.942 944.357 101.164C941.989 97.8057 939.029 96.0215 935.477 95.8116C931.982 95.3918 927.048 95.1819 920.678 95.1819H917.633V194.361H922.707C927.838 194.361 932.207 194.046 935.815 193.416C939.424 192.787 942.271 190.688 944.357 187.119C947.288 182.292 949.205 176.099 950.107 168.543C951.009 160.777 951.46 151.856 951.46 141.78ZM959.41 332.582C959.41 317.679 958.621 306.239 957.042 298.263C955.52 290.077 952.898 283.99 949.177 280.002C946.64 277.273 943.145 275.803 938.691 275.594C934.237 275.384 929.585 275.279 924.737 275.279H917.633V392.09H920.001C929.134 392.09 935.674 391.985 939.621 391.775C943.567 391.565 947.204 388.836 950.53 383.589C953.913 378.341 956.224 371.414 957.465 362.808C958.761 353.992 959.41 343.917 959.41 332.582Z" fill="black"/>
<path d="M797.468 478.045H765.163V306.134H747.488L715.775 478.045H677.297L714.93 283.78C707.319 271.605 701.342 254.393 697.001 232.144C692.716 209.894 690.574 180.717 690.574 144.614C690.574 120.685 691.984 99.7997 694.802 81.958C697.678 64.1162 701.314 49.5279 705.712 38.1932C709.546 28.3277 714.197 21.0861 719.666 16.4682C725.191 11.6404 731.505 9.22656 738.609 9.22656H797.468V478.045ZM765.163 221.753V95.4967H749.095C744.19 95.4967 740.413 96.1264 737.763 97.3858C735.113 98.4354 732.548 102.424 730.067 109.35C728.151 114.598 726.685 121.525 725.67 130.131C724.655 138.527 724.148 147.868 724.148 158.153C724.148 168.858 724.683 178.513 725.754 187.119C726.826 195.516 728.32 202.442 730.237 207.9C732.379 214.197 734.888 218.08 737.763 219.549C740.695 221.019 744.529 221.753 749.264 221.753H765.163Z" fill="black"/>
<path d="M661.426 478.045H628.952V99.9047H592.926C592.644 120.475 592.419 136.638 592.249 148.392C592.08 160.147 591.827 175.68 591.488 194.991C590.755 237.391 589.628 273.075 588.106 302.041C586.64 330.798 584.977 354.517 583.116 373.198C581.199 392.09 579.17 407.518 577.027 419.482C574.885 431.447 572.742 441.207 570.6 448.764C567.837 458.629 564.398 466.5 560.283 472.378C556.167 478.255 551.798 481.194 547.175 481.194C544.356 481.194 541.424 480.774 538.38 479.934C535.391 479.095 533.475 478.465 532.629 478.045V373.198H533.813C534.32 373.408 534.884 373.618 535.504 373.828C536.181 374.038 536.942 374.143 537.788 374.143C540.945 374.143 543.284 373.408 544.807 371.939C546.329 370.47 547.682 367.846 548.866 364.068C553.151 350.004 556.082 327.754 557.661 297.319C559.296 266.673 560.508 223.852 561.298 168.858C561.636 147.028 561.889 123.309 562.059 97.7007C562.284 71.8826 562.481 42.3912 562.651 9.22656H661.426V478.045Z" fill="black"/>
<path d="M526.764 585.725H496.912V476.471H420.462V585.725H390.609V387.052H400.166C406.706 336.046 411.695 278.532 415.134 214.512C418.63 150.491 420.377 82.0629 420.377 9.22656H514.333V387.052H526.764V585.725ZM481.858 387.052V99.9047H450.399C449.328 156.998 447.073 209.789 443.634 258.277C440.251 306.554 436.135 349.479 431.287 387.052H481.858Z" fill="black"/>
<path d="M237.164 331.008C237.164 323.242 236.938 315.895 236.487 308.968C236.036 302.041 235.05 295.639 233.528 289.762C232.005 284.095 229.919 279.582 227.269 276.223C224.62 272.865 220.955 271.186 216.276 271.186H195.81V390.515H216.276C219.827 390.515 223.013 388.836 225.832 385.478C228.707 382.119 230.906 377.816 232.428 372.569C233.95 367.531 235.106 361.549 235.895 354.622C236.741 347.485 237.164 339.614 237.164 331.008ZM270.737 327.545C270.737 350.424 269.554 371.519 267.186 390.83C264.874 409.931 261.689 425.569 257.629 437.744C252.499 453.067 247.143 463.667 241.561 469.544C236.036 475.211 229.327 478.045 221.434 478.045H163.336V9.22656H195.81V183.971H221.942C230.68 183.971 237.84 186.385 243.422 191.213C249.06 195.83 254.021 204.436 258.306 217.031C262.647 229.625 265.804 245.577 267.778 264.888C269.751 283.99 270.737 304.875 270.737 327.545ZM315.22 478.045H282.746V9.22656H315.22V478.045Z" fill="black"/>
<path d="M132.87 478.045H100.565V164.135L77.2244 367.846H54.8138L31.473 164.135V478.045H0.859375V9.22656H38.5768L66.9071 244.423L95.1529 9.22656H132.87V478.045Z" fill="black"/>
</svg>
