<svg width="1784" height="206" viewBox="0 0 1784 206" fill="none" xmlns="http://www.w3.org/2000/svg">
<rect x="3.21484" y="3.83203" width="1777.06" height="199" fill="black"/>
<path d="M180.54 139.832H163.219V85.6605H137.644V139.832H120.324V72.6701H180.54V139.832ZM252.697 93.8696C252.697 96.8767 252.171 99.8236 251.119 102.71C250.066 105.567 248.563 107.973 246.608 109.927C243.932 112.573 240.94 114.573 237.632 115.926C234.355 117.279 230.265 117.956 225.364 117.956H214.583V139.832H197.263V72.6701H225.769C230.039 72.6701 233.633 73.046 236.55 73.7977C239.497 74.5194 242.098 75.617 244.353 77.0904C247.059 78.8646 249.119 81.1349 250.532 83.9014C251.976 86.6678 252.697 89.9906 252.697 93.8696ZM234.791 94.2756C234.791 92.3812 234.279 90.7574 233.257 89.4042C232.235 88.021 231.047 87.0587 229.694 86.5175C227.889 85.7958 226.13 85.4049 224.416 85.3447C222.702 85.2545 220.417 85.2094 217.56 85.2094H214.583V105.326H219.545C222.492 105.326 224.912 105.146 226.807 104.785C228.731 104.424 230.34 103.703 231.633 102.62C232.746 101.658 233.543 100.515 234.024 99.1921C234.535 97.8389 234.791 96.2001 234.791 94.2756ZM313.128 139.832H264.549V72.6701H313.128V85.6605H281.78V97.2525H310.873V110.243H281.78V126.842H313.128V139.832ZM393.179 155.258H377.257V139.606H336.482V155.258H320.559V126.797H325.656C329.144 119.489 331.806 111.25 333.64 102.079C335.504 92.9074 336.436 83.1045 336.436 72.6701H386.549V126.797H393.179V155.258ZM369.228 126.797V85.6605H352.449C351.878 93.8396 350.675 101.402 348.84 108.348C347.036 115.265 344.841 121.414 342.255 126.797H369.228ZM463.668 72.6701L439.221 126.391C437.807 129.488 436.184 131.984 434.349 133.878C432.515 135.773 430.621 137.171 428.666 138.073C426.712 139.005 424.772 139.606 422.848 139.877C420.953 140.148 419.059 140.283 417.164 140.283C415.059 140.283 412.564 140.223 409.677 140.103C406.79 140.012 404.881 139.922 403.948 139.832V125.173H404.986C405.617 125.353 406.73 125.549 408.324 125.759C409.917 125.94 411.496 126.03 413.06 126.03C416.037 126.03 418.442 125.744 420.277 125.173C422.141 124.601 423.284 123.85 423.705 122.918L396.416 72.6701H415.225L431.914 104.515L445.671 72.6701H463.668ZM532.398 139.832H515.077V85.6605H489.502V139.832H472.182V72.6701H532.398V139.832ZM604.555 93.8696C604.555 96.8767 604.029 99.8236 602.977 102.71C601.924 105.567 600.421 107.973 598.466 109.927C595.79 112.573 592.798 114.573 589.49 115.926C586.213 117.279 582.123 117.956 577.222 117.956H566.441V139.832H549.121V72.6701H577.628C581.898 72.6701 585.491 73.046 588.408 73.7977C591.355 74.5194 593.956 75.617 596.211 77.0904C598.917 78.8646 600.977 81.1349 602.39 83.9014C603.834 86.6678 604.555 89.9906 604.555 93.8696ZM586.649 94.2756C586.649 92.3812 586.137 90.7574 585.115 89.4042C584.093 88.021 582.905 87.0587 581.552 86.5175C579.748 85.7958 577.988 85.4049 576.274 85.3447C574.56 85.2545 572.275 85.2094 569.418 85.2094H566.441V105.326L571.403 105.326C574.35 105.326 576.771 105.146 578.665 104.785C580.589 104.424 582.198 103.703 583.491 102.62C584.604 101.658 585.401 100.515 585.882 99.1921C586.393 97.8389 586.649 96.2001 586.649 94.2756ZM664.986 139.832H616.407V72.6701H664.986V85.6605H633.638V97.2525H662.731V110.243H633.638V126.842H664.986V139.832ZM745.037 155.258H729.115V139.606H688.34V155.258H672.417V126.797H677.514C681.002 119.489 683.664 111.25 685.498 102.079C687.362 92.9074 688.294 83.1045 688.294 72.6701H738.407V126.797H745.037V155.258ZM721.086 126.797V85.6605H704.307C703.736 93.8396 702.533 101.402 700.698 108.348C698.894 115.265 696.699 121.414 694.113 126.797H721.086ZM817.646 139.832H800.777V95.1326L772.901 139.832H756.393V72.6701H773.262V113.13L799.198 72.6701H817.646V139.832ZM886.601 85.6605H865.627V139.832H848.307V85.6605H827.333V72.6701H886.601V85.6605ZM935.936 118.768C935.936 117.655 935.815 116.603 935.575 115.61C935.334 114.618 934.808 113.701 933.996 112.859C933.184 112.047 932.072 111.401 930.658 110.919C929.245 110.438 927.29 110.198 924.795 110.198H913.879V127.293H924.795C926.689 127.293 928.388 127.052 929.892 126.571C931.425 126.09 932.598 125.473 933.41 124.722C934.222 124 934.838 123.143 935.259 122.151C935.71 121.128 935.936 120.001 935.936 118.768ZM953.843 118.272C953.843 121.549 953.211 124.571 951.948 127.338C950.715 130.074 949.016 132.314 946.851 134.059C944.115 136.254 941.258 137.772 938.281 138.614C935.334 139.426 931.756 139.832 927.546 139.832H896.559V72.6701H913.879V97.7036H927.817C932.478 97.7036 936.297 98.0494 939.273 98.741C942.281 99.4026 944.927 100.635 947.212 102.44C949.527 104.244 951.211 106.529 952.264 109.296C953.316 112.032 953.843 115.024 953.843 118.272ZM1093.64 106.274C1093.64 116.979 1090.57 125.489 1084.44 131.803C1078.3 138.088 1069.82 141.23 1059 141.23C1048.2 141.23 1039.74 138.088 1033.6 131.803C1027.47 125.489 1024.4 116.979 1024.4 106.274C1024.4 95.4784 1027.47 86.9535 1033.6 80.6989C1039.74 74.4142 1048.2 71.2718 1059 71.2718C1069.76 71.2718 1078.23 74.4142 1084.39 80.6989C1090.55 86.9535 1093.64 95.4784 1093.64 106.274ZM1070.68 123.278C1072.36 121.234 1073.61 118.828 1074.42 116.061C1075.23 113.265 1075.64 109.987 1075.64 106.229C1075.64 102.199 1075.17 98.7711 1074.24 95.9445C1073.31 93.1179 1072.09 90.8325 1070.59 89.0885C1069.05 87.2843 1067.28 85.9762 1065.27 85.1643C1063.28 84.3524 1061.21 83.9465 1059.04 83.9465C1056.85 83.9465 1054.77 84.3374 1052.82 85.1192C1050.89 85.901 1049.12 87.194 1047.49 88.9983C1045.99 90.6822 1044.76 93.0126 1043.8 95.9896C1042.86 98.9365 1042.4 102.364 1042.4 106.274C1042.4 110.273 1042.85 113.686 1043.75 116.513C1044.68 119.309 1045.9 121.594 1047.4 123.369C1048.91 125.143 1050.67 126.451 1052.68 127.293C1054.7 128.135 1056.82 128.556 1059.04 128.556C1061.27 128.556 1063.39 128.135 1065.4 127.293C1067.42 126.421 1069.17 125.083 1070.68 123.278ZM1167.9 141.14C1162.91 141.14 1158.3 140.403 1154.06 138.93C1149.85 137.456 1146.22 135.261 1143.19 132.345C1140.15 129.428 1137.79 125.789 1136.1 121.429C1134.45 117.069 1133.62 112.032 1133.62 106.319C1133.62 100.996 1134.42 96.17 1136.01 91.8399C1137.61 87.5098 1139.92 83.7961 1142.96 80.6989C1145.88 77.7219 1149.49 75.4215 1153.79 73.7977C1158.12 72.174 1162.84 71.3621 1167.95 71.3621C1170.78 71.3621 1173.32 71.5274 1175.57 71.8582C1177.86 72.1589 1179.96 72.5649 1181.89 73.0761C1183.9 73.6474 1185.72 74.2939 1187.34 75.0156C1189 75.7072 1190.44 76.3537 1191.67 76.9551V93.2382H1189.69C1188.85 92.5165 1187.78 91.6595 1186.49 90.6672C1185.22 89.6748 1183.78 88.6976 1182.16 87.7353C1180.5 86.7731 1178.71 85.9612 1176.79 85.2996C1174.86 84.6381 1172.81 84.3073 1170.61 84.3073C1168.17 84.3073 1165.86 84.6982 1163.66 85.48C1161.47 86.2318 1159.44 87.4947 1157.57 89.2689C1155.8 90.9829 1154.36 93.2532 1153.24 96.0798C1152.16 98.9064 1151.62 102.334 1151.62 106.364C1151.62 110.574 1152.21 114.092 1153.38 116.918C1154.58 119.745 1156.09 121.97 1157.89 123.594C1159.72 125.248 1161.77 126.436 1164.02 127.157C1166.28 127.849 1168.51 128.195 1170.7 128.195C1172.81 128.195 1174.88 127.879 1176.92 127.248C1179 126.616 1180.91 125.759 1182.65 124.677C1184.13 123.805 1185.49 122.872 1186.76 121.88C1188.02 120.888 1189.06 120.031 1189.87 119.309H1191.67V135.367C1189.99 136.118 1188.38 136.825 1186.85 137.487C1185.31 138.148 1183.71 138.719 1182.02 139.201C1179.83 139.832 1177.77 140.313 1175.84 140.644C1173.92 140.975 1171.27 141.14 1167.9 141.14ZM1256.48 85.6605H1235.51V139.832H1218.19V85.6605H1197.21V72.6701H1256.48V85.6605ZM1328.5 139.832H1310.6L1305.95 126.255H1281.05L1276.41 139.832H1258.95L1283.76 72.6701H1303.69L1328.5 139.832ZM1301.75 113.942L1293.5 89.8553L1285.25 113.942H1301.75ZM1393.13 93.8696C1393.13 96.8767 1392.6 99.8236 1391.55 102.71C1390.5 105.567 1388.99 107.973 1387.04 109.927C1384.36 112.573 1381.37 114.573 1378.06 115.926C1374.78 117.279 1370.7 117.956 1365.79 117.956H1355.01V139.832H1337.69V72.6701H1366.2C1370.47 72.6701 1374.06 73.046 1376.98 73.7977C1379.93 74.5194 1382.53 75.617 1384.78 77.0904C1387.49 78.8646 1389.55 81.1349 1390.96 83.9014C1392.41 86.6678 1393.13 89.9906 1393.13 93.8696ZM1375.22 94.2756C1375.22 92.3812 1374.71 90.7574 1373.69 89.4042C1372.66 88.021 1371.48 87.0587 1370.12 86.5175C1368.32 85.7958 1366.56 85.4049 1364.85 85.3447C1363.13 85.2545 1360.85 85.2094 1357.99 85.2094H1355.01V105.326H1359.98C1362.92 105.326 1365.34 105.146 1367.24 104.785C1369.16 104.424 1370.77 103.703 1372.06 102.62C1373.18 101.658 1373.97 100.515 1374.45 99.1921C1374.97 97.8389 1375.22 96.2001 1375.22 94.2756ZM1457.53 85.6605H1436.55V139.832H1419.23V85.6605H1398.26V72.6701H1457.53V85.6605ZM1516.06 139.832H1467.48V72.6701H1516.06V85.6605H1484.71V97.2525H1513.81V110.243H1484.71V126.842H1516.06V139.832Z" fill="black"/>
<path d="M180.54 139.832V146.281H186.988V139.832H180.54ZM163.219 139.832H156.771V146.281H163.219V139.832ZM163.219 85.6605H169.668V79.2118H163.219V85.6605ZM137.644 85.6605V79.2118H131.196V85.6605H137.644ZM137.644 139.832V146.281H144.093V139.832H137.644ZM120.324 139.832H113.875V146.281H120.324V139.832ZM120.324 72.6701V66.2215H113.875V72.6701H120.324ZM180.54 72.6701H186.988V66.2215H180.54V72.6701ZM180.54 133.383H163.219V146.281H180.54V133.383ZM169.668 139.832V85.6605H156.771V139.832H169.668ZM163.219 79.2118H137.644V92.1091H163.219V79.2118ZM131.196 85.6605V139.832H144.093V85.6605H131.196ZM137.644 133.383H120.324V146.281H137.644V133.383ZM126.773 139.832V72.6701H113.875V139.832H126.773ZM120.324 79.1187H180.54V66.2215H120.324V79.1187ZM174.091 72.6701V139.832H186.988V72.6701H174.091ZM251.119 102.71L257.17 104.94L257.173 104.929L257.177 104.919L251.119 102.71ZM246.608 109.927L251.142 114.513L251.155 114.5L251.168 114.487L246.608 109.927ZM237.632 115.926L235.191 109.958L235.181 109.962L235.171 109.966L237.632 115.926ZM214.583 117.956V111.507H208.135V117.956H214.583ZM214.583 139.832V146.281H221.032V139.832H214.583ZM197.263 139.832H190.814V146.281H197.263V139.832ZM197.263 72.6701V66.2215H190.814V72.6701H197.263ZM236.55 73.7977L234.94 80.0423L234.978 80.052L235.016 80.0613L236.55 73.7977ZM244.353 77.0904L247.888 71.6974L247.88 71.6919L244.353 77.0904ZM250.532 83.9014L244.79 86.8351L244.802 86.8597L244.815 86.8843L250.532 83.9014ZM233.257 89.4042L228.071 93.2372L228.091 93.2645L228.112 93.2916L233.257 89.4042ZM224.416 85.3447L224.077 91.7844L224.134 91.7874L224.19 91.7894L224.416 85.3447ZM214.583 85.2094V78.7608H208.135V85.2094H214.583ZM214.583 105.326H208.135V111.775H214.583V105.326ZM226.807 104.785L225.619 98.447L225.609 98.4487L225.6 98.4504L226.807 104.785ZM231.633 102.62L235.773 107.565L235.812 107.531L235.852 107.498L231.633 102.62ZM234.024 99.1921L227.991 96.9131L227.977 96.9506L227.963 96.9883L234.024 99.1921ZM246.249 93.8696C246.249 96.1067 245.86 98.3068 245.06 100.501L257.177 104.919C258.482 101.34 259.146 97.6466 259.146 93.8696H246.249ZM245.068 100.481C244.305 102.552 243.279 104.137 242.048 105.367L251.168 114.487C253.847 111.808 255.828 108.582 257.17 104.94L245.068 100.481ZM242.074 105.342C239.966 107.426 237.676 108.941 235.191 109.958L240.074 121.895C244.204 120.205 247.898 117.72 251.142 114.513L242.074 105.342ZM235.171 109.966C232.911 110.899 229.722 111.507 225.364 111.507V124.405C230.808 124.405 235.798 123.66 240.093 121.887L235.171 109.966ZM225.364 111.507H214.583V124.405H225.364V111.507ZM208.135 117.956V139.832H221.032V117.956H208.135ZM214.583 133.383H197.263V146.281H214.583V133.383ZM203.712 139.832V72.6701H190.814V139.832H203.712ZM197.263 79.1187H225.769V66.2215H197.263V79.1187ZM225.769 79.1187C229.703 79.1187 232.717 79.4693 234.94 80.0423L238.159 67.5532C234.549 66.6227 230.376 66.2215 225.769 66.2215V79.1187ZM235.016 80.0613C237.343 80.6311 239.253 81.4615 240.826 82.489L247.88 71.6919C244.942 69.7725 241.65 68.4078 238.084 67.5342L235.016 80.0613ZM240.817 82.4835C242.628 83.6701 243.908 85.1086 244.79 86.8351L256.275 80.9676C254.33 77.1612 251.491 74.059 247.888 71.6974L240.817 82.4835ZM244.815 86.8843C245.675 88.5326 246.249 90.7813 246.249 93.8696H259.146C259.146 89.1998 258.276 84.803 256.25 80.9184L244.815 86.8843ZM241.239 94.2756C241.239 91.1507 240.369 88.1198 238.402 85.5168L228.112 93.2916C228.19 93.3949 228.342 93.6116 228.342 94.2756H241.239ZM238.443 85.5712C236.838 83.4003 234.741 81.591 232.089 80.5301L227.299 92.5048C227.353 92.5264 227.631 92.6416 228.071 93.2372L238.443 85.5712ZM232.089 80.5301C229.684 79.5683 227.192 78.9895 224.642 78.9001L224.19 91.7894C225.068 91.8202 226.095 92.0233 227.299 92.5048L232.089 80.5301ZM224.755 78.905C222.879 78.8063 220.467 78.7608 217.56 78.7608V91.658C220.367 91.658 222.526 91.7027 224.077 91.7844L224.755 78.905ZM217.56 78.7608H214.583V91.658H217.56V78.7608ZM208.135 85.2094V105.326H221.032V85.2094H208.135ZM214.583 111.775H219.545V98.8778H214.583V111.775ZM219.545 111.775C222.709 111.775 225.572 111.585 228.014 111.12L225.6 98.4504C224.253 98.707 222.275 98.8778 219.545 98.8778V111.775ZM227.995 111.123C230.83 110.592 233.504 109.464 235.773 107.565L227.494 97.6756C227.176 97.9411 226.633 98.2568 225.619 98.447L227.995 111.123ZM235.852 107.498C237.757 105.849 239.21 103.8 240.084 101.396L227.963 96.9883C227.875 97.2305 227.734 97.4664 227.415 97.7426L235.852 107.498ZM240.056 101.471C240.917 99.1929 241.239 96.7364 241.239 94.2756H228.342C228.342 95.6638 228.153 96.4849 227.991 96.9131L240.056 101.471ZM313.128 139.832V146.281H319.576V139.832H313.128ZM264.549 139.832H258.101V146.281H264.549V139.832ZM264.549 72.6701V66.2215H258.101V72.6701H264.549ZM313.128 72.6701H319.576V66.2215H313.128V72.6701ZM313.128 85.6605V92.1091H319.576V85.6605H313.128ZM281.78 85.6605V79.2118H275.331V85.6605H281.78ZM281.78 97.2525H275.331V103.701H281.78V97.2525ZM310.873 97.2525H317.321V90.8039H310.873V97.2525ZM310.873 110.243V116.692H317.321V110.243H310.873ZM281.78 110.243V103.794H275.331V110.243H281.78ZM281.78 126.842H275.331V133.29H281.78V126.842ZM313.128 126.842H319.576V120.393H313.128V126.842ZM313.128 133.383H264.549V146.281H313.128V133.383ZM270.998 139.832V72.6701H258.101V139.832H270.998ZM264.549 79.1187H313.128V66.2215H264.549V79.1187ZM306.679 72.6701V85.6605H319.576V72.6701H306.679ZM313.128 79.2118H281.78V92.1091H313.128V79.2118ZM275.331 85.6605V97.2525H288.228V85.6605H275.331ZM281.78 103.701H310.873V90.8039H281.78V103.701ZM304.424 97.2525V110.243H317.321V97.2525H304.424ZM310.873 103.794H281.78V116.692H310.873V103.794ZM275.331 110.243V126.842H288.228V110.243H275.331ZM281.78 133.29H313.128V120.393H281.78V133.29ZM306.679 126.842V139.832H319.576V126.842H306.679ZM393.179 155.258V161.707H399.628V155.258H393.179ZM377.257 155.258H370.808V161.707H377.257V155.258ZM377.257 139.606H383.705V133.158H377.257V139.606ZM336.482 139.606V133.158H330.033V139.606H336.482ZM336.482 155.258V161.707H342.93V155.258H336.482ZM320.559 155.258H314.111V161.707H320.559V155.258ZM320.559 126.797V120.348H314.111V126.797H320.559ZM325.656 126.797V133.245H329.724L331.476 129.575L325.656 126.797ZM333.64 102.079L327.321 100.794L327.319 100.804L327.317 100.814L333.64 102.079ZM336.436 72.6701V66.2215H329.988V72.6701H336.436ZM386.549 72.6701H392.997V66.2215H386.549V72.6701ZM386.549 126.797H380.1V133.245H386.549V126.797ZM393.179 126.797H399.628V120.348H393.179V126.797ZM369.228 126.797V133.245H375.677V126.797H369.228ZM369.228 85.6605H375.677V79.2118H369.228V85.6605ZM352.449 85.6605V79.2118H346.435L346.016 85.2111L352.449 85.6605ZM348.84 108.348L342.606 106.702L342.603 106.711L342.601 106.721L348.84 108.348ZM342.255 126.797L336.442 124.004L332.003 133.245H342.255V126.797ZM393.179 148.809H377.257V161.707H393.179V148.809ZM383.705 155.258V139.606H370.808V155.258H383.705ZM377.257 133.158H336.482V146.055H377.257V133.158ZM330.033 139.606V155.258H342.93V139.606H330.033ZM336.482 148.809H320.559V161.707H336.482V148.809ZM327.008 155.258V126.797H314.111V155.258H327.008ZM320.559 133.245H325.656V120.348H320.559V133.245ZM331.476 129.575C335.226 121.718 338.04 112.959 339.963 103.343L327.317 100.814C325.571 109.541 323.063 117.261 319.837 124.019L331.476 129.575ZM339.959 103.363C341.919 93.7242 342.885 83.4874 342.885 72.6701H329.988C329.988 82.7216 329.09 92.0906 327.321 100.794L339.959 103.363ZM336.436 79.1187H386.549V66.2215H336.436V79.1187ZM380.1 72.6701V126.797H392.997V72.6701H380.1ZM386.549 133.245H393.179V120.348H386.549V133.245ZM386.73 126.797V155.258H399.628V126.797H386.73ZM375.677 126.797V85.6605H362.779V126.797H375.677ZM369.228 79.2118H352.449V92.1091H369.228V79.2118ZM346.016 85.2111C345.469 93.0413 344.323 100.198 342.606 106.702L355.075 109.995C357.026 102.606 358.286 94.6378 358.882 86.1098L346.016 85.2111ZM342.601 106.721C340.881 113.311 338.818 119.059 336.442 124.004L348.068 129.589C350.864 123.769 353.191 117.218 355.08 109.976L342.601 106.721ZM342.255 133.245H369.228V120.348H342.255V133.245ZM463.668 72.6701L469.537 75.3412L473.688 66.2215H463.668V72.6701ZM439.221 126.391L445.087 129.068L445.09 129.062L439.221 126.391ZM428.666 138.073L425.964 132.218L425.927 132.235L425.89 132.252L428.666 138.073ZM422.848 139.877L421.95 133.491L421.936 133.493L422.848 139.877ZM409.677 140.103L409.945 133.66L409.912 133.658L409.878 133.657L409.677 140.103ZM403.948 139.832H397.5V145.687L403.327 146.251L403.948 139.832ZM403.948 125.173V118.724H397.5V125.173H403.948ZM404.986 125.173L406.757 118.972L405.889 118.724H404.986V125.173ZM408.324 125.759L407.479 132.152L407.539 132.16L407.598 132.167L408.324 125.759ZM420.277 125.173L418.387 119.007L418.373 119.012L418.359 119.016L420.277 125.173ZM423.705 122.918L429.582 125.572L430.899 122.654L429.371 119.84L423.705 122.918ZM396.416 72.6701V66.2215H385.575L390.749 75.7477L396.416 72.6701ZM415.225 72.6701L420.936 69.6767L419.126 66.2215H415.225V72.6701ZM431.914 104.515L426.202 107.508L432.475 119.477L437.834 107.072L431.914 104.515ZM445.671 72.6701V66.2215H441.432L439.751 70.1127L445.671 72.6701ZM457.798 69.9991L433.351 123.72L445.09 129.062L469.537 75.3412L457.798 69.9991ZM433.354 123.714C432.162 126.327 430.915 128.155 429.717 129.392L438.982 138.364C441.452 135.813 443.453 132.649 445.087 129.068L433.354 123.714ZM429.717 129.392C428.315 130.84 427.054 131.715 425.964 132.218L431.368 143.928C434.188 142.627 436.715 140.705 438.982 138.364L429.717 129.392ZM425.89 132.252C424.462 132.933 423.153 133.322 421.95 133.491L423.746 146.263C426.391 145.891 428.961 145.077 431.442 143.893L425.89 132.252ZM421.936 133.493C420.34 133.721 418.75 133.834 417.164 133.834V146.732C419.367 146.732 421.566 146.574 423.76 146.261L421.936 133.493ZM417.164 133.834C415.175 133.834 412.773 133.777 409.945 133.66L409.408 146.546C412.354 146.668 414.944 146.732 417.164 146.732V133.834ZM409.878 133.657C406.952 133.566 405.256 133.48 404.57 133.413L403.327 146.251C404.505 146.365 406.628 146.459 409.475 146.548L409.878 133.657ZM410.397 139.832V125.173H397.5V139.832H410.397ZM403.948 131.621H404.986V118.724H403.948V131.621ZM403.214 131.373C404.352 131.698 405.892 131.943 407.479 132.152L409.168 119.366C408.427 119.268 407.847 119.18 407.41 119.103C407.193 119.065 407.028 119.033 406.908 119.007C406.784 118.98 406.74 118.967 406.757 118.972L403.214 131.373ZM407.598 132.167C409.427 132.374 411.248 132.478 413.06 132.478V119.581C411.745 119.581 410.408 119.505 409.049 119.351L407.598 132.167ZM413.06 132.478C416.371 132.478 419.496 132.17 422.194 131.33L418.359 119.016C417.388 119.318 415.702 119.581 413.06 119.581V132.478ZM422.166 131.338C424.347 130.67 427.94 129.207 429.582 125.572L417.827 120.263C418.263 119.299 418.873 118.868 418.988 118.793C419.094 118.723 418.96 118.831 418.387 119.007L422.166 131.338ZM429.371 119.84L402.083 69.5925L390.749 75.7477L418.038 125.995L429.371 119.84ZM396.416 79.1187H415.225V66.2215H396.416V79.1187ZM409.513 75.6635L426.202 107.508L437.625 101.521L420.936 69.6767L409.513 75.6635ZM437.834 107.072L451.591 75.2275L439.751 70.1127L425.994 101.957L437.834 107.072ZM445.671 79.1187H463.668V66.2215H445.671V79.1187ZM532.398 139.832V146.281H538.846V139.832H532.398ZM515.077 139.832H508.629V146.281H515.077V139.832ZM515.077 85.6605H521.526V79.2118H515.077V85.6605ZM489.502 85.6605V79.2118H483.054V85.6605H489.502ZM489.502 139.832V146.281H495.951V139.832H489.502ZM472.182 139.832H465.733V146.281H472.182V139.832ZM472.182 72.6701V66.2215H465.733V72.6701H472.182ZM532.398 72.6701H538.846V66.2215H532.398V72.6701ZM532.398 133.383H515.077V146.281H532.398V133.383ZM521.526 139.832V85.6605H508.629V139.832H521.526ZM515.077 79.2118H489.502V92.1091H515.077V79.2118ZM483.054 85.6605V139.832H495.951V85.6605H483.054ZM489.502 133.383H472.182V146.281H489.502V133.383ZM478.631 139.832V72.6701H465.733V139.832H478.631ZM472.182 79.1187H532.398V66.2215H472.182V79.1187ZM525.949 72.6701V139.832H538.846V72.6701H525.949ZM602.977 102.71L609.028 104.94L609.032 104.929L609.035 104.919L602.977 102.71ZM598.466 109.927L603 114.513L603.013 114.5L603.026 114.487L598.466 109.927ZM589.49 115.926L587.049 109.958L587.039 109.962L587.029 109.966L589.49 115.926ZM566.441 117.956V111.507H559.993V117.956H566.441ZM566.441 139.832V146.281H572.89V139.832H566.441ZM549.121 139.832H542.672V146.281H549.121V139.832ZM549.121 72.6701V66.2215H542.672V72.6701H549.121ZM588.408 73.7977L586.798 80.0423L586.836 80.052L586.874 80.0613L588.408 73.7977ZM596.211 77.0904L599.746 71.6974L599.738 71.6919L596.211 77.0904ZM602.39 83.9014L596.648 86.8351L596.66 86.8597L596.673 86.8843L602.39 83.9014ZM585.115 89.4042L579.929 93.2372L579.949 93.2645L579.97 93.2916L585.115 89.4042ZM576.274 85.3447L575.935 91.7844L575.992 91.7874L576.048 91.7894L576.274 85.3447ZM566.441 85.2094V78.7608H559.993V85.2094H566.441ZM566.441 105.326H559.993V111.775H566.441V105.326ZM578.665 104.785L577.477 98.447L577.467 98.4487L577.458 98.4504L578.665 104.785ZM583.491 102.62L587.631 107.565L587.671 107.531L587.71 107.498L583.491 102.62ZM585.882 99.1921L579.849 96.9131L579.835 96.9506L579.821 96.9883L585.882 99.1921ZM598.107 93.8696C598.107 96.1067 597.718 98.3068 596.918 100.501L609.035 104.919C610.34 101.34 611.004 97.6466 611.004 93.8696H598.107ZM596.926 100.481C596.163 102.552 595.137 104.137 593.906 105.367L603.026 114.487C605.705 111.808 607.686 108.582 609.028 104.94L596.926 100.481ZM593.932 105.342C591.824 107.426 589.534 108.941 587.049 109.958L591.932 121.895C596.062 120.205 599.756 117.72 603 114.513L593.932 105.342ZM587.029 109.966C584.769 110.899 581.58 111.507 577.222 111.507V124.405C582.666 124.405 587.656 123.66 591.951 121.887L587.029 109.966ZM577.222 111.507H566.441V124.405H577.222V111.507ZM559.993 117.956V139.832H572.89V117.956H559.993ZM566.441 133.383H549.121V146.281H566.441V133.383ZM555.57 139.832V72.6701H542.672V139.832H555.57ZM549.121 79.1187H577.628V66.2215H549.121V79.1187ZM577.628 79.1187C581.561 79.1187 584.575 79.4693 586.798 80.0423L590.017 67.5532C586.407 66.6227 582.234 66.2215 577.628 66.2215V79.1187ZM586.874 80.0613C589.201 80.6311 591.111 81.4615 592.684 82.489L599.738 71.6919C596.8 69.7725 593.509 68.4078 589.942 67.5342L586.874 80.0613ZM592.676 82.4835C594.486 83.6701 595.766 85.1086 596.648 86.8351L608.133 80.9676C606.188 77.1612 603.349 74.059 599.746 71.6974L592.676 82.4835ZM596.673 86.8843C597.533 88.5326 598.107 90.7813 598.107 93.8696H611.004C611.004 89.1998 610.134 84.803 608.108 80.9184L596.673 86.8843ZM593.097 94.2756C593.097 91.1507 592.227 88.1198 590.26 85.5168L579.97 93.2916C580.048 93.3949 580.2 93.6116 580.2 94.2756H593.097ZM590.301 85.5712C588.696 83.4003 586.599 81.591 583.947 80.5301L579.157 92.5048C579.211 92.5264 579.489 92.6416 579.929 93.2372L590.301 85.5712ZM583.947 80.5301C581.542 79.5683 579.05 78.9895 576.501 78.9001L576.048 91.7894C576.926 91.8202 577.953 92.0233 579.157 92.5048L583.947 80.5301ZM576.613 78.905C574.737 78.8063 572.325 78.7608 569.418 78.7608V91.658C572.225 91.658 574.384 91.7027 575.935 91.7844L576.613 78.905ZM569.418 78.7608H566.441V91.658L569.418 91.658V78.7608ZM559.993 85.2094V105.326L572.89 105.326V85.2094H559.993ZM566.441 111.775L571.403 111.775V98.8778L566.441 98.8778V111.775ZM571.403 111.775C574.567 111.775 577.43 111.585 579.872 111.12L577.458 98.4504C576.111 98.707 574.133 98.8778 571.403 98.8778V111.775ZM579.853 111.123C582.688 110.592 585.362 109.464 587.631 107.565L579.352 97.6756C579.035 97.9411 578.491 98.2568 577.477 98.447L579.853 111.123ZM587.71 107.498C589.615 105.849 591.068 103.8 591.942 101.396L579.821 96.9883C579.733 97.2305 579.592 97.4664 579.273 97.7426L587.71 107.498ZM591.914 101.471C592.775 99.1929 593.097 96.7364 593.097 94.2756H580.2C580.2 95.6638 580.011 96.4849 579.849 96.9131L591.914 101.471ZM664.986 139.832V146.281H671.434V139.832H664.986ZM616.407 139.832H609.959V146.281H616.407V139.832ZM616.407 72.6701V66.2215H609.959V72.6701H616.407ZM664.986 72.6701H671.434V66.2215H664.986V72.6701ZM664.986 85.6605V92.1091H671.434V85.6605H664.986ZM633.638 85.6605V79.2118H627.189V85.6605H633.638ZM633.638 97.2525H627.189V103.701H633.638V97.2525ZM662.731 97.2525H669.179V90.8039H662.731V97.2525ZM662.731 110.243V116.692H669.179V110.243H662.731ZM633.638 110.243V103.794H627.189V110.243H633.638ZM633.638 126.842H627.189V133.29H633.638V126.842ZM664.986 126.842H671.434V120.393H664.986V126.842ZM664.986 133.383H616.407V146.281H664.986V133.383ZM622.856 139.832V72.6701H609.959V139.832H622.856ZM616.407 79.1187H664.986V66.2215H616.407V79.1187ZM658.537 72.6701V85.6605H671.434V72.6701H658.537ZM664.986 79.2118H633.638V92.1091H664.986V79.2118ZM627.189 85.6605V97.2525H640.086V85.6605H627.189ZM633.638 103.701H662.731V90.8039H633.638V103.701ZM656.282 97.2525V110.243H669.179V97.2525H656.282ZM662.731 103.794H633.638V116.692H662.731V103.794ZM627.189 110.243V126.842H640.086V110.243H627.189ZM633.638 133.29H664.986V120.393H633.638V133.29ZM658.537 126.842V139.832H671.434V126.842H658.537ZM745.037 155.258V161.707H751.486V155.258H745.037ZM729.115 155.258H722.666V161.707H729.115V155.258ZM729.115 139.606H735.563V133.158H729.115V139.606ZM688.34 139.606V133.158H681.891V139.606H688.34ZM688.34 155.258V161.707H694.788V155.258H688.34ZM672.417 155.258H665.969V161.707H672.417V155.258ZM672.417 126.797V120.348H665.969V126.797H672.417ZM677.514 126.797V133.245H681.582L683.334 129.575L677.514 126.797ZM685.498 102.079L679.179 100.794L679.177 100.804L679.175 100.814L685.498 102.079ZM688.294 72.6701V66.2215H681.846V72.6701H688.294ZM738.407 72.6701H744.855V66.2215H738.407V72.6701ZM738.407 126.797H731.958V133.245H738.407V126.797ZM745.037 126.797H751.486V120.348H745.037V126.797ZM721.086 126.797V133.245H727.535V126.797H721.086ZM721.086 85.6605H727.535V79.2118H721.086V85.6605ZM704.307 85.6605V79.2118H698.293L697.874 85.2111L704.307 85.6605ZM700.698 108.348L694.464 106.702L694.461 106.711L694.459 106.721L700.698 108.348ZM694.113 126.797L688.301 124.004L683.861 133.245H694.113V126.797ZM745.037 148.809H729.115V161.707H745.037V148.809ZM735.563 155.258V139.606H722.666V155.258H735.563ZM729.115 133.158H688.34V146.055H729.115V133.158ZM681.891 139.606V155.258H694.788V139.606H681.891ZM688.34 148.809H672.417V161.707H688.34V148.809ZM678.866 155.258V126.797H665.969V155.258H678.866ZM672.417 133.245H677.514V120.348H672.417V133.245ZM683.334 129.575C687.084 121.718 689.898 112.959 691.821 103.343L679.175 100.814C677.429 109.541 674.921 117.261 671.695 124.019L683.334 129.575ZM691.817 103.363C693.777 93.7242 694.743 83.4874 694.743 72.6701H681.846C681.846 82.7216 680.948 92.0906 679.179 100.794L691.817 103.363ZM688.294 79.1187H738.407V66.2215H688.294V79.1187ZM731.958 72.6701V126.797H744.855V72.6701H731.958ZM738.407 133.245H745.037V120.348H738.407V133.245ZM738.588 126.797V155.258H751.486V126.797H738.588ZM727.535 126.797V85.6605H714.638V126.797H727.535ZM721.086 79.2118H704.307V92.1091H721.086V79.2118ZM697.874 85.2111C697.327 93.0413 696.181 100.198 694.464 106.702L706.933 109.995C708.884 102.606 710.144 94.6378 710.74 86.1098L697.874 85.2111ZM694.459 106.721C692.739 113.311 690.676 119.059 688.301 124.004L699.926 129.589C702.722 123.769 705.049 117.218 706.938 109.976L694.459 106.721ZM694.113 133.245H721.086V120.348H694.113V133.245ZM817.646 139.832V146.281H824.095V139.832H817.646ZM800.777 139.832H794.328V146.281H800.777V139.832ZM800.777 95.1326H807.225V72.6052L795.305 91.7203L800.777 95.1326ZM772.901 139.832V146.281H776.48L778.373 143.244L772.901 139.832ZM756.393 139.832H749.944V146.281H756.393V139.832ZM756.393 72.6701V66.2215H749.944V72.6701H756.393ZM773.262 72.6701H779.711V66.2215H773.262V72.6701ZM773.262 113.13H766.814V135.139L778.691 116.61L773.262 113.13ZM799.198 72.6701V66.2215H795.672L793.769 69.19L799.198 72.6701ZM817.646 72.6701H824.095V66.2215H817.646V72.6701ZM817.646 133.383H800.777V146.281H817.646V133.383ZM807.225 139.832V95.1326H794.328V139.832H807.225ZM795.305 91.7203L767.43 136.42L778.373 143.244L806.248 98.5449L795.305 91.7203ZM772.901 133.383H756.393V146.281H772.901V133.383ZM762.841 139.832V72.6701H749.944V139.832H762.841ZM756.393 79.1187H773.262V66.2215H756.393V79.1187ZM766.814 72.6701V113.13H779.711V72.6701H766.814ZM778.691 116.61L804.627 76.1502L793.769 69.19L767.833 109.65L778.691 116.61ZM799.198 79.1187H817.646V66.2215H799.198V79.1187ZM811.197 72.6701V139.832H824.095V72.6701H811.197ZM886.601 85.6605V92.1091H893.05V85.6605H886.601ZM865.627 85.6605V79.2118H859.179V85.6605H865.627ZM865.627 139.832V146.281H872.076V139.832H865.627ZM848.307 139.832H841.858V146.281H848.307V139.832ZM848.307 85.6605H854.755V79.2118H848.307V85.6605ZM827.333 85.6605H820.884V92.1091H827.333V85.6605ZM827.333 72.6701V66.2215H820.884V72.6701H827.333ZM886.601 72.6701H893.05V66.2215H886.601V72.6701ZM886.601 79.2118H865.627V92.1091H886.601V79.2118ZM859.179 85.6605V139.832H872.076V85.6605H859.179ZM865.627 133.383H848.307V146.281H865.627V133.383ZM854.755 139.832V85.6605H841.858V139.832H854.755ZM848.307 79.2118H827.333V92.1091H848.307V79.2118ZM833.781 85.6605V72.6701H820.884V85.6605H833.781ZM827.333 79.1187H886.601V66.2215H827.333V79.1187ZM880.153 72.6701V85.6605H893.05V72.6701H880.153ZM933.996 112.859L938.638 108.383L938.597 108.341L938.556 108.299L933.996 112.859ZM913.879 110.198V103.749H907.431V110.198H913.879ZM913.879 127.293H907.431V133.741H913.879V127.293ZM929.892 126.571L927.961 120.418L927.944 120.424L927.926 120.429L929.892 126.571ZM933.41 124.722L929.126 119.902L929.077 119.945L929.029 119.99L933.41 124.722ZM935.259 122.151L929.359 119.548L929.341 119.59L929.323 119.632L935.259 122.151ZM951.948 127.338L946.082 124.66L946.075 124.674L946.069 124.689L951.948 127.338ZM946.851 134.059L950.886 139.089L950.897 139.08L946.851 134.059ZM938.281 138.614L939.994 144.831L940.015 144.825L940.036 144.819L938.281 138.614ZM896.559 139.832H890.11V146.281H896.559V139.832ZM896.559 72.6701V66.2215H890.11V72.6701H896.559ZM913.879 72.6701H920.328V66.2215H913.879V72.6701ZM913.879 97.7036H907.431V104.152H913.879V97.7036ZM939.273 98.741L937.814 105.022L937.851 105.031L937.888 105.039L939.273 98.741ZM947.212 102.44L943.216 107.501L943.232 107.514L943.248 107.526L947.212 102.44ZM952.264 109.296L946.237 111.589L946.241 111.6L946.245 111.611L952.264 109.296ZM942.384 118.768C942.384 117.189 942.213 115.623 941.842 114.091L929.308 117.13C929.417 117.582 929.487 118.122 929.487 118.768H942.384ZM941.842 114.091C941.294 111.833 940.127 109.927 938.638 108.383L929.354 117.335C929.431 117.414 929.433 117.435 929.406 117.388C929.393 117.365 929.375 117.33 929.357 117.283C929.338 117.237 929.321 117.185 929.308 117.13L941.842 114.091ZM938.556 108.299C936.869 106.612 934.814 105.522 932.737 104.815L928.58 117.024C929.329 117.279 929.5 117.482 929.436 117.419L938.556 108.299ZM932.737 104.815C930.354 104.004 927.589 103.749 924.795 103.749V116.646C926.992 116.646 928.136 116.873 928.58 117.024L932.737 104.815ZM924.795 103.749H913.879V116.646H924.795V103.749ZM907.431 110.198V127.293H920.328V110.198H907.431ZM913.879 133.741H924.795V120.844H913.879V133.741ZM924.795 133.741C927.227 133.741 929.606 133.433 931.857 132.713L927.926 120.429C927.17 120.671 926.151 120.844 924.795 120.844V133.741ZM931.822 132.724C933.886 132.076 936.034 131.08 937.791 129.453L929.029 119.99C929.11 119.914 929.101 119.945 928.921 120.04C928.74 120.135 928.434 120.27 927.961 120.418L931.822 132.724ZM937.694 129.541C939.215 128.19 940.398 126.549 941.196 124.669L929.323 119.632C929.278 119.737 929.229 119.81 929.126 119.902L937.694 129.541ZM941.159 124.754C942.008 122.83 942.384 120.804 942.384 118.768H929.487C929.487 119.198 929.413 119.427 929.359 119.548L941.159 124.754ZM947.394 118.272C947.394 120.698 946.932 122.798 946.082 124.66L957.814 130.016C959.49 126.345 960.291 122.4 960.291 118.272H947.394ZM946.069 124.689C945.218 126.576 944.12 127.978 942.806 129.037L950.897 139.08C953.913 136.651 956.212 133.572 957.828 129.987L946.069 124.689ZM942.816 129.028C940.663 130.755 938.568 131.832 936.526 132.409L940.036 144.819C943.948 143.713 947.566 141.752 950.886 139.089L942.816 129.028ZM936.568 132.397C934.345 133.01 931.378 133.383 927.546 133.383V146.281C932.134 146.281 936.324 145.842 939.994 144.831L936.568 132.397ZM927.546 133.383H896.559V146.281H927.546V133.383ZM903.007 139.832V72.6701H890.11V139.832H903.007ZM896.559 79.1187H913.879V66.2215H896.559V79.1187ZM907.431 72.6701V97.7036H920.328V72.6701H907.431ZM913.879 104.152H927.817V91.255H913.879V104.152ZM927.817 104.152C932.214 104.152 935.496 104.484 937.814 105.022L940.733 92.4597C937.097 91.6151 932.741 91.255 927.817 91.255V104.152ZM937.888 105.039C939.999 105.503 941.74 106.336 943.216 107.501L951.208 97.3783C948.113 94.9352 944.562 93.3018 940.659 92.443L937.888 105.039ZM943.248 107.526C944.625 108.599 945.6 109.915 946.237 111.589L958.291 107.003C956.823 103.144 954.43 99.8886 951.176 97.353L943.248 107.526ZM946.245 111.611C946.984 113.533 947.394 115.73 947.394 118.272H960.291C960.291 114.318 959.648 110.531 958.283 106.981L946.245 111.611ZM1084.44 131.803L1089.05 136.308L1089.06 136.302L1089.06 136.297L1084.44 131.803ZM1033.6 131.803L1028.98 136.297L1028.98 136.302L1028.99 136.308L1033.6 131.803ZM1033.6 80.6989L1038.21 85.2142L1038.21 85.2087L1038.22 85.2032L1033.6 80.6989ZM1084.39 80.6989L1079.79 85.2145L1079.79 85.22L1079.8 85.2255L1084.39 80.6989ZM1070.68 123.278L1075.63 127.407L1075.64 127.392L1075.66 127.378L1070.68 123.278ZM1074.42 116.061L1080.61 117.877L1080.61 117.868L1080.61 117.859L1074.42 116.061ZM1074.24 95.9445L1068.12 97.9642L1074.24 95.9445ZM1070.59 89.0885L1065.67 93.2649L1065.69 93.282L1065.7 93.299L1070.59 89.0885ZM1065.27 85.1643L1062.82 91.1328L1062.84 91.1392L1062.86 91.1455L1065.27 85.1643ZM1052.82 85.1192L1050.42 79.1318L1050.41 79.1382L1050.39 79.1448L1052.82 85.1192ZM1047.49 88.9983L1042.7 84.6844L1042.69 84.6939L1042.68 84.7034L1047.49 88.9983ZM1043.8 95.9896L1037.66 94.0062L1037.65 94.0255L1037.65 94.0447L1043.8 95.9896ZM1043.75 116.513L1037.61 118.473L1037.62 118.513L1037.63 118.552L1043.75 116.513ZM1065.4 127.293L1067.89 133.243L1067.92 133.227L1067.96 133.211L1065.4 127.293ZM1087.19 106.274C1087.19 115.685 1084.53 122.449 1079.81 127.31L1089.06 136.297C1096.61 128.528 1100.09 118.272 1100.09 106.274H1087.19ZM1079.82 127.299C1075.17 132.063 1068.51 134.782 1059 134.782V147.679C1071.13 147.679 1081.43 144.113 1089.05 136.308L1079.82 127.299ZM1059 134.782C1049.51 134.782 1042.87 132.066 1038.22 127.299L1028.99 136.308C1036.6 144.11 1046.89 147.679 1059 147.679V134.782ZM1038.23 127.31C1033.5 122.449 1030.85 115.685 1030.85 106.274H1017.95C1017.95 118.272 1021.43 128.528 1028.98 136.297L1038.23 127.31ZM1030.85 106.274C1030.85 96.7521 1033.52 89.9964 1038.21 85.2142L1029 76.1835C1021.42 83.9106 1017.95 94.2047 1017.95 106.274H1030.85ZM1038.22 85.2032C1042.87 80.4359 1049.51 77.7205 1059 77.7205V64.8232C1046.89 64.8232 1036.6 68.3925 1028.99 76.1945L1038.22 85.2032ZM1059 77.7205C1068.44 77.7205 1075.1 80.4322 1079.79 85.2145L1088.99 76.1833C1081.36 68.3962 1071.08 64.8232 1059 64.8232V77.7205ZM1079.8 85.2255C1084.51 90.0091 1087.19 96.7609 1087.19 106.274H1100.09C1100.09 94.1959 1096.6 83.8979 1088.98 76.1723L1079.8 85.2255ZM1075.66 127.378C1077.94 124.604 1079.57 121.404 1080.61 117.877L1068.23 114.246C1067.65 116.251 1066.78 117.863 1065.7 119.179L1075.66 127.378ZM1080.61 117.859C1081.64 114.338 1082.09 110.429 1082.09 106.229H1069.19C1069.19 109.546 1068.83 112.192 1068.23 114.264L1080.61 117.859ZM1082.09 106.229C1082.09 101.739 1081.57 97.5877 1080.37 93.9248L1068.12 97.9642C1068.77 99.9545 1069.19 102.659 1069.19 106.229H1082.09ZM1080.37 93.9248C1079.24 90.5184 1077.66 87.4216 1075.47 84.8779L1065.7 93.299C1066.52 94.2435 1067.38 95.7174 1068.12 97.9642L1080.37 93.9248ZM1075.5 84.912C1073.35 82.3858 1070.74 80.4195 1067.68 79.1831L1062.86 91.1455C1063.82 91.5328 1064.75 92.1828 1065.67 93.2649L1075.5 84.912ZM1067.71 79.1958C1064.94 78.0637 1062.04 77.4978 1059.04 77.4978V90.3951C1060.38 90.3951 1061.62 90.6411 1062.82 91.1328L1067.71 79.1958ZM1059.04 77.4978C1056.06 77.4978 1053.17 78.0323 1050.42 79.1318L1055.21 91.1066C1056.37 90.6424 1057.63 90.3951 1059.04 90.3951V77.4978ZM1050.39 79.1448C1047.42 80.351 1044.87 82.2765 1042.7 84.6844L1052.29 93.3122C1053.37 92.1116 1054.36 91.4511 1055.24 91.0936L1050.39 79.1448ZM1042.68 84.7034C1040.4 87.2628 1038.8 90.4834 1037.66 94.0062L1049.93 97.973C1050.72 95.5419 1051.58 94.1016 1052.3 93.2931L1042.68 84.7034ZM1037.65 94.0447C1036.47 97.7617 1035.95 101.871 1035.95 106.274H1048.85C1048.85 102.858 1049.26 100.111 1049.94 97.9345L1037.65 94.0447ZM1035.95 106.274C1035.95 110.723 1036.45 114.836 1037.61 118.473L1049.89 114.552C1049.25 112.536 1048.85 109.823 1048.85 106.274H1035.95ZM1037.63 118.552C1038.76 121.928 1040.33 124.993 1042.48 127.538L1052.32 119.199C1051.47 118.195 1050.61 116.69 1049.87 114.473L1037.63 118.552ZM1042.48 127.538C1044.6 130.038 1047.18 131.982 1050.19 133.243L1055.17 121.343C1054.15 120.919 1053.21 120.248 1052.32 119.199L1042.48 127.538ZM1050.19 133.243C1053.01 134.42 1055.98 135.004 1059.04 135.004V122.107C1057.65 122.107 1056.38 121.849 1055.17 121.343L1050.19 133.243ZM1059.04 135.004C1062.1 135.004 1065.07 134.42 1067.89 133.243L1062.91 121.343C1061.7 121.849 1060.43 122.107 1059.04 122.107V135.004ZM1067.96 133.211C1070.97 131.91 1073.53 129.931 1075.63 127.407L1065.72 119.15C1064.82 120.234 1063.86 120.931 1062.84 121.375L1067.96 133.211ZM1154.06 138.93L1151.93 145.016L1151.93 145.019L1151.94 145.021L1154.06 138.93ZM1136.1 121.429L1130.07 123.716L1130.08 123.734L1130.09 123.752L1136.1 121.429ZM1136.01 91.8399L1129.96 89.6125L1136.01 91.8399ZM1142.96 80.6989L1147.56 85.2138L1147.57 85.212L1142.96 80.6989ZM1153.79 73.7977L1151.52 67.7597L1151.51 67.7623L1151.51 67.7649L1153.79 73.7977ZM1175.57 71.8582L1174.64 78.2386L1174.68 78.2455L1174.73 78.2517L1175.57 71.8582ZM1181.89 73.0761L1183.65 66.8721L1183.59 66.8574L1183.54 66.8436L1181.89 73.0761ZM1187.34 75.0156L1184.73 80.9084L1184.79 80.9374L1184.86 80.9649L1187.34 75.0156ZM1191.67 76.9551H1198.12V72.9258L1194.5 71.1593L1191.67 76.9551ZM1191.67 93.2382V99.6868H1198.12V93.2382H1191.67ZM1189.69 93.2382L1185.49 98.1343L1187.3 99.6868H1189.69V93.2382ZM1186.49 90.6672L1182.5 95.7378L1182.53 95.7605L1182.56 95.7829L1186.49 90.6672ZM1182.16 87.7353L1185.44 82.1876L1185.42 82.1745L1185.4 82.1615L1182.16 87.7353ZM1176.79 85.2996L1174.69 91.398L1176.79 85.2996ZM1163.66 85.48L1165.75 91.5808L1165.79 91.5681L1165.83 91.5548L1163.66 85.48ZM1157.57 89.2689L1153.13 84.5974L1153.11 84.6142L1153.09 84.6311L1157.57 89.2689ZM1153.24 96.0798L1147.24 93.7179L1147.23 93.7456L1147.22 93.7735L1153.24 96.0798ZM1153.38 116.918L1147.42 119.39L1147.43 119.417L1147.45 119.443L1153.38 116.918ZM1157.89 123.594L1162.21 118.805L1162.2 118.801L1157.89 123.594ZM1164.02 127.157L1162.06 133.299L1162.1 133.311L1162.13 133.323L1164.02 127.157ZM1176.92 127.248L1175.05 121.078L1175.03 121.082L1175.02 121.086L1176.92 127.248ZM1182.65 124.677L1179.37 119.127L1179.31 119.162L1179.25 119.198L1182.65 124.677ZM1189.87 119.309V112.86H1187.42L1185.59 114.489L1189.87 119.309ZM1191.67 119.309H1198.12V112.86H1191.67V119.309ZM1191.67 135.367L1194.3 141.255L1198.12 139.55V135.367H1191.67ZM1182.02 139.201L1180.25 133L1180.24 133.003L1182.02 139.201ZM1175.84 140.644L1174.75 134.289L1175.84 140.644ZM1167.9 134.691C1163.55 134.691 1159.66 134.051 1156.17 132.839L1151.94 145.021C1156.93 146.756 1162.27 147.589 1167.9 147.589V134.691ZM1156.19 132.843C1152.8 131.657 1149.98 129.932 1147.65 127.694L1138.72 136.996C1142.46 140.59 1146.9 143.256 1151.93 145.016L1156.19 132.843ZM1147.65 127.694C1145.37 125.499 1143.5 122.684 1142.12 119.106L1130.09 123.752C1132.07 128.895 1134.93 133.357 1138.72 136.996L1147.65 127.694ZM1142.13 119.142C1140.81 115.656 1140.07 111.421 1140.07 106.319H1127.17C1127.17 112.643 1128.09 118.481 1130.07 123.716L1142.13 119.142ZM1140.07 106.319C1140.07 101.641 1140.77 97.5837 1142.07 94.0673L1129.96 89.6125C1128.07 94.7563 1127.17 100.351 1127.17 106.319H1140.07ZM1142.07 94.0673C1143.36 90.538 1145.21 87.6186 1147.56 85.2138L1138.36 76.1839C1134.64 79.9737 1131.85 84.4816 1129.96 89.6125L1142.07 94.0673ZM1147.57 85.212C1149.76 82.9711 1152.55 81.1575 1156.06 79.8305L1151.51 67.7649C1146.42 69.6856 1141.99 72.4728 1138.35 76.1858L1147.57 85.212ZM1156.05 79.8358C1159.58 78.5106 1163.53 77.8107 1167.95 77.8107V64.9134C1162.14 64.9134 1156.65 65.8373 1151.52 67.7597L1156.05 79.8358ZM1167.95 77.8107C1170.53 77.8107 1172.75 77.9625 1174.64 78.2386L1176.51 65.4779C1173.88 65.0924 1171.02 64.9134 1167.95 64.9134V77.8107ZM1174.73 78.2517C1176.78 78.5218 1178.61 78.8785 1180.23 79.3085L1183.54 66.8436C1181.31 66.2512 1178.93 65.7961 1176.41 65.4647L1174.73 78.2517ZM1180.13 79.28C1181.9 79.7824 1183.42 80.3302 1184.73 80.9084L1189.96 69.1228C1188.02 68.2576 1185.9 67.5124 1183.65 66.8721L1180.13 79.28ZM1184.86 80.9649C1186.43 81.6223 1187.75 82.2175 1188.85 82.7509L1194.5 71.1593C1193.13 70.4899 1191.57 69.7922 1189.83 69.0662L1184.86 80.9649ZM1185.23 76.9551V93.2382H1198.12V76.9551H1185.23ZM1191.67 86.7896H1189.69V99.6868H1191.67V86.7896ZM1193.89 88.342C1192.93 87.5187 1191.76 86.585 1190.41 85.5514L1182.56 95.7829C1183.8 96.734 1184.77 97.5143 1185.49 98.1343L1193.89 88.342ZM1190.47 85.5965C1188.95 84.4031 1187.27 83.2694 1185.44 82.1876L1178.87 93.283C1180.29 94.1258 1181.5 94.9465 1182.5 95.7378L1190.47 85.5965ZM1185.4 82.1615C1183.36 80.9744 1181.18 79.9911 1178.89 79.2013L1174.69 91.398C1176.24 91.9312 1177.65 92.5717 1178.91 93.3092L1185.4 82.1615ZM1178.89 79.2013C1176.24 78.2902 1173.46 77.8587 1170.61 77.8587V90.7559C1172.15 90.7559 1173.49 90.9859 1174.69 91.398L1178.89 79.2013ZM1170.61 77.8587C1167.47 77.8587 1164.42 78.365 1161.5 79.4052L1165.83 91.5548C1167.3 91.0315 1168.88 90.7559 1170.61 90.7559V77.8587ZM1161.57 79.3793C1158.41 80.4636 1155.59 82.2531 1153.13 84.5974L1162.02 93.9404C1163.29 92.7364 1164.53 92 1165.75 91.5808L1161.57 79.3793ZM1153.09 84.6311C1150.52 87.1167 1148.62 90.2265 1147.24 93.7179L1159.24 98.4417C1160.1 96.2799 1161.08 94.849 1162.06 93.9067L1153.09 84.6311ZM1147.22 93.7735C1145.78 97.5356 1145.17 101.792 1145.17 106.364H1158.07C1158.07 102.877 1158.54 100.277 1159.27 98.3861L1147.22 93.7735ZM1145.17 106.364C1145.17 111.124 1145.83 115.545 1147.42 119.39L1159.34 114.447C1158.59 112.639 1158.07 110.023 1158.07 106.364H1145.17ZM1147.45 119.443C1148.92 122.913 1150.91 125.991 1153.58 128.387L1162.2 118.801C1161.26 117.95 1160.24 116.577 1159.31 114.394L1147.45 119.443ZM1153.57 128.383C1156.06 130.623 1158.9 132.287 1162.06 133.299L1165.99 121.016C1164.64 120.585 1163.39 119.873 1162.21 118.805L1153.57 128.383ZM1162.13 133.323C1164.96 134.188 1167.82 134.643 1170.7 134.643V121.746C1169.19 121.746 1167.6 121.51 1165.92 120.992L1162.13 133.323ZM1170.7 134.643C1173.46 134.643 1176.18 134.228 1178.83 133.409L1175.02 121.086C1173.58 121.53 1172.15 121.746 1170.7 121.746V134.643ZM1178.8 133.417C1181.38 132.632 1183.81 131.55 1186.05 130.156L1179.25 119.198C1178.01 119.969 1176.62 120.601 1175.05 121.078L1178.8 133.417ZM1185.94 130.226C1187.64 129.219 1189.24 128.129 1190.74 126.951L1182.77 116.809C1181.75 117.616 1180.61 118.39 1179.37 119.127L1185.94 130.226ZM1190.74 126.951C1192.06 125.912 1193.21 124.967 1194.15 124.129L1185.59 114.489C1184.91 115.094 1183.98 115.864 1182.77 116.809L1190.74 126.951ZM1189.87 125.758H1191.67V112.86H1189.87V125.758ZM1185.23 119.309V135.367H1198.12V119.309H1185.23ZM1189.05 129.478C1187.38 130.22 1185.8 130.916 1184.29 131.565L1189.4 143.408C1190.96 142.734 1192.6 142.017 1194.3 141.255L1189.05 129.478ZM1184.29 131.565C1183.03 132.112 1181.68 132.591 1180.25 133L1183.79 145.401C1185.73 144.847 1187.6 144.184 1189.4 143.408L1184.29 131.565ZM1180.24 133.003C1178.23 133.58 1176.41 134.004 1174.75 134.289L1176.93 146.999C1179.13 146.623 1181.42 146.084 1183.8 145.398L1180.24 133.003ZM1174.75 134.289C1173.35 134.529 1171.13 134.691 1167.9 134.691V147.589C1171.42 147.589 1174.48 147.421 1176.93 146.999L1174.75 134.289ZM1256.48 85.6605V92.1091H1262.93V85.6605H1256.48ZM1235.51 85.6605V79.2118H1229.06V85.6605H1235.51ZM1235.51 139.832V146.281H1241.95V139.832H1235.51ZM1218.19 139.832H1211.74V146.281H1218.19V139.832ZM1218.19 85.6605H1224.63V79.2118H1218.19V85.6605ZM1197.21 85.6605H1190.76V92.1091H1197.21V85.6605ZM1197.21 72.6701V66.2215L1190.76 66.2215V72.6701H1197.21ZM1256.48 72.6701H1262.93V66.2215H1256.48V72.6701ZM1256.48 79.2118H1235.51V92.1091H1256.48V79.2118ZM1229.06 85.6605V139.832H1241.95V85.6605H1229.06ZM1235.51 133.383H1218.19V146.281H1235.51V133.383ZM1224.63 139.832V85.6605H1211.74V139.832H1224.63ZM1218.19 79.2118H1197.21V92.1091H1218.19V79.2118ZM1203.66 85.6605V72.6701H1190.76V85.6605H1203.66ZM1197.21 79.1187L1256.48 79.1187V66.2215H1197.21V79.1187ZM1250.03 72.6701V85.6605H1262.93V72.6701H1250.03ZM1328.5 139.832V146.281H1337.76L1334.55 137.598L1328.5 139.832ZM1310.6 139.832L1304.49 141.92L1305.99 146.281H1310.6V139.832ZM1305.95 126.255L1312.05 124.167L1310.56 119.807H1305.95V126.255ZM1281.05 126.255V119.807H1276.44L1274.95 124.167L1281.05 126.255ZM1276.41 139.832V146.281H1281.01L1282.51 141.92L1276.41 139.832ZM1258.95 139.832L1252.9 137.598L1249.69 146.281H1258.95V139.832ZM1283.76 72.6701V66.2215H1279.27L1277.71 70.4357L1283.76 72.6701ZM1303.69 72.6701L1309.74 70.4357L1308.19 66.2215H1303.69V72.6701ZM1301.75 113.942V120.39H1310.78L1307.86 111.851L1301.75 113.942ZM1293.5 89.8553L1299.6 87.7647L1293.5 69.9637L1287.4 87.7647L1293.5 89.8553ZM1285.25 113.942L1279.15 111.851L1276.22 120.39H1285.25V113.942ZM1328.5 133.383H1310.6V146.281H1328.5V133.383ZM1316.7 137.744L1312.05 124.167L1299.85 128.343L1304.49 141.92L1316.7 137.744ZM1305.95 119.807H1281.05V132.704H1305.95V119.807ZM1274.95 124.167L1270.3 137.744L1282.51 141.92L1287.15 128.343L1274.95 124.167ZM1276.41 133.383H1258.95V146.281H1276.41V133.383ZM1265 142.066L1289.81 74.9045L1277.71 70.4357L1252.9 137.598L1265 142.066ZM1283.76 79.1187H1303.69V66.2215H1283.76V79.1187ZM1297.65 74.9045L1322.45 142.066L1334.55 137.598L1309.74 70.4357L1297.65 74.9045ZM1307.86 111.851L1299.6 87.7647L1287.4 91.9458L1295.65 116.032L1307.86 111.851ZM1287.4 87.7647L1279.15 111.851L1291.35 116.032L1299.6 91.9458L1287.4 87.7647ZM1285.25 120.39H1301.75V107.493H1285.25V120.39ZM1391.55 102.71L1397.6 104.94L1397.6 104.929L1397.61 104.919L1391.55 102.71ZM1387.04 109.927L1391.57 114.513L1391.59 114.5L1391.6 114.487L1387.04 109.927ZM1378.06 115.926L1375.62 109.958L1375.61 109.962L1375.6 109.966L1378.06 115.926ZM1355.01 117.956V111.507H1348.56V117.956H1355.01ZM1355.01 139.832V146.281H1361.46V139.832H1355.01ZM1337.69 139.832H1331.24V146.281H1337.69V139.832ZM1337.69 72.6701V66.2215H1331.24V72.6701H1337.69ZM1376.98 73.7977L1375.37 80.0423L1375.41 80.052L1375.45 80.0613L1376.98 73.7977ZM1384.78 77.0904L1388.32 71.6974L1388.31 71.6919L1384.78 77.0904ZM1390.96 83.9014L1385.22 86.8351L1385.23 86.8597L1385.25 86.8843L1390.96 83.9014ZM1373.69 89.4042L1368.5 93.2372L1368.52 93.2645L1368.54 93.2916L1373.69 89.4042ZM1364.85 85.3447L1364.51 91.7844L1364.56 91.7874L1364.62 91.7894L1364.85 85.3447ZM1355.01 85.2094V78.7608H1348.56V85.2094H1355.01ZM1355.01 105.326H1348.56V111.775H1355.01V105.326ZM1367.24 104.785L1366.05 98.447L1366.04 98.4487L1366.03 98.4504L1367.24 104.785ZM1372.06 102.62L1376.2 107.565L1376.24 107.531L1376.28 107.498L1372.06 102.62ZM1374.45 99.1921L1368.42 96.9131L1368.41 96.9506L1368.39 96.9883L1374.45 99.1921ZM1386.68 93.8696C1386.68 96.1067 1386.29 98.3068 1385.49 100.501L1397.61 104.919C1398.91 101.34 1399.58 97.6466 1399.58 93.8696H1386.68ZM1385.5 100.481C1384.73 102.552 1383.71 104.137 1382.48 105.367L1391.6 114.487C1394.28 111.808 1396.26 108.582 1397.6 104.94L1385.5 100.481ZM1382.5 105.342C1380.4 107.426 1378.11 108.941 1375.62 109.958L1380.5 121.895C1384.63 120.205 1388.33 117.72 1391.57 114.513L1382.5 105.342ZM1375.6 109.966C1373.34 110.899 1370.15 111.507 1365.79 111.507V124.405C1371.24 124.405 1376.23 123.66 1380.52 121.887L1375.6 109.966ZM1365.79 111.507H1355.01V124.405H1365.79V111.507ZM1348.56 117.956V139.832H1361.46V117.956H1348.56ZM1355.01 133.383H1337.69V146.281H1355.01V133.383ZM1344.14 139.832V72.6701H1331.24V139.832H1344.14ZM1337.69 79.1187H1366.2V66.2215H1337.69V79.1187ZM1366.2 79.1187C1370.13 79.1187 1373.15 79.4693 1375.37 80.0423L1378.59 67.5532C1374.98 66.6227 1370.81 66.2215 1366.2 66.2215V79.1187ZM1375.45 80.0613C1377.77 80.6311 1379.68 81.4615 1381.26 82.489L1388.31 71.6919C1385.37 69.7725 1382.08 68.4078 1378.51 67.5342L1375.45 80.0613ZM1381.25 82.4835C1383.06 83.6701 1384.34 85.1086 1385.22 86.8351L1396.71 80.9676C1394.76 77.1612 1391.92 74.059 1388.32 71.6974L1381.25 82.4835ZM1385.25 86.8843C1386.11 88.5326 1386.68 90.7813 1386.68 93.8696H1399.58C1399.58 89.1998 1398.71 84.803 1396.68 80.9184L1385.25 86.8843ZM1381.67 94.2756C1381.67 91.1507 1380.8 88.1198 1378.83 85.5168L1368.54 93.2916C1368.62 93.3949 1368.77 93.6116 1368.77 94.2756H1381.67ZM1378.87 85.5712C1377.27 83.4003 1375.17 81.591 1372.52 80.5301L1367.73 92.5048C1367.78 92.5264 1368.06 92.6416 1368.5 93.2372L1378.87 85.5712ZM1372.52 80.5301C1370.11 79.5683 1367.62 78.9895 1365.07 78.9001L1364.62 91.7894C1365.5 91.8202 1366.52 92.0233 1367.73 92.5048L1372.52 80.5301ZM1365.19 78.905C1363.31 78.8063 1360.9 78.7608 1357.99 78.7608V91.658C1360.8 91.658 1362.96 91.7027 1364.51 91.7844L1365.19 78.905ZM1357.99 78.7608H1355.01V91.658H1357.99V78.7608ZM1348.56 85.2094V105.326H1361.46V85.2094H1348.56ZM1355.01 111.775H1359.98V98.8778H1355.01V111.775ZM1359.98 111.775C1363.14 111.775 1366 111.585 1368.44 111.12L1366.03 98.4504C1364.68 98.707 1362.71 98.8778 1359.98 98.8778V111.775ZM1368.43 111.123C1371.26 110.592 1373.93 109.464 1376.2 107.565L1367.92 97.6756C1367.61 97.9411 1367.06 98.2568 1366.05 98.447L1368.43 111.123ZM1376.28 107.498C1378.19 105.849 1379.64 103.8 1380.51 101.396L1368.39 96.9883C1368.31 97.2305 1368.16 97.4664 1367.84 97.7426L1376.28 107.498ZM1380.49 101.471C1381.35 99.1929 1381.67 96.7364 1381.67 94.2756H1368.77C1368.77 95.6638 1368.58 96.4849 1368.42 96.9131L1380.49 101.471ZM1457.53 85.6605V92.1091H1463.98V85.6605H1457.53ZM1436.55 85.6605V79.2118H1430.1V85.6605H1436.55ZM1436.55 139.832V146.281H1443V139.832H1436.55ZM1419.23 139.832H1412.78V146.281H1419.23V139.832ZM1419.23 85.6605H1425.68V79.2118H1419.23V85.6605ZM1398.26 85.6605H1391.81V92.1091H1398.26V85.6605ZM1398.26 72.6701V66.2215H1391.81V72.6701H1398.26ZM1457.53 72.6701H1463.98V66.2215H1457.53V72.6701ZM1457.53 79.2118H1436.55V92.1091H1457.53V79.2118ZM1430.1 85.6605V139.832H1443V85.6605H1430.1ZM1436.55 133.383H1419.23V146.281H1436.55V133.383ZM1425.68 139.832V85.6605H1412.78V139.832H1425.68ZM1419.23 79.2118H1398.26V92.1091H1419.23V79.2118ZM1404.71 85.6605V72.6701H1391.81V85.6605H1404.71ZM1398.26 79.1187H1457.53V66.2215H1398.26V79.1187ZM1451.08 72.6701V85.6605H1463.98V72.6701H1451.08ZM1516.06 139.832V146.281H1522.51V139.832H1516.06ZM1467.48 139.832H1461.04V146.281H1467.48V139.832ZM1467.48 72.6701V66.2215H1461.04V72.6701H1467.48ZM1516.06 72.6701H1522.51V66.2215H1516.06V72.6701ZM1516.06 85.6605V92.1091H1522.51V85.6605H1516.06ZM1484.71 85.6605V79.2118H1478.27V85.6605H1484.71ZM1484.71 97.2525L1478.27 97.2525V103.701L1484.71 103.701V97.2525ZM1513.81 97.2525H1520.26V90.8039H1513.81V97.2525ZM1513.81 110.243V116.692H1520.26V110.243H1513.81ZM1484.71 110.243V103.794H1478.27V110.243H1484.71ZM1484.71 126.842H1478.27V133.29H1484.71V126.842ZM1516.06 126.842H1522.51V120.393H1516.06V126.842ZM1516.06 133.383H1467.48V146.281H1516.06V133.383ZM1473.93 139.832V72.6701H1461.04V139.832H1473.93ZM1467.48 79.1187H1516.06V66.2215H1467.48V79.1187ZM1509.61 72.6701V85.6605H1522.51V72.6701H1509.61ZM1516.06 79.2118H1484.71V92.1091H1516.06V79.2118ZM1478.27 85.6605V97.2525L1491.16 97.2525V85.6605H1478.27ZM1484.71 103.701H1513.81V90.8039H1484.71V103.701ZM1507.36 97.2525V110.243H1520.26V97.2525H1507.36ZM1513.81 103.794H1484.71V116.692H1513.81V103.794ZM1478.27 110.243V126.842H1491.16V110.243H1478.27ZM1484.71 133.29H1516.06V120.393H1484.71V133.29ZM1509.61 126.842V139.832H1522.51V126.842H1509.61Z" fill="#FBF448"/>
<mask id="path-4-outside-1_753_648" maskUnits="userSpaceOnUse" x="1566.75" y="53.9531" width="114" height="99" fill="black">
<rect fill="white" x="1566.75" y="53.9531" width="114" height="99"/>
<path fill-rule="evenodd" clip-rule="evenodd" d="M1670.66 103.641L1670.69 103.669L1670.69 103.67L1671.74 104.769L1630.75 143.711L1622.09 134.603L1648.11 109.888H1572.75V97.3242H1647.13L1622.42 71.6702L1631.46 62.9531L1663.03 95.713L1663.08 95.6602L1670.66 103.641Z"/>
</mask>
<path fill-rule="evenodd" clip-rule="evenodd" d="M1670.66 103.641L1670.69 103.669L1670.69 103.67L1671.74 104.769L1630.75 143.711L1622.09 134.603L1648.11 109.888H1572.75V97.3242H1647.13L1622.42 71.6702L1631.46 62.9531L1663.03 95.713L1663.08 95.6602L1670.66 103.641Z" fill="black"/>
<path d="M1670.69 103.669L1674.85 107.994L1679.18 103.831L1675.01 99.5063L1670.69 103.669ZM1670.66 103.641L1666.31 107.774L1666.33 107.789L1666.34 107.804L1670.66 103.641ZM1670.69 103.67L1666.53 99.3446L1662.23 103.478L1666.34 107.802L1670.69 103.67ZM1671.74 104.769L1675.87 109.119L1680.22 104.986L1676.09 100.636L1671.74 104.769ZM1630.75 143.711L1626.4 147.844L1630.53 152.194L1634.88 148.061L1630.75 143.711ZM1622.09 134.603L1617.96 130.253L1613.61 134.385L1617.74 138.735L1622.09 134.603ZM1648.11 109.888L1652.24 114.238L1663.13 103.888H1648.11V109.888ZM1572.75 109.888H1566.75V115.888H1572.75V109.888ZM1572.75 97.3242V91.3242H1566.75V97.3242H1572.75ZM1647.13 97.3242V103.324H1661.24L1651.45 93.1613L1647.13 97.3242ZM1622.42 71.6702L1618.25 67.3493L1613.93 71.5122L1618.1 75.8331L1622.42 71.6702ZM1631.46 62.9531L1635.79 58.7902L1631.62 54.4693L1627.3 58.6322L1631.46 62.9531ZM1663.03 95.713L1658.71 99.8759L1662.84 104.167L1667.16 100.063L1663.03 95.713ZM1663.08 95.6602L1667.43 91.5275L1663.3 87.1776L1658.95 91.3104L1663.08 95.6602ZM1675.01 99.5063L1674.99 99.478L1666.34 107.804L1666.37 107.832L1675.01 99.5063ZM1674.85 107.995L1674.85 107.994L1666.53 99.3444L1666.53 99.3446L1674.85 107.995ZM1676.09 100.636L1675.04 99.5369L1666.34 107.802L1667.39 108.901L1676.09 100.636ZM1634.88 148.061L1675.87 109.119L1667.6 100.419L1626.61 139.361L1634.88 148.061ZM1617.74 138.735L1626.4 147.844L1635.1 139.578L1626.44 130.47L1617.74 138.735ZM1643.97 105.538L1617.96 130.253L1626.23 138.952L1652.24 114.238L1643.97 105.538ZM1572.75 115.888H1648.11V103.888H1572.75V115.888ZM1566.75 97.3242V109.888H1578.75V97.3242H1566.75ZM1647.13 91.3242H1572.75V103.324H1647.13V91.3242ZM1618.1 75.8331L1642.81 101.487L1651.45 93.1613L1626.74 67.5074L1618.1 75.8331ZM1627.3 58.6322L1618.25 67.3493L1626.58 75.9912L1635.63 67.2741L1627.3 58.6322ZM1667.35 91.5501L1635.79 58.7902L1627.14 67.116L1658.71 99.8759L1667.35 91.5501ZM1658.95 91.3104L1658.89 91.3632L1667.16 100.063L1667.21 100.01L1658.95 91.3104ZM1675.01 99.5085L1667.43 91.5275L1658.73 99.7928L1666.31 107.774L1675.01 99.5085Z" fill="#FBF448" mask="url(#path-4-outside-1_753_648)"/>
<rect x="3.21484" y="3.83203" width="1777.06" height="199" stroke="black" stroke-width="6"/>
</svg>
