<svg width="73" height="18" viewBox="0 0 73 18" fill="none" xmlns="http://www.w3.org/2000/svg">
<path d="M70.7285 11.6143C70.7285 12.2471 70.5996 12.8125 70.3418 13.3105C70.0898 13.8086 69.7412 14.2217 69.2959 14.5498C68.7803 14.9365 68.2119 15.2119 67.5908 15.376C66.9756 15.54 66.1934 15.6221 65.2441 15.6221H59.5312V2.53516H64.6113C65.666 2.53516 66.4365 2.57031 66.9229 2.64062C67.415 2.71094 67.9014 2.86621 68.3818 3.10645C68.8799 3.3584 69.249 3.69824 69.4893 4.12598C69.7354 4.54785 69.8584 5.03125 69.8584 5.57617C69.8584 6.20898 69.6914 6.76855 69.3574 7.25488C69.0234 7.73535 68.5518 8.11035 67.9424 8.37988V8.4502C68.7979 8.62012 69.4746 8.97168 69.9727 9.50488C70.4766 10.0381 70.7285 10.7412 70.7285 11.6143ZM66.4043 6.23535C66.4043 6.01855 66.3486 5.80176 66.2373 5.58496C66.1318 5.36816 65.9414 5.20703 65.666 5.10156C65.4199 5.00781 65.1123 4.95801 64.7432 4.95215C64.3799 4.94043 63.8672 4.93457 63.2051 4.93457H62.8887V7.70312H63.416C63.9492 7.70312 64.4033 7.69434 64.7783 7.67676C65.1533 7.65918 65.4492 7.60059 65.666 7.50098C65.9707 7.36621 66.1699 7.19336 66.2637 6.98242C66.3574 6.76562 66.4043 6.5166 66.4043 6.23535ZM67.2305 11.5615C67.2305 11.1455 67.1484 10.8262 66.9844 10.6035C66.8262 10.375 66.5537 10.2051 66.167 10.0938C65.9033 10.0176 65.54 9.97656 65.0771 9.9707C64.6143 9.96484 64.1309 9.96191 63.627 9.96191H62.8887V13.2227H63.1348C64.084 13.2227 64.7637 13.2197 65.1738 13.2139C65.584 13.208 65.9619 13.1318 66.3076 12.9854C66.6592 12.8389 66.8994 12.6455 67.0283 12.4053C67.1631 12.1592 67.2305 11.8779 67.2305 11.5615Z" fill="#FCF549"/>
<path d="M56.4238 15.6221H53.1367V6.91211L47.7051 15.6221H44.4883V2.53516H47.7754V10.4189L52.8291 2.53516H56.4238V15.6221Z" fill="#FCF549"/>
<path d="M42.7891 15.6221H38.8867L36.0654 11.3154L33.1914 15.6221H29.4648L34.1055 9.03027L29.5615 2.53516H33.4551L36.1797 6.61328L38.9834 2.53516H42.7188L38.1484 8.89844L42.7891 15.6221Z" fill="#FCF549"/>
<path d="M28.7041 6.66602C28.7041 7.25195 28.6016 7.82617 28.3965 8.38867C28.1914 8.94531 27.8984 9.41406 27.5176 9.79492C26.9961 10.3105 26.4131 10.7002 25.7686 10.9639C25.1299 11.2275 24.333 11.3594 23.3779 11.3594H21.2773V15.6221H17.9023V2.53516H23.457C24.2891 2.53516 24.9893 2.6084 25.5576 2.75488C26.1318 2.89551 26.6387 3.10938 27.0781 3.39648C27.6055 3.74219 28.0068 4.18457 28.2822 4.72363C28.5635 5.2627 28.7041 5.91016 28.7041 6.66602ZM25.2148 6.74512C25.2148 6.37598 25.1152 6.05957 24.916 5.7959C24.7168 5.52637 24.4854 5.33887 24.2217 5.2334C23.8701 5.09277 23.5273 5.0166 23.1934 5.00488C22.8594 4.9873 22.4141 4.97852 21.8574 4.97852H21.2773V8.89844H22.2441C22.8184 8.89844 23.29 8.86328 23.6592 8.79297C24.0342 8.72266 24.3477 8.58203 24.5996 8.37109C24.8164 8.18359 24.9717 7.96094 25.0654 7.70312C25.165 7.43945 25.2148 7.12012 25.2148 6.74512Z" fill="#FCF549"/>
<path d="M16.2012 15.6221H12.7119L11.8066 12.9766H6.95508L6.0498 15.6221H2.64844L7.48242 2.53516H11.3672L16.2012 15.6221ZM10.9893 10.5771L9.38086 5.88379L7.77246 10.5771H10.9893Z" fill="#FCF549"/>
<path fill-rule="evenodd" clip-rule="evenodd" d="M67.0283 12.4053C67.1631 12.1592 67.2305 11.8779 67.2305 11.5615C67.2305 11.1455 67.1484 10.8262 66.9844 10.6035C66.8262 10.375 66.5537 10.2051 66.167 10.0938C65.9033 10.0176 65.54 9.97656 65.0771 9.9707C65.0147 9.96991 64.9519 9.96918 64.8887 9.96849C64.4834 9.96411 64.0629 9.96191 63.627 9.96191H62.8887V13.2227H63.1348C63.89 13.2227 64.4747 13.2208 64.8887 13.2171C64.995 13.2161 65.09 13.2151 65.1738 13.2139C65.584 13.208 65.9619 13.1318 66.3076 12.9854C66.6592 12.8389 66.8994 12.6455 67.0283 12.4053ZM69.9602 9.49163C69.9644 9.49603 69.9685 9.50045 69.9727 9.50488C70.4766 10.0381 70.7285 10.7412 70.7285 11.6143C70.7285 12.2471 70.5996 12.8125 70.3418 13.3105C70.0898 13.8086 69.7412 14.2217 69.2959 14.5498C68.7803 14.9365 68.2119 15.2119 67.5908 15.376C66.9756 15.54 66.1934 15.6221 65.2441 15.6221H59.5312V2.53516H64.6113C65.666 2.53516 66.4365 2.57031 66.9229 2.64062C67.415 2.71094 67.9014 2.86621 68.3818 3.10645C68.8799 3.3584 69.249 3.69824 69.4893 4.12598C69.7354 4.54785 69.8584 5.03125 69.8584 5.57617C69.8584 6.04618 69.7663 6.47578 69.582 6.86498C69.5182 6.9998 69.4433 7.12976 69.3574 7.25488C69.0262 7.73132 68.5597 8.10405 67.9577 8.37307C67.9526 8.37535 67.9475 8.37762 67.9424 8.37988V8.4502C67.9538 8.45246 67.9652 8.45476 67.9765 8.4571C68.8088 8.62808 69.47 8.97292 69.9602 9.49163ZM64.7432 4.95215C64.7928 4.95294 64.8413 4.95452 64.8887 4.95689C65.1939 4.97219 65.453 5.02041 65.666 5.10156C65.9414 5.20703 66.1318 5.36816 66.2373 5.58496C66.3486 5.80176 66.4043 6.01855 66.4043 6.23535C66.4043 6.5166 66.3574 6.76562 66.2637 6.98242C66.1699 7.19336 65.9707 7.36621 65.666 7.50098C65.4709 7.5906 65.2118 7.64702 64.8887 7.67024C64.8527 7.67282 64.8159 7.675 64.7783 7.67676C64.4033 7.69434 63.9492 7.70312 63.416 7.70312H62.8887V4.93457H63.2051C63.8672 4.93457 64.3799 4.94043 64.7432 4.95215ZM71.4306 8.13577C71.3763 8.07776 71.321 8.02132 71.2646 7.96644C71.6672 7.22939 71.8584 6.41875 71.8584 5.57617C71.8584 4.72446 71.6638 3.89079 71.2251 3.13255C70.7648 2.32003 70.0818 1.72506 69.2847 1.32179L69.2763 1.31759C68.62 0.989455 67.9293 0.764486 67.209 0.661206C66.5712 0.568995 65.679 0.535156 64.6113 0.535156H59.5312C58.4267 0.535156 57.5312 1.43059 57.5312 2.53516V15.6221C57.5312 16.7266 58.4267 17.6221 59.5312 17.6221H65.2441C66.2905 17.6221 67.2612 17.5336 68.1046 17.3088C68.9717 17.0794 69.7705 16.6925 70.4889 16.1551C71.1832 15.6419 71.7321 14.99 72.1226 14.221C72.5422 13.4066 72.7285 12.5222 72.7285 11.6143C72.7285 10.3356 72.3473 9.10837 71.4306 8.13577Z" fill="black"/>
<path fill-rule="evenodd" clip-rule="evenodd" d="M58.4238 15.6221C58.4238 16.7266 57.5284 17.6221 56.4238 17.6221H53.1367C52.0322 17.6221 51.1367 16.7266 51.1367 15.6221V13.8989L49.4021 16.6804C49.0369 17.2661 48.3954 17.6221 47.7051 17.6221H44.4883C43.3837 17.6221 42.4883 16.7266 42.4883 15.6221H42.7874L42.4883 15.1887V2.85376L42.7171 2.53516H42.4883C42.4883 1.43059 43.3837 0.535156 44.4883 0.535156H47.7754C48.88 0.535156 49.7754 1.43059 49.7754 2.53516V3.59295L51.1453 1.45582C51.5131 0.882127 52.1477 0.535156 52.8291 0.535156H56.4238C57.5284 0.535156 58.4238 1.43059 58.4238 2.53516V15.6221ZM47.7754 10.4189V2.53516H44.4883V15.6221H47.7051L53.1367 6.91211V15.6221H56.4238V2.53516H52.8291L47.7754 10.4189Z" fill="black"/>
<path fill-rule="evenodd" clip-rule="evenodd" d="M44.56 16.5515C44.2145 17.2098 43.5324 17.6221 42.7891 17.6221H38.8867C38.2123 17.6221 37.5833 17.2822 37.2137 16.718L36.05 14.9416L34.855 16.7323C34.484 17.2882 33.8598 17.6221 33.1914 17.6221H29.4649C28.7181 17.6221 28.0336 17.2061 27.6897 16.5433C27.3457 15.8805 27.3996 15.0813 27.8295 14.4708L31.6621 9.02667L27.9228 3.68163C27.4953 3.07065 27.4433 2.27263 27.7877 1.61129C28.1321 0.949962 28.8159 0.535156 29.5615 0.535156H33.4551C34.1231 0.535156 34.747 0.868659 35.1181 1.4241L36.2034 3.04855L37.3353 1.4021C37.7084 0.85939 38.3248 0.535156 38.9834 0.535156H42.7188C43.4689 0.535156 44.1559 0.95489 44.4983 1.62231C44.646 1.91019 44.7188 2.22328 44.7188 2.53516H44.4899V3.46421C44.447 3.54604 44.3981 3.62548 44.3432 3.70187L40.5944 8.92136L44.4351 14.486C44.4541 14.5136 44.4724 14.5416 44.4899 14.5699V15.6221H44.7891C44.7891 15.9402 44.7133 16.2594 44.56 16.5515ZM38.1484 8.89844L42.7188 2.53516H38.9834L36.1797 6.61328L33.4551 2.53516H29.5615L34.1055 9.03027L29.4649 15.6221H33.1914L36.0654 11.3154L38.8867 15.6221H42.7891L38.1484 8.89844Z" fill="black"/>
<path fill-rule="evenodd" clip-rule="evenodd" d="M30.2755 9.07373L30.2732 9.08009C29.9783 9.88048 29.5372 10.6037 28.9318 11.2091L28.9238 11.2171C28.227 11.9061 27.4271 12.4458 26.5288 12.8137C25.5753 13.2068 24.5003 13.3594 23.3779 13.3594H23.2773V15.6221C23.2773 16.7266 22.3819 17.6221 21.2773 17.6221H17.9023C16.7978 17.6221 15.9023 16.7266 15.9023 15.6221H16.2015L15.9023 14.8122V2.53516C15.9023 1.43059 16.7978 0.535156 17.9023 0.535156H23.457C24.3888 0.535156 25.2644 0.615428 26.0449 0.815133C26.8071 1.003 27.5242 1.29888 28.172 1.72215L28.1746 1.72385C28.9775 2.25022 29.6193 2.94802 30.0594 3.80614C30.5186 4.68998 30.7041 5.66779 30.7041 6.66602C30.7041 7.49075 30.5588 8.29657 30.2755 9.07373ZM28.2822 4.72363C28.0068 4.18457 27.6055 3.74219 27.0781 3.39648C26.6387 3.10938 26.1318 2.89551 25.5576 2.75488C24.9893 2.6084 24.2891 2.53516 23.457 2.53516H17.9023V15.6221H21.2773V11.3594H23.3779C24.333 11.3594 25.1299 11.2275 25.7686 10.9639C26.4131 10.7002 26.9961 10.3105 27.5176 9.79492C27.8984 9.41406 28.1914 8.94531 28.3965 8.38867C28.6016 7.82617 28.7041 7.25195 28.7041 6.66602C28.7041 5.91016 28.5635 5.2627 28.2822 4.72363ZM23.1934 5.00488C23.2213 5.00586 23.2493 5.00729 23.2773 5.00918C23.5847 5.02979 23.8995 5.10453 24.2217 5.2334C24.4854 5.33887 24.7168 5.52637 24.916 5.7959C25.1152 6.05957 25.2148 6.37598 25.2148 6.74512C25.2148 7.12012 25.165 7.43945 25.0654 7.70312C24.9717 7.96094 24.8164 8.18359 24.5996 8.37109C24.3477 8.58203 24.0342 8.72266 23.6592 8.79297C23.5422 8.81525 23.4149 8.834 23.2773 8.84922C22.9808 8.88203 22.6364 8.89844 22.2441 8.89844H21.2773V4.97852H21.8574C22.4141 4.97852 22.8594 4.9873 23.1934 5.00488Z" fill="black"/>
<path fill-rule="evenodd" clip-rule="evenodd" d="M17.8422 16.7653C17.4683 17.3021 16.8554 17.6221 16.2012 17.6221H12.7119C11.8569 17.6221 11.0965 17.0786 10.8196 16.2696L10.3772 14.9766H8.38456L7.94209 16.2696C7.66527 17.0786 6.90483 17.6221 6.04982 17.6221H2.64845C1.99424 17.6221 1.38138 17.3021 1.00742 16.7653C0.633454 16.2285 0.545664 15.5428 0.772345 14.9291L5.60633 1.84217C5.89645 1.05673 6.64513 0.535156 7.48243 0.535156H11.3672C12.2045 0.535156 12.9532 1.05673 13.2433 1.84217L17.902 14.4546V15.6221H18.2012C18.2012 16.0255 18.0791 16.4253 17.8422 16.7653ZM6.95509 12.9766H11.8067L12.7119 15.6221H16.2012L11.3672 2.53516H7.48243L2.64845 15.6221H6.04982L6.95509 12.9766ZM9.38087 5.88379L7.77247 10.5771H10.9893L9.38087 5.88379Z" fill="black"/>
</svg>
