<svg width="66" height="18" viewBox="0 0 66 18" fill="none" xmlns="http://www.w3.org/2000/svg">
<path d="M58.4727 15.877C57.5 15.877 56.6006 15.7334 55.7744 15.4463C54.9541 15.1592 54.248 14.7314 53.6562 14.1631C53.0645 13.5947 52.6045 12.8857 52.2764 12.0361C51.9541 11.1865 51.793 10.2051 51.793 9.0918C51.793 8.05469 51.9482 7.11426 52.2588 6.27051C52.5693 5.42676 53.0205 4.70312 53.6123 4.09961C54.1807 3.51953 54.8838 3.07129 55.7217 2.75488C56.5654 2.43848 57.4854 2.28027 58.4814 2.28027C59.0322 2.28027 59.5273 2.3125 59.9668 2.37695C60.4121 2.43555 60.8223 2.51465 61.1973 2.61426C61.5898 2.72559 61.9443 2.85156 62.2607 2.99219C62.583 3.12695 62.8643 3.25293 63.1045 3.37012V6.54297H62.7178C62.5537 6.40234 62.3457 6.23535 62.0938 6.04199C61.8477 5.84863 61.5664 5.6582 61.25 5.4707C60.9277 5.2832 60.5791 5.125 60.2041 4.99609C59.8291 4.86719 59.4277 4.80273 59 4.80273C58.5254 4.80273 58.0742 4.87891 57.6465 5.03125C57.2188 5.17773 56.8232 5.42383 56.46 5.76953C56.1143 6.10352 55.833 6.5459 55.6162 7.09668C55.4053 7.64746 55.2998 8.31543 55.2998 9.10059C55.2998 9.9209 55.4141 10.6064 55.6426 11.1572C55.877 11.708 56.1699 12.1416 56.5215 12.458C56.8789 12.7803 57.2773 13.0117 57.7168 13.1523C58.1562 13.2871 58.5898 13.3545 59.0176 13.3545C59.4277 13.3545 59.832 13.293 60.2305 13.1699C60.6348 13.0469 61.0068 12.8799 61.3467 12.6689C61.6338 12.499 61.9004 12.3174 62.1465 12.124C62.3926 11.9307 62.5947 11.7637 62.7529 11.623H63.1045V14.752C62.7764 14.8984 62.4629 15.0361 62.1641 15.165C61.8652 15.2939 61.5518 15.4053 61.2236 15.499C60.7959 15.6221 60.3945 15.7158 60.0195 15.7803C59.6445 15.8447 59.1289 15.877 58.4727 15.877Z" fill="#FCF549"/>
<path d="M50.8574 15.6221H47.3682L46.4629 12.9766H41.6113L40.7061 15.6221H37.3047L42.1387 2.53516H46.0234L50.8574 15.6221ZM45.6455 10.5771L44.0371 5.88379L42.4287 10.5771H45.6455Z" fill="#FCF549"/>
<path d="M35.5928 15.6221H32.2178V9.85645H27.2344V15.6221H23.8594V2.53516H27.2344V7.3252H32.2178V2.53516H35.5928V15.6221Z" fill="#FCF549"/>
<path d="M15.4834 9.08301C15.4834 11.1689 14.8857 12.8271 13.6904 14.0576C12.4951 15.2822 10.8428 15.8945 8.7334 15.8945C6.62988 15.8945 4.98047 15.2822 3.78516 14.0576C2.58984 12.8271 1.99219 11.1689 1.99219 9.08301C1.99219 6.97949 2.58984 5.31836 3.78516 4.09961C4.98047 2.875 6.62988 2.2627 8.7334 2.2627C10.8311 2.2627 12.4805 2.875 13.6816 4.09961C14.8828 5.31836 15.4834 6.97949 15.4834 9.08301ZM11.0098 12.3965C11.3379 11.998 11.5811 11.5293 11.7393 10.9902C11.8975 10.4453 11.9766 9.80664 11.9766 9.07422C11.9766 8.28906 11.8857 7.62109 11.7041 7.07031C11.5225 6.51953 11.2852 6.07422 10.9922 5.73438C10.6934 5.38281 10.3477 5.12793 9.95508 4.96973C9.56836 4.81152 9.16406 4.73242 8.74219 4.73242C8.31445 4.73242 7.91016 4.80859 7.5293 4.96094C7.1543 5.11328 6.80859 5.36523 6.49219 5.7168C6.19922 6.04492 5.95898 6.49902 5.77148 7.0791C5.58984 7.65332 5.49902 8.32129 5.49902 9.08301C5.49902 9.8623 5.58691 10.5273 5.7627 11.0781C5.94434 11.623 6.18164 12.0684 6.47461 12.4141C6.76758 12.7598 7.11035 13.0146 7.50293 13.1787C7.89551 13.3428 8.30859 13.4248 8.74219 13.4248C9.17578 13.4248 9.58887 13.3428 9.98145 13.1787C10.374 13.0088 10.7168 12.748 11.0098 12.3965Z" fill="#FCF549"/>
<path fill-rule="evenodd" clip-rule="evenodd" d="M55.1179 17.3355L55.1137 17.334C54.0391 16.9579 53.0817 16.3842 52.2709 15.6056C51.4459 14.8133 50.8325 13.8489 50.4107 12.7567L50.4063 12.7455C49.9812 11.6246 49.793 10.3946 49.793 9.0918C49.793 7.85459 49.9785 6.6758 50.3819 5.5797C50.7837 4.48783 51.3816 3.51806 52.1837 2.6999M52.2764 12.0361C52.6045 12.8857 53.0645 13.5947 53.6562 14.1631C54.248 14.7314 54.9541 15.1592 55.7744 15.4463C56.6006 15.7334 57.5 15.877 58.4727 15.877C59.1289 15.877 59.6445 15.8447 60.0195 15.7803C60.3945 15.7158 60.7959 15.6221 61.2236 15.499C61.5518 15.4053 61.8652 15.2939 62.1641 15.165C62.4629 15.0361 62.7764 14.8984 63.1045 14.752V11.623H62.7529C62.5947 11.7637 62.3926 11.9307 62.1465 12.124C61.9004 12.3174 61.6338 12.499 61.3467 12.6689C61.2677 12.718 61.187 12.7646 61.1045 12.8089C60.8321 12.9551 60.5408 13.0755 60.2305 13.1699C59.832 13.293 59.4277 13.3545 59.0176 13.3545C58.5898 13.3545 58.1562 13.2871 57.7168 13.1523C57.2773 13.0117 56.8789 12.7803 56.5215 12.458C56.1699 12.1416 55.877 11.708 55.6426 11.1572C55.4141 10.6064 55.2998 9.9209 55.2998 9.10059C55.2998 8.31543 55.4053 7.64746 55.6162 7.09668C55.833 6.5459 56.1143 6.10352 56.46 5.76953C56.8232 5.42383 57.2188 5.17773 57.6465 5.03125C58.0742 4.87891 58.5254 4.80273 59 4.80273C59.4277 4.80273 59.8291 4.86719 60.2041 4.99609C60.5233 5.10583 60.8235 5.2368 61.1045 5.389C61.1536 5.41559 61.2021 5.44282 61.25 5.4707C61.5664 5.6582 61.8477 5.84863 62.0938 6.04199C62.3457 6.23535 62.5537 6.40234 62.7178 6.54297H63.1045V3.37012C62.8643 3.25293 62.583 3.12695 62.2607 2.99219C61.9443 2.85156 61.5898 2.72559 61.1973 2.61426C60.8223 2.51465 60.4121 2.43555 59.9668 2.37695C59.5273 2.3125 59.0322 2.28027 58.4814 2.28027C57.4854 2.28027 56.5654 2.43848 55.7217 2.75488C54.8838 3.07129 54.1807 3.51953 53.6123 4.09961C53.0205 4.70312 52.5693 5.42676 52.2588 6.27051C51.9482 7.11426 51.793 8.05469 51.793 9.0918C51.793 10.2051 51.9541 11.1865 52.2764 12.0361ZM52.1837 2.6999C52.9757 1.89183 53.9337 1.29223 55.0151 0.883842L55.0194 0.88222C56.1102 0.473189 57.2707 0.280273 58.4814 0.280273C59.1017 0.280273 59.6912 0.316055 60.2421 0.395943C60.7544 0.463893 61.2453 0.557668 61.7107 0.681288L61.7429 0.69013C62.203 0.820602 62.6413 0.974128 63.0518 1.15516C63.3919 1.29772 63.7032 1.43689 63.9813 1.57258C64.6685 1.9078 65.1045 2.6055 65.1045 3.37012V6.54297C65.1045 7.64754 64.2091 8.54297 63.1045 8.54297H62.7178C62.2403 8.54297 61.7787 8.37218 61.4162 8.06148C61.2889 7.95239 61.1114 7.80917 60.8761 7.62861L60.8581 7.61463C60.693 7.48489 60.4883 7.34447 60.2377 7.19564C60.0369 7.07939 59.8104 6.97562 59.5539 6.88747C59.404 6.83593 59.2239 6.80273 59 6.80273C58.7436 6.80273 58.5202 6.84313 58.3175 6.91532L58.2945 6.92337C58.1694 6.96621 58.0197 7.04755 57.845 7.21242C57.7481 7.30745 57.6132 7.48671 57.4809 7.82003C57.3824 8.08106 57.2998 8.48997 57.2998 9.10059C57.2998 9.74334 57.3904 10.1471 57.4868 10.3832C57.6349 10.7285 57.7749 10.8954 57.8594 10.9714L57.8608 10.9726C58.0134 11.1102 58.1622 11.1934 58.3161 11.2442C58.5745 11.3222 58.8064 11.3545 59.0176 11.3545C59.2243 11.3545 59.4298 11.324 59.6403 11.259L59.6481 11.2566C59.8957 11.1812 60.1077 11.084 60.292 10.9697C60.3039 10.9622 60.3159 10.955 60.328 10.9478C60.5446 10.8197 60.7381 10.6871 60.9108 10.5514C61.1386 10.3724 61.3068 10.2326 61.4242 10.1282C61.7903 9.8028 62.2631 9.62305 62.7529 9.62305H63.1045C64.2091 9.62305 65.1045 10.5185 65.1045 11.623V14.752C65.1045 15.5411 64.6404 16.2565 63.9198 16.5782C63.5848 16.7278 63.2635 16.8689 62.9562 17.0015C62.5753 17.1658 62.181 17.3054 61.7748 17.4216C61.2887 17.5614 60.8159 17.6727 60.3583 17.7514C59.8195 17.844 59.1737 17.877 58.4727 17.877C57.3014 17.877 56.1774 17.7037 55.1179 17.3355" fill="black"/>
<path fill-rule="evenodd" clip-rule="evenodd" d="M52.4985 16.7653C52.1245 17.3021 51.5116 17.6221 50.8574 17.6221H47.3682C46.5132 17.6221 45.7527 17.0786 45.4759 16.2696L45.0334 14.9766H43.0408L42.5983 16.2696C42.3215 17.0786 41.5611 17.6221 40.7061 17.6221H37.3047C36.6505 17.6221 36.0376 17.3021 35.6637 16.7653C35.4268 16.4253 35.3047 16.0255 35.3047 15.6221H35.5951V14.4784L40.2626 1.84217C40.5527 1.05673 41.3014 0.535156 42.1387 0.535156H46.0234C46.8608 0.535156 47.6094 1.05673 47.8996 1.84217L52.7335 14.9291C52.9602 15.5428 52.8724 16.2285 52.4985 16.7653ZM41.6113 12.9766H46.4629L47.3682 15.6221H50.8574L46.0234 2.53516H42.1387L37.3047 15.6221H40.7061L41.6113 12.9766ZM44.0371 5.88379L42.4287 10.5771H45.6455L44.0371 5.88379Z" fill="black"/>
<path fill-rule="evenodd" clip-rule="evenodd" d="M37.5928 15.6221C37.5928 16.7266 36.6973 17.6221 35.5928 17.6221H32.2178C31.1132 17.6221 30.2178 16.7266 30.2178 15.6221V11.8564H29.2344V15.6221C29.2344 16.7266 28.3389 17.6221 27.2344 17.6221H23.8594C22.7548 17.6221 21.8594 16.7266 21.8594 15.6221V2.53516C21.8594 1.43059 22.7548 0.535156 23.8594 0.535156H27.2344C28.3389 0.535156 29.2344 1.43059 29.2344 2.53516V5.3252H30.2178V2.53516C30.2178 1.43059 31.1132 0.535156 32.2178 0.535156H35.5928C36.6973 0.535156 37.5928 1.43059 37.5928 2.53516V14.836L37.3024 15.6221H37.5928ZM32.2178 7.3252H27.2344V2.53516H23.8594V15.6221H27.2344V9.85645H32.2178V15.6221H35.5928V2.53516H32.2178V7.3252Z" fill="black"/>
<path fill-rule="evenodd" clip-rule="evenodd" d="M15.125 15.4512L15.1217 15.4546C13.4659 17.1509 11.2481 17.8945 8.7334 17.8945C6.22273 17.8945 4.00859 17.1498 2.35393 15.4546L2.35059 15.4512C0.717309 13.7699 -0.0078125 11.5701 -0.0078125 9.08301C-0.0078125 6.58532 0.713573 4.37613 2.3556 2.7009C4.01009 1.00689 6.22358 0.262695 8.7334 0.262695C11.2396 0.262695 13.4498 1.00807 15.1078 2.69746C16.7574 4.37223 17.4834 6.58262 17.4834 9.08301C17.4834 11.5701 16.7583 13.7699 15.125 15.4512ZM3.78516 4.09961C2.58984 5.31836 1.99219 6.97949 1.99219 9.08301C1.99219 11.1689 2.58984 12.8271 3.78516 14.0576C4.98047 15.2822 6.62988 15.8945 8.7334 15.8945C10.8428 15.8945 12.4951 15.2822 13.6904 14.0576C14.8857 12.8271 15.4834 11.1689 15.4834 9.08301C15.4834 6.97949 14.8828 5.31836 13.6816 4.09961C12.4805 2.875 10.8311 2.2627 8.7334 2.2627C6.62988 2.2627 4.98047 2.875 3.78516 4.09961ZM9.95508 4.96973C9.56836 4.81152 9.16406 4.73242 8.74219 4.73242C8.31445 4.73242 7.91016 4.80859 7.5293 4.96094C7.1543 5.11328 6.80859 5.36523 6.49219 5.7168C6.19922 6.04492 5.95898 6.49902 5.77148 7.0791C5.58984 7.65332 5.49902 8.32129 5.49902 9.08301C5.49902 9.8623 5.58691 10.5273 5.7627 11.0781C5.94434 11.623 6.18164 12.0684 6.47461 12.4141C6.76758 12.7598 7.11035 13.0146 7.50293 13.1787C7.89551 13.3428 8.30859 13.4248 8.74219 13.4248C9.17578 13.4248 9.58887 13.3428 9.98145 13.1787C10.374 13.0088 10.7168 12.748 11.0098 12.3965C11.3379 11.998 11.5811 11.5293 11.7393 10.9902C11.8975 10.4453 11.9766 9.80664 11.9766 9.07422C11.9766 8.28906 11.8857 7.62109 11.7041 7.07031C11.5225 6.51953 11.2852 6.07422 10.9922 5.73438C10.6934 5.38281 10.3477 5.12793 9.95508 4.96973ZM9.81936 10.4299C9.91184 10.1101 9.97656 9.66795 9.97656 9.07422C9.97656 8.43179 9.90083 7.98811 9.80472 7.6967C9.68239 7.32574 9.55656 7.13212 9.47737 7.04025L9.46827 7.0297L9.46831 7.02967C9.35983 6.90205 9.27336 6.85129 9.20753 6.82476L9.1978 6.82085L9.19781 6.82082C9.05383 6.76192 8.90695 6.73242 8.74219 6.73242C8.56057 6.73242 8.41113 6.76313 8.27808 6.81551C8.2261 6.83733 8.12444 6.89372 7.98193 7.05123C7.93032 7.11006 7.80677 7.28727 7.67656 7.688C7.57144 8.02286 7.49902 8.47784 7.49902 9.08301C7.49902 9.71461 7.57063 10.1593 7.66436 10.4585C7.78479 10.8156 7.91094 11.0155 8.0004 11.121C8.10265 11.2417 8.19204 11.2991 8.27412 11.3334C8.41767 11.3934 8.56818 11.4248 8.74219 11.4248C8.91096 11.4248 9.05763 11.3952 9.19729 11.3387C9.27893 11.3017 9.36864 11.2406 9.46972 11.1204C9.60957 10.9493 9.73125 10.7289 9.81936 10.4299Z" fill="black"/>
</svg>
