<svg width="66" height="21" viewBox="0 0 66 21" fill="none" xmlns="http://www.w3.org/2000/svg">
<mask id="path-1-outside-1_247_11077" maskUnits="userSpaceOnUse" x="-0.757812" y="0" width="67" height="19" fill="black">
<rect fill="white" x="-0.757812" width="67" height="19"/>
<path d="M15.6387 9.46094C15.6387 11.5469 15.041 13.2051 13.8457 14.4355C12.6504 15.6602 10.998 16.2725 8.88867 16.2725C6.78516 16.2725 5.13574 15.6602 3.94043 14.4355C2.74512 13.2051 2.14746 11.5469 2.14746 9.46094C2.14746 7.35742 2.74512 5.69629 3.94043 4.47754C5.13574 3.25293 6.78516 2.64062 8.88867 2.64062C10.9863 2.64062 12.6357 3.25293 13.8369 4.47754C15.0381 5.69629 15.6387 7.35742 15.6387 9.46094ZM11.165 12.7744C11.4932 12.376 11.7363 11.9072 11.8945 11.3682C12.0527 10.8232 12.1318 10.1846 12.1318 9.45215C12.1318 8.66699 12.041 7.99902 11.8594 7.44824C11.6777 6.89746 11.4404 6.45215 11.1475 6.1123C10.8486 5.76074 10.5029 5.50586 10.1104 5.34766C9.72363 5.18945 9.31934 5.11035 8.89746 5.11035C8.46973 5.11035 8.06543 5.18652 7.68457 5.33887C7.30957 5.49121 6.96387 5.74316 6.64746 6.09473C6.35449 6.42285 6.11426 6.87695 5.92676 7.45703C5.74512 8.03125 5.6543 8.69922 5.6543 9.46094C5.6543 10.2402 5.74219 10.9053 5.91797 11.4561C6.09961 12.001 6.33691 12.4463 6.62988 12.792C6.92285 13.1377 7.26562 13.3926 7.6582 13.5566C8.05078 13.7207 8.46387 13.8027 8.89746 13.8027C9.33105 13.8027 9.74414 13.7207 10.1367 13.5566C10.5293 13.3867 10.8721 13.126 11.165 12.7744ZM32.3734 10.2344H27.39V16H24.015V2.91309H27.39V7.70312H32.3734V2.91309H35.7484V16H32.3734V10.2344ZM42.5821 10.9551H45.7989L44.1905 6.26172L42.5821 10.9551ZM46.6162 13.3545H41.7647L40.8594 16H37.458L42.292 2.91309H46.1768L51.0108 16H47.5215L46.6162 13.3545ZM58.6267 16.2549C57.654 16.2549 56.7546 16.1113 55.9284 15.8242C55.1081 15.5371 54.4021 15.1094 53.8103 14.541C53.2185 13.9727 52.7585 13.2637 52.4304 12.4141C52.1081 11.5645 51.947 10.583 51.947 9.46973C51.947 8.43262 52.1023 7.49219 52.4128 6.64844C52.7234 5.80469 53.1745 5.08105 53.7663 4.47754C54.3347 3.89746 55.0378 3.44922 55.8757 3.13281C56.7195 2.81641 57.6394 2.6582 58.6355 2.6582C59.1862 2.6582 59.6814 2.69043 60.1208 2.75488C60.5661 2.81348 60.9763 2.89258 61.3513 2.99219C61.7439 3.10352 62.0984 3.22949 62.4148 3.37012C62.737 3.50488 63.0183 3.63086 63.2585 3.74805V6.9209H62.8718C62.7077 6.78027 62.4997 6.61328 62.2478 6.41992C62.0017 6.22656 61.7204 6.03613 61.404 5.84863C61.0818 5.66113 60.7331 5.50293 60.3581 5.37402C59.9831 5.24512 59.5818 5.18066 59.154 5.18066C58.6794 5.18066 58.2282 5.25684 57.8005 5.40918C57.3728 5.55566 56.9773 5.80176 56.614 6.14746C56.2683 6.48145 55.987 6.92383 55.7702 7.47461C55.5593 8.02539 55.4538 8.69336 55.4538 9.47852C55.4538 10.2988 55.5681 10.9844 55.7966 11.5352C56.031 12.0859 56.3239 12.5195 56.6755 12.8359C57.0329 13.1582 57.4314 13.3896 57.8708 13.5303C58.3103 13.665 58.7439 13.7324 59.1716 13.7324C59.5818 13.7324 59.9861 13.6709 60.3845 13.5479C60.7888 13.4248 61.1609 13.2578 61.5007 13.0469C61.7878 12.877 62.0544 12.6953 62.3005 12.502C62.5466 12.3086 62.7487 12.1416 62.907 12.001H63.2585V15.1299C62.9304 15.2764 62.6169 15.4141 62.3181 15.543C62.0193 15.6719 61.7058 15.7832 61.3777 15.877C60.9499 16 60.5486 16.0938 60.1736 16.1582C59.7986 16.2227 59.2829 16.2549 58.6267 16.2549Z"/>
</mask>
<path d="M15.6387 9.46094C15.6387 11.5469 15.041 13.2051 13.8457 14.4355C12.6504 15.6602 10.998 16.2725 8.88867 16.2725C6.78516 16.2725 5.13574 15.6602 3.94043 14.4355C2.74512 13.2051 2.14746 11.5469 2.14746 9.46094C2.14746 7.35742 2.74512 5.69629 3.94043 4.47754C5.13574 3.25293 6.78516 2.64062 8.88867 2.64062C10.9863 2.64062 12.6357 3.25293 13.8369 4.47754C15.0381 5.69629 15.6387 7.35742 15.6387 9.46094ZM11.165 12.7744C11.4932 12.376 11.7363 11.9072 11.8945 11.3682C12.0527 10.8232 12.1318 10.1846 12.1318 9.45215C12.1318 8.66699 12.041 7.99902 11.8594 7.44824C11.6777 6.89746 11.4404 6.45215 11.1475 6.1123C10.8486 5.76074 10.5029 5.50586 10.1104 5.34766C9.72363 5.18945 9.31934 5.11035 8.89746 5.11035C8.46973 5.11035 8.06543 5.18652 7.68457 5.33887C7.30957 5.49121 6.96387 5.74316 6.64746 6.09473C6.35449 6.42285 6.11426 6.87695 5.92676 7.45703C5.74512 8.03125 5.6543 8.69922 5.6543 9.46094C5.6543 10.2402 5.74219 10.9053 5.91797 11.4561C6.09961 12.001 6.33691 12.4463 6.62988 12.792C6.92285 13.1377 7.26562 13.3926 7.6582 13.5566C8.05078 13.7207 8.46387 13.8027 8.89746 13.8027C9.33105 13.8027 9.74414 13.7207 10.1367 13.5566C10.5293 13.3867 10.8721 13.126 11.165 12.7744ZM32.3734 10.2344H27.39V16H24.015V2.91309H27.39V7.70312H32.3734V2.91309H35.7484V16H32.3734V10.2344ZM42.5821 10.9551H45.7989L44.1905 6.26172L42.5821 10.9551ZM46.6162 13.3545H41.7647L40.8594 16H37.458L42.292 2.91309H46.1768L51.0108 16H47.5215L46.6162 13.3545ZM58.6267 16.2549C57.654 16.2549 56.7546 16.1113 55.9284 15.8242C55.1081 15.5371 54.4021 15.1094 53.8103 14.541C53.2185 13.9727 52.7585 13.2637 52.4304 12.4141C52.1081 11.5645 51.947 10.583 51.947 9.46973C51.947 8.43262 52.1023 7.49219 52.4128 6.64844C52.7234 5.80469 53.1745 5.08105 53.7663 4.47754C54.3347 3.89746 55.0378 3.44922 55.8757 3.13281C56.7195 2.81641 57.6394 2.6582 58.6355 2.6582C59.1862 2.6582 59.6814 2.69043 60.1208 2.75488C60.5661 2.81348 60.9763 2.89258 61.3513 2.99219C61.7439 3.10352 62.0984 3.22949 62.4148 3.37012C62.737 3.50488 63.0183 3.63086 63.2585 3.74805V6.9209H62.8718C62.7077 6.78027 62.4997 6.61328 62.2478 6.41992C62.0017 6.22656 61.7204 6.03613 61.404 5.84863C61.0818 5.66113 60.7331 5.50293 60.3581 5.37402C59.9831 5.24512 59.5818 5.18066 59.154 5.18066C58.6794 5.18066 58.2282 5.25684 57.8005 5.40918C57.3728 5.55566 56.9773 5.80176 56.614 6.14746C56.2683 6.48145 55.987 6.92383 55.7702 7.47461C55.5593 8.02539 55.4538 8.69336 55.4538 9.47852C55.4538 10.2988 55.5681 10.9844 55.7966 11.5352C56.031 12.0859 56.3239 12.5195 56.6755 12.8359C57.0329 13.1582 57.4314 13.3896 57.8708 13.5303C58.3103 13.665 58.7439 13.7324 59.1716 13.7324C59.5818 13.7324 59.9861 13.6709 60.3845 13.5479C60.7888 13.4248 61.1609 13.2578 61.5007 13.0469C61.7878 12.877 62.0544 12.6953 62.3005 12.502C62.5466 12.3086 62.7487 12.1416 62.907 12.001H63.2585V15.1299C62.9304 15.2764 62.6169 15.4141 62.3181 15.543C62.0193 15.6719 61.7058 15.7832 61.3777 15.877C60.9499 16 60.5486 16.0938 60.1736 16.1582C59.7986 16.2227 59.2829 16.2549 58.6267 16.2549Z" fill="#FCF549"/>
<path d="M13.8457 14.4355L15.2769 15.8325L15.2803 15.8291L13.8457 14.4355ZM3.94043 14.4355L2.50587 15.8291L2.5092 15.8325L3.94043 14.4355ZM3.94043 4.47754L5.36831 5.87796L5.37166 5.87453L3.94043 4.47754ZM13.8369 4.47754L12.4091 5.87803L12.4125 5.88144L13.8369 4.47754ZM11.165 12.7744L12.7015 14.0548L12.7089 14.0458L11.165 12.7744ZM11.8945 11.3682L13.8136 11.9314L13.8152 11.9258L11.8945 11.3682ZM11.1475 6.1123L9.62355 7.40763L9.63264 7.41818L11.1475 6.1123ZM10.1104 5.34766L9.35308 7.19878L9.3628 7.20269L10.1104 5.34766ZM7.68457 5.33887L6.94178 3.48189L6.93182 3.48593L7.68457 5.33887ZM6.64746 6.09473L5.16086 4.75679L5.15559 4.76269L6.64746 6.09473ZM5.92676 7.45703L4.02367 6.84189L4.01989 6.85384L5.92676 7.45703ZM5.91797 11.4561L4.01265 12.0641C4.01525 12.0723 4.0179 12.0804 4.0206 12.0885L5.91797 11.4561ZM10.1367 13.5566L10.9079 15.402C10.9157 15.3987 10.9234 15.3954 10.9312 15.3921L10.1367 13.5566ZM13.6387 9.46094C13.6387 11.1457 13.1685 12.2624 12.4111 13.042L15.2803 15.8291C16.9136 14.1478 17.6387 11.948 17.6387 9.46094H13.6387ZM12.4145 13.0386C11.6796 13.7915 10.5927 14.2725 8.88867 14.2725V18.2725C11.4034 18.2725 13.6212 17.5288 15.2769 15.8325L12.4145 13.0386ZM8.88867 14.2725C7.19231 14.2725 6.10762 13.7926 5.37166 13.0386L2.5092 15.8325C4.16387 17.5278 6.37801 18.2725 8.88867 18.2725V14.2725ZM5.37499 13.042C4.61765 12.2624 4.14746 11.1457 4.14746 9.46094H0.147461C0.147461 11.948 0.872582 14.1478 2.50587 15.8291L5.37499 13.042ZM4.14746 9.46094C4.14746 7.75245 4.6209 6.64002 5.36831 5.87796L2.51255 3.07712C0.869338 4.75256 0.147461 6.9624 0.147461 9.46094H4.14746ZM5.37166 5.87453C6.10762 5.12053 7.19231 4.64062 8.88867 4.64062V0.640625C6.37801 0.640625 4.16387 1.38533 2.5092 3.08055L5.37166 5.87453ZM8.88867 4.64062C10.5769 4.64062 11.665 5.11937 12.4091 5.87802L15.2647 3.07705C13.6065 1.38649 11.3957 0.640625 8.88867 0.640625V4.64062ZM12.4125 5.88144C13.164 6.64396 13.6387 7.75517 13.6387 9.46094H17.6387C17.6387 6.95967 16.9122 4.74861 15.2614 3.07364L12.4125 5.88144ZM12.7089 14.0458C13.2233 13.4212 13.5862 12.7063 13.8136 11.9314L9.97547 10.805C9.88649 11.1081 9.76307 11.3307 9.62118 11.503L12.7089 14.0458ZM13.8152 11.9258C14.0387 11.1559 14.1318 10.3215 14.1318 9.45215H10.1318C10.1318 10.0476 10.0667 10.4906 9.97384 10.8105L13.8152 11.9258ZM14.1318 9.45215C14.1318 8.52427 14.0259 7.63201 13.7588 6.82185L9.96 8.07463C10.0561 8.36604 10.1318 8.80972 10.1318 9.45215H14.1318ZM13.7588 6.82185C13.5178 6.09125 13.169 5.39425 12.6623 4.80643L9.63264 7.41818C9.71183 7.51005 9.83766 7.70367 9.96 8.07463L13.7588 6.82185ZM12.6713 4.81701C12.1822 4.2415 11.5772 3.7825 10.8579 3.49262L9.3628 7.20269C9.42863 7.22922 9.51511 7.27998 9.62358 7.4076L12.6713 4.81701ZM10.8676 3.49656C10.2382 3.23906 9.57645 3.11035 8.89746 3.11035V7.11035C9.06222 7.11035 9.20911 7.13985 9.35309 7.19875L10.8676 3.49656ZM8.89746 3.11035C8.22635 3.11035 7.56894 3.23105 6.94179 3.48191L8.42735 7.19582C8.56191 7.142 8.71311 7.11035 8.89746 7.11035V3.11035ZM6.93182 3.48593C6.23284 3.76989 5.64578 4.21801 5.16087 4.7568L8.13405 7.43266C8.28195 7.26832 8.3863 7.21253 8.43732 7.1918L6.93182 3.48593ZM5.15559 4.76269C4.62019 5.36234 4.26593 6.09251 4.0237 6.8419L7.82981 8.07216C7.96259 7.66139 8.0888 7.48336 8.13934 7.42676L5.15559 4.76269ZM4.01989 6.85384C3.7627 7.66688 3.6543 8.54611 3.6543 9.46094H7.6543C7.6543 8.85232 7.72754 8.39562 7.83363 8.06023L4.01989 6.85384ZM3.6543 9.46094C3.6543 10.3797 3.7566 11.2618 4.01265 12.0641L7.82329 10.848C7.72777 10.5487 7.6543 10.1007 7.6543 9.46094H3.6543ZM4.0206 12.0885C4.26216 12.8132 4.60868 13.5004 5.10409 14.085L8.15567 11.4989C8.06515 11.3921 7.93706 11.1888 7.81534 10.8236L4.0206 12.0885ZM5.10409 14.085C5.58778 14.6558 6.18394 15.1082 6.88702 15.402L8.42939 11.7113C8.34731 11.677 8.25792 11.6196 8.15567 11.4989L5.10409 14.085ZM6.88702 15.402C7.52862 15.6701 8.20428 15.8027 8.89746 15.8027V11.8027C8.72346 11.8027 8.57295 11.7713 8.42939 11.7113L6.88702 15.402ZM8.89746 15.8027C9.59064 15.8027 10.2663 15.6701 10.9079 15.402L9.36553 11.7113C9.22198 11.7713 9.07147 11.8027 8.89746 11.8027V15.8027ZM10.9312 15.3921C11.631 15.0892 12.2224 14.6297 12.7015 14.0548L9.6286 11.494C9.52177 11.6222 9.42761 11.6843 9.34227 11.7212L10.9312 15.3921ZM32.3734 10.2344H34.3734C34.3734 9.12981 33.478 8.23438 32.3734 8.23438V10.2344ZM27.39 10.2344V8.23438C26.2854 8.23438 25.39 9.12981 25.39 10.2344H27.39ZM27.39 16V18C28.4946 18 29.39 17.1046 29.39 16H27.39ZM24.015 16H22.015C22.015 17.1046 22.9104 18 24.015 18V16ZM24.015 2.91309V0.913086C22.9104 0.913086 22.015 1.80852 22.015 2.91309H24.015ZM27.39 2.91309H29.39C29.39 1.80852 28.4946 0.913086 27.39 0.913086V2.91309ZM27.39 7.70312H25.39C25.39 8.80769 26.2854 9.70312 27.39 9.70312V7.70312ZM32.3734 7.70312V9.70312C33.478 9.70312 34.3734 8.80769 34.3734 7.70312H32.3734ZM32.3734 2.91309V0.913086C31.2688 0.913086 30.3734 1.80852 30.3734 2.91309H32.3734ZM35.7484 2.91309H37.7484C37.7484 1.80852 36.853 0.913086 35.7484 0.913086V2.91309ZM35.7484 16V18C36.853 18 37.7484 17.1046 37.7484 16H35.7484ZM32.3734 16H30.3734C30.3734 17.1046 31.2688 18 32.3734 18V16ZM32.3734 8.23438H27.39V12.2344H32.3734V8.23438ZM25.39 10.2344V16H29.39V10.2344H25.39ZM27.39 14H24.015V18H27.39V14ZM26.015 16V2.91309H22.015V16H26.015ZM24.015 4.91309H27.39V0.913086H24.015V4.91309ZM25.39 2.91309V7.70312H29.39V2.91309H25.39ZM27.39 9.70312H32.3734V5.70312H27.39V9.70312ZM34.3734 7.70312V2.91309H30.3734V7.70312H34.3734ZM32.3734 4.91309H35.7484V0.913086H32.3734V4.91309ZM33.7484 2.91309V16H37.7484V2.91309H33.7484ZM35.7484 14H32.3734V18H35.7484V14ZM34.3734 16V10.2344H30.3734V16H34.3734ZM42.5821 10.9551L40.6901 10.3067C40.4807 10.9177 40.5793 11.5921 40.9547 12.1177C41.3301 12.6432 41.9362 12.9551 42.5821 12.9551V10.9551ZM45.7989 10.9551V12.9551C46.4447 12.9551 47.0508 12.6432 47.4263 12.1177C47.8017 11.5921 47.9002 10.9177 47.6909 10.3067L45.7989 10.9551ZM44.1905 6.26172L46.0825 5.61334C45.8054 4.80482 45.0451 4.26172 44.1905 4.26172C43.3358 4.26172 42.5756 4.80482 42.2985 5.61334L44.1905 6.26172ZM46.6162 13.3545L48.5085 12.707C48.2317 11.898 47.4713 11.3545 46.6162 11.3545V13.3545ZM41.7647 13.3545V11.3545C40.9097 11.3545 40.1492 11.898 39.8724 12.707L41.7647 13.3545ZM40.8594 16V18C41.7144 18 42.4749 17.4565 42.7517 16.6475L40.8594 16ZM37.458 16L35.5819 15.307C35.3553 15.9207 35.4431 16.6065 35.817 17.1432C36.191 17.68 36.8038 18 37.458 18V16ZM42.292 2.91309V0.913086C41.4547 0.913086 40.706 1.43466 40.4159 2.2201L42.292 2.91309ZM46.1768 2.91309L48.0529 2.2201C47.7628 1.43466 47.0141 0.913086 46.1768 0.913086V2.91309ZM51.0108 16V18C51.665 18 52.2779 17.68 52.6518 17.1432C53.0258 16.6065 53.1136 15.9207 52.8869 15.307L51.0108 16ZM47.5215 16L45.6292 16.6475C45.9061 17.4565 46.6665 18 47.5215 18V16ZM42.5821 12.9551H45.7989V8.95508H42.5821V12.9551ZM47.6909 10.3067L46.0825 5.61334L42.2985 6.9101L43.9069 11.6035L47.6909 10.3067ZM42.2985 5.61334L40.6901 10.3067L44.4741 11.6035L46.0825 6.9101L42.2985 5.61334ZM46.6162 11.3545H41.7647V15.3545H46.6162V11.3545ZM39.8724 12.707L38.9671 15.3525L42.7517 16.6475L43.657 14.002L39.8724 12.707ZM40.8594 14H37.458V18H40.8594V14ZM39.3342 16.693L44.1681 3.60607L40.4159 2.2201L35.5819 15.307L39.3342 16.693ZM42.292 4.91309H46.1768V0.913086H42.292V4.91309ZM44.3007 3.60607L49.1347 16.693L52.8869 15.307L48.0529 2.2201L44.3007 3.60607ZM51.0108 14H47.5215V18H51.0108V14ZM49.4138 15.3525L48.5085 12.707L44.724 14.002L45.6292 16.6475L49.4138 15.3525ZM55.9284 15.8242L55.2677 17.7119L55.2719 17.7134L55.9284 15.8242ZM53.8103 14.541L52.4249 15.9835L53.8103 14.541ZM52.4304 12.4141L50.5604 13.1234L50.5647 13.1346L52.4304 12.4141ZM53.7663 4.47754L55.1943 5.87782L55.1949 5.87725L53.7663 4.47754ZM55.8757 3.13281L55.1735 1.26015L55.1692 1.26177L55.8757 3.13281ZM60.1208 2.75488L59.8306 4.73371C59.8404 4.73514 59.8501 4.7365 59.8599 4.73779L60.1208 2.75488ZM61.3513 2.99219L61.8969 1.06806C61.8862 1.06502 61.8755 1.06208 61.8647 1.05922L61.3513 2.99219ZM62.4148 3.37012L61.6025 5.19774C61.616 5.20374 61.6295 5.20958 61.6432 5.21528L62.4148 3.37012ZM63.2585 3.74805H65.2585C65.2585 2.98343 64.8226 2.28573 64.1354 1.95051L63.2585 3.74805ZM63.2585 6.9209V8.9209C64.3631 8.9209 65.2585 8.02547 65.2585 6.9209H63.2585ZM62.8718 6.9209L61.5702 8.43941C61.9327 8.75011 62.3944 8.9209 62.8718 8.9209V6.9209ZM62.2478 6.41992L61.0121 7.99256C61.0181 7.99725 61.0241 8.00191 61.0301 8.00654L62.2478 6.41992ZM61.404 5.84863L62.4236 4.12805C62.419 4.12533 62.4144 4.12262 62.4098 4.11994L61.404 5.84863ZM57.8005 5.40918L58.4485 7.3013C58.4562 7.29866 58.4639 7.29598 58.4715 7.29325L57.8005 5.40918ZM56.614 6.14746L55.2353 4.69863C55.2316 4.7021 55.228 4.70558 55.2244 4.70908L56.614 6.14746ZM55.7702 7.47461L53.9092 6.74208C53.907 6.74781 53.9047 6.75356 53.9025 6.75932L55.7702 7.47461ZM55.7966 11.5352L53.9493 12.3016C53.9516 12.3072 53.9539 12.3127 53.9563 12.3183L55.7966 11.5352ZM56.6755 12.8359L58.0148 11.3506L58.0134 11.3493L56.6755 12.8359ZM57.8708 13.5303L57.2613 15.4351C57.269 15.4376 57.2767 15.44 57.2844 15.4424L57.8708 13.5303ZM60.3845 13.5479L59.8022 11.6345L59.7943 11.6369L60.3845 13.5479ZM61.5007 13.0469L60.4821 11.3257C60.47 11.3329 60.4579 11.3402 60.446 11.3476L61.5007 13.0469ZM62.907 12.001V10.001C62.4171 10.001 61.9443 10.1807 61.5782 10.5062L62.907 12.001ZM63.2585 12.001H65.2585C65.2585 10.8964 64.3631 10.001 63.2585 10.001V12.001ZM63.2585 15.1299L64.0738 16.9562C64.7944 16.6345 65.2585 15.9191 65.2585 15.1299H63.2585ZM61.3777 15.877L60.8282 13.9539L60.8247 13.9549L61.3777 15.877ZM58.6267 14.2549C57.8527 14.2549 57.1777 14.141 56.585 13.935L55.2719 17.7134C56.3315 18.0816 57.4554 18.2549 58.6267 18.2549V14.2549ZM56.5891 13.9365C56.0232 13.7384 55.5685 13.4566 55.1956 13.0985L52.4249 15.9835C53.2357 16.7622 54.1931 17.3358 55.2677 17.7119L56.5891 13.9365ZM55.1956 13.0985C54.837 12.7541 54.5305 12.3005 54.2961 11.6935L50.5647 13.1346C50.9865 14.2268 51.5999 15.1912 52.4249 15.9835L55.1956 13.0985ZM54.3004 11.7048C54.081 11.1264 53.947 10.3935 53.947 9.46973H49.947C49.947 10.7726 50.1352 12.0025 50.5604 13.1234L54.3004 11.7048ZM53.947 9.46973C53.947 8.63271 54.0721 7.93064 54.2897 7.33924L50.5359 5.95763C50.1325 7.05373 49.947 8.23252 49.947 9.46973H53.947ZM54.2897 7.33924C54.5089 6.74386 54.8131 6.26657 55.1943 5.87782L52.3383 3.07726C51.5359 3.89554 50.9379 4.86551 50.5359 5.95763L54.2897 7.33924ZM55.1949 5.87725C55.5396 5.52546 55.9882 5.22819 56.5822 5.00385L55.1692 1.26177C54.0874 1.67025 53.1298 2.26947 52.3378 3.07783L55.1949 5.87725ZM56.5779 5.00547C57.1747 4.78169 57.854 4.6582 58.6355 4.6582V0.658203C57.4248 0.658203 56.2642 0.851119 55.1735 1.26015L56.5779 5.00547ZM58.6355 4.6582C59.1111 4.6582 59.5068 4.68622 59.8306 4.73371L60.411 0.776053C59.8559 0.694635 59.2614 0.658203 58.6355 0.658203V4.6582ZM59.8599 4.73779C60.233 4.78688 60.5576 4.85071 60.8378 4.92516L61.8647 1.05922C61.395 0.934443 60.8993 0.840072 60.3817 0.771974L59.8599 4.73779ZM60.8056 4.91632C61.1228 5.00625 61.3862 5.10161 61.6025 5.19774L63.227 1.54249C62.8105 1.35737 62.365 1.20079 61.8969 1.06806L60.8056 4.91632ZM61.6432 5.21528C61.94 5.3394 62.1846 5.44948 62.3817 5.54558L64.1354 1.95051C63.8519 1.81224 63.5341 1.67036 63.1864 1.52496L61.6432 5.21528ZM61.2585 3.74805V6.9209H65.2585V3.74805H61.2585ZM63.2585 4.9209H62.8718V8.9209H63.2585V4.9209ZM64.1734 5.40239C63.9725 5.23023 63.734 5.03946 63.4654 4.8333L61.0301 8.00654C61.2654 8.1871 61.4429 8.33032 61.5702 8.43941L64.1734 5.40239ZM63.4834 4.84729C63.158 4.59157 62.8026 4.35261 62.4236 4.12805L60.3844 7.56922C60.6383 7.71966 60.8454 7.86155 61.0121 7.99256L63.4834 4.84729ZM62.4098 4.11994C61.9677 3.86271 61.4991 3.65136 61.0083 3.48265L59.708 7.2654C59.9672 7.3545 60.1958 7.45956 60.3982 7.57733L62.4098 4.11994ZM61.0083 3.48265C60.4082 3.27637 59.7856 3.18066 59.154 3.18066V7.18066C59.3779 7.18066 59.558 7.21386 59.708 7.2654L61.0083 3.48265ZM59.154 3.18066C58.4612 3.18066 57.7822 3.29261 57.1295 3.52511L58.4715 7.29325C58.6742 7.22106 58.8976 7.18066 59.154 7.18066V3.18066ZM57.1525 3.51706C56.4236 3.76668 55.7844 4.17609 55.2353 4.69863L57.9927 7.59629C58.1702 7.42743 58.3219 7.34465 58.4485 7.3013L57.1525 3.51706ZM55.2244 4.70908C54.6309 5.28238 54.2072 5.98512 53.9092 6.74208L57.6313 8.20714C57.7669 7.86253 57.9056 7.68051 58.0036 7.58584L55.2244 4.70908ZM53.9025 6.75932C53.5805 7.60024 53.4538 8.52514 53.4538 9.47852H57.4538C57.4538 8.86158 57.5381 8.45054 57.6379 8.1899L53.9025 6.75932ZM53.4538 9.47852C53.4538 10.4695 53.5898 11.435 53.9493 12.3016L57.6439 10.7687C57.5464 10.5337 57.4538 10.1282 57.4538 9.47852H53.4538ZM53.9563 12.3183C54.2755 13.0684 54.7197 13.7664 55.3376 14.3225L58.0134 11.3493C57.9282 11.2726 57.7865 11.1035 57.6369 10.752L53.9563 12.3183ZM55.3362 14.3213C55.8951 14.8252 56.5399 15.2043 57.2613 15.4351L58.4804 11.6254C58.3228 11.575 58.1707 11.4912 58.0148 11.3506L55.3362 14.3213ZM57.2844 15.4424C57.8997 15.6311 58.5308 15.7324 59.1716 15.7324V11.7324C58.9569 11.7324 58.7208 11.699 58.4572 11.6182L57.2844 15.4424ZM59.1716 15.7324C59.7852 15.7324 60.3883 15.6399 60.9746 15.4588L59.7943 11.6369C59.5838 11.7019 59.3783 11.7324 59.1716 11.7324V15.7324ZM60.9668 15.4612C61.5278 15.2905 62.06 15.0537 62.5554 14.7462L60.446 11.3476C60.2617 11.4619 60.0498 11.5592 59.8022 11.6345L60.9668 15.4612ZM62.5193 14.768C62.877 14.5563 63.2167 14.3256 63.5361 14.0746L61.0649 10.9293C60.8921 11.065 60.6986 11.1976 60.4821 11.3257L62.5193 14.768ZM63.5361 14.0746C63.8006 13.8668 64.0367 13.6727 64.2357 13.4958L61.5782 10.5062C61.4608 10.6105 61.2926 10.7504 61.0649 10.9293L63.5361 14.0746ZM62.907 14.001H63.2585V10.001H62.907V14.001ZM61.2585 12.001V15.1299H65.2585V12.001H61.2585ZM62.4432 13.3036C62.122 13.447 61.8163 13.5813 61.5259 13.7065L63.1103 17.3794C63.4176 17.2468 63.7388 17.1057 64.0738 16.9562L62.4432 13.3036ZM61.5259 13.7065C61.3098 13.7998 61.0776 13.8826 60.8282 13.9539L61.9271 17.8C62.3339 17.6838 62.7288 17.544 63.1103 17.3794L61.5259 13.7065ZM60.8247 13.9549C60.456 14.061 60.1267 14.1369 59.8348 14.1871L60.5123 18.1293C60.9704 18.0506 61.4439 17.939 61.9306 17.799L60.8247 13.9549ZM59.8348 14.1871C59.6236 14.2234 59.2382 14.2549 58.6267 14.2549V18.2549C59.3277 18.2549 59.9736 18.2219 60.5123 18.1293L59.8348 14.1871Z" fill="black" mask="url(#path-1-outside-1_247_11077)"/>
</svg>
