<svg width="285" height="273" viewBox="0 0 285 273" fill="none" xmlns="http://www.w3.org/2000/svg">
<path d="M248.72 103.222L238.202 97.8138L239.243 109.165L241.884 137.98L237.326 137.164L233.995 100.833L233.569 96.18L229.052 94.5186C221.707 91.8167 214.176 89.5815 206.527 87.8307L198.008 85.881L198.79 94.4117L202.126 130.794L197.568 129.978L194.027 91.3539L193.487 85.4693L187.56 84.6585C177.319 83.2576 167.297 82.3222 158.939 81.8529L151.73 81.4481L152.386 88.602L155.504 122.615L150.946 121.799L142.786 32.7984L142.772 32.6428L142.75 32.4874C141.751 25.2435 137.462 18.6923 131.281 14.1326C125.176 9.62952 117.61 7.31853 110.197 7.4612C102.759 7.31853 95.6156 9.62952 90.337 14.1326C84.9921 18.6923 81.9037 25.2435 82.2329 32.4874L82.2399 32.6428L82.2542 32.7984L92.7216 146.966L88.4123 148.864L85.6626 118.874L85.3807 115.799L82.8686 113.779L60.1539 95.5087L60.1176 95.4795L60.0811 95.4508C53.4895 90.278 45.1477 87.5159 36.8999 87.5159C28.652 87.5159 20.8167 90.278 15.1737 95.4508L15.142 95.4798L15.1108 95.5093C9.45587 100.846 6.44303 108.254 7.17486 116.236C7.89902 124.135 12.1867 131.471 18.7037 136.795L75.964 189.331C78.9109 200.906 84.4349 212.015 92.1834 222.045C97.6826 229.942 104.749 236.942 112.97 242.729L114.447 258.841L115.066 265.601H121.855H252.247H259.035L258.415 258.841L256.362 236.448C272.765 217.497 280.309 193.45 277.231 168.604L273.036 122.849L272.772 119.96L270.493 117.964C263.97 112.249 256.639 107.293 248.72 103.222ZM97.5713 218.403C103.156 226.469 110.608 233.58 119.441 239.272L97.5713 218.403Z" fill="white" stroke="black" stroke-width="13.5765"/>
</svg>
