<svg width="192" height="25" viewBox="0 0 192 25" fill="none" xmlns="http://www.w3.org/2000/svg">
<path d="M185.017 18.3594C185.569 18.3594 186.017 17.9117 186.017 17.3594V4.27246C186.017 3.72018 185.569 3.27246 185.017 3.27246H178.899C178.104 3.27246 177.37 3.34471 176.706 3.50021C176.039 3.65182 175.433 3.898 174.912 4.25843L174.912 4.25843L174.911 4.25886C174.332 4.65981 173.858 5.1739 173.489 5.78824L173.489 5.78822L173.485 5.79571C173.088 6.47005 172.907 7.2337 172.907 8.05176C172.907 9.20253 173.162 10.24 173.762 11.0778L173.762 11.0778L173.766 11.0828C174.1 11.543 174.505 11.9352 174.971 12.262L171.716 16.7744C171.497 17.0789 171.466 17.4807 171.637 17.8149C171.808 18.1491 172.152 18.3594 172.527 18.3594H176.526C176.856 18.3594 177.164 18.1971 177.351 17.9255L180.349 13.5605H180.659V17.3594C180.659 17.9117 181.107 18.3594 181.659 18.3594H185.017ZM179.989 7.68066H180.659V9.20508H180.007C179.537 9.20508 179.189 9.1852 178.946 9.15269C178.813 9.13425 178.722 9.09154 178.649 9.03348L178.637 9.024C178.569 8.97239 178.514 8.90722 178.469 8.8136C178.427 8.7216 178.396 8.59942 178.396 8.42969C178.396 8.26742 178.426 8.14883 178.467 8.05783L178.467 8.05784L178.47 8.04945C178.51 7.95962 178.555 7.90925 178.604 7.87303L178.604 7.87307L178.612 7.86738C178.749 7.76424 178.849 7.73508 178.917 7.72779L178.938 7.72535C179.15 7.69826 179.493 7.68066 179.989 7.68066Z" fill="#FBF448" stroke="black" stroke-width="2" stroke-linejoin="round"/>
<path d="M170.943 18.3594C171.496 18.3594 171.943 17.9117 171.943 17.3594V4.27246C171.943 3.72018 171.496 3.27246 170.943 3.27246H167.349C167.008 3.27246 166.691 3.44595 166.507 3.73279L163.295 8.74325V4.27246C163.295 3.72018 162.847 3.27246 162.295 3.27246H159.008C158.456 3.27246 158.008 3.72018 158.008 4.27246V17.3594C158.008 17.9117 158.456 18.3594 159.008 18.3594H162.225C162.57 18.3594 162.891 18.1814 163.073 17.8885L166.656 12.1428V17.3594C166.656 17.9117 167.104 18.3594 167.656 18.3594H170.943Z" fill="#FBF448" stroke="black" stroke-width="2" stroke-linejoin="round"/>
<path d="M155.839 18.3594C156.391 18.3594 156.839 17.9117 156.839 17.3594V4.27246C156.839 3.72018 156.391 3.27246 155.839 3.27246H152.464C151.912 3.27246 151.464 3.72018 151.464 4.27246V8.0625H148.48V4.27246C148.48 3.72018 148.033 3.27246 147.48 3.27246H144.105C143.553 3.27246 143.105 3.72018 143.105 4.27246V17.3594C143.105 17.9117 143.553 18.3594 144.105 18.3594H147.48C148.033 18.3594 148.48 17.9117 148.48 17.3594V12.5938H151.464V17.3594C151.464 17.9117 151.912 18.3594 152.464 18.3594H155.839Z" fill="#FBF448" stroke="black" stroke-width="2" stroke-linejoin="round"/>
<path d="M142.404 18.3594C142.731 18.3594 143.038 18.1994 143.225 17.931C143.412 17.6626 143.456 17.3197 143.342 17.0129L138.508 3.92597C138.363 3.53325 137.989 3.27246 137.57 3.27246H133.686C133.267 3.27246 132.893 3.53325 132.747 3.92597L127.914 17.0129C127.8 17.3197 127.844 17.6626 128.031 17.931C128.218 18.1994 128.524 18.3594 128.852 18.3594H132.253C132.68 18.3594 133.061 18.0876 133.199 17.6831L133.873 15.7139H137.295L137.969 17.6831C138.107 18.0876 138.488 18.3594 138.915 18.3594H142.404ZM135.375 11.3145L135.584 10.7057L135.793 11.3145H135.375Z" fill="#FBF448" stroke="black" stroke-width="2" stroke-linejoin="round"/>
<path d="M115.777 17.3594C115.777 17.9117 116.225 18.3594 116.777 18.3594H122.49C123.488 18.3594 124.364 18.2741 125.094 18.0798C125.838 17.883 126.522 17.5518 127.139 17.0895C127.708 16.669 128.157 16.1366 128.478 15.5034C128.817 14.847 128.975 14.122 128.975 13.3516C128.975 12.2757 128.658 11.3104 127.948 10.5575C127.711 10.3045 127.448 10.0865 127.161 9.90144C127.254 9.79405 127.342 9.68126 127.425 9.56296L127.428 9.55829C127.885 8.89306 128.104 8.13296 128.104 7.31348C128.104 6.61523 127.946 5.95656 127.603 5.36637C127.253 4.74624 126.727 4.27893 126.079 3.95143L126.079 3.95142L126.075 3.94932C125.507 3.66502 124.918 3.47484 124.311 3.3881C123.749 3.30692 122.918 3.27246 121.857 3.27246H116.777C116.225 3.27246 115.777 3.72018 115.777 4.27246V17.3594ZM122.584 7.75973L122.585 7.76239L122.584 7.75973ZM122.555 7.77304C122.577 7.78122 122.591 7.78835 122.601 7.7936C122.643 7.8787 122.65 7.93562 122.65 7.97266C122.65 8.10442 122.633 8.20001 122.612 8.26893C122.592 8.28192 122.559 8.30107 122.508 8.32375L122.495 8.3296C122.442 8.35383 122.29 8.40053 121.978 8.41516C121.736 8.4265 121.455 8.43413 121.135 8.43784V7.67439C121.468 7.67711 121.742 7.682 121.957 7.68893L121.973 7.68933C122.269 7.69401 122.452 7.73379 122.555 7.77304ZM123.136 12.792C123.337 12.8498 123.402 12.906 123.412 12.9155C123.416 12.9217 123.421 12.9279 123.425 12.934C123.424 12.9327 123.424 12.9319 123.424 12.932C123.424 12.9322 123.477 13.0198 123.477 13.2988C123.477 13.4691 123.442 13.5814 123.397 13.6623L123.397 13.6622L123.396 13.6649C123.386 13.6766 123.334 13.7311 123.169 13.7996L123.169 13.7996L123.164 13.8019C122.947 13.8935 122.699 13.9471 122.406 13.9513C122.12 13.9554 121.696 13.958 121.135 13.9592V12.6995C121.541 12.7003 121.933 12.7031 122.311 12.7079C122.736 12.7133 122.997 12.7517 123.136 12.7918L123.136 12.792ZM123.398 13.6626C123.398 13.6626 123.397 13.663 123.397 13.6638L123.398 13.6626Z" fill="#FBF448" stroke="black" stroke-width="2" stroke-linejoin="round"/>
<path d="M113.297 16.4934L113.298 16.4917C114.713 15.0358 115.374 13.1068 115.374 10.8203C115.374 8.51842 114.711 6.58266 113.285 5.1359C111.856 3.67884 109.926 3 107.624 3C105.317 3 103.386 3.67824 101.961 5.13756C100.542 6.58456 99.8828 8.51974 99.8828 10.8203C99.8828 13.1068 100.544 15.0358 101.958 16.4917L101.96 16.4934C103.385 17.9533 105.317 18.6318 107.624 18.6318C109.936 18.6318 111.871 17.9539 113.297 16.4934ZM109.121 8.11933L109.121 8.11934L109.125 8.12462C109.311 8.34047 109.493 8.65994 109.645 9.12081C109.784 9.54191 109.867 10.0977 109.867 10.8115C109.867 11.4747 109.795 12.015 109.67 12.4472C109.547 12.8667 109.364 13.2112 109.13 13.4959C108.932 13.7326 108.717 13.8926 108.481 13.9958C108.214 14.1062 107.934 14.1621 107.633 14.1621C107.329 14.1621 107.047 14.1054 106.779 13.9933C106.542 13.8942 106.326 13.738 106.128 13.5048C105.937 13.2796 105.755 12.9572 105.604 12.5054C105.47 12.0811 105.39 11.5265 105.39 10.8203C105.39 10.1366 105.471 9.57522 105.615 9.12093C105.774 8.62845 105.956 8.31362 106.127 8.12152C106.358 7.86546 106.582 7.71222 106.794 7.62568C107.051 7.52327 107.328 7.46973 107.633 7.46973C107.926 7.46973 108.202 7.52403 108.467 7.63258L108.467 7.63259L108.472 7.63455C108.701 7.72692 108.917 7.87974 109.121 8.11933Z" fill="#FBF448" stroke="black" stroke-width="2" stroke-linejoin="round"/>
<path d="M99.5254 21.3652C100.078 21.3652 100.525 20.9175 100.525 20.3652V14.8193C100.525 14.2671 100.078 13.8193 99.5254 13.8193H99.2334V4.27246C99.2334 3.72018 98.7857 3.27246 98.2334 3.27246H88.4688C87.9165 3.27246 87.4688 3.72018 87.4688 4.27246C87.4688 6.24628 87.2924 8.08916 86.9439 9.80373L86.9439 9.80372L86.9432 9.80681C86.6474 11.2861 86.2394 12.6221 85.7239 13.8193H85.375C84.8227 13.8193 84.375 14.2671 84.375 14.8193V20.3652C84.375 20.9175 84.8227 21.3652 85.375 21.3652H88.4775C89.0298 21.3652 89.4775 20.9175 89.4775 20.3652V18.3154H95.4229V20.3652C95.4229 20.9175 95.8706 21.3652 96.4229 21.3652H99.5254ZM92.5066 7.80371H93.8584V13.8193H91.1149C91.3909 13.0883 91.6366 12.3077 91.853 11.4786C92.1567 10.328 92.3738 9.10247 92.5066 7.80371Z" fill="#FBF448" stroke="black" stroke-width="2" stroke-linejoin="round"/>
<path d="M84.0166 18.3594C84.5689 18.3594 85.0166 17.9117 85.0166 17.3594V14.8281C85.0166 14.2758 84.5689 13.8281 84.0166 13.8281H78.9082V12.5938H83.5771C84.1294 12.5938 84.5771 12.146 84.5771 11.5938V9.0625C84.5771 8.51022 84.1294 8.0625 83.5771 8.0625H78.9082V7.80371H84.0166C84.5689 7.80371 85.0166 7.356 85.0166 6.80371V4.27246C85.0166 3.72018 84.5689 3.27246 84.0166 3.27246H74.5508C73.9985 3.27246 73.5508 3.72018 73.5508 4.27246V17.3594C73.5508 17.9117 73.9985 18.3594 74.5508 18.3594H84.0166Z" fill="#FBF448" stroke="black" stroke-width="2" stroke-linejoin="round"/>
<path d="M71.3818 18.3594C71.9341 18.3594 72.3818 17.9117 72.3818 17.3594V4.27246C72.3818 3.72018 71.9341 3.27246 71.3818 3.27246H61.1162C60.5713 3.27246 60.1267 3.70869 60.1164 4.25348C60.0989 5.17594 60.0785 5.99454 60.0552 6.70968L60.0552 6.70968L60.055 6.7176C60.0376 7.42325 60.0117 8.07421 59.9772 8.67092L59.9772 8.67092L59.977 8.67516C59.8959 10.1928 59.773 11.3331 59.6168 12.1196L59.6168 12.1196L59.6158 12.1249C59.4767 12.8452 59.246 13.2265 59.0294 13.4212C59.0248 13.4249 59.0206 13.4269 59.0108 13.4295C59.0111 13.4294 59.0085 13.4301 59.0023 13.4313C58.9962 13.4325 58.9874 13.4341 58.9756 13.4359C58.9518 13.4396 58.9192 13.4436 58.8767 13.4471C58.7906 13.4544 58.6771 13.459 58.5322 13.459C58.4676 13.459 58.4179 13.4569 58.3812 13.4539C58.3238 13.4487 58.2734 13.4436 58.2296 13.4387C58.1929 13.4347 58.156 13.4326 58.1191 13.4326H57.9961C57.4438 13.4326 56.9961 13.8803 56.9961 14.4326V17.3594C56.9961 17.8606 57.3671 18.2844 57.8639 18.3506C57.9859 18.3669 58.216 18.3864 58.5185 18.4093L58.5199 18.4094C58.8589 18.4345 59.1883 18.4473 59.5078 18.4473C60.1047 18.4473 60.6807 18.3449 61.2282 18.1348C61.7607 17.9306 62.2361 17.6453 62.6324 17.2658C62.9222 16.9908 63.1908 16.6567 63.4424 16.2793C63.7201 15.8628 63.9625 15.3581 64.1786 14.786L64.1787 14.786L64.1808 14.7803C64.4 14.189 64.5854 13.469 64.7436 12.6356C64.9125 11.7714 65.0335 10.7306 65.1112 9.52223C65.1465 8.98181 65.1731 8.54419 65.191 8.21072C65.1974 8.09121 65.2045 7.95553 65.2125 7.80371H67.0068V17.3594C67.0068 17.9117 67.4546 18.3594 68.0068 18.3594H71.3818Z" fill="#FBF448" stroke="black" stroke-width="2" stroke-linejoin="round"/>
<path d="M49.5516 18.1282L49.5495 18.1275C48.6021 17.7958 47.7703 17.2951 47.069 16.6216C46.3606 15.9413 45.824 15.1046 45.449 14.1337L45.4468 14.1281L45.4468 14.1281C45.0731 13.1429 44.8984 12.0372 44.8984 10.8291C44.8984 9.69195 45.0688 8.63233 45.4258 7.66241C45.782 6.6946 46.3065 5.8479 47.0035 5.13706L49.5516 18.1282ZM49.5516 18.1282C50.4945 18.4558 51.5062 18.6143 52.5781 18.6143C53.2568 18.6143 53.8375 18.5817 54.2944 18.5031C54.7106 18.4316 55.1477 18.329 55.6045 18.1977C55.9717 18.0927 56.3257 17.9672 56.6656 17.8206C56.9687 17.6898 57.286 17.5504 57.6176 17.4024C57.9779 17.2415 58.21 16.8838 58.21 16.4893V13.3604C58.21 12.8081 57.7622 12.3604 57.21 12.3604H56.8584C56.6135 12.3604 56.3771 12.4502 56.194 12.6129C56.0562 12.7354 55.8711 12.8889 55.6341 13.075C55.4247 13.2396 55.1946 13.3966 54.9428 13.5457L54.9248 13.5566C54.6627 13.7193 54.3707 13.8514 54.0448 13.9506L54.0448 13.9505L54.0409 13.9518C53.7364 14.0458 53.4315 14.0918 53.123 14.0918C52.8037 14.0918 52.4708 14.042 52.1215 13.9354C51.8251 13.8397 51.5517 13.6826 51.2966 13.4526L51.2959 13.452C51.0782 13.2561 50.8616 12.956 50.6701 12.5073C50.508 12.1147 50.4053 11.5704 50.4053 10.8379C50.4053 10.1392 50.4995 9.60104 50.6539 9.19581C50.8291 8.75225 51.0375 8.4421 51.2576 8.22856C51.5271 7.97282 51.7998 7.8092 52.0759 7.71461L52.076 7.71468L52.0875 7.71059C52.4027 7.59832 52.74 7.54004 53.1055 7.54004C53.4313 7.54004 53.722 7.58886 53.9845 7.67909C54.3002 7.78762 54.5877 7.91858 54.8492 8.07038C55.1328 8.23864 55.3758 8.4041 55.5814 8.56562L55.5814 8.56567L55.5904 8.57261C55.834 8.75957 56.0268 8.91467 56.1725 9.03953C56.3537 9.19488 56.5845 9.28027 56.8232 9.28027H57.21C57.7622 9.28027 58.21 8.83256 58.21 8.28027V5.10742C58.21 4.72512 57.992 4.37627 57.6484 4.20865C57.3891 4.08219 57.0929 3.94965 56.762 3.81107C56.3983 3.65014 56.0018 3.51037 55.5756 3.3895L55.5595 3.38508C55.1392 3.27345 54.6887 3.18702 54.21 3.12376C53.7147 3.05157 53.1723 3.01758 52.5869 3.01758C51.4835 3.01758 50.4433 3.19314 49.476 3.55586L49.476 3.55586M49.5516 18.1282L49.476 3.55586M49.476 3.55586L49.4739 3.55667M49.476 3.55586L49.4739 3.55667M49.4739 3.55667C48.5142 3.91906 47.6839 4.4427 47.0038 5.13677L49.4739 3.55667Z" fill="#FBF448" stroke="black" stroke-width="2" stroke-linejoin="round"/>
<path d="M36.7079 18.1282L36.7058 18.1275C35.7583 17.7958 34.9266 17.2951 34.2253 16.6216C33.5169 15.9413 32.9802 15.1046 32.6052 14.1337L32.6031 14.1281L32.6031 14.1281C32.2294 13.1429 32.0547 12.0372 32.0547 10.8291C32.0547 9.69195 32.2251 8.63233 32.5821 7.66241C32.9383 6.6946 33.4628 5.8479 34.1597 5.13706L36.7079 18.1282ZM36.7079 18.1282C37.6507 18.4558 38.6624 18.6143 39.7344 18.6143C40.413 18.6143 40.9938 18.5817 41.4506 18.5031C41.8669 18.4316 42.3039 18.329 42.7608 18.1977C43.128 18.0927 43.4819 17.9672 43.8219 17.8206C44.1249 17.6898 44.4423 17.5504 44.7739 17.4024C45.1342 17.2415 45.3662 16.8838 45.3662 16.4893V13.3604C45.3662 12.8081 44.9185 12.3604 44.3662 12.3604H44.0146C43.7697 12.3604 43.5333 12.4502 43.3503 12.6129C43.2125 12.7354 43.0273 12.8889 42.7904 13.075C42.581 13.2396 42.3509 13.3966 42.0991 13.5457L42.081 13.5566C41.819 13.7193 41.527 13.8514 41.201 13.9506L41.201 13.9505L41.1971 13.9518C40.8926 14.0458 40.5877 14.0918 40.2793 14.0918C39.9599 14.0918 39.6271 14.042 39.2777 13.9354C38.9814 13.8397 38.7079 13.6826 38.4528 13.4526L38.4522 13.452C38.2345 13.2561 38.0178 12.956 37.8263 12.5073C37.6642 12.1147 37.5615 11.5704 37.5615 10.8379C37.5615 10.1392 37.6558 9.60104 37.8102 9.19581C37.9854 8.75225 38.1937 8.4421 38.4139 8.22856C38.6833 7.97282 38.956 7.8092 39.2322 7.71461L39.2322 7.71468L39.2437 7.71059C39.5589 7.59832 39.8962 7.54004 40.2617 7.54004C40.5875 7.54004 40.8783 7.58886 41.1407 7.67909C41.4565 7.78762 41.744 7.91858 42.0054 8.07038C42.2891 8.23864 42.5321 8.4041 42.7376 8.56562L42.7376 8.56567L42.7466 8.57261C42.9903 8.75957 43.183 8.91467 43.3287 9.03953C43.5099 9.19488 43.7408 9.28027 43.9795 9.28027H44.3662C44.9185 9.28027 45.3662 8.83256 45.3662 8.28027V5.10742C45.3662 4.72512 45.1482 4.37627 44.8046 4.20865C44.5454 4.08219 44.2492 3.94965 43.9182 3.81107C43.5546 3.65014 43.1581 3.51037 42.7318 3.3895L42.7157 3.38508C42.2955 3.27345 41.8449 3.18702 41.3662 3.12376C40.8709 3.05157 40.3286 3.01758 39.7432 3.01758C38.6398 3.01758 37.5995 3.19314 36.6323 3.55586L36.6323 3.55586M36.7079 18.1282L36.6323 3.55586M36.6323 3.55586L36.6301 3.55667M36.6323 3.55586L36.6301 3.55667M36.6301 3.55667C35.6705 3.91906 34.8402 4.4427 34.16 5.13677L36.6301 3.55667Z" fill="#FBF448" stroke="black" stroke-width="2" stroke-linejoin="round"/>
<path d="M32.1152 18.3594C32.4423 18.3594 32.7488 18.1994 32.9358 17.931C33.1227 17.6626 33.1666 17.3197 33.0533 17.0129L28.2193 3.92597C28.0742 3.53325 27.6999 3.27246 27.2812 3.27246H23.3965C22.9778 3.27246 22.6035 3.53325 22.4584 3.92597L17.6244 17.0129C17.5111 17.3197 17.555 17.6626 17.742 17.931C17.929 18.1994 18.2354 18.3594 18.5625 18.3594H21.9639C22.3914 18.3594 22.7716 18.0876 22.91 17.6831L23.5839 15.7139H27.006L27.6798 17.6831C27.8182 18.0876 28.1985 18.3594 28.626 18.3594H32.1152ZM25.0863 11.3145L25.2949 10.7057L25.5035 11.3145H25.0863Z" fill="#FBF448" stroke="black" stroke-width="2" stroke-linejoin="round"/>
<path d="M18.4325 10.4717L18.4336 10.4685C18.6779 9.79868 18.8018 9.10866 18.8018 8.40332C18.8018 7.5264 18.6388 6.71372 18.2684 6.00218C17.9107 5.30358 17.3891 4.73349 16.724 4.29747L16.724 4.29747L16.7227 4.29662C16.179 3.94139 15.5671 3.68654 14.899 3.52232C14.2243 3.34918 13.4364 3.27246 12.5547 3.27246H7C6.44772 3.27246 6 3.72018 6 4.27246V17.3594C6 17.9117 6.44772 18.3594 7 18.3594H10.375C10.9273 18.3594 11.375 17.9117 11.375 17.3594V14.0967H12.4756C13.5142 14.0967 14.4502 13.9545 15.2463 13.6261C16.0178 13.3103 16.7092 12.8456 17.3183 12.2433L17.3223 12.2393C17.8155 11.7462 18.1825 11.1502 18.4325 10.4717ZM13.2095 8.12759L13.2095 8.12763L13.2158 8.13604C13.2686 8.20589 13.3125 8.30409 13.3125 8.48242C13.3125 8.77426 13.273 8.96679 13.2276 9.08703L13.2275 9.087L13.2233 9.09869C13.1912 9.18689 13.1393 9.26729 13.0493 9.34665C12.9488 9.42895 12.8017 9.50443 12.5725 9.5474L12.5725 9.5474L12.5697 9.54794C12.2913 9.60096 11.8989 9.63435 11.375 9.6357V7.71773C11.7265 7.72111 12.0135 7.72896 12.2385 7.74081L12.2559 7.74157C12.4603 7.74874 12.6895 7.79579 12.9479 7.89918C13.0101 7.92406 13.1006 7.9802 13.2095 8.12759Z" fill="#FBF448" stroke="black" stroke-width="2" stroke-linejoin="round"/>
<path d="M185.017 17.3594H181.659V12.5605H179.822L176.526 17.3594H172.527L176.438 11.9365C175.647 11.5967 175.026 11.1162 174.575 10.4951C174.13 9.87402 173.907 9.05957 173.907 8.05176C173.907 7.38379 174.054 6.80078 174.347 6.30273C174.646 5.80469 175.023 5.39746 175.48 5.08105C175.879 4.80566 176.362 4.60352 176.931 4.47461C177.505 4.33984 178.161 4.27246 178.899 4.27246H185.017V17.3594ZM181.659 10.2051V6.68066H179.989C179.479 6.68066 179.087 6.69824 178.812 6.7334C178.536 6.7627 178.27 6.87402 178.012 7.06738C177.812 7.21387 177.66 7.40723 177.555 7.64746C177.449 7.88184 177.396 8.14258 177.396 8.42969C177.396 8.72852 177.452 8.99805 177.563 9.23828C177.675 9.47266 177.83 9.66602 178.029 9.81836C178.252 9.99414 178.513 10.1025 178.812 10.1436C179.116 10.1846 179.515 10.2051 180.007 10.2051H181.659Z" fill="#FBF448"/>
<path d="M170.943 17.3594H167.656V8.64941L162.225 17.3594H159.008V4.27246H162.295V12.1562L167.349 4.27246H170.943V17.3594Z" fill="#FBF448"/>
<path d="M155.839 17.3594H152.464V11.5938H147.48V17.3594H144.105V4.27246H147.48V9.0625H152.464V4.27246H155.839V17.3594Z" fill="#FBF448"/>
<path d="M142.404 17.3594H138.915L138.01 14.7139H133.158L132.253 17.3594H128.852L133.686 4.27246H137.57L142.404 17.3594ZM137.192 12.3145L135.584 7.62109L133.976 12.3145H137.192Z" fill="#FBF448"/>
<path d="M127.975 13.3516C127.975 13.9844 127.846 14.5498 127.588 15.0479C127.336 15.5459 126.987 15.959 126.542 16.2871C126.026 16.6738 125.458 16.9492 124.837 17.1133C124.222 17.2773 123.439 17.3594 122.49 17.3594H116.777V4.27246H121.857C122.912 4.27246 123.683 4.30762 124.169 4.37793C124.661 4.44824 125.147 4.60352 125.628 4.84375C126.126 5.0957 126.495 5.43555 126.735 5.86328C126.981 6.28516 127.104 6.76855 127.104 7.31348C127.104 7.94629 126.938 8.50586 126.604 8.99219C126.27 9.47266 125.798 9.84766 125.188 10.1172V10.1875C126.044 10.3574 126.721 10.709 127.219 11.2422C127.723 11.7754 127.975 12.4785 127.975 13.3516ZM123.65 7.97266C123.65 7.75586 123.595 7.53906 123.483 7.32227C123.378 7.10547 123.188 6.94434 122.912 6.83887C122.666 6.74512 122.358 6.69531 121.989 6.68945C121.626 6.67773 121.113 6.67188 120.451 6.67188H120.135V9.44043H120.662C121.195 9.44043 121.649 9.43164 122.024 9.41406C122.399 9.39648 122.695 9.33789 122.912 9.23828C123.217 9.10352 123.416 8.93066 123.51 8.71973C123.604 8.50293 123.65 8.25391 123.65 7.97266ZM124.477 13.2988C124.477 12.8828 124.395 12.5635 124.23 12.3408C124.072 12.1123 123.8 11.9424 123.413 11.8311C123.149 11.7549 122.786 11.7139 122.323 11.708C121.86 11.7021 121.377 11.6992 120.873 11.6992H120.135V14.96H120.381C121.33 14.96 122.01 14.957 122.42 14.9512C122.83 14.9453 123.208 14.8691 123.554 14.7227C123.905 14.5762 124.146 14.3828 124.274 14.1426C124.409 13.8965 124.477 13.6152 124.477 13.2988Z" fill="#FBF448"/>
<path d="M114.374 10.8203C114.374 12.9062 113.776 14.5645 112.581 15.7949C111.386 17.0195 109.733 17.6318 107.624 17.6318C105.521 17.6318 103.871 17.0195 102.676 15.7949C101.48 14.5645 100.883 12.9062 100.883 10.8203C100.883 8.7168 101.48 7.05566 102.676 5.83691C103.871 4.6123 105.521 4 107.624 4C109.722 4 111.371 4.6123 112.572 5.83691C113.773 7.05566 114.374 8.7168 114.374 10.8203ZM109.9 14.1338C110.229 13.7354 110.472 13.2666 110.63 12.7275C110.788 12.1826 110.867 11.5439 110.867 10.8115C110.867 10.0264 110.776 9.3584 110.595 8.80762C110.413 8.25684 110.176 7.81152 109.883 7.47168C109.584 7.12012 109.238 6.86523 108.846 6.70703C108.459 6.54883 108.055 6.46973 107.633 6.46973C107.205 6.46973 106.801 6.5459 106.42 6.69824C106.045 6.85059 105.699 7.10254 105.383 7.4541C105.09 7.78223 104.85 8.23633 104.662 8.81641C104.48 9.39062 104.39 10.0586 104.39 10.8203C104.39 11.5996 104.478 12.2646 104.653 12.8154C104.835 13.3604 105.072 13.8057 105.365 14.1514C105.658 14.4971 106.001 14.752 106.394 14.916C106.786 15.0801 107.199 15.1621 107.633 15.1621C108.066 15.1621 108.479 15.0801 108.872 14.916C109.265 14.7461 109.607 14.4854 109.9 14.1338Z" fill="#FBF448"/>
<path d="M99.5254 20.3652H96.4229V17.3154H88.4775V20.3652H85.375V14.8193H86.3682C87.0479 13.3955 87.5664 11.79 87.9238 10.0029C88.2871 8.21582 88.4688 6.30566 88.4688 4.27246H98.2334V14.8193H99.5254V20.3652ZM94.8584 14.8193V6.80371H91.5889C91.4775 8.39746 91.2432 9.87109 90.8857 11.2246C90.5342 12.5723 90.1064 13.7705 89.6025 14.8193H94.8584Z" fill="#FBF448"/>
<path d="M84.0166 17.3594H74.5508V4.27246H84.0166V6.80371H77.9082V9.0625H83.5771V11.5938H77.9082V14.8281H84.0166V17.3594Z" fill="#FBF448"/>
<path d="M71.3818 17.3594H68.0068V6.80371H64.2627C64.2334 7.37793 64.21 7.8291 64.1924 8.15723C64.1748 8.48535 64.1484 8.91895 64.1133 9.45801C64.0371 10.6416 63.9199 11.6377 63.7617 12.4463C63.6094 13.249 63.4365 13.9111 63.2432 14.4326C63.0439 14.96 62.833 15.3906 62.6104 15.7246C62.3877 16.0586 62.165 16.3311 61.9424 16.542C61.6553 16.8174 61.2979 17.0371 60.8701 17.2012C60.4424 17.3652 59.9883 17.4473 59.5078 17.4473C59.2148 17.4473 58.9102 17.4355 58.5938 17.4121C58.2832 17.3887 58.084 17.3711 57.9961 17.3594V14.4326H58.1191C58.1719 14.4385 58.2305 14.4443 58.2949 14.4502C58.3652 14.4561 58.4443 14.459 58.5322 14.459C58.8604 14.459 59.1035 14.4385 59.2617 14.3975C59.4199 14.3564 59.5605 14.2832 59.6836 14.1777C60.1289 13.7852 60.4336 13.1641 60.5977 12.3145C60.7676 11.459 60.8936 10.2637 60.9756 8.72852C61.0107 8.11914 61.0371 7.45703 61.0547 6.74219C61.0781 6.02148 61.0986 5.19824 61.1162 4.27246H71.3818V17.3594Z" fill="#FBF448"/>
<path d="M52.5781 17.6143C51.6055 17.6143 50.7061 17.4707 49.8799 17.1836C49.0596 16.8965 48.3535 16.4688 47.7617 15.9004C47.1699 15.332 46.71 14.623 46.3818 13.7734C46.0596 12.9238 45.8984 11.9424 45.8984 10.8291C45.8984 9.79199 46.0537 8.85156 46.3643 8.00781C46.6748 7.16406 47.126 6.44043 47.7178 5.83691C48.2861 5.25684 48.9893 4.80859 49.8271 4.49219C50.6709 4.17578 51.5908 4.01758 52.5869 4.01758C53.1377 4.01758 53.6328 4.0498 54.0723 4.11426C54.5176 4.17285 54.9277 4.25195 55.3027 4.35156C55.6953 4.46289 56.0498 4.58887 56.3662 4.72949C56.6885 4.86426 56.9697 4.99023 57.21 5.10742V8.28027H56.8232C56.6592 8.13965 56.4512 7.97266 56.1992 7.7793C55.9531 7.58594 55.6719 7.39551 55.3555 7.20801C55.0332 7.02051 54.6846 6.8623 54.3096 6.7334C53.9346 6.60449 53.5332 6.54004 53.1055 6.54004C52.6309 6.54004 52.1797 6.61621 51.752 6.76855C51.3242 6.91504 50.9287 7.16113 50.5654 7.50684C50.2197 7.84082 49.9385 8.2832 49.7217 8.83398C49.5107 9.38477 49.4053 10.0527 49.4053 10.8379C49.4053 11.6582 49.5195 12.3438 49.748 12.8945C49.9824 13.4453 50.2754 13.8789 50.627 14.1953C50.9844 14.5176 51.3828 14.749 51.8223 14.8896C52.2617 15.0244 52.6953 15.0918 53.123 15.0918C53.5332 15.0918 53.9375 15.0303 54.3359 14.9072C54.7402 14.7842 55.1123 14.6172 55.4521 14.4062C55.7393 14.2363 56.0059 14.0547 56.252 13.8613C56.498 13.668 56.7002 13.501 56.8584 13.3604H57.21V16.4893C56.8818 16.6357 56.5684 16.7734 56.2695 16.9023C55.9707 17.0312 55.6572 17.1426 55.3291 17.2363C54.9014 17.3594 54.5 17.4531 54.125 17.5176C53.75 17.582 53.2344 17.6143 52.5781 17.6143Z" fill="#FBF448"/>
<path d="M39.7344 17.6143C38.7617 17.6143 37.8623 17.4707 37.0361 17.1836C36.2158 16.8965 35.5098 16.4688 34.918 15.9004C34.3262 15.332 33.8662 14.623 33.5381 13.7734C33.2158 12.9238 33.0547 11.9424 33.0547 10.8291C33.0547 9.79199 33.21 8.85156 33.5205 8.00781C33.8311 7.16406 34.2822 6.44043 34.874 5.83691C35.4424 5.25684 36.1455 4.80859 36.9834 4.49219C37.8271 4.17578 38.7471 4.01758 39.7432 4.01758C40.2939 4.01758 40.7891 4.0498 41.2285 4.11426C41.6738 4.17285 42.084 4.25195 42.459 4.35156C42.8516 4.46289 43.2061 4.58887 43.5225 4.72949C43.8447 4.86426 44.126 4.99023 44.3662 5.10742V8.28027H43.9795C43.8154 8.13965 43.6074 7.97266 43.3555 7.7793C43.1094 7.58594 42.8281 7.39551 42.5117 7.20801C42.1895 7.02051 41.8408 6.8623 41.4658 6.7334C41.0908 6.60449 40.6895 6.54004 40.2617 6.54004C39.7871 6.54004 39.3359 6.61621 38.9082 6.76855C38.4805 6.91504 38.085 7.16113 37.7217 7.50684C37.376 7.84082 37.0947 8.2832 36.8779 8.83398C36.667 9.38477 36.5615 10.0527 36.5615 10.8379C36.5615 11.6582 36.6758 12.3438 36.9043 12.8945C37.1387 13.4453 37.4316 13.8789 37.7832 14.1953C38.1406 14.5176 38.5391 14.749 38.9785 14.8896C39.418 15.0244 39.8516 15.0918 40.2793 15.0918C40.6895 15.0918 41.0938 15.0303 41.4922 14.9072C41.8965 14.7842 42.2686 14.6172 42.6084 14.4062C42.8955 14.2363 43.1621 14.0547 43.4082 13.8613C43.6543 13.668 43.8564 13.501 44.0146 13.3604H44.3662V16.4893C44.0381 16.6357 43.7246 16.7734 43.4258 16.9023C43.127 17.0312 42.8135 17.1426 42.4854 17.2363C42.0576 17.3594 41.6562 17.4531 41.2812 17.5176C40.9062 17.582 40.3906 17.6143 39.7344 17.6143Z" fill="#FBF448"/>
<path d="M32.1152 17.3594H28.626L27.7207 14.7139H22.8691L21.9639 17.3594H18.5625L23.3965 4.27246H27.2812L32.1152 17.3594ZM26.9033 12.3145L25.2949 7.62109L23.6865 12.3145H26.9033Z" fill="#FBF448"/>
<path d="M17.8018 8.40332C17.8018 8.98926 17.6992 9.56348 17.4941 10.126C17.2891 10.6826 16.9961 11.1514 16.6152 11.5322C16.0938 12.0479 15.5107 12.4375 14.8662 12.7012C14.2275 12.9648 13.4307 13.0967 12.4756 13.0967H10.375V17.3594H7V4.27246H12.5547C13.3867 4.27246 14.0869 4.3457 14.6553 4.49219C15.2295 4.63281 15.7363 4.84668 16.1758 5.13379C16.7031 5.47949 17.1045 5.92188 17.3799 6.46094C17.6611 7 17.8018 7.64746 17.8018 8.40332ZM14.3125 8.48242C14.3125 8.11328 14.2129 7.79688 14.0137 7.5332C13.8145 7.26367 13.583 7.07617 13.3193 6.9707C12.9678 6.83008 12.625 6.75391 12.291 6.74219C11.957 6.72461 11.5117 6.71582 10.9551 6.71582H10.375V10.6357H11.3418C11.916 10.6357 12.3877 10.6006 12.7568 10.5303C13.1318 10.46 13.4453 10.3193 13.6973 10.1084C13.9141 9.9209 14.0693 9.69824 14.1631 9.44043C14.2627 9.17676 14.3125 8.85742 14.3125 8.48242Z" fill="#FBF448"/>
</svg>
