<svg width="802" height="519" viewBox="0 0 802 519" fill="none" xmlns="http://www.w3.org/2000/svg">
<mask id="path-1-outside-1_2164_55798" maskUnits="userSpaceOnUse" x="45" y="6" width="711" height="511" fill="black">
<rect fill="white" x="45" y="6" width="711" height="511"/>
<path d="M56.9954 323.002L205.854 27.9669H234.017V323.002H263.52V392.738H234.017V496H170.986V392.738H56.9954V323.002ZM79.7936 323.002H170.986V141.958L79.7936 323.002ZM503.933 262.654C503.933 285.899 502.592 308.25 499.91 329.707C497.675 351.165 494.322 372.398 489.852 393.408C487.17 405.478 484.04 416.653 480.464 426.935C476.888 437.216 472.865 446.157 468.395 453.756C463.924 461.803 459.231 468.955 454.313 475.213C449.396 481.472 443.808 487.283 437.55 492.647C431.739 497.118 425.704 500.247 419.446 502.035C413.187 504.27 406.705 505.387 400 505.387C392.401 505.387 385.025 504.046 377.872 501.364C371.167 498.682 364.685 494.212 358.427 487.954C352.169 482.142 346.357 475.213 340.993 467.167C335.629 459.121 330.488 449.957 325.571 439.675C321.995 431.182 318.642 421.794 315.513 411.513C312.831 401.231 310.148 389.609 307.466 376.645C303.89 359.211 301.208 341.554 299.42 323.673C297.632 305.345 296.738 286.57 296.738 267.348C296.738 241.867 297.855 217.728 300.09 194.93C302.326 171.685 306.125 149.11 311.489 127.206C315.513 109.772 320.43 94.3498 326.241 80.9391C332.5 67.5284 339.652 56.1294 347.698 46.7419C356.639 36.9074 365.132 29.755 373.179 25.2848C381.672 20.8146 390.613 18.5794 400 18.5794C409.835 18.5794 418.775 20.8146 426.821 25.2848C435.315 29.755 443.808 36.9074 452.302 46.7419C460.348 55.6823 467.277 66.4109 473.088 78.9275C478.9 91.4442 483.817 105.525 487.84 121.171C493.204 142.628 497.228 165.203 499.91 188.895C502.592 212.14 503.933 236.727 503.933 262.654ZM430.845 261.313C431.292 220.187 431.292 187.778 430.845 164.085C430.845 139.946 430.621 124.747 430.174 118.489C429.28 101.949 427.939 88.315 426.151 77.5865C424.81 66.4109 422.575 58.141 419.446 52.7767C417.21 49.2005 414.305 46.7419 410.729 45.4008C407.599 43.6127 403.8 42.7186 399.329 42.7186C396.2 42.7186 393.295 43.3892 390.613 44.7303C387.93 46.0713 385.248 47.8594 382.566 50.0946C379.884 54.1178 377.649 59.7055 375.861 66.8579C374.073 74.0103 372.732 82.7272 371.838 93.0088C370.944 103.29 370.049 126.088 369.155 161.403C368.708 196.718 368.485 244.997 368.485 306.239C368.485 339.765 368.932 367.481 369.826 389.385C370.72 411.289 371.838 428.053 373.179 439.675C374.073 447.274 375.19 453.98 376.531 459.791C378.319 465.602 380.331 469.849 382.566 472.531C385.248 475.66 387.93 477.896 390.613 479.237C393.742 480.131 397.094 480.578 400.671 480.578C404.694 480.578 408.27 479.684 411.399 477.896C414.528 476.107 417.21 473.425 419.446 469.849C422.575 463.591 424.81 455.321 426.151 445.039C427.939 434.758 429.28 422.912 430.174 409.501L430.845 261.313ZM537.135 323.002L685.993 27.9669H714.156V323.002H743.659V392.738H714.156V496H651.126V392.738H537.135V323.002ZM559.933 323.002H651.126V141.958L559.933 323.002Z"/>
</mask>
<path d="M56.9954 323.002L205.854 27.9669H234.017V323.002H263.52V392.738H234.017V496H170.986V392.738H56.9954V323.002ZM79.7936 323.002H170.986V141.958L79.7936 323.002ZM503.933 262.654C503.933 285.899 502.592 308.25 499.91 329.707C497.675 351.165 494.322 372.398 489.852 393.408C487.17 405.478 484.04 416.653 480.464 426.935C476.888 437.216 472.865 446.157 468.395 453.756C463.924 461.803 459.231 468.955 454.313 475.213C449.396 481.472 443.808 487.283 437.55 492.647C431.739 497.118 425.704 500.247 419.446 502.035C413.187 504.27 406.705 505.387 400 505.387C392.401 505.387 385.025 504.046 377.872 501.364C371.167 498.682 364.685 494.212 358.427 487.954C352.169 482.142 346.357 475.213 340.993 467.167C335.629 459.121 330.488 449.957 325.571 439.675C321.995 431.182 318.642 421.794 315.513 411.513C312.831 401.231 310.148 389.609 307.466 376.645C303.89 359.211 301.208 341.554 299.42 323.673C297.632 305.345 296.738 286.57 296.738 267.348C296.738 241.867 297.855 217.728 300.09 194.93C302.326 171.685 306.125 149.11 311.489 127.206C315.513 109.772 320.43 94.3498 326.241 80.9391C332.5 67.5284 339.652 56.1294 347.698 46.7419C356.639 36.9074 365.132 29.755 373.179 25.2848C381.672 20.8146 390.613 18.5794 400 18.5794C409.835 18.5794 418.775 20.8146 426.821 25.2848C435.315 29.755 443.808 36.9074 452.302 46.7419C460.348 55.6823 467.277 66.4109 473.088 78.9275C478.9 91.4442 483.817 105.525 487.84 121.171C493.204 142.628 497.228 165.203 499.91 188.895C502.592 212.14 503.933 236.727 503.933 262.654ZM430.845 261.313C431.292 220.187 431.292 187.778 430.845 164.085C430.845 139.946 430.621 124.747 430.174 118.489C429.28 101.949 427.939 88.315 426.151 77.5865C424.81 66.4109 422.575 58.141 419.446 52.7767C417.21 49.2005 414.305 46.7419 410.729 45.4008C407.599 43.6127 403.8 42.7186 399.329 42.7186C396.2 42.7186 393.295 43.3892 390.613 44.7303C387.93 46.0713 385.248 47.8594 382.566 50.0946C379.884 54.1178 377.649 59.7055 375.861 66.8579C374.073 74.0103 372.732 82.7272 371.838 93.0088C370.944 103.29 370.049 126.088 369.155 161.403C368.708 196.718 368.485 244.997 368.485 306.239C368.485 339.765 368.932 367.481 369.826 389.385C370.72 411.289 371.838 428.053 373.179 439.675C374.073 447.274 375.19 453.98 376.531 459.791C378.319 465.602 380.331 469.849 382.566 472.531C385.248 475.66 387.93 477.896 390.613 479.237C393.742 480.131 397.094 480.578 400.671 480.578C404.694 480.578 408.27 479.684 411.399 477.896C414.528 476.107 417.21 473.425 419.446 469.849C422.575 463.591 424.81 455.321 426.151 445.039C427.939 434.758 429.28 422.912 430.174 409.501L430.845 261.313ZM537.135 323.002L685.993 27.9669H714.156V323.002H743.659V392.738H714.156V496H651.126V392.738H537.135V323.002ZM559.933 323.002H651.126V141.958L559.933 323.002Z" fill="#FBF448"/>
<path d="M56.9954 323.002L46.6328 317.774L45.3885 320.24V323.002H56.9954ZM205.854 27.9669V16.36H198.71L195.491 22.7385L205.854 27.9669ZM234.017 27.9669H245.623V16.36H234.017V27.9669ZM234.017 323.002H222.41V334.609H234.017V323.002ZM263.52 323.002H275.127V311.395H263.52V323.002ZM263.52 392.738V404.345H275.127V392.738H263.52ZM234.017 392.738V381.131H222.41V392.738H234.017ZM234.017 496V507.607H245.623V496H234.017ZM170.986 496H159.379V507.607H170.986V496ZM170.986 392.738H182.593V381.131H170.986V392.738ZM56.9954 392.738H45.3885V404.345H56.9954V392.738ZM79.7936 323.002L69.4275 317.781L60.951 334.609H79.7936V323.002ZM170.986 323.002V334.609H182.593V323.002H170.986ZM170.986 141.958H182.593L160.62 136.736L170.986 141.958ZM67.358 328.231L216.217 33.1953L195.491 22.7385L46.6328 317.774L67.358 328.231ZM205.854 39.5738H234.017V16.36H205.854V39.5738ZM222.41 27.9669V323.002H245.623V27.9669H222.41ZM234.017 334.609H263.52V311.395H234.017V334.609ZM251.913 323.002V392.738H275.127V323.002H251.913ZM263.52 381.131H234.017V404.345H263.52V381.131ZM222.41 392.738V496H245.623V392.738H222.41ZM234.017 484.393H170.986V507.607H234.017V484.393ZM182.593 496V392.738H159.379V496H182.593ZM170.986 381.131H56.9954V404.345H170.986V381.131ZM68.6023 392.738V323.002H45.3885V392.738H68.6023ZM79.7936 334.609H170.986V311.395H79.7936V334.609ZM182.593 323.002V141.958H159.379V323.002H182.593ZM160.62 136.736L69.4275 317.781L90.1597 328.224L181.352 147.179L160.62 136.736ZM499.91 329.707L488.392 328.268L488.378 328.386L488.365 328.505L499.91 329.707ZM489.852 393.408L501.182 395.926L501.194 395.875L501.204 395.824L489.852 393.408ZM480.464 426.935L491.427 430.748L491.427 430.748L480.464 426.935ZM468.395 453.756L458.39 447.871L458.318 447.995L458.248 448.12L468.395 453.756ZM454.313 475.213L445.187 468.042L454.313 475.213ZM437.55 492.647L444.627 501.847L444.87 501.66L445.104 501.46L437.55 492.647ZM419.446 502.035L416.257 490.875L415.896 490.978L415.542 491.104L419.446 502.035ZM377.872 501.364L373.562 512.141L373.679 512.188L373.797 512.232L377.872 501.364ZM358.427 487.954L366.634 479.746L366.482 479.594L366.325 479.448L358.427 487.954ZM340.993 467.167L331.335 473.605L331.335 473.605L340.993 467.167ZM325.571 439.675L314.873 444.179L314.981 444.434L315.1 444.683L325.571 439.675ZM315.513 411.513L304.282 414.442L304.341 414.669L304.409 414.892L315.513 411.513ZM307.466 376.645L296.096 378.977L296.098 378.987L296.1 378.996L307.466 376.645ZM299.42 323.673L287.868 324.8L287.869 324.814L287.871 324.828L299.42 323.673ZM300.09 194.93L311.642 196.062L311.643 196.052L311.644 196.041L300.09 194.93ZM311.489 127.206L322.763 129.967L322.782 129.892L322.799 129.816L311.489 127.206ZM326.241 80.9391L315.723 76.0308L315.655 76.1765L315.591 76.3241L326.241 80.9391ZM347.698 46.7419L339.11 38.9342L338.996 39.0596L338.886 39.1882L347.698 46.7419ZM373.179 25.2848L367.773 15.0136L367.657 15.0748L367.542 15.1385L373.179 25.2848ZM426.821 25.2848L421.185 35.431L421.299 35.4948L421.416 35.5559L426.821 25.2848ZM452.302 46.7419L443.517 54.3284L443.595 54.4182L443.674 54.5065L452.302 46.7419ZM487.84 121.171L499.1 118.356L499.091 118.318L499.081 118.281L487.84 121.171ZM499.91 188.895L488.376 190.201L488.378 190.213L488.379 190.226L499.91 188.895ZM430.845 261.313L419.238 261.187L419.238 261.224L419.238 261.26L430.845 261.313ZM430.845 164.085H419.238V164.195L419.24 164.304L430.845 164.085ZM430.174 118.489L418.584 119.116L418.59 119.216L418.597 119.316L430.174 118.489ZM426.151 77.5865L414.627 78.9694L414.658 79.2329L414.702 79.4946L426.151 77.5865ZM419.446 52.7767L429.471 46.9283L429.382 46.7753L429.288 46.6251L419.446 52.7767ZM410.729 45.4008L404.97 55.4784L405.78 55.9412L406.653 56.2687L410.729 45.4008ZM382.566 50.0946L375.136 41.1779L373.842 42.2556L372.909 43.6562L382.566 50.0946ZM375.861 66.8579L364.6 64.0428L364.6 64.0428L375.861 66.8579ZM369.155 161.403L357.552 161.11L357.55 161.183L357.549 161.256L369.155 161.403ZM369.826 389.385L381.423 388.912L369.826 389.385ZM373.179 439.675L361.648 441.006L361.65 441.018L361.651 441.031L373.179 439.675ZM376.531 459.791L365.222 462.401L365.315 462.807L365.438 463.205L376.531 459.791ZM382.566 472.531L373.649 479.962L373.701 480.024L373.754 480.085L382.566 472.531ZM390.613 479.237L385.422 489.618L386.387 490.101L387.424 490.397L390.613 479.237ZM411.399 477.896L417.158 487.973L417.158 487.973L411.399 477.896ZM419.446 469.849L429.288 476.001L429.58 475.533L429.827 475.04L419.446 469.849ZM426.151 445.039L414.716 443.051L414.673 443.294L414.641 443.538L426.151 445.039ZM430.174 409.501L441.755 410.273L441.779 409.914L441.781 409.554L430.174 409.501ZM492.326 262.654C492.326 285.453 491.011 307.322 488.392 328.268L511.427 331.147C514.173 309.178 515.54 286.345 515.54 262.654H492.326ZM488.365 328.505C486.172 349.556 482.883 370.385 478.499 390.993L501.204 395.824C505.76 374.411 509.177 352.773 511.454 330.91L488.365 328.505ZM478.521 390.89C475.924 402.579 472.912 413.317 469.501 423.122L491.427 430.748C495.169 419.99 498.415 408.377 501.182 395.926L478.521 390.89ZM469.502 423.122C466.12 432.843 462.396 441.061 458.39 447.871L478.399 459.641C483.333 451.253 487.656 441.59 491.427 430.748L469.502 423.122ZM458.248 448.12C454.032 455.71 449.671 462.336 445.187 468.042L463.44 482.384C468.791 475.575 473.817 467.896 478.541 459.393L458.248 448.12ZM445.187 468.042C440.755 473.683 435.698 478.947 429.996 483.835L445.104 501.46C451.918 495.619 458.037 489.261 463.44 482.384L445.187 468.042ZM430.473 483.447C425.677 487.137 420.94 489.536 416.257 490.875L422.634 513.195C430.468 510.957 437.801 507.098 444.627 501.847L430.473 483.447ZM415.542 491.104C410.548 492.888 405.387 493.781 400 493.781V516.994C408.024 516.994 415.827 515.652 423.349 512.966L415.542 491.104ZM400 493.781C393.8 493.781 387.804 492.692 381.948 490.496L373.797 512.232C382.246 515.4 391.001 516.994 400 516.994V493.781ZM382.183 490.588C377.227 488.605 372.025 485.137 366.634 479.746L350.22 496.161C357.345 503.287 365.107 508.759 373.562 512.141L382.183 490.588ZM366.325 479.448C360.813 474.33 355.576 468.117 350.651 460.729L331.335 473.605C337.138 482.31 343.524 489.955 350.529 496.459L366.325 479.448ZM350.651 460.729C345.639 453.211 340.763 444.538 336.042 434.667L315.1 444.683C320.213 455.375 325.618 465.03 331.335 473.605L350.651 460.729ZM336.268 435.171C332.87 427.1 329.648 418.094 326.617 408.133L304.409 414.892C307.635 425.494 311.12 435.264 314.873 444.179L336.268 435.171ZM326.744 408.583C324.122 398.533 321.484 387.108 318.832 374.293L296.1 378.996C298.813 392.109 301.539 403.93 304.282 414.442L326.744 408.583ZM318.836 374.313C315.341 357.272 312.718 340.007 310.969 322.518L287.871 324.828C289.698 343.1 292.439 361.15 296.096 378.977L318.836 374.313ZM310.972 322.546C309.222 304.608 308.345 286.21 308.345 267.348H285.131C285.131 286.93 286.042 306.081 287.868 324.8L310.972 322.546ZM308.345 267.348C308.345 242.204 309.448 218.445 311.642 196.062L288.539 193.797C286.263 217.011 285.131 241.531 285.131 267.348H308.345ZM311.644 196.041C313.828 173.332 317.536 151.31 322.763 129.967L300.216 124.445C294.714 146.911 290.823 170.038 288.537 193.819L311.644 196.041ZM322.799 129.816C326.698 112.923 331.414 98.1933 336.891 85.5541L315.591 76.3241C309.446 90.5064 304.328 106.622 300.18 124.596L322.799 129.816ZM336.759 85.8475C342.656 73.2105 349.27 62.7438 356.511 54.2956L338.886 39.1882C330.034 49.5149 322.343 61.8464 315.723 76.0308L336.759 85.8475ZM356.287 54.5495C364.721 45.2722 372.246 39.0809 378.815 35.431L367.542 15.1385C358.019 20.4291 348.557 28.5426 339.11 38.9342L356.287 54.5495ZM378.585 35.5559C385.45 31.9426 392.54 30.1863 400 30.1863V6.97254C388.685 6.97254 377.894 9.68655 367.773 15.0136L378.585 35.5559ZM400 30.1863C408.001 30.1863 414.98 31.9842 421.185 35.431L432.458 15.1385C422.57 9.64491 411.668 6.97254 400 6.97254V30.1863ZM421.416 35.5559C428.258 39.1574 435.658 45.2277 443.517 54.3284L461.086 39.1554C451.959 28.587 442.371 20.3526 432.227 15.0136L421.416 35.5559ZM443.674 54.5065C450.844 62.4722 457.166 72.1956 462.561 83.8153L483.616 74.0397C477.388 60.6261 469.853 48.8924 460.929 38.9773L443.674 54.5065ZM462.561 83.8153C468.028 95.5917 472.723 108.989 476.599 124.062L499.081 118.281C494.911 102.062 489.771 87.2966 483.616 74.0397L462.561 83.8153ZM476.58 123.986C481.811 144.91 485.747 166.978 488.376 190.201L511.443 187.59C508.708 163.428 504.598 140.347 499.1 118.356L476.58 123.986ZM488.379 190.226C491.005 212.985 492.326 237.124 492.326 262.654H515.54C515.54 236.329 514.178 211.296 511.44 187.565L488.379 190.226ZM442.451 261.439C442.898 220.268 442.9 187.727 442.449 163.866L419.24 164.304C419.684 187.828 419.685 220.105 419.238 261.187L442.451 261.439ZM442.452 164.085C442.452 140.09 442.234 124.424 441.751 117.662L418.597 119.316C419.008 125.071 419.238 139.802 419.238 164.085H442.452ZM441.764 117.863C440.857 101.09 439.485 86.9892 437.6 75.6783L414.702 79.4946C416.393 89.6409 417.703 102.808 418.584 119.116L441.764 117.863ZM437.675 76.2036C436.274 64.5257 433.807 54.361 429.471 46.9283L409.42 58.6251C411.342 61.9209 413.346 68.2961 414.627 78.9694L437.675 76.2036ZM429.288 46.6251C425.85 41.124 421.019 36.8635 414.804 34.5329L406.653 56.2687C407.591 56.6202 408.571 57.2771 409.603 58.9283L429.288 46.6251ZM416.487 35.3232C411.23 32.3188 405.339 31.1118 399.329 31.1118V54.3255C402.26 54.3255 403.969 54.9066 404.97 55.4784L416.487 35.3232ZM399.329 31.1118C394.479 31.1118 389.786 32.1665 385.422 34.3488L395.803 55.1118C396.803 54.6119 397.922 54.3255 399.329 54.3255V31.1118ZM385.422 34.3488C381.821 36.1492 378.396 38.461 375.136 41.1779L389.997 59.0112C392.101 57.2579 394.04 55.9935 395.803 55.1118L385.422 34.3488ZM372.909 43.6562C369.208 49.2077 366.56 56.2049 364.6 64.0428L387.121 69.673C388.738 63.2062 390.56 59.0278 392.224 56.5329L372.909 43.6562ZM364.6 64.0428C362.618 71.9718 361.202 81.3328 360.274 92.0033L383.401 94.0143C384.261 84.1217 385.527 76.0487 387.121 69.673L364.6 64.0428ZM360.274 92.0033C359.343 102.71 358.444 125.889 357.552 161.11L380.759 161.697C381.655 126.288 382.544 103.871 383.401 94.0143L360.274 92.0033ZM357.549 161.256C357.102 196.643 356.878 244.977 356.878 306.239H380.092C380.092 245.016 380.315 196.793 380.761 161.55L357.549 161.256ZM356.878 306.239C356.878 339.85 357.326 367.737 358.229 389.858L381.423 388.912C380.538 367.224 380.092 339.681 380.092 306.239H356.878ZM358.229 389.858C359.126 411.848 360.257 428.951 361.648 441.006L384.709 438.345C383.418 427.154 382.314 410.73 381.423 388.912L358.229 389.858ZM361.651 441.031C362.582 448.941 363.763 456.08 365.222 462.401L387.841 457.181C386.618 451.88 385.564 445.608 384.706 438.319L361.651 441.031ZM365.438 463.205C367.392 469.557 369.956 475.53 373.649 479.962L391.483 465.101C390.706 464.169 389.246 461.647 387.625 456.378L365.438 463.205ZM373.754 480.085C377.09 483.977 380.942 487.378 385.422 489.618L395.803 468.855C394.919 468.413 393.407 467.344 391.379 464.978L373.754 480.085ZM387.424 490.397C391.687 491.615 396.121 492.185 400.671 492.185V468.971C398.067 468.971 395.797 468.646 393.801 468.076L387.424 490.397ZM400.671 492.185C406.474 492.185 412.077 490.876 417.158 487.973L405.64 467.818C404.462 468.491 402.914 468.971 400.671 468.971V492.185ZM417.158 487.973C422.214 485.084 426.21 480.925 429.288 476.001L409.603 463.698C408.211 465.925 406.842 467.131 405.64 467.818L417.158 487.973ZM429.827 475.04C433.743 467.209 436.225 457.548 437.66 446.541L414.641 443.538C413.395 453.094 411.407 459.973 409.064 464.658L429.827 475.04ZM437.586 447.028C439.461 436.249 440.841 423.982 441.755 410.273L418.593 408.729C417.719 421.841 416.417 433.267 414.716 443.051L437.586 447.028ZM441.781 409.554L442.451 261.365L419.238 261.26L418.567 409.449L441.781 409.554ZM537.135 323.002L526.772 317.774L525.528 320.24V323.002H537.135ZM685.993 27.9669V16.36H678.849L675.631 22.7385L685.993 27.9669ZM714.156 27.9669H725.763V16.36H714.156V27.9669ZM714.156 323.002H702.549V334.609H714.156V323.002ZM743.659 323.002H755.266V311.395H743.659V323.002ZM743.659 392.738V404.345H755.266V392.738H743.659ZM714.156 392.738V381.131H702.549V392.738H714.156ZM714.156 496V507.607H725.763V496H714.156ZM651.126 496H639.519V507.607H651.126V496ZM651.126 392.738H662.733V381.131H651.126V392.738ZM537.135 392.738H525.528V404.345H537.135V392.738ZM559.933 323.002L549.567 317.781L541.09 334.609H559.933V323.002ZM651.126 323.002V334.609H662.733V323.002H651.126ZM651.126 141.958H662.733L640.76 136.736L651.126 141.958ZM547.497 328.231L696.356 33.1953L675.631 22.7385L526.772 317.774L547.497 328.231ZM685.993 39.5738H714.156V16.36H685.993V39.5738ZM702.549 27.9669V323.002H725.763V27.9669H702.549ZM714.156 334.609H743.659V311.395H714.156V334.609ZM732.053 323.002V392.738H755.266V323.002H732.053ZM743.659 381.131H714.156V404.345H743.659V381.131ZM702.549 392.738V496H725.763V392.738H702.549ZM714.156 484.393H651.126V507.607H714.156V484.393ZM662.733 496V392.738H639.519V496H662.733ZM651.126 381.131H537.135V404.345H651.126V381.131ZM548.742 392.738V323.002H525.528V392.738H548.742ZM559.933 334.609H651.126V311.395H559.933V334.609ZM662.733 323.002V141.958H639.519V323.002H662.733ZM640.76 136.736L549.567 317.781L570.299 328.224L661.492 147.179L640.76 136.736Z" fill="black" mask="url(#path-1-outside-1_2164_55798)"/>
</svg>
