<svg width="76" height="22" viewBox="0 0 76 22" fill="none" xmlns="http://www.w3.org/2000/svg">
<path d="M61.6528 13.8037L61.6528 13.8037L61.6474 13.8054C61.4703 13.862 61.2447 13.8984 60.959 13.8984H59.832V12.5674H60.959C61.399 12.5674 61.6542 12.6121 61.7793 12.6547C61.9401 12.7094 62.0124 12.7629 62.0396 12.7881C62.0626 12.8129 62.0744 12.8308 62.0801 12.8407C62.0861 12.851 62.0873 12.8561 62.0877 12.8577C62.1143 12.9673 62.1299 13.0928 62.1299 13.2373C62.1299 13.353 62.1094 13.4334 62.0831 13.4928L62.0775 13.5059C62.0538 13.5617 62.0216 13.6071 61.9733 13.6501L61.9583 13.6637C61.9467 13.6745 61.8693 13.7357 61.6528 13.8037ZM65.8826 16.9968L65.8842 16.9956C66.2762 16.6797 66.6033 16.3036 66.8672 15.8749V17.3418C66.8672 17.8941 67.3149 18.3418 67.8672 18.3418H71.2422C71.7945 18.3418 72.2422 17.8941 72.2422 17.3418V4.25488C72.2422 3.7026 71.7945 3.25488 71.2422 3.25488H67.8672C67.3149 3.25488 66.8672 3.7026 66.8672 4.25488V10.2794C66.622 9.89524 66.3135 9.55696 65.9443 9.26879C65.3756 8.82046 64.7225 8.51917 64.0009 8.35959C63.3198 8.20203 62.4943 8.13281 61.5479 8.13281H59.832V4.25488C59.832 3.7026 59.3843 3.25488 58.832 3.25488H55.457C54.9047 3.25488 54.457 3.7026 54.457 4.25488V17.3418C54.457 17.8941 54.9047 18.3418 55.457 18.3418H61.4951C62.374 18.3418 63.1662 18.2577 63.8525 18.0686L63.8525 18.0686L63.8591 18.0667C64.5842 17.8617 65.2588 17.4972 65.8826 16.9968Z" fill="#FBF448" stroke="black" stroke-width="2" stroke-linejoin="round"/>
<path d="M53.6074 7.78613C54.1597 7.78613 54.6074 7.33842 54.6074 6.78613V4.25488C54.6074 3.7026 54.1597 3.25488 53.6074 3.25488H42.0586C41.5063 3.25488 41.0586 3.7026 41.0586 4.25488V6.78613C41.0586 7.33842 41.5063 7.78613 42.0586 7.78613H45.1455V17.3418C45.1455 17.8941 45.5932 18.3418 46.1455 18.3418H49.5205C50.0728 18.3418 50.5205 17.8941 50.5205 17.3418V7.78613H53.6074Z" fill="#FBF448" stroke="black" stroke-width="2" stroke-linejoin="round"/>
<path d="M33.411 18.1106L33.4089 18.1099C32.4614 17.7783 31.6297 17.2776 30.9284 16.6041C30.22 15.9237 29.6833 15.087 29.3084 14.1161L29.3062 14.1105L29.3062 14.1105C28.9325 13.1253 28.7578 12.0196 28.7578 10.8115C28.7578 9.67437 28.9282 8.61476 29.2852 7.64483C29.6414 6.67703 30.1659 5.83032 30.8629 5.11948L33.411 18.1106ZM33.411 18.1106C34.3539 18.4383 35.3655 18.5967 36.4375 18.5967C37.1161 18.5967 37.6969 18.5641 38.1538 18.4855C38.57 18.414 39.0071 18.3115 39.4639 18.1801C39.8311 18.0751 40.185 17.9496 40.525 17.803C40.8281 17.6722 41.1454 17.5328 41.477 17.3848C41.8373 17.224 42.0693 16.8663 42.0693 16.4717V13.3428C42.0693 12.7905 41.6216 12.3428 41.0693 12.3428H40.7178C40.4729 12.3428 40.2365 12.4327 40.0534 12.5954C39.9156 12.7179 39.7304 12.8713 39.4935 13.0574C39.2841 13.222 39.054 13.3791 38.8022 13.5281L38.7842 13.539C38.5221 13.7017 38.2301 13.8338 37.9042 13.933L37.9041 13.933L37.9002 13.9342C37.5958 14.0282 37.2909 14.0742 36.9824 14.0742C36.663 14.0742 36.3302 14.0244 35.9809 13.9179C35.6845 13.8222 35.4111 13.6651 35.156 13.435L35.1553 13.4344C34.9376 13.2385 34.7209 12.9385 34.5294 12.4897C34.3674 12.0971 34.2646 11.5528 34.2646 10.8203C34.2646 10.1217 34.3589 9.58347 34.5133 9.17823C34.6885 8.73467 34.8969 8.42452 35.117 8.21099C35.3864 7.95524 35.6591 7.79162 35.9353 7.69704L35.9353 7.69711L35.9468 7.69301C36.2621 7.58074 36.5993 7.52246 36.9648 7.52246C37.2907 7.52246 37.5814 7.57129 37.8439 7.66151C38.1596 7.77004 38.4471 7.90101 38.7086 8.0528C38.9922 8.22106 39.2352 8.38652 39.4408 8.54804L39.4407 8.54809L39.4498 8.55503C39.6934 8.74199 39.8862 8.89709 40.0318 9.02195C40.2131 9.1773 40.4439 9.2627 40.6826 9.2627H41.0693C41.6216 9.2627 42.0693 8.81498 42.0693 8.2627V5.08984C42.0693 4.70754 41.8514 4.35869 41.5078 4.19108C41.2485 4.06461 40.9523 3.93207 40.6213 3.79349C40.2577 3.63256 39.8612 3.4928 39.4349 3.37192L39.4188 3.3675C38.9986 3.25587 38.5481 3.16944 38.0693 3.10618C37.5741 3.03399 37.0317 3 36.4463 3C35.3429 3 34.3027 3.17556 33.3354 3.53828L33.3354 3.53828M33.411 18.1106L33.3354 3.53828M33.3354 3.53828L33.3333 3.53909M33.3354 3.53828L33.3333 3.53909M33.3333 3.53909C32.3736 3.90148 31.5433 4.42512 30.8631 5.1192L33.3333 3.53909Z" fill="#FBF448" stroke="black" stroke-width="2" stroke-linejoin="round"/>
<path d="M27.8643 18.3418C28.4165 18.3418 28.8643 17.8941 28.8643 17.3418V14.8105C28.8643 14.2583 28.4165 13.8105 27.8643 13.8105H22.7559V12.5762H27.4248C27.9771 12.5762 28.4248 12.1285 28.4248 11.5762V9.04492C28.4248 8.49264 27.9771 8.04492 27.4248 8.04492H22.7559V7.78613H27.8643C28.4165 7.78613 28.8643 7.33842 28.8643 6.78613V4.25488C28.8643 3.7026 28.4165 3.25488 27.8643 3.25488H18.3984C17.8462 3.25488 17.3984 3.7026 17.3984 4.25488V17.3418C17.3984 17.8941 17.8462 18.3418 18.3984 18.3418H27.8643Z" fill="#FBF448" stroke="black" stroke-width="2" stroke-linejoin="round"/>
<path d="M16.5488 7.78613C17.1011 7.78613 17.5488 7.33842 17.5488 6.78613V4.25488C17.5488 3.7026 17.1011 3.25488 16.5488 3.25488H5C4.44772 3.25488 4 3.7026 4 4.25488V6.78613C4 7.33842 4.44772 7.78613 5 7.78613H8.08691V17.3418C8.08691 17.8941 8.53463 18.3418 9.08691 18.3418H12.4619C13.0142 18.3418 13.4619 17.8941 13.4619 17.3418V7.78613H16.5488Z" fill="#FBF448" stroke="black" stroke-width="2" stroke-linejoin="round"/>
<path d="M61.6528 14.0593L61.6528 14.0593L61.6474 14.061C61.4703 14.1177 61.2447 14.1541 60.959 14.1541H59.832V12.823H60.959C61.399 12.823 61.6542 12.8677 61.7793 12.9103C61.9401 12.965 62.0124 13.0185 62.0396 13.0437C62.0626 13.0685 62.0744 13.0864 62.0801 13.0963C62.0861 13.1066 62.0873 13.1117 62.0877 13.1133C62.1143 13.223 62.1299 13.3485 62.1299 13.4929C62.1299 13.6086 62.1094 13.689 62.0831 13.7485L62.0775 13.7615C62.0538 13.8173 62.0216 13.8627 61.9733 13.9057L61.9583 13.9193C61.9467 13.9301 61.8693 13.9914 61.6528 14.0593ZM65.8826 17.2524L65.8842 17.2512C66.2762 16.9353 66.6033 16.5592 66.8672 16.1306V17.5974C66.8672 18.1497 67.3149 18.5974 67.8672 18.5974H71.2422C71.7945 18.5974 72.2422 18.1497 72.2422 17.5974V4.5105C72.2422 3.95821 71.7945 3.5105 71.2422 3.5105H67.8672C67.3149 3.5105 66.8672 3.95821 66.8672 4.5105V10.535C66.622 10.1509 66.3135 9.81257 65.9443 9.5244C65.3756 9.07607 64.7225 8.77479 64.0009 8.61521C63.3198 8.45764 62.4943 8.38843 61.5479 8.38843H59.832V4.5105C59.832 3.95821 59.3843 3.5105 58.832 3.5105H55.457C54.9047 3.5105 54.457 3.95821 54.457 4.5105V17.5974C54.457 18.1497 54.9047 18.5974 55.457 18.5974H61.4951C62.374 18.5974 63.1662 18.5133 63.8525 18.3242L63.8525 18.3242L63.8591 18.3224C64.5842 18.1173 65.2588 17.7528 65.8826 17.2524Z" fill="#FBF448" stroke="black" stroke-width="2" stroke-linejoin="round"/>
<path d="M53.6074 8.04175C54.1597 8.04175 54.6074 7.59403 54.6074 7.04175V4.5105C54.6074 3.95821 54.1597 3.5105 53.6074 3.5105H42.0586C41.5063 3.5105 41.0586 3.95821 41.0586 4.5105V7.04175C41.0586 7.59403 41.5063 8.04175 42.0586 8.04175H45.1455V17.5974C45.1455 18.1497 45.5932 18.5974 46.1455 18.5974H49.5205C50.0728 18.5974 50.5205 18.1497 50.5205 17.5974V8.04175H53.6074Z" fill="#FBF448" stroke="black" stroke-width="2" stroke-linejoin="round"/>
<path d="M33.411 18.3662L33.4089 18.3655C32.4614 18.0339 31.6297 17.5332 30.9284 16.8597C30.22 16.1793 29.6833 15.3427 29.3084 14.3717L29.3062 14.3661L29.3062 14.3661C28.9325 13.3809 28.7578 12.2752 28.7578 11.0671C28.7578 9.92998 28.9282 8.87037 29.2852 7.90045C29.6414 6.93264 30.1659 6.08594 30.8629 5.3751L33.411 18.3662ZM33.411 18.3662C34.3539 18.6939 35.3655 18.8523 36.4375 18.8523C37.1161 18.8523 37.6969 18.8197 38.1538 18.7412C38.57 18.6696 39.0071 18.5671 39.4639 18.4357C39.8311 18.3307 40.185 18.2052 40.525 18.0586C40.8281 17.9279 41.1454 17.7885 41.477 17.6404C41.8373 17.4796 42.0693 17.1219 42.0693 16.7273V13.5984C42.0693 13.0461 41.6216 12.5984 41.0693 12.5984H40.7178C40.4729 12.5984 40.2365 12.6883 40.0534 12.851C39.9156 12.9735 39.7304 13.1269 39.4935 13.313C39.2841 13.4776 39.054 13.6347 38.8022 13.7837L38.7842 13.7946C38.5221 13.9573 38.2301 14.0894 37.9042 14.1886L37.9041 14.1886L37.9002 14.1898C37.5958 14.2838 37.2909 14.3298 36.9824 14.3298C36.663 14.3298 36.3302 14.28 35.9809 14.1735C35.6845 14.0778 35.4111 13.9207 35.156 13.6907L35.1553 13.6901C34.9376 13.4941 34.7209 13.1941 34.5294 12.7454C34.3674 12.3528 34.2646 11.8084 34.2646 11.0759C34.2646 10.3773 34.3589 9.83908 34.5133 9.43385C34.6885 8.99029 34.8969 8.68014 35.117 8.4666C35.3864 8.21086 35.6591 8.04724 35.9353 7.95265L35.9353 7.95272L35.9468 7.94863C36.2621 7.83636 36.5993 7.77808 36.9648 7.77808C37.2907 7.77808 37.5814 7.8269 37.8439 7.91712C38.1596 8.02566 38.4471 8.15662 38.7086 8.30842C38.9922 8.47667 39.2352 8.64214 39.4408 8.80365L39.4407 8.8037L39.4498 8.81064C39.6934 8.9976 39.8862 9.15271 40.0318 9.27757C40.2131 9.43292 40.4439 9.51831 40.6826 9.51831H41.0693C41.6216 9.51831 42.0693 9.0706 42.0693 8.51831V5.34546C42.0693 4.96315 41.8514 4.6143 41.5078 4.44669C41.2485 4.32023 40.9523 4.18769 40.6213 4.04911C40.2577 3.88818 39.8612 3.74841 39.4349 3.62754L39.4188 3.62311C38.9986 3.51149 38.5481 3.42506 38.0693 3.3618C37.5741 3.2896 37.0317 3.25562 36.4463 3.25562C35.3429 3.25562 34.3027 3.43117 33.3354 3.7939L33.3354 3.79389M33.411 18.3662L33.3354 3.79389M33.3354 3.79389L33.3333 3.7947M33.3354 3.79389L33.3333 3.7947M33.3333 3.7947C32.3736 4.1571 31.5433 4.68073 30.8631 5.37481L33.3333 3.7947Z" fill="#FBF448" stroke="black" stroke-width="2" stroke-linejoin="round"/>
<path d="M27.8643 18.5974C28.4165 18.5974 28.8643 18.1497 28.8643 17.5974V15.0662C28.8643 14.5139 28.4165 14.0662 27.8643 14.0662H22.7559V12.8318H27.4248C27.9771 12.8318 28.4248 12.3841 28.4248 11.8318V9.30054C28.4248 8.74825 27.9771 8.30054 27.4248 8.30054H22.7559V8.04175H27.8643C28.4165 8.04175 28.8643 7.59403 28.8643 7.04175V4.5105C28.8643 3.95821 28.4165 3.5105 27.8643 3.5105H18.3984C17.8462 3.5105 17.3984 3.95821 17.3984 4.5105V17.5974C17.3984 18.1497 17.8462 18.5974 18.3984 18.5974H27.8643Z" fill="#FBF448" stroke="black" stroke-width="2" stroke-linejoin="round"/>
<path d="M16.5488 8.04175C17.1011 8.04175 17.5488 7.59403 17.5488 7.04175V4.5105C17.5488 3.95821 17.1011 3.5105 16.5488 3.5105H5C4.44772 3.5105 4 3.95821 4 4.5105V7.04175C4 7.59403 4.44772 8.04175 5 8.04175H8.08691V17.5974C8.08691 18.1497 8.53463 18.5974 9.08691 18.5974H12.4619C13.0142 18.5974 13.4619 18.1497 13.4619 17.5974V8.04175H16.5488Z" fill="#FBF448" stroke="black" stroke-width="2" stroke-linejoin="round"/>
<path d="M63.1299 13.2373C63.1299 13.0205 63.1064 12.8154 63.0596 12.6221C63.0127 12.4287 62.9102 12.25 62.752 12.0859C62.5938 11.9277 62.377 11.8018 62.1016 11.708C61.8262 11.6143 61.4453 11.5674 60.959 11.5674H58.832V14.8984H60.959C61.3281 14.8984 61.6592 14.8516 61.9521 14.7578C62.251 14.6641 62.4795 14.5439 62.6377 14.3975C62.7959 14.2568 62.916 14.0898 62.998 13.8965C63.0859 13.6973 63.1299 13.4775 63.1299 13.2373ZM66.6191 13.1406C66.6191 13.7793 66.4961 14.3682 66.25 14.9072C66.0098 15.4404 65.6787 15.877 65.2568 16.2168C64.7236 16.6445 64.167 16.9404 63.5869 17.1045C63.0127 17.2627 62.3154 17.3418 61.4951 17.3418H55.457V4.25488H58.832V9.13281H61.5479C62.4561 9.13281 63.2002 9.2002 63.7803 9.33496C64.3662 9.46387 64.8818 9.7041 65.3271 10.0557C65.7783 10.4072 66.1064 10.8525 66.3115 11.3916C66.5166 11.9248 66.6191 12.5078 66.6191 13.1406ZM71.2422 17.3418H67.8672V4.25488H71.2422V17.3418Z" fill="#FBF448"/>
<path d="M53.6074 6.78613H49.5205V17.3418H46.1455V6.78613H42.0586V4.25488H53.6074V6.78613Z" fill="#FBF448"/>
<path d="M36.4375 17.5967C35.4648 17.5967 34.5654 17.4531 33.7393 17.166C32.9189 16.8789 32.2129 16.4512 31.6211 15.8828C31.0293 15.3145 30.5693 14.6055 30.2412 13.7559C29.9189 12.9062 29.7578 11.9248 29.7578 10.8115C29.7578 9.77441 29.9131 8.83398 30.2236 7.99023C30.5342 7.14648 30.9854 6.42285 31.5771 5.81934C32.1455 5.23926 32.8486 4.79102 33.6865 4.47461C34.5303 4.1582 35.4502 4 36.4463 4C36.9971 4 37.4922 4.03223 37.9316 4.09668C38.377 4.15527 38.7871 4.23438 39.1621 4.33398C39.5547 4.44531 39.9092 4.57129 40.2256 4.71191C40.5479 4.84668 40.8291 4.97266 41.0693 5.08984V8.2627H40.6826C40.5186 8.12207 40.3105 7.95508 40.0586 7.76172C39.8125 7.56836 39.5312 7.37793 39.2148 7.19043C38.8926 7.00293 38.5439 6.84473 38.1689 6.71582C37.7939 6.58691 37.3926 6.52246 36.9648 6.52246C36.4902 6.52246 36.0391 6.59863 35.6113 6.75098C35.1836 6.89746 34.7881 7.14355 34.4248 7.48926C34.0791 7.82324 33.7979 8.26562 33.5811 8.81641C33.3701 9.36719 33.2646 10.0352 33.2646 10.8203C33.2646 11.6406 33.3789 12.3262 33.6074 12.877C33.8418 13.4277 34.1348 13.8613 34.4863 14.1777C34.8438 14.5 35.2422 14.7314 35.6816 14.8721C36.1211 15.0068 36.5547 15.0742 36.9824 15.0742C37.3926 15.0742 37.7969 15.0127 38.1953 14.8896C38.5996 14.7666 38.9717 14.5996 39.3115 14.3887C39.5986 14.2188 39.8652 14.0371 40.1113 13.8438C40.3574 13.6504 40.5596 13.4834 40.7178 13.3428H41.0693V16.4717C40.7412 16.6182 40.4277 16.7559 40.1289 16.8848C39.8301 17.0137 39.5166 17.125 39.1885 17.2188C38.7607 17.3418 38.3594 17.4355 37.9844 17.5C37.6094 17.5645 37.0938 17.5967 36.4375 17.5967Z" fill="#FBF448"/>
<path d="M27.8643 17.3418H18.3984V4.25488H27.8643V6.78613H21.7559V9.04492H27.4248V11.5762H21.7559V14.8105H27.8643V17.3418Z" fill="#FBF448"/>
<path d="M16.5488 6.78613H12.4619V17.3418H9.08691V6.78613H5V4.25488H16.5488V6.78613Z" fill="#FBF448"/>
<path d="M63.1299 13.4929C63.1299 13.2761 63.1064 13.071 63.0596 12.8777C63.0127 12.6843 62.9102 12.5056 62.752 12.3416C62.5938 12.1833 62.377 12.0574 62.1016 11.9636C61.8262 11.8699 61.4453 11.823 60.959 11.823H58.832V15.1541H60.959C61.3281 15.1541 61.6592 15.1072 61.9521 15.0134C62.251 14.9197 62.4795 14.7996 62.6377 14.6531C62.7959 14.5125 62.916 14.3455 62.998 14.1521C63.0859 13.9529 63.1299 13.7332 63.1299 13.4929ZM66.6191 13.3962C66.6191 14.0349 66.4961 14.6238 66.25 15.1628C66.0098 15.696 65.6787 16.1326 65.2568 16.4724C64.7236 16.9001 64.167 17.196 63.5869 17.3601C63.0127 17.5183 62.3154 17.5974 61.4951 17.5974H55.457V4.5105H58.832V9.38843H61.5479C62.4561 9.38843 63.2002 9.45581 63.7803 9.59058C64.3662 9.71948 64.8818 9.95972 65.3271 10.3113C65.7783 10.6628 66.1064 11.1082 66.3115 11.6472C66.5166 12.1804 66.6191 12.7634 66.6191 13.3962ZM71.2422 17.5974H67.8672V4.5105H71.2422V17.5974Z" fill="#FBF448"/>
<path d="M53.6074 7.04175H49.5205V17.5974H46.1455V7.04175H42.0586V4.5105H53.6074V7.04175Z" fill="#FBF448"/>
<path d="M36.4375 17.8523C35.4648 17.8523 34.5654 17.7087 33.7393 17.4216C32.9189 17.1345 32.2129 16.7068 31.6211 16.1384C31.0293 15.5701 30.5693 14.8611 30.2412 14.0115C29.9189 13.1619 29.7578 12.1804 29.7578 11.0671C29.7578 10.03 29.9131 9.0896 30.2236 8.24585C30.5342 7.4021 30.9854 6.67847 31.5771 6.07495C32.1455 5.49487 32.8486 5.04663 33.6865 4.73022C34.5303 4.41382 35.4502 4.25562 36.4463 4.25562C36.9971 4.25562 37.4922 4.28784 37.9316 4.35229C38.377 4.41089 38.7871 4.48999 39.1621 4.5896C39.5547 4.70093 39.9092 4.8269 40.2256 4.96753C40.5479 5.10229 40.8291 5.22827 41.0693 5.34546V8.51831H40.6826C40.5186 8.37769 40.3105 8.21069 40.0586 8.01733C39.8125 7.82397 39.5312 7.63354 39.2148 7.44604C38.8926 7.25854 38.5439 7.10034 38.1689 6.97144C37.7939 6.84253 37.3926 6.77808 36.9648 6.77808C36.4902 6.77808 36.0391 6.85425 35.6113 7.00659C35.1836 7.15308 34.7881 7.39917 34.4248 7.74487C34.0791 8.07886 33.7979 8.52124 33.5811 9.07202C33.3701 9.6228 33.2646 10.2908 33.2646 11.0759C33.2646 11.8962 33.3789 12.5818 33.6074 13.1326C33.8418 13.6833 34.1348 14.1169 34.4863 14.4333C34.8438 14.7556 35.2422 14.9871 35.6816 15.1277C36.1211 15.2625 36.5547 15.3298 36.9824 15.3298C37.3926 15.3298 37.7969 15.2683 38.1953 15.1453C38.5996 15.0222 38.9717 14.8552 39.3115 14.6443C39.5986 14.4744 39.8652 14.2927 40.1113 14.0994C40.3574 13.906 40.5596 13.739 40.7178 13.5984H41.0693V16.7273C40.7412 16.8738 40.4277 17.0115 40.1289 17.1404C39.8301 17.2693 39.5166 17.3806 39.1885 17.4744C38.7607 17.5974 38.3594 17.6912 37.9844 17.7556C37.6094 17.8201 37.0938 17.8523 36.4375 17.8523Z" fill="#FBF448"/>
<path d="M27.8643 17.5974H18.3984V4.5105H27.8643V7.04175H21.7559V9.30054H27.4248V11.8318H21.7559V15.0662H27.8643V17.5974Z" fill="#FBF448"/>
<path d="M16.5488 7.04175H12.4619V17.5974H9.08691V7.04175H5V4.5105H16.5488V7.04175Z" fill="#FBF448"/>
</svg>
