<svg width="380" height="218" viewBox="0 0 380 218" fill="none" xmlns="http://www.w3.org/2000/svg">
<mask id="mask0_2582_41329" style="mask-type:alpha" maskUnits="userSpaceOnUse" x="0" y="0" width="380" height="218">
<rect width="380" height="218" fill="white"/>
</mask>
<g mask="url(#mask0_2582_41329)">
<rect x="-0.595969" y="-0.357653" width="676.965" height="76.5777" transform="matrix(0.965926 -0.258819 0.226012 0.974125 -140.496 159.501)" fill="white" stroke="black"/>
</g>
<path d="M116.453 155.386L116.109 154.102L117.123 153.83C117.889 153.625 118.467 153.349 118.858 153.003C119.293 152.644 119.557 152.187 119.65 151.631C119.697 151.087 119.645 150.352 119.494 149.426C119.342 148.5 119.092 147.384 118.741 146.077L109.103 110.106L97.7436 113.149L107.382 149.121C107.793 150.653 108.192 151.875 108.581 152.785C108.97 153.695 109.354 154.317 109.733 154.65C110.055 154.951 110.466 155.13 110.965 155.19C111.509 155.237 112.142 155.165 112.863 154.971L113.81 154.718L114.154 156.002L97.3854 160.495L97.0412 159.211L98.0554 158.939C98.7316 158.758 99.2709 158.517 99.6733 158.216C100.109 157.857 100.391 157.468 100.52 157.047C100.636 156.581 100.613 155.862 100.449 154.891C100.331 153.909 100.073 152.673 99.6739 151.186L91.3762 120.218C90.9897 118.776 90.6306 117.616 90.2989 116.739C89.9671 115.861 89.6282 115.227 89.282 114.837C88.948 114.492 88.5028 114.273 87.9466 114.18C87.4354 114.076 86.8192 114.12 86.098 114.313L85.0838 114.585L84.7395 113.3L120.575 103.698L120.92 104.983L120.041 105.218C119.274 105.424 118.673 105.705 118.238 106.064C117.803 106.422 117.533 106.857 117.428 107.368C117.323 107.879 117.324 108.603 117.431 109.541C117.537 110.479 117.777 111.646 118.152 113.044L126.449 144.011C126.86 145.544 127.26 146.766 127.649 147.676C128.038 148.586 128.422 149.208 128.801 149.541C129.168 149.829 129.623 149.997 130.168 150.045C130.712 150.092 131.344 150.019 132.066 149.826L132.877 149.609L133.221 150.893L116.453 155.386ZM138.851 126.485L142.366 139.602C142.716 140.909 143.022 141.962 143.285 142.762C143.58 143.504 143.821 144.043 144.008 144.379C144.183 144.671 144.396 144.928 144.649 145.15C144.935 145.315 145.243 145.474 145.574 145.627C145.905 145.78 146.33 145.835 146.85 145.792C147.37 145.749 147.991 145.631 148.712 145.438L149.057 146.723L132.694 151.107L132.349 149.822C133.116 149.617 133.735 149.403 134.206 149.18C134.678 148.957 135.019 148.696 135.229 148.399C135.439 148.101 135.604 147.815 135.724 147.541C135.832 147.222 135.905 146.865 135.944 146.468C135.949 146.128 135.872 145.569 135.712 144.791C135.539 143.967 135.278 142.902 134.928 141.595L126.703 110.898C126.352 109.59 126.052 108.56 125.802 107.805C125.551 107.051 125.333 106.506 125.146 106.169C124.914 105.845 124.678 105.594 124.437 105.417C124.184 105.195 123.892 105.008 123.562 104.855C123.231 104.702 122.805 104.647 122.285 104.689C121.765 104.732 121.122 104.856 120.356 105.061L120.012 103.777L134.075 100.008C136.374 99.3923 138.42 99.1824 140.212 99.3787C142.036 99.5178 143.63 100.057 144.993 100.996C146.356 101.936 147.485 103.082 148.379 104.437C149.274 105.792 149.968 107.393 150.464 109.241C150.886 110.819 151.093 112.31 151.082 113.714C151.105 115.06 150.952 116.382 150.622 117.678C150.281 118.929 149.763 120.058 149.066 121.066C148.358 122.029 147.495 122.864 146.477 123.572C145.783 124.047 144.8 124.528 143.529 125.013C142.258 125.499 140.699 125.989 138.851 126.485ZM132.655 103.36L138.126 123.78C138.409 123.753 138.64 123.715 138.82 123.666C139.046 123.606 139.226 123.558 139.361 123.521C140.308 123.268 141.11 122.835 141.768 122.224C142.425 121.613 142.887 120.813 143.153 119.824C143.42 118.835 143.513 117.65 143.433 116.27C143.353 114.891 143.078 113.322 142.607 111.564C142.136 109.806 141.596 108.332 140.987 107.142C140.367 105.908 139.7 104.951 138.986 104.273C138.273 103.594 137.457 103.161 136.536 102.972C135.661 102.772 134.706 102.811 133.669 103.089L132.655 103.36ZM172.079 126.422L160.923 129.412L160.834 134.218C160.814 135.045 160.821 135.792 160.855 136.459C160.922 137.07 161.021 137.623 161.154 138.118C161.323 138.749 161.564 139.289 161.878 139.736C162.191 140.184 162.57 140.517 163.015 140.736C163.289 140.856 163.692 140.917 164.224 140.919C164.756 140.922 165.462 140.853 166.343 140.714L166.669 141.931L156.189 144.739L155.863 143.522C156.412 143.23 156.87 142.866 157.237 142.429C157.591 141.948 157.87 141.366 158.073 140.683C158.289 140.046 158.465 139.081 158.602 137.788C158.738 136.495 158.842 134.897 158.912 132.994L160.262 93.1367L160.735 93.0098L182.24 127.83C183.264 129.489 184.13 130.827 184.838 131.845C185.59 132.851 186.213 133.554 186.707 133.953C187.074 134.241 187.462 134.427 187.871 134.511C188.28 134.594 188.744 134.615 189.264 134.572L189.59 135.789L174.377 139.866L174.051 138.649L174.659 138.485C175.291 138.316 175.791 138.11 176.16 137.866C176.575 137.61 176.865 137.339 177.03 137.053C177.149 136.78 177.224 136.518 177.254 136.268C177.272 135.974 177.232 135.646 177.136 135.286C177.075 135.06 176.998 134.863 176.905 134.695C176.857 134.515 176.78 134.318 176.674 134.105C176.605 134.027 176.471 133.797 176.272 133.415C176.061 132.989 175.74 132.422 175.31 131.717L172.079 126.422ZM170.598 124.138L161.657 109.431L161.064 126.692L170.598 124.138ZM201.198 105.793C202.876 105.923 204.318 106.165 205.523 106.518C206.717 106.826 207.732 107.279 208.569 107.876C209.748 108.671 210.728 109.713 211.508 111.002C212.321 112.233 212.951 113.683 213.398 115.351C213.869 117.109 214.056 118.798 213.958 120.419C213.894 121.982 213.523 123.482 212.846 124.92C212.048 126.631 210.889 128.077 209.37 129.257C207.838 130.392 205.923 131.268 203.624 131.884L187.396 136.232L187.052 134.947C187.818 134.742 188.437 134.528 188.909 134.305C189.381 134.082 189.699 133.828 189.864 133.542C190.074 133.244 190.239 132.958 190.359 132.684C190.512 132.354 190.585 131.996 190.579 131.611C190.584 131.271 190.507 130.712 190.347 129.934C190.219 129.098 189.987 128.05 189.649 126.787L181.478 96.2931C181.139 95.031 180.823 94.0288 180.527 93.2867C180.265 92.4874 180.046 91.9421 179.871 91.6507C179.685 91.3142 179.448 91.0635 179.163 90.8985C178.91 90.6764 178.618 90.4888 178.287 90.3359C178.001 90.1709 177.598 90.1098 177.078 90.1525C176.558 90.1952 175.915 90.3192 175.149 90.5246L174.805 89.2399L190.153 85.1272C192.001 84.632 193.593 84.3506 194.927 84.2828C196.295 84.1579 197.428 84.2408 198.328 84.5313C199.227 84.8218 200.066 85.2491 200.845 85.8133C201.612 86.3325 202.348 87.005 203.053 87.8308C203.757 88.6566 204.361 89.5577 204.864 90.5341C205.355 91.4654 205.746 92.4719 206.035 93.5538C206.337 94.6807 206.469 95.8048 206.432 96.9261C206.427 97.9903 206.275 99.0456 205.976 100.092C205.619 101.106 205.042 102.106 204.243 103.093C203.478 104.022 202.463 104.922 201.198 105.793ZM192.376 107.215C193.503 106.913 194.448 106.563 195.211 106.165C195.962 105.722 196.559 105.248 197.004 104.743C197.448 104.237 197.806 103.682 198.079 103.077C198.34 102.428 198.515 101.729 198.604 100.98C198.694 100.232 198.691 99.4109 198.597 98.5182C198.503 97.6255 198.317 96.6608 198.039 95.624C197.761 94.5872 197.446 93.6813 197.093 92.9061C196.728 92.0859 196.32 91.374 195.869 90.7703C195.417 90.1666 194.922 89.6712 194.383 89.2841C193.845 88.8969 193.279 88.5895 192.687 88.3617C192.049 88.1461 191.307 88.0793 190.459 88.1615C189.599 88.1986 188.584 88.3742 187.412 88.6882L192.376 107.215ZM193.1 109.919L197.122 124.93L197.593 126.688C197.763 127.319 197.953 127.848 198.163 128.274C198.374 128.701 198.641 129.064 198.963 129.364C199.273 129.62 199.61 129.795 199.974 129.891C200.325 129.942 200.727 129.906 201.177 129.786C201.808 129.617 202.37 129.369 202.863 129.044C203.389 128.662 203.867 128.195 204.3 127.645C204.72 127.049 205.054 126.404 205.303 125.709C205.552 125.014 205.708 124.248 205.774 123.409C205.839 122.57 205.824 121.704 205.73 120.812C205.669 119.862 205.511 118.914 205.258 117.967C204.956 116.84 204.588 115.827 204.154 114.929C203.708 113.986 203.19 113.134 202.599 112.374C201.997 111.569 201.392 110.934 200.785 110.469C200.165 109.959 199.491 109.608 198.763 109.416C198.035 109.225 197.203 109.182 196.265 109.289C195.315 109.35 194.26 109.56 193.1 109.919ZM210.37 79.7103L236.875 72.6083L237.219 73.893C236.251 74.2489 235.482 74.624 234.912 75.0185C234.329 75.3679 233.95 75.7592 233.777 76.1922C233.66 76.6583 233.643 77.3152 233.725 78.1628C233.807 79.0104 234.017 80.0653 234.355 81.3274L242.798 112.836C243.076 113.873 243.328 114.723 243.554 115.387C243.78 116.051 243.993 116.574 244.192 116.956C244.379 117.292 244.633 117.61 244.955 117.911C245.265 118.166 245.636 118.38 246.07 118.554C246.491 118.683 246.945 118.754 247.432 118.769C247.952 118.726 248.527 118.62 249.158 118.451L253.198 133.529L252.319 133.765C251.686 131.76 250.875 129.997 249.887 128.474C248.956 126.984 247.865 125.706 246.613 124.641C245.362 123.575 244.02 122.896 242.589 122.603C241.158 122.31 239.653 122.375 238.075 122.798L229.353 125.135C227.685 125.582 226.276 126.273 225.126 127.21C223.988 128.191 223.058 129.406 222.335 130.856C221.657 132.294 221.249 133.925 221.11 135.75C221.028 137.608 221.199 139.688 221.622 141.99L220.743 142.226L216.703 127.147C218.541 126.075 219.877 124.389 220.71 122.088C221.588 119.775 222.014 116.859 221.989 113.339C221.964 109.819 221.568 105.818 220.802 101.337C220.025 96.8108 218.893 91.7755 217.407 86.231C217.045 84.8788 216.681 83.7925 216.316 82.9723C215.94 82.107 215.517 81.5198 215.047 81.2107C214.623 80.8896 214.049 80.7295 213.324 80.7303C212.633 80.674 211.763 80.7623 210.714 80.995L210.37 79.7103ZM226.281 78.7804L218.235 80.9364L219.304 84.9256C220.065 87.7655 220.746 90.5783 221.348 93.3642C221.949 96.1501 222.477 98.9316 222.931 101.709C223.431 104.474 223.784 106.964 223.991 109.179C224.186 111.349 224.263 113.261 224.223 114.914C224.15 116.625 223.996 118.212 223.76 119.676C223.557 121.084 223.212 122.408 222.723 123.65L234.15 120.588C234.916 120.383 235.519 120.197 235.957 120.032C236.384 119.821 236.641 119.607 236.728 119.39C236.827 119.219 236.832 118.879 236.744 118.371C236.702 117.851 236.56 117.141 236.318 116.239L226.281 78.7804ZM264.112 101.762L252.956 104.751L252.867 109.558C252.847 110.385 252.854 111.132 252.887 111.799C252.954 112.409 253.054 112.962 253.187 113.458C253.356 114.089 253.597 114.629 253.91 115.076C254.224 115.524 254.603 115.857 255.048 116.076C255.322 116.196 255.724 116.257 256.257 116.259C256.789 116.262 257.495 116.193 258.376 116.054L258.702 117.271L248.221 120.079L247.895 118.862C248.445 118.57 248.903 118.205 249.269 117.769C249.623 117.288 249.902 116.706 250.106 116.023C250.322 115.386 250.498 114.42 250.634 113.128C250.771 111.835 250.874 110.237 250.944 108.334L252.294 68.4766L252.768 68.3497L274.273 103.17C275.297 104.828 276.163 106.167 276.87 107.185C277.623 108.191 278.246 108.894 278.74 109.293C279.107 109.581 279.495 109.767 279.904 109.851C280.313 109.934 280.777 109.955 281.297 109.912L281.623 111.129L266.41 115.205L266.084 113.988L266.692 113.825C267.323 113.656 267.824 113.45 268.193 113.206C268.608 112.95 268.897 112.679 269.062 112.393C269.182 112.119 269.257 111.858 269.287 111.608C269.304 111.314 269.265 110.986 269.168 110.625C269.108 110.4 269.031 110.203 268.938 110.035C268.889 109.855 268.812 109.658 268.707 109.445C268.638 109.367 268.504 109.137 268.305 108.755C268.094 108.329 267.773 107.762 267.342 107.056L264.112 101.762ZM262.63 99.4778L253.689 84.7708L253.097 102.032L262.63 99.4778ZM282.244 94.2222L281.23 94.494C280.802 93.256 280.315 91.8888 279.769 90.3924C279.223 88.8961 278.551 87.2886 277.752 85.5701L274.596 78.6614C273.656 76.5944 272.884 74.7962 272.281 73.2668C271.678 71.7374 271.256 70.522 271.014 69.6205C270.773 68.7189 270.652 67.9059 270.651 67.1815C270.65 66.457 270.757 65.776 270.973 65.1385C271.201 64.546 271.504 64.0541 271.882 63.6629C272.26 63.2717 272.72 63.0036 273.261 62.8586C273.802 62.7137 274.334 62.7161 274.857 62.8657C275.38 63.0154 275.895 63.3124 276.4 63.7567C276.894 64.1559 277.321 64.6694 277.683 65.2973C278.044 65.9251 278.334 66.6447 278.551 67.4561C278.781 68.3125 278.994 69.5598 279.191 71.1979C279.434 72.8239 279.683 74.8346 279.938 77.2302L280.727 84.7729C280.852 86.1405 281.03 87.6148 281.26 89.1957C281.535 90.7646 281.864 92.44 282.244 94.2222ZM283.057 99.1497C283.553 99.0168 284.04 99.0312 284.518 99.193C285.03 99.2976 285.538 99.5721 286.044 100.016C286.549 100.461 286.977 100.974 287.326 101.557C287.675 102.14 287.953 102.814 288.158 103.581C288.363 104.347 288.46 105.07 288.449 105.749C288.438 106.428 288.319 107.064 288.091 107.657C287.875 108.294 287.578 108.809 287.2 109.2C286.867 109.579 286.452 109.835 285.956 109.968C285.46 110.101 284.951 110.092 284.428 109.943C283.904 109.793 283.39 109.496 282.884 109.052C282.391 108.653 281.97 108.162 281.62 107.579C281.271 106.996 280.993 106.322 280.788 105.555C280.583 104.789 280.486 104.066 280.497 103.387C280.508 102.707 280.622 102.049 280.837 101.411C281.053 100.774 281.356 100.282 281.746 99.9358C282.125 99.5446 282.562 99.2825 283.057 99.1497Z" fill="black"/>
</svg>
