<svg width="183" height="21" viewBox="0 0 183 21" fill="none" xmlns="http://www.w3.org/2000/svg">
<mask id="path-1-outside-1_247_11050" maskUnits="userSpaceOnUse" x="-0.636719" y="0" width="183" height="22" fill="black">
<rect fill="white" x="-0.636719" width="183" height="22"/>
<path d="M2.0332 16V2.91309H7.58789C8.41992 2.91309 9.12012 2.98633 9.68848 3.13281C10.2627 3.27344 10.7695 3.4873 11.209 3.77441C11.7363 4.12012 12.1377 4.5625 12.4131 5.10156C12.6943 5.64062 12.835 6.28809 12.835 7.04395C12.835 7.62988 12.7324 8.2041 12.5273 8.7666C12.3223 9.32324 12.0293 9.79199 11.6484 10.1729C11.127 10.6885 10.5439 11.0781 9.89941 11.3418C9.26074 11.6055 8.46387 11.7373 7.50879 11.7373H5.4082V16H2.0332ZM5.4082 9.27637H6.375C6.94922 9.27637 7.4209 9.24121 7.79004 9.1709C8.16504 9.10059 8.47852 8.95996 8.73047 8.74902C8.94727 8.56152 9.10254 8.33887 9.19629 8.08105C9.2959 7.81738 9.3457 7.49805 9.3457 7.12305C9.3457 6.75391 9.24609 6.4375 9.04688 6.17383C8.84766 5.9043 8.61621 5.7168 8.35254 5.61133C8.00098 5.4707 7.6582 5.39453 7.32422 5.38281C6.99023 5.36523 6.54492 5.35645 5.98828 5.35645H5.4082V9.27637ZM18.7194 10.9551H21.9362L20.3278 6.26172L18.7194 10.9551ZM22.7536 13.3545H17.902L16.9968 16H13.5954L18.4294 2.91309H22.3141L27.1481 16H23.6589L22.7536 13.3545ZM34.764 16.2549C33.7914 16.2549 32.892 16.1113 32.0658 15.8242C31.2455 15.5371 30.5394 15.1094 29.9476 14.541C29.3558 13.9727 28.8959 13.2637 28.5677 12.4141C28.2455 11.5645 28.0843 10.583 28.0843 9.46973C28.0843 8.43262 28.2396 7.49219 28.5502 6.64844C28.8607 5.80469 29.3119 5.08105 29.9037 4.47754C30.472 3.89746 31.1752 3.44922 32.013 3.13281C32.8568 2.81641 33.7767 2.6582 34.7728 2.6582C35.3236 2.6582 35.8187 2.69043 36.2582 2.75488C36.7035 2.81348 37.1136 2.89258 37.4886 2.99219C37.8812 3.10352 38.2357 3.22949 38.5521 3.37012C38.8744 3.50488 39.1556 3.63086 39.3959 3.74805V6.9209H39.0091C38.8451 6.78027 38.6371 6.61328 38.3851 6.41992C38.139 6.22656 37.8578 6.03613 37.5414 5.84863C37.2191 5.66113 36.8705 5.50293 36.4955 5.37402C36.1205 5.24512 35.7191 5.18066 35.2914 5.18066C34.8168 5.18066 34.3656 5.25684 33.9379 5.40918C33.5101 5.55566 33.1146 5.80176 32.7513 6.14746C32.4056 6.48145 32.1244 6.92383 31.9076 7.47461C31.6966 8.02539 31.5912 8.69336 31.5912 9.47852C31.5912 10.2988 31.7054 10.9844 31.9339 11.5352C32.1683 12.0859 32.4613 12.5195 32.8129 12.8359C33.1703 13.1582 33.5687 13.3896 34.0082 13.5303C34.4476 13.665 34.8812 13.7324 35.3089 13.7324C35.7191 13.7324 36.1234 13.6709 36.5218 13.5479C36.9261 13.4248 37.2982 13.2578 37.638 13.0469C37.9252 12.877 38.1918 12.6953 38.4379 12.502C38.6839 12.3086 38.8861 12.1416 39.0443 12.001H39.3959V15.1299C39.0677 15.2764 38.7543 15.4141 38.4554 15.543C38.1566 15.6719 37.8431 15.7832 37.515 15.877C37.0873 16 36.6859 16.0938 36.3109 16.1582C35.9359 16.2227 35.4203 16.2549 34.764 16.2549ZM47.6094 16.2549C46.6368 16.2549 45.7373 16.1113 44.9112 15.8242C44.0909 15.5371 43.3848 15.1094 42.793 14.541C42.2012 13.9727 41.7412 13.2637 41.4131 12.4141C41.0909 11.5645 40.9297 10.583 40.9297 9.46973C40.9297 8.43262 41.085 7.49219 41.3955 6.64844C41.7061 5.80469 42.1573 5.08105 42.7491 4.47754C43.3174 3.89746 44.0205 3.44922 44.8584 3.13281C45.7022 2.81641 46.6221 2.6582 47.6182 2.6582C48.169 2.6582 48.6641 2.69043 49.1036 2.75488C49.5489 2.81348 49.959 2.89258 50.334 2.99219C50.7266 3.10352 51.0811 3.22949 51.3975 3.37012C51.7198 3.50488 52.001 3.63086 52.2412 3.74805V6.9209H51.8545C51.6905 6.78027 51.4825 6.61328 51.2305 6.41992C50.9844 6.22656 50.7032 6.03613 50.3868 5.84863C50.0645 5.66113 49.7159 5.50293 49.3409 5.37402C48.9659 5.24512 48.5645 5.18066 48.1368 5.18066C47.6621 5.18066 47.211 5.25684 46.7832 5.40918C46.3555 5.55566 45.96 5.80176 45.5967 6.14746C45.251 6.48145 44.9698 6.92383 44.753 7.47461C44.542 8.02539 44.4366 8.69336 44.4366 9.47852C44.4366 10.2988 44.5508 10.9844 44.7793 11.5352C45.0137 12.0859 45.3067 12.5195 45.6582 12.8359C46.0157 13.1582 46.4141 13.3896 46.8536 13.5303C47.293 13.665 47.7266 13.7324 48.1543 13.7324C48.5645 13.7324 48.9688 13.6709 49.3672 13.5479C49.7715 13.4248 50.1436 13.2578 50.4834 13.0469C50.7705 12.877 51.0371 12.6953 51.2832 12.502C51.5293 12.3086 51.7315 12.1416 51.8897 12.001H52.2412V15.1299C51.9131 15.2764 51.5996 15.4141 51.3008 15.543C51.002 15.6719 50.6885 15.7832 50.3604 15.877C49.9327 16 49.5313 16.0938 49.1563 16.1582C48.7813 16.2227 48.2657 16.2549 47.6094 16.2549ZM66.4138 16H63.0388V5.44434H59.2946C59.2654 6.01855 59.2419 6.46973 59.2243 6.79785C59.2068 7.12598 59.1804 7.55957 59.1452 8.09863C59.0691 9.28223 58.9519 10.2783 58.7937 11.0869C58.6413 11.8896 58.4685 12.5518 58.2751 13.0732C58.0759 13.6006 57.865 14.0312 57.6423 14.3652C57.4196 14.6992 57.197 14.9717 56.9743 15.1826C56.6872 15.458 56.3298 15.6777 55.9021 15.8418C55.4743 16.0059 55.0202 16.0879 54.5398 16.0879C54.2468 16.0879 53.9421 16.0762 53.6257 16.0527C53.3152 16.0293 53.1159 16.0117 53.028 16V13.0732H53.1511C53.2038 13.0791 53.2624 13.085 53.3269 13.0908C53.3972 13.0967 53.4763 13.0996 53.5642 13.0996C53.8923 13.0996 54.1355 13.0791 54.2937 13.0381C54.4519 12.9971 54.5925 12.9238 54.7155 12.8184C55.1609 12.4258 55.4655 11.8047 55.6296 10.9551C55.7995 10.0996 55.9255 8.9043 56.0075 7.36914C56.0427 6.75977 56.0691 6.09766 56.0866 5.38281C56.1101 4.66211 56.1306 3.83887 56.1482 2.91309H66.4138V16ZM72.9398 7.70312H78.6088V10.2344H72.9398V13.4688H79.0482V16H69.5824V2.91309H79.0482V5.44434H72.9398V7.70312ZM94.5567 13.46V19.0059H91.4542V15.9561H83.5089V19.0059H80.4063V13.46H81.3995C82.0792 12.0361 82.5977 10.4424 82.9552 8.67871C83.3184 6.86816 83.5001 4.94629 83.5001 2.91309H93.2647V13.46H94.5567ZM89.8897 13.46V5.44434H86.6202C86.5089 7.03809 86.2745 8.52051 85.9171 9.8916C85.5655 11.2217 85.1378 12.4111 84.6339 13.46H89.8897ZM109.406 9.46094C109.406 11.5469 108.808 13.2051 107.613 14.4355C106.418 15.6602 104.765 16.2725 102.656 16.2725C100.552 16.2725 98.9031 15.6602 97.7078 14.4355C96.5125 13.2051 95.9148 11.5469 95.9148 9.46094C95.9148 7.35742 96.5125 5.69629 97.7078 4.47754C98.9031 3.25293 100.552 2.64062 102.656 2.64062C104.754 2.64062 106.403 3.25293 107.604 4.47754C108.805 5.69629 109.406 7.35742 109.406 9.46094ZM104.932 12.7744C105.261 12.376 105.504 11.9072 105.662 11.3682C105.82 10.8232 105.899 10.1846 105.899 9.45215C105.899 8.66699 105.808 7.99902 105.627 7.44824C105.445 6.89746 105.208 6.45215 104.915 6.1123C104.616 5.76074 104.27 5.50586 103.878 5.34766C103.491 5.18945 103.087 5.11035 102.665 5.11035C102.237 5.11035 101.833 5.18652 101.452 5.33887C101.077 5.49121 100.731 5.74316 100.415 6.09473C100.122 6.42285 99.8816 6.87695 99.6941 7.45703C99.5125 8.03125 99.4216 8.69922 99.4216 9.46094C99.4216 10.2402 99.5095 10.9053 99.6853 11.4561C99.867 12.001 100.104 12.4463 100.397 12.792C100.69 13.1377 101.033 13.3926 101.426 13.5566C101.818 13.7207 102.231 13.8027 102.665 13.8027C103.098 13.8027 103.511 13.7207 103.904 13.5566C104.297 13.3867 104.639 13.126 104.932 12.7744ZM123.007 11.9922C123.007 12.625 122.878 13.1904 122.621 13.6885C122.369 14.1865 122.02 14.5996 121.575 14.9277C121.059 15.3145 120.491 15.5898 119.87 15.7539C119.254 15.918 118.472 16 117.523 16H111.81V2.91309H116.89C117.945 2.91309 118.715 2.94824 119.202 3.01855C119.694 3.08887 120.18 3.24414 120.661 3.48438C121.159 3.73633 121.528 4.07617 121.768 4.50391C122.014 4.92578 122.137 5.40918 122.137 5.9541C122.137 6.58691 121.97 7.14648 121.636 7.63281C121.302 8.11328 120.831 8.48828 120.221 8.75781V8.82812C121.077 8.99805 121.753 9.34961 122.251 9.88281C122.755 10.416 123.007 11.1191 123.007 11.9922ZM115.167 8.08105H115.695C116.228 8.08105 116.682 8.07227 117.057 8.05469C117.432 8.03711 117.728 7.97852 117.945 7.87891C118.249 7.74414 118.449 7.57129 118.542 7.36035C118.636 7.14355 118.683 6.89453 118.683 6.61328C118.683 6.39648 118.627 6.17969 118.516 5.96289C118.411 5.74609 118.22 5.58496 117.945 5.47949C117.699 5.38574 117.391 5.33594 117.022 5.33008C116.659 5.31836 116.146 5.3125 115.484 5.3125H115.167V8.08105ZM115.167 13.6006H115.414C116.363 13.6006 117.042 13.5977 117.453 13.5918C117.863 13.5859 118.241 13.5098 118.586 13.3633C118.938 13.2168 119.178 13.0234 119.307 12.7832C119.442 12.5371 119.509 12.2559 119.509 11.9395C119.509 11.5234 119.427 11.2041 119.263 10.9814C119.105 10.7529 118.832 10.583 118.446 10.4717C118.182 10.3955 117.819 10.3545 117.356 10.3486C116.893 10.3428 116.41 10.3398 115.906 10.3398H115.167V13.6006ZM129.006 10.9551H132.223L130.614 6.26172L129.006 10.9551ZM133.04 13.3545H128.189L127.283 16H123.882L128.716 2.91309H132.601L137.435 16H133.945L133.04 13.3545ZM147.494 10.2344H142.511V16H139.136V2.91309H142.511V7.70312H147.494V2.91309H150.869V16H147.494V10.2344ZM165.973 16H162.686V7.29004L157.254 16H154.038V2.91309H157.325V10.7969L162.378 2.91309H165.973V16ZM167.56 16L171.471 10.5771C170.68 10.2373 170.059 9.75684 169.608 9.13574C169.162 8.51465 168.94 7.7002 168.94 6.69238C168.94 6.02441 169.086 5.44141 169.379 4.94336C169.678 4.44531 170.056 4.03809 170.513 3.72168C170.911 3.44629 171.395 3.24414 171.963 3.11523C172.537 2.98047 173.194 2.91309 173.932 2.91309H180.049V16H176.692V11.2012H174.855L171.559 16H167.56ZM176.692 5.32129H175.022C174.512 5.32129 174.119 5.33887 173.844 5.37402C173.569 5.40332 173.302 5.51465 173.044 5.70801C172.845 5.85449 172.693 6.04785 172.587 6.28809C172.482 6.52246 172.429 6.7832 172.429 7.07031C172.429 7.36914 172.485 7.63867 172.596 7.87891C172.707 8.11328 172.862 8.30664 173.062 8.45898C173.284 8.63477 173.545 8.74316 173.844 8.78418C174.149 8.8252 174.547 8.8457 175.039 8.8457H176.692V5.32129Z"/>
</mask>
<path d="M2.0332 16V2.91309H7.58789C8.41992 2.91309 9.12012 2.98633 9.68848 3.13281C10.2627 3.27344 10.7695 3.4873 11.209 3.77441C11.7363 4.12012 12.1377 4.5625 12.4131 5.10156C12.6943 5.64062 12.835 6.28809 12.835 7.04395C12.835 7.62988 12.7324 8.2041 12.5273 8.7666C12.3223 9.32324 12.0293 9.79199 11.6484 10.1729C11.127 10.6885 10.5439 11.0781 9.89941 11.3418C9.26074 11.6055 8.46387 11.7373 7.50879 11.7373H5.4082V16H2.0332ZM5.4082 9.27637H6.375C6.94922 9.27637 7.4209 9.24121 7.79004 9.1709C8.16504 9.10059 8.47852 8.95996 8.73047 8.74902C8.94727 8.56152 9.10254 8.33887 9.19629 8.08105C9.2959 7.81738 9.3457 7.49805 9.3457 7.12305C9.3457 6.75391 9.24609 6.4375 9.04688 6.17383C8.84766 5.9043 8.61621 5.7168 8.35254 5.61133C8.00098 5.4707 7.6582 5.39453 7.32422 5.38281C6.99023 5.36523 6.54492 5.35645 5.98828 5.35645H5.4082V9.27637ZM18.7194 10.9551H21.9362L20.3278 6.26172L18.7194 10.9551ZM22.7536 13.3545H17.902L16.9968 16H13.5954L18.4294 2.91309H22.3141L27.1481 16H23.6589L22.7536 13.3545ZM34.764 16.2549C33.7914 16.2549 32.892 16.1113 32.0658 15.8242C31.2455 15.5371 30.5394 15.1094 29.9476 14.541C29.3558 13.9727 28.8959 13.2637 28.5677 12.4141C28.2455 11.5645 28.0843 10.583 28.0843 9.46973C28.0843 8.43262 28.2396 7.49219 28.5502 6.64844C28.8607 5.80469 29.3119 5.08105 29.9037 4.47754C30.472 3.89746 31.1752 3.44922 32.013 3.13281C32.8568 2.81641 33.7767 2.6582 34.7728 2.6582C35.3236 2.6582 35.8187 2.69043 36.2582 2.75488C36.7035 2.81348 37.1136 2.89258 37.4886 2.99219C37.8812 3.10352 38.2357 3.22949 38.5521 3.37012C38.8744 3.50488 39.1556 3.63086 39.3959 3.74805V6.9209H39.0091C38.8451 6.78027 38.6371 6.61328 38.3851 6.41992C38.139 6.22656 37.8578 6.03613 37.5414 5.84863C37.2191 5.66113 36.8705 5.50293 36.4955 5.37402C36.1205 5.24512 35.7191 5.18066 35.2914 5.18066C34.8168 5.18066 34.3656 5.25684 33.9379 5.40918C33.5101 5.55566 33.1146 5.80176 32.7513 6.14746C32.4056 6.48145 32.1244 6.92383 31.9076 7.47461C31.6966 8.02539 31.5912 8.69336 31.5912 9.47852C31.5912 10.2988 31.7054 10.9844 31.9339 11.5352C32.1683 12.0859 32.4613 12.5195 32.8129 12.8359C33.1703 13.1582 33.5687 13.3896 34.0082 13.5303C34.4476 13.665 34.8812 13.7324 35.3089 13.7324C35.7191 13.7324 36.1234 13.6709 36.5218 13.5479C36.9261 13.4248 37.2982 13.2578 37.638 13.0469C37.9252 12.877 38.1918 12.6953 38.4379 12.502C38.6839 12.3086 38.8861 12.1416 39.0443 12.001H39.3959V15.1299C39.0677 15.2764 38.7543 15.4141 38.4554 15.543C38.1566 15.6719 37.8431 15.7832 37.515 15.877C37.0873 16 36.6859 16.0938 36.3109 16.1582C35.9359 16.2227 35.4203 16.2549 34.764 16.2549ZM47.6094 16.2549C46.6368 16.2549 45.7373 16.1113 44.9112 15.8242C44.0909 15.5371 43.3848 15.1094 42.793 14.541C42.2012 13.9727 41.7412 13.2637 41.4131 12.4141C41.0909 11.5645 40.9297 10.583 40.9297 9.46973C40.9297 8.43262 41.085 7.49219 41.3955 6.64844C41.7061 5.80469 42.1573 5.08105 42.7491 4.47754C43.3174 3.89746 44.0205 3.44922 44.8584 3.13281C45.7022 2.81641 46.6221 2.6582 47.6182 2.6582C48.169 2.6582 48.6641 2.69043 49.1036 2.75488C49.5489 2.81348 49.959 2.89258 50.334 2.99219C50.7266 3.10352 51.0811 3.22949 51.3975 3.37012C51.7198 3.50488 52.001 3.63086 52.2412 3.74805V6.9209H51.8545C51.6905 6.78027 51.4825 6.61328 51.2305 6.41992C50.9844 6.22656 50.7032 6.03613 50.3868 5.84863C50.0645 5.66113 49.7159 5.50293 49.3409 5.37402C48.9659 5.24512 48.5645 5.18066 48.1368 5.18066C47.6621 5.18066 47.211 5.25684 46.7832 5.40918C46.3555 5.55566 45.96 5.80176 45.5967 6.14746C45.251 6.48145 44.9698 6.92383 44.753 7.47461C44.542 8.02539 44.4366 8.69336 44.4366 9.47852C44.4366 10.2988 44.5508 10.9844 44.7793 11.5352C45.0137 12.0859 45.3067 12.5195 45.6582 12.8359C46.0157 13.1582 46.4141 13.3896 46.8536 13.5303C47.293 13.665 47.7266 13.7324 48.1543 13.7324C48.5645 13.7324 48.9688 13.6709 49.3672 13.5479C49.7715 13.4248 50.1436 13.2578 50.4834 13.0469C50.7705 12.877 51.0371 12.6953 51.2832 12.502C51.5293 12.3086 51.7315 12.1416 51.8897 12.001H52.2412V15.1299C51.9131 15.2764 51.5996 15.4141 51.3008 15.543C51.002 15.6719 50.6885 15.7832 50.3604 15.877C49.9327 16 49.5313 16.0938 49.1563 16.1582C48.7813 16.2227 48.2657 16.2549 47.6094 16.2549ZM66.4138 16H63.0388V5.44434H59.2946C59.2654 6.01855 59.2419 6.46973 59.2243 6.79785C59.2068 7.12598 59.1804 7.55957 59.1452 8.09863C59.0691 9.28223 58.9519 10.2783 58.7937 11.0869C58.6413 11.8896 58.4685 12.5518 58.2751 13.0732C58.0759 13.6006 57.865 14.0312 57.6423 14.3652C57.4196 14.6992 57.197 14.9717 56.9743 15.1826C56.6872 15.458 56.3298 15.6777 55.9021 15.8418C55.4743 16.0059 55.0202 16.0879 54.5398 16.0879C54.2468 16.0879 53.9421 16.0762 53.6257 16.0527C53.3152 16.0293 53.1159 16.0117 53.028 16V13.0732H53.1511C53.2038 13.0791 53.2624 13.085 53.3269 13.0908C53.3972 13.0967 53.4763 13.0996 53.5642 13.0996C53.8923 13.0996 54.1355 13.0791 54.2937 13.0381C54.4519 12.9971 54.5925 12.9238 54.7155 12.8184C55.1609 12.4258 55.4655 11.8047 55.6296 10.9551C55.7995 10.0996 55.9255 8.9043 56.0075 7.36914C56.0427 6.75977 56.0691 6.09766 56.0866 5.38281C56.1101 4.66211 56.1306 3.83887 56.1482 2.91309H66.4138V16ZM72.9398 7.70312H78.6088V10.2344H72.9398V13.4688H79.0482V16H69.5824V2.91309H79.0482V5.44434H72.9398V7.70312ZM94.5567 13.46V19.0059H91.4542V15.9561H83.5089V19.0059H80.4063V13.46H81.3995C82.0792 12.0361 82.5977 10.4424 82.9552 8.67871C83.3184 6.86816 83.5001 4.94629 83.5001 2.91309H93.2647V13.46H94.5567ZM89.8897 13.46V5.44434H86.6202C86.5089 7.03809 86.2745 8.52051 85.9171 9.8916C85.5655 11.2217 85.1378 12.4111 84.6339 13.46H89.8897ZM109.406 9.46094C109.406 11.5469 108.808 13.2051 107.613 14.4355C106.418 15.6602 104.765 16.2725 102.656 16.2725C100.552 16.2725 98.9031 15.6602 97.7078 14.4355C96.5125 13.2051 95.9148 11.5469 95.9148 9.46094C95.9148 7.35742 96.5125 5.69629 97.7078 4.47754C98.9031 3.25293 100.552 2.64062 102.656 2.64062C104.754 2.64062 106.403 3.25293 107.604 4.47754C108.805 5.69629 109.406 7.35742 109.406 9.46094ZM104.932 12.7744C105.261 12.376 105.504 11.9072 105.662 11.3682C105.82 10.8232 105.899 10.1846 105.899 9.45215C105.899 8.66699 105.808 7.99902 105.627 7.44824C105.445 6.89746 105.208 6.45215 104.915 6.1123C104.616 5.76074 104.27 5.50586 103.878 5.34766C103.491 5.18945 103.087 5.11035 102.665 5.11035C102.237 5.11035 101.833 5.18652 101.452 5.33887C101.077 5.49121 100.731 5.74316 100.415 6.09473C100.122 6.42285 99.8816 6.87695 99.6941 7.45703C99.5125 8.03125 99.4216 8.69922 99.4216 9.46094C99.4216 10.2402 99.5095 10.9053 99.6853 11.4561C99.867 12.001 100.104 12.4463 100.397 12.792C100.69 13.1377 101.033 13.3926 101.426 13.5566C101.818 13.7207 102.231 13.8027 102.665 13.8027C103.098 13.8027 103.511 13.7207 103.904 13.5566C104.297 13.3867 104.639 13.126 104.932 12.7744ZM123.007 11.9922C123.007 12.625 122.878 13.1904 122.621 13.6885C122.369 14.1865 122.02 14.5996 121.575 14.9277C121.059 15.3145 120.491 15.5898 119.87 15.7539C119.254 15.918 118.472 16 117.523 16H111.81V2.91309H116.89C117.945 2.91309 118.715 2.94824 119.202 3.01855C119.694 3.08887 120.18 3.24414 120.661 3.48438C121.159 3.73633 121.528 4.07617 121.768 4.50391C122.014 4.92578 122.137 5.40918 122.137 5.9541C122.137 6.58691 121.97 7.14648 121.636 7.63281C121.302 8.11328 120.831 8.48828 120.221 8.75781V8.82812C121.077 8.99805 121.753 9.34961 122.251 9.88281C122.755 10.416 123.007 11.1191 123.007 11.9922ZM115.167 8.08105H115.695C116.228 8.08105 116.682 8.07227 117.057 8.05469C117.432 8.03711 117.728 7.97852 117.945 7.87891C118.249 7.74414 118.449 7.57129 118.542 7.36035C118.636 7.14355 118.683 6.89453 118.683 6.61328C118.683 6.39648 118.627 6.17969 118.516 5.96289C118.411 5.74609 118.22 5.58496 117.945 5.47949C117.699 5.38574 117.391 5.33594 117.022 5.33008C116.659 5.31836 116.146 5.3125 115.484 5.3125H115.167V8.08105ZM115.167 13.6006H115.414C116.363 13.6006 117.042 13.5977 117.453 13.5918C117.863 13.5859 118.241 13.5098 118.586 13.3633C118.938 13.2168 119.178 13.0234 119.307 12.7832C119.442 12.5371 119.509 12.2559 119.509 11.9395C119.509 11.5234 119.427 11.2041 119.263 10.9814C119.105 10.7529 118.832 10.583 118.446 10.4717C118.182 10.3955 117.819 10.3545 117.356 10.3486C116.893 10.3428 116.41 10.3398 115.906 10.3398H115.167V13.6006ZM129.006 10.9551H132.223L130.614 6.26172L129.006 10.9551ZM133.04 13.3545H128.189L127.283 16H123.882L128.716 2.91309H132.601L137.435 16H133.945L133.04 13.3545ZM147.494 10.2344H142.511V16H139.136V2.91309H142.511V7.70312H147.494V2.91309H150.869V16H147.494V10.2344ZM165.973 16H162.686V7.29004L157.254 16H154.038V2.91309H157.325V10.7969L162.378 2.91309H165.973V16ZM167.56 16L171.471 10.5771C170.68 10.2373 170.059 9.75684 169.608 9.13574C169.162 8.51465 168.94 7.7002 168.94 6.69238C168.94 6.02441 169.086 5.44141 169.379 4.94336C169.678 4.44531 170.056 4.03809 170.513 3.72168C170.911 3.44629 171.395 3.24414 171.963 3.11523C172.537 2.98047 173.194 2.91309 173.932 2.91309H180.049V16H176.692V11.2012H174.855L171.559 16H167.56ZM176.692 5.32129H175.022C174.512 5.32129 174.119 5.33887 173.844 5.37402C173.569 5.40332 173.302 5.51465 173.044 5.70801C172.845 5.85449 172.693 6.04785 172.587 6.28809C172.482 6.52246 172.429 6.7832 172.429 7.07031C172.429 7.36914 172.485 7.63867 172.596 7.87891C172.707 8.11328 172.862 8.30664 173.062 8.45898C173.284 8.63477 173.545 8.74316 173.844 8.78418C174.149 8.8252 174.547 8.8457 175.039 8.8457H176.692V5.32129Z" fill="#FCF549"/>
<path d="M2.0332 16H0.0332031C0.0332031 17.1046 0.928634 18 2.0332 18V16ZM2.0332 2.91309V0.913086C0.928634 0.913086 0.0332031 1.80852 0.0332031 2.91309H2.0332ZM9.68848 3.13281L9.18932 5.06952C9.19712 5.07153 9.20492 5.07349 9.21274 5.07541L9.68848 3.13281ZM11.209 3.77441L12.3055 2.10178L12.3029 2.10008L11.209 3.77441ZM12.4131 5.10156L10.632 6.01144C10.6346 6.01654 10.6373 6.02162 10.6399 6.02669L12.4131 5.10156ZM12.5273 8.7666L14.404 9.45802L14.4064 9.45166L12.5273 8.7666ZM11.6484 10.1729L13.0547 11.5951L13.0627 11.5871L11.6484 10.1729ZM9.89941 11.3418L9.14214 9.49069L9.13621 9.49314L9.89941 11.3418ZM5.4082 11.7373V9.7373C4.30363 9.7373 3.4082 10.6327 3.4082 11.7373H5.4082ZM5.4082 16V18C6.51277 18 7.4082 17.1046 7.4082 16H5.4082ZM5.4082 9.27637H3.4082C3.4082 10.3809 4.30363 11.2764 5.4082 11.2764V9.27637ZM7.79004 9.1709L7.42146 7.20515L7.41581 7.20622L7.79004 9.1709ZM8.73047 8.74902L10.0143 10.2825C10.0225 10.2757 10.0307 10.2687 10.0388 10.2618L8.73047 8.74902ZM9.19629 8.08105L7.32535 7.37425C7.32242 7.38201 7.31953 7.38978 7.3167 7.39757L9.19629 8.08105ZM9.04688 6.17383L7.43852 7.36261C7.4427 7.36826 7.4469 7.37389 7.45114 7.37949L9.04688 6.17383ZM7.32422 5.38281L7.2191 7.38005C7.23076 7.38066 7.24242 7.38117 7.25409 7.38158L7.32422 5.38281ZM5.4082 5.35645V3.35645C4.30363 3.35645 3.4082 4.25188 3.4082 5.35645H5.4082ZM4.0332 16V2.91309H0.0332031V16H4.0332ZM2.0332 4.91309H7.58789V0.913086H2.0332V4.91309ZM7.58789 4.91309C8.31548 4.91309 8.83609 4.97848 9.18932 5.06952L10.1876 1.1961C9.40414 0.994172 8.52437 0.913086 7.58789 0.913086V4.91309ZM9.21274 5.07541C9.59467 5.16894 9.88733 5.29994 10.1151 5.44875L12.3029 2.10008C11.6517 1.67467 10.9307 1.37793 10.1642 1.19022L9.21274 5.07541ZM10.1125 5.44704C10.3619 5.61053 10.5214 5.79493 10.632 6.01144L14.1941 4.19168C13.754 3.33007 13.1108 2.6297 12.3055 2.10179L10.1125 5.44704ZM10.6399 6.02669C10.7402 6.21898 10.835 6.53333 10.835 7.04395H14.835C14.835 6.04284 14.6484 5.06227 14.1863 4.17643L10.6399 6.02669ZM10.835 7.04395C10.835 7.39108 10.7751 7.7337 10.6483 8.08154L14.4064 9.45166C14.6897 8.6745 14.835 7.86868 14.835 7.04395H10.835ZM10.6507 8.07519C10.5354 8.38807 10.3905 8.60238 10.2342 8.75864L13.0627 11.5871C13.6681 10.9816 14.1091 10.2584 14.404 9.45801L10.6507 8.07519ZM10.2422 8.75067C9.89687 9.09216 9.53165 9.33136 9.14215 9.4907L10.6567 13.1929C11.5562 12.8249 12.357 12.2848 13.0546 11.595L10.2422 8.75067ZM9.13621 9.49314C8.81309 9.62654 8.29541 9.7373 7.50879 9.7373V13.7373C8.63233 13.7373 9.7084 13.5844 10.6626 13.1904L9.13621 9.49314ZM7.50879 9.7373H5.4082V13.7373H7.50879V9.7373ZM3.4082 11.7373V16H7.4082V11.7373H3.4082ZM5.4082 14H2.0332V18H5.4082V14ZM5.4082 11.2764H6.375V7.27637H5.4082V11.2764ZM6.375 11.2764C7.01648 11.2764 7.62531 11.2382 8.16426 11.1356L7.41581 7.20622C7.21648 7.24419 6.88196 7.27637 6.375 7.27637V11.2764ZM8.15862 11.1366C8.81594 11.0134 9.45973 10.7469 10.0143 10.2825L7.4466 7.21551C7.45652 7.20719 7.46593 7.20055 7.47393 7.19558C7.48186 7.19064 7.48689 7.1883 7.48779 7.1879C7.48981 7.18699 7.47075 7.19591 7.42146 7.20515L8.15862 11.1366ZM10.0388 10.2618C10.5016 9.86148 10.8602 9.35758 11.0759 8.76454L7.3167 7.39757C7.32855 7.36498 7.34625 7.33005 7.36903 7.29738C7.39154 7.2651 7.41196 7.24512 7.42216 7.2363L10.0388 10.2618ZM11.0672 8.78786C11.2752 8.23733 11.3457 7.66437 11.3457 7.12305H7.3457C7.3457 7.33172 7.31659 7.39744 7.32535 7.37425L11.0672 8.78786ZM11.3457 7.12305C11.3457 6.3723 11.1347 5.61947 10.6426 4.96816L7.45114 7.37949C7.41242 7.32824 7.38187 7.26846 7.3633 7.20946C7.34546 7.15278 7.3457 7.11947 7.3457 7.12305H11.3457ZM10.6552 4.98505C10.2755 4.47123 9.76194 4.02102 9.09532 3.75437L7.60976 7.46828C7.54638 7.44293 7.49743 7.41143 7.46491 7.38509C7.43398 7.36003 7.42712 7.34718 7.43852 7.36261L10.6552 4.98505ZM9.09532 3.75437C8.5576 3.53929 7.98757 3.40486 7.39435 3.38404L7.25409 7.38158C7.32884 7.38421 7.44435 7.40212 7.60976 7.46828L9.09532 3.75437ZM7.42934 3.38558C7.04505 3.36535 6.56031 3.35645 5.98828 3.35645V7.35645C6.52954 7.35645 6.93542 7.36512 7.2191 7.38005L7.42934 3.38558ZM5.98828 3.35645H5.4082V7.35645H5.98828V3.35645ZM3.4082 5.35645V9.27637H7.4082V5.35645H3.4082ZM18.7194 10.9551L16.8274 10.3067C16.6181 10.9177 16.7166 11.5921 17.092 12.1177C17.4675 12.6432 18.0736 12.9551 18.7194 12.9551V10.9551ZM21.9362 10.9551V12.9551C22.5821 12.9551 23.1882 12.6432 23.5636 12.1177C23.939 11.5921 24.0376 10.9177 23.8282 10.3067L21.9362 10.9551ZM20.3278 6.26172L22.2198 5.61334C21.9427 4.80482 21.1825 4.26172 20.3278 4.26172C19.4731 4.26172 18.7129 4.80482 18.4358 5.61334L20.3278 6.26172ZM22.7536 13.3545L24.6459 12.707C24.3691 11.898 23.6086 11.3545 22.7536 11.3545V13.3545ZM17.902 13.3545V11.3545C17.047 11.3545 16.2866 11.898 16.0098 12.707L17.902 13.3545ZM16.9968 16V18C17.8518 18 18.6122 17.4565 18.889 16.6475L16.9968 16ZM13.5954 16L11.7193 15.307C11.4926 15.9207 11.5804 16.6065 11.9544 17.1432C12.3283 17.68 12.9412 18 13.5954 18V16ZM18.4294 2.91309V0.913086C17.5921 0.913086 16.8434 1.43466 16.5533 2.2201L18.4294 2.91309ZM22.3141 2.91309L24.1902 2.2201C23.9001 1.43466 23.1514 0.913086 22.3141 0.913086V2.91309ZM27.1481 16V18C27.8023 18 28.4152 17.68 28.7892 17.1432C29.1631 16.6065 29.2509 15.9207 29.0242 15.307L27.1481 16ZM23.6589 16L21.7666 16.6475C22.0434 17.4565 22.8039 18 23.6589 18V16ZM18.7194 12.9551H21.9362V8.95508H18.7194V12.9551ZM23.8282 10.3067L22.2198 5.61334L18.4358 6.9101L20.0442 11.6035L23.8282 10.3067ZM18.4358 5.61334L16.8274 10.3067L20.6114 11.6035L22.2198 6.9101L18.4358 5.61334ZM22.7536 11.3545H17.902V15.3545H22.7536V11.3545ZM16.0098 12.707L15.1045 15.3525L18.889 16.6475L19.7943 14.002L16.0098 12.707ZM16.9968 14H13.5954V18H16.9968V14ZM15.4715 16.693L20.3055 3.60607L16.5533 2.2201L11.7193 15.307L15.4715 16.693ZM18.4294 4.91309H22.3141V0.913086H18.4294V4.91309ZM20.438 3.60607L25.272 16.693L29.0242 15.307L24.1902 2.2201L20.438 3.60607ZM27.1481 14H23.6589V18H27.1481V14ZM25.5511 15.3525L24.6459 12.707L20.8613 14.002L21.7666 16.6475L25.5511 15.3525ZM32.0658 15.8242L31.4051 17.7119L31.4093 17.7134L32.0658 15.8242ZM29.9476 14.541L28.5623 15.9835L29.9476 14.541ZM28.5677 12.4141L26.6977 13.1234L26.702 13.1346L28.5677 12.4141ZM29.9037 4.47754L31.3317 5.87782L31.3322 5.87725L29.9037 4.47754ZM32.013 3.13281L31.3108 1.26015L31.3065 1.26177L32.013 3.13281ZM36.2582 2.75488L35.9679 4.73371C35.9777 4.73514 35.9875 4.7365 35.9973 4.73779L36.2582 2.75488ZM37.4886 2.99219L38.0343 1.06806C38.0236 1.06502 38.0128 1.06208 38.0021 1.05922L37.4886 2.99219ZM38.5521 3.37012L37.7398 5.19774C37.7533 5.20374 37.7669 5.20958 37.7805 5.21528L38.5521 3.37012ZM39.3959 3.74805H41.3959C41.3959 2.98343 40.9599 2.28573 40.2727 1.95051L39.3959 3.74805ZM39.3959 6.9209V8.9209C40.5004 8.9209 41.3959 8.02547 41.3959 6.9209H39.3959ZM39.0091 6.9209L37.7076 8.43941C38.07 8.75011 38.5317 8.9209 39.0091 8.9209V6.9209ZM38.3851 6.41992L37.1495 7.99256C37.1554 7.99725 37.1614 8.00191 37.1675 8.00654L38.3851 6.41992ZM37.5414 5.84863L38.561 4.12805C38.5564 4.12533 38.5518 4.12262 38.5472 4.11994L37.5414 5.84863ZM33.9379 5.40918L34.5858 7.3013C34.5935 7.29866 34.6012 7.29598 34.6089 7.29325L33.9379 5.40918ZM32.7513 6.14746L31.3726 4.69863C31.369 4.7021 31.3653 4.70558 31.3617 4.70908L32.7513 6.14746ZM31.9076 7.47461L30.0466 6.74208C30.0443 6.74781 30.0421 6.75356 30.0399 6.75932L31.9076 7.47461ZM31.9339 11.5352L30.0866 12.3016C30.0889 12.3072 30.0913 12.3127 30.0936 12.3183L31.9339 11.5352ZM32.8129 12.8359L34.1521 11.3506L34.1508 11.3493L32.8129 12.8359ZM34.0082 13.5303L33.3986 15.4351C33.4063 15.4376 33.414 15.44 33.4218 15.4424L34.0082 13.5303ZM36.5218 13.5479L35.9395 11.6345L35.9317 11.6369L36.5218 13.5479ZM37.638 13.0469L36.6194 11.3257C36.6073 11.3329 36.5953 11.3402 36.5833 11.3476L37.638 13.0469ZM39.0443 12.001V10.001C38.5545 10.001 38.0817 10.1807 37.7156 10.5062L39.0443 12.001ZM39.3959 12.001H41.3959C41.3959 10.8964 40.5004 10.001 39.3959 10.001V12.001ZM39.3959 15.1299L40.2112 16.9562C40.9318 16.6345 41.3959 15.9191 41.3959 15.1299H39.3959ZM37.515 15.877L36.9656 13.9539L36.9621 13.9549L37.515 15.877ZM34.764 14.2549C33.99 14.2549 33.3151 14.141 32.7223 13.935L31.4093 17.7134C32.4688 18.0816 33.5927 18.2549 34.764 18.2549V14.2549ZM32.7265 13.9365C32.1605 13.7384 31.7058 13.4566 31.333 13.0985L28.5623 15.9835C29.373 16.7622 30.3304 17.3358 31.4051 17.7119L32.7265 13.9365ZM31.333 13.0985C30.9744 12.7541 30.6679 12.3005 30.4334 11.6935L26.702 13.1346C27.1239 14.2268 27.7373 15.1912 28.5623 15.9835L31.333 13.0985ZM30.4377 11.7048C30.2183 11.1264 30.0843 10.3935 30.0843 9.46973H26.0843C26.0843 10.7726 26.2726 12.0025 26.6977 13.1234L30.4377 11.7048ZM30.0843 9.46973C30.0843 8.63271 30.2094 7.93064 30.4271 7.33924L26.6732 5.95763C26.2698 7.05373 26.0843 8.23252 26.0843 9.46973H30.0843ZM30.4271 7.33924C30.6462 6.74386 30.9505 6.26657 31.3317 5.87782L28.4757 3.07726C27.6733 3.89554 27.0752 4.86551 26.6732 5.95763L30.4271 7.33924ZM31.3322 5.87725C31.6769 5.52546 32.1255 5.22819 32.7196 5.00385L31.3065 1.26177C30.2248 1.67025 29.2671 2.26947 28.4751 3.07783L31.3322 5.87725ZM32.7153 5.00547C33.312 4.78169 33.9913 4.6582 34.7728 4.6582V0.658203C33.5621 0.658203 32.4016 0.851119 31.3108 1.26015L32.7153 5.00547ZM34.7728 4.6582C35.2485 4.6582 35.6442 4.68622 35.9679 4.73371L36.5484 0.776053C35.9933 0.694635 35.3987 0.658203 34.7728 0.658203V4.6582ZM35.9973 4.73779C36.3703 4.78688 36.6949 4.85071 36.9752 4.92516L38.0021 1.05922C37.5323 0.934443 37.0366 0.840072 36.5191 0.771974L35.9973 4.73779ZM36.943 4.91632C37.2601 5.00625 37.5236 5.10161 37.7398 5.19774L39.3644 1.54249C38.9479 1.35737 38.5023 1.20079 38.0343 1.06806L36.943 4.91632ZM37.7805 5.21528C38.0773 5.3394 38.322 5.44948 38.519 5.54558L40.2727 1.95051C39.9893 1.81224 39.6714 1.67036 39.3237 1.52496L37.7805 5.21528ZM37.3959 3.74805V6.9209H41.3959V3.74805H37.3959ZM39.3959 4.9209H39.0091V8.9209H39.3959V4.9209ZM40.3107 5.40239C40.1099 5.23023 39.8714 5.03946 39.6028 4.8333L37.1675 8.00654C37.4028 8.1871 37.5803 8.33032 37.7076 8.43941L40.3107 5.40239ZM39.6208 4.84729C39.2953 4.59157 38.9399 4.35261 38.561 4.12805L36.5218 7.56922C36.7756 7.71966 36.9827 7.86155 37.1495 7.99256L39.6208 4.84729ZM38.5472 4.11994C38.105 3.86271 37.6364 3.65136 37.1456 3.48265L35.8453 7.2654C36.1045 7.3545 36.3332 7.45956 36.5356 7.57733L38.5472 4.11994ZM37.1456 3.48265C36.5455 3.27637 35.9229 3.18066 35.2914 3.18066V7.18066C35.5153 7.18066 35.6954 7.21386 35.8453 7.2654L37.1456 3.48265ZM35.2914 3.18066C34.5986 3.18066 33.9196 3.29261 33.2668 3.52511L34.6089 7.29325C34.8116 7.22106 35.035 7.18066 35.2914 7.18066V3.18066ZM33.2899 3.51706C32.561 3.76668 31.9217 4.17609 31.3726 4.69863L34.1301 7.59629C34.3075 7.42743 34.4593 7.34465 34.5858 7.3013L33.2899 3.51706ZM31.3617 4.70908C30.7683 5.28238 30.3445 5.98512 30.0466 6.74208L33.7686 8.20714C33.9042 7.86253 34.043 7.68051 34.141 7.58584L31.3617 4.70908ZM30.0399 6.75932C29.7178 7.60024 29.5912 8.52514 29.5912 9.47852H33.5912C33.5912 8.86158 33.6755 8.45054 33.7753 8.1899L30.0399 6.75932ZM29.5912 9.47852C29.5912 10.4695 29.7271 11.435 30.0866 12.3016L33.7813 10.7687C33.6838 10.5337 33.5912 10.1282 33.5912 9.47852H29.5912ZM30.0936 12.3183C30.4128 13.0684 30.8571 13.7664 31.4749 14.3225L34.1508 11.3493C34.0655 11.2726 33.9238 11.1035 33.7743 10.752L30.0936 12.3183ZM31.4736 14.3213C32.0325 14.8252 32.6773 15.2043 33.3986 15.4351L34.6177 11.6254C34.4602 11.575 34.3081 11.4912 34.1521 11.3506L31.4736 14.3213ZM33.4218 15.4424C34.0371 15.6311 34.6682 15.7324 35.3089 15.7324V11.7324C35.0942 11.7324 34.8581 11.699 34.5945 11.6182L33.4218 15.4424ZM35.3089 15.7324C35.9225 15.7324 36.5256 15.6399 37.112 15.4588L35.9317 11.6369C35.7212 11.7019 35.5157 11.7324 35.3089 11.7324V15.7324ZM37.1042 15.4612C37.6652 15.2905 38.1973 15.0537 38.6928 14.7462L36.5833 11.3476C36.3991 11.4619 36.1871 11.5592 35.9395 11.6345L37.1042 15.4612ZM38.6567 14.768C39.0144 14.5563 39.354 14.3256 39.6735 14.0746L37.2022 10.9293C37.0295 11.065 36.8359 11.1976 36.6194 11.3257L38.6567 14.768ZM39.6735 14.0746C39.9379 13.8668 40.174 13.6727 40.373 13.4958L37.7156 10.5062C37.5982 10.6105 37.43 10.7504 37.2022 10.9293L39.6735 14.0746ZM39.0443 14.001H39.3959V10.001H39.0443V14.001ZM37.3959 12.001V15.1299H41.3959V12.001H37.3959ZM38.5806 13.3036C38.2593 13.447 37.9536 13.5813 37.6632 13.7065L39.2476 17.3794C39.5549 17.2468 39.8761 17.1057 40.2112 16.9562L38.5806 13.3036ZM37.6632 13.7065C37.4471 13.7998 37.215 13.8826 36.9656 13.9539L38.0644 17.8C38.4713 17.6838 38.8661 17.544 39.2476 17.3794L37.6632 13.7065ZM36.9621 13.9549C36.5933 14.061 36.264 14.1369 35.9721 14.1871L36.6497 18.1293C37.1078 18.0506 37.5812 17.939 38.0679 17.799L36.9621 13.9549ZM35.9721 14.1871C35.7609 14.2234 35.3755 14.2549 34.764 14.2549V18.2549C35.465 18.2549 36.1109 18.2219 36.6497 18.1293L35.9721 14.1871ZM44.9112 15.8242L44.2505 17.7119L44.2547 17.7134L44.9112 15.8242ZM42.793 14.541L41.4076 15.9835L42.793 14.541ZM41.4131 12.4141L39.5431 13.1234L39.5474 13.1346L41.4131 12.4141ZM42.7491 4.47754L44.1771 5.87782L44.1776 5.87725L42.7491 4.47754ZM44.8584 3.13281L44.1562 1.26015L44.1519 1.26177L44.8584 3.13281ZM49.1036 2.75488L48.8133 4.73371C48.8231 4.73514 48.8329 4.7365 48.8426 4.73779L49.1036 2.75488ZM50.334 2.99219L50.8797 1.06806C50.869 1.06502 50.8582 1.06208 50.8475 1.05922L50.334 2.99219ZM51.3975 3.37012L50.5852 5.19774C50.5987 5.20374 50.6123 5.20958 50.6259 5.21528L51.3975 3.37012ZM52.2412 3.74805H54.2412C54.2412 2.98343 53.8053 2.28573 53.1181 1.95051L52.2412 3.74805ZM52.2412 6.9209V8.9209C53.3458 8.9209 54.2412 8.02547 54.2412 6.9209H52.2412ZM51.8545 6.9209L50.5529 8.43941C50.9154 8.75011 51.3771 8.9209 51.8545 8.9209V6.9209ZM51.2305 6.41992L49.9949 7.99256C50.0008 7.99725 50.0068 8.00191 50.0129 8.00654L51.2305 6.41992ZM50.3868 5.84863L51.4064 4.12805C51.4018 4.12533 51.3972 4.12262 51.3925 4.11994L50.3868 5.84863ZM46.7832 5.40918L47.4312 7.3013C47.4389 7.29866 47.4466 7.29598 47.4543 7.29325L46.7832 5.40918ZM45.5967 6.14746L44.218 4.69863C44.2143 4.7021 44.2107 4.70558 44.2071 4.70908L45.5967 6.14746ZM44.753 7.47461L42.8919 6.74208C42.8897 6.74781 42.8875 6.75356 42.8853 6.75932L44.753 7.47461ZM44.7793 11.5352L42.932 12.3016C42.9343 12.3072 42.9367 12.3127 42.939 12.3183L44.7793 11.5352ZM45.6582 12.8359L46.9975 11.3506L46.9962 11.3493L45.6582 12.8359ZM46.8536 13.5303L46.244 15.4351C46.2517 15.4376 46.2594 15.44 46.2672 15.4424L46.8536 13.5303ZM49.3672 13.5479L48.7849 11.6345L48.7771 11.6369L49.3672 13.5479ZM50.4834 13.0469L49.4648 11.3257C49.4527 11.3329 49.4407 11.3402 49.4287 11.3476L50.4834 13.0469ZM51.8897 12.001V10.001C51.3999 10.001 50.9271 10.1807 50.561 10.5062L51.8897 12.001ZM52.2412 12.001H54.2412C54.2412 10.8964 53.3458 10.001 52.2412 10.001V12.001ZM52.2412 15.1299L53.0565 16.9562C53.7772 16.6345 54.2412 15.9191 54.2412 15.1299H52.2412ZM50.3604 15.877L49.8109 13.9539L49.8075 13.9549L50.3604 15.877ZM47.6094 14.2549C46.8354 14.2549 46.1605 14.141 45.5677 13.935L44.2547 17.7134C45.3142 18.0816 46.4381 18.2549 47.6094 18.2549V14.2549ZM45.5719 13.9365C45.0059 13.7384 44.5512 13.4566 44.1784 13.0985L41.4076 15.9835C42.2184 16.7622 43.1758 17.3358 44.2505 17.7119L45.5719 13.9365ZM44.1784 13.0985C43.8198 12.7541 43.5132 12.3005 43.2788 11.6935L39.5474 13.1346C39.9693 14.2268 40.5827 15.1912 41.4076 15.9835L44.1784 13.0985ZM43.2831 11.7048C43.0637 11.1264 42.9297 10.3935 42.9297 9.46973H38.9297C38.9297 10.7726 39.118 12.0025 39.5431 13.1234L43.2831 11.7048ZM42.9297 9.46973C42.9297 8.63271 43.0548 7.93064 43.2725 7.33924L39.5186 5.95763C39.1152 7.05373 38.9297 8.23252 38.9297 9.46973H42.9297ZM43.2725 7.33924C43.4916 6.74386 43.7959 6.26657 44.1771 5.87782L41.3211 3.07726C40.5187 3.89554 39.9206 4.86551 39.5186 5.95763L43.2725 7.33924ZM44.1776 5.87725C44.5223 5.52546 44.9709 5.22819 45.565 5.00385L44.1519 1.26177C43.0702 1.67025 42.1125 2.26947 41.3205 3.07783L44.1776 5.87725ZM45.5607 5.00547C46.1574 4.78169 46.8367 4.6582 47.6182 4.6582V0.658203C46.4075 0.658203 45.247 0.851119 44.1562 1.26015L45.5607 5.00547ZM47.6182 4.6582C48.0939 4.6582 48.4895 4.68622 48.8133 4.73371L49.3938 0.776053C48.8387 0.694635 48.2441 0.658203 47.6182 0.658203V4.6582ZM48.8426 4.73779C49.2157 4.78688 49.5403 4.85071 49.8206 4.92516L50.8475 1.05922C50.3777 0.934443 49.882 0.840072 49.3645 0.771974L48.8426 4.73779ZM49.7884 4.91632C50.1055 5.00625 50.3689 5.10161 50.5852 5.19774L52.2098 1.54249C51.7932 1.35737 51.3477 1.20079 50.8797 1.06806L49.7884 4.91632ZM50.6259 5.21528C50.9227 5.3394 51.1674 5.44948 51.3644 5.54558L53.1181 1.95051C52.8346 1.81224 52.5168 1.67036 52.1691 1.52496L50.6259 5.21528ZM50.2412 3.74805V6.9209H54.2412V3.74805H50.2412ZM52.2412 4.9209H51.8545V8.9209H52.2412V4.9209ZM53.1561 5.40239C52.9553 5.23023 52.7168 5.03946 52.4481 4.8333L50.0129 8.00654C50.2481 8.1871 50.4257 8.33032 50.5529 8.43941L53.1561 5.40239ZM52.4661 4.84729C52.1407 4.59157 51.7853 4.35261 51.4064 4.12805L49.3672 7.56922C49.621 7.71966 49.8281 7.86155 49.9949 7.99256L52.4661 4.84729ZM51.3925 4.11994C50.9504 3.86271 50.4818 3.65136 49.991 3.48265L48.6907 7.2654C48.9499 7.3545 49.1785 7.45956 49.381 7.57733L51.3925 4.11994ZM49.991 3.48265C49.3909 3.27637 48.7683 3.18066 48.1368 3.18066V7.18066C48.3607 7.18066 48.5408 7.21386 48.6907 7.2654L49.991 3.48265ZM48.1368 3.18066C47.4439 3.18066 46.765 3.29261 46.1122 3.52511L47.4543 7.29325C47.657 7.22106 47.8803 7.18066 48.1368 7.18066V3.18066ZM46.1353 3.51706C45.4064 3.76668 44.7671 4.17609 44.218 4.69863L46.9754 7.59629C47.1529 7.42743 47.3046 7.34465 47.4312 7.3013L46.1353 3.51706ZM44.2071 4.70908C43.6137 5.28238 43.1899 5.98512 42.8919 6.74208L46.614 8.20714C46.7496 7.86253 46.8884 7.68051 46.9863 7.58584L44.2071 4.70908ZM42.8853 6.75932C42.5632 7.60024 42.4366 8.52514 42.4366 9.47852H46.4366C46.4366 8.86158 46.5209 8.45054 46.6207 8.1899L42.8853 6.75932ZM42.4366 9.47852C42.4366 10.4695 42.5725 11.435 42.932 12.3016L46.6266 10.7687C46.5291 10.5337 46.4366 10.1282 46.4366 9.47852H42.4366ZM42.939 12.3183C43.2582 13.0684 43.7024 13.7664 44.3203 14.3225L46.9962 11.3493C46.9109 11.2726 46.7692 11.1035 46.6196 10.752L42.939 12.3183ZM44.319 14.3213C44.8778 14.8252 45.5227 15.2043 46.244 15.4351L47.4631 11.6254C47.3055 11.575 47.1535 11.4912 46.9975 11.3506L44.319 14.3213ZM46.2672 15.4424C46.8825 15.6311 47.5136 15.7324 48.1543 15.7324V11.7324C47.9396 11.7324 47.7035 11.699 47.4399 11.6182L46.2672 15.4424ZM48.1543 15.7324C48.7679 15.7324 49.371 15.6399 49.9574 15.4588L48.7771 11.6369C48.5666 11.7019 48.3611 11.7324 48.1543 11.7324V15.7324ZM49.9496 15.4612C50.5106 15.2905 51.0427 15.0537 51.5382 14.7462L49.4287 11.3476C49.2445 11.4619 49.0325 11.5592 48.7849 11.6345L49.9496 15.4612ZM51.5021 14.768C51.8598 14.5563 52.1994 14.3256 52.5189 14.0746L50.0476 10.9293C49.8749 11.065 49.6813 11.1976 49.4648 11.3257L51.5021 14.768ZM52.5189 14.0746C52.7833 13.8668 53.0194 13.6727 53.2184 13.4958L50.561 10.5062C50.4435 10.6105 50.2754 10.7504 50.0476 10.9293L52.5189 14.0746ZM51.8897 14.001H52.2412V10.001H51.8897V14.001ZM50.2412 12.001V15.1299H54.2412V12.001H50.2412ZM51.4259 13.3036C51.1047 13.447 50.799 13.5813 50.5086 13.7065L52.093 17.3794C52.4003 17.2468 52.7215 17.1057 53.0565 16.9562L51.4259 13.3036ZM50.5086 13.7065C50.2925 13.7998 50.0604 13.8826 49.8109 13.9539L50.9098 17.8C51.3167 17.6838 51.7115 17.544 52.093 17.3794L50.5086 13.7065ZM49.8075 13.9549C49.4387 14.061 49.1094 14.1369 48.8175 14.1871L49.4951 18.1293C49.9532 18.0506 50.4266 17.939 50.9133 17.799L49.8075 13.9549ZM48.8175 14.1871C48.6063 14.2234 48.2209 14.2549 47.6094 14.2549V18.2549C48.3104 18.2549 48.9563 18.2219 49.4951 18.1293L48.8175 14.1871ZM66.4138 16V18C67.5184 18 68.4138 17.1046 68.4138 16H66.4138ZM63.0388 16H61.0388C61.0388 17.1046 61.9342 18 63.0388 18V16ZM63.0388 5.44434H65.0388C65.0388 4.33977 64.1434 3.44434 63.0388 3.44434V5.44434ZM59.2946 5.44434V3.44434C58.2297 3.44434 57.3515 4.27885 57.2972 5.34243L59.2946 5.44434ZM59.1452 8.09863L57.1495 7.96847L57.1494 7.97019L59.1452 8.09863ZM58.7937 11.0869L56.8309 10.7029L56.8287 10.714L58.7937 11.0869ZM58.2751 13.0732L60.1461 13.7801L60.1504 13.7686L58.2751 13.0732ZM56.9743 15.1826L55.5988 13.7307L55.5899 13.7393L56.9743 15.1826ZM53.6257 16.0527L53.4752 18.0471L53.478 18.0473L53.6257 16.0527ZM53.028 16H51.028C51.028 17.0024 51.7701 17.85 52.7637 17.9825L53.028 16ZM53.028 13.0732V11.0732C51.9235 11.0732 51.028 11.9687 51.028 13.0732H53.028ZM53.1511 13.0732L53.372 11.0855C53.2986 11.0773 53.2249 11.0732 53.1511 11.0732V13.0732ZM53.3269 13.0908L53.1458 15.0826C53.1508 15.0831 53.1558 15.0835 53.1608 15.0839L53.3269 13.0908ZM54.7155 12.8184L56.0171 14.3369C56.0242 14.3308 56.0312 14.3247 56.0381 14.3186L54.7155 12.8184ZM55.6296 10.9551L53.6679 10.5654L53.6659 10.5759L55.6296 10.9551ZM56.0075 7.36914L54.0108 7.25395L54.0104 7.26242L56.0075 7.36914ZM56.0866 5.38281L54.0877 5.31781C54.0875 5.32309 54.0874 5.32837 54.0872 5.33365L56.0866 5.38281ZM56.1482 2.91309V0.913086C55.0584 0.913086 54.1692 1.78554 54.1485 2.87512L56.1482 2.91309ZM66.4138 2.91309H68.4138C68.4138 1.80852 67.5184 0.913086 66.4138 0.913086V2.91309ZM66.4138 14H63.0388V18H66.4138V14ZM65.0388 16V5.44434H61.0388V16H65.0388ZM63.0388 3.44434H59.2946V7.44434H63.0388V3.44434ZM57.2972 5.34243C57.268 5.916 57.2446 6.36523 57.2272 6.69086L61.2215 6.90484C61.2392 6.57422 61.2627 6.12111 61.292 5.54624L57.2972 5.34243ZM57.2272 6.69086C57.2102 7.00796 57.1844 7.43291 57.1495 7.96847L61.141 8.22879C61.1764 7.68623 61.2033 7.244 61.2215 6.90484L57.2272 6.69086ZM57.1494 7.97019C57.0765 9.10177 56.9671 10.0064 56.8309 10.7029L60.7565 11.4709C60.9366 10.5502 61.0616 9.46268 61.1411 8.22708L57.1494 7.97019ZM56.8287 10.714C56.6885 11.4529 56.541 11.9974 56.3999 12.3779L60.1504 13.7686C60.396 13.1061 60.5941 12.3264 60.7586 11.4598L56.8287 10.714ZM56.4042 12.3664C56.2388 12.8043 56.0908 13.087 55.9782 13.2558L59.3064 15.4746C59.6391 14.9755 59.913 14.3969 60.1461 13.78L56.4042 12.3664ZM55.9782 13.2558C55.8147 13.5011 55.6854 13.6487 55.5988 13.7307L58.3498 16.6345C58.7086 16.2946 59.0246 15.8973 59.3064 15.4746L55.9782 13.2558ZM55.5899 13.7393C55.522 13.8044 55.4022 13.8915 55.1858 13.9744L56.6183 17.7091C57.2574 17.464 57.8525 17.1116 58.3588 16.626L55.5899 13.7393ZM55.1858 13.9744C54.9977 14.0466 54.7875 14.0879 54.5398 14.0879V18.0879C55.253 18.0879 55.9509 17.9651 56.6183 17.7091L55.1858 13.9744ZM54.5398 14.0879C54.2999 14.0879 54.0447 14.0783 53.7734 14.0582L53.478 18.0473C53.8395 18.0741 54.1936 18.0879 54.5398 18.0879V14.0879ZM53.7762 14.0584C53.6253 14.047 53.5071 14.0375 53.4192 14.0297C53.3219 14.0211 53.2885 14.017 53.2924 14.0175L52.7637 17.9825C52.9198 18.0033 53.1808 18.0248 53.4752 18.0471L53.7762 14.0584ZM55.028 16V13.0732H51.028V16H55.028ZM53.028 15.0732H53.1511V11.0732H53.028V15.0732ZM52.9302 15.061C52.9987 15.0686 53.0708 15.0758 53.1458 15.0826L53.5079 11.099C53.454 11.0941 53.4089 11.0896 53.372 11.0855L52.9302 15.061ZM53.1608 15.0839C53.2978 15.0953 53.4337 15.0996 53.5642 15.0996V11.0996C53.5189 11.0996 53.4966 11.098 53.493 11.0977L53.1608 15.0839ZM53.5642 15.0996C53.9277 15.0996 54.381 15.0816 54.7956 14.9741L53.7917 11.1021C53.8312 11.0919 53.8546 11.0883 53.8561 11.0881C53.8585 11.0877 53.8489 11.0893 53.8246 11.0913C53.7741 11.0956 53.6899 11.0996 53.5642 11.0996V15.0996ZM54.7956 14.9741C55.2461 14.8573 55.6608 14.6423 56.0171 14.3369L53.414 11.2998C53.5242 11.2053 53.6577 11.1369 53.7917 11.1021L54.7956 14.9741ZM56.0381 14.3186C56.9368 13.5264 57.3824 12.4265 57.5933 11.3343L53.6659 10.5759C53.5487 11.1829 53.385 11.3252 53.393 11.3181L56.0381 14.3186ZM57.5913 11.3447C57.7886 10.3513 57.9208 9.04612 58.0047 7.47586L54.0104 7.26242C53.9302 8.76247 53.8105 9.84789 53.6679 10.5654L57.5913 11.3447ZM58.0042 7.48433C58.0408 6.84963 58.068 6.16523 58.086 5.43198L54.0872 5.33365C54.0701 6.03008 54.0446 6.6699 54.0109 7.25395L58.0042 7.48433ZM58.0856 5.44782C58.1094 4.716 58.1301 3.88347 58.1478 2.95105L54.1485 2.87512C54.1311 3.79427 54.1108 4.60822 54.0877 5.31781L58.0856 5.44782ZM56.1482 4.91309H66.4138V0.913086H56.1482V4.91309ZM64.4138 2.91309V16H68.4138V2.91309H64.4138ZM72.9398 7.70312H70.9398C70.9398 8.80769 71.8353 9.70312 72.9398 9.70312V7.70312ZM78.6088 7.70312H80.6088C80.6088 6.59856 79.7134 5.70312 78.6088 5.70312V7.70312ZM78.6088 10.2344V12.2344C79.7134 12.2344 80.6088 11.3389 80.6088 10.2344H78.6088ZM72.9398 10.2344V8.23438C71.8353 8.23438 70.9398 9.12981 70.9398 10.2344H72.9398ZM72.9398 13.4688H70.9398C70.9398 14.5733 71.8353 15.4688 72.9398 15.4688V13.4688ZM79.0482 13.4688H81.0482C81.0482 12.3642 80.1528 11.4688 79.0482 11.4688V13.4688ZM79.0482 16V18C80.1528 18 81.0482 17.1046 81.0482 16H79.0482ZM69.5824 16H67.5824C67.5824 17.1046 68.4779 18 69.5824 18V16ZM69.5824 2.91309V0.913086C68.4779 0.913086 67.5824 1.80852 67.5824 2.91309H69.5824ZM79.0482 2.91309H81.0482C81.0482 1.80852 80.1528 0.913086 79.0482 0.913086V2.91309ZM79.0482 5.44434V7.44434C80.1528 7.44434 81.0482 6.54891 81.0482 5.44434H79.0482ZM72.9398 5.44434V3.44434C71.8353 3.44434 70.9398 4.33977 70.9398 5.44434H72.9398ZM72.9398 9.70312H78.6088V5.70312H72.9398V9.70312ZM76.6088 7.70312V10.2344H80.6088V7.70312H76.6088ZM78.6088 8.23438H72.9398V12.2344H78.6088V8.23438ZM70.9398 10.2344V13.4688H74.9398V10.2344H70.9398ZM72.9398 15.4688H79.0482V11.4688H72.9398V15.4688ZM77.0482 13.4688V16H81.0482V13.4688H77.0482ZM79.0482 14H69.5824V18H79.0482V14ZM71.5824 16V2.91309H67.5824V16H71.5824ZM69.5824 4.91309H79.0482V0.913086H69.5824V4.91309ZM77.0482 2.91309V5.44434H81.0482V2.91309H77.0482ZM79.0482 3.44434H72.9398V7.44434H79.0482V3.44434ZM70.9398 5.44434V7.70312H74.9398V5.44434H70.9398ZM94.5567 13.46H96.5567C96.5567 12.3554 95.6613 11.46 94.5567 11.46V13.46ZM94.5567 19.0059V21.0059C95.6613 21.0059 96.5567 20.1104 96.5567 19.0059H94.5567ZM91.4542 19.0059H89.4542C89.4542 20.1104 90.3496 21.0059 91.4542 21.0059V19.0059ZM91.4542 15.9561H93.4542C93.4542 14.8515 92.5587 13.9561 91.4542 13.9561V15.9561ZM83.5089 15.9561V13.9561C82.4043 13.9561 81.5089 14.8515 81.5089 15.9561H83.5089ZM83.5089 19.0059V21.0059C84.6134 21.0059 85.5089 20.1104 85.5089 19.0059H83.5089ZM80.4063 19.0059H78.4063C78.4063 20.1104 79.3018 21.0059 80.4063 21.0059V19.0059ZM80.4063 13.46V11.46C79.3018 11.46 78.4063 12.3554 78.4063 13.46H80.4063ZM81.3995 13.46V15.46C82.1702 15.46 82.8724 15.0171 83.2044 14.3216L81.3995 13.46ZM82.9552 8.67871L84.9153 9.07595L84.9161 9.07216L82.9552 8.67871ZM83.5001 2.91309V0.913086C82.3955 0.913086 81.5001 1.80852 81.5001 2.91309H83.5001ZM93.2647 2.91309H95.2647C95.2647 1.80852 94.3693 0.913086 93.2647 0.913086V2.91309ZM93.2647 13.46H91.2647C91.2647 14.5645 92.1602 15.46 93.2647 15.46V13.46ZM89.8897 13.46V15.46C90.9943 15.46 91.8897 14.5645 91.8897 13.46H89.8897ZM89.8897 5.44434H91.8897C91.8897 4.33977 90.9943 3.44434 89.8897 3.44434V5.44434ZM86.6202 5.44434V3.44434C85.5697 3.44434 84.6983 4.25704 84.6251 5.30497L86.6202 5.44434ZM85.9171 9.8916L87.8507 10.4027L87.8524 10.3961L85.9171 9.8916ZM84.6339 13.46L82.8311 12.5938C82.5334 13.2136 82.5748 13.9428 82.9409 14.5248C83.307 15.1068 83.9463 15.46 84.6339 15.46V13.46ZM92.5567 13.46V19.0059H96.5567V13.46H92.5567ZM94.5567 17.0059H91.4542V21.0059H94.5567V17.0059ZM93.4542 19.0059V15.9561H89.4542V19.0059H93.4542ZM91.4542 13.9561H83.5089V17.9561H91.4542V13.9561ZM81.5089 15.9561V19.0059H85.5089V15.9561H81.5089ZM83.5089 17.0059H80.4063V21.0059H83.5089V17.0059ZM82.4063 19.0059V13.46H78.4063V19.0059H82.4063ZM80.4063 15.46H81.3995V11.46H80.4063V15.46ZM83.2044 14.3216C83.9637 12.7309 84.5298 10.9782 84.9153 9.07595L80.995 8.28147C80.6657 9.90661 80.1946 11.3414 79.5946 12.5984L83.2044 14.3216ZM84.9161 9.07216C85.3078 7.11983 85.5001 5.0653 85.5001 2.91309H81.5001C81.5001 4.82728 81.3291 6.6165 80.9942 8.28526L84.9161 9.07216ZM83.5001 4.91309H93.2647V0.913086H83.5001V4.91309ZM91.2647 2.91309V13.46H95.2647V2.91309H91.2647ZM93.2647 15.46H94.5567V11.46H93.2647V15.46ZM91.8897 13.46V5.44434H87.8897V13.46H91.8897ZM89.8897 3.44434H86.6202V7.44434H89.8897V3.44434ZM84.6251 5.30497C84.5213 6.79074 84.3043 8.1496 83.9817 9.38709L87.8524 10.3961C88.2446 8.89141 88.4965 7.28543 88.6153 5.5837L84.6251 5.30497ZM83.9835 9.38052C83.6586 10.6098 83.2715 11.6773 82.8311 12.5938L86.4366 14.3261C87.0041 13.1449 87.4725 11.8336 87.8507 10.4027L83.9835 9.38052ZM84.6339 15.46H89.8897V11.46H84.6339V15.46ZM107.613 14.4355L109.044 15.8325L109.048 15.8291L107.613 14.4355ZM97.7078 14.4355L96.2732 15.8291L96.2765 15.8325L97.7078 14.4355ZM97.7078 4.47754L99.1357 5.87796L99.139 5.87453L97.7078 4.47754ZM107.604 4.47754L106.176 5.87803L106.18 5.88144L107.604 4.47754ZM104.932 12.7744L106.469 14.0548L106.476 14.0458L104.932 12.7744ZM105.662 11.3682L107.581 11.9314L107.583 11.9258L105.662 11.3682ZM104.915 6.1123L103.391 7.40763L103.4 7.41818L104.915 6.1123ZM103.878 5.34766L103.12 7.19878L103.13 7.20269L103.878 5.34766ZM101.452 5.33887L100.709 3.48189L100.699 3.48593L101.452 5.33887ZM100.415 6.09473L98.9282 4.75679L98.9229 4.76269L100.415 6.09473ZM99.6941 7.45703L97.791 6.84189L97.7872 6.85384L99.6941 7.45703ZM99.6853 11.4561L97.78 12.0641C97.7826 12.0723 97.7852 12.0804 97.7879 12.0885L99.6853 11.4561ZM103.904 13.5566L104.675 15.402C104.683 15.3987 104.691 15.3954 104.699 15.3921L103.904 13.5566ZM107.406 9.46094C107.406 11.1457 106.936 12.2624 106.178 13.042L109.048 15.8291C110.681 14.1478 111.406 11.948 111.406 9.46094H107.406ZM106.182 13.0386C105.447 13.7915 104.36 14.2725 102.656 14.2725V18.2725C105.171 18.2725 107.389 17.5288 109.044 15.8325L106.182 13.0386ZM102.656 14.2725C100.96 14.2725 99.875 13.7926 99.139 13.0386L96.2765 15.8325C97.9312 17.5278 100.145 18.2725 102.656 18.2725V14.2725ZM99.1423 13.042C98.385 12.2624 97.9148 11.1457 97.9148 9.46094H93.9148C93.9148 11.948 94.6399 14.1478 96.2732 15.8291L99.1423 13.042ZM97.9148 9.46094C97.9148 7.75245 98.3882 6.64002 99.1357 5.87796L96.2799 3.07712C94.6367 4.75256 93.9148 6.9624 93.9148 9.46094H97.9148ZM99.139 5.87453C99.875 5.12053 100.96 4.64062 102.656 4.64062V0.640625C100.145 0.640625 97.9312 1.38533 96.2765 3.08055L99.139 5.87453ZM102.656 4.64062C104.344 4.64062 105.432 5.11937 106.176 5.87802L109.032 3.07705C107.374 1.38649 105.163 0.640625 102.656 0.640625V4.64062ZM106.18 5.88144C106.931 6.64396 107.406 7.75517 107.406 9.46094H111.406C111.406 6.95967 110.68 4.74861 109.029 3.07364L106.18 5.88144ZM106.476 14.0458C106.991 13.4212 107.354 12.7063 107.581 11.9314L103.743 10.805C103.654 11.1081 103.53 11.3307 103.389 11.503L106.476 14.0458ZM107.583 11.9258C107.806 11.1559 107.899 10.3215 107.899 9.45215H103.899C103.899 10.0476 103.834 10.4906 103.741 10.8105L107.583 11.9258ZM107.899 9.45215C107.899 8.52427 107.793 7.63201 107.526 6.82185L103.727 8.07463C103.823 8.36604 103.899 8.80972 103.899 9.45215H107.899ZM107.526 6.82185C107.285 6.09125 106.936 5.39425 106.43 4.80643L103.4 7.41818C103.479 7.51005 103.605 7.70367 103.727 8.07463L107.526 6.82185ZM106.439 4.81701C105.95 4.2415 105.345 3.7825 104.625 3.49262L103.13 7.20269C103.196 7.22922 103.282 7.27998 103.391 7.4076L106.439 4.81701ZM104.635 3.49656C104.006 3.23906 103.344 3.11035 102.665 3.11035V7.11035C102.83 7.11035 102.976 7.13985 103.12 7.19875L104.635 3.49656ZM102.665 3.11035C101.994 3.11035 101.336 3.23105 100.709 3.48191L102.195 7.19582C102.329 7.142 102.48 7.11035 102.665 7.11035V3.11035ZM100.699 3.48593C100 3.76989 99.4131 4.21801 98.9282 4.7568L101.901 7.43266C102.049 7.26832 102.154 7.21253 102.205 7.1918L100.699 3.48593ZM98.9229 4.76269C98.3875 5.36234 98.0333 6.09251 97.791 6.8419L101.597 8.07216C101.73 7.66139 101.856 7.48336 101.907 7.42676L98.9229 4.76269ZM97.7872 6.85384C97.53 7.66688 97.4216 8.54611 97.4216 9.46094H101.422C101.422 8.85232 101.495 8.39562 101.601 8.06023L97.7872 6.85384ZM97.4216 9.46094C97.4216 10.3797 97.5239 11.2618 97.78 12.0641L101.591 10.848C101.495 10.5487 101.422 10.1007 101.422 9.46094H97.4216ZM97.7879 12.0885C98.0295 12.8132 98.376 13.5004 98.8714 14.085L101.923 11.4989C101.832 11.3921 101.704 11.1888 101.583 10.8236L97.7879 12.0885ZM98.8714 14.085C99.3551 14.6558 99.9513 15.1082 100.654 15.402L102.197 11.7113C102.115 11.677 102.025 11.6196 101.923 11.4989L98.8714 14.085ZM100.654 15.402C101.296 15.6701 101.972 15.8027 102.665 15.8027V11.8027C102.491 11.8027 102.34 11.7713 102.197 11.7113L100.654 15.402ZM102.665 15.8027C103.358 15.8027 104.034 15.6701 104.675 15.402L103.133 11.7113C102.989 11.7713 102.839 11.8027 102.665 11.8027V15.8027ZM104.699 15.3921C105.398 15.0892 105.99 14.6297 106.469 14.0548L103.396 11.494C103.289 11.6222 103.195 11.6843 103.11 11.7212L104.699 15.3921ZM122.621 13.6885L120.844 12.7691C120.842 12.7746 120.839 12.7801 120.836 12.7857L122.621 13.6885ZM121.575 14.9277L120.388 13.3176C120.384 13.321 120.379 13.3243 120.375 13.3277L121.575 14.9277ZM119.87 15.7539L119.359 13.8202L119.354 13.8214L119.87 15.7539ZM111.81 16H109.81C109.81 17.1046 110.705 18 111.81 18V16ZM111.81 2.91309V0.913086C110.705 0.913086 109.81 1.80852 109.81 2.91309H111.81ZM119.202 3.01855L118.915 4.99798L118.919 4.99845L119.202 3.01855ZM120.661 3.48438L121.563 1.69972L121.555 1.69552L120.661 3.48438ZM121.768 4.50391L120.024 5.48329C120.03 5.49279 120.035 5.50224 120.04 5.51165L121.768 4.50391ZM121.636 7.63281L123.278 8.77437L123.285 8.76503L121.636 7.63281ZM120.221 8.75781L119.412 6.92874C118.688 7.24898 118.221 7.96614 118.221 8.75781H120.221ZM120.221 8.82812H118.221C118.221 9.78248 118.895 10.6039 119.831 10.7898L120.221 8.82812ZM122.251 9.88281L120.79 11.248L120.798 11.2565L122.251 9.88281ZM115.167 8.08105H113.167C113.167 9.18562 114.063 10.0811 115.167 10.0811V8.08105ZM117.945 7.87891L117.136 6.04984C117.127 6.05368 117.118 6.05759 117.11 6.06155L117.945 7.87891ZM118.542 7.36035L120.37 8.17263C120.373 8.16649 120.375 8.16034 120.378 8.15417L118.542 7.36035ZM118.516 5.96289L116.718 6.83782C116.724 6.85078 116.73 6.86368 116.737 6.8765L118.516 5.96289ZM117.945 5.47949L118.66 3.61178L118.657 3.61052L117.945 5.47949ZM117.022 5.33008L116.957 7.32904C116.968 7.32939 116.979 7.32965 116.99 7.32983L117.022 5.33008ZM115.167 5.3125V3.3125C114.063 3.3125 113.167 4.20793 113.167 5.3125H115.167ZM115.167 13.6006H113.167C113.167 14.7052 114.063 15.6006 115.167 15.6006V13.6006ZM118.586 13.3633L117.817 11.5171L117.806 11.5218L118.586 13.3633ZM119.307 12.7832L117.553 11.8226C117.55 11.8276 117.547 11.8326 117.545 11.8376L119.307 12.7832ZM119.263 10.9814L117.619 12.1199C117.63 12.136 117.641 12.152 117.653 12.1678L119.263 10.9814ZM118.446 10.4717L117.891 12.3931L117.892 12.3936L118.446 10.4717ZM115.167 10.3398V8.33984C114.063 8.33984 113.167 9.23527 113.167 10.3398H115.167ZM121.007 11.9922C121.007 12.3465 120.937 12.5899 120.844 12.7691L124.397 14.6079C124.82 13.791 125.007 12.9035 125.007 11.9922H121.007ZM120.836 12.7857C120.724 13.007 120.579 13.1769 120.388 13.3176L122.761 16.5378C123.461 16.0223 124.013 15.366 124.405 14.5913L120.836 12.7857ZM120.375 13.3277C120.064 13.5604 119.73 13.7222 119.359 13.8202L120.38 17.6876C121.251 17.4575 122.054 17.0685 122.775 16.5277L120.375 13.3277ZM119.354 13.8214C118.968 13.9245 118.374 14 117.523 14V18C118.57 18 119.541 17.9114 120.385 17.6864L119.354 13.8214ZM117.523 14H111.81V18H117.523V14ZM113.81 16V2.91309H109.81V16H113.81ZM111.81 4.91309H116.89V0.913086H111.81V4.91309ZM116.89 4.91309C117.932 4.91309 118.581 4.94956 118.915 4.99797L119.488 1.03914C118.85 0.946925 117.958 0.913086 116.89 0.913086V4.91309ZM118.919 4.99845C119.182 5.03601 119.463 5.1214 119.766 5.27323L121.555 1.69552C120.898 1.36688 120.206 1.14172 119.484 1.03866L118.919 4.99845ZM119.758 5.26901C119.952 5.36735 120.004 5.44754 120.024 5.48329L123.512 3.52452C123.051 2.70481 122.365 2.10531 121.563 1.69974L119.758 5.26901ZM120.04 5.51165C120.088 5.59334 120.137 5.72133 120.137 5.9541H124.137C124.137 5.09703 123.94 4.25822 123.496 3.49616L120.04 5.51165ZM120.137 5.9541C120.137 6.21356 120.076 6.37208 119.988 6.5006L123.285 8.76503C123.865 7.92089 124.137 6.96026 124.137 5.9541H120.137ZM119.994 6.49127C119.897 6.63045 119.734 6.78658 119.412 6.92874L121.03 10.5869C121.927 10.19 122.707 9.59611 123.278 8.77435L119.994 6.49127ZM118.221 8.75781V8.82812H122.221V8.75781H118.221ZM119.831 10.7898C120.358 10.8944 120.63 11.0771 120.79 11.248L123.713 8.5176C122.877 7.62213 121.795 7.10166 120.611 6.86645L119.831 10.7898ZM120.798 11.2565C120.886 11.3496 121.007 11.5267 121.007 11.9922H125.007C125.007 10.7115 124.625 9.48243 123.705 8.5091L120.798 11.2565ZM115.167 10.0811H115.695V6.08105H115.167V10.0811ZM115.695 10.0811C116.247 10.0811 116.735 10.072 117.151 10.0525L116.963 6.05688C116.63 6.07253 116.209 6.08105 115.695 6.08105V10.0811ZM117.151 10.0525C117.652 10.029 118.235 9.94664 118.78 9.69626L117.11 6.06155C117.176 6.03126 117.204 6.02924 117.172 6.03565C117.141 6.04171 117.075 6.05166 116.963 6.05688L117.151 10.0525ZM118.754 9.70798C119.313 9.46043 120.001 9.00294 120.37 8.17263L116.715 6.54807C116.896 6.13964 117.185 6.02785 117.136 6.04984L118.754 9.70798ZM120.378 8.15417C120.599 7.64369 120.683 7.11638 120.683 6.61328H116.683C116.683 6.64313 116.681 6.65095 116.682 6.64101C116.684 6.63038 116.691 6.60365 116.707 6.56653L120.378 8.15417ZM120.683 6.61328C120.683 6.0411 120.533 5.51326 120.295 5.04928L116.737 6.8765C116.721 6.84612 116.683 6.75187 116.683 6.61328H120.683ZM120.315 5.08796C119.94 4.31778 119.298 3.8561 118.66 3.61178L117.229 7.34721C117.194 7.3338 117.107 7.29464 117.002 7.20622C116.893 7.11348 116.791 6.98831 116.718 6.83782L120.315 5.08796ZM118.657 3.61052C118.125 3.40797 117.569 3.33851 117.054 3.33033L116.99 7.32983C117.095 7.3315 117.167 7.33914 117.21 7.34612C117.253 7.35315 117.257 7.35776 117.233 7.34847L118.657 3.61052ZM117.086 3.33112C116.691 3.31836 116.153 3.3125 115.484 3.3125V7.3125C116.139 7.3125 116.626 7.31836 116.957 7.32904L117.086 3.33112ZM115.484 3.3125H115.167V7.3125H115.484V3.3125ZM113.167 5.3125V8.08105H117.167V5.3125H113.167ZM115.167 15.6006H115.414V11.6006H115.167V15.6006ZM115.414 15.6006C116.363 15.6006 117.055 15.5977 117.481 15.5916L117.424 11.592C117.029 11.5976 116.362 11.6006 115.414 11.6006V15.6006ZM117.481 15.5916C118.126 15.5824 118.762 15.4611 119.367 15.2048L117.806 11.5218C117.72 11.5584 117.6 11.5895 117.424 11.592L117.481 15.5916ZM119.356 15.2094C119.966 14.9553 120.651 14.5091 121.069 13.7288L117.545 11.8376C117.706 11.5378 117.91 11.4783 117.817 11.5171L119.356 15.2094ZM121.061 13.7438C121.377 13.1673 121.509 12.5481 121.509 11.9395H117.509C117.509 11.9553 117.508 11.9473 117.514 11.9217C117.52 11.8951 117.532 11.86 117.553 11.8226L121.061 13.7438ZM121.509 11.9395C121.509 11.3004 121.389 10.4956 120.873 9.79505L117.653 12.1678C117.557 12.0371 117.521 11.9276 117.511 11.8855C117.501 11.8468 117.509 11.8577 117.509 11.9395H121.509ZM120.908 9.84303C120.391 9.09768 119.636 8.73299 118.999 8.54973L117.892 12.3936C117.951 12.4104 117.936 12.4138 117.882 12.3796C117.822 12.3425 117.717 12.262 117.619 12.1199L120.908 9.84303ZM119.001 8.55025C118.487 8.40183 117.919 8.3556 117.381 8.34879L117.331 12.3485C117.512 12.3508 117.65 12.3598 117.751 12.3712C117.855 12.3829 117.896 12.3946 117.891 12.3931L119.001 8.55025ZM117.381 8.34879C116.909 8.34282 116.417 8.33984 115.906 8.33984V12.3398C116.402 12.3398 116.877 12.3427 117.331 12.3485L117.381 8.34879ZM115.906 8.33984H115.167V12.3398H115.906V8.33984ZM113.167 10.3398V13.6006H117.167V10.3398H113.167ZM129.006 10.9551L127.114 10.3067C126.905 10.9177 127.003 11.5921 127.379 12.1177C127.754 12.6432 128.36 12.9551 129.006 12.9551V10.9551ZM132.223 10.9551V12.9551C132.869 12.9551 133.475 12.6432 133.85 12.1177C134.226 11.5921 134.324 10.9177 134.115 10.3067L132.223 10.9551ZM130.614 6.26172L132.506 5.61334C132.229 4.80482 131.469 4.26172 130.614 4.26172C129.76 4.26172 128.999 4.80482 128.722 5.61334L130.614 6.26172ZM133.04 13.3545L134.932 12.707C134.656 11.898 133.895 11.3545 133.04 11.3545V13.3545ZM128.189 13.3545V11.3545C127.334 11.3545 126.573 11.898 126.296 12.707L128.189 13.3545ZM127.283 16V18C128.138 18 128.899 17.4565 129.176 16.6475L127.283 16ZM123.882 16L122.006 15.307C121.779 15.9207 121.867 16.6065 122.241 17.1432C122.615 17.68 123.228 18 123.882 18V16ZM128.716 2.91309V0.913086C127.879 0.913086 127.13 1.43466 126.84 2.2201L128.716 2.91309ZM132.601 2.91309L134.477 2.2201C134.187 1.43466 133.438 0.913086 132.601 0.913086V2.91309ZM137.435 16V18C138.089 18 138.702 17.68 139.076 17.1432C139.45 16.6065 139.537 15.9207 139.311 15.307L137.435 16ZM133.945 16L132.053 16.6475C132.33 17.4565 133.09 18 133.945 18V16ZM129.006 12.9551H132.223V8.95508H129.006V12.9551ZM134.115 10.3067L132.506 5.61334L128.722 6.9101L130.331 11.6035L134.115 10.3067ZM128.722 5.61334L127.114 10.3067L130.898 11.6035L132.506 6.9101L128.722 5.61334ZM133.04 11.3545H128.189V15.3545H133.04V11.3545ZM126.296 12.707L125.391 15.3525L129.176 16.6475L130.081 14.002L126.296 12.707ZM127.283 14H123.882V18H127.283V14ZM125.758 16.693L130.592 3.60607L126.84 2.2201L122.006 15.307L125.758 16.693ZM128.716 4.91309H132.601V0.913086H128.716V4.91309ZM130.725 3.60607L135.559 16.693L139.311 15.307L134.477 2.2201L130.725 3.60607ZM137.435 14H133.945V18H137.435V14ZM135.838 15.3525L134.932 12.707L131.148 14.002L132.053 16.6475L135.838 15.3525ZM147.494 10.2344H149.494C149.494 9.12981 148.599 8.23438 147.494 8.23438V10.2344ZM142.511 10.2344V8.23438C141.406 8.23438 140.511 9.12981 140.511 10.2344H142.511ZM142.511 16V18C143.615 18 144.511 17.1046 144.511 16H142.511ZM139.136 16H137.136C137.136 17.1046 138.031 18 139.136 18V16ZM139.136 2.91309V0.913086C138.031 0.913086 137.136 1.80852 137.136 2.91309H139.136ZM142.511 2.91309H144.511C144.511 1.80852 143.615 0.913086 142.511 0.913086V2.91309ZM142.511 7.70312H140.511C140.511 8.80769 141.406 9.70312 142.511 9.70312V7.70312ZM147.494 7.70312V9.70312C148.599 9.70312 149.494 8.80769 149.494 7.70312H147.494ZM147.494 2.91309V0.913086C146.389 0.913086 145.494 1.80852 145.494 2.91309H147.494ZM150.869 2.91309H152.869C152.869 1.80852 151.974 0.913086 150.869 0.913086V2.91309ZM150.869 16V18C151.974 18 152.869 17.1046 152.869 16H150.869ZM147.494 16H145.494C145.494 17.1046 146.389 18 147.494 18V16ZM147.494 8.23438H142.511V12.2344H147.494V8.23438ZM140.511 10.2344V16H144.511V10.2344H140.511ZM142.511 14H139.136V18H142.511V14ZM141.136 16V2.91309H137.136V16H141.136ZM139.136 4.91309H142.511V0.913086H139.136V4.91309ZM140.511 2.91309V7.70312H144.511V2.91309H140.511ZM142.511 9.70312H147.494V5.70312H142.511V9.70312ZM149.494 7.70312V2.91309H145.494V7.70312H149.494ZM147.494 4.91309H150.869V0.913086H147.494V4.91309ZM148.869 2.91309V16H152.869V2.91309H148.869ZM150.869 14H147.494V18H150.869V14ZM149.494 16V10.2344H145.494V16H149.494ZM165.973 16V18C167.078 18 167.973 17.1046 167.973 16H165.973ZM162.686 16H160.686C160.686 17.1046 161.581 18 162.686 18V16ZM162.686 7.29004H164.686C164.686 6.39745 164.095 5.61291 163.236 5.36727C162.378 5.12162 161.461 5.47435 160.989 6.23173L162.686 7.29004ZM157.254 16V18C157.945 18 158.586 17.644 158.951 17.0583L157.254 16ZM154.038 16H152.038C152.038 17.1046 152.933 18 154.038 18V16ZM154.038 2.91309V0.913086C152.933 0.913086 152.038 1.80852 152.038 2.91309H154.038ZM157.325 2.91309H159.325C159.325 1.80852 158.429 0.913086 157.325 0.913086V2.91309ZM157.325 10.7969H155.325C155.325 11.6849 155.91 12.4665 156.762 12.7162C157.614 12.9659 158.529 12.6238 159.008 11.8762L157.325 10.7969ZM162.378 2.91309V0.913086C161.697 0.913086 161.062 1.26006 160.695 1.83375L162.378 2.91309ZM165.973 2.91309H167.973C167.973 1.80852 167.078 0.913086 165.973 0.913086V2.91309ZM165.973 14H162.686V18H165.973V14ZM164.686 16V7.29004H160.686V16H164.686ZM160.989 6.23173L155.557 14.9417L158.951 17.0583L164.383 8.34834L160.989 6.23173ZM157.254 14H154.038V18H157.254V14ZM156.038 16V2.91309H152.038V16H156.038ZM154.038 4.91309H157.325V0.913086H154.038V4.91309ZM155.325 2.91309V10.7969H159.325V2.91309H155.325ZM159.008 11.8762L164.062 3.99242L160.695 1.83375L155.641 9.71754L159.008 11.8762ZM162.378 4.91309H165.973V0.913086H162.378V4.91309ZM163.973 2.91309V16H167.973V2.91309H163.973ZM167.56 16L165.938 14.8301C165.498 15.439 165.437 16.2427 165.779 16.9111C166.121 17.5795 166.809 18 167.56 18V16ZM171.471 10.5771L173.093 11.7471C173.448 11.2549 173.56 10.6283 173.398 10.0435C173.236 9.45874 172.818 8.97908 172.26 8.73956L171.471 10.5771ZM169.608 9.13574L167.982 10.3011L167.989 10.3112L169.608 9.13574ZM169.379 4.94336L167.664 3.91437C167.661 3.91934 167.658 3.92432 167.655 3.92932L169.379 4.94336ZM170.513 3.72168L169.376 2.07642L169.374 2.0773L170.513 3.72168ZM171.963 3.11523L172.405 5.0657C172.41 5.06459 172.415 5.06347 172.42 5.06233L171.963 3.11523ZM180.049 2.91309H182.049C182.049 1.80852 181.154 0.913086 180.049 0.913086V2.91309ZM180.049 16V18C181.154 18 182.049 17.1046 182.049 16H180.049ZM176.692 16H174.692C174.692 17.1046 175.587 18 176.692 18V16ZM176.692 11.2012H178.692C178.692 10.0966 177.796 9.20117 176.692 9.20117V11.2012ZM174.855 11.2012V9.20117C174.196 9.20117 173.579 9.52573 173.206 10.0689L174.855 11.2012ZM171.559 16V18C172.218 18 172.834 17.6754 173.207 17.1323L171.559 16ZM176.692 5.32129H178.692C178.692 4.21672 177.796 3.32129 176.692 3.32129V5.32129ZM173.844 5.37402L174.055 7.3628C174.069 7.36132 174.083 7.35969 174.097 7.35792L173.844 5.37402ZM173.044 5.70801L174.229 7.31931C174.234 7.31557 174.239 7.3118 174.244 7.30801L173.044 5.70801ZM172.587 6.28809L174.411 7.10882C174.413 7.10324 174.416 7.09766 174.418 7.09207L172.587 6.28809ZM172.596 7.87891L170.781 8.71983C170.784 8.72557 170.787 8.7313 170.789 8.73702L172.596 7.87891ZM173.062 8.45898L174.301 6.88922C174.293 6.88284 174.285 6.87652 174.277 6.87027L173.062 8.45898ZM173.844 8.78418L173.572 10.7656L173.577 10.7663L173.844 8.78418ZM176.692 8.8457V10.8457C177.796 10.8457 178.692 9.95027 178.692 8.8457H176.692ZM169.182 17.1699L173.093 11.7471L169.849 9.40722L165.938 14.8301L169.182 17.1699ZM172.26 8.73956C171.759 8.52415 171.44 8.2559 171.226 7.96031L167.989 10.3112C168.677 11.2578 169.601 11.9505 170.681 12.4147L172.26 8.73956ZM171.233 7.97037C171.098 7.78261 170.94 7.41427 170.94 6.69238H166.94C166.94 7.98612 167.226 9.24669 167.982 10.3011L171.233 7.97037ZM170.94 6.69238C170.94 6.32458 171.017 6.10286 171.103 5.9574L167.655 3.92932C167.155 4.77995 166.94 5.72424 166.94 6.69238H170.94ZM171.094 5.97235C171.253 5.70689 171.438 5.51338 171.651 5.36606L169.374 2.0773C168.673 2.56279 168.102 3.18374 167.664 3.91437L171.094 5.97235ZM171.65 5.36693C171.8 5.26294 172.037 5.14934 172.405 5.0657L171.521 1.16477C170.753 1.33894 170.022 1.62964 169.376 2.07642L171.65 5.36693ZM172.42 5.06233C172.813 4.97021 173.311 4.91309 173.932 4.91309V0.913086C173.076 0.913086 172.262 0.990728 171.506 1.16814L172.42 5.06233ZM173.932 4.91309H180.049V0.913086H173.932V4.91309ZM178.049 2.91309V16H182.049V2.91309H178.049ZM180.049 14H176.692V18H180.049V14ZM178.692 16V11.2012H174.692V16H178.692ZM176.692 9.20117H174.855V13.2012H176.692V9.20117ZM173.206 10.0689L169.91 14.8677L173.207 17.1323L176.503 12.3335L173.206 10.0689ZM171.559 14H167.56V18H171.559V14ZM176.692 3.32129H175.022V7.32129H176.692V3.32129ZM175.022 3.32129C174.485 3.32129 173.992 3.33884 173.591 3.39012L174.097 7.35792C174.246 7.3389 174.539 7.32129 175.022 7.32129V3.32129ZM173.632 3.38525C172.943 3.45854 172.342 3.73421 171.844 4.10801L174.244 7.30801C174.256 7.29936 174.244 7.31009 174.208 7.32505C174.171 7.34067 174.118 7.35612 174.055 7.3628L173.632 3.38525ZM171.859 4.09671C171.36 4.46372 170.993 4.94306 170.756 5.48411L174.418 7.09207C174.407 7.11681 174.387 7.15589 174.351 7.20063C174.316 7.24592 174.274 7.28646 174.229 7.31931L171.859 4.09671ZM170.763 5.46736C170.529 5.98848 170.429 6.53352 170.429 7.07031H174.429C174.429 7.04948 174.431 7.04592 174.429 7.05589C174.427 7.06646 174.421 7.08542 174.411 7.10882L170.763 5.46736ZM170.429 7.07031C170.429 7.62212 170.533 8.18407 170.781 8.71983L174.41 7.03798C174.422 7.06272 174.427 7.08225 174.429 7.09207C174.431 7.1012 174.429 7.09533 174.429 7.07031H170.429ZM170.789 8.73702C171.032 9.2482 171.386 9.6955 171.847 10.0477L174.277 6.87027C174.303 6.89084 174.331 6.91708 174.355 6.94744C174.379 6.97757 174.394 7.00393 174.402 7.02079L170.789 8.73702ZM171.822 10.0287C172.343 10.4396 172.943 10.6793 173.572 10.7656L174.116 6.80276C174.125 6.80405 174.153 6.8092 174.192 6.82535C174.232 6.84179 174.269 6.86415 174.301 6.88922L171.822 10.0287ZM173.577 10.7663C174.006 10.8241 174.504 10.8457 175.039 10.8457V6.8457C174.59 6.8457 174.291 6.82629 174.111 6.80206L173.577 10.7663ZM175.039 10.8457H176.692V6.8457H175.039V10.8457ZM178.692 8.8457V5.32129H174.692V8.8457H178.692Z" fill="black" mask="url(#path-1-outside-1_247_11050)"/>
</svg>
